%TF.GenerationSoftware,KiCad,Pcbnew,(6.0.8)*%
%TF.CreationDate,2022-11-02T23:41:58+01:00*%
%TF.ProjectId,crane,6372616e-652e-46b6-9963-61645f706362,rev?*%
%TF.SameCoordinates,Original*%
%TF.FileFunction,Paste,Bot*%
%TF.FilePolarity,Positive*%
%FSLAX46Y46*%
G04 Gerber Fmt 4.6, Leading zero omitted, Abs format (unit mm)*
G04 Created by KiCad (PCBNEW (6.0.8)) date 2022-11-02 23:41:58*
%MOMM*%
%LPD*%
G01*
G04 APERTURE LIST*
G04 Aperture macros list*
%AMRoundRect*
0 Rectangle with rounded corners*
0 $1 Rounding radius*
0 $2 $3 $4 $5 $6 $7 $8 $9 X,Y pos of 4 corners*
0 Add a 4 corners polygon primitive as box body*
4,1,4,$2,$3,$4,$5,$6,$7,$8,$9,$2,$3,0*
0 Add four circle primitives for the rounded corners*
1,1,$1+$1,$2,$3*
1,1,$1+$1,$4,$5*
1,1,$1+$1,$6,$7*
1,1,$1+$1,$8,$9*
0 Add four rect primitives between the rounded corners*
20,1,$1+$1,$2,$3,$4,$5,0*
20,1,$1+$1,$4,$5,$6,$7,0*
20,1,$1+$1,$6,$7,$8,$9,0*
20,1,$1+$1,$8,$9,$2,$3,0*%
G04 Aperture macros list end*
%ADD10RoundRect,0.218750X-0.218750X-0.381250X0.218750X-0.381250X0.218750X0.381250X-0.218750X0.381250X0*%
%ADD11RoundRect,0.250000X-0.250000X-0.475000X0.250000X-0.475000X0.250000X0.475000X-0.250000X0.475000X0*%
%ADD12RoundRect,0.250000X0.250000X0.475000X-0.250000X0.475000X-0.250000X-0.475000X0.250000X-0.475000X0*%
%ADD13R,1.150000X1.800000*%
%ADD14RoundRect,0.250000X0.262500X0.450000X-0.262500X0.450000X-0.262500X-0.450000X0.262500X-0.450000X0*%
%ADD15R,1.168400X0.533400*%
%ADD16R,2.000000X1.500000*%
%ADD17R,2.000000X3.800000*%
%ADD18RoundRect,0.150000X-0.725000X-0.150000X0.725000X-0.150000X0.725000X0.150000X-0.725000X0.150000X0*%
%ADD19R,0.300000X1.600000*%
%ADD20R,1.700000X1.200000*%
%ADD21RoundRect,0.250000X0.450000X-0.262500X0.450000X0.262500X-0.450000X0.262500X-0.450000X-0.262500X0*%
%ADD22RoundRect,0.250000X-0.262500X-0.450000X0.262500X-0.450000X0.262500X0.450000X-0.262500X0.450000X0*%
%ADD23RoundRect,0.250000X0.475000X-0.250000X0.475000X0.250000X-0.475000X0.250000X-0.475000X-0.250000X0*%
%ADD24RoundRect,0.075000X-0.662500X-0.075000X0.662500X-0.075000X0.662500X0.075000X-0.662500X0.075000X0*%
%ADD25RoundRect,0.075000X-0.075000X-0.662500X0.075000X-0.662500X0.075000X0.662500X-0.075000X0.662500X0*%
%ADD26RoundRect,0.250000X-0.450000X0.262500X-0.450000X-0.262500X0.450000X-0.262500X0.450000X0.262500X0*%
%ADD27RoundRect,0.250000X-0.475000X0.250000X-0.475000X-0.250000X0.475000X-0.250000X0.475000X0.250000X0*%
%ADD28RoundRect,0.150000X0.512500X0.150000X-0.512500X0.150000X-0.512500X-0.150000X0.512500X-0.150000X0*%
%ADD29RoundRect,0.243750X0.456250X-0.243750X0.456250X0.243750X-0.456250X0.243750X-0.456250X-0.243750X0*%
%ADD30RoundRect,0.218750X0.218750X0.381250X-0.218750X0.381250X-0.218750X-0.381250X0.218750X-0.381250X0*%
%ADD31R,0.850000X3.430000*%
%ADD32R,1.600000X0.550000*%
%ADD33R,0.550000X1.600000*%
G04 APERTURE END LIST*
D10*
%TO.C,D7*%
X124937500Y-218000000D03*
X127062500Y-218000000D03*
%TD*%
D11*
%TO.C,C1*%
X165550000Y-103000000D03*
X167450000Y-103000000D03*
%TD*%
D10*
%TO.C,D3*%
X136937500Y-168000000D03*
X139062500Y-168000000D03*
%TD*%
D12*
%TO.C,C7*%
X163950000Y-135337500D03*
X162050000Y-135337500D03*
%TD*%
%TO.C,C9*%
X165312500Y-109000000D03*
X163412500Y-109000000D03*
%TD*%
D13*
%TO.C,FB1*%
X140462500Y-110000000D03*
X142262500Y-110000000D03*
%TD*%
D10*
%TO.C,D11*%
X148937500Y-243000000D03*
X151062500Y-243000000D03*
%TD*%
D12*
%TO.C,C10*%
X165312500Y-107000000D03*
X163412500Y-107000000D03*
%TD*%
D14*
%TO.C,R3*%
X175362500Y-101000000D03*
X173537500Y-101000000D03*
%TD*%
D15*
%TO.C,IC1*%
X149454700Y-106060200D03*
X149454700Y-107939800D03*
X147270300Y-107000000D03*
%TD*%
D16*
%TO.C,U4*%
X159512500Y-111300000D03*
D17*
X153212500Y-109000000D03*
D16*
X159512500Y-109000000D03*
X159512500Y-106700000D03*
%TD*%
D18*
%TO.C,U2*%
X163925000Y-100905000D03*
X163925000Y-99635000D03*
X163925000Y-98365000D03*
X163925000Y-97095000D03*
X169075000Y-97095000D03*
X169075000Y-98365000D03*
X169075000Y-99635000D03*
X169075000Y-100905000D03*
%TD*%
D10*
%TO.C,D4*%
X136937500Y-193000000D03*
X139062500Y-193000000D03*
%TD*%
D19*
%TO.C,Y1*%
X150900000Y-133337500D03*
X149950000Y-133337500D03*
X149000000Y-133337500D03*
%TD*%
D12*
%TO.C,C6*%
X163950000Y-153000000D03*
X162050000Y-153000000D03*
%TD*%
D20*
%TO.C,D14*%
X131500000Y-111300000D03*
X131500000Y-114200000D03*
%TD*%
D10*
%TO.C,D2*%
X124937500Y-180000000D03*
X127062500Y-180000000D03*
%TD*%
D21*
%TO.C,R12*%
X161000000Y-96350000D03*
X161000000Y-94525000D03*
%TD*%
D10*
%TO.C,D12*%
X172937500Y-243000000D03*
X175062500Y-243000000D03*
%TD*%
D22*
%TO.C,R1*%
X148950000Y-129837500D03*
X150775000Y-129837500D03*
%TD*%
D14*
%TO.C,R10*%
X154362500Y-97000000D03*
X152537500Y-97000000D03*
%TD*%
D23*
%TO.C,C14*%
X139950000Y-126950000D03*
X139950000Y-125050000D03*
%TD*%
D21*
%TO.C,R9*%
X135500000Y-123912500D03*
X135500000Y-122087500D03*
%TD*%
D10*
%TO.C,D5*%
X148937500Y-180000000D03*
X151062500Y-180000000D03*
%TD*%
D24*
%TO.C,U3*%
X146337500Y-150337500D03*
X146337500Y-149837500D03*
X146337500Y-149337500D03*
X146337500Y-148837500D03*
X146337500Y-148337500D03*
X146337500Y-147837500D03*
X146337500Y-147337500D03*
X146337500Y-146837500D03*
X146337500Y-146337500D03*
X146337500Y-145837500D03*
X146337500Y-145337500D03*
X146337500Y-144837500D03*
X146337500Y-144337500D03*
X146337500Y-143837500D03*
X146337500Y-143337500D03*
X146337500Y-142837500D03*
X146337500Y-142337500D03*
X146337500Y-141837500D03*
X146337500Y-141337500D03*
X146337500Y-140837500D03*
X146337500Y-140337500D03*
X146337500Y-139837500D03*
X146337500Y-139337500D03*
X146337500Y-138837500D03*
X146337500Y-138337500D03*
D25*
X148000000Y-136675000D03*
X148500000Y-136675000D03*
X149000000Y-136675000D03*
X149500000Y-136675000D03*
X150000000Y-136675000D03*
X150500000Y-136675000D03*
X151000000Y-136675000D03*
X151500000Y-136675000D03*
X152000000Y-136675000D03*
X152500000Y-136675000D03*
X153000000Y-136675000D03*
X153500000Y-136675000D03*
X154000000Y-136675000D03*
X154500000Y-136675000D03*
X155000000Y-136675000D03*
X155500000Y-136675000D03*
X156000000Y-136675000D03*
X156500000Y-136675000D03*
X157000000Y-136675000D03*
X157500000Y-136675000D03*
X158000000Y-136675000D03*
X158500000Y-136675000D03*
X159000000Y-136675000D03*
X159500000Y-136675000D03*
X160000000Y-136675000D03*
D24*
X161662500Y-138337500D03*
X161662500Y-138837500D03*
X161662500Y-139337500D03*
X161662500Y-139837500D03*
X161662500Y-140337500D03*
X161662500Y-140837500D03*
X161662500Y-141337500D03*
X161662500Y-141837500D03*
X161662500Y-142337500D03*
X161662500Y-142837500D03*
X161662500Y-143337500D03*
X161662500Y-143837500D03*
X161662500Y-144337500D03*
X161662500Y-144837500D03*
X161662500Y-145337500D03*
X161662500Y-145837500D03*
X161662500Y-146337500D03*
X161662500Y-146837500D03*
X161662500Y-147337500D03*
X161662500Y-147837500D03*
X161662500Y-148337500D03*
X161662500Y-148837500D03*
X161662500Y-149337500D03*
X161662500Y-149837500D03*
X161662500Y-150337500D03*
D25*
X160000000Y-152000000D03*
X159500000Y-152000000D03*
X159000000Y-152000000D03*
X158500000Y-152000000D03*
X158000000Y-152000000D03*
X157500000Y-152000000D03*
X157000000Y-152000000D03*
X156500000Y-152000000D03*
X156000000Y-152000000D03*
X155500000Y-152000000D03*
X155000000Y-152000000D03*
X154500000Y-152000000D03*
X154000000Y-152000000D03*
X153500000Y-152000000D03*
X153000000Y-152000000D03*
X152500000Y-152000000D03*
X152000000Y-152000000D03*
X151500000Y-152000000D03*
X151000000Y-152000000D03*
X150500000Y-152000000D03*
X150000000Y-152000000D03*
X149500000Y-152000000D03*
X149000000Y-152000000D03*
X148500000Y-152000000D03*
X148000000Y-152000000D03*
%TD*%
D23*
%TO.C,C5*%
X149000000Y-155950000D03*
X149000000Y-154050000D03*
%TD*%
D21*
%TO.C,R11*%
X158000000Y-96350000D03*
X158000000Y-94525000D03*
%TD*%
D22*
%TO.C,R2*%
X173537500Y-99000000D03*
X175362500Y-99000000D03*
%TD*%
D26*
%TO.C,R6*%
X130500000Y-105087500D03*
X130500000Y-106912500D03*
%TD*%
D21*
%TO.C,R8*%
X133200000Y-123912500D03*
X133200000Y-122087500D03*
%TD*%
D10*
%TO.C,D9*%
X172937500Y-218000000D03*
X175062500Y-218000000D03*
%TD*%
D27*
%TO.C,C15*%
X139950000Y-119500000D03*
X139950000Y-121400000D03*
%TD*%
D26*
%TO.C,R4*%
X162500000Y-126587500D03*
X162500000Y-128412500D03*
%TD*%
D23*
%TO.C,C12*%
X170500000Y-105950000D03*
X170500000Y-104050000D03*
%TD*%
D28*
%TO.C,U5*%
X176637500Y-104050000D03*
X176637500Y-105000000D03*
X176637500Y-105950000D03*
X174362500Y-105950000D03*
X174362500Y-104050000D03*
%TD*%
D12*
%TO.C,C13*%
X143312500Y-98000000D03*
X141412500Y-98000000D03*
%TD*%
D29*
%TO.C,D15*%
X158000000Y-100375000D03*
X158000000Y-98500000D03*
%TD*%
D10*
%TO.C,D10*%
X124937500Y-243000000D03*
X127062500Y-243000000D03*
%TD*%
D23*
%TO.C,C4*%
X140950000Y-154787500D03*
X140950000Y-152887500D03*
%TD*%
D26*
%TO.C,R5*%
X128000000Y-105087500D03*
X128000000Y-106912500D03*
%TD*%
D20*
%TO.C,D13*%
X165000000Y-128950000D03*
X165000000Y-126050000D03*
%TD*%
D27*
%TO.C,C17*%
X148000000Y-125050000D03*
X148000000Y-126950000D03*
%TD*%
D11*
%TO.C,C2*%
X143050000Y-155337500D03*
X144950000Y-155337500D03*
%TD*%
D30*
%TO.C,L1*%
X145062500Y-152337500D03*
X142937500Y-152337500D03*
%TD*%
D10*
%TO.C,D1*%
X172937500Y-168000000D03*
X175062500Y-168000000D03*
%TD*%
%TO.C,D8*%
X148937500Y-218000000D03*
X151062500Y-218000000D03*
%TD*%
D12*
%TO.C,C18*%
X150487500Y-97000000D03*
X148587500Y-97000000D03*
%TD*%
%TO.C,C8*%
X165312500Y-111000000D03*
X163412500Y-111000000D03*
%TD*%
%TO.C,C3*%
X175400000Y-97000000D03*
X173500000Y-97000000D03*
%TD*%
D21*
%TO.C,R7*%
X135000000Y-114412500D03*
X135000000Y-112587500D03*
%TD*%
D29*
%TO.C,D16*%
X161000000Y-100375000D03*
X161000000Y-98500000D03*
%TD*%
D31*
%TO.C,F1*%
X140062500Y-102000000D03*
X144662500Y-102000000D03*
%TD*%
D12*
%TO.C,C11*%
X143950000Y-136337500D03*
X142050000Y-136337500D03*
%TD*%
D10*
%TO.C,D6*%
X173000000Y-180000000D03*
X175125000Y-180000000D03*
%TD*%
D11*
%TO.C,C16*%
X155050000Y-127337500D03*
X156950000Y-127337500D03*
%TD*%
D32*
%TO.C,U6*%
X150700000Y-123137500D03*
X150700000Y-122337500D03*
X150700000Y-121537500D03*
X150700000Y-120737500D03*
X150700000Y-119937500D03*
X150700000Y-119137500D03*
X150700000Y-118337500D03*
X150700000Y-117537500D03*
D33*
X152150000Y-116087500D03*
X152950000Y-116087500D03*
X153750000Y-116087500D03*
X154550000Y-116087500D03*
X155350000Y-116087500D03*
X156150000Y-116087500D03*
X156950000Y-116087500D03*
X157750000Y-116087500D03*
D32*
X159200000Y-117537500D03*
X159200000Y-118337500D03*
X159200000Y-119137500D03*
X159200000Y-119937500D03*
X159200000Y-120737500D03*
X159200000Y-121537500D03*
X159200000Y-122337500D03*
X159200000Y-123137500D03*
D33*
X157750000Y-124587500D03*
X156950000Y-124587500D03*
X156150000Y-124587500D03*
X155350000Y-124587500D03*
X154550000Y-124587500D03*
X153750000Y-124587500D03*
X152950000Y-124587500D03*
X152150000Y-124587500D03*
%TD*%
M02*
