%TF.GenerationSoftware,KiCad,Pcbnew,(6.0.8)*%
%TF.CreationDate,2022-11-03T00:23:37+01:00*%
%TF.ProjectId,crane,6372616e-652e-46b6-9963-61645f706362,rev?*%
%TF.SameCoordinates,Original*%
%TF.FileFunction,Drillmap*%
%TF.FilePolarity,Positive*%
%FSLAX45Y45*%
G04 Gerber Fmt 4.5, Leading zero omitted, Abs format (unit mm)*
G04 Created by KiCad (PCBNEW (6.0.8)) date 2022-11-03 00:23:37*
%MOMM*%
%LPD*%
G01*
G04 APERTURE LIST*
%ADD10C,0.150000*%
%ADD11C,0.200000*%
%ADD12C,0.040000*%
%ADD13C,0.076200*%
%ADD14C,0.080000*%
%ADD15C,0.090000*%
%ADD16C,0.100000*%
%ADD17C,0.110000*%
%ADD18C,0.230000*%
%ADD19C,0.300000*%
G04 APERTURE END LIST*
D10*
X11700000Y-8700000D02*
X18250000Y-8700000D01*
X18550000Y-9000000D02*
G75*
G03*
X18250000Y-8700000I-300000J0D01*
G01*
X18550000Y-9000000D02*
X18550000Y-25350000D01*
X18300000Y-25600000D02*
X11700000Y-25600000D01*
X18300000Y-25600000D02*
G75*
G03*
X18550000Y-25350000I0J250000D01*
G01*
X11700000Y-8700000D02*
G75*
G03*
X11450000Y-8950000I0J-250000D01*
G01*
X11450000Y-25350000D02*
G75*
G03*
X11700000Y-25600000I250000J0D01*
G01*
X11450000Y-25350000D02*
X11450000Y-8950000D01*
D11*
D12*
X12655000Y-15655000D02*
X12695000Y-15695000D01*
X12695000Y-15655000D02*
X12655000Y-15695000D01*
X12830000Y-13180000D02*
X12870000Y-13220000D01*
X12870000Y-13180000D02*
X12830000Y-13220000D01*
X13055000Y-20055000D02*
X13095000Y-20095000D01*
X13095000Y-20055000D02*
X13055000Y-20095000D01*
X13080000Y-10880000D02*
X13120000Y-10920000D01*
X13120000Y-10880000D02*
X13080000Y-10920000D01*
X13130000Y-12680000D02*
X13170000Y-12720000D01*
X13170000Y-12680000D02*
X13130000Y-12720000D01*
X13280000Y-10580000D02*
X13320000Y-10620000D01*
X13320000Y-10580000D02*
X13280000Y-10620000D01*
X13280000Y-10780000D02*
X13320000Y-10820000D01*
X13320000Y-10780000D02*
X13280000Y-10820000D01*
X13380000Y-15130000D02*
X13420000Y-15170000D01*
X13420000Y-15130000D02*
X13380000Y-15170000D01*
X13530000Y-14780000D02*
X13570000Y-14820000D01*
X13570000Y-14780000D02*
X13530000Y-14820000D01*
X13530000Y-15130000D02*
X13570000Y-15170000D01*
X13570000Y-15130000D02*
X13530000Y-15170000D01*
X13630000Y-12680000D02*
X13670000Y-12720000D01*
X13670000Y-12680000D02*
X13630000Y-12720000D01*
X13680000Y-12980000D02*
X13720000Y-13020000D01*
X13720000Y-12980000D02*
X13680000Y-13020000D01*
X13680000Y-14780000D02*
X13720000Y-14820000D01*
X13720000Y-14780000D02*
X13680000Y-14820000D01*
X13730000Y-13892450D02*
X13770000Y-13932450D01*
X13770000Y-13892450D02*
X13730000Y-13932450D01*
X13780000Y-12530000D02*
X13820000Y-12570000D01*
X13820000Y-12530000D02*
X13780000Y-12570000D01*
X13830000Y-14830000D02*
X13870000Y-14870000D01*
X13870000Y-14830000D02*
X13830000Y-14870000D01*
X13830000Y-15280000D02*
X13870000Y-15320000D01*
X13870000Y-15280000D02*
X13830000Y-15320000D01*
X14180000Y-14180000D02*
X14220000Y-14220000D01*
X14220000Y-14180000D02*
X14180000Y-14220000D01*
X14180000Y-14280000D02*
X14220000Y-14320000D01*
X14220000Y-14280000D02*
X14180000Y-14320000D01*
X14180000Y-14380000D02*
X14220000Y-14420000D01*
X14220000Y-14380000D02*
X14180000Y-14420000D01*
X14180000Y-14530000D02*
X14220000Y-14570000D01*
X14220000Y-14530000D02*
X14180000Y-14570000D01*
X14205000Y-16930000D02*
X14245000Y-16970000D01*
X14245000Y-16930000D02*
X14205000Y-16970000D01*
X14280000Y-15780000D02*
X14320000Y-15820000D01*
X14320000Y-15780000D02*
X14280000Y-15820000D01*
X14280000Y-16230000D02*
X14320000Y-16270000D01*
X14320000Y-16230000D02*
X14280000Y-16270000D01*
X14330000Y-11230000D02*
X14370000Y-11270000D01*
X14370000Y-11230000D02*
X14330000Y-11270000D01*
X14380000Y-13780000D02*
X14420000Y-13820000D01*
X14420000Y-13780000D02*
X14380000Y-13820000D01*
X14380000Y-14530000D02*
X14420000Y-14570000D01*
X14420000Y-14530000D02*
X14380000Y-14570000D01*
X14380000Y-16280000D02*
X14420000Y-16320000D01*
X14420000Y-16280000D02*
X14380000Y-16320000D01*
X14580000Y-13630000D02*
X14620000Y-13670000D01*
X14620000Y-13630000D02*
X14580000Y-13670000D01*
X14730000Y-11480000D02*
X14770000Y-11520000D01*
X14770000Y-11480000D02*
X14730000Y-11520000D01*
X14780000Y-12080000D02*
X14820000Y-12120000D01*
X14820000Y-12080000D02*
X14780000Y-12120000D01*
X14980000Y-11430000D02*
X15020000Y-11470000D01*
X15020000Y-11430000D02*
X14980000Y-11470000D01*
X14980000Y-13130000D02*
X15020000Y-13170000D01*
X15020000Y-13130000D02*
X14980000Y-13170000D01*
X14980000Y-13830000D02*
X15020000Y-13870000D01*
X15020000Y-13830000D02*
X14980000Y-13870000D01*
X14980000Y-14580000D02*
X15020000Y-14620000D01*
X15020000Y-14580000D02*
X14980000Y-14620000D01*
X15030000Y-11030000D02*
X15070000Y-11070000D01*
X15070000Y-11030000D02*
X15030000Y-11070000D01*
X15080000Y-11330000D02*
X15120000Y-11370000D01*
X15120000Y-11330000D02*
X15080000Y-11370000D01*
X15130000Y-9830000D02*
X15170000Y-9870000D01*
X15170000Y-9830000D02*
X15130000Y-9870000D01*
X15130000Y-13830000D02*
X15170000Y-13870000D01*
X15170000Y-13830000D02*
X15130000Y-13870000D01*
X15180000Y-12630000D02*
X15220000Y-12670000D01*
X15220000Y-12630000D02*
X15180000Y-12670000D01*
X15230000Y-12080000D02*
X15270000Y-12120000D01*
X15270000Y-12080000D02*
X15230000Y-12120000D01*
X15330000Y-12630000D02*
X15370000Y-12670000D01*
X15370000Y-12630000D02*
X15330000Y-12670000D01*
X15380000Y-12230000D02*
X15420000Y-12270000D01*
X15420000Y-12230000D02*
X15380000Y-12270000D01*
X15480000Y-12230000D02*
X15520000Y-12270000D01*
X15520000Y-12230000D02*
X15480000Y-12270000D01*
X15630000Y-14280000D02*
X15670000Y-14320000D01*
X15670000Y-14280000D02*
X15630000Y-14320000D01*
X15680000Y-10930000D02*
X15720000Y-10970000D01*
X15720000Y-10930000D02*
X15680000Y-10970000D01*
X15780000Y-14880000D02*
X15820000Y-14920000D01*
X15820000Y-14880000D02*
X15780000Y-14920000D01*
X15780000Y-15380000D02*
X15820000Y-15420000D01*
X15820000Y-15380000D02*
X15780000Y-15420000D01*
X15880000Y-9280000D02*
X15920000Y-9320000D01*
X15920000Y-9280000D02*
X15880000Y-9320000D01*
X15930000Y-14480000D02*
X15970000Y-14520000D01*
X15970000Y-14480000D02*
X15930000Y-14520000D01*
X15980000Y-14280000D02*
X16020000Y-14320000D01*
X16020000Y-14280000D02*
X15980000Y-14320000D01*
X16030000Y-10430000D02*
X16070000Y-10470000D01*
X16070000Y-10430000D02*
X16030000Y-10470000D01*
X16030000Y-13430000D02*
X16070000Y-13470000D01*
X16070000Y-13430000D02*
X16030000Y-13470000D01*
X16080000Y-12880000D02*
X16120000Y-12920000D01*
X16120000Y-12880000D02*
X16080000Y-12920000D01*
X16185000Y-15475000D02*
X16225000Y-15515000D01*
X16225000Y-15475000D02*
X16185000Y-15515000D01*
X16230000Y-12430000D02*
X16270000Y-12470000D01*
X16270000Y-12430000D02*
X16230000Y-12470000D01*
X16280000Y-10480000D02*
X16320000Y-10520000D01*
X16320000Y-10480000D02*
X16280000Y-10520000D01*
X16380000Y-9580000D02*
X16420000Y-9620000D01*
X16420000Y-9580000D02*
X16380000Y-9620000D01*
X16405000Y-18230000D02*
X16445000Y-18270000D01*
X16445000Y-18230000D02*
X16405000Y-18270000D01*
X16630000Y-11930000D02*
X16670000Y-11970000D01*
X16670000Y-11930000D02*
X16630000Y-11970000D01*
X16680000Y-10080000D02*
X16720000Y-10120000D01*
X16720000Y-10080000D02*
X16680000Y-10120000D01*
X17155000Y-9780000D02*
X17195000Y-9820000D01*
X17195000Y-9780000D02*
X17155000Y-9820000D01*
X17680000Y-9680000D02*
X17720000Y-9720000D01*
X17720000Y-9680000D02*
X17680000Y-9720000D01*
X17830000Y-10480000D02*
X17870000Y-10520000D01*
X17870000Y-10480000D02*
X17830000Y-10520000D01*
D13*
X11763100Y-11011000D02*
G75*
G03*
X11763100Y-11011000I-38100J0D01*
G01*
X11763100Y-11265000D02*
G75*
G03*
X11763100Y-11265000I-38100J0D01*
G01*
X11763100Y-11519000D02*
G75*
G03*
X11763100Y-11519000I-38100J0D01*
G01*
X11763100Y-11773000D02*
G75*
G03*
X11763100Y-11773000I-38100J0D01*
G01*
X11763100Y-12027000D02*
G75*
G03*
X11763100Y-12027000I-38100J0D01*
G01*
X11763100Y-12281000D02*
G75*
G03*
X11763100Y-12281000I-38100J0D01*
G01*
X11763100Y-12535000D02*
G75*
G03*
X11763100Y-12535000I-38100J0D01*
G01*
X11763100Y-12789000D02*
G75*
G03*
X11763100Y-12789000I-38100J0D01*
G01*
D14*
X14395000Y-12015000D02*
X14395000Y-12095000D01*
X14355000Y-12055000D02*
X14435000Y-12055000D01*
X14395000Y-12503000D02*
X14395000Y-12583000D01*
X14355000Y-12543000D02*
X14435000Y-12543000D01*
D15*
X13006820Y-10081820D02*
X13006820Y-10018180D01*
X12943180Y-10018180D01*
X12943180Y-10081820D01*
X13006820Y-10081820D01*
X13006820Y-10281820D02*
X13006820Y-10218180D01*
X12943180Y-10218180D01*
X12943180Y-10281820D01*
X13006820Y-10281820D01*
X13256820Y-10081820D02*
X13256820Y-10018180D01*
X13193180Y-10018180D01*
X13193180Y-10081820D01*
X13256820Y-10081820D01*
X13256820Y-10281820D02*
X13256820Y-10218180D01*
X13193180Y-10218180D01*
X13193180Y-10281820D01*
X13256820Y-10281820D01*
D16*
X12724750Y-14296500D02*
X12774750Y-14246500D01*
X12724750Y-14196500D01*
X12674750Y-14246500D01*
X12724750Y-14296500D01*
X12724750Y-14550500D02*
X12774750Y-14500500D01*
X12724750Y-14450500D01*
X12674750Y-14500500D01*
X12724750Y-14550500D01*
X12724750Y-14804500D02*
X12774750Y-14754500D01*
X12724750Y-14704500D01*
X12674750Y-14754500D01*
X12724750Y-14804500D01*
X12978750Y-14296500D02*
X13028750Y-14246500D01*
X12978750Y-14196500D01*
X12928750Y-14246500D01*
X12978750Y-14296500D01*
X12978750Y-14550500D02*
X13028750Y-14500500D01*
X12978750Y-14450500D01*
X12928750Y-14500500D01*
X12978750Y-14550500D01*
X12978750Y-14804500D02*
X13028750Y-14754500D01*
X12978750Y-14704500D01*
X12928750Y-14754500D01*
X12978750Y-14804500D01*
X17250000Y-11792000D02*
X17300000Y-11742000D01*
X17250000Y-11692000D01*
X17200000Y-11742000D01*
X17250000Y-11792000D01*
X17250000Y-12046000D02*
X17300000Y-11996000D01*
X17250000Y-11946000D01*
X17200000Y-11996000D01*
X17250000Y-12046000D01*
X17250000Y-12300000D02*
X17300000Y-12250000D01*
X17250000Y-12200000D01*
X17200000Y-12250000D01*
X17250000Y-12300000D01*
X17504000Y-11792000D02*
X17554000Y-11742000D01*
X17504000Y-11692000D01*
X17454000Y-11742000D01*
X17504000Y-11792000D01*
X17504000Y-12046000D02*
X17554000Y-11996000D01*
X17504000Y-11946000D01*
X17454000Y-11996000D01*
X17504000Y-12046000D01*
X17504000Y-12300000D02*
X17554000Y-12250000D01*
X17504000Y-12200000D01*
X17454000Y-12250000D01*
X17504000Y-12300000D01*
D17*
X12220000Y-17120000D02*
X12330000Y-17230000D01*
X12330000Y-17120000D02*
X12220000Y-17230000D01*
X12330000Y-17175000D02*
G75*
G03*
X12330000Y-17175000I-55000J0D01*
G01*
X12220000Y-17570000D02*
X12330000Y-17680000D01*
X12330000Y-17570000D02*
X12220000Y-17680000D01*
X12330000Y-17625000D02*
G75*
G03*
X12330000Y-17625000I-55000J0D01*
G01*
X12220000Y-20870000D02*
X12330000Y-20980000D01*
X12330000Y-20870000D02*
X12220000Y-20980000D01*
X12330000Y-20925000D02*
G75*
G03*
X12330000Y-20925000I-55000J0D01*
G01*
X12220000Y-21320000D02*
X12330000Y-21430000D01*
X12330000Y-21320000D02*
X12220000Y-21430000D01*
X12330000Y-21375000D02*
G75*
G03*
X12330000Y-21375000I-55000J0D01*
G01*
X12220000Y-23370000D02*
X12330000Y-23480000D01*
X12330000Y-23370000D02*
X12220000Y-23480000D01*
X12330000Y-23425000D02*
G75*
G03*
X12330000Y-23425000I-55000J0D01*
G01*
X12220000Y-23820000D02*
X12330000Y-23930000D01*
X12330000Y-23820000D02*
X12220000Y-23930000D01*
X12330000Y-23875000D02*
G75*
G03*
X12330000Y-23875000I-55000J0D01*
G01*
X12870000Y-17120000D02*
X12980000Y-17230000D01*
X12980000Y-17120000D02*
X12870000Y-17230000D01*
X12980000Y-17175000D02*
G75*
G03*
X12980000Y-17175000I-55000J0D01*
G01*
X12870000Y-17570000D02*
X12980000Y-17680000D01*
X12980000Y-17570000D02*
X12870000Y-17680000D01*
X12980000Y-17625000D02*
G75*
G03*
X12980000Y-17625000I-55000J0D01*
G01*
X12870000Y-20870000D02*
X12980000Y-20980000D01*
X12980000Y-20870000D02*
X12870000Y-20980000D01*
X12980000Y-20925000D02*
G75*
G03*
X12980000Y-20925000I-55000J0D01*
G01*
X12870000Y-21320000D02*
X12980000Y-21430000D01*
X12980000Y-21320000D02*
X12870000Y-21430000D01*
X12980000Y-21375000D02*
G75*
G03*
X12980000Y-21375000I-55000J0D01*
G01*
X12870000Y-23370000D02*
X12980000Y-23480000D01*
X12980000Y-23370000D02*
X12870000Y-23480000D01*
X12980000Y-23425000D02*
G75*
G03*
X12980000Y-23425000I-55000J0D01*
G01*
X12870000Y-23820000D02*
X12980000Y-23930000D01*
X12980000Y-23820000D02*
X12870000Y-23930000D01*
X12980000Y-23875000D02*
G75*
G03*
X12980000Y-23875000I-55000J0D01*
G01*
X13420000Y-15870000D02*
X13530000Y-15980000D01*
X13530000Y-15870000D02*
X13420000Y-15980000D01*
X13530000Y-15925000D02*
G75*
G03*
X13530000Y-15925000I-55000J0D01*
G01*
X13420000Y-16320000D02*
X13530000Y-16430000D01*
X13530000Y-16320000D02*
X13420000Y-16430000D01*
X13530000Y-16375000D02*
G75*
G03*
X13530000Y-16375000I-55000J0D01*
G01*
X13420000Y-18370000D02*
X13530000Y-18480000D01*
X13530000Y-18370000D02*
X13420000Y-18480000D01*
X13530000Y-18425000D02*
G75*
G03*
X13530000Y-18425000I-55000J0D01*
G01*
X13420000Y-18820000D02*
X13530000Y-18930000D01*
X13530000Y-18820000D02*
X13420000Y-18930000D01*
X13530000Y-18875000D02*
G75*
G03*
X13530000Y-18875000I-55000J0D01*
G01*
X14070000Y-15870000D02*
X14180000Y-15980000D01*
X14180000Y-15870000D02*
X14070000Y-15980000D01*
X14180000Y-15925000D02*
G75*
G03*
X14180000Y-15925000I-55000J0D01*
G01*
X14070000Y-16320000D02*
X14180000Y-16430000D01*
X14180000Y-16320000D02*
X14070000Y-16430000D01*
X14180000Y-16375000D02*
G75*
G03*
X14180000Y-16375000I-55000J0D01*
G01*
X14070000Y-18370000D02*
X14180000Y-18480000D01*
X14180000Y-18370000D02*
X14070000Y-18480000D01*
X14180000Y-18425000D02*
G75*
G03*
X14180000Y-18425000I-55000J0D01*
G01*
X14070000Y-18820000D02*
X14180000Y-18930000D01*
X14180000Y-18820000D02*
X14070000Y-18930000D01*
X14180000Y-18875000D02*
G75*
G03*
X14180000Y-18875000I-55000J0D01*
G01*
X14620000Y-17120000D02*
X14730000Y-17230000D01*
X14730000Y-17120000D02*
X14620000Y-17230000D01*
X14730000Y-17175000D02*
G75*
G03*
X14730000Y-17175000I-55000J0D01*
G01*
X14620000Y-17570000D02*
X14730000Y-17680000D01*
X14730000Y-17570000D02*
X14620000Y-17680000D01*
X14730000Y-17625000D02*
G75*
G03*
X14730000Y-17625000I-55000J0D01*
G01*
X14620000Y-20870000D02*
X14730000Y-20980000D01*
X14730000Y-20870000D02*
X14620000Y-20980000D01*
X14730000Y-20925000D02*
G75*
G03*
X14730000Y-20925000I-55000J0D01*
G01*
X14620000Y-21320000D02*
X14730000Y-21430000D01*
X14730000Y-21320000D02*
X14620000Y-21430000D01*
X14730000Y-21375000D02*
G75*
G03*
X14730000Y-21375000I-55000J0D01*
G01*
X14620000Y-23370000D02*
X14730000Y-23480000D01*
X14730000Y-23370000D02*
X14620000Y-23480000D01*
X14730000Y-23425000D02*
G75*
G03*
X14730000Y-23425000I-55000J0D01*
G01*
X14620000Y-23820000D02*
X14730000Y-23930000D01*
X14730000Y-23820000D02*
X14620000Y-23930000D01*
X14730000Y-23875000D02*
G75*
G03*
X14730000Y-23875000I-55000J0D01*
G01*
X15270000Y-17120000D02*
X15380000Y-17230000D01*
X15380000Y-17120000D02*
X15270000Y-17230000D01*
X15380000Y-17175000D02*
G75*
G03*
X15380000Y-17175000I-55000J0D01*
G01*
X15270000Y-17570000D02*
X15380000Y-17680000D01*
X15380000Y-17570000D02*
X15270000Y-17680000D01*
X15380000Y-17625000D02*
G75*
G03*
X15380000Y-17625000I-55000J0D01*
G01*
X15270000Y-20870000D02*
X15380000Y-20980000D01*
X15380000Y-20870000D02*
X15270000Y-20980000D01*
X15380000Y-20925000D02*
G75*
G03*
X15380000Y-20925000I-55000J0D01*
G01*
X15270000Y-21320000D02*
X15380000Y-21430000D01*
X15380000Y-21320000D02*
X15270000Y-21430000D01*
X15380000Y-21375000D02*
G75*
G03*
X15380000Y-21375000I-55000J0D01*
G01*
X15270000Y-23370000D02*
X15380000Y-23480000D01*
X15380000Y-23370000D02*
X15270000Y-23480000D01*
X15380000Y-23425000D02*
G75*
G03*
X15380000Y-23425000I-55000J0D01*
G01*
X15270000Y-23820000D02*
X15380000Y-23930000D01*
X15380000Y-23820000D02*
X15270000Y-23930000D01*
X15380000Y-23875000D02*
G75*
G03*
X15380000Y-23875000I-55000J0D01*
G01*
X17020000Y-15870000D02*
X17130000Y-15980000D01*
X17130000Y-15870000D02*
X17020000Y-15980000D01*
X17130000Y-15925000D02*
G75*
G03*
X17130000Y-15925000I-55000J0D01*
G01*
X17020000Y-16320000D02*
X17130000Y-16430000D01*
X17130000Y-16320000D02*
X17020000Y-16430000D01*
X17130000Y-16375000D02*
G75*
G03*
X17130000Y-16375000I-55000J0D01*
G01*
X17020000Y-17120000D02*
X17130000Y-17230000D01*
X17130000Y-17120000D02*
X17020000Y-17230000D01*
X17130000Y-17175000D02*
G75*
G03*
X17130000Y-17175000I-55000J0D01*
G01*
X17020000Y-17570000D02*
X17130000Y-17680000D01*
X17130000Y-17570000D02*
X17020000Y-17680000D01*
X17130000Y-17625000D02*
G75*
G03*
X17130000Y-17625000I-55000J0D01*
G01*
X17020000Y-20870000D02*
X17130000Y-20980000D01*
X17130000Y-20870000D02*
X17020000Y-20980000D01*
X17130000Y-20925000D02*
G75*
G03*
X17130000Y-20925000I-55000J0D01*
G01*
X17020000Y-21320000D02*
X17130000Y-21430000D01*
X17130000Y-21320000D02*
X17020000Y-21430000D01*
X17130000Y-21375000D02*
G75*
G03*
X17130000Y-21375000I-55000J0D01*
G01*
X17020000Y-23370000D02*
X17130000Y-23480000D01*
X17130000Y-23370000D02*
X17020000Y-23480000D01*
X17130000Y-23425000D02*
G75*
G03*
X17130000Y-23425000I-55000J0D01*
G01*
X17020000Y-23820000D02*
X17130000Y-23930000D01*
X17130000Y-23820000D02*
X17020000Y-23930000D01*
X17130000Y-23875000D02*
G75*
G03*
X17130000Y-23875000I-55000J0D01*
G01*
X17670000Y-15870000D02*
X17780000Y-15980000D01*
X17780000Y-15870000D02*
X17670000Y-15980000D01*
X17780000Y-15925000D02*
G75*
G03*
X17780000Y-15925000I-55000J0D01*
G01*
X17670000Y-16320000D02*
X17780000Y-16430000D01*
X17780000Y-16320000D02*
X17670000Y-16430000D01*
X17780000Y-16375000D02*
G75*
G03*
X17780000Y-16375000I-55000J0D01*
G01*
X17670000Y-17120000D02*
X17780000Y-17230000D01*
X17780000Y-17120000D02*
X17670000Y-17230000D01*
X17780000Y-17175000D02*
G75*
G03*
X17780000Y-17175000I-55000J0D01*
G01*
X17670000Y-17570000D02*
X17780000Y-17680000D01*
X17780000Y-17570000D02*
X17670000Y-17680000D01*
X17780000Y-17625000D02*
G75*
G03*
X17780000Y-17625000I-55000J0D01*
G01*
X17670000Y-20870000D02*
X17780000Y-20980000D01*
X17780000Y-20870000D02*
X17670000Y-20980000D01*
X17780000Y-20925000D02*
G75*
G03*
X17780000Y-20925000I-55000J0D01*
G01*
X17670000Y-21320000D02*
X17780000Y-21430000D01*
X17780000Y-21320000D02*
X17670000Y-21430000D01*
X17780000Y-21375000D02*
G75*
G03*
X17780000Y-21375000I-55000J0D01*
G01*
X17670000Y-23370000D02*
X17780000Y-23480000D01*
X17780000Y-23370000D02*
X17670000Y-23480000D01*
X17780000Y-23425000D02*
G75*
G03*
X17780000Y-23425000I-55000J0D01*
G01*
X17670000Y-23820000D02*
X17780000Y-23930000D01*
X17780000Y-23820000D02*
X17670000Y-23930000D01*
X17780000Y-23875000D02*
G75*
G03*
X17780000Y-23875000I-55000J0D01*
G01*
D18*
X12383000Y-9665000D02*
X12613000Y-9895000D01*
X12613000Y-9665000D02*
X12383000Y-9895000D01*
X12498000Y-9665000D02*
X12498000Y-9895000D01*
X12383000Y-9780000D02*
X12613000Y-9780000D01*
X13587000Y-9665000D02*
X13817000Y-9895000D01*
X13817000Y-9665000D02*
X13587000Y-9895000D01*
X13702000Y-9665000D02*
X13702000Y-9895000D01*
X13587000Y-9780000D02*
X13817000Y-9780000D01*
D19*
X11575000Y-9835000D02*
X11875000Y-10135000D01*
X11875000Y-9835000D02*
X11575000Y-10135000D01*
X11831067Y-10091067D02*
X11831067Y-9878933D01*
X11618933Y-9878933D01*
X11618933Y-10091067D01*
X11831067Y-10091067D01*
X11575000Y-13665000D02*
X11875000Y-13965000D01*
X11875000Y-13665000D02*
X11575000Y-13965000D01*
X11831067Y-13921067D02*
X11831067Y-13708933D01*
X11618933Y-13708933D01*
X11618933Y-13921067D01*
X11831067Y-13921067D01*
X11800000Y-9050000D02*
X12100000Y-9350000D01*
X12100000Y-9050000D02*
X11800000Y-9350000D01*
X12056067Y-9306067D02*
X12056067Y-9093933D01*
X11843933Y-9093933D01*
X11843933Y-9306067D01*
X12056067Y-9306067D01*
X11800000Y-24850000D02*
X12100000Y-25150000D01*
X12100000Y-24850000D02*
X11800000Y-25150000D01*
X12056067Y-25106067D02*
X12056067Y-24893933D01*
X11843933Y-24893933D01*
X11843933Y-25106067D01*
X12056067Y-25106067D01*
X17850000Y-24850000D02*
X18150000Y-25150000D01*
X18150000Y-24850000D02*
X17850000Y-25150000D01*
X18106067Y-25106067D02*
X18106067Y-24893933D01*
X17893933Y-24893933D01*
X17893933Y-25106067D01*
X18106067Y-25106067D01*
X17900000Y-9050000D02*
X18200000Y-9350000D01*
X18200000Y-9050000D02*
X17900000Y-9350000D01*
X18156067Y-9306067D02*
X18156067Y-9093933D01*
X17943933Y-9093933D01*
X17943933Y-9306067D01*
X18156067Y-9306067D01*
X18125000Y-9835000D02*
X18425000Y-10135000D01*
X18425000Y-9835000D02*
X18125000Y-10135000D01*
X18381067Y-10091067D02*
X18381067Y-9878933D01*
X18168933Y-9878933D01*
X18168933Y-10091067D01*
X18381067Y-10091067D01*
X18125000Y-13665000D02*
X18425000Y-13965000D01*
X18425000Y-13665000D02*
X18125000Y-13965000D01*
X18381067Y-13921067D02*
X18381067Y-13708933D01*
X18168933Y-13708933D01*
X18168933Y-13921067D01*
X18381067Y-13921067D01*
D11*
X11700119Y-25917976D02*
X11700119Y-25717976D01*
X11747738Y-25717976D01*
X11776309Y-25727500D01*
X11795357Y-25746548D01*
X11804881Y-25765595D01*
X11814405Y-25803690D01*
X11814405Y-25832262D01*
X11804881Y-25870357D01*
X11795357Y-25889405D01*
X11776309Y-25908452D01*
X11747738Y-25917976D01*
X11700119Y-25917976D01*
X11900119Y-25917976D02*
X11900119Y-25784643D01*
X11900119Y-25822738D02*
X11909643Y-25803690D01*
X11919167Y-25794167D01*
X11938214Y-25784643D01*
X11957262Y-25784643D01*
X12023928Y-25917976D02*
X12023928Y-25784643D01*
X12023928Y-25717976D02*
X12014405Y-25727500D01*
X12023928Y-25737024D01*
X12033452Y-25727500D01*
X12023928Y-25717976D01*
X12023928Y-25737024D01*
X12147738Y-25917976D02*
X12128690Y-25908452D01*
X12119167Y-25889405D01*
X12119167Y-25717976D01*
X12252500Y-25917976D02*
X12233452Y-25908452D01*
X12223928Y-25889405D01*
X12223928Y-25717976D01*
X12481071Y-25917976D02*
X12481071Y-25717976D01*
X12547738Y-25860833D01*
X12614405Y-25717976D01*
X12614405Y-25917976D01*
X12795357Y-25917976D02*
X12795357Y-25813214D01*
X12785833Y-25794167D01*
X12766786Y-25784643D01*
X12728690Y-25784643D01*
X12709643Y-25794167D01*
X12795357Y-25908452D02*
X12776309Y-25917976D01*
X12728690Y-25917976D01*
X12709643Y-25908452D01*
X12700119Y-25889405D01*
X12700119Y-25870357D01*
X12709643Y-25851309D01*
X12728690Y-25841786D01*
X12776309Y-25841786D01*
X12795357Y-25832262D01*
X12890595Y-25784643D02*
X12890595Y-25984643D01*
X12890595Y-25794167D02*
X12909643Y-25784643D01*
X12947738Y-25784643D01*
X12966786Y-25794167D01*
X12976309Y-25803690D01*
X12985833Y-25822738D01*
X12985833Y-25879881D01*
X12976309Y-25898928D01*
X12966786Y-25908452D01*
X12947738Y-25917976D01*
X12909643Y-25917976D01*
X12890595Y-25908452D01*
X13071548Y-25898928D02*
X13081071Y-25908452D01*
X13071548Y-25917976D01*
X13062024Y-25908452D01*
X13071548Y-25898928D01*
X13071548Y-25917976D01*
X13071548Y-25794167D02*
X13081071Y-25803690D01*
X13071548Y-25813214D01*
X13062024Y-25803690D01*
X13071548Y-25794167D01*
X13071548Y-25813214D01*
D12*
X11402500Y-26227500D02*
X11442500Y-26267500D01*
X11442500Y-26227500D02*
X11402500Y-26267500D01*
D11*
X11738214Y-26137976D02*
X11757262Y-26137976D01*
X11776309Y-26147500D01*
X11785833Y-26157024D01*
X11795357Y-26176071D01*
X11804881Y-26214167D01*
X11804881Y-26261786D01*
X11795357Y-26299881D01*
X11785833Y-26318928D01*
X11776309Y-26328452D01*
X11757262Y-26337976D01*
X11738214Y-26337976D01*
X11719167Y-26328452D01*
X11709643Y-26318928D01*
X11700119Y-26299881D01*
X11690595Y-26261786D01*
X11690595Y-26214167D01*
X11700119Y-26176071D01*
X11709643Y-26157024D01*
X11719167Y-26147500D01*
X11738214Y-26137976D01*
X11890595Y-26318928D02*
X11900119Y-26328452D01*
X11890595Y-26337976D01*
X11881071Y-26328452D01*
X11890595Y-26318928D01*
X11890595Y-26337976D01*
X12071548Y-26204643D02*
X12071548Y-26337976D01*
X12023928Y-26128452D02*
X11976309Y-26271309D01*
X12100119Y-26271309D01*
X12214405Y-26137976D02*
X12233452Y-26137976D01*
X12252500Y-26147500D01*
X12262024Y-26157024D01*
X12271548Y-26176071D01*
X12281071Y-26214167D01*
X12281071Y-26261786D01*
X12271548Y-26299881D01*
X12262024Y-26318928D01*
X12252500Y-26328452D01*
X12233452Y-26337976D01*
X12214405Y-26337976D01*
X12195357Y-26328452D01*
X12185833Y-26318928D01*
X12176309Y-26299881D01*
X12166786Y-26261786D01*
X12166786Y-26214167D01*
X12176309Y-26176071D01*
X12185833Y-26157024D01*
X12195357Y-26147500D01*
X12214405Y-26137976D01*
X12404881Y-26137976D02*
X12423928Y-26137976D01*
X12442976Y-26147500D01*
X12452500Y-26157024D01*
X12462024Y-26176071D01*
X12471548Y-26214167D01*
X12471548Y-26261786D01*
X12462024Y-26299881D01*
X12452500Y-26318928D01*
X12442976Y-26328452D01*
X12423928Y-26337976D01*
X12404881Y-26337976D01*
X12385833Y-26328452D01*
X12376309Y-26318928D01*
X12366786Y-26299881D01*
X12357262Y-26261786D01*
X12357262Y-26214167D01*
X12366786Y-26176071D01*
X12376309Y-26157024D01*
X12385833Y-26147500D01*
X12404881Y-26137976D01*
X12557262Y-26337976D02*
X12557262Y-26204643D01*
X12557262Y-26223690D02*
X12566786Y-26214167D01*
X12585833Y-26204643D01*
X12614405Y-26204643D01*
X12633452Y-26214167D01*
X12642976Y-26233214D01*
X12642976Y-26337976D01*
X12642976Y-26233214D02*
X12652500Y-26214167D01*
X12671548Y-26204643D01*
X12700119Y-26204643D01*
X12719167Y-26214167D01*
X12728690Y-26233214D01*
X12728690Y-26337976D01*
X12823928Y-26337976D02*
X12823928Y-26204643D01*
X12823928Y-26223690D02*
X12833452Y-26214167D01*
X12852500Y-26204643D01*
X12881071Y-26204643D01*
X12900119Y-26214167D01*
X12909643Y-26233214D01*
X12909643Y-26337976D01*
X12909643Y-26233214D02*
X12919167Y-26214167D01*
X12938214Y-26204643D01*
X12966786Y-26204643D01*
X12985833Y-26214167D01*
X12995357Y-26233214D01*
X12995357Y-26337976D01*
X13385833Y-26128452D02*
X13214405Y-26385595D01*
X13642976Y-26137976D02*
X13662024Y-26137976D01*
X13681071Y-26147500D01*
X13690595Y-26157024D01*
X13700119Y-26176071D01*
X13709643Y-26214167D01*
X13709643Y-26261786D01*
X13700119Y-26299881D01*
X13690595Y-26318928D01*
X13681071Y-26328452D01*
X13662024Y-26337976D01*
X13642976Y-26337976D01*
X13623928Y-26328452D01*
X13614405Y-26318928D01*
X13604881Y-26299881D01*
X13595357Y-26261786D01*
X13595357Y-26214167D01*
X13604881Y-26176071D01*
X13614405Y-26157024D01*
X13623928Y-26147500D01*
X13642976Y-26137976D01*
X13795357Y-26318928D02*
X13804881Y-26328452D01*
X13795357Y-26337976D01*
X13785833Y-26328452D01*
X13795357Y-26318928D01*
X13795357Y-26337976D01*
X13928690Y-26137976D02*
X13947738Y-26137976D01*
X13966786Y-26147500D01*
X13976309Y-26157024D01*
X13985833Y-26176071D01*
X13995357Y-26214167D01*
X13995357Y-26261786D01*
X13985833Y-26299881D01*
X13976309Y-26318928D01*
X13966786Y-26328452D01*
X13947738Y-26337976D01*
X13928690Y-26337976D01*
X13909643Y-26328452D01*
X13900119Y-26318928D01*
X13890595Y-26299881D01*
X13881071Y-26261786D01*
X13881071Y-26214167D01*
X13890595Y-26176071D01*
X13900119Y-26157024D01*
X13909643Y-26147500D01*
X13928690Y-26137976D01*
X14185833Y-26337976D02*
X14071548Y-26337976D01*
X14128690Y-26337976D02*
X14128690Y-26137976D01*
X14109643Y-26166548D01*
X14090595Y-26185595D01*
X14071548Y-26195119D01*
X14366786Y-26137976D02*
X14271548Y-26137976D01*
X14262024Y-26233214D01*
X14271548Y-26223690D01*
X14290595Y-26214167D01*
X14338214Y-26214167D01*
X14357262Y-26223690D01*
X14366786Y-26233214D01*
X14376309Y-26252262D01*
X14376309Y-26299881D01*
X14366786Y-26318928D01*
X14357262Y-26328452D01*
X14338214Y-26337976D01*
X14290595Y-26337976D01*
X14271548Y-26328452D01*
X14262024Y-26318928D01*
X14442976Y-26137976D02*
X14576309Y-26137976D01*
X14490595Y-26337976D01*
X14642976Y-26137976D02*
X14642976Y-26176071D01*
X14719167Y-26137976D02*
X14719167Y-26176071D01*
X15014405Y-26414167D02*
X15004881Y-26404643D01*
X14985833Y-26376071D01*
X14976309Y-26357024D01*
X14966786Y-26328452D01*
X14957262Y-26280833D01*
X14957262Y-26242738D01*
X14966786Y-26195119D01*
X14976309Y-26166548D01*
X14985833Y-26147500D01*
X15004881Y-26118928D01*
X15014405Y-26109405D01*
X15176309Y-26137976D02*
X15138214Y-26137976D01*
X15119167Y-26147500D01*
X15109643Y-26157024D01*
X15090595Y-26185595D01*
X15081071Y-26223690D01*
X15081071Y-26299881D01*
X15090595Y-26318928D01*
X15100119Y-26328452D01*
X15119167Y-26337976D01*
X15157262Y-26337976D01*
X15176309Y-26328452D01*
X15185833Y-26318928D01*
X15195357Y-26299881D01*
X15195357Y-26252262D01*
X15185833Y-26233214D01*
X15176309Y-26223690D01*
X15157262Y-26214167D01*
X15119167Y-26214167D01*
X15100119Y-26223690D01*
X15090595Y-26233214D01*
X15081071Y-26252262D01*
X15366786Y-26204643D02*
X15366786Y-26337976D01*
X15319167Y-26128452D02*
X15271548Y-26271309D01*
X15395357Y-26271309D01*
X15623928Y-26337976D02*
X15623928Y-26137976D01*
X15709643Y-26337976D02*
X15709643Y-26233214D01*
X15700119Y-26214167D01*
X15681071Y-26204643D01*
X15652500Y-26204643D01*
X15633452Y-26214167D01*
X15623928Y-26223690D01*
X15833452Y-26337976D02*
X15814405Y-26328452D01*
X15804881Y-26318928D01*
X15795357Y-26299881D01*
X15795357Y-26242738D01*
X15804881Y-26223690D01*
X15814405Y-26214167D01*
X15833452Y-26204643D01*
X15862024Y-26204643D01*
X15881071Y-26214167D01*
X15890595Y-26223690D01*
X15900119Y-26242738D01*
X15900119Y-26299881D01*
X15890595Y-26318928D01*
X15881071Y-26328452D01*
X15862024Y-26337976D01*
X15833452Y-26337976D01*
X16014405Y-26337976D02*
X15995357Y-26328452D01*
X15985833Y-26309405D01*
X15985833Y-26137976D01*
X16166786Y-26328452D02*
X16147738Y-26337976D01*
X16109643Y-26337976D01*
X16090595Y-26328452D01*
X16081071Y-26309405D01*
X16081071Y-26233214D01*
X16090595Y-26214167D01*
X16109643Y-26204643D01*
X16147738Y-26204643D01*
X16166786Y-26214167D01*
X16176309Y-26233214D01*
X16176309Y-26252262D01*
X16081071Y-26271309D01*
X16252500Y-26328452D02*
X16271548Y-26337976D01*
X16309643Y-26337976D01*
X16328690Y-26328452D01*
X16338214Y-26309405D01*
X16338214Y-26299881D01*
X16328690Y-26280833D01*
X16309643Y-26271309D01*
X16281071Y-26271309D01*
X16262024Y-26261786D01*
X16252500Y-26242738D01*
X16252500Y-26233214D01*
X16262024Y-26214167D01*
X16281071Y-26204643D01*
X16309643Y-26204643D01*
X16328690Y-26214167D01*
X16404881Y-26414167D02*
X16414405Y-26404643D01*
X16433452Y-26376071D01*
X16442976Y-26357024D01*
X16452500Y-26328452D01*
X16462024Y-26280833D01*
X16462024Y-26242738D01*
X16452500Y-26195119D01*
X16442976Y-26166548D01*
X16433452Y-26147500D01*
X16414405Y-26118928D01*
X16404881Y-26109405D01*
D13*
X11442500Y-26511500D02*
G75*
G03*
X11442500Y-26511500I-38100J0D01*
G01*
D11*
X11738214Y-26401976D02*
X11757262Y-26401976D01*
X11776309Y-26411500D01*
X11785833Y-26421024D01*
X11795357Y-26440071D01*
X11804881Y-26478167D01*
X11804881Y-26525786D01*
X11795357Y-26563881D01*
X11785833Y-26582928D01*
X11776309Y-26592452D01*
X11757262Y-26601976D01*
X11738214Y-26601976D01*
X11719167Y-26592452D01*
X11709643Y-26582928D01*
X11700119Y-26563881D01*
X11690595Y-26525786D01*
X11690595Y-26478167D01*
X11700119Y-26440071D01*
X11709643Y-26421024D01*
X11719167Y-26411500D01*
X11738214Y-26401976D01*
X11890595Y-26582928D02*
X11900119Y-26592452D01*
X11890595Y-26601976D01*
X11881071Y-26592452D01*
X11890595Y-26582928D01*
X11890595Y-26601976D01*
X11966786Y-26401976D02*
X12100119Y-26401976D01*
X12014405Y-26601976D01*
X12262024Y-26401976D02*
X12223928Y-26401976D01*
X12204881Y-26411500D01*
X12195357Y-26421024D01*
X12176309Y-26449595D01*
X12166786Y-26487690D01*
X12166786Y-26563881D01*
X12176309Y-26582928D01*
X12185833Y-26592452D01*
X12204881Y-26601976D01*
X12242976Y-26601976D01*
X12262024Y-26592452D01*
X12271548Y-26582928D01*
X12281071Y-26563881D01*
X12281071Y-26516262D01*
X12271548Y-26497214D01*
X12262024Y-26487690D01*
X12242976Y-26478167D01*
X12204881Y-26478167D01*
X12185833Y-26487690D01*
X12176309Y-26497214D01*
X12166786Y-26516262D01*
X12357262Y-26421024D02*
X12366786Y-26411500D01*
X12385833Y-26401976D01*
X12433452Y-26401976D01*
X12452500Y-26411500D01*
X12462024Y-26421024D01*
X12471548Y-26440071D01*
X12471548Y-26459119D01*
X12462024Y-26487690D01*
X12347738Y-26601976D01*
X12471548Y-26601976D01*
X12557262Y-26601976D02*
X12557262Y-26468643D01*
X12557262Y-26487690D02*
X12566786Y-26478167D01*
X12585833Y-26468643D01*
X12614405Y-26468643D01*
X12633452Y-26478167D01*
X12642976Y-26497214D01*
X12642976Y-26601976D01*
X12642976Y-26497214D02*
X12652500Y-26478167D01*
X12671548Y-26468643D01*
X12700119Y-26468643D01*
X12719167Y-26478167D01*
X12728690Y-26497214D01*
X12728690Y-26601976D01*
X12823928Y-26601976D02*
X12823928Y-26468643D01*
X12823928Y-26487690D02*
X12833452Y-26478167D01*
X12852500Y-26468643D01*
X12881071Y-26468643D01*
X12900119Y-26478167D01*
X12909643Y-26497214D01*
X12909643Y-26601976D01*
X12909643Y-26497214D02*
X12919167Y-26478167D01*
X12938214Y-26468643D01*
X12966786Y-26468643D01*
X12985833Y-26478167D01*
X12995357Y-26497214D01*
X12995357Y-26601976D01*
X13385833Y-26392452D02*
X13214405Y-26649595D01*
X13642976Y-26401976D02*
X13662024Y-26401976D01*
X13681071Y-26411500D01*
X13690595Y-26421024D01*
X13700119Y-26440071D01*
X13709643Y-26478167D01*
X13709643Y-26525786D01*
X13700119Y-26563881D01*
X13690595Y-26582928D01*
X13681071Y-26592452D01*
X13662024Y-26601976D01*
X13642976Y-26601976D01*
X13623928Y-26592452D01*
X13614405Y-26582928D01*
X13604881Y-26563881D01*
X13595357Y-26525786D01*
X13595357Y-26478167D01*
X13604881Y-26440071D01*
X13614405Y-26421024D01*
X13623928Y-26411500D01*
X13642976Y-26401976D01*
X13795357Y-26582928D02*
X13804881Y-26592452D01*
X13795357Y-26601976D01*
X13785833Y-26592452D01*
X13795357Y-26582928D01*
X13795357Y-26601976D01*
X13928690Y-26401976D02*
X13947738Y-26401976D01*
X13966786Y-26411500D01*
X13976309Y-26421024D01*
X13985833Y-26440071D01*
X13995357Y-26478167D01*
X13995357Y-26525786D01*
X13985833Y-26563881D01*
X13976309Y-26582928D01*
X13966786Y-26592452D01*
X13947738Y-26601976D01*
X13928690Y-26601976D01*
X13909643Y-26592452D01*
X13900119Y-26582928D01*
X13890595Y-26563881D01*
X13881071Y-26525786D01*
X13881071Y-26478167D01*
X13890595Y-26440071D01*
X13900119Y-26421024D01*
X13909643Y-26411500D01*
X13928690Y-26401976D01*
X14062024Y-26401976D02*
X14185833Y-26401976D01*
X14119167Y-26478167D01*
X14147738Y-26478167D01*
X14166786Y-26487690D01*
X14176309Y-26497214D01*
X14185833Y-26516262D01*
X14185833Y-26563881D01*
X14176309Y-26582928D01*
X14166786Y-26592452D01*
X14147738Y-26601976D01*
X14090595Y-26601976D01*
X14071548Y-26592452D01*
X14062024Y-26582928D01*
X14309643Y-26401976D02*
X14328690Y-26401976D01*
X14347738Y-26411500D01*
X14357262Y-26421024D01*
X14366786Y-26440071D01*
X14376309Y-26478167D01*
X14376309Y-26525786D01*
X14366786Y-26563881D01*
X14357262Y-26582928D01*
X14347738Y-26592452D01*
X14328690Y-26601976D01*
X14309643Y-26601976D01*
X14290595Y-26592452D01*
X14281071Y-26582928D01*
X14271548Y-26563881D01*
X14262024Y-26525786D01*
X14262024Y-26478167D01*
X14271548Y-26440071D01*
X14281071Y-26421024D01*
X14290595Y-26411500D01*
X14309643Y-26401976D01*
X14500119Y-26401976D02*
X14519167Y-26401976D01*
X14538214Y-26411500D01*
X14547738Y-26421024D01*
X14557262Y-26440071D01*
X14566786Y-26478167D01*
X14566786Y-26525786D01*
X14557262Y-26563881D01*
X14547738Y-26582928D01*
X14538214Y-26592452D01*
X14519167Y-26601976D01*
X14500119Y-26601976D01*
X14481071Y-26592452D01*
X14471548Y-26582928D01*
X14462024Y-26563881D01*
X14452500Y-26525786D01*
X14452500Y-26478167D01*
X14462024Y-26440071D01*
X14471548Y-26421024D01*
X14481071Y-26411500D01*
X14500119Y-26401976D01*
X14642976Y-26401976D02*
X14642976Y-26440071D01*
X14719167Y-26401976D02*
X14719167Y-26440071D01*
X15014405Y-26678167D02*
X15004881Y-26668643D01*
X14985833Y-26640071D01*
X14976309Y-26621024D01*
X14966786Y-26592452D01*
X14957262Y-26544833D01*
X14957262Y-26506738D01*
X14966786Y-26459119D01*
X14976309Y-26430548D01*
X14985833Y-26411500D01*
X15004881Y-26382928D01*
X15014405Y-26373405D01*
X15119167Y-26487690D02*
X15100119Y-26478167D01*
X15090595Y-26468643D01*
X15081071Y-26449595D01*
X15081071Y-26440071D01*
X15090595Y-26421024D01*
X15100119Y-26411500D01*
X15119167Y-26401976D01*
X15157262Y-26401976D01*
X15176309Y-26411500D01*
X15185833Y-26421024D01*
X15195357Y-26440071D01*
X15195357Y-26449595D01*
X15185833Y-26468643D01*
X15176309Y-26478167D01*
X15157262Y-26487690D01*
X15119167Y-26487690D01*
X15100119Y-26497214D01*
X15090595Y-26506738D01*
X15081071Y-26525786D01*
X15081071Y-26563881D01*
X15090595Y-26582928D01*
X15100119Y-26592452D01*
X15119167Y-26601976D01*
X15157262Y-26601976D01*
X15176309Y-26592452D01*
X15185833Y-26582928D01*
X15195357Y-26563881D01*
X15195357Y-26525786D01*
X15185833Y-26506738D01*
X15176309Y-26497214D01*
X15157262Y-26487690D01*
X15433452Y-26601976D02*
X15433452Y-26401976D01*
X15519167Y-26601976D02*
X15519167Y-26497214D01*
X15509643Y-26478167D01*
X15490595Y-26468643D01*
X15462024Y-26468643D01*
X15442976Y-26478167D01*
X15433452Y-26487690D01*
X15642976Y-26601976D02*
X15623928Y-26592452D01*
X15614405Y-26582928D01*
X15604881Y-26563881D01*
X15604881Y-26506738D01*
X15614405Y-26487690D01*
X15623928Y-26478167D01*
X15642976Y-26468643D01*
X15671548Y-26468643D01*
X15690595Y-26478167D01*
X15700119Y-26487690D01*
X15709643Y-26506738D01*
X15709643Y-26563881D01*
X15700119Y-26582928D01*
X15690595Y-26592452D01*
X15671548Y-26601976D01*
X15642976Y-26601976D01*
X15823928Y-26601976D02*
X15804881Y-26592452D01*
X15795357Y-26573405D01*
X15795357Y-26401976D01*
X15976309Y-26592452D02*
X15957262Y-26601976D01*
X15919167Y-26601976D01*
X15900119Y-26592452D01*
X15890595Y-26573405D01*
X15890595Y-26497214D01*
X15900119Y-26478167D01*
X15919167Y-26468643D01*
X15957262Y-26468643D01*
X15976309Y-26478167D01*
X15985833Y-26497214D01*
X15985833Y-26516262D01*
X15890595Y-26535309D01*
X16062024Y-26592452D02*
X16081071Y-26601976D01*
X16119167Y-26601976D01*
X16138214Y-26592452D01*
X16147738Y-26573405D01*
X16147738Y-26563881D01*
X16138214Y-26544833D01*
X16119167Y-26535309D01*
X16090595Y-26535309D01*
X16071548Y-26525786D01*
X16062024Y-26506738D01*
X16062024Y-26497214D01*
X16071548Y-26478167D01*
X16090595Y-26468643D01*
X16119167Y-26468643D01*
X16138214Y-26478167D01*
X16214405Y-26678167D02*
X16223928Y-26668643D01*
X16242976Y-26640071D01*
X16252500Y-26621024D01*
X16262024Y-26592452D01*
X16271548Y-26544833D01*
X16271548Y-26506738D01*
X16262024Y-26459119D01*
X16252500Y-26430548D01*
X16242976Y-26411500D01*
X16223928Y-26382928D01*
X16214405Y-26373405D01*
D14*
X11402500Y-26735500D02*
X11402500Y-26815500D01*
X11362500Y-26775500D02*
X11442500Y-26775500D01*
D11*
X11738214Y-26665976D02*
X11757262Y-26665976D01*
X11776309Y-26675500D01*
X11785833Y-26685024D01*
X11795357Y-26704071D01*
X11804881Y-26742167D01*
X11804881Y-26789786D01*
X11795357Y-26827881D01*
X11785833Y-26846928D01*
X11776309Y-26856452D01*
X11757262Y-26865976D01*
X11738214Y-26865976D01*
X11719167Y-26856452D01*
X11709643Y-26846928D01*
X11700119Y-26827881D01*
X11690595Y-26789786D01*
X11690595Y-26742167D01*
X11700119Y-26704071D01*
X11709643Y-26685024D01*
X11719167Y-26675500D01*
X11738214Y-26665976D01*
X11890595Y-26846928D02*
X11900119Y-26856452D01*
X11890595Y-26865976D01*
X11881071Y-26856452D01*
X11890595Y-26846928D01*
X11890595Y-26865976D01*
X12014405Y-26751690D02*
X11995357Y-26742167D01*
X11985833Y-26732643D01*
X11976309Y-26713595D01*
X11976309Y-26704071D01*
X11985833Y-26685024D01*
X11995357Y-26675500D01*
X12014405Y-26665976D01*
X12052500Y-26665976D01*
X12071548Y-26675500D01*
X12081071Y-26685024D01*
X12090595Y-26704071D01*
X12090595Y-26713595D01*
X12081071Y-26732643D01*
X12071548Y-26742167D01*
X12052500Y-26751690D01*
X12014405Y-26751690D01*
X11995357Y-26761214D01*
X11985833Y-26770738D01*
X11976309Y-26789786D01*
X11976309Y-26827881D01*
X11985833Y-26846928D01*
X11995357Y-26856452D01*
X12014405Y-26865976D01*
X12052500Y-26865976D01*
X12071548Y-26856452D01*
X12081071Y-26846928D01*
X12090595Y-26827881D01*
X12090595Y-26789786D01*
X12081071Y-26770738D01*
X12071548Y-26761214D01*
X12052500Y-26751690D01*
X12214405Y-26665976D02*
X12233452Y-26665976D01*
X12252500Y-26675500D01*
X12262024Y-26685024D01*
X12271548Y-26704071D01*
X12281071Y-26742167D01*
X12281071Y-26789786D01*
X12271548Y-26827881D01*
X12262024Y-26846928D01*
X12252500Y-26856452D01*
X12233452Y-26865976D01*
X12214405Y-26865976D01*
X12195357Y-26856452D01*
X12185833Y-26846928D01*
X12176309Y-26827881D01*
X12166786Y-26789786D01*
X12166786Y-26742167D01*
X12176309Y-26704071D01*
X12185833Y-26685024D01*
X12195357Y-26675500D01*
X12214405Y-26665976D01*
X12404881Y-26665976D02*
X12423928Y-26665976D01*
X12442976Y-26675500D01*
X12452500Y-26685024D01*
X12462024Y-26704071D01*
X12471548Y-26742167D01*
X12471548Y-26789786D01*
X12462024Y-26827881D01*
X12452500Y-26846928D01*
X12442976Y-26856452D01*
X12423928Y-26865976D01*
X12404881Y-26865976D01*
X12385833Y-26856452D01*
X12376309Y-26846928D01*
X12366786Y-26827881D01*
X12357262Y-26789786D01*
X12357262Y-26742167D01*
X12366786Y-26704071D01*
X12376309Y-26685024D01*
X12385833Y-26675500D01*
X12404881Y-26665976D01*
X12557262Y-26865976D02*
X12557262Y-26732643D01*
X12557262Y-26751690D02*
X12566786Y-26742167D01*
X12585833Y-26732643D01*
X12614405Y-26732643D01*
X12633452Y-26742167D01*
X12642976Y-26761214D01*
X12642976Y-26865976D01*
X12642976Y-26761214D02*
X12652500Y-26742167D01*
X12671548Y-26732643D01*
X12700119Y-26732643D01*
X12719167Y-26742167D01*
X12728690Y-26761214D01*
X12728690Y-26865976D01*
X12823928Y-26865976D02*
X12823928Y-26732643D01*
X12823928Y-26751690D02*
X12833452Y-26742167D01*
X12852500Y-26732643D01*
X12881071Y-26732643D01*
X12900119Y-26742167D01*
X12909643Y-26761214D01*
X12909643Y-26865976D01*
X12909643Y-26761214D02*
X12919167Y-26742167D01*
X12938214Y-26732643D01*
X12966786Y-26732643D01*
X12985833Y-26742167D01*
X12995357Y-26761214D01*
X12995357Y-26865976D01*
X13385833Y-26656452D02*
X13214405Y-26913595D01*
X13642976Y-26665976D02*
X13662024Y-26665976D01*
X13681071Y-26675500D01*
X13690595Y-26685024D01*
X13700119Y-26704071D01*
X13709643Y-26742167D01*
X13709643Y-26789786D01*
X13700119Y-26827881D01*
X13690595Y-26846928D01*
X13681071Y-26856452D01*
X13662024Y-26865976D01*
X13642976Y-26865976D01*
X13623928Y-26856452D01*
X13614405Y-26846928D01*
X13604881Y-26827881D01*
X13595357Y-26789786D01*
X13595357Y-26742167D01*
X13604881Y-26704071D01*
X13614405Y-26685024D01*
X13623928Y-26675500D01*
X13642976Y-26665976D01*
X13795357Y-26846928D02*
X13804881Y-26856452D01*
X13795357Y-26865976D01*
X13785833Y-26856452D01*
X13795357Y-26846928D01*
X13795357Y-26865976D01*
X13928690Y-26665976D02*
X13947738Y-26665976D01*
X13966786Y-26675500D01*
X13976309Y-26685024D01*
X13985833Y-26704071D01*
X13995357Y-26742167D01*
X13995357Y-26789786D01*
X13985833Y-26827881D01*
X13976309Y-26846928D01*
X13966786Y-26856452D01*
X13947738Y-26865976D01*
X13928690Y-26865976D01*
X13909643Y-26856452D01*
X13900119Y-26846928D01*
X13890595Y-26827881D01*
X13881071Y-26789786D01*
X13881071Y-26742167D01*
X13890595Y-26704071D01*
X13900119Y-26685024D01*
X13909643Y-26675500D01*
X13928690Y-26665976D01*
X14062024Y-26665976D02*
X14185833Y-26665976D01*
X14119167Y-26742167D01*
X14147738Y-26742167D01*
X14166786Y-26751690D01*
X14176309Y-26761214D01*
X14185833Y-26780262D01*
X14185833Y-26827881D01*
X14176309Y-26846928D01*
X14166786Y-26856452D01*
X14147738Y-26865976D01*
X14090595Y-26865976D01*
X14071548Y-26856452D01*
X14062024Y-26846928D01*
X14376309Y-26865976D02*
X14262024Y-26865976D01*
X14319167Y-26865976D02*
X14319167Y-26665976D01*
X14300119Y-26694548D01*
X14281071Y-26713595D01*
X14262024Y-26723119D01*
X14557262Y-26665976D02*
X14462024Y-26665976D01*
X14452500Y-26761214D01*
X14462024Y-26751690D01*
X14481071Y-26742167D01*
X14528690Y-26742167D01*
X14547738Y-26751690D01*
X14557262Y-26761214D01*
X14566786Y-26780262D01*
X14566786Y-26827881D01*
X14557262Y-26846928D01*
X14547738Y-26856452D01*
X14528690Y-26865976D01*
X14481071Y-26865976D01*
X14462024Y-26856452D01*
X14452500Y-26846928D01*
X14642976Y-26665976D02*
X14642976Y-26704071D01*
X14719167Y-26665976D02*
X14719167Y-26704071D01*
X15014405Y-26942167D02*
X15004881Y-26932643D01*
X14985833Y-26904071D01*
X14976309Y-26885024D01*
X14966786Y-26856452D01*
X14957262Y-26808833D01*
X14957262Y-26770738D01*
X14966786Y-26723119D01*
X14976309Y-26694548D01*
X14985833Y-26675500D01*
X15004881Y-26646928D01*
X15014405Y-26637405D01*
X15081071Y-26685024D02*
X15090595Y-26675500D01*
X15109643Y-26665976D01*
X15157262Y-26665976D01*
X15176309Y-26675500D01*
X15185833Y-26685024D01*
X15195357Y-26704071D01*
X15195357Y-26723119D01*
X15185833Y-26751690D01*
X15071548Y-26865976D01*
X15195357Y-26865976D01*
X15433452Y-26865976D02*
X15433452Y-26665976D01*
X15519167Y-26865976D02*
X15519167Y-26761214D01*
X15509643Y-26742167D01*
X15490595Y-26732643D01*
X15462024Y-26732643D01*
X15442976Y-26742167D01*
X15433452Y-26751690D01*
X15642976Y-26865976D02*
X15623928Y-26856452D01*
X15614405Y-26846928D01*
X15604881Y-26827881D01*
X15604881Y-26770738D01*
X15614405Y-26751690D01*
X15623928Y-26742167D01*
X15642976Y-26732643D01*
X15671548Y-26732643D01*
X15690595Y-26742167D01*
X15700119Y-26751690D01*
X15709643Y-26770738D01*
X15709643Y-26827881D01*
X15700119Y-26846928D01*
X15690595Y-26856452D01*
X15671548Y-26865976D01*
X15642976Y-26865976D01*
X15823928Y-26865976D02*
X15804881Y-26856452D01*
X15795357Y-26837405D01*
X15795357Y-26665976D01*
X15976309Y-26856452D02*
X15957262Y-26865976D01*
X15919167Y-26865976D01*
X15900119Y-26856452D01*
X15890595Y-26837405D01*
X15890595Y-26761214D01*
X15900119Y-26742167D01*
X15919167Y-26732643D01*
X15957262Y-26732643D01*
X15976309Y-26742167D01*
X15985833Y-26761214D01*
X15985833Y-26780262D01*
X15890595Y-26799309D01*
X16062024Y-26856452D02*
X16081071Y-26865976D01*
X16119167Y-26865976D01*
X16138214Y-26856452D01*
X16147738Y-26837405D01*
X16147738Y-26827881D01*
X16138214Y-26808833D01*
X16119167Y-26799309D01*
X16090595Y-26799309D01*
X16071548Y-26789786D01*
X16062024Y-26770738D01*
X16062024Y-26761214D01*
X16071548Y-26742167D01*
X16090595Y-26732643D01*
X16119167Y-26732643D01*
X16138214Y-26742167D01*
X16214405Y-26942167D02*
X16223928Y-26932643D01*
X16242976Y-26904071D01*
X16252500Y-26885024D01*
X16262024Y-26856452D01*
X16271548Y-26808833D01*
X16271548Y-26770738D01*
X16262024Y-26723119D01*
X16252500Y-26694548D01*
X16242976Y-26675500D01*
X16223928Y-26646928D01*
X16214405Y-26637405D01*
D15*
X11429320Y-27071320D02*
X11429320Y-27007680D01*
X11365680Y-27007680D01*
X11365680Y-27071320D01*
X11429320Y-27071320D01*
D11*
X11738214Y-26929976D02*
X11757262Y-26929976D01*
X11776309Y-26939500D01*
X11785833Y-26949024D01*
X11795357Y-26968071D01*
X11804881Y-27006167D01*
X11804881Y-27053786D01*
X11795357Y-27091881D01*
X11785833Y-27110928D01*
X11776309Y-27120452D01*
X11757262Y-27129976D01*
X11738214Y-27129976D01*
X11719167Y-27120452D01*
X11709643Y-27110928D01*
X11700119Y-27091881D01*
X11690595Y-27053786D01*
X11690595Y-27006167D01*
X11700119Y-26968071D01*
X11709643Y-26949024D01*
X11719167Y-26939500D01*
X11738214Y-26929976D01*
X11890595Y-27110928D02*
X11900119Y-27120452D01*
X11890595Y-27129976D01*
X11881071Y-27120452D01*
X11890595Y-27110928D01*
X11890595Y-27129976D01*
X11995357Y-27129976D02*
X12033452Y-27129976D01*
X12052500Y-27120452D01*
X12062024Y-27110928D01*
X12081071Y-27082357D01*
X12090595Y-27044262D01*
X12090595Y-26968071D01*
X12081071Y-26949024D01*
X12071548Y-26939500D01*
X12052500Y-26929976D01*
X12014405Y-26929976D01*
X11995357Y-26939500D01*
X11985833Y-26949024D01*
X11976309Y-26968071D01*
X11976309Y-27015690D01*
X11985833Y-27034738D01*
X11995357Y-27044262D01*
X12014405Y-27053786D01*
X12052500Y-27053786D01*
X12071548Y-27044262D01*
X12081071Y-27034738D01*
X12090595Y-27015690D01*
X12214405Y-26929976D02*
X12233452Y-26929976D01*
X12252500Y-26939500D01*
X12262024Y-26949024D01*
X12271548Y-26968071D01*
X12281071Y-27006167D01*
X12281071Y-27053786D01*
X12271548Y-27091881D01*
X12262024Y-27110928D01*
X12252500Y-27120452D01*
X12233452Y-27129976D01*
X12214405Y-27129976D01*
X12195357Y-27120452D01*
X12185833Y-27110928D01*
X12176309Y-27091881D01*
X12166786Y-27053786D01*
X12166786Y-27006167D01*
X12176309Y-26968071D01*
X12185833Y-26949024D01*
X12195357Y-26939500D01*
X12214405Y-26929976D01*
X12404881Y-26929976D02*
X12423928Y-26929976D01*
X12442976Y-26939500D01*
X12452500Y-26949024D01*
X12462024Y-26968071D01*
X12471548Y-27006167D01*
X12471548Y-27053786D01*
X12462024Y-27091881D01*
X12452500Y-27110928D01*
X12442976Y-27120452D01*
X12423928Y-27129976D01*
X12404881Y-27129976D01*
X12385833Y-27120452D01*
X12376309Y-27110928D01*
X12366786Y-27091881D01*
X12357262Y-27053786D01*
X12357262Y-27006167D01*
X12366786Y-26968071D01*
X12376309Y-26949024D01*
X12385833Y-26939500D01*
X12404881Y-26929976D01*
X12557262Y-27129976D02*
X12557262Y-26996643D01*
X12557262Y-27015690D02*
X12566786Y-27006167D01*
X12585833Y-26996643D01*
X12614405Y-26996643D01*
X12633452Y-27006167D01*
X12642976Y-27025214D01*
X12642976Y-27129976D01*
X12642976Y-27025214D02*
X12652500Y-27006167D01*
X12671548Y-26996643D01*
X12700119Y-26996643D01*
X12719167Y-27006167D01*
X12728690Y-27025214D01*
X12728690Y-27129976D01*
X12823928Y-27129976D02*
X12823928Y-26996643D01*
X12823928Y-27015690D02*
X12833452Y-27006167D01*
X12852500Y-26996643D01*
X12881071Y-26996643D01*
X12900119Y-27006167D01*
X12909643Y-27025214D01*
X12909643Y-27129976D01*
X12909643Y-27025214D02*
X12919167Y-27006167D01*
X12938214Y-26996643D01*
X12966786Y-26996643D01*
X12985833Y-27006167D01*
X12995357Y-27025214D01*
X12995357Y-27129976D01*
X13385833Y-26920452D02*
X13214405Y-27177595D01*
X13642976Y-26929976D02*
X13662024Y-26929976D01*
X13681071Y-26939500D01*
X13690595Y-26949024D01*
X13700119Y-26968071D01*
X13709643Y-27006167D01*
X13709643Y-27053786D01*
X13700119Y-27091881D01*
X13690595Y-27110928D01*
X13681071Y-27120452D01*
X13662024Y-27129976D01*
X13642976Y-27129976D01*
X13623928Y-27120452D01*
X13614405Y-27110928D01*
X13604881Y-27091881D01*
X13595357Y-27053786D01*
X13595357Y-27006167D01*
X13604881Y-26968071D01*
X13614405Y-26949024D01*
X13623928Y-26939500D01*
X13642976Y-26929976D01*
X13795357Y-27110928D02*
X13804881Y-27120452D01*
X13795357Y-27129976D01*
X13785833Y-27120452D01*
X13795357Y-27110928D01*
X13795357Y-27129976D01*
X13928690Y-26929976D02*
X13947738Y-26929976D01*
X13966786Y-26939500D01*
X13976309Y-26949024D01*
X13985833Y-26968071D01*
X13995357Y-27006167D01*
X13995357Y-27053786D01*
X13985833Y-27091881D01*
X13976309Y-27110928D01*
X13966786Y-27120452D01*
X13947738Y-27129976D01*
X13928690Y-27129976D01*
X13909643Y-27120452D01*
X13900119Y-27110928D01*
X13890595Y-27091881D01*
X13881071Y-27053786D01*
X13881071Y-27006167D01*
X13890595Y-26968071D01*
X13900119Y-26949024D01*
X13909643Y-26939500D01*
X13928690Y-26929976D01*
X14062024Y-26929976D02*
X14185833Y-26929976D01*
X14119167Y-27006167D01*
X14147738Y-27006167D01*
X14166786Y-27015690D01*
X14176309Y-27025214D01*
X14185833Y-27044262D01*
X14185833Y-27091881D01*
X14176309Y-27110928D01*
X14166786Y-27120452D01*
X14147738Y-27129976D01*
X14090595Y-27129976D01*
X14071548Y-27120452D01*
X14062024Y-27110928D01*
X14366786Y-26929976D02*
X14271548Y-26929976D01*
X14262024Y-27025214D01*
X14271548Y-27015690D01*
X14290595Y-27006167D01*
X14338214Y-27006167D01*
X14357262Y-27015690D01*
X14366786Y-27025214D01*
X14376309Y-27044262D01*
X14376309Y-27091881D01*
X14366786Y-27110928D01*
X14357262Y-27120452D01*
X14338214Y-27129976D01*
X14290595Y-27129976D01*
X14271548Y-27120452D01*
X14262024Y-27110928D01*
X14547738Y-26996643D02*
X14547738Y-27129976D01*
X14500119Y-26920452D02*
X14452500Y-27063309D01*
X14576309Y-27063309D01*
X14642976Y-26929976D02*
X14642976Y-26968071D01*
X14719167Y-26929976D02*
X14719167Y-26968071D01*
X15014405Y-27206167D02*
X15004881Y-27196643D01*
X14985833Y-27168071D01*
X14976309Y-27149024D01*
X14966786Y-27120452D01*
X14957262Y-27072833D01*
X14957262Y-27034738D01*
X14966786Y-26987119D01*
X14976309Y-26958548D01*
X14985833Y-26939500D01*
X15004881Y-26910928D01*
X15014405Y-26901405D01*
X15176309Y-26996643D02*
X15176309Y-27129976D01*
X15128690Y-26920452D02*
X15081071Y-27063309D01*
X15204881Y-27063309D01*
X15433452Y-27129976D02*
X15433452Y-26929976D01*
X15519167Y-27129976D02*
X15519167Y-27025214D01*
X15509643Y-27006167D01*
X15490595Y-26996643D01*
X15462024Y-26996643D01*
X15442976Y-27006167D01*
X15433452Y-27015690D01*
X15642976Y-27129976D02*
X15623928Y-27120452D01*
X15614405Y-27110928D01*
X15604881Y-27091881D01*
X15604881Y-27034738D01*
X15614405Y-27015690D01*
X15623928Y-27006167D01*
X15642976Y-26996643D01*
X15671548Y-26996643D01*
X15690595Y-27006167D01*
X15700119Y-27015690D01*
X15709643Y-27034738D01*
X15709643Y-27091881D01*
X15700119Y-27110928D01*
X15690595Y-27120452D01*
X15671548Y-27129976D01*
X15642976Y-27129976D01*
X15823928Y-27129976D02*
X15804881Y-27120452D01*
X15795357Y-27101405D01*
X15795357Y-26929976D01*
X15976309Y-27120452D02*
X15957262Y-27129976D01*
X15919167Y-27129976D01*
X15900119Y-27120452D01*
X15890595Y-27101405D01*
X15890595Y-27025214D01*
X15900119Y-27006167D01*
X15919167Y-26996643D01*
X15957262Y-26996643D01*
X15976309Y-27006167D01*
X15985833Y-27025214D01*
X15985833Y-27044262D01*
X15890595Y-27063309D01*
X16062024Y-27120452D02*
X16081071Y-27129976D01*
X16119167Y-27129976D01*
X16138214Y-27120452D01*
X16147738Y-27101405D01*
X16147738Y-27091881D01*
X16138214Y-27072833D01*
X16119167Y-27063309D01*
X16090595Y-27063309D01*
X16071548Y-27053786D01*
X16062024Y-27034738D01*
X16062024Y-27025214D01*
X16071548Y-27006167D01*
X16090595Y-26996643D01*
X16119167Y-26996643D01*
X16138214Y-27006167D01*
X16214405Y-27206167D02*
X16223928Y-27196643D01*
X16242976Y-27168071D01*
X16252500Y-27149024D01*
X16262024Y-27120452D01*
X16271548Y-27072833D01*
X16271548Y-27034738D01*
X16262024Y-26987119D01*
X16252500Y-26958548D01*
X16242976Y-26939500D01*
X16223928Y-26910928D01*
X16214405Y-26901405D01*
D16*
X11392500Y-27353500D02*
X11442500Y-27303500D01*
X11392500Y-27253500D01*
X11342500Y-27303500D01*
X11392500Y-27353500D01*
D11*
X11804881Y-27393976D02*
X11690595Y-27393976D01*
X11747738Y-27393976D02*
X11747738Y-27193976D01*
X11728690Y-27222548D01*
X11709643Y-27241595D01*
X11690595Y-27251119D01*
X11890595Y-27374928D02*
X11900119Y-27384452D01*
X11890595Y-27393976D01*
X11881071Y-27384452D01*
X11890595Y-27374928D01*
X11890595Y-27393976D01*
X12023928Y-27193976D02*
X12042976Y-27193976D01*
X12062024Y-27203500D01*
X12071548Y-27213024D01*
X12081071Y-27232071D01*
X12090595Y-27270167D01*
X12090595Y-27317786D01*
X12081071Y-27355881D01*
X12071548Y-27374928D01*
X12062024Y-27384452D01*
X12042976Y-27393976D01*
X12023928Y-27393976D01*
X12004881Y-27384452D01*
X11995357Y-27374928D01*
X11985833Y-27355881D01*
X11976309Y-27317786D01*
X11976309Y-27270167D01*
X11985833Y-27232071D01*
X11995357Y-27213024D01*
X12004881Y-27203500D01*
X12023928Y-27193976D01*
X12214405Y-27193976D02*
X12233452Y-27193976D01*
X12252500Y-27203500D01*
X12262024Y-27213024D01*
X12271548Y-27232071D01*
X12281071Y-27270167D01*
X12281071Y-27317786D01*
X12271548Y-27355881D01*
X12262024Y-27374928D01*
X12252500Y-27384452D01*
X12233452Y-27393976D01*
X12214405Y-27393976D01*
X12195357Y-27384452D01*
X12185833Y-27374928D01*
X12176309Y-27355881D01*
X12166786Y-27317786D01*
X12166786Y-27270167D01*
X12176309Y-27232071D01*
X12185833Y-27213024D01*
X12195357Y-27203500D01*
X12214405Y-27193976D01*
X12404881Y-27193976D02*
X12423928Y-27193976D01*
X12442976Y-27203500D01*
X12452500Y-27213024D01*
X12462024Y-27232071D01*
X12471548Y-27270167D01*
X12471548Y-27317786D01*
X12462024Y-27355881D01*
X12452500Y-27374928D01*
X12442976Y-27384452D01*
X12423928Y-27393976D01*
X12404881Y-27393976D01*
X12385833Y-27384452D01*
X12376309Y-27374928D01*
X12366786Y-27355881D01*
X12357262Y-27317786D01*
X12357262Y-27270167D01*
X12366786Y-27232071D01*
X12376309Y-27213024D01*
X12385833Y-27203500D01*
X12404881Y-27193976D01*
X12557262Y-27393976D02*
X12557262Y-27260643D01*
X12557262Y-27279690D02*
X12566786Y-27270167D01*
X12585833Y-27260643D01*
X12614405Y-27260643D01*
X12633452Y-27270167D01*
X12642976Y-27289214D01*
X12642976Y-27393976D01*
X12642976Y-27289214D02*
X12652500Y-27270167D01*
X12671548Y-27260643D01*
X12700119Y-27260643D01*
X12719167Y-27270167D01*
X12728690Y-27289214D01*
X12728690Y-27393976D01*
X12823928Y-27393976D02*
X12823928Y-27260643D01*
X12823928Y-27279690D02*
X12833452Y-27270167D01*
X12852500Y-27260643D01*
X12881071Y-27260643D01*
X12900119Y-27270167D01*
X12909643Y-27289214D01*
X12909643Y-27393976D01*
X12909643Y-27289214D02*
X12919167Y-27270167D01*
X12938214Y-27260643D01*
X12966786Y-27260643D01*
X12985833Y-27270167D01*
X12995357Y-27289214D01*
X12995357Y-27393976D01*
X13385833Y-27184452D02*
X13214405Y-27441595D01*
X13642976Y-27193976D02*
X13662024Y-27193976D01*
X13681071Y-27203500D01*
X13690595Y-27213024D01*
X13700119Y-27232071D01*
X13709643Y-27270167D01*
X13709643Y-27317786D01*
X13700119Y-27355881D01*
X13690595Y-27374928D01*
X13681071Y-27384452D01*
X13662024Y-27393976D01*
X13642976Y-27393976D01*
X13623928Y-27384452D01*
X13614405Y-27374928D01*
X13604881Y-27355881D01*
X13595357Y-27317786D01*
X13595357Y-27270167D01*
X13604881Y-27232071D01*
X13614405Y-27213024D01*
X13623928Y-27203500D01*
X13642976Y-27193976D01*
X13795357Y-27374928D02*
X13804881Y-27384452D01*
X13795357Y-27393976D01*
X13785833Y-27384452D01*
X13795357Y-27374928D01*
X13795357Y-27393976D01*
X13928690Y-27193976D02*
X13947738Y-27193976D01*
X13966786Y-27203500D01*
X13976309Y-27213024D01*
X13985833Y-27232071D01*
X13995357Y-27270167D01*
X13995357Y-27317786D01*
X13985833Y-27355881D01*
X13976309Y-27374928D01*
X13966786Y-27384452D01*
X13947738Y-27393976D01*
X13928690Y-27393976D01*
X13909643Y-27384452D01*
X13900119Y-27374928D01*
X13890595Y-27355881D01*
X13881071Y-27317786D01*
X13881071Y-27270167D01*
X13890595Y-27232071D01*
X13900119Y-27213024D01*
X13909643Y-27203500D01*
X13928690Y-27193976D01*
X14062024Y-27193976D02*
X14185833Y-27193976D01*
X14119167Y-27270167D01*
X14147738Y-27270167D01*
X14166786Y-27279690D01*
X14176309Y-27289214D01*
X14185833Y-27308262D01*
X14185833Y-27355881D01*
X14176309Y-27374928D01*
X14166786Y-27384452D01*
X14147738Y-27393976D01*
X14090595Y-27393976D01*
X14071548Y-27384452D01*
X14062024Y-27374928D01*
X14281071Y-27393976D02*
X14319167Y-27393976D01*
X14338214Y-27384452D01*
X14347738Y-27374928D01*
X14366786Y-27346357D01*
X14376309Y-27308262D01*
X14376309Y-27232071D01*
X14366786Y-27213024D01*
X14357262Y-27203500D01*
X14338214Y-27193976D01*
X14300119Y-27193976D01*
X14281071Y-27203500D01*
X14271548Y-27213024D01*
X14262024Y-27232071D01*
X14262024Y-27279690D01*
X14271548Y-27298738D01*
X14281071Y-27308262D01*
X14300119Y-27317786D01*
X14338214Y-27317786D01*
X14357262Y-27308262D01*
X14366786Y-27298738D01*
X14376309Y-27279690D01*
X14547738Y-27260643D02*
X14547738Y-27393976D01*
X14500119Y-27184452D02*
X14452500Y-27327309D01*
X14576309Y-27327309D01*
X14642976Y-27193976D02*
X14642976Y-27232071D01*
X14719167Y-27193976D02*
X14719167Y-27232071D01*
X15014405Y-27470167D02*
X15004881Y-27460643D01*
X14985833Y-27432071D01*
X14976309Y-27413024D01*
X14966786Y-27384452D01*
X14957262Y-27336833D01*
X14957262Y-27298738D01*
X14966786Y-27251119D01*
X14976309Y-27222548D01*
X14985833Y-27203500D01*
X15004881Y-27174928D01*
X15014405Y-27165405D01*
X15195357Y-27393976D02*
X15081071Y-27393976D01*
X15138214Y-27393976D02*
X15138214Y-27193976D01*
X15119167Y-27222548D01*
X15100119Y-27241595D01*
X15081071Y-27251119D01*
X15271548Y-27213024D02*
X15281071Y-27203500D01*
X15300119Y-27193976D01*
X15347738Y-27193976D01*
X15366786Y-27203500D01*
X15376309Y-27213024D01*
X15385833Y-27232071D01*
X15385833Y-27251119D01*
X15376309Y-27279690D01*
X15262024Y-27393976D01*
X15385833Y-27393976D01*
X15623928Y-27393976D02*
X15623928Y-27193976D01*
X15709643Y-27393976D02*
X15709643Y-27289214D01*
X15700119Y-27270167D01*
X15681071Y-27260643D01*
X15652500Y-27260643D01*
X15633452Y-27270167D01*
X15623928Y-27279690D01*
X15833452Y-27393976D02*
X15814405Y-27384452D01*
X15804881Y-27374928D01*
X15795357Y-27355881D01*
X15795357Y-27298738D01*
X15804881Y-27279690D01*
X15814405Y-27270167D01*
X15833452Y-27260643D01*
X15862024Y-27260643D01*
X15881071Y-27270167D01*
X15890595Y-27279690D01*
X15900119Y-27298738D01*
X15900119Y-27355881D01*
X15890595Y-27374928D01*
X15881071Y-27384452D01*
X15862024Y-27393976D01*
X15833452Y-27393976D01*
X16014405Y-27393976D02*
X15995357Y-27384452D01*
X15985833Y-27365405D01*
X15985833Y-27193976D01*
X16166786Y-27384452D02*
X16147738Y-27393976D01*
X16109643Y-27393976D01*
X16090595Y-27384452D01*
X16081071Y-27365405D01*
X16081071Y-27289214D01*
X16090595Y-27270167D01*
X16109643Y-27260643D01*
X16147738Y-27260643D01*
X16166786Y-27270167D01*
X16176309Y-27289214D01*
X16176309Y-27308262D01*
X16081071Y-27327309D01*
X16252500Y-27384452D02*
X16271548Y-27393976D01*
X16309643Y-27393976D01*
X16328690Y-27384452D01*
X16338214Y-27365405D01*
X16338214Y-27355881D01*
X16328690Y-27336833D01*
X16309643Y-27327309D01*
X16281071Y-27327309D01*
X16262024Y-27317786D01*
X16252500Y-27298738D01*
X16252500Y-27289214D01*
X16262024Y-27270167D01*
X16281071Y-27260643D01*
X16309643Y-27260643D01*
X16328690Y-27270167D01*
X16404881Y-27470167D02*
X16414405Y-27460643D01*
X16433452Y-27432071D01*
X16442976Y-27413024D01*
X16452500Y-27384452D01*
X16462024Y-27336833D01*
X16462024Y-27298738D01*
X16452500Y-27251119D01*
X16442976Y-27222548D01*
X16433452Y-27203500D01*
X16414405Y-27174928D01*
X16404881Y-27165405D01*
D17*
X11332500Y-27512500D02*
X11442500Y-27622500D01*
X11442500Y-27512500D02*
X11332500Y-27622500D01*
X11442500Y-27567500D02*
G75*
G03*
X11442500Y-27567500I-55000J0D01*
G01*
D11*
X11804881Y-27657976D02*
X11690595Y-27657976D01*
X11747738Y-27657976D02*
X11747738Y-27457976D01*
X11728690Y-27486548D01*
X11709643Y-27505595D01*
X11690595Y-27515119D01*
X11890595Y-27638928D02*
X11900119Y-27648452D01*
X11890595Y-27657976D01*
X11881071Y-27648452D01*
X11890595Y-27638928D01*
X11890595Y-27657976D01*
X12090595Y-27657976D02*
X11976309Y-27657976D01*
X12033452Y-27657976D02*
X12033452Y-27457976D01*
X12014405Y-27486548D01*
X11995357Y-27505595D01*
X11976309Y-27515119D01*
X12214405Y-27457976D02*
X12233452Y-27457976D01*
X12252500Y-27467500D01*
X12262024Y-27477024D01*
X12271548Y-27496071D01*
X12281071Y-27534167D01*
X12281071Y-27581786D01*
X12271548Y-27619881D01*
X12262024Y-27638928D01*
X12252500Y-27648452D01*
X12233452Y-27657976D01*
X12214405Y-27657976D01*
X12195357Y-27648452D01*
X12185833Y-27638928D01*
X12176309Y-27619881D01*
X12166786Y-27581786D01*
X12166786Y-27534167D01*
X12176309Y-27496071D01*
X12185833Y-27477024D01*
X12195357Y-27467500D01*
X12214405Y-27457976D01*
X12404881Y-27457976D02*
X12423928Y-27457976D01*
X12442976Y-27467500D01*
X12452500Y-27477024D01*
X12462024Y-27496071D01*
X12471548Y-27534167D01*
X12471548Y-27581786D01*
X12462024Y-27619881D01*
X12452500Y-27638928D01*
X12442976Y-27648452D01*
X12423928Y-27657976D01*
X12404881Y-27657976D01*
X12385833Y-27648452D01*
X12376309Y-27638928D01*
X12366786Y-27619881D01*
X12357262Y-27581786D01*
X12357262Y-27534167D01*
X12366786Y-27496071D01*
X12376309Y-27477024D01*
X12385833Y-27467500D01*
X12404881Y-27457976D01*
X12557262Y-27657976D02*
X12557262Y-27524643D01*
X12557262Y-27543690D02*
X12566786Y-27534167D01*
X12585833Y-27524643D01*
X12614405Y-27524643D01*
X12633452Y-27534167D01*
X12642976Y-27553214D01*
X12642976Y-27657976D01*
X12642976Y-27553214D02*
X12652500Y-27534167D01*
X12671548Y-27524643D01*
X12700119Y-27524643D01*
X12719167Y-27534167D01*
X12728690Y-27553214D01*
X12728690Y-27657976D01*
X12823928Y-27657976D02*
X12823928Y-27524643D01*
X12823928Y-27543690D02*
X12833452Y-27534167D01*
X12852500Y-27524643D01*
X12881071Y-27524643D01*
X12900119Y-27534167D01*
X12909643Y-27553214D01*
X12909643Y-27657976D01*
X12909643Y-27553214D02*
X12919167Y-27534167D01*
X12938214Y-27524643D01*
X12966786Y-27524643D01*
X12985833Y-27534167D01*
X12995357Y-27553214D01*
X12995357Y-27657976D01*
X13385833Y-27448452D02*
X13214405Y-27705595D01*
X13642976Y-27457976D02*
X13662024Y-27457976D01*
X13681071Y-27467500D01*
X13690595Y-27477024D01*
X13700119Y-27496071D01*
X13709643Y-27534167D01*
X13709643Y-27581786D01*
X13700119Y-27619881D01*
X13690595Y-27638928D01*
X13681071Y-27648452D01*
X13662024Y-27657976D01*
X13642976Y-27657976D01*
X13623928Y-27648452D01*
X13614405Y-27638928D01*
X13604881Y-27619881D01*
X13595357Y-27581786D01*
X13595357Y-27534167D01*
X13604881Y-27496071D01*
X13614405Y-27477024D01*
X13623928Y-27467500D01*
X13642976Y-27457976D01*
X13795357Y-27638928D02*
X13804881Y-27648452D01*
X13795357Y-27657976D01*
X13785833Y-27648452D01*
X13795357Y-27638928D01*
X13795357Y-27657976D01*
X13928690Y-27457976D02*
X13947738Y-27457976D01*
X13966786Y-27467500D01*
X13976309Y-27477024D01*
X13985833Y-27496071D01*
X13995357Y-27534167D01*
X13995357Y-27581786D01*
X13985833Y-27619881D01*
X13976309Y-27638928D01*
X13966786Y-27648452D01*
X13947738Y-27657976D01*
X13928690Y-27657976D01*
X13909643Y-27648452D01*
X13900119Y-27638928D01*
X13890595Y-27619881D01*
X13881071Y-27581786D01*
X13881071Y-27534167D01*
X13890595Y-27496071D01*
X13900119Y-27477024D01*
X13909643Y-27467500D01*
X13928690Y-27457976D01*
X14166786Y-27524643D02*
X14166786Y-27657976D01*
X14119167Y-27448452D02*
X14071548Y-27591309D01*
X14195357Y-27591309D01*
X14252500Y-27457976D02*
X14376309Y-27457976D01*
X14309643Y-27534167D01*
X14338214Y-27534167D01*
X14357262Y-27543690D01*
X14366786Y-27553214D01*
X14376309Y-27572262D01*
X14376309Y-27619881D01*
X14366786Y-27638928D01*
X14357262Y-27648452D01*
X14338214Y-27657976D01*
X14281071Y-27657976D01*
X14262024Y-27648452D01*
X14252500Y-27638928D01*
X14442976Y-27457976D02*
X14566786Y-27457976D01*
X14500119Y-27534167D01*
X14528690Y-27534167D01*
X14547738Y-27543690D01*
X14557262Y-27553214D01*
X14566786Y-27572262D01*
X14566786Y-27619881D01*
X14557262Y-27638928D01*
X14547738Y-27648452D01*
X14528690Y-27657976D01*
X14471548Y-27657976D01*
X14452500Y-27648452D01*
X14442976Y-27638928D01*
X14642976Y-27457976D02*
X14642976Y-27496071D01*
X14719167Y-27457976D02*
X14719167Y-27496071D01*
X15014405Y-27734167D02*
X15004881Y-27724643D01*
X14985833Y-27696071D01*
X14976309Y-27677024D01*
X14966786Y-27648452D01*
X14957262Y-27600833D01*
X14957262Y-27562738D01*
X14966786Y-27515119D01*
X14976309Y-27486548D01*
X14985833Y-27467500D01*
X15004881Y-27438928D01*
X15014405Y-27429405D01*
X15176309Y-27524643D02*
X15176309Y-27657976D01*
X15128690Y-27448452D02*
X15081071Y-27591309D01*
X15204881Y-27591309D01*
X15309643Y-27543690D02*
X15290595Y-27534167D01*
X15281071Y-27524643D01*
X15271548Y-27505595D01*
X15271548Y-27496071D01*
X15281071Y-27477024D01*
X15290595Y-27467500D01*
X15309643Y-27457976D01*
X15347738Y-27457976D01*
X15366786Y-27467500D01*
X15376309Y-27477024D01*
X15385833Y-27496071D01*
X15385833Y-27505595D01*
X15376309Y-27524643D01*
X15366786Y-27534167D01*
X15347738Y-27543690D01*
X15309643Y-27543690D01*
X15290595Y-27553214D01*
X15281071Y-27562738D01*
X15271548Y-27581786D01*
X15271548Y-27619881D01*
X15281071Y-27638928D01*
X15290595Y-27648452D01*
X15309643Y-27657976D01*
X15347738Y-27657976D01*
X15366786Y-27648452D01*
X15376309Y-27638928D01*
X15385833Y-27619881D01*
X15385833Y-27581786D01*
X15376309Y-27562738D01*
X15366786Y-27553214D01*
X15347738Y-27543690D01*
X15623928Y-27657976D02*
X15623928Y-27457976D01*
X15709643Y-27657976D02*
X15709643Y-27553214D01*
X15700119Y-27534167D01*
X15681071Y-27524643D01*
X15652500Y-27524643D01*
X15633452Y-27534167D01*
X15623928Y-27543690D01*
X15833452Y-27657976D02*
X15814405Y-27648452D01*
X15804881Y-27638928D01*
X15795357Y-27619881D01*
X15795357Y-27562738D01*
X15804881Y-27543690D01*
X15814405Y-27534167D01*
X15833452Y-27524643D01*
X15862024Y-27524643D01*
X15881071Y-27534167D01*
X15890595Y-27543690D01*
X15900119Y-27562738D01*
X15900119Y-27619881D01*
X15890595Y-27638928D01*
X15881071Y-27648452D01*
X15862024Y-27657976D01*
X15833452Y-27657976D01*
X16014405Y-27657976D02*
X15995357Y-27648452D01*
X15985833Y-27629405D01*
X15985833Y-27457976D01*
X16166786Y-27648452D02*
X16147738Y-27657976D01*
X16109643Y-27657976D01*
X16090595Y-27648452D01*
X16081071Y-27629405D01*
X16081071Y-27553214D01*
X16090595Y-27534167D01*
X16109643Y-27524643D01*
X16147738Y-27524643D01*
X16166786Y-27534167D01*
X16176309Y-27553214D01*
X16176309Y-27572262D01*
X16081071Y-27591309D01*
X16252500Y-27648452D02*
X16271548Y-27657976D01*
X16309643Y-27657976D01*
X16328690Y-27648452D01*
X16338214Y-27629405D01*
X16338214Y-27619881D01*
X16328690Y-27600833D01*
X16309643Y-27591309D01*
X16281071Y-27591309D01*
X16262024Y-27581786D01*
X16252500Y-27562738D01*
X16252500Y-27553214D01*
X16262024Y-27534167D01*
X16281071Y-27524643D01*
X16309643Y-27524643D01*
X16328690Y-27534167D01*
X16404881Y-27734167D02*
X16414405Y-27724643D01*
X16433452Y-27696071D01*
X16442976Y-27677024D01*
X16452500Y-27648452D01*
X16462024Y-27600833D01*
X16462024Y-27562738D01*
X16452500Y-27515119D01*
X16442976Y-27486548D01*
X16433452Y-27467500D01*
X16414405Y-27438928D01*
X16404881Y-27429405D01*
X11242500Y-27731500D02*
X11442500Y-27931500D01*
X11442500Y-27731500D02*
X11242500Y-27931500D01*
X11342500Y-27731500D02*
X11342500Y-27931500D01*
X11242500Y-27831500D02*
X11442500Y-27831500D01*
X11690595Y-27741024D02*
X11700119Y-27731500D01*
X11719167Y-27721976D01*
X11766786Y-27721976D01*
X11785833Y-27731500D01*
X11795357Y-27741024D01*
X11804881Y-27760071D01*
X11804881Y-27779119D01*
X11795357Y-27807690D01*
X11681071Y-27921976D01*
X11804881Y-27921976D01*
X11890595Y-27902928D02*
X11900119Y-27912452D01*
X11890595Y-27921976D01*
X11881071Y-27912452D01*
X11890595Y-27902928D01*
X11890595Y-27921976D01*
X11966786Y-27721976D02*
X12090595Y-27721976D01*
X12023928Y-27798167D01*
X12052500Y-27798167D01*
X12071548Y-27807690D01*
X12081071Y-27817214D01*
X12090595Y-27836262D01*
X12090595Y-27883881D01*
X12081071Y-27902928D01*
X12071548Y-27912452D01*
X12052500Y-27921976D01*
X11995357Y-27921976D01*
X11976309Y-27912452D01*
X11966786Y-27902928D01*
X12214405Y-27721976D02*
X12233452Y-27721976D01*
X12252500Y-27731500D01*
X12262024Y-27741024D01*
X12271548Y-27760071D01*
X12281071Y-27798167D01*
X12281071Y-27845786D01*
X12271548Y-27883881D01*
X12262024Y-27902928D01*
X12252500Y-27912452D01*
X12233452Y-27921976D01*
X12214405Y-27921976D01*
X12195357Y-27912452D01*
X12185833Y-27902928D01*
X12176309Y-27883881D01*
X12166786Y-27845786D01*
X12166786Y-27798167D01*
X12176309Y-27760071D01*
X12185833Y-27741024D01*
X12195357Y-27731500D01*
X12214405Y-27721976D01*
X12404881Y-27721976D02*
X12423928Y-27721976D01*
X12442976Y-27731500D01*
X12452500Y-27741024D01*
X12462024Y-27760071D01*
X12471548Y-27798167D01*
X12471548Y-27845786D01*
X12462024Y-27883881D01*
X12452500Y-27902928D01*
X12442976Y-27912452D01*
X12423928Y-27921976D01*
X12404881Y-27921976D01*
X12385833Y-27912452D01*
X12376309Y-27902928D01*
X12366786Y-27883881D01*
X12357262Y-27845786D01*
X12357262Y-27798167D01*
X12366786Y-27760071D01*
X12376309Y-27741024D01*
X12385833Y-27731500D01*
X12404881Y-27721976D01*
X12557262Y-27921976D02*
X12557262Y-27788643D01*
X12557262Y-27807690D02*
X12566786Y-27798167D01*
X12585833Y-27788643D01*
X12614405Y-27788643D01*
X12633452Y-27798167D01*
X12642976Y-27817214D01*
X12642976Y-27921976D01*
X12642976Y-27817214D02*
X12652500Y-27798167D01*
X12671548Y-27788643D01*
X12700119Y-27788643D01*
X12719167Y-27798167D01*
X12728690Y-27817214D01*
X12728690Y-27921976D01*
X12823928Y-27921976D02*
X12823928Y-27788643D01*
X12823928Y-27807690D02*
X12833452Y-27798167D01*
X12852500Y-27788643D01*
X12881071Y-27788643D01*
X12900119Y-27798167D01*
X12909643Y-27817214D01*
X12909643Y-27921976D01*
X12909643Y-27817214D02*
X12919167Y-27798167D01*
X12938214Y-27788643D01*
X12966786Y-27788643D01*
X12985833Y-27798167D01*
X12995357Y-27817214D01*
X12995357Y-27921976D01*
X13385833Y-27712452D02*
X13214405Y-27969595D01*
X13642976Y-27721976D02*
X13662024Y-27721976D01*
X13681071Y-27731500D01*
X13690595Y-27741024D01*
X13700119Y-27760071D01*
X13709643Y-27798167D01*
X13709643Y-27845786D01*
X13700119Y-27883881D01*
X13690595Y-27902928D01*
X13681071Y-27912452D01*
X13662024Y-27921976D01*
X13642976Y-27921976D01*
X13623928Y-27912452D01*
X13614405Y-27902928D01*
X13604881Y-27883881D01*
X13595357Y-27845786D01*
X13595357Y-27798167D01*
X13604881Y-27760071D01*
X13614405Y-27741024D01*
X13623928Y-27731500D01*
X13642976Y-27721976D01*
X13795357Y-27902928D02*
X13804881Y-27912452D01*
X13795357Y-27921976D01*
X13785833Y-27912452D01*
X13795357Y-27902928D01*
X13795357Y-27921976D01*
X13928690Y-27721976D02*
X13947738Y-27721976D01*
X13966786Y-27731500D01*
X13976309Y-27741024D01*
X13985833Y-27760071D01*
X13995357Y-27798167D01*
X13995357Y-27845786D01*
X13985833Y-27883881D01*
X13976309Y-27902928D01*
X13966786Y-27912452D01*
X13947738Y-27921976D01*
X13928690Y-27921976D01*
X13909643Y-27912452D01*
X13900119Y-27902928D01*
X13890595Y-27883881D01*
X13881071Y-27845786D01*
X13881071Y-27798167D01*
X13890595Y-27760071D01*
X13900119Y-27741024D01*
X13909643Y-27731500D01*
X13928690Y-27721976D01*
X14090595Y-27921976D02*
X14128690Y-27921976D01*
X14147738Y-27912452D01*
X14157262Y-27902928D01*
X14176309Y-27874357D01*
X14185833Y-27836262D01*
X14185833Y-27760071D01*
X14176309Y-27741024D01*
X14166786Y-27731500D01*
X14147738Y-27721976D01*
X14109643Y-27721976D01*
X14090595Y-27731500D01*
X14081071Y-27741024D01*
X14071548Y-27760071D01*
X14071548Y-27807690D01*
X14081071Y-27826738D01*
X14090595Y-27836262D01*
X14109643Y-27845786D01*
X14147738Y-27845786D01*
X14166786Y-27836262D01*
X14176309Y-27826738D01*
X14185833Y-27807690D01*
X14309643Y-27721976D02*
X14328690Y-27721976D01*
X14347738Y-27731500D01*
X14357262Y-27741024D01*
X14366786Y-27760071D01*
X14376309Y-27798167D01*
X14376309Y-27845786D01*
X14366786Y-27883881D01*
X14357262Y-27902928D01*
X14347738Y-27912452D01*
X14328690Y-27921976D01*
X14309643Y-27921976D01*
X14290595Y-27912452D01*
X14281071Y-27902928D01*
X14271548Y-27883881D01*
X14262024Y-27845786D01*
X14262024Y-27798167D01*
X14271548Y-27760071D01*
X14281071Y-27741024D01*
X14290595Y-27731500D01*
X14309643Y-27721976D01*
X14547738Y-27721976D02*
X14509643Y-27721976D01*
X14490595Y-27731500D01*
X14481071Y-27741024D01*
X14462024Y-27769595D01*
X14452500Y-27807690D01*
X14452500Y-27883881D01*
X14462024Y-27902928D01*
X14471548Y-27912452D01*
X14490595Y-27921976D01*
X14528690Y-27921976D01*
X14547738Y-27912452D01*
X14557262Y-27902928D01*
X14566786Y-27883881D01*
X14566786Y-27836262D01*
X14557262Y-27817214D01*
X14547738Y-27807690D01*
X14528690Y-27798167D01*
X14490595Y-27798167D01*
X14471548Y-27807690D01*
X14462024Y-27817214D01*
X14452500Y-27836262D01*
X14642976Y-27721976D02*
X14642976Y-27760071D01*
X14719167Y-27721976D02*
X14719167Y-27760071D01*
X15014405Y-27998167D02*
X15004881Y-27988643D01*
X14985833Y-27960071D01*
X14976309Y-27941024D01*
X14966786Y-27912452D01*
X14957262Y-27864833D01*
X14957262Y-27826738D01*
X14966786Y-27779119D01*
X14976309Y-27750548D01*
X14985833Y-27731500D01*
X15004881Y-27702928D01*
X15014405Y-27693405D01*
X15081071Y-27741024D02*
X15090595Y-27731500D01*
X15109643Y-27721976D01*
X15157262Y-27721976D01*
X15176309Y-27731500D01*
X15185833Y-27741024D01*
X15195357Y-27760071D01*
X15195357Y-27779119D01*
X15185833Y-27807690D01*
X15071548Y-27921976D01*
X15195357Y-27921976D01*
X15433452Y-27921976D02*
X15433452Y-27721976D01*
X15519167Y-27921976D02*
X15519167Y-27817214D01*
X15509643Y-27798167D01*
X15490595Y-27788643D01*
X15462024Y-27788643D01*
X15442976Y-27798167D01*
X15433452Y-27807690D01*
X15642976Y-27921976D02*
X15623928Y-27912452D01*
X15614405Y-27902928D01*
X15604881Y-27883881D01*
X15604881Y-27826738D01*
X15614405Y-27807690D01*
X15623928Y-27798167D01*
X15642976Y-27788643D01*
X15671548Y-27788643D01*
X15690595Y-27798167D01*
X15700119Y-27807690D01*
X15709643Y-27826738D01*
X15709643Y-27883881D01*
X15700119Y-27902928D01*
X15690595Y-27912452D01*
X15671548Y-27921976D01*
X15642976Y-27921976D01*
X15823928Y-27921976D02*
X15804881Y-27912452D01*
X15795357Y-27893405D01*
X15795357Y-27721976D01*
X15976309Y-27912452D02*
X15957262Y-27921976D01*
X15919167Y-27921976D01*
X15900119Y-27912452D01*
X15890595Y-27893405D01*
X15890595Y-27817214D01*
X15900119Y-27798167D01*
X15919167Y-27788643D01*
X15957262Y-27788643D01*
X15976309Y-27798167D01*
X15985833Y-27817214D01*
X15985833Y-27836262D01*
X15890595Y-27855309D01*
X16062024Y-27912452D02*
X16081071Y-27921976D01*
X16119167Y-27921976D01*
X16138214Y-27912452D01*
X16147738Y-27893405D01*
X16147738Y-27883881D01*
X16138214Y-27864833D01*
X16119167Y-27855309D01*
X16090595Y-27855309D01*
X16071548Y-27845786D01*
X16062024Y-27826738D01*
X16062024Y-27817214D01*
X16071548Y-27798167D01*
X16090595Y-27788643D01*
X16119167Y-27788643D01*
X16138214Y-27798167D01*
X16214405Y-27998167D02*
X16223928Y-27988643D01*
X16242976Y-27960071D01*
X16252500Y-27941024D01*
X16262024Y-27912452D01*
X16271548Y-27864833D01*
X16271548Y-27826738D01*
X16262024Y-27779119D01*
X16252500Y-27750548D01*
X16242976Y-27731500D01*
X16223928Y-27702928D01*
X16214405Y-27693405D01*
X11242500Y-28051500D02*
X11442500Y-28251500D01*
X11442500Y-28051500D02*
X11242500Y-28251500D01*
X11413211Y-28222211D02*
X11413211Y-28080789D01*
X11271789Y-28080789D01*
X11271789Y-28222211D01*
X11413211Y-28222211D01*
X11681071Y-28041976D02*
X11804881Y-28041976D01*
X11738214Y-28118167D01*
X11766786Y-28118167D01*
X11785833Y-28127690D01*
X11795357Y-28137214D01*
X11804881Y-28156262D01*
X11804881Y-28203881D01*
X11795357Y-28222928D01*
X11785833Y-28232452D01*
X11766786Y-28241976D01*
X11709643Y-28241976D01*
X11690595Y-28232452D01*
X11681071Y-28222928D01*
X11890595Y-28222928D02*
X11900119Y-28232452D01*
X11890595Y-28241976D01*
X11881071Y-28232452D01*
X11890595Y-28222928D01*
X11890595Y-28241976D01*
X12023928Y-28041976D02*
X12042976Y-28041976D01*
X12062024Y-28051500D01*
X12071548Y-28061024D01*
X12081071Y-28080071D01*
X12090595Y-28118167D01*
X12090595Y-28165786D01*
X12081071Y-28203881D01*
X12071548Y-28222928D01*
X12062024Y-28232452D01*
X12042976Y-28241976D01*
X12023928Y-28241976D01*
X12004881Y-28232452D01*
X11995357Y-28222928D01*
X11985833Y-28203881D01*
X11976309Y-28165786D01*
X11976309Y-28118167D01*
X11985833Y-28080071D01*
X11995357Y-28061024D01*
X12004881Y-28051500D01*
X12023928Y-28041976D01*
X12214405Y-28041976D02*
X12233452Y-28041976D01*
X12252500Y-28051500D01*
X12262024Y-28061024D01*
X12271548Y-28080071D01*
X12281071Y-28118167D01*
X12281071Y-28165786D01*
X12271548Y-28203881D01*
X12262024Y-28222928D01*
X12252500Y-28232452D01*
X12233452Y-28241976D01*
X12214405Y-28241976D01*
X12195357Y-28232452D01*
X12185833Y-28222928D01*
X12176309Y-28203881D01*
X12166786Y-28165786D01*
X12166786Y-28118167D01*
X12176309Y-28080071D01*
X12185833Y-28061024D01*
X12195357Y-28051500D01*
X12214405Y-28041976D01*
X12404881Y-28041976D02*
X12423928Y-28041976D01*
X12442976Y-28051500D01*
X12452500Y-28061024D01*
X12462024Y-28080071D01*
X12471548Y-28118167D01*
X12471548Y-28165786D01*
X12462024Y-28203881D01*
X12452500Y-28222928D01*
X12442976Y-28232452D01*
X12423928Y-28241976D01*
X12404881Y-28241976D01*
X12385833Y-28232452D01*
X12376309Y-28222928D01*
X12366786Y-28203881D01*
X12357262Y-28165786D01*
X12357262Y-28118167D01*
X12366786Y-28080071D01*
X12376309Y-28061024D01*
X12385833Y-28051500D01*
X12404881Y-28041976D01*
X12557262Y-28241976D02*
X12557262Y-28108643D01*
X12557262Y-28127690D02*
X12566786Y-28118167D01*
X12585833Y-28108643D01*
X12614405Y-28108643D01*
X12633452Y-28118167D01*
X12642976Y-28137214D01*
X12642976Y-28241976D01*
X12642976Y-28137214D02*
X12652500Y-28118167D01*
X12671548Y-28108643D01*
X12700119Y-28108643D01*
X12719167Y-28118167D01*
X12728690Y-28137214D01*
X12728690Y-28241976D01*
X12823928Y-28241976D02*
X12823928Y-28108643D01*
X12823928Y-28127690D02*
X12833452Y-28118167D01*
X12852500Y-28108643D01*
X12881071Y-28108643D01*
X12900119Y-28118167D01*
X12909643Y-28137214D01*
X12909643Y-28241976D01*
X12909643Y-28137214D02*
X12919167Y-28118167D01*
X12938214Y-28108643D01*
X12966786Y-28108643D01*
X12985833Y-28118167D01*
X12995357Y-28137214D01*
X12995357Y-28241976D01*
X13385833Y-28032452D02*
X13214405Y-28289595D01*
X13642976Y-28041976D02*
X13662024Y-28041976D01*
X13681071Y-28051500D01*
X13690595Y-28061024D01*
X13700119Y-28080071D01*
X13709643Y-28118167D01*
X13709643Y-28165786D01*
X13700119Y-28203881D01*
X13690595Y-28222928D01*
X13681071Y-28232452D01*
X13662024Y-28241976D01*
X13642976Y-28241976D01*
X13623928Y-28232452D01*
X13614405Y-28222928D01*
X13604881Y-28203881D01*
X13595357Y-28165786D01*
X13595357Y-28118167D01*
X13604881Y-28080071D01*
X13614405Y-28061024D01*
X13623928Y-28051500D01*
X13642976Y-28041976D01*
X13795357Y-28222928D02*
X13804881Y-28232452D01*
X13795357Y-28241976D01*
X13785833Y-28232452D01*
X13795357Y-28222928D01*
X13795357Y-28241976D01*
X13995357Y-28241976D02*
X13881071Y-28241976D01*
X13938214Y-28241976D02*
X13938214Y-28041976D01*
X13919167Y-28070548D01*
X13900119Y-28089595D01*
X13881071Y-28099119D01*
X14185833Y-28241976D02*
X14071548Y-28241976D01*
X14128690Y-28241976D02*
X14128690Y-28041976D01*
X14109643Y-28070548D01*
X14090595Y-28089595D01*
X14071548Y-28099119D01*
X14300119Y-28127690D02*
X14281071Y-28118167D01*
X14271548Y-28108643D01*
X14262024Y-28089595D01*
X14262024Y-28080071D01*
X14271548Y-28061024D01*
X14281071Y-28051500D01*
X14300119Y-28041976D01*
X14338214Y-28041976D01*
X14357262Y-28051500D01*
X14366786Y-28061024D01*
X14376309Y-28080071D01*
X14376309Y-28089595D01*
X14366786Y-28108643D01*
X14357262Y-28118167D01*
X14338214Y-28127690D01*
X14300119Y-28127690D01*
X14281071Y-28137214D01*
X14271548Y-28146738D01*
X14262024Y-28165786D01*
X14262024Y-28203881D01*
X14271548Y-28222928D01*
X14281071Y-28232452D01*
X14300119Y-28241976D01*
X14338214Y-28241976D01*
X14357262Y-28232452D01*
X14366786Y-28222928D01*
X14376309Y-28203881D01*
X14376309Y-28165786D01*
X14366786Y-28146738D01*
X14357262Y-28137214D01*
X14338214Y-28127690D01*
X14566786Y-28241976D02*
X14452500Y-28241976D01*
X14509643Y-28241976D02*
X14509643Y-28041976D01*
X14490595Y-28070548D01*
X14471548Y-28089595D01*
X14452500Y-28099119D01*
X14642976Y-28041976D02*
X14642976Y-28080071D01*
X14719167Y-28041976D02*
X14719167Y-28080071D01*
X15014405Y-28318167D02*
X15004881Y-28308643D01*
X14985833Y-28280071D01*
X14976309Y-28261024D01*
X14966786Y-28232452D01*
X14957262Y-28184833D01*
X14957262Y-28146738D01*
X14966786Y-28099119D01*
X14976309Y-28070548D01*
X14985833Y-28051500D01*
X15004881Y-28022928D01*
X15014405Y-28013405D01*
X15119167Y-28127690D02*
X15100119Y-28118167D01*
X15090595Y-28108643D01*
X15081071Y-28089595D01*
X15081071Y-28080071D01*
X15090595Y-28061024D01*
X15100119Y-28051500D01*
X15119167Y-28041976D01*
X15157262Y-28041976D01*
X15176309Y-28051500D01*
X15185833Y-28061024D01*
X15195357Y-28080071D01*
X15195357Y-28089595D01*
X15185833Y-28108643D01*
X15176309Y-28118167D01*
X15157262Y-28127690D01*
X15119167Y-28127690D01*
X15100119Y-28137214D01*
X15090595Y-28146738D01*
X15081071Y-28165786D01*
X15081071Y-28203881D01*
X15090595Y-28222928D01*
X15100119Y-28232452D01*
X15119167Y-28241976D01*
X15157262Y-28241976D01*
X15176309Y-28232452D01*
X15185833Y-28222928D01*
X15195357Y-28203881D01*
X15195357Y-28165786D01*
X15185833Y-28146738D01*
X15176309Y-28137214D01*
X15157262Y-28127690D01*
X15433452Y-28241976D02*
X15433452Y-28041976D01*
X15519167Y-28241976D02*
X15519167Y-28137214D01*
X15509643Y-28118167D01*
X15490595Y-28108643D01*
X15462024Y-28108643D01*
X15442976Y-28118167D01*
X15433452Y-28127690D01*
X15642976Y-28241976D02*
X15623928Y-28232452D01*
X15614405Y-28222928D01*
X15604881Y-28203881D01*
X15604881Y-28146738D01*
X15614405Y-28127690D01*
X15623928Y-28118167D01*
X15642976Y-28108643D01*
X15671548Y-28108643D01*
X15690595Y-28118167D01*
X15700119Y-28127690D01*
X15709643Y-28146738D01*
X15709643Y-28203881D01*
X15700119Y-28222928D01*
X15690595Y-28232452D01*
X15671548Y-28241976D01*
X15642976Y-28241976D01*
X15823928Y-28241976D02*
X15804881Y-28232452D01*
X15795357Y-28213405D01*
X15795357Y-28041976D01*
X15976309Y-28232452D02*
X15957262Y-28241976D01*
X15919167Y-28241976D01*
X15900119Y-28232452D01*
X15890595Y-28213405D01*
X15890595Y-28137214D01*
X15900119Y-28118167D01*
X15919167Y-28108643D01*
X15957262Y-28108643D01*
X15976309Y-28118167D01*
X15985833Y-28137214D01*
X15985833Y-28156262D01*
X15890595Y-28175309D01*
X16062024Y-28232452D02*
X16081071Y-28241976D01*
X16119167Y-28241976D01*
X16138214Y-28232452D01*
X16147738Y-28213405D01*
X16147738Y-28203881D01*
X16138214Y-28184833D01*
X16119167Y-28175309D01*
X16090595Y-28175309D01*
X16071548Y-28165786D01*
X16062024Y-28146738D01*
X16062024Y-28137214D01*
X16071548Y-28118167D01*
X16090595Y-28108643D01*
X16119167Y-28108643D01*
X16138214Y-28118167D01*
X16214405Y-28318167D02*
X16223928Y-28308643D01*
X16242976Y-28280071D01*
X16252500Y-28261024D01*
X16262024Y-28232452D01*
X16271548Y-28184833D01*
X16271548Y-28146738D01*
X16262024Y-28099119D01*
X16252500Y-28070548D01*
X16242976Y-28051500D01*
X16223928Y-28022928D01*
X16214405Y-28013405D01*
M02*
