%TF.GenerationSoftware,KiCad,Pcbnew,7.0.1*%
%TF.CreationDate,2023-05-19T13:22:37+02:00*%
%TF.ProjectId,crane,6372616e-652e-46b6-9963-61645f706362,rev?*%
%TF.SameCoordinates,Original*%
%TF.FileFunction,Legend,Bot*%
%TF.FilePolarity,Positive*%
%FSLAX46Y46*%
G04 Gerber Fmt 4.6, Leading zero omitted, Abs format (unit mm)*
G04 Created by KiCad (PCBNEW 7.0.1) date 2023-05-19 13:22:37*
%MOMM*%
%LPD*%
G01*
G04 APERTURE LIST*
%ADD10C,0.150000*%
%ADD11C,0.120000*%
%ADD12C,0.127000*%
G04 APERTURE END LIST*
D10*
X157500476Y-116257619D02*
X157833809Y-115781428D01*
X158071904Y-116257619D02*
X158071904Y-115257619D01*
X158071904Y-115257619D02*
X157690952Y-115257619D01*
X157690952Y-115257619D02*
X157595714Y-115305238D01*
X157595714Y-115305238D02*
X157548095Y-115352857D01*
X157548095Y-115352857D02*
X157500476Y-115448095D01*
X157500476Y-115448095D02*
X157500476Y-115590952D01*
X157500476Y-115590952D02*
X157548095Y-115686190D01*
X157548095Y-115686190D02*
X157595714Y-115733809D01*
X157595714Y-115733809D02*
X157690952Y-115781428D01*
X157690952Y-115781428D02*
X158071904Y-115781428D01*
X157167142Y-115257619D02*
X156500476Y-116257619D01*
X156500476Y-115257619D02*
X157167142Y-116257619D01*
X157548095Y-117805238D02*
X157643333Y-117757619D01*
X157643333Y-117757619D02*
X157786190Y-117757619D01*
X157786190Y-117757619D02*
X157929047Y-117805238D01*
X157929047Y-117805238D02*
X158024285Y-117900476D01*
X158024285Y-117900476D02*
X158071904Y-117995714D01*
X158071904Y-117995714D02*
X158119523Y-118186190D01*
X158119523Y-118186190D02*
X158119523Y-118329047D01*
X158119523Y-118329047D02*
X158071904Y-118519523D01*
X158071904Y-118519523D02*
X158024285Y-118614761D01*
X158024285Y-118614761D02*
X157929047Y-118710000D01*
X157929047Y-118710000D02*
X157786190Y-118757619D01*
X157786190Y-118757619D02*
X157690952Y-118757619D01*
X157690952Y-118757619D02*
X157548095Y-118710000D01*
X157548095Y-118710000D02*
X157500476Y-118662380D01*
X157500476Y-118662380D02*
X157500476Y-118329047D01*
X157500476Y-118329047D02*
X157690952Y-118329047D01*
X157071904Y-118757619D02*
X157071904Y-117757619D01*
X157071904Y-117757619D02*
X156500476Y-118757619D01*
X156500476Y-118757619D02*
X156500476Y-117757619D01*
X156024285Y-118757619D02*
X156024285Y-117757619D01*
X156024285Y-117757619D02*
X155786190Y-117757619D01*
X155786190Y-117757619D02*
X155643333Y-117805238D01*
X155643333Y-117805238D02*
X155548095Y-117900476D01*
X155548095Y-117900476D02*
X155500476Y-117995714D01*
X155500476Y-117995714D02*
X155452857Y-118186190D01*
X155452857Y-118186190D02*
X155452857Y-118329047D01*
X155452857Y-118329047D02*
X155500476Y-118519523D01*
X155500476Y-118519523D02*
X155548095Y-118614761D01*
X155548095Y-118614761D02*
X155643333Y-118710000D01*
X155643333Y-118710000D02*
X155786190Y-118757619D01*
X155786190Y-118757619D02*
X156024285Y-118757619D01*
X157298095Y-127110238D02*
X157393333Y-127062619D01*
X157393333Y-127062619D02*
X157536190Y-127062619D01*
X157536190Y-127062619D02*
X157679047Y-127110238D01*
X157679047Y-127110238D02*
X157774285Y-127205476D01*
X157774285Y-127205476D02*
X157821904Y-127300714D01*
X157821904Y-127300714D02*
X157869523Y-127491190D01*
X157869523Y-127491190D02*
X157869523Y-127634047D01*
X157869523Y-127634047D02*
X157821904Y-127824523D01*
X157821904Y-127824523D02*
X157774285Y-127919761D01*
X157774285Y-127919761D02*
X157679047Y-128015000D01*
X157679047Y-128015000D02*
X157536190Y-128062619D01*
X157536190Y-128062619D02*
X157440952Y-128062619D01*
X157440952Y-128062619D02*
X157298095Y-128015000D01*
X157298095Y-128015000D02*
X157250476Y-127967380D01*
X157250476Y-127967380D02*
X157250476Y-127634047D01*
X157250476Y-127634047D02*
X157440952Y-127634047D01*
X156821904Y-128062619D02*
X156821904Y-127062619D01*
X156821904Y-127062619D02*
X156250476Y-128062619D01*
X156250476Y-128062619D02*
X156250476Y-127062619D01*
X155774285Y-128062619D02*
X155774285Y-127062619D01*
X155774285Y-127062619D02*
X155536190Y-127062619D01*
X155536190Y-127062619D02*
X155393333Y-127110238D01*
X155393333Y-127110238D02*
X155298095Y-127205476D01*
X155298095Y-127205476D02*
X155250476Y-127300714D01*
X155250476Y-127300714D02*
X155202857Y-127491190D01*
X155202857Y-127491190D02*
X155202857Y-127634047D01*
X155202857Y-127634047D02*
X155250476Y-127824523D01*
X155250476Y-127824523D02*
X155298095Y-127919761D01*
X155298095Y-127919761D02*
X155393333Y-128015000D01*
X155393333Y-128015000D02*
X155536190Y-128062619D01*
X155536190Y-128062619D02*
X155774285Y-128062619D01*
X158249284Y-99757619D02*
X158249284Y-98757619D01*
X158249284Y-98757619D02*
X157677856Y-99757619D01*
X157677856Y-99757619D02*
X157677856Y-98757619D01*
X157249284Y-99710000D02*
X157106427Y-99757619D01*
X157106427Y-99757619D02*
X156868332Y-99757619D01*
X156868332Y-99757619D02*
X156773094Y-99710000D01*
X156773094Y-99710000D02*
X156725475Y-99662380D01*
X156725475Y-99662380D02*
X156677856Y-99567142D01*
X156677856Y-99567142D02*
X156677856Y-99471904D01*
X156677856Y-99471904D02*
X156725475Y-99376666D01*
X156725475Y-99376666D02*
X156773094Y-99329047D01*
X156773094Y-99329047D02*
X156868332Y-99281428D01*
X156868332Y-99281428D02*
X157058808Y-99233809D01*
X157058808Y-99233809D02*
X157154046Y-99186190D01*
X157154046Y-99186190D02*
X157201665Y-99138571D01*
X157201665Y-99138571D02*
X157249284Y-99043333D01*
X157249284Y-99043333D02*
X157249284Y-98948095D01*
X157249284Y-98948095D02*
X157201665Y-98852857D01*
X157201665Y-98852857D02*
X157154046Y-98805238D01*
X157154046Y-98805238D02*
X157058808Y-98757619D01*
X157058808Y-98757619D02*
X156820713Y-98757619D01*
X156820713Y-98757619D02*
X156677856Y-98805238D01*
X156296903Y-99710000D02*
X156154046Y-99757619D01*
X156154046Y-99757619D02*
X155915951Y-99757619D01*
X155915951Y-99757619D02*
X155820713Y-99710000D01*
X155820713Y-99710000D02*
X155773094Y-99662380D01*
X155773094Y-99662380D02*
X155725475Y-99567142D01*
X155725475Y-99567142D02*
X155725475Y-99471904D01*
X155725475Y-99471904D02*
X155773094Y-99376666D01*
X155773094Y-99376666D02*
X155820713Y-99329047D01*
X155820713Y-99329047D02*
X155915951Y-99281428D01*
X155915951Y-99281428D02*
X156106427Y-99233809D01*
X156106427Y-99233809D02*
X156201665Y-99186190D01*
X156201665Y-99186190D02*
X156249284Y-99138571D01*
X156249284Y-99138571D02*
X156296903Y-99043333D01*
X156296903Y-99043333D02*
X156296903Y-98948095D01*
X156296903Y-98948095D02*
X156249284Y-98852857D01*
X156249284Y-98852857D02*
X156201665Y-98805238D01*
X156201665Y-98805238D02*
X156106427Y-98757619D01*
X156106427Y-98757619D02*
X155868332Y-98757619D01*
X155868332Y-98757619D02*
X155725475Y-98805238D01*
X158071904Y-107257619D02*
X158071904Y-106257619D01*
X158071904Y-106257619D02*
X157738571Y-106971904D01*
X157738571Y-106971904D02*
X157405238Y-106257619D01*
X157405238Y-106257619D02*
X157405238Y-107257619D01*
X156738571Y-106257619D02*
X156548095Y-106257619D01*
X156548095Y-106257619D02*
X156452857Y-106305238D01*
X156452857Y-106305238D02*
X156357619Y-106400476D01*
X156357619Y-106400476D02*
X156310000Y-106590952D01*
X156310000Y-106590952D02*
X156310000Y-106924285D01*
X156310000Y-106924285D02*
X156357619Y-107114761D01*
X156357619Y-107114761D02*
X156452857Y-107210000D01*
X156452857Y-107210000D02*
X156548095Y-107257619D01*
X156548095Y-107257619D02*
X156738571Y-107257619D01*
X156738571Y-107257619D02*
X156833809Y-107210000D01*
X156833809Y-107210000D02*
X156929047Y-107114761D01*
X156929047Y-107114761D02*
X156976666Y-106924285D01*
X156976666Y-106924285D02*
X156976666Y-106590952D01*
X156976666Y-106590952D02*
X156929047Y-106400476D01*
X156929047Y-106400476D02*
X156833809Y-106305238D01*
X156833809Y-106305238D02*
X156738571Y-106257619D01*
X155929047Y-107210000D02*
X155786190Y-107257619D01*
X155786190Y-107257619D02*
X155548095Y-107257619D01*
X155548095Y-107257619D02*
X155452857Y-107210000D01*
X155452857Y-107210000D02*
X155405238Y-107162380D01*
X155405238Y-107162380D02*
X155357619Y-107067142D01*
X155357619Y-107067142D02*
X155357619Y-106971904D01*
X155357619Y-106971904D02*
X155405238Y-106876666D01*
X155405238Y-106876666D02*
X155452857Y-106829047D01*
X155452857Y-106829047D02*
X155548095Y-106781428D01*
X155548095Y-106781428D02*
X155738571Y-106733809D01*
X155738571Y-106733809D02*
X155833809Y-106686190D01*
X155833809Y-106686190D02*
X155881428Y-106638571D01*
X155881428Y-106638571D02*
X155929047Y-106543333D01*
X155929047Y-106543333D02*
X155929047Y-106448095D01*
X155929047Y-106448095D02*
X155881428Y-106352857D01*
X155881428Y-106352857D02*
X155833809Y-106305238D01*
X155833809Y-106305238D02*
X155738571Y-106257619D01*
X155738571Y-106257619D02*
X155500476Y-106257619D01*
X155500476Y-106257619D02*
X155357619Y-106305238D01*
X154929047Y-107257619D02*
X154929047Y-106257619D01*
X158048095Y-109055238D02*
X158143333Y-109007619D01*
X158143333Y-109007619D02*
X158286190Y-109007619D01*
X158286190Y-109007619D02*
X158429047Y-109055238D01*
X158429047Y-109055238D02*
X158524285Y-109150476D01*
X158524285Y-109150476D02*
X158571904Y-109245714D01*
X158571904Y-109245714D02*
X158619523Y-109436190D01*
X158619523Y-109436190D02*
X158619523Y-109579047D01*
X158619523Y-109579047D02*
X158571904Y-109769523D01*
X158571904Y-109769523D02*
X158524285Y-109864761D01*
X158524285Y-109864761D02*
X158429047Y-109960000D01*
X158429047Y-109960000D02*
X158286190Y-110007619D01*
X158286190Y-110007619D02*
X158190952Y-110007619D01*
X158190952Y-110007619D02*
X158048095Y-109960000D01*
X158048095Y-109960000D02*
X158000476Y-109912380D01*
X158000476Y-109912380D02*
X158000476Y-109579047D01*
X158000476Y-109579047D02*
X158190952Y-109579047D01*
X157571904Y-110007619D02*
X157571904Y-109007619D01*
X157571904Y-109007619D02*
X157000476Y-110007619D01*
X157000476Y-110007619D02*
X157000476Y-109007619D01*
X156524285Y-110007619D02*
X156524285Y-109007619D01*
X156524285Y-109007619D02*
X156286190Y-109007619D01*
X156286190Y-109007619D02*
X156143333Y-109055238D01*
X156143333Y-109055238D02*
X156048095Y-109150476D01*
X156048095Y-109150476D02*
X156000476Y-109245714D01*
X156000476Y-109245714D02*
X155952857Y-109436190D01*
X155952857Y-109436190D02*
X155952857Y-109579047D01*
X155952857Y-109579047D02*
X156000476Y-109769523D01*
X156000476Y-109769523D02*
X156048095Y-109864761D01*
X156048095Y-109864761D02*
X156143333Y-109960000D01*
X156143333Y-109960000D02*
X156286190Y-110007619D01*
X156286190Y-110007619D02*
X156524285Y-110007619D01*
X115937619Y-98339285D02*
X115937619Y-97863095D01*
X115937619Y-97863095D02*
X116413809Y-97815476D01*
X116413809Y-97815476D02*
X116366190Y-97863095D01*
X116366190Y-97863095D02*
X116318571Y-97958333D01*
X116318571Y-97958333D02*
X116318571Y-98196428D01*
X116318571Y-98196428D02*
X116366190Y-98291666D01*
X116366190Y-98291666D02*
X116413809Y-98339285D01*
X116413809Y-98339285D02*
X116509047Y-98386904D01*
X116509047Y-98386904D02*
X116747142Y-98386904D01*
X116747142Y-98386904D02*
X116842380Y-98339285D01*
X116842380Y-98339285D02*
X116890000Y-98291666D01*
X116890000Y-98291666D02*
X116937619Y-98196428D01*
X116937619Y-98196428D02*
X116937619Y-97958333D01*
X116937619Y-97958333D02*
X116890000Y-97863095D01*
X116890000Y-97863095D02*
X116842380Y-97815476D01*
X115937619Y-98672619D02*
X116937619Y-99005952D01*
X116937619Y-99005952D02*
X115937619Y-99339285D01*
X116890000Y-100386905D02*
X116937619Y-100529762D01*
X116937619Y-100529762D02*
X116937619Y-100767857D01*
X116937619Y-100767857D02*
X116890000Y-100863095D01*
X116890000Y-100863095D02*
X116842380Y-100910714D01*
X116842380Y-100910714D02*
X116747142Y-100958333D01*
X116747142Y-100958333D02*
X116651904Y-100958333D01*
X116651904Y-100958333D02*
X116556666Y-100910714D01*
X116556666Y-100910714D02*
X116509047Y-100863095D01*
X116509047Y-100863095D02*
X116461428Y-100767857D01*
X116461428Y-100767857D02*
X116413809Y-100577381D01*
X116413809Y-100577381D02*
X116366190Y-100482143D01*
X116366190Y-100482143D02*
X116318571Y-100434524D01*
X116318571Y-100434524D02*
X116223333Y-100386905D01*
X116223333Y-100386905D02*
X116128095Y-100386905D01*
X116128095Y-100386905D02*
X116032857Y-100434524D01*
X116032857Y-100434524D02*
X115985238Y-100482143D01*
X115985238Y-100482143D02*
X115937619Y-100577381D01*
X115937619Y-100577381D02*
X115937619Y-100815476D01*
X115937619Y-100815476D02*
X115985238Y-100958333D01*
X116413809Y-101386905D02*
X116413809Y-101720238D01*
X116937619Y-101863095D02*
X116937619Y-101386905D01*
X116937619Y-101386905D02*
X115937619Y-101386905D01*
X115937619Y-101386905D02*
X115937619Y-101863095D01*
X116937619Y-102767857D02*
X116937619Y-102291667D01*
X116937619Y-102291667D02*
X115937619Y-102291667D01*
X157869523Y-122765000D02*
X157726666Y-122812619D01*
X157726666Y-122812619D02*
X157488571Y-122812619D01*
X157488571Y-122812619D02*
X157393333Y-122765000D01*
X157393333Y-122765000D02*
X157345714Y-122717380D01*
X157345714Y-122717380D02*
X157298095Y-122622142D01*
X157298095Y-122622142D02*
X157298095Y-122526904D01*
X157298095Y-122526904D02*
X157345714Y-122431666D01*
X157345714Y-122431666D02*
X157393333Y-122384047D01*
X157393333Y-122384047D02*
X157488571Y-122336428D01*
X157488571Y-122336428D02*
X157679047Y-122288809D01*
X157679047Y-122288809D02*
X157774285Y-122241190D01*
X157774285Y-122241190D02*
X157821904Y-122193571D01*
X157821904Y-122193571D02*
X157869523Y-122098333D01*
X157869523Y-122098333D02*
X157869523Y-122003095D01*
X157869523Y-122003095D02*
X157821904Y-121907857D01*
X157821904Y-121907857D02*
X157774285Y-121860238D01*
X157774285Y-121860238D02*
X157679047Y-121812619D01*
X157679047Y-121812619D02*
X157440952Y-121812619D01*
X157440952Y-121812619D02*
X157298095Y-121860238D01*
X156298095Y-122717380D02*
X156345714Y-122765000D01*
X156345714Y-122765000D02*
X156488571Y-122812619D01*
X156488571Y-122812619D02*
X156583809Y-122812619D01*
X156583809Y-122812619D02*
X156726666Y-122765000D01*
X156726666Y-122765000D02*
X156821904Y-122669761D01*
X156821904Y-122669761D02*
X156869523Y-122574523D01*
X156869523Y-122574523D02*
X156917142Y-122384047D01*
X156917142Y-122384047D02*
X156917142Y-122241190D01*
X156917142Y-122241190D02*
X156869523Y-122050714D01*
X156869523Y-122050714D02*
X156821904Y-121955476D01*
X156821904Y-121955476D02*
X156726666Y-121860238D01*
X156726666Y-121860238D02*
X156583809Y-121812619D01*
X156583809Y-121812619D02*
X156488571Y-121812619D01*
X156488571Y-121812619D02*
X156345714Y-121860238D01*
X156345714Y-121860238D02*
X156298095Y-121907857D01*
X155393333Y-122812619D02*
X155869523Y-122812619D01*
X155869523Y-122812619D02*
X155869523Y-121812619D01*
X158071904Y-104757619D02*
X158071904Y-103757619D01*
X158071904Y-103757619D02*
X157738571Y-104471904D01*
X157738571Y-104471904D02*
X157405238Y-103757619D01*
X157405238Y-103757619D02*
X157405238Y-104757619D01*
X156929047Y-104757619D02*
X156929047Y-103757619D01*
X156500476Y-104710000D02*
X156357619Y-104757619D01*
X156357619Y-104757619D02*
X156119524Y-104757619D01*
X156119524Y-104757619D02*
X156024286Y-104710000D01*
X156024286Y-104710000D02*
X155976667Y-104662380D01*
X155976667Y-104662380D02*
X155929048Y-104567142D01*
X155929048Y-104567142D02*
X155929048Y-104471904D01*
X155929048Y-104471904D02*
X155976667Y-104376666D01*
X155976667Y-104376666D02*
X156024286Y-104329047D01*
X156024286Y-104329047D02*
X156119524Y-104281428D01*
X156119524Y-104281428D02*
X156310000Y-104233809D01*
X156310000Y-104233809D02*
X156405238Y-104186190D01*
X156405238Y-104186190D02*
X156452857Y-104138571D01*
X156452857Y-104138571D02*
X156500476Y-104043333D01*
X156500476Y-104043333D02*
X156500476Y-103948095D01*
X156500476Y-103948095D02*
X156452857Y-103852857D01*
X156452857Y-103852857D02*
X156405238Y-103805238D01*
X156405238Y-103805238D02*
X156310000Y-103757619D01*
X156310000Y-103757619D02*
X156071905Y-103757619D01*
X156071905Y-103757619D02*
X155929048Y-103805238D01*
X155310000Y-103757619D02*
X155119524Y-103757619D01*
X155119524Y-103757619D02*
X155024286Y-103805238D01*
X155024286Y-103805238D02*
X154929048Y-103900476D01*
X154929048Y-103900476D02*
X154881429Y-104090952D01*
X154881429Y-104090952D02*
X154881429Y-104424285D01*
X154881429Y-104424285D02*
X154929048Y-104614761D01*
X154929048Y-104614761D02*
X155024286Y-104710000D01*
X155024286Y-104710000D02*
X155119524Y-104757619D01*
X155119524Y-104757619D02*
X155310000Y-104757619D01*
X155310000Y-104757619D02*
X155405238Y-104710000D01*
X155405238Y-104710000D02*
X155500476Y-104614761D01*
X155500476Y-104614761D02*
X155548095Y-104424285D01*
X155548095Y-104424285D02*
X155548095Y-104090952D01*
X155548095Y-104090952D02*
X155500476Y-103900476D01*
X155500476Y-103900476D02*
X155405238Y-103805238D01*
X155405238Y-103805238D02*
X155310000Y-103757619D01*
X158296903Y-102210000D02*
X158154046Y-102257619D01*
X158154046Y-102257619D02*
X157915951Y-102257619D01*
X157915951Y-102257619D02*
X157820713Y-102210000D01*
X157820713Y-102210000D02*
X157773094Y-102162380D01*
X157773094Y-102162380D02*
X157725475Y-102067142D01*
X157725475Y-102067142D02*
X157725475Y-101971904D01*
X157725475Y-101971904D02*
X157773094Y-101876666D01*
X157773094Y-101876666D02*
X157820713Y-101829047D01*
X157820713Y-101829047D02*
X157915951Y-101781428D01*
X157915951Y-101781428D02*
X158106427Y-101733809D01*
X158106427Y-101733809D02*
X158201665Y-101686190D01*
X158201665Y-101686190D02*
X158249284Y-101638571D01*
X158249284Y-101638571D02*
X158296903Y-101543333D01*
X158296903Y-101543333D02*
X158296903Y-101448095D01*
X158296903Y-101448095D02*
X158249284Y-101352857D01*
X158249284Y-101352857D02*
X158201665Y-101305238D01*
X158201665Y-101305238D02*
X158106427Y-101257619D01*
X158106427Y-101257619D02*
X157868332Y-101257619D01*
X157868332Y-101257619D02*
X157725475Y-101305238D01*
X156725475Y-102162380D02*
X156773094Y-102210000D01*
X156773094Y-102210000D02*
X156915951Y-102257619D01*
X156915951Y-102257619D02*
X157011189Y-102257619D01*
X157011189Y-102257619D02*
X157154046Y-102210000D01*
X157154046Y-102210000D02*
X157249284Y-102114761D01*
X157249284Y-102114761D02*
X157296903Y-102019523D01*
X157296903Y-102019523D02*
X157344522Y-101829047D01*
X157344522Y-101829047D02*
X157344522Y-101686190D01*
X157344522Y-101686190D02*
X157296903Y-101495714D01*
X157296903Y-101495714D02*
X157249284Y-101400476D01*
X157249284Y-101400476D02*
X157154046Y-101305238D01*
X157154046Y-101305238D02*
X157011189Y-101257619D01*
X157011189Y-101257619D02*
X156915951Y-101257619D01*
X156915951Y-101257619D02*
X156773094Y-101305238D01*
X156773094Y-101305238D02*
X156725475Y-101352857D01*
X156296903Y-102257619D02*
X156296903Y-101257619D01*
X155725475Y-102257619D02*
X156154046Y-101686190D01*
X155725475Y-101257619D02*
X156296903Y-101829047D01*
X158119523Y-125265000D02*
X157976666Y-125312619D01*
X157976666Y-125312619D02*
X157738571Y-125312619D01*
X157738571Y-125312619D02*
X157643333Y-125265000D01*
X157643333Y-125265000D02*
X157595714Y-125217380D01*
X157595714Y-125217380D02*
X157548095Y-125122142D01*
X157548095Y-125122142D02*
X157548095Y-125026904D01*
X157548095Y-125026904D02*
X157595714Y-124931666D01*
X157595714Y-124931666D02*
X157643333Y-124884047D01*
X157643333Y-124884047D02*
X157738571Y-124836428D01*
X157738571Y-124836428D02*
X157929047Y-124788809D01*
X157929047Y-124788809D02*
X158024285Y-124741190D01*
X158024285Y-124741190D02*
X158071904Y-124693571D01*
X158071904Y-124693571D02*
X158119523Y-124598333D01*
X158119523Y-124598333D02*
X158119523Y-124503095D01*
X158119523Y-124503095D02*
X158071904Y-124407857D01*
X158071904Y-124407857D02*
X158024285Y-124360238D01*
X158024285Y-124360238D02*
X157929047Y-124312619D01*
X157929047Y-124312619D02*
X157690952Y-124312619D01*
X157690952Y-124312619D02*
X157548095Y-124360238D01*
X157119523Y-125312619D02*
X157119523Y-124312619D01*
X157119523Y-124312619D02*
X156881428Y-124312619D01*
X156881428Y-124312619D02*
X156738571Y-124360238D01*
X156738571Y-124360238D02*
X156643333Y-124455476D01*
X156643333Y-124455476D02*
X156595714Y-124550714D01*
X156595714Y-124550714D02*
X156548095Y-124741190D01*
X156548095Y-124741190D02*
X156548095Y-124884047D01*
X156548095Y-124884047D02*
X156595714Y-125074523D01*
X156595714Y-125074523D02*
X156643333Y-125169761D01*
X156643333Y-125169761D02*
X156738571Y-125265000D01*
X156738571Y-125265000D02*
X156881428Y-125312619D01*
X156881428Y-125312619D02*
X157119523Y-125312619D01*
X156167142Y-125026904D02*
X155690952Y-125026904D01*
X156262380Y-125312619D02*
X155929047Y-124312619D01*
X155929047Y-124312619D02*
X155595714Y-125312619D01*
X158214761Y-112757619D02*
X157643333Y-112757619D01*
X157929047Y-113757619D02*
X157929047Y-112757619D01*
X157405237Y-112757619D02*
X156738571Y-113757619D01*
X156738571Y-112757619D02*
X157405237Y-113757619D01*
X126187619Y-98267857D02*
X126187619Y-98886904D01*
X126187619Y-98886904D02*
X126568571Y-98553571D01*
X126568571Y-98553571D02*
X126568571Y-98696428D01*
X126568571Y-98696428D02*
X126616190Y-98791666D01*
X126616190Y-98791666D02*
X126663809Y-98839285D01*
X126663809Y-98839285D02*
X126759047Y-98886904D01*
X126759047Y-98886904D02*
X126997142Y-98886904D01*
X126997142Y-98886904D02*
X127092380Y-98839285D01*
X127092380Y-98839285D02*
X127140000Y-98791666D01*
X127140000Y-98791666D02*
X127187619Y-98696428D01*
X127187619Y-98696428D02*
X127187619Y-98410714D01*
X127187619Y-98410714D02*
X127140000Y-98315476D01*
X127140000Y-98315476D02*
X127092380Y-98267857D01*
X126187619Y-99172619D02*
X127187619Y-99505952D01*
X127187619Y-99505952D02*
X126187619Y-99839285D01*
X126187619Y-100077381D02*
X126187619Y-100696428D01*
X126187619Y-100696428D02*
X126568571Y-100363095D01*
X126568571Y-100363095D02*
X126568571Y-100505952D01*
X126568571Y-100505952D02*
X126616190Y-100601190D01*
X126616190Y-100601190D02*
X126663809Y-100648809D01*
X126663809Y-100648809D02*
X126759047Y-100696428D01*
X126759047Y-100696428D02*
X126997142Y-100696428D01*
X126997142Y-100696428D02*
X127092380Y-100648809D01*
X127092380Y-100648809D02*
X127140000Y-100601190D01*
X127140000Y-100601190D02*
X127187619Y-100505952D01*
X127187619Y-100505952D02*
X127187619Y-100220238D01*
X127187619Y-100220238D02*
X127140000Y-100125000D01*
X127140000Y-100125000D02*
X127092380Y-100077381D01*
X127140000Y-101839286D02*
X127187619Y-101982143D01*
X127187619Y-101982143D02*
X127187619Y-102220238D01*
X127187619Y-102220238D02*
X127140000Y-102315476D01*
X127140000Y-102315476D02*
X127092380Y-102363095D01*
X127092380Y-102363095D02*
X126997142Y-102410714D01*
X126997142Y-102410714D02*
X126901904Y-102410714D01*
X126901904Y-102410714D02*
X126806666Y-102363095D01*
X126806666Y-102363095D02*
X126759047Y-102315476D01*
X126759047Y-102315476D02*
X126711428Y-102220238D01*
X126711428Y-102220238D02*
X126663809Y-102029762D01*
X126663809Y-102029762D02*
X126616190Y-101934524D01*
X126616190Y-101934524D02*
X126568571Y-101886905D01*
X126568571Y-101886905D02*
X126473333Y-101839286D01*
X126473333Y-101839286D02*
X126378095Y-101839286D01*
X126378095Y-101839286D02*
X126282857Y-101886905D01*
X126282857Y-101886905D02*
X126235238Y-101934524D01*
X126235238Y-101934524D02*
X126187619Y-102029762D01*
X126187619Y-102029762D02*
X126187619Y-102267857D01*
X126187619Y-102267857D02*
X126235238Y-102410714D01*
X126663809Y-102839286D02*
X126663809Y-103172619D01*
X127187619Y-103315476D02*
X127187619Y-102839286D01*
X127187619Y-102839286D02*
X126187619Y-102839286D01*
X126187619Y-102839286D02*
X126187619Y-103315476D01*
X127187619Y-104220238D02*
X127187619Y-103744048D01*
X127187619Y-103744048D02*
X126187619Y-103744048D01*
%TO.C,D12*%
X138182619Y-133238714D02*
X137182619Y-133238714D01*
X137182619Y-133238714D02*
X137182619Y-133476809D01*
X137182619Y-133476809D02*
X137230238Y-133619666D01*
X137230238Y-133619666D02*
X137325476Y-133714904D01*
X137325476Y-133714904D02*
X137420714Y-133762523D01*
X137420714Y-133762523D02*
X137611190Y-133810142D01*
X137611190Y-133810142D02*
X137754047Y-133810142D01*
X137754047Y-133810142D02*
X137944523Y-133762523D01*
X137944523Y-133762523D02*
X138039761Y-133714904D01*
X138039761Y-133714904D02*
X138135000Y-133619666D01*
X138135000Y-133619666D02*
X138182619Y-133476809D01*
X138182619Y-133476809D02*
X138182619Y-133238714D01*
X138182619Y-134762523D02*
X138182619Y-134191095D01*
X138182619Y-134476809D02*
X137182619Y-134476809D01*
X137182619Y-134476809D02*
X137325476Y-134381571D01*
X137325476Y-134381571D02*
X137420714Y-134286333D01*
X137420714Y-134286333D02*
X137468333Y-134191095D01*
X137277857Y-135143476D02*
X137230238Y-135191095D01*
X137230238Y-135191095D02*
X137182619Y-135286333D01*
X137182619Y-135286333D02*
X137182619Y-135524428D01*
X137182619Y-135524428D02*
X137230238Y-135619666D01*
X137230238Y-135619666D02*
X137277857Y-135667285D01*
X137277857Y-135667285D02*
X137373095Y-135714904D01*
X137373095Y-135714904D02*
X137468333Y-135714904D01*
X137468333Y-135714904D02*
X137611190Y-135667285D01*
X137611190Y-135667285D02*
X138182619Y-135095857D01*
X138182619Y-135095857D02*
X138182619Y-135714904D01*
%TO.C,D11*%
X135642619Y-133238714D02*
X134642619Y-133238714D01*
X134642619Y-133238714D02*
X134642619Y-133476809D01*
X134642619Y-133476809D02*
X134690238Y-133619666D01*
X134690238Y-133619666D02*
X134785476Y-133714904D01*
X134785476Y-133714904D02*
X134880714Y-133762523D01*
X134880714Y-133762523D02*
X135071190Y-133810142D01*
X135071190Y-133810142D02*
X135214047Y-133810142D01*
X135214047Y-133810142D02*
X135404523Y-133762523D01*
X135404523Y-133762523D02*
X135499761Y-133714904D01*
X135499761Y-133714904D02*
X135595000Y-133619666D01*
X135595000Y-133619666D02*
X135642619Y-133476809D01*
X135642619Y-133476809D02*
X135642619Y-133238714D01*
X135642619Y-134762523D02*
X135642619Y-134191095D01*
X135642619Y-134476809D02*
X134642619Y-134476809D01*
X134642619Y-134476809D02*
X134785476Y-134381571D01*
X134785476Y-134381571D02*
X134880714Y-134286333D01*
X134880714Y-134286333D02*
X134928333Y-134191095D01*
X135642619Y-135714904D02*
X135642619Y-135143476D01*
X135642619Y-135429190D02*
X134642619Y-135429190D01*
X134642619Y-135429190D02*
X134785476Y-135333952D01*
X134785476Y-135333952D02*
X134880714Y-135238714D01*
X134880714Y-135238714D02*
X134928333Y-135143476D01*
%TO.C,D10*%
X133102619Y-133238714D02*
X132102619Y-133238714D01*
X132102619Y-133238714D02*
X132102619Y-133476809D01*
X132102619Y-133476809D02*
X132150238Y-133619666D01*
X132150238Y-133619666D02*
X132245476Y-133714904D01*
X132245476Y-133714904D02*
X132340714Y-133762523D01*
X132340714Y-133762523D02*
X132531190Y-133810142D01*
X132531190Y-133810142D02*
X132674047Y-133810142D01*
X132674047Y-133810142D02*
X132864523Y-133762523D01*
X132864523Y-133762523D02*
X132959761Y-133714904D01*
X132959761Y-133714904D02*
X133055000Y-133619666D01*
X133055000Y-133619666D02*
X133102619Y-133476809D01*
X133102619Y-133476809D02*
X133102619Y-133238714D01*
X133102619Y-134762523D02*
X133102619Y-134191095D01*
X133102619Y-134476809D02*
X132102619Y-134476809D01*
X132102619Y-134476809D02*
X132245476Y-134381571D01*
X132245476Y-134381571D02*
X132340714Y-134286333D01*
X132340714Y-134286333D02*
X132388333Y-134191095D01*
X132102619Y-135381571D02*
X132102619Y-135476809D01*
X132102619Y-135476809D02*
X132150238Y-135572047D01*
X132150238Y-135572047D02*
X132197857Y-135619666D01*
X132197857Y-135619666D02*
X132293095Y-135667285D01*
X132293095Y-135667285D02*
X132483571Y-135714904D01*
X132483571Y-135714904D02*
X132721666Y-135714904D01*
X132721666Y-135714904D02*
X132912142Y-135667285D01*
X132912142Y-135667285D02*
X133007380Y-135619666D01*
X133007380Y-135619666D02*
X133055000Y-135572047D01*
X133055000Y-135572047D02*
X133102619Y-135476809D01*
X133102619Y-135476809D02*
X133102619Y-135381571D01*
X133102619Y-135381571D02*
X133055000Y-135286333D01*
X133055000Y-135286333D02*
X133007380Y-135238714D01*
X133007380Y-135238714D02*
X132912142Y-135191095D01*
X132912142Y-135191095D02*
X132721666Y-135143476D01*
X132721666Y-135143476D02*
X132483571Y-135143476D01*
X132483571Y-135143476D02*
X132293095Y-135191095D01*
X132293095Y-135191095D02*
X132197857Y-135238714D01*
X132197857Y-135238714D02*
X132150238Y-135286333D01*
X132150238Y-135286333D02*
X132102619Y-135381571D01*
%TO.C,D9*%
X130562619Y-134222905D02*
X129562619Y-134222905D01*
X129562619Y-134222905D02*
X129562619Y-134461000D01*
X129562619Y-134461000D02*
X129610238Y-134603857D01*
X129610238Y-134603857D02*
X129705476Y-134699095D01*
X129705476Y-134699095D02*
X129800714Y-134746714D01*
X129800714Y-134746714D02*
X129991190Y-134794333D01*
X129991190Y-134794333D02*
X130134047Y-134794333D01*
X130134047Y-134794333D02*
X130324523Y-134746714D01*
X130324523Y-134746714D02*
X130419761Y-134699095D01*
X130419761Y-134699095D02*
X130515000Y-134603857D01*
X130515000Y-134603857D02*
X130562619Y-134461000D01*
X130562619Y-134461000D02*
X130562619Y-134222905D01*
X130562619Y-135270524D02*
X130562619Y-135461000D01*
X130562619Y-135461000D02*
X130515000Y-135556238D01*
X130515000Y-135556238D02*
X130467380Y-135603857D01*
X130467380Y-135603857D02*
X130324523Y-135699095D01*
X130324523Y-135699095D02*
X130134047Y-135746714D01*
X130134047Y-135746714D02*
X129753095Y-135746714D01*
X129753095Y-135746714D02*
X129657857Y-135699095D01*
X129657857Y-135699095D02*
X129610238Y-135651476D01*
X129610238Y-135651476D02*
X129562619Y-135556238D01*
X129562619Y-135556238D02*
X129562619Y-135365762D01*
X129562619Y-135365762D02*
X129610238Y-135270524D01*
X129610238Y-135270524D02*
X129657857Y-135222905D01*
X129657857Y-135222905D02*
X129753095Y-135175286D01*
X129753095Y-135175286D02*
X129991190Y-135175286D01*
X129991190Y-135175286D02*
X130086428Y-135222905D01*
X130086428Y-135222905D02*
X130134047Y-135270524D01*
X130134047Y-135270524D02*
X130181666Y-135365762D01*
X130181666Y-135365762D02*
X130181666Y-135556238D01*
X130181666Y-135556238D02*
X130134047Y-135651476D01*
X130134047Y-135651476D02*
X130086428Y-135699095D01*
X130086428Y-135699095D02*
X129991190Y-135746714D01*
%TO.C,D8*%
X128022619Y-134222905D02*
X127022619Y-134222905D01*
X127022619Y-134222905D02*
X127022619Y-134461000D01*
X127022619Y-134461000D02*
X127070238Y-134603857D01*
X127070238Y-134603857D02*
X127165476Y-134699095D01*
X127165476Y-134699095D02*
X127260714Y-134746714D01*
X127260714Y-134746714D02*
X127451190Y-134794333D01*
X127451190Y-134794333D02*
X127594047Y-134794333D01*
X127594047Y-134794333D02*
X127784523Y-134746714D01*
X127784523Y-134746714D02*
X127879761Y-134699095D01*
X127879761Y-134699095D02*
X127975000Y-134603857D01*
X127975000Y-134603857D02*
X128022619Y-134461000D01*
X128022619Y-134461000D02*
X128022619Y-134222905D01*
X127451190Y-135365762D02*
X127403571Y-135270524D01*
X127403571Y-135270524D02*
X127355952Y-135222905D01*
X127355952Y-135222905D02*
X127260714Y-135175286D01*
X127260714Y-135175286D02*
X127213095Y-135175286D01*
X127213095Y-135175286D02*
X127117857Y-135222905D01*
X127117857Y-135222905D02*
X127070238Y-135270524D01*
X127070238Y-135270524D02*
X127022619Y-135365762D01*
X127022619Y-135365762D02*
X127022619Y-135556238D01*
X127022619Y-135556238D02*
X127070238Y-135651476D01*
X127070238Y-135651476D02*
X127117857Y-135699095D01*
X127117857Y-135699095D02*
X127213095Y-135746714D01*
X127213095Y-135746714D02*
X127260714Y-135746714D01*
X127260714Y-135746714D02*
X127355952Y-135699095D01*
X127355952Y-135699095D02*
X127403571Y-135651476D01*
X127403571Y-135651476D02*
X127451190Y-135556238D01*
X127451190Y-135556238D02*
X127451190Y-135365762D01*
X127451190Y-135365762D02*
X127498809Y-135270524D01*
X127498809Y-135270524D02*
X127546428Y-135222905D01*
X127546428Y-135222905D02*
X127641666Y-135175286D01*
X127641666Y-135175286D02*
X127832142Y-135175286D01*
X127832142Y-135175286D02*
X127927380Y-135222905D01*
X127927380Y-135222905D02*
X127975000Y-135270524D01*
X127975000Y-135270524D02*
X128022619Y-135365762D01*
X128022619Y-135365762D02*
X128022619Y-135556238D01*
X128022619Y-135556238D02*
X127975000Y-135651476D01*
X127975000Y-135651476D02*
X127927380Y-135699095D01*
X127927380Y-135699095D02*
X127832142Y-135746714D01*
X127832142Y-135746714D02*
X127641666Y-135746714D01*
X127641666Y-135746714D02*
X127546428Y-135699095D01*
X127546428Y-135699095D02*
X127498809Y-135651476D01*
X127498809Y-135651476D02*
X127451190Y-135556238D01*
%TO.C,D7*%
X125482619Y-134222905D02*
X124482619Y-134222905D01*
X124482619Y-134222905D02*
X124482619Y-134461000D01*
X124482619Y-134461000D02*
X124530238Y-134603857D01*
X124530238Y-134603857D02*
X124625476Y-134699095D01*
X124625476Y-134699095D02*
X124720714Y-134746714D01*
X124720714Y-134746714D02*
X124911190Y-134794333D01*
X124911190Y-134794333D02*
X125054047Y-134794333D01*
X125054047Y-134794333D02*
X125244523Y-134746714D01*
X125244523Y-134746714D02*
X125339761Y-134699095D01*
X125339761Y-134699095D02*
X125435000Y-134603857D01*
X125435000Y-134603857D02*
X125482619Y-134461000D01*
X125482619Y-134461000D02*
X125482619Y-134222905D01*
X124482619Y-135127667D02*
X124482619Y-135794333D01*
X124482619Y-135794333D02*
X125482619Y-135365762D01*
%TO.C,D6*%
X122942619Y-134222905D02*
X121942619Y-134222905D01*
X121942619Y-134222905D02*
X121942619Y-134461000D01*
X121942619Y-134461000D02*
X121990238Y-134603857D01*
X121990238Y-134603857D02*
X122085476Y-134699095D01*
X122085476Y-134699095D02*
X122180714Y-134746714D01*
X122180714Y-134746714D02*
X122371190Y-134794333D01*
X122371190Y-134794333D02*
X122514047Y-134794333D01*
X122514047Y-134794333D02*
X122704523Y-134746714D01*
X122704523Y-134746714D02*
X122799761Y-134699095D01*
X122799761Y-134699095D02*
X122895000Y-134603857D01*
X122895000Y-134603857D02*
X122942619Y-134461000D01*
X122942619Y-134461000D02*
X122942619Y-134222905D01*
X121942619Y-135651476D02*
X121942619Y-135461000D01*
X121942619Y-135461000D02*
X121990238Y-135365762D01*
X121990238Y-135365762D02*
X122037857Y-135318143D01*
X122037857Y-135318143D02*
X122180714Y-135222905D01*
X122180714Y-135222905D02*
X122371190Y-135175286D01*
X122371190Y-135175286D02*
X122752142Y-135175286D01*
X122752142Y-135175286D02*
X122847380Y-135222905D01*
X122847380Y-135222905D02*
X122895000Y-135270524D01*
X122895000Y-135270524D02*
X122942619Y-135365762D01*
X122942619Y-135365762D02*
X122942619Y-135556238D01*
X122942619Y-135556238D02*
X122895000Y-135651476D01*
X122895000Y-135651476D02*
X122847380Y-135699095D01*
X122847380Y-135699095D02*
X122752142Y-135746714D01*
X122752142Y-135746714D02*
X122514047Y-135746714D01*
X122514047Y-135746714D02*
X122418809Y-135699095D01*
X122418809Y-135699095D02*
X122371190Y-135651476D01*
X122371190Y-135651476D02*
X122323571Y-135556238D01*
X122323571Y-135556238D02*
X122323571Y-135365762D01*
X122323571Y-135365762D02*
X122371190Y-135270524D01*
X122371190Y-135270524D02*
X122418809Y-135222905D01*
X122418809Y-135222905D02*
X122514047Y-135175286D01*
%TO.C,D5*%
X120402619Y-134222905D02*
X119402619Y-134222905D01*
X119402619Y-134222905D02*
X119402619Y-134461000D01*
X119402619Y-134461000D02*
X119450238Y-134603857D01*
X119450238Y-134603857D02*
X119545476Y-134699095D01*
X119545476Y-134699095D02*
X119640714Y-134746714D01*
X119640714Y-134746714D02*
X119831190Y-134794333D01*
X119831190Y-134794333D02*
X119974047Y-134794333D01*
X119974047Y-134794333D02*
X120164523Y-134746714D01*
X120164523Y-134746714D02*
X120259761Y-134699095D01*
X120259761Y-134699095D02*
X120355000Y-134603857D01*
X120355000Y-134603857D02*
X120402619Y-134461000D01*
X120402619Y-134461000D02*
X120402619Y-134222905D01*
X119402619Y-135699095D02*
X119402619Y-135222905D01*
X119402619Y-135222905D02*
X119878809Y-135175286D01*
X119878809Y-135175286D02*
X119831190Y-135222905D01*
X119831190Y-135222905D02*
X119783571Y-135318143D01*
X119783571Y-135318143D02*
X119783571Y-135556238D01*
X119783571Y-135556238D02*
X119831190Y-135651476D01*
X119831190Y-135651476D02*
X119878809Y-135699095D01*
X119878809Y-135699095D02*
X119974047Y-135746714D01*
X119974047Y-135746714D02*
X120212142Y-135746714D01*
X120212142Y-135746714D02*
X120307380Y-135699095D01*
X120307380Y-135699095D02*
X120355000Y-135651476D01*
X120355000Y-135651476D02*
X120402619Y-135556238D01*
X120402619Y-135556238D02*
X120402619Y-135318143D01*
X120402619Y-135318143D02*
X120355000Y-135222905D01*
X120355000Y-135222905D02*
X120307380Y-135175286D01*
%TO.C,D4*%
X117862619Y-134222905D02*
X116862619Y-134222905D01*
X116862619Y-134222905D02*
X116862619Y-134461000D01*
X116862619Y-134461000D02*
X116910238Y-134603857D01*
X116910238Y-134603857D02*
X117005476Y-134699095D01*
X117005476Y-134699095D02*
X117100714Y-134746714D01*
X117100714Y-134746714D02*
X117291190Y-134794333D01*
X117291190Y-134794333D02*
X117434047Y-134794333D01*
X117434047Y-134794333D02*
X117624523Y-134746714D01*
X117624523Y-134746714D02*
X117719761Y-134699095D01*
X117719761Y-134699095D02*
X117815000Y-134603857D01*
X117815000Y-134603857D02*
X117862619Y-134461000D01*
X117862619Y-134461000D02*
X117862619Y-134222905D01*
X117195952Y-135651476D02*
X117862619Y-135651476D01*
X116815000Y-135413381D02*
X117529285Y-135175286D01*
X117529285Y-135175286D02*
X117529285Y-135794333D01*
%TO.C,D3*%
X115322619Y-134222905D02*
X114322619Y-134222905D01*
X114322619Y-134222905D02*
X114322619Y-134461000D01*
X114322619Y-134461000D02*
X114370238Y-134603857D01*
X114370238Y-134603857D02*
X114465476Y-134699095D01*
X114465476Y-134699095D02*
X114560714Y-134746714D01*
X114560714Y-134746714D02*
X114751190Y-134794333D01*
X114751190Y-134794333D02*
X114894047Y-134794333D01*
X114894047Y-134794333D02*
X115084523Y-134746714D01*
X115084523Y-134746714D02*
X115179761Y-134699095D01*
X115179761Y-134699095D02*
X115275000Y-134603857D01*
X115275000Y-134603857D02*
X115322619Y-134461000D01*
X115322619Y-134461000D02*
X115322619Y-134222905D01*
X114322619Y-135127667D02*
X114322619Y-135746714D01*
X114322619Y-135746714D02*
X114703571Y-135413381D01*
X114703571Y-135413381D02*
X114703571Y-135556238D01*
X114703571Y-135556238D02*
X114751190Y-135651476D01*
X114751190Y-135651476D02*
X114798809Y-135699095D01*
X114798809Y-135699095D02*
X114894047Y-135746714D01*
X114894047Y-135746714D02*
X115132142Y-135746714D01*
X115132142Y-135746714D02*
X115227380Y-135699095D01*
X115227380Y-135699095D02*
X115275000Y-135651476D01*
X115275000Y-135651476D02*
X115322619Y-135556238D01*
X115322619Y-135556238D02*
X115322619Y-135270524D01*
X115322619Y-135270524D02*
X115275000Y-135175286D01*
X115275000Y-135175286D02*
X115227380Y-135127667D01*
%TO.C,D2*%
X112782619Y-134222905D02*
X111782619Y-134222905D01*
X111782619Y-134222905D02*
X111782619Y-134461000D01*
X111782619Y-134461000D02*
X111830238Y-134603857D01*
X111830238Y-134603857D02*
X111925476Y-134699095D01*
X111925476Y-134699095D02*
X112020714Y-134746714D01*
X112020714Y-134746714D02*
X112211190Y-134794333D01*
X112211190Y-134794333D02*
X112354047Y-134794333D01*
X112354047Y-134794333D02*
X112544523Y-134746714D01*
X112544523Y-134746714D02*
X112639761Y-134699095D01*
X112639761Y-134699095D02*
X112735000Y-134603857D01*
X112735000Y-134603857D02*
X112782619Y-134461000D01*
X112782619Y-134461000D02*
X112782619Y-134222905D01*
X111877857Y-135175286D02*
X111830238Y-135222905D01*
X111830238Y-135222905D02*
X111782619Y-135318143D01*
X111782619Y-135318143D02*
X111782619Y-135556238D01*
X111782619Y-135556238D02*
X111830238Y-135651476D01*
X111830238Y-135651476D02*
X111877857Y-135699095D01*
X111877857Y-135699095D02*
X111973095Y-135746714D01*
X111973095Y-135746714D02*
X112068333Y-135746714D01*
X112068333Y-135746714D02*
X112211190Y-135699095D01*
X112211190Y-135699095D02*
X112782619Y-135127667D01*
X112782619Y-135127667D02*
X112782619Y-135746714D01*
%TO.C,D1*%
X110242619Y-134222905D02*
X109242619Y-134222905D01*
X109242619Y-134222905D02*
X109242619Y-134461000D01*
X109242619Y-134461000D02*
X109290238Y-134603857D01*
X109290238Y-134603857D02*
X109385476Y-134699095D01*
X109385476Y-134699095D02*
X109480714Y-134746714D01*
X109480714Y-134746714D02*
X109671190Y-134794333D01*
X109671190Y-134794333D02*
X109814047Y-134794333D01*
X109814047Y-134794333D02*
X110004523Y-134746714D01*
X110004523Y-134746714D02*
X110099761Y-134699095D01*
X110099761Y-134699095D02*
X110195000Y-134603857D01*
X110195000Y-134603857D02*
X110242619Y-134461000D01*
X110242619Y-134461000D02*
X110242619Y-134222905D01*
X110242619Y-135746714D02*
X110242619Y-135175286D01*
X110242619Y-135461000D02*
X109242619Y-135461000D01*
X109242619Y-135461000D02*
X109385476Y-135365762D01*
X109385476Y-135365762D02*
X109480714Y-135270524D01*
X109480714Y-135270524D02*
X109528333Y-135175286D01*
%TO.C,U1*%
X98810476Y-112722380D02*
X98858095Y-112770000D01*
X98858095Y-112770000D02*
X99000952Y-112817619D01*
X99000952Y-112817619D02*
X99096190Y-112817619D01*
X99096190Y-112817619D02*
X99239047Y-112770000D01*
X99239047Y-112770000D02*
X99334285Y-112674761D01*
X99334285Y-112674761D02*
X99381904Y-112579523D01*
X99381904Y-112579523D02*
X99429523Y-112389047D01*
X99429523Y-112389047D02*
X99429523Y-112246190D01*
X99429523Y-112246190D02*
X99381904Y-112055714D01*
X99381904Y-112055714D02*
X99334285Y-111960476D01*
X99334285Y-111960476D02*
X99239047Y-111865238D01*
X99239047Y-111865238D02*
X99096190Y-111817619D01*
X99096190Y-111817619D02*
X99000952Y-111817619D01*
X99000952Y-111817619D02*
X98858095Y-111865238D01*
X98858095Y-111865238D02*
X98810476Y-111912857D01*
X97905714Y-112817619D02*
X98381904Y-112817619D01*
X98381904Y-112817619D02*
X98381904Y-111817619D01*
X97572380Y-112817619D02*
X97572380Y-111817619D01*
X97000952Y-112817619D02*
X97429523Y-112246190D01*
X97000952Y-111817619D02*
X97572380Y-112389047D01*
X99048571Y-122453809D02*
X98905714Y-122501428D01*
X98905714Y-122501428D02*
X98858095Y-122549047D01*
X98858095Y-122549047D02*
X98810476Y-122644285D01*
X98810476Y-122644285D02*
X98810476Y-122787142D01*
X98810476Y-122787142D02*
X98858095Y-122882380D01*
X98858095Y-122882380D02*
X98905714Y-122930000D01*
X98905714Y-122930000D02*
X99000952Y-122977619D01*
X99000952Y-122977619D02*
X99381904Y-122977619D01*
X99381904Y-122977619D02*
X99381904Y-121977619D01*
X99381904Y-121977619D02*
X99048571Y-121977619D01*
X99048571Y-121977619D02*
X98953333Y-122025238D01*
X98953333Y-122025238D02*
X98905714Y-122072857D01*
X98905714Y-122072857D02*
X98858095Y-122168095D01*
X98858095Y-122168095D02*
X98858095Y-122263333D01*
X98858095Y-122263333D02*
X98905714Y-122358571D01*
X98905714Y-122358571D02*
X98953333Y-122406190D01*
X98953333Y-122406190D02*
X99048571Y-122453809D01*
X99048571Y-122453809D02*
X99381904Y-122453809D01*
X97905714Y-122977619D02*
X98381904Y-122977619D01*
X98381904Y-122977619D02*
X98381904Y-121977619D01*
X98810476Y-115262380D02*
X98858095Y-115310000D01*
X98858095Y-115310000D02*
X99000952Y-115357619D01*
X99000952Y-115357619D02*
X99096190Y-115357619D01*
X99096190Y-115357619D02*
X99239047Y-115310000D01*
X99239047Y-115310000D02*
X99334285Y-115214761D01*
X99334285Y-115214761D02*
X99381904Y-115119523D01*
X99381904Y-115119523D02*
X99429523Y-114929047D01*
X99429523Y-114929047D02*
X99429523Y-114786190D01*
X99429523Y-114786190D02*
X99381904Y-114595714D01*
X99381904Y-114595714D02*
X99334285Y-114500476D01*
X99334285Y-114500476D02*
X99239047Y-114405238D01*
X99239047Y-114405238D02*
X99096190Y-114357619D01*
X99096190Y-114357619D02*
X99000952Y-114357619D01*
X99000952Y-114357619D02*
X98858095Y-114405238D01*
X98858095Y-114405238D02*
X98810476Y-114452857D01*
X98429523Y-115310000D02*
X98286666Y-115357619D01*
X98286666Y-115357619D02*
X98048571Y-115357619D01*
X98048571Y-115357619D02*
X97953333Y-115310000D01*
X97953333Y-115310000D02*
X97905714Y-115262380D01*
X97905714Y-115262380D02*
X97858095Y-115167142D01*
X97858095Y-115167142D02*
X97858095Y-115071904D01*
X97858095Y-115071904D02*
X97905714Y-114976666D01*
X97905714Y-114976666D02*
X97953333Y-114929047D01*
X97953333Y-114929047D02*
X98048571Y-114881428D01*
X98048571Y-114881428D02*
X98239047Y-114833809D01*
X98239047Y-114833809D02*
X98334285Y-114786190D01*
X98334285Y-114786190D02*
X98381904Y-114738571D01*
X98381904Y-114738571D02*
X98429523Y-114643333D01*
X98429523Y-114643333D02*
X98429523Y-114548095D01*
X98429523Y-114548095D02*
X98381904Y-114452857D01*
X98381904Y-114452857D02*
X98334285Y-114405238D01*
X98334285Y-114405238D02*
X98239047Y-114357619D01*
X98239047Y-114357619D02*
X98000952Y-114357619D01*
X98000952Y-114357619D02*
X97858095Y-114405238D01*
X99524761Y-104197619D02*
X99191428Y-105197619D01*
X99191428Y-105197619D02*
X98858095Y-104197619D01*
X97953333Y-105102380D02*
X98000952Y-105150000D01*
X98000952Y-105150000D02*
X98143809Y-105197619D01*
X98143809Y-105197619D02*
X98239047Y-105197619D01*
X98239047Y-105197619D02*
X98381904Y-105150000D01*
X98381904Y-105150000D02*
X98477142Y-105054761D01*
X98477142Y-105054761D02*
X98524761Y-104959523D01*
X98524761Y-104959523D02*
X98572380Y-104769047D01*
X98572380Y-104769047D02*
X98572380Y-104626190D01*
X98572380Y-104626190D02*
X98524761Y-104435714D01*
X98524761Y-104435714D02*
X98477142Y-104340476D01*
X98477142Y-104340476D02*
X98381904Y-104245238D01*
X98381904Y-104245238D02*
X98239047Y-104197619D01*
X98239047Y-104197619D02*
X98143809Y-104197619D01*
X98143809Y-104197619D02*
X98000952Y-104245238D01*
X98000952Y-104245238D02*
X97953333Y-104292857D01*
X96953333Y-105102380D02*
X97000952Y-105150000D01*
X97000952Y-105150000D02*
X97143809Y-105197619D01*
X97143809Y-105197619D02*
X97239047Y-105197619D01*
X97239047Y-105197619D02*
X97381904Y-105150000D01*
X97381904Y-105150000D02*
X97477142Y-105054761D01*
X97477142Y-105054761D02*
X97524761Y-104959523D01*
X97524761Y-104959523D02*
X97572380Y-104769047D01*
X97572380Y-104769047D02*
X97572380Y-104626190D01*
X97572380Y-104626190D02*
X97524761Y-104435714D01*
X97524761Y-104435714D02*
X97477142Y-104340476D01*
X97477142Y-104340476D02*
X97381904Y-104245238D01*
X97381904Y-104245238D02*
X97239047Y-104197619D01*
X97239047Y-104197619D02*
X97143809Y-104197619D01*
X97143809Y-104197619D02*
X97000952Y-104245238D01*
X97000952Y-104245238D02*
X96953333Y-104292857D01*
X98858095Y-106795238D02*
X98953333Y-106747619D01*
X98953333Y-106747619D02*
X99096190Y-106747619D01*
X99096190Y-106747619D02*
X99239047Y-106795238D01*
X99239047Y-106795238D02*
X99334285Y-106890476D01*
X99334285Y-106890476D02*
X99381904Y-106985714D01*
X99381904Y-106985714D02*
X99429523Y-107176190D01*
X99429523Y-107176190D02*
X99429523Y-107319047D01*
X99429523Y-107319047D02*
X99381904Y-107509523D01*
X99381904Y-107509523D02*
X99334285Y-107604761D01*
X99334285Y-107604761D02*
X99239047Y-107700000D01*
X99239047Y-107700000D02*
X99096190Y-107747619D01*
X99096190Y-107747619D02*
X99000952Y-107747619D01*
X99000952Y-107747619D02*
X98858095Y-107700000D01*
X98858095Y-107700000D02*
X98810476Y-107652380D01*
X98810476Y-107652380D02*
X98810476Y-107319047D01*
X98810476Y-107319047D02*
X99000952Y-107319047D01*
X98381904Y-107747619D02*
X98381904Y-106747619D01*
X98381904Y-106747619D02*
X97810476Y-107747619D01*
X97810476Y-107747619D02*
X97810476Y-106747619D01*
X97334285Y-107747619D02*
X97334285Y-106747619D01*
X97334285Y-106747619D02*
X97096190Y-106747619D01*
X97096190Y-106747619D02*
X96953333Y-106795238D01*
X96953333Y-106795238D02*
X96858095Y-106890476D01*
X96858095Y-106890476D02*
X96810476Y-106985714D01*
X96810476Y-106985714D02*
X96762857Y-107176190D01*
X96762857Y-107176190D02*
X96762857Y-107319047D01*
X96762857Y-107319047D02*
X96810476Y-107509523D01*
X96810476Y-107509523D02*
X96858095Y-107604761D01*
X96858095Y-107604761D02*
X96953333Y-107700000D01*
X96953333Y-107700000D02*
X97096190Y-107747619D01*
X97096190Y-107747619D02*
X97334285Y-107747619D01*
X99381904Y-110277619D02*
X99381904Y-109277619D01*
X99381904Y-109277619D02*
X99143809Y-109277619D01*
X99143809Y-109277619D02*
X99000952Y-109325238D01*
X99000952Y-109325238D02*
X98905714Y-109420476D01*
X98905714Y-109420476D02*
X98858095Y-109515714D01*
X98858095Y-109515714D02*
X98810476Y-109706190D01*
X98810476Y-109706190D02*
X98810476Y-109849047D01*
X98810476Y-109849047D02*
X98858095Y-110039523D01*
X98858095Y-110039523D02*
X98905714Y-110134761D01*
X98905714Y-110134761D02*
X99000952Y-110230000D01*
X99000952Y-110230000D02*
X99143809Y-110277619D01*
X99143809Y-110277619D02*
X99381904Y-110277619D01*
X98381904Y-110277619D02*
X98381904Y-109277619D01*
X97905714Y-110277619D02*
X97905714Y-109277619D01*
X97905714Y-109277619D02*
X97334286Y-110277619D01*
X97334286Y-110277619D02*
X97334286Y-109277619D01*
X98810476Y-120437619D02*
X99143809Y-119961428D01*
X99381904Y-120437619D02*
X99381904Y-119437619D01*
X99381904Y-119437619D02*
X99000952Y-119437619D01*
X99000952Y-119437619D02*
X98905714Y-119485238D01*
X98905714Y-119485238D02*
X98858095Y-119532857D01*
X98858095Y-119532857D02*
X98810476Y-119628095D01*
X98810476Y-119628095D02*
X98810476Y-119770952D01*
X98810476Y-119770952D02*
X98858095Y-119866190D01*
X98858095Y-119866190D02*
X98905714Y-119913809D01*
X98905714Y-119913809D02*
X99000952Y-119961428D01*
X99000952Y-119961428D02*
X99381904Y-119961428D01*
X98429523Y-120390000D02*
X98286666Y-120437619D01*
X98286666Y-120437619D02*
X98048571Y-120437619D01*
X98048571Y-120437619D02*
X97953333Y-120390000D01*
X97953333Y-120390000D02*
X97905714Y-120342380D01*
X97905714Y-120342380D02*
X97858095Y-120247142D01*
X97858095Y-120247142D02*
X97858095Y-120151904D01*
X97858095Y-120151904D02*
X97905714Y-120056666D01*
X97905714Y-120056666D02*
X97953333Y-120009047D01*
X97953333Y-120009047D02*
X98048571Y-119961428D01*
X98048571Y-119961428D02*
X98239047Y-119913809D01*
X98239047Y-119913809D02*
X98334285Y-119866190D01*
X98334285Y-119866190D02*
X98381904Y-119818571D01*
X98381904Y-119818571D02*
X98429523Y-119723333D01*
X98429523Y-119723333D02*
X98429523Y-119628095D01*
X98429523Y-119628095D02*
X98381904Y-119532857D01*
X98381904Y-119532857D02*
X98334285Y-119485238D01*
X98334285Y-119485238D02*
X98239047Y-119437619D01*
X98239047Y-119437619D02*
X98000952Y-119437619D01*
X98000952Y-119437619D02*
X97858095Y-119485238D01*
X97572380Y-119437619D02*
X97000952Y-119437619D01*
X97286666Y-120437619D02*
X97286666Y-119437619D01*
X99381904Y-117897619D02*
X99381904Y-116897619D01*
X99381904Y-116897619D02*
X99143809Y-116897619D01*
X99143809Y-116897619D02*
X99000952Y-116945238D01*
X99000952Y-116945238D02*
X98905714Y-117040476D01*
X98905714Y-117040476D02*
X98858095Y-117135714D01*
X98858095Y-117135714D02*
X98810476Y-117326190D01*
X98810476Y-117326190D02*
X98810476Y-117469047D01*
X98810476Y-117469047D02*
X98858095Y-117659523D01*
X98858095Y-117659523D02*
X98905714Y-117754761D01*
X98905714Y-117754761D02*
X99000952Y-117850000D01*
X99000952Y-117850000D02*
X99143809Y-117897619D01*
X99143809Y-117897619D02*
X99381904Y-117897619D01*
X97810476Y-117802380D02*
X97858095Y-117850000D01*
X97858095Y-117850000D02*
X98000952Y-117897619D01*
X98000952Y-117897619D02*
X98096190Y-117897619D01*
X98096190Y-117897619D02*
X98239047Y-117850000D01*
X98239047Y-117850000D02*
X98334285Y-117754761D01*
X98334285Y-117754761D02*
X98381904Y-117659523D01*
X98381904Y-117659523D02*
X98429523Y-117469047D01*
X98429523Y-117469047D02*
X98429523Y-117326190D01*
X98429523Y-117326190D02*
X98381904Y-117135714D01*
X98381904Y-117135714D02*
X98334285Y-117040476D01*
X98334285Y-117040476D02*
X98239047Y-116945238D01*
X98239047Y-116945238D02*
X98096190Y-116897619D01*
X98096190Y-116897619D02*
X98000952Y-116897619D01*
X98000952Y-116897619D02*
X97858095Y-116945238D01*
X97858095Y-116945238D02*
X97810476Y-116992857D01*
%TO.C,J5*%
X131893333Y-95337619D02*
X131893333Y-96051904D01*
X131893333Y-96051904D02*
X131940952Y-96194761D01*
X131940952Y-96194761D02*
X132036190Y-96290000D01*
X132036190Y-96290000D02*
X132179047Y-96337619D01*
X132179047Y-96337619D02*
X132274285Y-96337619D01*
X130940952Y-95337619D02*
X131417142Y-95337619D01*
X131417142Y-95337619D02*
X131464761Y-95813809D01*
X131464761Y-95813809D02*
X131417142Y-95766190D01*
X131417142Y-95766190D02*
X131321904Y-95718571D01*
X131321904Y-95718571D02*
X131083809Y-95718571D01*
X131083809Y-95718571D02*
X130988571Y-95766190D01*
X130988571Y-95766190D02*
X130940952Y-95813809D01*
X130940952Y-95813809D02*
X130893333Y-95909047D01*
X130893333Y-95909047D02*
X130893333Y-96147142D01*
X130893333Y-96147142D02*
X130940952Y-96242380D01*
X130940952Y-96242380D02*
X130988571Y-96290000D01*
X130988571Y-96290000D02*
X131083809Y-96337619D01*
X131083809Y-96337619D02*
X131321904Y-96337619D01*
X131321904Y-96337619D02*
X131417142Y-96290000D01*
X131417142Y-96290000D02*
X131464761Y-96242380D01*
%TO.C,J11*%
X156072619Y-96070476D02*
X156786904Y-96070476D01*
X156786904Y-96070476D02*
X156929761Y-96022857D01*
X156929761Y-96022857D02*
X157025000Y-95927619D01*
X157025000Y-95927619D02*
X157072619Y-95784762D01*
X157072619Y-95784762D02*
X157072619Y-95689524D01*
X157072619Y-97070476D02*
X157072619Y-96499048D01*
X157072619Y-96784762D02*
X156072619Y-96784762D01*
X156072619Y-96784762D02*
X156215476Y-96689524D01*
X156215476Y-96689524D02*
X156310714Y-96594286D01*
X156310714Y-96594286D02*
X156358333Y-96499048D01*
X157072619Y-98022857D02*
X157072619Y-97451429D01*
X157072619Y-97737143D02*
X156072619Y-97737143D01*
X156072619Y-97737143D02*
X156215476Y-97641905D01*
X156215476Y-97641905D02*
X156310714Y-97546667D01*
X156310714Y-97546667D02*
X156358333Y-97451429D01*
%TO.C,C1*%
X115857380Y-122508333D02*
X115905000Y-122460714D01*
X115905000Y-122460714D02*
X115952619Y-122317857D01*
X115952619Y-122317857D02*
X115952619Y-122222619D01*
X115952619Y-122222619D02*
X115905000Y-122079762D01*
X115905000Y-122079762D02*
X115809761Y-121984524D01*
X115809761Y-121984524D02*
X115714523Y-121936905D01*
X115714523Y-121936905D02*
X115524047Y-121889286D01*
X115524047Y-121889286D02*
X115381190Y-121889286D01*
X115381190Y-121889286D02*
X115190714Y-121936905D01*
X115190714Y-121936905D02*
X115095476Y-121984524D01*
X115095476Y-121984524D02*
X115000238Y-122079762D01*
X115000238Y-122079762D02*
X114952619Y-122222619D01*
X114952619Y-122222619D02*
X114952619Y-122317857D01*
X114952619Y-122317857D02*
X115000238Y-122460714D01*
X115000238Y-122460714D02*
X115047857Y-122508333D01*
X115952619Y-123460714D02*
X115952619Y-122889286D01*
X115952619Y-123175000D02*
X114952619Y-123175000D01*
X114952619Y-123175000D02*
X115095476Y-123079762D01*
X115095476Y-123079762D02*
X115190714Y-122984524D01*
X115190714Y-122984524D02*
X115238333Y-122889286D01*
%TO.C,C8*%
X152276666Y-84812380D02*
X152324285Y-84860000D01*
X152324285Y-84860000D02*
X152467142Y-84907619D01*
X152467142Y-84907619D02*
X152562380Y-84907619D01*
X152562380Y-84907619D02*
X152705237Y-84860000D01*
X152705237Y-84860000D02*
X152800475Y-84764761D01*
X152800475Y-84764761D02*
X152848094Y-84669523D01*
X152848094Y-84669523D02*
X152895713Y-84479047D01*
X152895713Y-84479047D02*
X152895713Y-84336190D01*
X152895713Y-84336190D02*
X152848094Y-84145714D01*
X152848094Y-84145714D02*
X152800475Y-84050476D01*
X152800475Y-84050476D02*
X152705237Y-83955238D01*
X152705237Y-83955238D02*
X152562380Y-83907619D01*
X152562380Y-83907619D02*
X152467142Y-83907619D01*
X152467142Y-83907619D02*
X152324285Y-83955238D01*
X152324285Y-83955238D02*
X152276666Y-84002857D01*
X151705237Y-84336190D02*
X151800475Y-84288571D01*
X151800475Y-84288571D02*
X151848094Y-84240952D01*
X151848094Y-84240952D02*
X151895713Y-84145714D01*
X151895713Y-84145714D02*
X151895713Y-84098095D01*
X151895713Y-84098095D02*
X151848094Y-84002857D01*
X151848094Y-84002857D02*
X151800475Y-83955238D01*
X151800475Y-83955238D02*
X151705237Y-83907619D01*
X151705237Y-83907619D02*
X151514761Y-83907619D01*
X151514761Y-83907619D02*
X151419523Y-83955238D01*
X151419523Y-83955238D02*
X151371904Y-84002857D01*
X151371904Y-84002857D02*
X151324285Y-84098095D01*
X151324285Y-84098095D02*
X151324285Y-84145714D01*
X151324285Y-84145714D02*
X151371904Y-84240952D01*
X151371904Y-84240952D02*
X151419523Y-84288571D01*
X151419523Y-84288571D02*
X151514761Y-84336190D01*
X151514761Y-84336190D02*
X151705237Y-84336190D01*
X151705237Y-84336190D02*
X151800475Y-84383809D01*
X151800475Y-84383809D02*
X151848094Y-84431428D01*
X151848094Y-84431428D02*
X151895713Y-84526666D01*
X151895713Y-84526666D02*
X151895713Y-84717142D01*
X151895713Y-84717142D02*
X151848094Y-84812380D01*
X151848094Y-84812380D02*
X151800475Y-84860000D01*
X151800475Y-84860000D02*
X151705237Y-84907619D01*
X151705237Y-84907619D02*
X151514761Y-84907619D01*
X151514761Y-84907619D02*
X151419523Y-84860000D01*
X151419523Y-84860000D02*
X151371904Y-84812380D01*
X151371904Y-84812380D02*
X151324285Y-84717142D01*
X151324285Y-84717142D02*
X151324285Y-84526666D01*
X151324285Y-84526666D02*
X151371904Y-84431428D01*
X151371904Y-84431428D02*
X151419523Y-84383809D01*
X151419523Y-84383809D02*
X151514761Y-84336190D01*
%TO.C,C4*%
X97226666Y-98062380D02*
X97274285Y-98110000D01*
X97274285Y-98110000D02*
X97417142Y-98157619D01*
X97417142Y-98157619D02*
X97512380Y-98157619D01*
X97512380Y-98157619D02*
X97655237Y-98110000D01*
X97655237Y-98110000D02*
X97750475Y-98014761D01*
X97750475Y-98014761D02*
X97798094Y-97919523D01*
X97798094Y-97919523D02*
X97845713Y-97729047D01*
X97845713Y-97729047D02*
X97845713Y-97586190D01*
X97845713Y-97586190D02*
X97798094Y-97395714D01*
X97798094Y-97395714D02*
X97750475Y-97300476D01*
X97750475Y-97300476D02*
X97655237Y-97205238D01*
X97655237Y-97205238D02*
X97512380Y-97157619D01*
X97512380Y-97157619D02*
X97417142Y-97157619D01*
X97417142Y-97157619D02*
X97274285Y-97205238D01*
X97274285Y-97205238D02*
X97226666Y-97252857D01*
X96369523Y-97490952D02*
X96369523Y-98157619D01*
X96607618Y-97110000D02*
X96845713Y-97824285D01*
X96845713Y-97824285D02*
X96226666Y-97824285D01*
%TO.C,J1*%
X110522619Y-88791666D02*
X111236904Y-88791666D01*
X111236904Y-88791666D02*
X111379761Y-88744047D01*
X111379761Y-88744047D02*
X111475000Y-88648809D01*
X111475000Y-88648809D02*
X111522619Y-88505952D01*
X111522619Y-88505952D02*
X111522619Y-88410714D01*
X111522619Y-89791666D02*
X111522619Y-89220238D01*
X111522619Y-89505952D02*
X110522619Y-89505952D01*
X110522619Y-89505952D02*
X110665476Y-89410714D01*
X110665476Y-89410714D02*
X110760714Y-89315476D01*
X110760714Y-89315476D02*
X110808333Y-89220238D01*
%TO.C,C15*%
X121427380Y-92982142D02*
X121475000Y-92934523D01*
X121475000Y-92934523D02*
X121522619Y-92791666D01*
X121522619Y-92791666D02*
X121522619Y-92696428D01*
X121522619Y-92696428D02*
X121475000Y-92553571D01*
X121475000Y-92553571D02*
X121379761Y-92458333D01*
X121379761Y-92458333D02*
X121284523Y-92410714D01*
X121284523Y-92410714D02*
X121094047Y-92363095D01*
X121094047Y-92363095D02*
X120951190Y-92363095D01*
X120951190Y-92363095D02*
X120760714Y-92410714D01*
X120760714Y-92410714D02*
X120665476Y-92458333D01*
X120665476Y-92458333D02*
X120570238Y-92553571D01*
X120570238Y-92553571D02*
X120522619Y-92696428D01*
X120522619Y-92696428D02*
X120522619Y-92791666D01*
X120522619Y-92791666D02*
X120570238Y-92934523D01*
X120570238Y-92934523D02*
X120617857Y-92982142D01*
X121522619Y-93934523D02*
X121522619Y-93363095D01*
X121522619Y-93648809D02*
X120522619Y-93648809D01*
X120522619Y-93648809D02*
X120665476Y-93553571D01*
X120665476Y-93553571D02*
X120760714Y-93458333D01*
X120760714Y-93458333D02*
X120808333Y-93363095D01*
X120522619Y-94839285D02*
X120522619Y-94363095D01*
X120522619Y-94363095D02*
X120998809Y-94315476D01*
X120998809Y-94315476D02*
X120951190Y-94363095D01*
X120951190Y-94363095D02*
X120903571Y-94458333D01*
X120903571Y-94458333D02*
X120903571Y-94696428D01*
X120903571Y-94696428D02*
X120951190Y-94791666D01*
X120951190Y-94791666D02*
X120998809Y-94839285D01*
X120998809Y-94839285D02*
X121094047Y-94886904D01*
X121094047Y-94886904D02*
X121332142Y-94886904D01*
X121332142Y-94886904D02*
X121427380Y-94839285D01*
X121427380Y-94839285D02*
X121475000Y-94791666D01*
X121475000Y-94791666D02*
X121522619Y-94696428D01*
X121522619Y-94696428D02*
X121522619Y-94458333D01*
X121522619Y-94458333D02*
X121475000Y-94363095D01*
X121475000Y-94363095D02*
X121427380Y-94315476D01*
%TO.C,J8*%
X107319333Y-130363619D02*
X107319333Y-131077904D01*
X107319333Y-131077904D02*
X107366952Y-131220761D01*
X107366952Y-131220761D02*
X107462190Y-131316000D01*
X107462190Y-131316000D02*
X107605047Y-131363619D01*
X107605047Y-131363619D02*
X107700285Y-131363619D01*
X106700285Y-130792190D02*
X106795523Y-130744571D01*
X106795523Y-130744571D02*
X106843142Y-130696952D01*
X106843142Y-130696952D02*
X106890761Y-130601714D01*
X106890761Y-130601714D02*
X106890761Y-130554095D01*
X106890761Y-130554095D02*
X106843142Y-130458857D01*
X106843142Y-130458857D02*
X106795523Y-130411238D01*
X106795523Y-130411238D02*
X106700285Y-130363619D01*
X106700285Y-130363619D02*
X106509809Y-130363619D01*
X106509809Y-130363619D02*
X106414571Y-130411238D01*
X106414571Y-130411238D02*
X106366952Y-130458857D01*
X106366952Y-130458857D02*
X106319333Y-130554095D01*
X106319333Y-130554095D02*
X106319333Y-130601714D01*
X106319333Y-130601714D02*
X106366952Y-130696952D01*
X106366952Y-130696952D02*
X106414571Y-130744571D01*
X106414571Y-130744571D02*
X106509809Y-130792190D01*
X106509809Y-130792190D02*
X106700285Y-130792190D01*
X106700285Y-130792190D02*
X106795523Y-130839809D01*
X106795523Y-130839809D02*
X106843142Y-130887428D01*
X106843142Y-130887428D02*
X106890761Y-130982666D01*
X106890761Y-130982666D02*
X106890761Y-131173142D01*
X106890761Y-131173142D02*
X106843142Y-131268380D01*
X106843142Y-131268380D02*
X106795523Y-131316000D01*
X106795523Y-131316000D02*
X106700285Y-131363619D01*
X106700285Y-131363619D02*
X106509809Y-131363619D01*
X106509809Y-131363619D02*
X106414571Y-131316000D01*
X106414571Y-131316000D02*
X106366952Y-131268380D01*
X106366952Y-131268380D02*
X106319333Y-131173142D01*
X106319333Y-131173142D02*
X106319333Y-130982666D01*
X106319333Y-130982666D02*
X106366952Y-130887428D01*
X106366952Y-130887428D02*
X106414571Y-130839809D01*
X106414571Y-130839809D02*
X106509809Y-130792190D01*
%TO.C,e1*%
X129345714Y-128540000D02*
X129440952Y-128587619D01*
X129440952Y-128587619D02*
X129631428Y-128587619D01*
X129631428Y-128587619D02*
X129726666Y-128540000D01*
X129726666Y-128540000D02*
X129774285Y-128444761D01*
X129774285Y-128444761D02*
X129774285Y-128063809D01*
X129774285Y-128063809D02*
X129726666Y-127968571D01*
X129726666Y-127968571D02*
X129631428Y-127920952D01*
X129631428Y-127920952D02*
X129440952Y-127920952D01*
X129440952Y-127920952D02*
X129345714Y-127968571D01*
X129345714Y-127968571D02*
X129298095Y-128063809D01*
X129298095Y-128063809D02*
X129298095Y-128159047D01*
X129298095Y-128159047D02*
X129774285Y-128254285D01*
X128345714Y-128587619D02*
X128917142Y-128587619D01*
X128631428Y-128587619D02*
X128631428Y-127587619D01*
X128631428Y-127587619D02*
X128726666Y-127730476D01*
X128726666Y-127730476D02*
X128821904Y-127825714D01*
X128821904Y-127825714D02*
X128917142Y-127873333D01*
%TO.C,C7*%
X94726666Y-187062380D02*
X94774285Y-187110000D01*
X94774285Y-187110000D02*
X94917142Y-187157619D01*
X94917142Y-187157619D02*
X95012380Y-187157619D01*
X95012380Y-187157619D02*
X95155237Y-187110000D01*
X95155237Y-187110000D02*
X95250475Y-187014761D01*
X95250475Y-187014761D02*
X95298094Y-186919523D01*
X95298094Y-186919523D02*
X95345713Y-186729047D01*
X95345713Y-186729047D02*
X95345713Y-186586190D01*
X95345713Y-186586190D02*
X95298094Y-186395714D01*
X95298094Y-186395714D02*
X95250475Y-186300476D01*
X95250475Y-186300476D02*
X95155237Y-186205238D01*
X95155237Y-186205238D02*
X95012380Y-186157619D01*
X95012380Y-186157619D02*
X94917142Y-186157619D01*
X94917142Y-186157619D02*
X94774285Y-186205238D01*
X94774285Y-186205238D02*
X94726666Y-186252857D01*
X94393332Y-186157619D02*
X93726666Y-186157619D01*
X93726666Y-186157619D02*
X94155237Y-187157619D01*
%TO.C,C11*%
X152952857Y-246312380D02*
X153000476Y-246360000D01*
X153000476Y-246360000D02*
X153143333Y-246407619D01*
X153143333Y-246407619D02*
X153238571Y-246407619D01*
X153238571Y-246407619D02*
X153381428Y-246360000D01*
X153381428Y-246360000D02*
X153476666Y-246264761D01*
X153476666Y-246264761D02*
X153524285Y-246169523D01*
X153524285Y-246169523D02*
X153571904Y-245979047D01*
X153571904Y-245979047D02*
X153571904Y-245836190D01*
X153571904Y-245836190D02*
X153524285Y-245645714D01*
X153524285Y-245645714D02*
X153476666Y-245550476D01*
X153476666Y-245550476D02*
X153381428Y-245455238D01*
X153381428Y-245455238D02*
X153238571Y-245407619D01*
X153238571Y-245407619D02*
X153143333Y-245407619D01*
X153143333Y-245407619D02*
X153000476Y-245455238D01*
X153000476Y-245455238D02*
X152952857Y-245502857D01*
X152000476Y-246407619D02*
X152571904Y-246407619D01*
X152286190Y-246407619D02*
X152286190Y-245407619D01*
X152286190Y-245407619D02*
X152381428Y-245550476D01*
X152381428Y-245550476D02*
X152476666Y-245645714D01*
X152476666Y-245645714D02*
X152571904Y-245693333D01*
X151048095Y-246407619D02*
X151619523Y-246407619D01*
X151333809Y-246407619D02*
X151333809Y-245407619D01*
X151333809Y-245407619D02*
X151429047Y-245550476D01*
X151429047Y-245550476D02*
X151524285Y-245645714D01*
X151524285Y-245645714D02*
X151619523Y-245693333D01*
%TO.C,J4*%
X126643333Y-95337619D02*
X126643333Y-96051904D01*
X126643333Y-96051904D02*
X126690952Y-96194761D01*
X126690952Y-96194761D02*
X126786190Y-96290000D01*
X126786190Y-96290000D02*
X126929047Y-96337619D01*
X126929047Y-96337619D02*
X127024285Y-96337619D01*
X125738571Y-95670952D02*
X125738571Y-96337619D01*
X125976666Y-95290000D02*
X126214761Y-96004285D01*
X126214761Y-96004285D02*
X125595714Y-96004285D01*
%TO.C,U3*%
X121150619Y-98747595D02*
X121960142Y-98747595D01*
X121960142Y-98747595D02*
X122055380Y-98795214D01*
X122055380Y-98795214D02*
X122103000Y-98842833D01*
X122103000Y-98842833D02*
X122150619Y-98938071D01*
X122150619Y-98938071D02*
X122150619Y-99128547D01*
X122150619Y-99128547D02*
X122103000Y-99223785D01*
X122103000Y-99223785D02*
X122055380Y-99271404D01*
X122055380Y-99271404D02*
X121960142Y-99319023D01*
X121960142Y-99319023D02*
X121150619Y-99319023D01*
X121150619Y-99699976D02*
X121150619Y-100319023D01*
X121150619Y-100319023D02*
X121531571Y-99985690D01*
X121531571Y-99985690D02*
X121531571Y-100128547D01*
X121531571Y-100128547D02*
X121579190Y-100223785D01*
X121579190Y-100223785D02*
X121626809Y-100271404D01*
X121626809Y-100271404D02*
X121722047Y-100319023D01*
X121722047Y-100319023D02*
X121960142Y-100319023D01*
X121960142Y-100319023D02*
X122055380Y-100271404D01*
X122055380Y-100271404D02*
X122103000Y-100223785D01*
X122103000Y-100223785D02*
X122150619Y-100128547D01*
X122150619Y-100128547D02*
X122150619Y-99842833D01*
X122150619Y-99842833D02*
X122103000Y-99747595D01*
X122103000Y-99747595D02*
X122055380Y-99699976D01*
%TO.C,J7*%
X140818308Y-99237700D02*
X140818308Y-99951997D01*
X140818308Y-99951997D02*
X140865927Y-100094857D01*
X140865927Y-100094857D02*
X140961167Y-100190097D01*
X140961167Y-100190097D02*
X141104026Y-100237716D01*
X141104026Y-100237716D02*
X141199266Y-100237716D01*
X140437349Y-99237700D02*
X139770672Y-99237700D01*
X139770672Y-99237700D02*
X140199250Y-100237716D01*
%TO.C,FB1*%
X121789333Y-121717809D02*
X122122666Y-121717809D01*
X122122666Y-122241619D02*
X122122666Y-121241619D01*
X122122666Y-121241619D02*
X121646476Y-121241619D01*
X120932190Y-121717809D02*
X120789333Y-121765428D01*
X120789333Y-121765428D02*
X120741714Y-121813047D01*
X120741714Y-121813047D02*
X120694095Y-121908285D01*
X120694095Y-121908285D02*
X120694095Y-122051142D01*
X120694095Y-122051142D02*
X120741714Y-122146380D01*
X120741714Y-122146380D02*
X120789333Y-122194000D01*
X120789333Y-122194000D02*
X120884571Y-122241619D01*
X120884571Y-122241619D02*
X121265523Y-122241619D01*
X121265523Y-122241619D02*
X121265523Y-121241619D01*
X121265523Y-121241619D02*
X120932190Y-121241619D01*
X120932190Y-121241619D02*
X120836952Y-121289238D01*
X120836952Y-121289238D02*
X120789333Y-121336857D01*
X120789333Y-121336857D02*
X120741714Y-121432095D01*
X120741714Y-121432095D02*
X120741714Y-121527333D01*
X120741714Y-121527333D02*
X120789333Y-121622571D01*
X120789333Y-121622571D02*
X120836952Y-121670190D01*
X120836952Y-121670190D02*
X120932190Y-121717809D01*
X120932190Y-121717809D02*
X121265523Y-121717809D01*
X119741714Y-122241619D02*
X120313142Y-122241619D01*
X120027428Y-122241619D02*
X120027428Y-121241619D01*
X120027428Y-121241619D02*
X120122666Y-121384476D01*
X120122666Y-121384476D02*
X120217904Y-121479714D01*
X120217904Y-121479714D02*
X120313142Y-121527333D01*
%TO.C,C14*%
X119427380Y-92982142D02*
X119475000Y-92934523D01*
X119475000Y-92934523D02*
X119522619Y-92791666D01*
X119522619Y-92791666D02*
X119522619Y-92696428D01*
X119522619Y-92696428D02*
X119475000Y-92553571D01*
X119475000Y-92553571D02*
X119379761Y-92458333D01*
X119379761Y-92458333D02*
X119284523Y-92410714D01*
X119284523Y-92410714D02*
X119094047Y-92363095D01*
X119094047Y-92363095D02*
X118951190Y-92363095D01*
X118951190Y-92363095D02*
X118760714Y-92410714D01*
X118760714Y-92410714D02*
X118665476Y-92458333D01*
X118665476Y-92458333D02*
X118570238Y-92553571D01*
X118570238Y-92553571D02*
X118522619Y-92696428D01*
X118522619Y-92696428D02*
X118522619Y-92791666D01*
X118522619Y-92791666D02*
X118570238Y-92934523D01*
X118570238Y-92934523D02*
X118617857Y-92982142D01*
X119522619Y-93934523D02*
X119522619Y-93363095D01*
X119522619Y-93648809D02*
X118522619Y-93648809D01*
X118522619Y-93648809D02*
X118665476Y-93553571D01*
X118665476Y-93553571D02*
X118760714Y-93458333D01*
X118760714Y-93458333D02*
X118808333Y-93363095D01*
X118855952Y-94791666D02*
X119522619Y-94791666D01*
X118475000Y-94553571D02*
X119189285Y-94315476D01*
X119189285Y-94315476D02*
X119189285Y-94934523D01*
%TO.C,J6*%
X114221333Y-106514619D02*
X114221333Y-107228904D01*
X114221333Y-107228904D02*
X114268952Y-107371761D01*
X114268952Y-107371761D02*
X114364190Y-107467000D01*
X114364190Y-107467000D02*
X114507047Y-107514619D01*
X114507047Y-107514619D02*
X114602285Y-107514619D01*
X113316571Y-106514619D02*
X113507047Y-106514619D01*
X113507047Y-106514619D02*
X113602285Y-106562238D01*
X113602285Y-106562238D02*
X113649904Y-106609857D01*
X113649904Y-106609857D02*
X113745142Y-106752714D01*
X113745142Y-106752714D02*
X113792761Y-106943190D01*
X113792761Y-106943190D02*
X113792761Y-107324142D01*
X113792761Y-107324142D02*
X113745142Y-107419380D01*
X113745142Y-107419380D02*
X113697523Y-107467000D01*
X113697523Y-107467000D02*
X113602285Y-107514619D01*
X113602285Y-107514619D02*
X113411809Y-107514619D01*
X113411809Y-107514619D02*
X113316571Y-107467000D01*
X113316571Y-107467000D02*
X113268952Y-107419380D01*
X113268952Y-107419380D02*
X113221333Y-107324142D01*
X113221333Y-107324142D02*
X113221333Y-107086047D01*
X113221333Y-107086047D02*
X113268952Y-106990809D01*
X113268952Y-106990809D02*
X113316571Y-106943190D01*
X113316571Y-106943190D02*
X113411809Y-106895571D01*
X113411809Y-106895571D02*
X113602285Y-106895571D01*
X113602285Y-106895571D02*
X113697523Y-106943190D01*
X113697523Y-106943190D02*
X113745142Y-106990809D01*
X113745142Y-106990809D02*
X113792761Y-107086047D01*
%TO.C,R1*%
X155976666Y-136837619D02*
X156309999Y-136361428D01*
X156548094Y-136837619D02*
X156548094Y-135837619D01*
X156548094Y-135837619D02*
X156167142Y-135837619D01*
X156167142Y-135837619D02*
X156071904Y-135885238D01*
X156071904Y-135885238D02*
X156024285Y-135932857D01*
X156024285Y-135932857D02*
X155976666Y-136028095D01*
X155976666Y-136028095D02*
X155976666Y-136170952D01*
X155976666Y-136170952D02*
X156024285Y-136266190D01*
X156024285Y-136266190D02*
X156071904Y-136313809D01*
X156071904Y-136313809D02*
X156167142Y-136361428D01*
X156167142Y-136361428D02*
X156548094Y-136361428D01*
X155024285Y-136837619D02*
X155595713Y-136837619D01*
X155309999Y-136837619D02*
X155309999Y-135837619D01*
X155309999Y-135837619D02*
X155405237Y-135980476D01*
X155405237Y-135980476D02*
X155500475Y-136075714D01*
X155500475Y-136075714D02*
X155595713Y-136123333D01*
%TO.C,D13*%
X113774285Y-94880619D02*
X113774285Y-93880619D01*
X113774285Y-93880619D02*
X113536190Y-93880619D01*
X113536190Y-93880619D02*
X113393333Y-93928238D01*
X113393333Y-93928238D02*
X113298095Y-94023476D01*
X113298095Y-94023476D02*
X113250476Y-94118714D01*
X113250476Y-94118714D02*
X113202857Y-94309190D01*
X113202857Y-94309190D02*
X113202857Y-94452047D01*
X113202857Y-94452047D02*
X113250476Y-94642523D01*
X113250476Y-94642523D02*
X113298095Y-94737761D01*
X113298095Y-94737761D02*
X113393333Y-94833000D01*
X113393333Y-94833000D02*
X113536190Y-94880619D01*
X113536190Y-94880619D02*
X113774285Y-94880619D01*
X112250476Y-94880619D02*
X112821904Y-94880619D01*
X112536190Y-94880619D02*
X112536190Y-93880619D01*
X112536190Y-93880619D02*
X112631428Y-94023476D01*
X112631428Y-94023476D02*
X112726666Y-94118714D01*
X112726666Y-94118714D02*
X112821904Y-94166333D01*
X111917142Y-93880619D02*
X111298095Y-93880619D01*
X111298095Y-93880619D02*
X111631428Y-94261571D01*
X111631428Y-94261571D02*
X111488571Y-94261571D01*
X111488571Y-94261571D02*
X111393333Y-94309190D01*
X111393333Y-94309190D02*
X111345714Y-94356809D01*
X111345714Y-94356809D02*
X111298095Y-94452047D01*
X111298095Y-94452047D02*
X111298095Y-94690142D01*
X111298095Y-94690142D02*
X111345714Y-94785380D01*
X111345714Y-94785380D02*
X111393333Y-94833000D01*
X111393333Y-94833000D02*
X111488571Y-94880619D01*
X111488571Y-94880619D02*
X111774285Y-94880619D01*
X111774285Y-94880619D02*
X111869523Y-94833000D01*
X111869523Y-94833000D02*
X111917142Y-94785380D01*
%TO.C,U2*%
X134772619Y-112113095D02*
X135582142Y-112113095D01*
X135582142Y-112113095D02*
X135677380Y-112160714D01*
X135677380Y-112160714D02*
X135725000Y-112208333D01*
X135725000Y-112208333D02*
X135772619Y-112303571D01*
X135772619Y-112303571D02*
X135772619Y-112494047D01*
X135772619Y-112494047D02*
X135725000Y-112589285D01*
X135725000Y-112589285D02*
X135677380Y-112636904D01*
X135677380Y-112636904D02*
X135582142Y-112684523D01*
X135582142Y-112684523D02*
X134772619Y-112684523D01*
X134867857Y-113113095D02*
X134820238Y-113160714D01*
X134820238Y-113160714D02*
X134772619Y-113255952D01*
X134772619Y-113255952D02*
X134772619Y-113494047D01*
X134772619Y-113494047D02*
X134820238Y-113589285D01*
X134820238Y-113589285D02*
X134867857Y-113636904D01*
X134867857Y-113636904D02*
X134963095Y-113684523D01*
X134963095Y-113684523D02*
X135058333Y-113684523D01*
X135058333Y-113684523D02*
X135201190Y-113636904D01*
X135201190Y-113636904D02*
X135772619Y-113065476D01*
X135772619Y-113065476D02*
X135772619Y-113684523D01*
%TO.C,J9*%
X154822619Y-115296666D02*
X155536904Y-115296666D01*
X155536904Y-115296666D02*
X155679761Y-115249047D01*
X155679761Y-115249047D02*
X155775000Y-115153809D01*
X155775000Y-115153809D02*
X155822619Y-115010952D01*
X155822619Y-115010952D02*
X155822619Y-114915714D01*
X155822619Y-115820476D02*
X155822619Y-116010952D01*
X155822619Y-116010952D02*
X155775000Y-116106190D01*
X155775000Y-116106190D02*
X155727380Y-116153809D01*
X155727380Y-116153809D02*
X155584523Y-116249047D01*
X155584523Y-116249047D02*
X155394047Y-116296666D01*
X155394047Y-116296666D02*
X155013095Y-116296666D01*
X155013095Y-116296666D02*
X154917857Y-116249047D01*
X154917857Y-116249047D02*
X154870238Y-116201428D01*
X154870238Y-116201428D02*
X154822619Y-116106190D01*
X154822619Y-116106190D02*
X154822619Y-115915714D01*
X154822619Y-115915714D02*
X154870238Y-115820476D01*
X154870238Y-115820476D02*
X154917857Y-115772857D01*
X154917857Y-115772857D02*
X155013095Y-115725238D01*
X155013095Y-115725238D02*
X155251190Y-115725238D01*
X155251190Y-115725238D02*
X155346428Y-115772857D01*
X155346428Y-115772857D02*
X155394047Y-115820476D01*
X155394047Y-115820476D02*
X155441666Y-115915714D01*
X155441666Y-115915714D02*
X155441666Y-116106190D01*
X155441666Y-116106190D02*
X155394047Y-116201428D01*
X155394047Y-116201428D02*
X155346428Y-116249047D01*
X155346428Y-116249047D02*
X155251190Y-116296666D01*
%TO.C,C10*%
X104002857Y-246312380D02*
X104050476Y-246360000D01*
X104050476Y-246360000D02*
X104193333Y-246407619D01*
X104193333Y-246407619D02*
X104288571Y-246407619D01*
X104288571Y-246407619D02*
X104431428Y-246360000D01*
X104431428Y-246360000D02*
X104526666Y-246264761D01*
X104526666Y-246264761D02*
X104574285Y-246169523D01*
X104574285Y-246169523D02*
X104621904Y-245979047D01*
X104621904Y-245979047D02*
X104621904Y-245836190D01*
X104621904Y-245836190D02*
X104574285Y-245645714D01*
X104574285Y-245645714D02*
X104526666Y-245550476D01*
X104526666Y-245550476D02*
X104431428Y-245455238D01*
X104431428Y-245455238D02*
X104288571Y-245407619D01*
X104288571Y-245407619D02*
X104193333Y-245407619D01*
X104193333Y-245407619D02*
X104050476Y-245455238D01*
X104050476Y-245455238D02*
X104002857Y-245502857D01*
X103050476Y-246407619D02*
X103621904Y-246407619D01*
X103336190Y-246407619D02*
X103336190Y-245407619D01*
X103336190Y-245407619D02*
X103431428Y-245550476D01*
X103431428Y-245550476D02*
X103526666Y-245645714D01*
X103526666Y-245645714D02*
X103621904Y-245693333D01*
X102431428Y-245407619D02*
X102336190Y-245407619D01*
X102336190Y-245407619D02*
X102240952Y-245455238D01*
X102240952Y-245455238D02*
X102193333Y-245502857D01*
X102193333Y-245502857D02*
X102145714Y-245598095D01*
X102145714Y-245598095D02*
X102098095Y-245788571D01*
X102098095Y-245788571D02*
X102098095Y-246026666D01*
X102098095Y-246026666D02*
X102145714Y-246217142D01*
X102145714Y-246217142D02*
X102193333Y-246312380D01*
X102193333Y-246312380D02*
X102240952Y-246360000D01*
X102240952Y-246360000D02*
X102336190Y-246407619D01*
X102336190Y-246407619D02*
X102431428Y-246407619D01*
X102431428Y-246407619D02*
X102526666Y-246360000D01*
X102526666Y-246360000D02*
X102574285Y-246312380D01*
X102574285Y-246312380D02*
X102621904Y-246217142D01*
X102621904Y-246217142D02*
X102669523Y-246026666D01*
X102669523Y-246026666D02*
X102669523Y-245788571D01*
X102669523Y-245788571D02*
X102621904Y-245598095D01*
X102621904Y-245598095D02*
X102574285Y-245502857D01*
X102574285Y-245502857D02*
X102526666Y-245455238D01*
X102526666Y-245455238D02*
X102431428Y-245407619D01*
%TO.C,R2*%
X156226666Y-148837619D02*
X156559999Y-148361428D01*
X156798094Y-148837619D02*
X156798094Y-147837619D01*
X156798094Y-147837619D02*
X156417142Y-147837619D01*
X156417142Y-147837619D02*
X156321904Y-147885238D01*
X156321904Y-147885238D02*
X156274285Y-147932857D01*
X156274285Y-147932857D02*
X156226666Y-148028095D01*
X156226666Y-148028095D02*
X156226666Y-148170952D01*
X156226666Y-148170952D02*
X156274285Y-148266190D01*
X156274285Y-148266190D02*
X156321904Y-148313809D01*
X156321904Y-148313809D02*
X156417142Y-148361428D01*
X156417142Y-148361428D02*
X156798094Y-148361428D01*
X155845713Y-147932857D02*
X155798094Y-147885238D01*
X155798094Y-147885238D02*
X155702856Y-147837619D01*
X155702856Y-147837619D02*
X155464761Y-147837619D01*
X155464761Y-147837619D02*
X155369523Y-147885238D01*
X155369523Y-147885238D02*
X155321904Y-147932857D01*
X155321904Y-147932857D02*
X155274285Y-148028095D01*
X155274285Y-148028095D02*
X155274285Y-148123333D01*
X155274285Y-148123333D02*
X155321904Y-148266190D01*
X155321904Y-148266190D02*
X155893332Y-148837619D01*
X155893332Y-148837619D02*
X155274285Y-148837619D01*
%TO.C,C6*%
X161226666Y-187312380D02*
X161274285Y-187360000D01*
X161274285Y-187360000D02*
X161417142Y-187407619D01*
X161417142Y-187407619D02*
X161512380Y-187407619D01*
X161512380Y-187407619D02*
X161655237Y-187360000D01*
X161655237Y-187360000D02*
X161750475Y-187264761D01*
X161750475Y-187264761D02*
X161798094Y-187169523D01*
X161798094Y-187169523D02*
X161845713Y-186979047D01*
X161845713Y-186979047D02*
X161845713Y-186836190D01*
X161845713Y-186836190D02*
X161798094Y-186645714D01*
X161798094Y-186645714D02*
X161750475Y-186550476D01*
X161750475Y-186550476D02*
X161655237Y-186455238D01*
X161655237Y-186455238D02*
X161512380Y-186407619D01*
X161512380Y-186407619D02*
X161417142Y-186407619D01*
X161417142Y-186407619D02*
X161274285Y-186455238D01*
X161274285Y-186455238D02*
X161226666Y-186502857D01*
X160369523Y-186407619D02*
X160559999Y-186407619D01*
X160559999Y-186407619D02*
X160655237Y-186455238D01*
X160655237Y-186455238D02*
X160702856Y-186502857D01*
X160702856Y-186502857D02*
X160798094Y-186645714D01*
X160798094Y-186645714D02*
X160845713Y-186836190D01*
X160845713Y-186836190D02*
X160845713Y-187217142D01*
X160845713Y-187217142D02*
X160798094Y-187312380D01*
X160798094Y-187312380D02*
X160750475Y-187360000D01*
X160750475Y-187360000D02*
X160655237Y-187407619D01*
X160655237Y-187407619D02*
X160464761Y-187407619D01*
X160464761Y-187407619D02*
X160369523Y-187360000D01*
X160369523Y-187360000D02*
X160321904Y-187312380D01*
X160321904Y-187312380D02*
X160274285Y-187217142D01*
X160274285Y-187217142D02*
X160274285Y-186979047D01*
X160274285Y-186979047D02*
X160321904Y-186883809D01*
X160321904Y-186883809D02*
X160369523Y-186836190D01*
X160369523Y-186836190D02*
X160464761Y-186788571D01*
X160464761Y-186788571D02*
X160655237Y-186788571D01*
X160655237Y-186788571D02*
X160750475Y-186836190D01*
X160750475Y-186836190D02*
X160798094Y-186883809D01*
X160798094Y-186883809D02*
X160845713Y-186979047D01*
%TO.C,C13*%
X118177380Y-106982142D02*
X118225000Y-106934523D01*
X118225000Y-106934523D02*
X118272619Y-106791666D01*
X118272619Y-106791666D02*
X118272619Y-106696428D01*
X118272619Y-106696428D02*
X118225000Y-106553571D01*
X118225000Y-106553571D02*
X118129761Y-106458333D01*
X118129761Y-106458333D02*
X118034523Y-106410714D01*
X118034523Y-106410714D02*
X117844047Y-106363095D01*
X117844047Y-106363095D02*
X117701190Y-106363095D01*
X117701190Y-106363095D02*
X117510714Y-106410714D01*
X117510714Y-106410714D02*
X117415476Y-106458333D01*
X117415476Y-106458333D02*
X117320238Y-106553571D01*
X117320238Y-106553571D02*
X117272619Y-106696428D01*
X117272619Y-106696428D02*
X117272619Y-106791666D01*
X117272619Y-106791666D02*
X117320238Y-106934523D01*
X117320238Y-106934523D02*
X117367857Y-106982142D01*
X118272619Y-107934523D02*
X118272619Y-107363095D01*
X118272619Y-107648809D02*
X117272619Y-107648809D01*
X117272619Y-107648809D02*
X117415476Y-107553571D01*
X117415476Y-107553571D02*
X117510714Y-107458333D01*
X117510714Y-107458333D02*
X117558333Y-107363095D01*
X117272619Y-108267857D02*
X117272619Y-108886904D01*
X117272619Y-108886904D02*
X117653571Y-108553571D01*
X117653571Y-108553571D02*
X117653571Y-108696428D01*
X117653571Y-108696428D02*
X117701190Y-108791666D01*
X117701190Y-108791666D02*
X117748809Y-108839285D01*
X117748809Y-108839285D02*
X117844047Y-108886904D01*
X117844047Y-108886904D02*
X118082142Y-108886904D01*
X118082142Y-108886904D02*
X118177380Y-108839285D01*
X118177380Y-108839285D02*
X118225000Y-108791666D01*
X118225000Y-108791666D02*
X118272619Y-108696428D01*
X118272619Y-108696428D02*
X118272619Y-108410714D01*
X118272619Y-108410714D02*
X118225000Y-108315476D01*
X118225000Y-108315476D02*
X118177380Y-108267857D01*
%TO.C,C2*%
X136563380Y-121586333D02*
X136611000Y-121538714D01*
X136611000Y-121538714D02*
X136658619Y-121395857D01*
X136658619Y-121395857D02*
X136658619Y-121300619D01*
X136658619Y-121300619D02*
X136611000Y-121157762D01*
X136611000Y-121157762D02*
X136515761Y-121062524D01*
X136515761Y-121062524D02*
X136420523Y-121014905D01*
X136420523Y-121014905D02*
X136230047Y-120967286D01*
X136230047Y-120967286D02*
X136087190Y-120967286D01*
X136087190Y-120967286D02*
X135896714Y-121014905D01*
X135896714Y-121014905D02*
X135801476Y-121062524D01*
X135801476Y-121062524D02*
X135706238Y-121157762D01*
X135706238Y-121157762D02*
X135658619Y-121300619D01*
X135658619Y-121300619D02*
X135658619Y-121395857D01*
X135658619Y-121395857D02*
X135706238Y-121538714D01*
X135706238Y-121538714D02*
X135753857Y-121586333D01*
X135753857Y-121967286D02*
X135706238Y-122014905D01*
X135706238Y-122014905D02*
X135658619Y-122110143D01*
X135658619Y-122110143D02*
X135658619Y-122348238D01*
X135658619Y-122348238D02*
X135706238Y-122443476D01*
X135706238Y-122443476D02*
X135753857Y-122491095D01*
X135753857Y-122491095D02*
X135849095Y-122538714D01*
X135849095Y-122538714D02*
X135944333Y-122538714D01*
X135944333Y-122538714D02*
X136087190Y-122491095D01*
X136087190Y-122491095D02*
X136658619Y-121919667D01*
X136658619Y-121919667D02*
X136658619Y-122538714D01*
%TO.C,C5*%
X155976666Y-131312380D02*
X156024285Y-131360000D01*
X156024285Y-131360000D02*
X156167142Y-131407619D01*
X156167142Y-131407619D02*
X156262380Y-131407619D01*
X156262380Y-131407619D02*
X156405237Y-131360000D01*
X156405237Y-131360000D02*
X156500475Y-131264761D01*
X156500475Y-131264761D02*
X156548094Y-131169523D01*
X156548094Y-131169523D02*
X156595713Y-130979047D01*
X156595713Y-130979047D02*
X156595713Y-130836190D01*
X156595713Y-130836190D02*
X156548094Y-130645714D01*
X156548094Y-130645714D02*
X156500475Y-130550476D01*
X156500475Y-130550476D02*
X156405237Y-130455238D01*
X156405237Y-130455238D02*
X156262380Y-130407619D01*
X156262380Y-130407619D02*
X156167142Y-130407619D01*
X156167142Y-130407619D02*
X156024285Y-130455238D01*
X156024285Y-130455238D02*
X155976666Y-130502857D01*
X155071904Y-130407619D02*
X155548094Y-130407619D01*
X155548094Y-130407619D02*
X155595713Y-130883809D01*
X155595713Y-130883809D02*
X155548094Y-130836190D01*
X155548094Y-130836190D02*
X155452856Y-130788571D01*
X155452856Y-130788571D02*
X155214761Y-130788571D01*
X155214761Y-130788571D02*
X155119523Y-130836190D01*
X155119523Y-130836190D02*
X155071904Y-130883809D01*
X155071904Y-130883809D02*
X155024285Y-130979047D01*
X155024285Y-130979047D02*
X155024285Y-131217142D01*
X155024285Y-131217142D02*
X155071904Y-131312380D01*
X155071904Y-131312380D02*
X155119523Y-131360000D01*
X155119523Y-131360000D02*
X155214761Y-131407619D01*
X155214761Y-131407619D02*
X155452856Y-131407619D01*
X155452856Y-131407619D02*
X155548094Y-131360000D01*
X155548094Y-131360000D02*
X155595713Y-131312380D01*
%TO.C,J3*%
X124381333Y-106529619D02*
X124381333Y-107243904D01*
X124381333Y-107243904D02*
X124428952Y-107386761D01*
X124428952Y-107386761D02*
X124524190Y-107482000D01*
X124524190Y-107482000D02*
X124667047Y-107529619D01*
X124667047Y-107529619D02*
X124762285Y-107529619D01*
X124000380Y-106529619D02*
X123381333Y-106529619D01*
X123381333Y-106529619D02*
X123714666Y-106910571D01*
X123714666Y-106910571D02*
X123571809Y-106910571D01*
X123571809Y-106910571D02*
X123476571Y-106958190D01*
X123476571Y-106958190D02*
X123428952Y-107005809D01*
X123428952Y-107005809D02*
X123381333Y-107101047D01*
X123381333Y-107101047D02*
X123381333Y-107339142D01*
X123381333Y-107339142D02*
X123428952Y-107434380D01*
X123428952Y-107434380D02*
X123476571Y-107482000D01*
X123476571Y-107482000D02*
X123571809Y-107529619D01*
X123571809Y-107529619D02*
X123857523Y-107529619D01*
X123857523Y-107529619D02*
X123952761Y-107482000D01*
X123952761Y-107482000D02*
X124000380Y-107434380D01*
%TO.C,C3*%
X119643380Y-124126333D02*
X119691000Y-124078714D01*
X119691000Y-124078714D02*
X119738619Y-123935857D01*
X119738619Y-123935857D02*
X119738619Y-123840619D01*
X119738619Y-123840619D02*
X119691000Y-123697762D01*
X119691000Y-123697762D02*
X119595761Y-123602524D01*
X119595761Y-123602524D02*
X119500523Y-123554905D01*
X119500523Y-123554905D02*
X119310047Y-123507286D01*
X119310047Y-123507286D02*
X119167190Y-123507286D01*
X119167190Y-123507286D02*
X118976714Y-123554905D01*
X118976714Y-123554905D02*
X118881476Y-123602524D01*
X118881476Y-123602524D02*
X118786238Y-123697762D01*
X118786238Y-123697762D02*
X118738619Y-123840619D01*
X118738619Y-123840619D02*
X118738619Y-123935857D01*
X118738619Y-123935857D02*
X118786238Y-124078714D01*
X118786238Y-124078714D02*
X118833857Y-124126333D01*
X118738619Y-124459667D02*
X118738619Y-125078714D01*
X118738619Y-125078714D02*
X119119571Y-124745381D01*
X119119571Y-124745381D02*
X119119571Y-124888238D01*
X119119571Y-124888238D02*
X119167190Y-124983476D01*
X119167190Y-124983476D02*
X119214809Y-125031095D01*
X119214809Y-125031095D02*
X119310047Y-125078714D01*
X119310047Y-125078714D02*
X119548142Y-125078714D01*
X119548142Y-125078714D02*
X119643380Y-125031095D01*
X119643380Y-125031095D02*
X119691000Y-124983476D01*
X119691000Y-124983476D02*
X119738619Y-124888238D01*
X119738619Y-124888238D02*
X119738619Y-124602524D01*
X119738619Y-124602524D02*
X119691000Y-124507286D01*
X119691000Y-124507286D02*
X119643380Y-124459667D01*
%TO.C,R3*%
X148122619Y-135795833D02*
X147646428Y-135462500D01*
X148122619Y-135224405D02*
X147122619Y-135224405D01*
X147122619Y-135224405D02*
X147122619Y-135605357D01*
X147122619Y-135605357D02*
X147170238Y-135700595D01*
X147170238Y-135700595D02*
X147217857Y-135748214D01*
X147217857Y-135748214D02*
X147313095Y-135795833D01*
X147313095Y-135795833D02*
X147455952Y-135795833D01*
X147455952Y-135795833D02*
X147551190Y-135748214D01*
X147551190Y-135748214D02*
X147598809Y-135700595D01*
X147598809Y-135700595D02*
X147646428Y-135605357D01*
X147646428Y-135605357D02*
X147646428Y-135224405D01*
X147122619Y-136129167D02*
X147122619Y-136748214D01*
X147122619Y-136748214D02*
X147503571Y-136414881D01*
X147503571Y-136414881D02*
X147503571Y-136557738D01*
X147503571Y-136557738D02*
X147551190Y-136652976D01*
X147551190Y-136652976D02*
X147598809Y-136700595D01*
X147598809Y-136700595D02*
X147694047Y-136748214D01*
X147694047Y-136748214D02*
X147932142Y-136748214D01*
X147932142Y-136748214D02*
X148027380Y-136700595D01*
X148027380Y-136700595D02*
X148075000Y-136652976D01*
X148075000Y-136652976D02*
X148122619Y-136557738D01*
X148122619Y-136557738D02*
X148122619Y-136272024D01*
X148122619Y-136272024D02*
X148075000Y-136176786D01*
X148075000Y-136176786D02*
X148027380Y-136129167D01*
%TO.C,C9*%
X147726666Y-112312380D02*
X147774285Y-112360000D01*
X147774285Y-112360000D02*
X147917142Y-112407619D01*
X147917142Y-112407619D02*
X148012380Y-112407619D01*
X148012380Y-112407619D02*
X148155237Y-112360000D01*
X148155237Y-112360000D02*
X148250475Y-112264761D01*
X148250475Y-112264761D02*
X148298094Y-112169523D01*
X148298094Y-112169523D02*
X148345713Y-111979047D01*
X148345713Y-111979047D02*
X148345713Y-111836190D01*
X148345713Y-111836190D02*
X148298094Y-111645714D01*
X148298094Y-111645714D02*
X148250475Y-111550476D01*
X148250475Y-111550476D02*
X148155237Y-111455238D01*
X148155237Y-111455238D02*
X148012380Y-111407619D01*
X148012380Y-111407619D02*
X147917142Y-111407619D01*
X147917142Y-111407619D02*
X147774285Y-111455238D01*
X147774285Y-111455238D02*
X147726666Y-111502857D01*
X147250475Y-112407619D02*
X147059999Y-112407619D01*
X147059999Y-112407619D02*
X146964761Y-112360000D01*
X146964761Y-112360000D02*
X146917142Y-112312380D01*
X146917142Y-112312380D02*
X146821904Y-112169523D01*
X146821904Y-112169523D02*
X146774285Y-111979047D01*
X146774285Y-111979047D02*
X146774285Y-111598095D01*
X146774285Y-111598095D02*
X146821904Y-111502857D01*
X146821904Y-111502857D02*
X146869523Y-111455238D01*
X146869523Y-111455238D02*
X146964761Y-111407619D01*
X146964761Y-111407619D02*
X147155237Y-111407619D01*
X147155237Y-111407619D02*
X147250475Y-111455238D01*
X147250475Y-111455238D02*
X147298094Y-111502857D01*
X147298094Y-111502857D02*
X147345713Y-111598095D01*
X147345713Y-111598095D02*
X147345713Y-111836190D01*
X147345713Y-111836190D02*
X147298094Y-111931428D01*
X147298094Y-111931428D02*
X147250475Y-111979047D01*
X147250475Y-111979047D02*
X147155237Y-112026666D01*
X147155237Y-112026666D02*
X146964761Y-112026666D01*
X146964761Y-112026666D02*
X146869523Y-111979047D01*
X146869523Y-111979047D02*
X146821904Y-111931428D01*
X146821904Y-111931428D02*
X146774285Y-111836190D01*
%TO.C,J10*%
X157022619Y-128815476D02*
X157736904Y-128815476D01*
X157736904Y-128815476D02*
X157879761Y-128767857D01*
X157879761Y-128767857D02*
X157975000Y-128672619D01*
X157975000Y-128672619D02*
X158022619Y-128529762D01*
X158022619Y-128529762D02*
X158022619Y-128434524D01*
X158022619Y-129815476D02*
X158022619Y-129244048D01*
X158022619Y-129529762D02*
X157022619Y-129529762D01*
X157022619Y-129529762D02*
X157165476Y-129434524D01*
X157165476Y-129434524D02*
X157260714Y-129339286D01*
X157260714Y-129339286D02*
X157308333Y-129244048D01*
X157022619Y-130434524D02*
X157022619Y-130529762D01*
X157022619Y-130529762D02*
X157070238Y-130625000D01*
X157070238Y-130625000D02*
X157117857Y-130672619D01*
X157117857Y-130672619D02*
X157213095Y-130720238D01*
X157213095Y-130720238D02*
X157403571Y-130767857D01*
X157403571Y-130767857D02*
X157641666Y-130767857D01*
X157641666Y-130767857D02*
X157832142Y-130720238D01*
X157832142Y-130720238D02*
X157927380Y-130672619D01*
X157927380Y-130672619D02*
X157975000Y-130625000D01*
X157975000Y-130625000D02*
X158022619Y-130529762D01*
X158022619Y-130529762D02*
X158022619Y-130434524D01*
X158022619Y-130434524D02*
X157975000Y-130339286D01*
X157975000Y-130339286D02*
X157927380Y-130291667D01*
X157927380Y-130291667D02*
X157832142Y-130244048D01*
X157832142Y-130244048D02*
X157641666Y-130196429D01*
X157641666Y-130196429D02*
X157403571Y-130196429D01*
X157403571Y-130196429D02*
X157213095Y-130244048D01*
X157213095Y-130244048D02*
X157117857Y-130291667D01*
X157117857Y-130291667D02*
X157070238Y-130339286D01*
X157070238Y-130339286D02*
X157022619Y-130434524D01*
%TO.C,C12*%
X122285380Y-103814142D02*
X122333000Y-103766523D01*
X122333000Y-103766523D02*
X122380619Y-103623666D01*
X122380619Y-103623666D02*
X122380619Y-103528428D01*
X122380619Y-103528428D02*
X122333000Y-103385571D01*
X122333000Y-103385571D02*
X122237761Y-103290333D01*
X122237761Y-103290333D02*
X122142523Y-103242714D01*
X122142523Y-103242714D02*
X121952047Y-103195095D01*
X121952047Y-103195095D02*
X121809190Y-103195095D01*
X121809190Y-103195095D02*
X121618714Y-103242714D01*
X121618714Y-103242714D02*
X121523476Y-103290333D01*
X121523476Y-103290333D02*
X121428238Y-103385571D01*
X121428238Y-103385571D02*
X121380619Y-103528428D01*
X121380619Y-103528428D02*
X121380619Y-103623666D01*
X121380619Y-103623666D02*
X121428238Y-103766523D01*
X121428238Y-103766523D02*
X121475857Y-103814142D01*
X122380619Y-104766523D02*
X122380619Y-104195095D01*
X122380619Y-104480809D02*
X121380619Y-104480809D01*
X121380619Y-104480809D02*
X121523476Y-104385571D01*
X121523476Y-104385571D02*
X121618714Y-104290333D01*
X121618714Y-104290333D02*
X121666333Y-104195095D01*
X121475857Y-105147476D02*
X121428238Y-105195095D01*
X121428238Y-105195095D02*
X121380619Y-105290333D01*
X121380619Y-105290333D02*
X121380619Y-105528428D01*
X121380619Y-105528428D02*
X121428238Y-105623666D01*
X121428238Y-105623666D02*
X121475857Y-105671285D01*
X121475857Y-105671285D02*
X121571095Y-105718904D01*
X121571095Y-105718904D02*
X121666333Y-105718904D01*
X121666333Y-105718904D02*
X121809190Y-105671285D01*
X121809190Y-105671285D02*
X122380619Y-105099857D01*
X122380619Y-105099857D02*
X122380619Y-105718904D01*
D11*
%TO.C,D12*%
X136720000Y-136157000D02*
X138720000Y-136157000D01*
X136720000Y-136157000D02*
X136720000Y-140167000D01*
X138720000Y-136157000D02*
X138720000Y-140167000D01*
%TO.C,D11*%
X134180000Y-136157000D02*
X136180000Y-136157000D01*
X134180000Y-136157000D02*
X134180000Y-140167000D01*
X136180000Y-136157000D02*
X136180000Y-140167000D01*
%TO.C,D10*%
X131640000Y-136157000D02*
X133640000Y-136157000D01*
X131640000Y-136157000D02*
X131640000Y-140167000D01*
X133640000Y-136157000D02*
X133640000Y-140167000D01*
%TO.C,D9*%
X129100000Y-136157000D02*
X131100000Y-136157000D01*
X129100000Y-136157000D02*
X129100000Y-140167000D01*
X131100000Y-136157000D02*
X131100000Y-140167000D01*
%TO.C,D8*%
X126560000Y-136157000D02*
X128560000Y-136157000D01*
X126560000Y-136157000D02*
X126560000Y-140167000D01*
X128560000Y-136157000D02*
X128560000Y-140167000D01*
%TO.C,D7*%
X124020000Y-136157000D02*
X126020000Y-136157000D01*
X124020000Y-136157000D02*
X124020000Y-140167000D01*
X126020000Y-136157000D02*
X126020000Y-140167000D01*
%TO.C,D6*%
X121480000Y-136157000D02*
X123480000Y-136157000D01*
X121480000Y-136157000D02*
X121480000Y-140167000D01*
X123480000Y-136157000D02*
X123480000Y-140167000D01*
%TO.C,D5*%
X118940000Y-136157000D02*
X120940000Y-136157000D01*
X118940000Y-136157000D02*
X118940000Y-140167000D01*
X120940000Y-136157000D02*
X120940000Y-140167000D01*
%TO.C,D4*%
X116400000Y-136157000D02*
X118400000Y-136157000D01*
X116400000Y-136157000D02*
X116400000Y-140167000D01*
X118400000Y-136157000D02*
X118400000Y-140167000D01*
%TO.C,D3*%
X113860000Y-136157000D02*
X115860000Y-136157000D01*
X113860000Y-136157000D02*
X113860000Y-140167000D01*
X115860000Y-136157000D02*
X115860000Y-140167000D01*
%TO.C,D2*%
X111320000Y-136110500D02*
X113320000Y-136110500D01*
X111320000Y-136110500D02*
X111320000Y-140120500D01*
X113320000Y-136110500D02*
X113320000Y-140120500D01*
%TO.C,D1*%
X110780000Y-136110500D02*
X110780000Y-140120500D01*
X108780000Y-136110500D02*
X108780000Y-140120500D01*
X108780000Y-136110500D02*
X110780000Y-136110500D01*
%TO.C,J5*%
X132560000Y-94395000D02*
X133830000Y-94395000D01*
X133830000Y-94395000D02*
X133830000Y-93125000D01*
X129640000Y-92082071D02*
X129640000Y-91685000D01*
X130400000Y-92082071D02*
X130400000Y-91685000D01*
X132180000Y-92015000D02*
X132180000Y-91685000D01*
X132940000Y-92015000D02*
X132940000Y-91685000D01*
X128690000Y-91685000D02*
X128690000Y-89025000D01*
X131290000Y-91685000D02*
X131290000Y-89025000D01*
X133890000Y-91685000D02*
X128690000Y-91685000D01*
X128690000Y-89025000D02*
X133890000Y-89025000D01*
X130400000Y-89025000D02*
X130400000Y-83025000D01*
X132280000Y-89025000D02*
X132280000Y-83025000D01*
X132400000Y-89025000D02*
X132400000Y-83025000D01*
X132520000Y-89025000D02*
X132520000Y-83025000D01*
X132640000Y-89025000D02*
X132640000Y-83025000D01*
X132760000Y-89025000D02*
X132760000Y-83025000D01*
X132880000Y-89025000D02*
X132880000Y-83025000D01*
X132940000Y-89025000D02*
X132940000Y-83025000D01*
X133890000Y-89025000D02*
X133890000Y-91685000D01*
X129640000Y-83025000D02*
X129640000Y-89025000D01*
X130400000Y-83025000D02*
X129640000Y-83025000D01*
X132180000Y-83025000D02*
X132180000Y-89025000D01*
X132940000Y-83025000D02*
X132180000Y-83025000D01*
%TO.C,J11*%
X161640000Y-110790000D02*
X158980000Y-110790000D01*
X161640000Y-100570000D02*
X161640000Y-110790000D01*
X161640000Y-100570000D02*
X158980000Y-100570000D01*
X161640000Y-99300000D02*
X161640000Y-97970000D01*
X161640000Y-97970000D02*
X160310000Y-97970000D01*
X158980000Y-100570000D02*
X158980000Y-110790000D01*
%TO.C,C1*%
X113075000Y-122936252D02*
X113075000Y-122413748D01*
X114545000Y-122936252D02*
X114545000Y-122413748D01*
%TO.C,C8*%
X152371252Y-86860000D02*
X151848748Y-86860000D01*
X152371252Y-85390000D02*
X151848748Y-85390000D01*
%TO.C,C4*%
X97321252Y-100110000D02*
X96798748Y-100110000D01*
X97321252Y-98640000D02*
X96798748Y-98640000D01*
%TO.C,J1*%
X116560000Y-94395000D02*
X117830000Y-94395000D01*
X117830000Y-94395000D02*
X117830000Y-93125000D01*
X113640000Y-92082071D02*
X113640000Y-91685000D01*
X114400000Y-92082071D02*
X114400000Y-91685000D01*
X116180000Y-92015000D02*
X116180000Y-91685000D01*
X116940000Y-92015000D02*
X116940000Y-91685000D01*
X112690000Y-91685000D02*
X112690000Y-89025000D01*
X115290000Y-91685000D02*
X115290000Y-89025000D01*
X117890000Y-91685000D02*
X112690000Y-91685000D01*
X112690000Y-89025000D02*
X117890000Y-89025000D01*
X114400000Y-89025000D02*
X114400000Y-83025000D01*
X116280000Y-89025000D02*
X116280000Y-83025000D01*
X116400000Y-89025000D02*
X116400000Y-83025000D01*
X116520000Y-89025000D02*
X116520000Y-83025000D01*
X116640000Y-89025000D02*
X116640000Y-83025000D01*
X116760000Y-89025000D02*
X116760000Y-83025000D01*
X116880000Y-89025000D02*
X116880000Y-83025000D01*
X116940000Y-89025000D02*
X116940000Y-83025000D01*
X117890000Y-89025000D02*
X117890000Y-91685000D01*
X113640000Y-83025000D02*
X113640000Y-89025000D01*
X114400000Y-83025000D02*
X113640000Y-83025000D01*
X116180000Y-83025000D02*
X116180000Y-89025000D01*
X116940000Y-83025000D02*
X116180000Y-83025000D01*
%TO.C,C15*%
X121821252Y-96860000D02*
X121298748Y-96860000D01*
X121821252Y-95390000D02*
X121298748Y-95390000D01*
%TO.C,J8*%
X101036000Y-124301000D02*
X102036000Y-124801000D01*
X101036000Y-125301000D02*
X101036000Y-124301000D01*
X102036000Y-124801000D02*
X101036000Y-125301000D01*
X102426000Y-96731000D02*
X102426000Y-130011000D01*
X102426000Y-115421000D02*
X103736000Y-115421000D01*
X102426000Y-130011000D02*
X111546000Y-130011000D01*
X103736000Y-98031000D02*
X103736000Y-111321000D01*
X103736000Y-111321000D02*
X102426000Y-111321000D01*
X103736000Y-111321000D02*
X103736000Y-111321000D01*
X103736000Y-115421000D02*
X103736000Y-128711000D01*
X103736000Y-128711000D02*
X110236000Y-128711000D01*
X110236000Y-98031000D02*
X103736000Y-98031000D01*
X110236000Y-128711000D02*
X110236000Y-98031000D01*
X111546000Y-96731000D02*
X102426000Y-96731000D01*
X111546000Y-130011000D02*
X111546000Y-96731000D01*
%TO.C,e1*%
X131711000Y-126818000D02*
X125461000Y-126818000D01*
X131711000Y-121768000D02*
X125461000Y-121768000D01*
X131711000Y-126818000D02*
G75*
G03*
X131711000Y-121768000I0J2525000D01*
G01*
X125461000Y-121768000D02*
G75*
G03*
X125461000Y-126818000I0J-2525000D01*
G01*
%TO.C,C7*%
X94821252Y-189110000D02*
X94298748Y-189110000D01*
X94821252Y-187640000D02*
X94298748Y-187640000D01*
%TO.C,C11*%
X152571252Y-248360000D02*
X152048748Y-248360000D01*
X152571252Y-246890000D02*
X152048748Y-246890000D01*
%TO.C,J4*%
X126060000Y-94395000D02*
X127330000Y-94395000D01*
X127330000Y-94395000D02*
X127330000Y-93125000D01*
X123140000Y-92082071D02*
X123140000Y-91685000D01*
X123900000Y-92082071D02*
X123900000Y-91685000D01*
X125680000Y-92015000D02*
X125680000Y-91685000D01*
X126440000Y-92015000D02*
X126440000Y-91685000D01*
X122190000Y-91685000D02*
X122190000Y-89025000D01*
X124790000Y-91685000D02*
X124790000Y-89025000D01*
X127390000Y-91685000D02*
X122190000Y-91685000D01*
X122190000Y-89025000D02*
X127390000Y-89025000D01*
X123900000Y-89025000D02*
X123900000Y-83025000D01*
X125780000Y-89025000D02*
X125780000Y-83025000D01*
X125900000Y-89025000D02*
X125900000Y-83025000D01*
X126020000Y-89025000D02*
X126020000Y-83025000D01*
X126140000Y-89025000D02*
X126140000Y-83025000D01*
X126260000Y-89025000D02*
X126260000Y-83025000D01*
X126380000Y-89025000D02*
X126380000Y-83025000D01*
X126440000Y-89025000D02*
X126440000Y-83025000D01*
X127390000Y-89025000D02*
X127390000Y-91685000D01*
X123140000Y-83025000D02*
X123140000Y-89025000D01*
X123900000Y-83025000D02*
X123140000Y-83025000D01*
X125680000Y-83025000D02*
X125680000Y-89025000D01*
X126440000Y-83025000D02*
X125680000Y-83025000D01*
%TO.C,U3*%
X117728000Y-99509500D02*
X117728000Y-100309500D01*
X117728000Y-99509500D02*
X117728000Y-98709500D01*
X120848000Y-99509500D02*
X120848000Y-101309500D01*
X120848000Y-99509500D02*
X120848000Y-98709500D01*
D12*
%TO.C,J7*%
X137295000Y-91108000D02*
X137295000Y-82860000D01*
X137295000Y-98570000D02*
X137295000Y-94918000D01*
X141150000Y-98570000D02*
X137295000Y-98570000D01*
X145470000Y-98570000D02*
X149325000Y-98570000D01*
X149325000Y-82860000D02*
X137295000Y-82860000D01*
X149325000Y-91362000D02*
X149325000Y-82860000D01*
X149325000Y-98570000D02*
X149325000Y-94918000D01*
X145968488Y-97900000D02*
G75*
G03*
X145968488Y-97900000I-98488J0D01*
G01*
D11*
%TO.C,FB1*%
X120556378Y-119669000D02*
X121355622Y-119669000D01*
X120556378Y-120789000D02*
X121355622Y-120789000D01*
%TO.C,C14*%
X117436748Y-95390000D02*
X117959252Y-95390000D01*
X117436748Y-96860000D02*
X117959252Y-96860000D01*
%TO.C,J6*%
X112558000Y-98312000D02*
X115218000Y-98312000D01*
X112558000Y-103452000D02*
X112558000Y-98312000D01*
X112558000Y-103452000D02*
X115218000Y-103452000D01*
X112558000Y-104722000D02*
X112558000Y-106052000D01*
X112558000Y-106052000D02*
X113888000Y-106052000D01*
X115218000Y-103452000D02*
X115218000Y-98312000D01*
%TO.C,R1*%
X158420436Y-135640000D02*
X158874564Y-135640000D01*
X158420436Y-137110000D02*
X158874564Y-137110000D01*
%TO.C,D13*%
X115498000Y-96975000D02*
X112838000Y-96975000D01*
X115498000Y-95275000D02*
X115498000Y-96975000D01*
X115498000Y-95275000D02*
X112838000Y-95275000D01*
%TO.C,U2*%
X122450000Y-118735000D02*
X123400000Y-118735000D01*
X131720000Y-118735000D02*
X131720000Y-120075000D01*
X132670000Y-118735000D02*
X131720000Y-118735000D01*
X122450000Y-117785000D02*
X122450000Y-118735000D01*
X132670000Y-117785000D02*
X132670000Y-118735000D01*
X122450000Y-109465000D02*
X122450000Y-108515000D01*
X132670000Y-109465000D02*
X132670000Y-108515000D01*
X122450000Y-108515000D02*
X123400000Y-108515000D01*
X132670000Y-108515000D02*
X131720000Y-108515000D01*
%TO.C,J9*%
X161640000Y-119710000D02*
X158980000Y-119710000D01*
X161640000Y-114570000D02*
X161640000Y-119710000D01*
X161640000Y-114570000D02*
X158980000Y-114570000D01*
X161640000Y-113300000D02*
X161640000Y-111970000D01*
X161640000Y-111970000D02*
X160310000Y-111970000D01*
X158980000Y-114570000D02*
X158980000Y-119710000D01*
%TO.C,C10*%
X103621252Y-248360000D02*
X103098748Y-248360000D01*
X103621252Y-246890000D02*
X103098748Y-246890000D01*
%TO.C,R2*%
X159124564Y-148860000D02*
X158670436Y-148860000D01*
X159124564Y-147390000D02*
X158670436Y-147390000D01*
%TO.C,C6*%
X161321252Y-189360000D02*
X160798748Y-189360000D01*
X161321252Y-187890000D02*
X160798748Y-187890000D01*
%TO.C,C13*%
X116963000Y-104718252D02*
X116963000Y-104195748D01*
X118433000Y-104718252D02*
X118433000Y-104195748D01*
%TO.C,C2*%
X136931000Y-124031748D02*
X136931000Y-124554252D01*
X135461000Y-124031748D02*
X135461000Y-124554252D01*
%TO.C,C5*%
X156071252Y-133360000D02*
X155548748Y-133360000D01*
X156071252Y-131890000D02*
X155548748Y-131890000D01*
%TO.C,J3*%
X122718000Y-98327000D02*
X125378000Y-98327000D01*
X122718000Y-103467000D02*
X122718000Y-98327000D01*
X122718000Y-103467000D02*
X125378000Y-103467000D01*
X122718000Y-104737000D02*
X122718000Y-106067000D01*
X122718000Y-106067000D02*
X124048000Y-106067000D01*
X125378000Y-103467000D02*
X125378000Y-98327000D01*
%TO.C,C3*%
X121691000Y-124031748D02*
X121691000Y-124554252D01*
X120221000Y-124031748D02*
X120221000Y-124554252D01*
%TO.C,R3*%
X150045000Y-135735436D02*
X150045000Y-136189564D01*
X148575000Y-135735436D02*
X148575000Y-136189564D01*
%TO.C,C9*%
X147821252Y-114360000D02*
X147298748Y-114360000D01*
X147821252Y-112890000D02*
X147298748Y-112890000D01*
%TO.C,J10*%
X161640000Y-128765000D02*
X158980000Y-128765000D01*
X161640000Y-123625000D02*
X161640000Y-128765000D01*
X161640000Y-123625000D02*
X158980000Y-123625000D01*
X161640000Y-122355000D02*
X161640000Y-121025000D01*
X161640000Y-121025000D02*
X160310000Y-121025000D01*
X158980000Y-123625000D02*
X158980000Y-128765000D01*
%TO.C,C12*%
X119503000Y-104718252D02*
X119503000Y-104195748D01*
X120973000Y-104718252D02*
X120973000Y-104195748D01*
%TD*%
M02*
