M48
; DRILL file {KiCad (6.0.8)} date Wed Nov  2 23:42:17 2022
; FORMAT={-:-/ absolute / metric / decimal}
; #@! TF.CreationDate,2022-11-02T23:42:17+01:00
; #@! TF.GenerationSoftware,Kicad,Pcbnew,(6.0.8)
; #@! TF.FileFunction,Plated,1,4,PTH
FMAT,2
METRIC
; #@! TA.AperFunction,Plated,PTH,ViaDrill
T1C0.400
; #@! TA.AperFunction,Plated,PTH,ComponentDrill
T2C0.762
; #@! TA.AperFunction,Plated,PTH,ComponentDrill
T3C0.800
; #@! TA.AperFunction,Plated,PTH,ComponentDrill
T4C0.900
; #@! TA.AperFunction,Plated,PTH,ComponentDrill
T5C1.000
; #@! TA.AperFunction,Plated,PTH,ComponentDrill
T6C1.100
; #@! TA.AperFunction,Plated,PTH,ComponentDrill
T7C2.300
; #@! TA.AperFunction,Plated,PTH,ComponentDrill
T8C3.000
%
G90
G05
T1
X126.75Y-156.75
X128.5Y-132.0
X130.75Y-200.75
X131.0Y-109.0
X131.5Y-127.0
X133.0Y-106.0
X133.0Y-108.0
X134.0Y-151.5
X135.5Y-148.0
X135.5Y-151.5
X136.5Y-127.0
X137.0Y-130.0
X137.0Y-148.0
X137.5Y-139.124
X138.0Y-125.5
X138.5Y-148.5
X138.5Y-153.0
X142.0Y-142.0
X142.0Y-143.0
X142.0Y-144.0
X142.0Y-145.5
X142.25Y-169.5
X143.0Y-158.0
X143.0Y-162.5
X143.5Y-112.5
X144.0Y-138.0
X144.0Y-145.5
X144.0Y-163.0
X146.0Y-136.5
X147.5Y-115.0
X148.0Y-121.0
X150.0Y-114.5
X150.0Y-131.5
X150.0Y-138.5
X150.0Y-146.0
X150.5Y-110.5
X151.0Y-113.5
X151.5Y-98.5
X151.5Y-138.5
X152.0Y-126.5
X152.5Y-121.0
X153.5Y-126.5
X154.0Y-122.5
X155.0Y-122.5
X156.5Y-143.0
X157.0Y-109.5
X158.0Y-149.0
X158.0Y-154.0
X159.0Y-93.0
X159.5Y-145.0
X160.0Y-143.0
X160.5Y-104.5
X160.5Y-134.5
X161.0Y-129.0
X162.05Y-154.95
X162.5Y-124.5
X163.0Y-105.0
X164.0Y-96.0
X164.25Y-182.5
X166.5Y-119.5
X167.0Y-101.0
X171.75Y-98.0
X177.0Y-97.0
X178.5Y-105.0
T2
X117.25Y-110.11
X117.25Y-112.65
X117.25Y-115.19
X117.25Y-117.73
X117.25Y-120.27
X117.25Y-122.81
X117.25Y-125.35
X117.25Y-127.89
T3
X143.95Y-120.55
X143.95Y-125.43
T4
X129.75Y-100.5
X129.75Y-102.5
X132.25Y-100.5
X132.25Y-102.5
T5
X127.247Y-142.465
X127.247Y-145.005
X127.247Y-147.545
X129.787Y-142.465
X129.787Y-145.005
X129.787Y-147.545
X172.5Y-117.42
X172.5Y-119.96
X172.5Y-122.5
X175.04Y-117.42
X175.04Y-119.96
X175.04Y-122.5
T6
X122.75Y-171.75
X122.75Y-176.25
X122.75Y-209.25
X122.75Y-213.75
X122.75Y-234.25
X122.75Y-238.75
X129.25Y-171.75
X129.25Y-176.25
X129.25Y-209.25
X129.25Y-213.75
X129.25Y-234.25
X129.25Y-238.75
X134.75Y-159.25
X134.75Y-163.75
X134.75Y-184.25
X134.75Y-188.75
X141.25Y-159.25
X141.25Y-163.75
X141.25Y-184.25
X141.25Y-188.75
X146.75Y-171.75
X146.75Y-176.25
X146.75Y-209.25
X146.75Y-213.75
X146.75Y-234.25
X146.75Y-238.75
X153.25Y-171.75
X153.25Y-176.25
X153.25Y-209.25
X153.25Y-213.75
X153.25Y-234.25
X153.25Y-238.75
X170.75Y-159.25
X170.75Y-163.75
X170.75Y-171.75
X170.75Y-176.25
X170.75Y-209.25
X170.75Y-213.75
X170.75Y-234.25
X170.75Y-238.75
X177.25Y-159.25
X177.25Y-163.75
X177.25Y-171.75
X177.25Y-176.25
X177.25Y-209.25
X177.25Y-213.75
X177.25Y-234.25
X177.25Y-238.75
T7
X124.98Y-97.8
X137.02Y-97.8
T8
X117.25Y-99.85
X117.25Y-138.15
X119.5Y-92.0
X119.5Y-250.0
X180.0Y-250.0
X180.5Y-92.0
X182.75Y-99.85
X182.75Y-138.15
T0
M30
