%TF.GenerationSoftware,KiCad,Pcbnew,(6.0.8)*%
%TF.CreationDate,2022-11-02T23:41:58+01:00*%
%TF.ProjectId,crane,6372616e-652e-46b6-9963-61645f706362,rev?*%
%TF.SameCoordinates,Original*%
%TF.FileFunction,AssemblyDrawing,Bot*%
%FSLAX46Y46*%
G04 Gerber Fmt 4.6, Leading zero omitted, Abs format (unit mm)*
G04 Created by KiCad (PCBNEW (6.0.8)) date 2022-11-02 23:41:58*
%MOMM*%
%LPD*%
G01*
G04 APERTURE LIST*
%ADD10C,0.150000*%
%ADD11C,0.080000*%
%ADD12C,0.254000*%
%ADD13C,0.120000*%
%ADD14C,0.060000*%
%ADD15C,0.100000*%
%ADD16C,0.200000*%
G04 APERTURE END LIST*
D10*
%TO.C,J1*%
X145525476Y-104387380D02*
X145525476Y-105196904D01*
X145477857Y-105292142D01*
X145430238Y-105339761D01*
X145335000Y-105387380D01*
X145144523Y-105387380D01*
X145049285Y-105339761D01*
X145001666Y-105292142D01*
X144954047Y-105196904D01*
X144954047Y-104387380D01*
X144525476Y-105339761D02*
X144382619Y-105387380D01*
X144144523Y-105387380D01*
X144049285Y-105339761D01*
X144001666Y-105292142D01*
X143954047Y-105196904D01*
X143954047Y-105101666D01*
X144001666Y-105006428D01*
X144049285Y-104958809D01*
X144144523Y-104911190D01*
X144335000Y-104863571D01*
X144430238Y-104815952D01*
X144477857Y-104768333D01*
X144525476Y-104673095D01*
X144525476Y-104577857D01*
X144477857Y-104482619D01*
X144430238Y-104435000D01*
X144335000Y-104387380D01*
X144096904Y-104387380D01*
X143954047Y-104435000D01*
X143192142Y-104863571D02*
X143049285Y-104911190D01*
X143001666Y-104958809D01*
X142954047Y-105054047D01*
X142954047Y-105196904D01*
X143001666Y-105292142D01*
X143049285Y-105339761D01*
X143144523Y-105387380D01*
X143525476Y-105387380D01*
X143525476Y-104387380D01*
X143192142Y-104387380D01*
X143096904Y-104435000D01*
X143049285Y-104482619D01*
X143001666Y-104577857D01*
X143001666Y-104673095D01*
X143049285Y-104768333D01*
X143096904Y-104815952D01*
X143192142Y-104863571D01*
X143525476Y-104863571D01*
X142525476Y-105006428D02*
X141763571Y-105006428D01*
X140954047Y-104863571D02*
X140811190Y-104911190D01*
X140763571Y-104958809D01*
X140715952Y-105054047D01*
X140715952Y-105196904D01*
X140763571Y-105292142D01*
X140811190Y-105339761D01*
X140906428Y-105387380D01*
X141287380Y-105387380D01*
X141287380Y-104387380D01*
X140954047Y-104387380D01*
X140858809Y-104435000D01*
X140811190Y-104482619D01*
X140763571Y-104577857D01*
X140763571Y-104673095D01*
X140811190Y-104768333D01*
X140858809Y-104815952D01*
X140954047Y-104863571D01*
X141287380Y-104863571D01*
X140287380Y-105006428D02*
X139525476Y-105006428D01*
X139096904Y-105339761D02*
X138954047Y-105387380D01*
X138715952Y-105387380D01*
X138620714Y-105339761D01*
X138573095Y-105292142D01*
X138525476Y-105196904D01*
X138525476Y-105101666D01*
X138573095Y-105006428D01*
X138620714Y-104958809D01*
X138715952Y-104911190D01*
X138906428Y-104863571D01*
X139001666Y-104815952D01*
X139049285Y-104768333D01*
X139096904Y-104673095D01*
X139096904Y-104577857D01*
X139049285Y-104482619D01*
X139001666Y-104435000D01*
X138906428Y-104387380D01*
X138668333Y-104387380D01*
X138525476Y-104435000D01*
X138096904Y-105006428D02*
X137335000Y-105006428D01*
X136954047Y-104387380D02*
X136287380Y-105387380D01*
X136287380Y-104387380D02*
X136954047Y-105387380D01*
X135906428Y-105006428D02*
X135144523Y-105006428D01*
X134763571Y-104387380D02*
X134096904Y-105387380D01*
X134096904Y-104387380D02*
X134763571Y-105387380D01*
X133715952Y-105006428D02*
X132954047Y-105006428D01*
X132620714Y-104387380D02*
X132049285Y-104387380D01*
X132335000Y-105387380D02*
X132335000Y-104387380D01*
X131715952Y-105387380D02*
X131715952Y-104387380D01*
X131715952Y-104863571D02*
X131144523Y-104863571D01*
X131144523Y-105387380D02*
X131144523Y-104387380D01*
%TO.C,U1*%
X147952380Y-118238095D02*
X148761904Y-118238095D01*
X148857142Y-118285714D01*
X148904761Y-118333333D01*
X148952380Y-118428571D01*
X148952380Y-118619047D01*
X148904761Y-118714285D01*
X148857142Y-118761904D01*
X148761904Y-118809523D01*
X147952380Y-118809523D01*
X148952380Y-119809523D02*
X148952380Y-119238095D01*
X148952380Y-119523809D02*
X147952380Y-119523809D01*
X148095238Y-119428571D01*
X148190476Y-119333333D01*
X148238095Y-119238095D01*
%TO.C,D7*%
X126261904Y-216902380D02*
X126261904Y-215902380D01*
X126023809Y-215902380D01*
X125880952Y-215950000D01*
X125785714Y-216045238D01*
X125738095Y-216140476D01*
X125690476Y-216330952D01*
X125690476Y-216473809D01*
X125738095Y-216664285D01*
X125785714Y-216759523D01*
X125880952Y-216854761D01*
X126023809Y-216902380D01*
X126261904Y-216902380D01*
D11*
X126369047Y-218226190D02*
X126369047Y-217726190D01*
X126250000Y-217726190D01*
X126178571Y-217750000D01*
X126130952Y-217797619D01*
X126107142Y-217845238D01*
X126083333Y-217940476D01*
X126083333Y-218011904D01*
X126107142Y-218107142D01*
X126130952Y-218154761D01*
X126178571Y-218202380D01*
X126250000Y-218226190D01*
X126369047Y-218226190D01*
X125916666Y-217726190D02*
X125583333Y-217726190D01*
X125797619Y-218226190D01*
D10*
%TO.C,C1*%
X168047619Y-101772380D02*
X168619047Y-101772380D01*
X168333333Y-101772380D02*
X168333333Y-100772380D01*
X168428571Y-100915238D01*
X168523809Y-101010476D01*
X168619047Y-101058095D01*
X167428571Y-100772380D02*
X167333333Y-100772380D01*
X167238095Y-100820000D01*
X167190476Y-100867619D01*
X167142857Y-100962857D01*
X167095238Y-101153333D01*
X167095238Y-101391428D01*
X167142857Y-101581904D01*
X167190476Y-101677142D01*
X167238095Y-101724761D01*
X167333333Y-101772380D01*
X167428571Y-101772380D01*
X167523809Y-101724761D01*
X167571428Y-101677142D01*
X167619047Y-101581904D01*
X167666666Y-101391428D01*
X167666666Y-101153333D01*
X167619047Y-100962857D01*
X167571428Y-100867619D01*
X167523809Y-100820000D01*
X167428571Y-100772380D01*
X166476190Y-100772380D02*
X166380952Y-100772380D01*
X166285714Y-100820000D01*
X166238095Y-100867619D01*
X166190476Y-100962857D01*
X166142857Y-101153333D01*
X166142857Y-101391428D01*
X166190476Y-101581904D01*
X166238095Y-101677142D01*
X166285714Y-101724761D01*
X166380952Y-101772380D01*
X166476190Y-101772380D01*
X166571428Y-101724761D01*
X166619047Y-101677142D01*
X166666666Y-101581904D01*
X166714285Y-101391428D01*
X166714285Y-101153333D01*
X166666666Y-100962857D01*
X166619047Y-100867619D01*
X166571428Y-100820000D01*
X166476190Y-100772380D01*
X165714285Y-101105714D02*
X165714285Y-101772380D01*
X165714285Y-101200952D02*
X165666666Y-101153333D01*
X165571428Y-101105714D01*
X165428571Y-101105714D01*
X165333333Y-101153333D01*
X165285714Y-101248571D01*
X165285714Y-101772380D01*
X164476190Y-101248571D02*
X164809523Y-101248571D01*
X164809523Y-101772380D02*
X164809523Y-100772380D01*
X164333333Y-100772380D01*
D11*
X166583333Y-103178571D02*
X166607142Y-103202380D01*
X166678571Y-103226190D01*
X166726190Y-103226190D01*
X166797619Y-103202380D01*
X166845238Y-103154761D01*
X166869047Y-103107142D01*
X166892857Y-103011904D01*
X166892857Y-102940476D01*
X166869047Y-102845238D01*
X166845238Y-102797619D01*
X166797619Y-102750000D01*
X166726190Y-102726190D01*
X166678571Y-102726190D01*
X166607142Y-102750000D01*
X166583333Y-102773809D01*
X166107142Y-103226190D02*
X166392857Y-103226190D01*
X166250000Y-103226190D02*
X166250000Y-102726190D01*
X166297619Y-102797619D01*
X166345238Y-102845238D01*
X166392857Y-102869047D01*
D10*
%TO.C,D3*%
X138261904Y-166902380D02*
X138261904Y-165902380D01*
X138023809Y-165902380D01*
X137880952Y-165950000D01*
X137785714Y-166045238D01*
X137738095Y-166140476D01*
X137690476Y-166330952D01*
X137690476Y-166473809D01*
X137738095Y-166664285D01*
X137785714Y-166759523D01*
X137880952Y-166854761D01*
X138023809Y-166902380D01*
X138261904Y-166902380D01*
D11*
X138369047Y-168226190D02*
X138369047Y-167726190D01*
X138250000Y-167726190D01*
X138178571Y-167750000D01*
X138130952Y-167797619D01*
X138107142Y-167845238D01*
X138083333Y-167940476D01*
X138083333Y-168011904D01*
X138107142Y-168107142D01*
X138130952Y-168154761D01*
X138178571Y-168202380D01*
X138250000Y-168226190D01*
X138369047Y-168226190D01*
X137916666Y-167726190D02*
X137607142Y-167726190D01*
X137773809Y-167916666D01*
X137702380Y-167916666D01*
X137654761Y-167940476D01*
X137630952Y-167964285D01*
X137607142Y-168011904D01*
X137607142Y-168130952D01*
X137630952Y-168178571D01*
X137654761Y-168202380D01*
X137702380Y-168226190D01*
X137845238Y-168226190D01*
X137892857Y-168202380D01*
X137916666Y-168178571D01*
D10*
%TO.C,C7*%
X164547619Y-137469880D02*
X165119047Y-137469880D01*
X164833333Y-137469880D02*
X164833333Y-136469880D01*
X164928571Y-136612738D01*
X165023809Y-136707976D01*
X165119047Y-136755595D01*
X163928571Y-136469880D02*
X163833333Y-136469880D01*
X163738095Y-136517500D01*
X163690476Y-136565119D01*
X163642857Y-136660357D01*
X163595238Y-136850833D01*
X163595238Y-137088928D01*
X163642857Y-137279404D01*
X163690476Y-137374642D01*
X163738095Y-137422261D01*
X163833333Y-137469880D01*
X163928571Y-137469880D01*
X164023809Y-137422261D01*
X164071428Y-137374642D01*
X164119047Y-137279404D01*
X164166666Y-137088928D01*
X164166666Y-136850833D01*
X164119047Y-136660357D01*
X164071428Y-136565119D01*
X164023809Y-136517500D01*
X163928571Y-136469880D01*
X162976190Y-136469880D02*
X162880952Y-136469880D01*
X162785714Y-136517500D01*
X162738095Y-136565119D01*
X162690476Y-136660357D01*
X162642857Y-136850833D01*
X162642857Y-137088928D01*
X162690476Y-137279404D01*
X162738095Y-137374642D01*
X162785714Y-137422261D01*
X162880952Y-137469880D01*
X162976190Y-137469880D01*
X163071428Y-137422261D01*
X163119047Y-137374642D01*
X163166666Y-137279404D01*
X163214285Y-137088928D01*
X163214285Y-136850833D01*
X163166666Y-136660357D01*
X163119047Y-136565119D01*
X163071428Y-136517500D01*
X162976190Y-136469880D01*
X162214285Y-136803214D02*
X162214285Y-137469880D01*
X162214285Y-136898452D02*
X162166666Y-136850833D01*
X162071428Y-136803214D01*
X161928571Y-136803214D01*
X161833333Y-136850833D01*
X161785714Y-136946071D01*
X161785714Y-137469880D01*
X160976190Y-136946071D02*
X161309523Y-136946071D01*
X161309523Y-137469880D02*
X161309523Y-136469880D01*
X160833333Y-136469880D01*
D11*
X163083333Y-135516071D02*
X163107142Y-135539880D01*
X163178571Y-135563690D01*
X163226190Y-135563690D01*
X163297619Y-135539880D01*
X163345238Y-135492261D01*
X163369047Y-135444642D01*
X163392857Y-135349404D01*
X163392857Y-135277976D01*
X163369047Y-135182738D01*
X163345238Y-135135119D01*
X163297619Y-135087500D01*
X163226190Y-135063690D01*
X163178571Y-135063690D01*
X163107142Y-135087500D01*
X163083333Y-135111309D01*
X162916666Y-135063690D02*
X162583333Y-135063690D01*
X162797619Y-135563690D01*
D10*
%TO.C,C9*%
X165529166Y-110465714D02*
X165529166Y-111132380D01*
X165767261Y-110084761D02*
X166005357Y-110799047D01*
X165386309Y-110799047D01*
X165100595Y-110132380D02*
X164433928Y-110132380D01*
X164862500Y-111132380D01*
X163624404Y-110465714D02*
X163624404Y-111132380D01*
X164052976Y-110465714D02*
X164052976Y-110989523D01*
X164005357Y-111084761D01*
X163910119Y-111132380D01*
X163767261Y-111132380D01*
X163672023Y-111084761D01*
X163624404Y-111037142D01*
X162814880Y-110608571D02*
X163148214Y-110608571D01*
X163148214Y-111132380D02*
X163148214Y-110132380D01*
X162672023Y-110132380D01*
D11*
X164445833Y-109178571D02*
X164469642Y-109202380D01*
X164541071Y-109226190D01*
X164588690Y-109226190D01*
X164660119Y-109202380D01*
X164707738Y-109154761D01*
X164731547Y-109107142D01*
X164755357Y-109011904D01*
X164755357Y-108940476D01*
X164731547Y-108845238D01*
X164707738Y-108797619D01*
X164660119Y-108750000D01*
X164588690Y-108726190D01*
X164541071Y-108726190D01*
X164469642Y-108750000D01*
X164445833Y-108773809D01*
X164207738Y-109226190D02*
X164112500Y-109226190D01*
X164064880Y-109202380D01*
X164041071Y-109178571D01*
X163993452Y-109107142D01*
X163969642Y-109011904D01*
X163969642Y-108821428D01*
X163993452Y-108773809D01*
X164017261Y-108750000D01*
X164064880Y-108726190D01*
X164160119Y-108726190D01*
X164207738Y-108750000D01*
X164231547Y-108773809D01*
X164255357Y-108821428D01*
X164255357Y-108940476D01*
X164231547Y-108988095D01*
X164207738Y-109011904D01*
X164160119Y-109035714D01*
X164064880Y-109035714D01*
X164017261Y-109011904D01*
X163993452Y-108988095D01*
X163969642Y-108940476D01*
D12*
%TO.C,FB1*%
X142420833Y-107909285D02*
X142844166Y-107909285D01*
X142844166Y-108574523D02*
X142844166Y-107304523D01*
X142239404Y-107304523D01*
X141332261Y-107909285D02*
X141150833Y-107969761D01*
X141090357Y-108030238D01*
X141029880Y-108151190D01*
X141029880Y-108332619D01*
X141090357Y-108453571D01*
X141150833Y-108514047D01*
X141271785Y-108574523D01*
X141755595Y-108574523D01*
X141755595Y-107304523D01*
X141332261Y-107304523D01*
X141211309Y-107365000D01*
X141150833Y-107425476D01*
X141090357Y-107546428D01*
X141090357Y-107667380D01*
X141150833Y-107788333D01*
X141211309Y-107848809D01*
X141332261Y-107909285D01*
X141755595Y-107909285D01*
X139820357Y-108574523D02*
X140546071Y-108574523D01*
X140183214Y-108574523D02*
X140183214Y-107304523D01*
X140304166Y-107485952D01*
X140425119Y-107606904D01*
X140546071Y-107667380D01*
D10*
%TO.C,D11*%
X150261904Y-241902380D02*
X150261904Y-240902380D01*
X150023809Y-240902380D01*
X149880952Y-240950000D01*
X149785714Y-241045238D01*
X149738095Y-241140476D01*
X149690476Y-241330952D01*
X149690476Y-241473809D01*
X149738095Y-241664285D01*
X149785714Y-241759523D01*
X149880952Y-241854761D01*
X150023809Y-241902380D01*
X150261904Y-241902380D01*
D11*
X150607142Y-243226190D02*
X150607142Y-242726190D01*
X150488095Y-242726190D01*
X150416666Y-242750000D01*
X150369047Y-242797619D01*
X150345238Y-242845238D01*
X150321428Y-242940476D01*
X150321428Y-243011904D01*
X150345238Y-243107142D01*
X150369047Y-243154761D01*
X150416666Y-243202380D01*
X150488095Y-243226190D01*
X150607142Y-243226190D01*
X149845238Y-243226190D02*
X150130952Y-243226190D01*
X149988095Y-243226190D02*
X149988095Y-242726190D01*
X150035714Y-242797619D01*
X150083333Y-242845238D01*
X150130952Y-242869047D01*
X149369047Y-243226190D02*
X149654761Y-243226190D01*
X149511904Y-243226190D02*
X149511904Y-242726190D01*
X149559523Y-242797619D01*
X149607142Y-242845238D01*
X149654761Y-242869047D01*
D10*
%TO.C,C10*%
X165529166Y-108465714D02*
X165529166Y-109132380D01*
X165767261Y-108084761D02*
X166005357Y-108799047D01*
X165386309Y-108799047D01*
X165100595Y-108132380D02*
X164433928Y-108132380D01*
X164862500Y-109132380D01*
X163624404Y-108465714D02*
X163624404Y-109132380D01*
X164052976Y-108465714D02*
X164052976Y-108989523D01*
X164005357Y-109084761D01*
X163910119Y-109132380D01*
X163767261Y-109132380D01*
X163672023Y-109084761D01*
X163624404Y-109037142D01*
X162814880Y-108608571D02*
X163148214Y-108608571D01*
X163148214Y-109132380D02*
X163148214Y-108132380D01*
X162672023Y-108132380D01*
D11*
X164683928Y-107178571D02*
X164707738Y-107202380D01*
X164779166Y-107226190D01*
X164826785Y-107226190D01*
X164898214Y-107202380D01*
X164945833Y-107154761D01*
X164969642Y-107107142D01*
X164993452Y-107011904D01*
X164993452Y-106940476D01*
X164969642Y-106845238D01*
X164945833Y-106797619D01*
X164898214Y-106750000D01*
X164826785Y-106726190D01*
X164779166Y-106726190D01*
X164707738Y-106750000D01*
X164683928Y-106773809D01*
X164207738Y-107226190D02*
X164493452Y-107226190D01*
X164350595Y-107226190D02*
X164350595Y-106726190D01*
X164398214Y-106797619D01*
X164445833Y-106845238D01*
X164493452Y-106869047D01*
X163898214Y-106726190D02*
X163850595Y-106726190D01*
X163802976Y-106750000D01*
X163779166Y-106773809D01*
X163755357Y-106821428D01*
X163731547Y-106916666D01*
X163731547Y-107035714D01*
X163755357Y-107130952D01*
X163779166Y-107178571D01*
X163802976Y-107202380D01*
X163850595Y-107226190D01*
X163898214Y-107226190D01*
X163945833Y-107202380D01*
X163969642Y-107178571D01*
X163993452Y-107130952D01*
X164017261Y-107035714D01*
X164017261Y-106916666D01*
X163993452Y-106821428D01*
X163969642Y-106773809D01*
X163945833Y-106750000D01*
X163898214Y-106726190D01*
D10*
%TO.C,R3*%
X176140476Y-101452380D02*
X176711904Y-101452380D01*
X176426190Y-101452380D02*
X176426190Y-100452380D01*
X176521428Y-100595238D01*
X176616666Y-100690476D01*
X176711904Y-100738095D01*
X175521428Y-100452380D02*
X175426190Y-100452380D01*
X175330952Y-100500000D01*
X175283333Y-100547619D01*
X175235714Y-100642857D01*
X175188095Y-100833333D01*
X175188095Y-101071428D01*
X175235714Y-101261904D01*
X175283333Y-101357142D01*
X175330952Y-101404761D01*
X175426190Y-101452380D01*
X175521428Y-101452380D01*
X175616666Y-101404761D01*
X175664285Y-101357142D01*
X175711904Y-101261904D01*
X175759523Y-101071428D01*
X175759523Y-100833333D01*
X175711904Y-100642857D01*
X175664285Y-100547619D01*
X175616666Y-100500000D01*
X175521428Y-100452380D01*
X174759523Y-101452380D02*
X174759523Y-100452380D01*
X174188095Y-101452380D02*
X174616666Y-100880952D01*
X174188095Y-100452380D02*
X174759523Y-101023809D01*
D11*
X174533333Y-101226190D02*
X174700000Y-100988095D01*
X174819047Y-101226190D02*
X174819047Y-100726190D01*
X174628571Y-100726190D01*
X174580952Y-100750000D01*
X174557142Y-100773809D01*
X174533333Y-100821428D01*
X174533333Y-100892857D01*
X174557142Y-100940476D01*
X174580952Y-100964285D01*
X174628571Y-100988095D01*
X174819047Y-100988095D01*
X174366666Y-100726190D02*
X174057142Y-100726190D01*
X174223809Y-100916666D01*
X174152380Y-100916666D01*
X174104761Y-100940476D01*
X174080952Y-100964285D01*
X174057142Y-101011904D01*
X174057142Y-101130952D01*
X174080952Y-101178571D01*
X174104761Y-101202380D01*
X174152380Y-101226190D01*
X174295238Y-101226190D01*
X174342857Y-101202380D01*
X174366666Y-101178571D01*
D12*
%TO.C,IC1*%
X150602261Y-105034523D02*
X150602261Y-103764523D01*
X149271785Y-104913571D02*
X149332261Y-104974047D01*
X149513690Y-105034523D01*
X149634642Y-105034523D01*
X149816071Y-104974047D01*
X149937023Y-104853095D01*
X149997500Y-104732142D01*
X150057976Y-104490238D01*
X150057976Y-104308809D01*
X149997500Y-104066904D01*
X149937023Y-103945952D01*
X149816071Y-103825000D01*
X149634642Y-103764523D01*
X149513690Y-103764523D01*
X149332261Y-103825000D01*
X149271785Y-103885476D01*
X148062261Y-105034523D02*
X148787976Y-105034523D01*
X148425119Y-105034523D02*
X148425119Y-103764523D01*
X148546071Y-103945952D01*
X148667023Y-104066904D01*
X148787976Y-104127380D01*
D10*
%TO.C,U4*%
X163957738Y-113452380D02*
X164433928Y-113452380D01*
X164433928Y-112452380D01*
X163624404Y-113452380D02*
X163624404Y-112452380D01*
X163386309Y-112452380D01*
X163243452Y-112500000D01*
X163148214Y-112595238D01*
X163100595Y-112690476D01*
X163052976Y-112880952D01*
X163052976Y-113023809D01*
X163100595Y-113214285D01*
X163148214Y-113309523D01*
X163243452Y-113404761D01*
X163386309Y-113452380D01*
X163624404Y-113452380D01*
X162100595Y-113452380D02*
X162672023Y-113452380D01*
X162386309Y-113452380D02*
X162386309Y-112452380D01*
X162481547Y-112595238D01*
X162576785Y-112690476D01*
X162672023Y-112738095D01*
X161148214Y-113452380D02*
X161719642Y-113452380D01*
X161433928Y-113452380D02*
X161433928Y-112452380D01*
X161529166Y-112595238D01*
X161624404Y-112690476D01*
X161719642Y-112738095D01*
X160195833Y-113452380D02*
X160767261Y-113452380D01*
X160481547Y-113452380D02*
X160481547Y-112452380D01*
X160576785Y-112595238D01*
X160672023Y-112690476D01*
X160767261Y-112738095D01*
X159862500Y-112452380D02*
X159195833Y-112452380D01*
X159624404Y-113452380D01*
X158862500Y-113404761D02*
X158719642Y-113452380D01*
X158481547Y-113452380D01*
X158386309Y-113404761D01*
X158338690Y-113357142D01*
X158291071Y-113261904D01*
X158291071Y-113166666D01*
X158338690Y-113071428D01*
X158386309Y-113023809D01*
X158481547Y-112976190D01*
X158672023Y-112928571D01*
X158767261Y-112880952D01*
X158814880Y-112833333D01*
X158862500Y-112738095D01*
X158862500Y-112642857D01*
X158814880Y-112547619D01*
X158767261Y-112500000D01*
X158672023Y-112452380D01*
X158433928Y-112452380D01*
X158291071Y-112500000D01*
X157386309Y-112452380D02*
X157862500Y-112452380D01*
X157910119Y-112928571D01*
X157862500Y-112880952D01*
X157767261Y-112833333D01*
X157529166Y-112833333D01*
X157433928Y-112880952D01*
X157386309Y-112928571D01*
X157338690Y-113023809D01*
X157338690Y-113261904D01*
X157386309Y-113357142D01*
X157433928Y-113404761D01*
X157529166Y-113452380D01*
X157767261Y-113452380D01*
X157862500Y-113404761D01*
X157910119Y-113357142D01*
X156719642Y-112452380D02*
X156624404Y-112452380D01*
X156529166Y-112500000D01*
X156481547Y-112547619D01*
X156433928Y-112642857D01*
X156386309Y-112833333D01*
X156386309Y-113071428D01*
X156433928Y-113261904D01*
X156481547Y-113357142D01*
X156529166Y-113404761D01*
X156624404Y-113452380D01*
X156719642Y-113452380D01*
X156814880Y-113404761D01*
X156862500Y-113357142D01*
X156910119Y-113261904D01*
X156957738Y-113071428D01*
X156957738Y-112833333D01*
X156910119Y-112642857D01*
X156862500Y-112547619D01*
X156814880Y-112500000D01*
X156719642Y-112452380D01*
X156100595Y-112452380D02*
X155529166Y-112452380D01*
X155814880Y-113452380D02*
X155814880Y-112452380D01*
X154624404Y-113452380D02*
X154957738Y-112976190D01*
X155195833Y-113452380D02*
X155195833Y-112452380D01*
X154814880Y-112452380D01*
X154719642Y-112500000D01*
X154672023Y-112547619D01*
X154624404Y-112642857D01*
X154624404Y-112785714D01*
X154672023Y-112880952D01*
X154719642Y-112928571D01*
X154814880Y-112976190D01*
X155195833Y-112976190D01*
X154433928Y-113547619D02*
X153672023Y-113547619D01*
X153481547Y-113404761D02*
X153338690Y-113452380D01*
X153100595Y-113452380D01*
X153005357Y-113404761D01*
X152957738Y-113357142D01*
X152910119Y-113261904D01*
X152910119Y-113166666D01*
X152957738Y-113071428D01*
X153005357Y-113023809D01*
X153100595Y-112976190D01*
X153291071Y-112928571D01*
X153386309Y-112880952D01*
X153433928Y-112833333D01*
X153481547Y-112738095D01*
X153481547Y-112642857D01*
X153433928Y-112547619D01*
X153386309Y-112500000D01*
X153291071Y-112452380D01*
X153052976Y-112452380D01*
X152910119Y-112500000D01*
X152291071Y-112452380D02*
X152100595Y-112452380D01*
X152005357Y-112500000D01*
X151910119Y-112595238D01*
X151862500Y-112785714D01*
X151862500Y-113119047D01*
X151910119Y-113309523D01*
X152005357Y-113404761D01*
X152100595Y-113452380D01*
X152291071Y-113452380D01*
X152386309Y-113404761D01*
X152481547Y-113309523D01*
X152529166Y-113119047D01*
X152529166Y-112785714D01*
X152481547Y-112595238D01*
X152386309Y-112500000D01*
X152291071Y-112452380D01*
X151576785Y-112452380D02*
X151005357Y-112452380D01*
X151291071Y-113452380D02*
X151291071Y-112452380D01*
X150719642Y-112547619D02*
X150672023Y-112500000D01*
X150576785Y-112452380D01*
X150338690Y-112452380D01*
X150243452Y-112500000D01*
X150195833Y-112547619D01*
X150148214Y-112642857D01*
X150148214Y-112738095D01*
X150195833Y-112880952D01*
X150767261Y-113452380D01*
X150148214Y-113452380D01*
X149767261Y-112547619D02*
X149719642Y-112500000D01*
X149624404Y-112452380D01*
X149386309Y-112452380D01*
X149291071Y-112500000D01*
X149243452Y-112547619D01*
X149195833Y-112642857D01*
X149195833Y-112738095D01*
X149243452Y-112880952D01*
X149814880Y-113452380D01*
X149195833Y-113452380D01*
X148862500Y-112452380D02*
X148243452Y-112452380D01*
X148576785Y-112833333D01*
X148433928Y-112833333D01*
X148338690Y-112880952D01*
X148291071Y-112928571D01*
X148243452Y-113023809D01*
X148243452Y-113261904D01*
X148291071Y-113357142D01*
X148338690Y-113404761D01*
X148433928Y-113452380D01*
X148719642Y-113452380D01*
X148814880Y-113404761D01*
X148862500Y-113357142D01*
D13*
X155924404Y-108390476D02*
X156572023Y-108390476D01*
X156648214Y-108428571D01*
X156686309Y-108466666D01*
X156724404Y-108542857D01*
X156724404Y-108695238D01*
X156686309Y-108771428D01*
X156648214Y-108809523D01*
X156572023Y-108847619D01*
X155924404Y-108847619D01*
X156191071Y-109571428D02*
X156724404Y-109571428D01*
X155886309Y-109380952D02*
X156457738Y-109190476D01*
X156457738Y-109685714D01*
D10*
%TO.C,U2*%
X169738095Y-96052380D02*
X170214285Y-96052380D01*
X170214285Y-95052380D01*
X169404761Y-96052380D02*
X169404761Y-95052380D01*
X169071428Y-95766666D01*
X168738095Y-95052380D01*
X168738095Y-96052380D01*
X168404761Y-95052380D02*
X168071428Y-96052380D01*
X167738095Y-95052380D01*
X167500000Y-95052380D02*
X166880952Y-95052380D01*
X167214285Y-95433333D01*
X167071428Y-95433333D01*
X166976190Y-95480952D01*
X166928571Y-95528571D01*
X166880952Y-95623809D01*
X166880952Y-95861904D01*
X166928571Y-95957142D01*
X166976190Y-96004761D01*
X167071428Y-96052380D01*
X167357142Y-96052380D01*
X167452380Y-96004761D01*
X167500000Y-95957142D01*
X165976190Y-95052380D02*
X166452380Y-95052380D01*
X166500000Y-95528571D01*
X166452380Y-95480952D01*
X166357142Y-95433333D01*
X166119047Y-95433333D01*
X166023809Y-95480952D01*
X165976190Y-95528571D01*
X165928571Y-95623809D01*
X165928571Y-95861904D01*
X165976190Y-95957142D01*
X166023809Y-96004761D01*
X166119047Y-96052380D01*
X166357142Y-96052380D01*
X166452380Y-96004761D01*
X166500000Y-95957142D01*
X165357142Y-95480952D02*
X165452380Y-95433333D01*
X165500000Y-95385714D01*
X165547619Y-95290476D01*
X165547619Y-95242857D01*
X165500000Y-95147619D01*
X165452380Y-95100000D01*
X165357142Y-95052380D01*
X165166666Y-95052380D01*
X165071428Y-95100000D01*
X165023809Y-95147619D01*
X164976190Y-95242857D01*
X164976190Y-95290476D01*
X165023809Y-95385714D01*
X165071428Y-95433333D01*
X165166666Y-95480952D01*
X165357142Y-95480952D01*
X165452380Y-95528571D01*
X165500000Y-95576190D01*
X165547619Y-95671428D01*
X165547619Y-95861904D01*
X165500000Y-95957142D01*
X165452380Y-96004761D01*
X165357142Y-96052380D01*
X165166666Y-96052380D01*
X165071428Y-96004761D01*
X165023809Y-95957142D01*
X164976190Y-95861904D01*
X164976190Y-95671428D01*
X165023809Y-95576190D01*
X165071428Y-95528571D01*
X165166666Y-95480952D01*
X164547619Y-96052380D02*
X164547619Y-95052380D01*
X164071428Y-96052380D02*
X164071428Y-95052380D01*
X163833333Y-95052380D01*
X163690476Y-95100000D01*
X163595238Y-95195238D01*
X163547619Y-95290476D01*
X163500000Y-95480952D01*
X163500000Y-95623809D01*
X163547619Y-95814285D01*
X163595238Y-95909523D01*
X163690476Y-96004761D01*
X163833333Y-96052380D01*
X164071428Y-96052380D01*
X163214285Y-95052380D02*
X162642857Y-95052380D01*
X162928571Y-96052380D02*
X162928571Y-95052380D01*
X167246666Y-98463333D02*
X167246666Y-99256666D01*
X167200000Y-99350000D01*
X167153333Y-99396666D01*
X167060000Y-99443333D01*
X166873333Y-99443333D01*
X166780000Y-99396666D01*
X166733333Y-99350000D01*
X166686666Y-99256666D01*
X166686666Y-98463333D01*
X166266666Y-98556666D02*
X166220000Y-98510000D01*
X166126666Y-98463333D01*
X165893333Y-98463333D01*
X165800000Y-98510000D01*
X165753333Y-98556666D01*
X165706666Y-98650000D01*
X165706666Y-98743333D01*
X165753333Y-98883333D01*
X166313333Y-99443333D01*
X165706666Y-99443333D01*
%TO.C,D4*%
X138261904Y-191902380D02*
X138261904Y-190902380D01*
X138023809Y-190902380D01*
X137880952Y-190950000D01*
X137785714Y-191045238D01*
X137738095Y-191140476D01*
X137690476Y-191330952D01*
X137690476Y-191473809D01*
X137738095Y-191664285D01*
X137785714Y-191759523D01*
X137880952Y-191854761D01*
X138023809Y-191902380D01*
X138261904Y-191902380D01*
D11*
X138369047Y-193226190D02*
X138369047Y-192726190D01*
X138250000Y-192726190D01*
X138178571Y-192750000D01*
X138130952Y-192797619D01*
X138107142Y-192845238D01*
X138083333Y-192940476D01*
X138083333Y-193011904D01*
X138107142Y-193107142D01*
X138130952Y-193154761D01*
X138178571Y-193202380D01*
X138250000Y-193226190D01*
X138369047Y-193226190D01*
X137654761Y-192892857D02*
X137654761Y-193226190D01*
X137773809Y-192702380D02*
X137892857Y-193059523D01*
X137583333Y-193059523D01*
D12*
%TO.C,Y1*%
X153969761Y-132395238D02*
X154574523Y-132395238D01*
X153304523Y-131971904D02*
X153969761Y-132395238D01*
X153304523Y-132818571D01*
X154574523Y-133907142D02*
X154574523Y-133181428D01*
X154574523Y-133544285D02*
X153304523Y-133544285D01*
X153485952Y-133423333D01*
X153606904Y-133302380D01*
X153667380Y-133181428D01*
D10*
%TO.C,C6*%
X164547619Y-155132380D02*
X165119047Y-155132380D01*
X164833333Y-155132380D02*
X164833333Y-154132380D01*
X164928571Y-154275238D01*
X165023809Y-154370476D01*
X165119047Y-154418095D01*
X163928571Y-154132380D02*
X163833333Y-154132380D01*
X163738095Y-154180000D01*
X163690476Y-154227619D01*
X163642857Y-154322857D01*
X163595238Y-154513333D01*
X163595238Y-154751428D01*
X163642857Y-154941904D01*
X163690476Y-155037142D01*
X163738095Y-155084761D01*
X163833333Y-155132380D01*
X163928571Y-155132380D01*
X164023809Y-155084761D01*
X164071428Y-155037142D01*
X164119047Y-154941904D01*
X164166666Y-154751428D01*
X164166666Y-154513333D01*
X164119047Y-154322857D01*
X164071428Y-154227619D01*
X164023809Y-154180000D01*
X163928571Y-154132380D01*
X162976190Y-154132380D02*
X162880952Y-154132380D01*
X162785714Y-154180000D01*
X162738095Y-154227619D01*
X162690476Y-154322857D01*
X162642857Y-154513333D01*
X162642857Y-154751428D01*
X162690476Y-154941904D01*
X162738095Y-155037142D01*
X162785714Y-155084761D01*
X162880952Y-155132380D01*
X162976190Y-155132380D01*
X163071428Y-155084761D01*
X163119047Y-155037142D01*
X163166666Y-154941904D01*
X163214285Y-154751428D01*
X163214285Y-154513333D01*
X163166666Y-154322857D01*
X163119047Y-154227619D01*
X163071428Y-154180000D01*
X162976190Y-154132380D01*
X162214285Y-154465714D02*
X162214285Y-155132380D01*
X162214285Y-154560952D02*
X162166666Y-154513333D01*
X162071428Y-154465714D01*
X161928571Y-154465714D01*
X161833333Y-154513333D01*
X161785714Y-154608571D01*
X161785714Y-155132380D01*
X160976190Y-154608571D02*
X161309523Y-154608571D01*
X161309523Y-155132380D02*
X161309523Y-154132380D01*
X160833333Y-154132380D01*
D11*
X163083333Y-153178571D02*
X163107142Y-153202380D01*
X163178571Y-153226190D01*
X163226190Y-153226190D01*
X163297619Y-153202380D01*
X163345238Y-153154761D01*
X163369047Y-153107142D01*
X163392857Y-153011904D01*
X163392857Y-152940476D01*
X163369047Y-152845238D01*
X163345238Y-152797619D01*
X163297619Y-152750000D01*
X163226190Y-152726190D01*
X163178571Y-152726190D01*
X163107142Y-152750000D01*
X163083333Y-152773809D01*
X162654761Y-152726190D02*
X162750000Y-152726190D01*
X162797619Y-152750000D01*
X162821428Y-152773809D01*
X162869047Y-152845238D01*
X162892857Y-152940476D01*
X162892857Y-153130952D01*
X162869047Y-153178571D01*
X162845238Y-153202380D01*
X162797619Y-153226190D01*
X162702380Y-153226190D01*
X162654761Y-153202380D01*
X162630952Y-153178571D01*
X162607142Y-153130952D01*
X162607142Y-153011904D01*
X162630952Y-152964285D01*
X162654761Y-152940476D01*
X162702380Y-152916666D01*
X162797619Y-152916666D01*
X162845238Y-152940476D01*
X162869047Y-152964285D01*
X162892857Y-153011904D01*
D12*
%TO.C,D14*%
X132074523Y-111207857D02*
X130804523Y-111207857D01*
X130804523Y-111510238D01*
X130865000Y-111691666D01*
X130985952Y-111812619D01*
X131106904Y-111873095D01*
X131348809Y-111933571D01*
X131530238Y-111933571D01*
X131772142Y-111873095D01*
X131893095Y-111812619D01*
X132014047Y-111691666D01*
X132074523Y-111510238D01*
X132074523Y-111207857D01*
X132074523Y-113143095D02*
X132074523Y-112417380D01*
X132074523Y-112780238D02*
X130804523Y-112780238D01*
X130985952Y-112659285D01*
X131106904Y-112538333D01*
X131167380Y-112417380D01*
X131227857Y-114231666D02*
X132074523Y-114231666D01*
X130744047Y-113929285D02*
X131651190Y-113626904D01*
X131651190Y-114413095D01*
D10*
%TO.C,D2*%
X126261904Y-178902380D02*
X126261904Y-177902380D01*
X126023809Y-177902380D01*
X125880952Y-177950000D01*
X125785714Y-178045238D01*
X125738095Y-178140476D01*
X125690476Y-178330952D01*
X125690476Y-178473809D01*
X125738095Y-178664285D01*
X125785714Y-178759523D01*
X125880952Y-178854761D01*
X126023809Y-178902380D01*
X126261904Y-178902380D01*
D11*
X126369047Y-180226190D02*
X126369047Y-179726190D01*
X126250000Y-179726190D01*
X126178571Y-179750000D01*
X126130952Y-179797619D01*
X126107142Y-179845238D01*
X126083333Y-179940476D01*
X126083333Y-180011904D01*
X126107142Y-180107142D01*
X126130952Y-180154761D01*
X126178571Y-180202380D01*
X126250000Y-180226190D01*
X126369047Y-180226190D01*
X125892857Y-179773809D02*
X125869047Y-179750000D01*
X125821428Y-179726190D01*
X125702380Y-179726190D01*
X125654761Y-179750000D01*
X125630952Y-179773809D01*
X125607142Y-179821428D01*
X125607142Y-179869047D01*
X125630952Y-179940476D01*
X125916666Y-180226190D01*
X125607142Y-180226190D01*
D10*
%TO.C,R12*%
X159802380Y-95223214D02*
X159802380Y-94651785D01*
X159802380Y-94937500D02*
X158802380Y-94937500D01*
X158945238Y-94842261D01*
X159040476Y-94747023D01*
X159088095Y-94651785D01*
X159802380Y-95651785D02*
X158802380Y-95651785D01*
X159802380Y-96223214D02*
X159230952Y-95794642D01*
X158802380Y-96223214D02*
X159373809Y-95651785D01*
D11*
X161226190Y-95116071D02*
X160988095Y-94949404D01*
X161226190Y-94830357D02*
X160726190Y-94830357D01*
X160726190Y-95020833D01*
X160750000Y-95068452D01*
X160773809Y-95092261D01*
X160821428Y-95116071D01*
X160892857Y-95116071D01*
X160940476Y-95092261D01*
X160964285Y-95068452D01*
X160988095Y-95020833D01*
X160988095Y-94830357D01*
X161226190Y-95592261D02*
X161226190Y-95306547D01*
X161226190Y-95449404D02*
X160726190Y-95449404D01*
X160797619Y-95401785D01*
X160845238Y-95354166D01*
X160869047Y-95306547D01*
X160773809Y-95782738D02*
X160750000Y-95806547D01*
X160726190Y-95854166D01*
X160726190Y-95973214D01*
X160750000Y-96020833D01*
X160773809Y-96044642D01*
X160821428Y-96068452D01*
X160869047Y-96068452D01*
X160940476Y-96044642D01*
X161226190Y-95758928D01*
X161226190Y-96068452D01*
D10*
%TO.C,D12*%
X174261904Y-241902380D02*
X174261904Y-240902380D01*
X174023809Y-240902380D01*
X173880952Y-240950000D01*
X173785714Y-241045238D01*
X173738095Y-241140476D01*
X173690476Y-241330952D01*
X173690476Y-241473809D01*
X173738095Y-241664285D01*
X173785714Y-241759523D01*
X173880952Y-241854761D01*
X174023809Y-241902380D01*
X174261904Y-241902380D01*
D11*
X174607142Y-243226190D02*
X174607142Y-242726190D01*
X174488095Y-242726190D01*
X174416666Y-242750000D01*
X174369047Y-242797619D01*
X174345238Y-242845238D01*
X174321428Y-242940476D01*
X174321428Y-243011904D01*
X174345238Y-243107142D01*
X174369047Y-243154761D01*
X174416666Y-243202380D01*
X174488095Y-243226190D01*
X174607142Y-243226190D01*
X173845238Y-243226190D02*
X174130952Y-243226190D01*
X173988095Y-243226190D02*
X173988095Y-242726190D01*
X174035714Y-242797619D01*
X174083333Y-242845238D01*
X174130952Y-242869047D01*
X173654761Y-242773809D02*
X173630952Y-242750000D01*
X173583333Y-242726190D01*
X173464285Y-242726190D01*
X173416666Y-242750000D01*
X173392857Y-242773809D01*
X173369047Y-242821428D01*
X173369047Y-242869047D01*
X173392857Y-242940476D01*
X173678571Y-243226190D01*
X173369047Y-243226190D01*
D10*
%TO.C,R1*%
X150148214Y-128639880D02*
X150719642Y-128639880D01*
X150433928Y-128639880D02*
X150433928Y-127639880D01*
X150529166Y-127782738D01*
X150624404Y-127877976D01*
X150719642Y-127925595D01*
X149719642Y-128639880D02*
X149719642Y-127639880D01*
X149386309Y-128354166D01*
X149052976Y-127639880D01*
X149052976Y-128639880D01*
D11*
X149945833Y-130063690D02*
X150112500Y-129825595D01*
X150231547Y-130063690D02*
X150231547Y-129563690D01*
X150041071Y-129563690D01*
X149993452Y-129587500D01*
X149969642Y-129611309D01*
X149945833Y-129658928D01*
X149945833Y-129730357D01*
X149969642Y-129777976D01*
X149993452Y-129801785D01*
X150041071Y-129825595D01*
X150231547Y-129825595D01*
X149469642Y-130063690D02*
X149755357Y-130063690D01*
X149612500Y-130063690D02*
X149612500Y-129563690D01*
X149660119Y-129635119D01*
X149707738Y-129682738D01*
X149755357Y-129706547D01*
D10*
%TO.C,R10*%
X153664285Y-99102380D02*
X154235714Y-99102380D01*
X153950000Y-99102380D02*
X153950000Y-98102380D01*
X154045238Y-98245238D01*
X154140476Y-98340476D01*
X154235714Y-98388095D01*
X153235714Y-99102380D02*
X153235714Y-98102380D01*
X152664285Y-99102380D02*
X153092857Y-98530952D01*
X152664285Y-98102380D02*
X153235714Y-98673809D01*
D11*
X153771428Y-97226190D02*
X153938095Y-96988095D01*
X154057142Y-97226190D02*
X154057142Y-96726190D01*
X153866666Y-96726190D01*
X153819047Y-96750000D01*
X153795238Y-96773809D01*
X153771428Y-96821428D01*
X153771428Y-96892857D01*
X153795238Y-96940476D01*
X153819047Y-96964285D01*
X153866666Y-96988095D01*
X154057142Y-96988095D01*
X153295238Y-97226190D02*
X153580952Y-97226190D01*
X153438095Y-97226190D02*
X153438095Y-96726190D01*
X153485714Y-96797619D01*
X153533333Y-96845238D01*
X153580952Y-96869047D01*
X152985714Y-96726190D02*
X152938095Y-96726190D01*
X152890476Y-96750000D01*
X152866666Y-96773809D01*
X152842857Y-96821428D01*
X152819047Y-96916666D01*
X152819047Y-97035714D01*
X152842857Y-97130952D01*
X152866666Y-97178571D01*
X152890476Y-97202380D01*
X152938095Y-97226190D01*
X152985714Y-97226190D01*
X153033333Y-97202380D01*
X153057142Y-97178571D01*
X153080952Y-97130952D01*
X153104761Y-97035714D01*
X153104761Y-96916666D01*
X153080952Y-96821428D01*
X153057142Y-96773809D01*
X153033333Y-96750000D01*
X152985714Y-96726190D01*
D10*
%TO.C,C14*%
X137817619Y-124357142D02*
X137770000Y-124404761D01*
X137722380Y-124500000D01*
X137722380Y-124738095D01*
X137770000Y-124833333D01*
X137817619Y-124880952D01*
X137912857Y-124928571D01*
X138008095Y-124928571D01*
X138150952Y-124880952D01*
X138722380Y-124309523D01*
X138722380Y-124928571D01*
X137817619Y-125309523D02*
X137770000Y-125357142D01*
X137722380Y-125452380D01*
X137722380Y-125690476D01*
X137770000Y-125785714D01*
X137817619Y-125833333D01*
X137912857Y-125880952D01*
X138008095Y-125880952D01*
X138150952Y-125833333D01*
X138722380Y-125261904D01*
X138722380Y-125880952D01*
X138055714Y-126309523D02*
X139055714Y-126309523D01*
X138103333Y-126309523D02*
X138055714Y-126404761D01*
X138055714Y-126595238D01*
X138103333Y-126690476D01*
X138150952Y-126738095D01*
X138246190Y-126785714D01*
X138531904Y-126785714D01*
X138627142Y-126738095D01*
X138674761Y-126690476D01*
X138722380Y-126595238D01*
X138722380Y-126404761D01*
X138674761Y-126309523D01*
X138198571Y-127547619D02*
X138198571Y-127214285D01*
X138722380Y-127214285D02*
X137722380Y-127214285D01*
X137722380Y-127690476D01*
D11*
X140128571Y-125678571D02*
X140152380Y-125654761D01*
X140176190Y-125583333D01*
X140176190Y-125535714D01*
X140152380Y-125464285D01*
X140104761Y-125416666D01*
X140057142Y-125392857D01*
X139961904Y-125369047D01*
X139890476Y-125369047D01*
X139795238Y-125392857D01*
X139747619Y-125416666D01*
X139700000Y-125464285D01*
X139676190Y-125535714D01*
X139676190Y-125583333D01*
X139700000Y-125654761D01*
X139723809Y-125678571D01*
X140176190Y-126154761D02*
X140176190Y-125869047D01*
X140176190Y-126011904D02*
X139676190Y-126011904D01*
X139747619Y-125964285D01*
X139795238Y-125916666D01*
X139819047Y-125869047D01*
X139842857Y-126583333D02*
X140176190Y-126583333D01*
X139652380Y-126464285D02*
X140009523Y-126345238D01*
X140009523Y-126654761D01*
D10*
%TO.C,R9*%
X134302380Y-122785714D02*
X134302380Y-122214285D01*
X134302380Y-122500000D02*
X133302380Y-122500000D01*
X133445238Y-122404761D01*
X133540476Y-122309523D01*
X133588095Y-122214285D01*
X134302380Y-123214285D02*
X133302380Y-123214285D01*
X134302380Y-123785714D02*
X133730952Y-123357142D01*
X133302380Y-123785714D02*
X133873809Y-123214285D01*
D11*
X135726190Y-122916666D02*
X135488095Y-122750000D01*
X135726190Y-122630952D02*
X135226190Y-122630952D01*
X135226190Y-122821428D01*
X135250000Y-122869047D01*
X135273809Y-122892857D01*
X135321428Y-122916666D01*
X135392857Y-122916666D01*
X135440476Y-122892857D01*
X135464285Y-122869047D01*
X135488095Y-122821428D01*
X135488095Y-122630952D01*
X135726190Y-123154761D02*
X135726190Y-123250000D01*
X135702380Y-123297619D01*
X135678571Y-123321428D01*
X135607142Y-123369047D01*
X135511904Y-123392857D01*
X135321428Y-123392857D01*
X135273809Y-123369047D01*
X135250000Y-123345238D01*
X135226190Y-123297619D01*
X135226190Y-123202380D01*
X135250000Y-123154761D01*
X135273809Y-123130952D01*
X135321428Y-123107142D01*
X135440476Y-123107142D01*
X135488095Y-123130952D01*
X135511904Y-123154761D01*
X135535714Y-123202380D01*
X135535714Y-123297619D01*
X135511904Y-123345238D01*
X135488095Y-123369047D01*
X135440476Y-123392857D01*
D10*
%TO.C,D5*%
X150261904Y-178902380D02*
X150261904Y-177902380D01*
X150023809Y-177902380D01*
X149880952Y-177950000D01*
X149785714Y-178045238D01*
X149738095Y-178140476D01*
X149690476Y-178330952D01*
X149690476Y-178473809D01*
X149738095Y-178664285D01*
X149785714Y-178759523D01*
X149880952Y-178854761D01*
X150023809Y-178902380D01*
X150261904Y-178902380D01*
D11*
X150369047Y-180226190D02*
X150369047Y-179726190D01*
X150250000Y-179726190D01*
X150178571Y-179750000D01*
X150130952Y-179797619D01*
X150107142Y-179845238D01*
X150083333Y-179940476D01*
X150083333Y-180011904D01*
X150107142Y-180107142D01*
X150130952Y-180154761D01*
X150178571Y-180202380D01*
X150250000Y-180226190D01*
X150369047Y-180226190D01*
X149630952Y-179726190D02*
X149869047Y-179726190D01*
X149892857Y-179964285D01*
X149869047Y-179940476D01*
X149821428Y-179916666D01*
X149702380Y-179916666D01*
X149654761Y-179940476D01*
X149630952Y-179964285D01*
X149607142Y-180011904D01*
X149607142Y-180130952D01*
X149630952Y-180178571D01*
X149654761Y-180202380D01*
X149702380Y-180226190D01*
X149821428Y-180226190D01*
X149869047Y-180202380D01*
X149892857Y-180178571D01*
D10*
%TO.C,U3*%
X160523809Y-144666666D02*
X160047619Y-144666666D01*
X160619047Y-144952380D02*
X160285714Y-143952380D01*
X159952380Y-144952380D01*
X159761904Y-143952380D02*
X159190476Y-143952380D01*
X159476190Y-144952380D02*
X159476190Y-143952380D01*
X158857142Y-144952380D02*
X158857142Y-144285714D01*
X158857142Y-144380952D02*
X158809523Y-144333333D01*
X158714285Y-144285714D01*
X158571428Y-144285714D01*
X158476190Y-144333333D01*
X158428571Y-144428571D01*
X158428571Y-144952380D01*
X158428571Y-144428571D02*
X158380952Y-144333333D01*
X158285714Y-144285714D01*
X158142857Y-144285714D01*
X158047619Y-144333333D01*
X158000000Y-144428571D01*
X158000000Y-144952380D01*
X157142857Y-144904761D02*
X157238095Y-144952380D01*
X157428571Y-144952380D01*
X157523809Y-144904761D01*
X157571428Y-144809523D01*
X157571428Y-144428571D01*
X157523809Y-144333333D01*
X157428571Y-144285714D01*
X157238095Y-144285714D01*
X157142857Y-144333333D01*
X157095238Y-144428571D01*
X157095238Y-144523809D01*
X157571428Y-144619047D01*
X156238095Y-144285714D02*
X156238095Y-145095238D01*
X156285714Y-145190476D01*
X156333333Y-145238095D01*
X156428571Y-145285714D01*
X156571428Y-145285714D01*
X156666666Y-145238095D01*
X156238095Y-144904761D02*
X156333333Y-144952380D01*
X156523809Y-144952380D01*
X156619047Y-144904761D01*
X156666666Y-144857142D01*
X156714285Y-144761904D01*
X156714285Y-144476190D01*
X156666666Y-144380952D01*
X156619047Y-144333333D01*
X156523809Y-144285714D01*
X156333333Y-144285714D01*
X156238095Y-144333333D01*
X155333333Y-144952380D02*
X155333333Y-144428571D01*
X155380952Y-144333333D01*
X155476190Y-144285714D01*
X155666666Y-144285714D01*
X155761904Y-144333333D01*
X155333333Y-144904761D02*
X155428571Y-144952380D01*
X155666666Y-144952380D01*
X155761904Y-144904761D01*
X155809523Y-144809523D01*
X155809523Y-144714285D01*
X155761904Y-144619047D01*
X155666666Y-144571428D01*
X155428571Y-144571428D01*
X155333333Y-144523809D01*
X154904761Y-144047619D02*
X154857142Y-144000000D01*
X154761904Y-143952380D01*
X154523809Y-143952380D01*
X154428571Y-144000000D01*
X154380952Y-144047619D01*
X154333333Y-144142857D01*
X154333333Y-144238095D01*
X154380952Y-144380952D01*
X154952380Y-144952380D01*
X154333333Y-144952380D01*
X153428571Y-143952380D02*
X153904761Y-143952380D01*
X153952380Y-144428571D01*
X153904761Y-144380952D01*
X153809523Y-144333333D01*
X153571428Y-144333333D01*
X153476190Y-144380952D01*
X153428571Y-144428571D01*
X153380952Y-144523809D01*
X153380952Y-144761904D01*
X153428571Y-144857142D01*
X153476190Y-144904761D01*
X153571428Y-144952380D01*
X153809523Y-144952380D01*
X153904761Y-144904761D01*
X153952380Y-144857142D01*
X152523809Y-143952380D02*
X152714285Y-143952380D01*
X152809523Y-144000000D01*
X152857142Y-144047619D01*
X152952380Y-144190476D01*
X153000000Y-144380952D01*
X153000000Y-144761904D01*
X152952380Y-144857142D01*
X152904761Y-144904761D01*
X152809523Y-144952380D01*
X152619047Y-144952380D01*
X152523809Y-144904761D01*
X152476190Y-144857142D01*
X152428571Y-144761904D01*
X152428571Y-144523809D01*
X152476190Y-144428571D01*
X152523809Y-144380952D01*
X152619047Y-144333333D01*
X152809523Y-144333333D01*
X152904761Y-144380952D01*
X152952380Y-144428571D01*
X153000000Y-144523809D01*
X151809523Y-143952380D02*
X151714285Y-143952380D01*
X151619047Y-144000000D01*
X151571428Y-144047619D01*
X151523809Y-144142857D01*
X151476190Y-144333333D01*
X151476190Y-144571428D01*
X151523809Y-144761904D01*
X151571428Y-144857142D01*
X151619047Y-144904761D01*
X151714285Y-144952380D01*
X151809523Y-144952380D01*
X151904761Y-144904761D01*
X151952380Y-144857142D01*
X152000000Y-144761904D01*
X152047619Y-144571428D01*
X152047619Y-144333333D01*
X152000000Y-144142857D01*
X151952380Y-144047619D01*
X151904761Y-144000000D01*
X151809523Y-143952380D01*
X151047619Y-144571428D02*
X150285714Y-144571428D01*
X149285714Y-144952380D02*
X149857142Y-144952380D01*
X149571428Y-144952380D02*
X149571428Y-143952380D01*
X149666666Y-144095238D01*
X149761904Y-144190476D01*
X149857142Y-144238095D01*
X148428571Y-143952380D02*
X148619047Y-143952380D01*
X148714285Y-144000000D01*
X148761904Y-144047619D01*
X148857142Y-144190476D01*
X148904761Y-144380952D01*
X148904761Y-144761904D01*
X148857142Y-144857142D01*
X148809523Y-144904761D01*
X148714285Y-144952380D01*
X148523809Y-144952380D01*
X148428571Y-144904761D01*
X148380952Y-144857142D01*
X148333333Y-144761904D01*
X148333333Y-144523809D01*
X148380952Y-144428571D01*
X148428571Y-144380952D01*
X148523809Y-144333333D01*
X148714285Y-144333333D01*
X148809523Y-144380952D01*
X148857142Y-144428571D01*
X148904761Y-144523809D01*
X147952380Y-144666666D02*
X147476190Y-144666666D01*
X148047619Y-144952380D02*
X147714285Y-143952380D01*
X147380952Y-144952380D01*
X154761904Y-143789880D02*
X154761904Y-144599404D01*
X154714285Y-144694642D01*
X154666666Y-144742261D01*
X154571428Y-144789880D01*
X154380952Y-144789880D01*
X154285714Y-144742261D01*
X154238095Y-144694642D01*
X154190476Y-144599404D01*
X154190476Y-143789880D01*
X153809523Y-143789880D02*
X153190476Y-143789880D01*
X153523809Y-144170833D01*
X153380952Y-144170833D01*
X153285714Y-144218452D01*
X153238095Y-144266071D01*
X153190476Y-144361309D01*
X153190476Y-144599404D01*
X153238095Y-144694642D01*
X153285714Y-144742261D01*
X153380952Y-144789880D01*
X153666666Y-144789880D01*
X153761904Y-144742261D01*
X153809523Y-144694642D01*
%TO.C,C5*%
X147772380Y-153452380D02*
X147772380Y-152880952D01*
X147772380Y-153166666D02*
X146772380Y-153166666D01*
X146915238Y-153071428D01*
X147010476Y-152976190D01*
X147058095Y-152880952D01*
X146772380Y-154071428D02*
X146772380Y-154166666D01*
X146820000Y-154261904D01*
X146867619Y-154309523D01*
X146962857Y-154357142D01*
X147153333Y-154404761D01*
X147391428Y-154404761D01*
X147581904Y-154357142D01*
X147677142Y-154309523D01*
X147724761Y-154261904D01*
X147772380Y-154166666D01*
X147772380Y-154071428D01*
X147724761Y-153976190D01*
X147677142Y-153928571D01*
X147581904Y-153880952D01*
X147391428Y-153833333D01*
X147153333Y-153833333D01*
X146962857Y-153880952D01*
X146867619Y-153928571D01*
X146820000Y-153976190D01*
X146772380Y-154071428D01*
X146772380Y-155023809D02*
X146772380Y-155119047D01*
X146820000Y-155214285D01*
X146867619Y-155261904D01*
X146962857Y-155309523D01*
X147153333Y-155357142D01*
X147391428Y-155357142D01*
X147581904Y-155309523D01*
X147677142Y-155261904D01*
X147724761Y-155214285D01*
X147772380Y-155119047D01*
X147772380Y-155023809D01*
X147724761Y-154928571D01*
X147677142Y-154880952D01*
X147581904Y-154833333D01*
X147391428Y-154785714D01*
X147153333Y-154785714D01*
X146962857Y-154833333D01*
X146867619Y-154880952D01*
X146820000Y-154928571D01*
X146772380Y-155023809D01*
X147105714Y-155785714D02*
X147772380Y-155785714D01*
X147200952Y-155785714D02*
X147153333Y-155833333D01*
X147105714Y-155928571D01*
X147105714Y-156071428D01*
X147153333Y-156166666D01*
X147248571Y-156214285D01*
X147772380Y-156214285D01*
X147248571Y-157023809D02*
X147248571Y-156690476D01*
X147772380Y-156690476D02*
X146772380Y-156690476D01*
X146772380Y-157166666D01*
D11*
X149178571Y-154916666D02*
X149202380Y-154892857D01*
X149226190Y-154821428D01*
X149226190Y-154773809D01*
X149202380Y-154702380D01*
X149154761Y-154654761D01*
X149107142Y-154630952D01*
X149011904Y-154607142D01*
X148940476Y-154607142D01*
X148845238Y-154630952D01*
X148797619Y-154654761D01*
X148750000Y-154702380D01*
X148726190Y-154773809D01*
X148726190Y-154821428D01*
X148750000Y-154892857D01*
X148773809Y-154916666D01*
X148726190Y-155369047D02*
X148726190Y-155130952D01*
X148964285Y-155107142D01*
X148940476Y-155130952D01*
X148916666Y-155178571D01*
X148916666Y-155297619D01*
X148940476Y-155345238D01*
X148964285Y-155369047D01*
X149011904Y-155392857D01*
X149130952Y-155392857D01*
X149178571Y-155369047D01*
X149202380Y-155345238D01*
X149226190Y-155297619D01*
X149226190Y-155178571D01*
X149202380Y-155130952D01*
X149178571Y-155107142D01*
D10*
%TO.C,R11*%
X156802380Y-95223214D02*
X156802380Y-94651785D01*
X156802380Y-94937500D02*
X155802380Y-94937500D01*
X155945238Y-94842261D01*
X156040476Y-94747023D01*
X156088095Y-94651785D01*
X156802380Y-95651785D02*
X155802380Y-95651785D01*
X156802380Y-96223214D02*
X156230952Y-95794642D01*
X155802380Y-96223214D02*
X156373809Y-95651785D01*
D11*
X158226190Y-95116071D02*
X157988095Y-94949404D01*
X158226190Y-94830357D02*
X157726190Y-94830357D01*
X157726190Y-95020833D01*
X157750000Y-95068452D01*
X157773809Y-95092261D01*
X157821428Y-95116071D01*
X157892857Y-95116071D01*
X157940476Y-95092261D01*
X157964285Y-95068452D01*
X157988095Y-95020833D01*
X157988095Y-94830357D01*
X158226190Y-95592261D02*
X158226190Y-95306547D01*
X158226190Y-95449404D02*
X157726190Y-95449404D01*
X157797619Y-95401785D01*
X157845238Y-95354166D01*
X157869047Y-95306547D01*
X158226190Y-96068452D02*
X158226190Y-95782738D01*
X158226190Y-95925595D02*
X157726190Y-95925595D01*
X157797619Y-95877976D01*
X157845238Y-95830357D01*
X157869047Y-95782738D01*
D10*
%TO.C,R2*%
X175140476Y-97802380D02*
X175711904Y-97802380D01*
X175426190Y-97802380D02*
X175426190Y-96802380D01*
X175521428Y-96945238D01*
X175616666Y-97040476D01*
X175711904Y-97088095D01*
X174521428Y-96802380D02*
X174426190Y-96802380D01*
X174330952Y-96850000D01*
X174283333Y-96897619D01*
X174235714Y-96992857D01*
X174188095Y-97183333D01*
X174188095Y-97421428D01*
X174235714Y-97611904D01*
X174283333Y-97707142D01*
X174330952Y-97754761D01*
X174426190Y-97802380D01*
X174521428Y-97802380D01*
X174616666Y-97754761D01*
X174664285Y-97707142D01*
X174711904Y-97611904D01*
X174759523Y-97421428D01*
X174759523Y-97183333D01*
X174711904Y-96992857D01*
X174664285Y-96897619D01*
X174616666Y-96850000D01*
X174521428Y-96802380D01*
X173759523Y-97802380D02*
X173759523Y-96802380D01*
X173188095Y-97802380D02*
X173616666Y-97230952D01*
X173188095Y-96802380D02*
X173759523Y-97373809D01*
D11*
X174533333Y-99226190D02*
X174700000Y-98988095D01*
X174819047Y-99226190D02*
X174819047Y-98726190D01*
X174628571Y-98726190D01*
X174580952Y-98750000D01*
X174557142Y-98773809D01*
X174533333Y-98821428D01*
X174533333Y-98892857D01*
X174557142Y-98940476D01*
X174580952Y-98964285D01*
X174628571Y-98988095D01*
X174819047Y-98988095D01*
X174342857Y-98773809D02*
X174319047Y-98750000D01*
X174271428Y-98726190D01*
X174152380Y-98726190D01*
X174104761Y-98750000D01*
X174080952Y-98773809D01*
X174057142Y-98821428D01*
X174057142Y-98869047D01*
X174080952Y-98940476D01*
X174366666Y-99226190D01*
X174057142Y-99226190D01*
D10*
%TO.C,R6*%
X131697619Y-105238095D02*
X131650000Y-105285714D01*
X131602380Y-105380952D01*
X131602380Y-105619047D01*
X131650000Y-105714285D01*
X131697619Y-105761904D01*
X131792857Y-105809523D01*
X131888095Y-105809523D01*
X132030952Y-105761904D01*
X132602380Y-105190476D01*
X132602380Y-105809523D01*
X131697619Y-106190476D02*
X131650000Y-106238095D01*
X131602380Y-106333333D01*
X131602380Y-106571428D01*
X131650000Y-106666666D01*
X131697619Y-106714285D01*
X131792857Y-106761904D01*
X131888095Y-106761904D01*
X132030952Y-106714285D01*
X132602380Y-106142857D01*
X132602380Y-106761904D01*
D11*
X130726190Y-105916666D02*
X130488095Y-105750000D01*
X130726190Y-105630952D02*
X130226190Y-105630952D01*
X130226190Y-105821428D01*
X130250000Y-105869047D01*
X130273809Y-105892857D01*
X130321428Y-105916666D01*
X130392857Y-105916666D01*
X130440476Y-105892857D01*
X130464285Y-105869047D01*
X130488095Y-105821428D01*
X130488095Y-105630952D01*
X130226190Y-106345238D02*
X130226190Y-106250000D01*
X130250000Y-106202380D01*
X130273809Y-106178571D01*
X130345238Y-106130952D01*
X130440476Y-106107142D01*
X130630952Y-106107142D01*
X130678571Y-106130952D01*
X130702380Y-106154761D01*
X130726190Y-106202380D01*
X130726190Y-106297619D01*
X130702380Y-106345238D01*
X130678571Y-106369047D01*
X130630952Y-106392857D01*
X130511904Y-106392857D01*
X130464285Y-106369047D01*
X130440476Y-106345238D01*
X130416666Y-106297619D01*
X130416666Y-106202380D01*
X130440476Y-106154761D01*
X130464285Y-106130952D01*
X130511904Y-106107142D01*
D10*
%TO.C,R8*%
X132002380Y-122785714D02*
X132002380Y-122214285D01*
X132002380Y-122500000D02*
X131002380Y-122500000D01*
X131145238Y-122404761D01*
X131240476Y-122309523D01*
X131288095Y-122214285D01*
X132002380Y-123214285D02*
X131002380Y-123214285D01*
X132002380Y-123785714D02*
X131430952Y-123357142D01*
X131002380Y-123785714D02*
X131573809Y-123214285D01*
D11*
X133426190Y-122916666D02*
X133188095Y-122750000D01*
X133426190Y-122630952D02*
X132926190Y-122630952D01*
X132926190Y-122821428D01*
X132950000Y-122869047D01*
X132973809Y-122892857D01*
X133021428Y-122916666D01*
X133092857Y-122916666D01*
X133140476Y-122892857D01*
X133164285Y-122869047D01*
X133188095Y-122821428D01*
X133188095Y-122630952D01*
X133140476Y-123202380D02*
X133116666Y-123154761D01*
X133092857Y-123130952D01*
X133045238Y-123107142D01*
X133021428Y-123107142D01*
X132973809Y-123130952D01*
X132950000Y-123154761D01*
X132926190Y-123202380D01*
X132926190Y-123297619D01*
X132950000Y-123345238D01*
X132973809Y-123369047D01*
X133021428Y-123392857D01*
X133045238Y-123392857D01*
X133092857Y-123369047D01*
X133116666Y-123345238D01*
X133140476Y-123297619D01*
X133140476Y-123202380D01*
X133164285Y-123154761D01*
X133188095Y-123130952D01*
X133235714Y-123107142D01*
X133330952Y-123107142D01*
X133378571Y-123130952D01*
X133402380Y-123154761D01*
X133426190Y-123202380D01*
X133426190Y-123297619D01*
X133402380Y-123345238D01*
X133378571Y-123369047D01*
X133330952Y-123392857D01*
X133235714Y-123392857D01*
X133188095Y-123369047D01*
X133164285Y-123345238D01*
X133140476Y-123297619D01*
D10*
%TO.C,D9*%
X174261904Y-216902380D02*
X174261904Y-215902380D01*
X174023809Y-215902380D01*
X173880952Y-215950000D01*
X173785714Y-216045238D01*
X173738095Y-216140476D01*
X173690476Y-216330952D01*
X173690476Y-216473809D01*
X173738095Y-216664285D01*
X173785714Y-216759523D01*
X173880952Y-216854761D01*
X174023809Y-216902380D01*
X174261904Y-216902380D01*
D11*
X174369047Y-218226190D02*
X174369047Y-217726190D01*
X174250000Y-217726190D01*
X174178571Y-217750000D01*
X174130952Y-217797619D01*
X174107142Y-217845238D01*
X174083333Y-217940476D01*
X174083333Y-218011904D01*
X174107142Y-218107142D01*
X174130952Y-218154761D01*
X174178571Y-218202380D01*
X174250000Y-218226190D01*
X174369047Y-218226190D01*
X173845238Y-218226190D02*
X173750000Y-218226190D01*
X173702380Y-218202380D01*
X173678571Y-218178571D01*
X173630952Y-218107142D01*
X173607142Y-218011904D01*
X173607142Y-217821428D01*
X173630952Y-217773809D01*
X173654761Y-217750000D01*
X173702380Y-217726190D01*
X173797619Y-217726190D01*
X173845238Y-217750000D01*
X173869047Y-217773809D01*
X173892857Y-217821428D01*
X173892857Y-217940476D01*
X173869047Y-217988095D01*
X173845238Y-218011904D01*
X173797619Y-218035714D01*
X173702380Y-218035714D01*
X173654761Y-218011904D01*
X173630952Y-217988095D01*
X173607142Y-217940476D01*
D10*
%TO.C,C15*%
X141177619Y-118807142D02*
X141130000Y-118854761D01*
X141082380Y-118950000D01*
X141082380Y-119188095D01*
X141130000Y-119283333D01*
X141177619Y-119330952D01*
X141272857Y-119378571D01*
X141368095Y-119378571D01*
X141510952Y-119330952D01*
X142082380Y-118759523D01*
X142082380Y-119378571D01*
X141177619Y-119759523D02*
X141130000Y-119807142D01*
X141082380Y-119902380D01*
X141082380Y-120140476D01*
X141130000Y-120235714D01*
X141177619Y-120283333D01*
X141272857Y-120330952D01*
X141368095Y-120330952D01*
X141510952Y-120283333D01*
X142082380Y-119711904D01*
X142082380Y-120330952D01*
X141415714Y-120759523D02*
X142415714Y-120759523D01*
X141463333Y-120759523D02*
X141415714Y-120854761D01*
X141415714Y-121045238D01*
X141463333Y-121140476D01*
X141510952Y-121188095D01*
X141606190Y-121235714D01*
X141891904Y-121235714D01*
X141987142Y-121188095D01*
X142034761Y-121140476D01*
X142082380Y-121045238D01*
X142082380Y-120854761D01*
X142034761Y-120759523D01*
X141558571Y-121997619D02*
X141558571Y-121664285D01*
X142082380Y-121664285D02*
X141082380Y-121664285D01*
X141082380Y-122140476D01*
D11*
X140128571Y-120128571D02*
X140152380Y-120104761D01*
X140176190Y-120033333D01*
X140176190Y-119985714D01*
X140152380Y-119914285D01*
X140104761Y-119866666D01*
X140057142Y-119842857D01*
X139961904Y-119819047D01*
X139890476Y-119819047D01*
X139795238Y-119842857D01*
X139747619Y-119866666D01*
X139700000Y-119914285D01*
X139676190Y-119985714D01*
X139676190Y-120033333D01*
X139700000Y-120104761D01*
X139723809Y-120128571D01*
X140176190Y-120604761D02*
X140176190Y-120319047D01*
X140176190Y-120461904D02*
X139676190Y-120461904D01*
X139747619Y-120414285D01*
X139795238Y-120366666D01*
X139819047Y-120319047D01*
X139676190Y-121057142D02*
X139676190Y-120819047D01*
X139914285Y-120795238D01*
X139890476Y-120819047D01*
X139866666Y-120866666D01*
X139866666Y-120985714D01*
X139890476Y-121033333D01*
X139914285Y-121057142D01*
X139961904Y-121080952D01*
X140080952Y-121080952D01*
X140128571Y-121057142D01*
X140152380Y-121033333D01*
X140176190Y-120985714D01*
X140176190Y-120866666D01*
X140152380Y-120819047D01*
X140128571Y-120795238D01*
D10*
%TO.C,R4*%
X164602380Y-126809523D02*
X164602380Y-126238095D01*
X164602380Y-126523809D02*
X163602380Y-126523809D01*
X163745238Y-126428571D01*
X163840476Y-126333333D01*
X163888095Y-126238095D01*
X163602380Y-127428571D02*
X163602380Y-127523809D01*
X163650000Y-127619047D01*
X163697619Y-127666666D01*
X163792857Y-127714285D01*
X163983333Y-127761904D01*
X164221428Y-127761904D01*
X164411904Y-127714285D01*
X164507142Y-127666666D01*
X164554761Y-127619047D01*
X164602380Y-127523809D01*
X164602380Y-127428571D01*
X164554761Y-127333333D01*
X164507142Y-127285714D01*
X164411904Y-127238095D01*
X164221428Y-127190476D01*
X163983333Y-127190476D01*
X163792857Y-127238095D01*
X163697619Y-127285714D01*
X163650000Y-127333333D01*
X163602380Y-127428571D01*
X164602380Y-128190476D02*
X163602380Y-128190476D01*
X164602380Y-128761904D02*
X164030952Y-128333333D01*
X163602380Y-128761904D02*
X164173809Y-128190476D01*
D11*
X162726190Y-127416666D02*
X162488095Y-127250000D01*
X162726190Y-127130952D02*
X162226190Y-127130952D01*
X162226190Y-127321428D01*
X162250000Y-127369047D01*
X162273809Y-127392857D01*
X162321428Y-127416666D01*
X162392857Y-127416666D01*
X162440476Y-127392857D01*
X162464285Y-127369047D01*
X162488095Y-127321428D01*
X162488095Y-127130952D01*
X162392857Y-127845238D02*
X162726190Y-127845238D01*
X162202380Y-127726190D02*
X162559523Y-127607142D01*
X162559523Y-127916666D01*
D10*
%TO.C,C12*%
X169272380Y-104404761D02*
X169272380Y-103833333D01*
X169272380Y-104119047D02*
X168272380Y-104119047D01*
X168415238Y-104023809D01*
X168510476Y-103928571D01*
X168558095Y-103833333D01*
X168605714Y-105261904D02*
X169272380Y-105261904D01*
X168605714Y-104833333D02*
X169129523Y-104833333D01*
X169224761Y-104880952D01*
X169272380Y-104976190D01*
X169272380Y-105119047D01*
X169224761Y-105214285D01*
X169177142Y-105261904D01*
X168748571Y-106071428D02*
X168748571Y-105738095D01*
X169272380Y-105738095D02*
X168272380Y-105738095D01*
X168272380Y-106214285D01*
D11*
X170678571Y-104678571D02*
X170702380Y-104654761D01*
X170726190Y-104583333D01*
X170726190Y-104535714D01*
X170702380Y-104464285D01*
X170654761Y-104416666D01*
X170607142Y-104392857D01*
X170511904Y-104369047D01*
X170440476Y-104369047D01*
X170345238Y-104392857D01*
X170297619Y-104416666D01*
X170250000Y-104464285D01*
X170226190Y-104535714D01*
X170226190Y-104583333D01*
X170250000Y-104654761D01*
X170273809Y-104678571D01*
X170726190Y-105154761D02*
X170726190Y-104869047D01*
X170726190Y-105011904D02*
X170226190Y-105011904D01*
X170297619Y-104964285D01*
X170345238Y-104916666D01*
X170369047Y-104869047D01*
X170273809Y-105345238D02*
X170250000Y-105369047D01*
X170226190Y-105416666D01*
X170226190Y-105535714D01*
X170250000Y-105583333D01*
X170273809Y-105607142D01*
X170321428Y-105630952D01*
X170369047Y-105630952D01*
X170440476Y-105607142D01*
X170726190Y-105321428D01*
X170726190Y-105630952D01*
D10*
%TO.C,U5*%
X179404761Y-108452380D02*
X179880952Y-108452380D01*
X179880952Y-107452380D01*
X179071428Y-108452380D02*
X179071428Y-107452380D01*
X178690476Y-107452380D01*
X178595238Y-107500000D01*
X178547619Y-107547619D01*
X178500000Y-107642857D01*
X178500000Y-107785714D01*
X178547619Y-107880952D01*
X178595238Y-107928571D01*
X178690476Y-107976190D01*
X179071428Y-107976190D01*
X178119047Y-107547619D02*
X178071428Y-107500000D01*
X177976190Y-107452380D01*
X177738095Y-107452380D01*
X177642857Y-107500000D01*
X177595238Y-107547619D01*
X177547619Y-107642857D01*
X177547619Y-107738095D01*
X177595238Y-107880952D01*
X178166666Y-108452380D01*
X177547619Y-108452380D01*
X177071428Y-108452380D02*
X176880952Y-108452380D01*
X176785714Y-108404761D01*
X176738095Y-108357142D01*
X176642857Y-108214285D01*
X176595238Y-108023809D01*
X176595238Y-107642857D01*
X176642857Y-107547619D01*
X176690476Y-107500000D01*
X176785714Y-107452380D01*
X176976190Y-107452380D01*
X177071428Y-107500000D01*
X177119047Y-107547619D01*
X177166666Y-107642857D01*
X177166666Y-107880952D01*
X177119047Y-107976190D01*
X177071428Y-108023809D01*
X176976190Y-108071428D01*
X176785714Y-108071428D01*
X176690476Y-108023809D01*
X176642857Y-107976190D01*
X176595238Y-107880952D01*
X176023809Y-107880952D02*
X176119047Y-107833333D01*
X176166666Y-107785714D01*
X176214285Y-107690476D01*
X176214285Y-107642857D01*
X176166666Y-107547619D01*
X176119047Y-107500000D01*
X176023809Y-107452380D01*
X175833333Y-107452380D01*
X175738095Y-107500000D01*
X175690476Y-107547619D01*
X175642857Y-107642857D01*
X175642857Y-107690476D01*
X175690476Y-107785714D01*
X175738095Y-107833333D01*
X175833333Y-107880952D01*
X176023809Y-107880952D01*
X176119047Y-107928571D01*
X176166666Y-107976190D01*
X176214285Y-108071428D01*
X176214285Y-108261904D01*
X176166666Y-108357142D01*
X176119047Y-108404761D01*
X176023809Y-108452380D01*
X175833333Y-108452380D01*
X175738095Y-108404761D01*
X175690476Y-108357142D01*
X175642857Y-108261904D01*
X175642857Y-108071428D01*
X175690476Y-107976190D01*
X175738095Y-107928571D01*
X175833333Y-107880952D01*
X174738095Y-107452380D02*
X175214285Y-107452380D01*
X175261904Y-107928571D01*
X175214285Y-107880952D01*
X175119047Y-107833333D01*
X174880952Y-107833333D01*
X174785714Y-107880952D01*
X174738095Y-107928571D01*
X174690476Y-108023809D01*
X174690476Y-108261904D01*
X174738095Y-108357142D01*
X174785714Y-108404761D01*
X174880952Y-108452380D01*
X175119047Y-108452380D01*
X175214285Y-108404761D01*
X175261904Y-108357142D01*
X174261904Y-108071428D02*
X173500000Y-108071428D01*
X173119047Y-107452380D02*
X172500000Y-107452380D01*
X172833333Y-107833333D01*
X172690476Y-107833333D01*
X172595238Y-107880952D01*
X172547619Y-107928571D01*
X172500000Y-108023809D01*
X172500000Y-108261904D01*
X172547619Y-108357142D01*
X172595238Y-108404761D01*
X172690476Y-108452380D01*
X172976190Y-108452380D01*
X173071428Y-108404761D01*
X173119047Y-108357142D01*
X172071428Y-108357142D02*
X172023809Y-108404761D01*
X172071428Y-108452380D01*
X172119047Y-108404761D01*
X172071428Y-108357142D01*
X172071428Y-108452380D01*
X171690476Y-107452380D02*
X171071428Y-107452380D01*
X171404761Y-107833333D01*
X171261904Y-107833333D01*
X171166666Y-107880952D01*
X171119047Y-107928571D01*
X171071428Y-108023809D01*
X171071428Y-108261904D01*
X171119047Y-108357142D01*
X171166666Y-108404761D01*
X171261904Y-108452380D01*
X171547619Y-108452380D01*
X171642857Y-108404761D01*
X171690476Y-108357142D01*
D14*
X175804761Y-104780952D02*
X175804761Y-105104761D01*
X175785714Y-105142857D01*
X175766666Y-105161904D01*
X175728571Y-105180952D01*
X175652380Y-105180952D01*
X175614285Y-105161904D01*
X175595238Y-105142857D01*
X175576190Y-105104761D01*
X175576190Y-104780952D01*
X175195238Y-104780952D02*
X175385714Y-104780952D01*
X175404761Y-104971428D01*
X175385714Y-104952380D01*
X175347619Y-104933333D01*
X175252380Y-104933333D01*
X175214285Y-104952380D01*
X175195238Y-104971428D01*
X175176190Y-105009523D01*
X175176190Y-105104761D01*
X175195238Y-105142857D01*
X175214285Y-105161904D01*
X175252380Y-105180952D01*
X175347619Y-105180952D01*
X175385714Y-105161904D01*
X175404761Y-105142857D01*
D10*
%TO.C,C13*%
X143910119Y-100132380D02*
X144481547Y-100132380D01*
X144195833Y-100132380D02*
X144195833Y-99132380D01*
X144291071Y-99275238D01*
X144386309Y-99370476D01*
X144481547Y-99418095D01*
X143291071Y-99132380D02*
X143195833Y-99132380D01*
X143100595Y-99180000D01*
X143052976Y-99227619D01*
X143005357Y-99322857D01*
X142957738Y-99513333D01*
X142957738Y-99751428D01*
X143005357Y-99941904D01*
X143052976Y-100037142D01*
X143100595Y-100084761D01*
X143195833Y-100132380D01*
X143291071Y-100132380D01*
X143386309Y-100084761D01*
X143433928Y-100037142D01*
X143481547Y-99941904D01*
X143529166Y-99751428D01*
X143529166Y-99513333D01*
X143481547Y-99322857D01*
X143433928Y-99227619D01*
X143386309Y-99180000D01*
X143291071Y-99132380D01*
X142338690Y-99132380D02*
X142243452Y-99132380D01*
X142148214Y-99180000D01*
X142100595Y-99227619D01*
X142052976Y-99322857D01*
X142005357Y-99513333D01*
X142005357Y-99751428D01*
X142052976Y-99941904D01*
X142100595Y-100037142D01*
X142148214Y-100084761D01*
X142243452Y-100132380D01*
X142338690Y-100132380D01*
X142433928Y-100084761D01*
X142481547Y-100037142D01*
X142529166Y-99941904D01*
X142576785Y-99751428D01*
X142576785Y-99513333D01*
X142529166Y-99322857D01*
X142481547Y-99227619D01*
X142433928Y-99180000D01*
X142338690Y-99132380D01*
X141576785Y-99465714D02*
X141576785Y-100132380D01*
X141576785Y-99560952D02*
X141529166Y-99513333D01*
X141433928Y-99465714D01*
X141291071Y-99465714D01*
X141195833Y-99513333D01*
X141148214Y-99608571D01*
X141148214Y-100132380D01*
X140338690Y-99608571D02*
X140672023Y-99608571D01*
X140672023Y-100132380D02*
X140672023Y-99132380D01*
X140195833Y-99132380D01*
D11*
X142683928Y-98178571D02*
X142707738Y-98202380D01*
X142779166Y-98226190D01*
X142826785Y-98226190D01*
X142898214Y-98202380D01*
X142945833Y-98154761D01*
X142969642Y-98107142D01*
X142993452Y-98011904D01*
X142993452Y-97940476D01*
X142969642Y-97845238D01*
X142945833Y-97797619D01*
X142898214Y-97750000D01*
X142826785Y-97726190D01*
X142779166Y-97726190D01*
X142707738Y-97750000D01*
X142683928Y-97773809D01*
X142207738Y-98226190D02*
X142493452Y-98226190D01*
X142350595Y-98226190D02*
X142350595Y-97726190D01*
X142398214Y-97797619D01*
X142445833Y-97845238D01*
X142493452Y-97869047D01*
X142041071Y-97726190D02*
X141731547Y-97726190D01*
X141898214Y-97916666D01*
X141826785Y-97916666D01*
X141779166Y-97940476D01*
X141755357Y-97964285D01*
X141731547Y-98011904D01*
X141731547Y-98130952D01*
X141755357Y-98178571D01*
X141779166Y-98202380D01*
X141826785Y-98226190D01*
X141969642Y-98226190D01*
X142017261Y-98202380D01*
X142041071Y-98178571D01*
D10*
%TO.C,D15*%
X156802380Y-97437500D02*
X156802380Y-96961309D01*
X155802380Y-96961309D01*
X156278571Y-97770833D02*
X156278571Y-98104166D01*
X156802380Y-98247023D02*
X156802380Y-97770833D01*
X155802380Y-97770833D01*
X155802380Y-98247023D01*
X156802380Y-98675595D02*
X155802380Y-98675595D01*
X155802380Y-98913690D01*
X155850000Y-99056547D01*
X155945238Y-99151785D01*
X156040476Y-99199404D01*
X156230952Y-99247023D01*
X156373809Y-99247023D01*
X156564285Y-99199404D01*
X156659523Y-99151785D01*
X156754761Y-99056547D01*
X156802380Y-98913690D01*
X156802380Y-98675595D01*
X156897619Y-99437500D02*
X156897619Y-100199404D01*
X156802380Y-101008928D02*
X156326190Y-100675595D01*
X156802380Y-100437500D02*
X155802380Y-100437500D01*
X155802380Y-100818452D01*
X155850000Y-100913690D01*
X155897619Y-100961309D01*
X155992857Y-101008928D01*
X156135714Y-101008928D01*
X156230952Y-100961309D01*
X156278571Y-100913690D01*
X156326190Y-100818452D01*
X156326190Y-100437500D01*
X155802380Y-101342261D02*
X156802380Y-102008928D01*
X155802380Y-102008928D02*
X156802380Y-101342261D01*
D11*
X158226190Y-98830357D02*
X157726190Y-98830357D01*
X157726190Y-98949404D01*
X157750000Y-99020833D01*
X157797619Y-99068452D01*
X157845238Y-99092261D01*
X157940476Y-99116071D01*
X158011904Y-99116071D01*
X158107142Y-99092261D01*
X158154761Y-99068452D01*
X158202380Y-99020833D01*
X158226190Y-98949404D01*
X158226190Y-98830357D01*
X158226190Y-99592261D02*
X158226190Y-99306547D01*
X158226190Y-99449404D02*
X157726190Y-99449404D01*
X157797619Y-99401785D01*
X157845238Y-99354166D01*
X157869047Y-99306547D01*
X157726190Y-100044642D02*
X157726190Y-99806547D01*
X157964285Y-99782738D01*
X157940476Y-99806547D01*
X157916666Y-99854166D01*
X157916666Y-99973214D01*
X157940476Y-100020833D01*
X157964285Y-100044642D01*
X158011904Y-100068452D01*
X158130952Y-100068452D01*
X158178571Y-100044642D01*
X158202380Y-100020833D01*
X158226190Y-99973214D01*
X158226190Y-99854166D01*
X158202380Y-99806547D01*
X158178571Y-99782738D01*
D10*
%TO.C,D10*%
X126261904Y-241902380D02*
X126261904Y-240902380D01*
X126023809Y-240902380D01*
X125880952Y-240950000D01*
X125785714Y-241045238D01*
X125738095Y-241140476D01*
X125690476Y-241330952D01*
X125690476Y-241473809D01*
X125738095Y-241664285D01*
X125785714Y-241759523D01*
X125880952Y-241854761D01*
X126023809Y-241902380D01*
X126261904Y-241902380D01*
D11*
X126607142Y-243226190D02*
X126607142Y-242726190D01*
X126488095Y-242726190D01*
X126416666Y-242750000D01*
X126369047Y-242797619D01*
X126345238Y-242845238D01*
X126321428Y-242940476D01*
X126321428Y-243011904D01*
X126345238Y-243107142D01*
X126369047Y-243154761D01*
X126416666Y-243202380D01*
X126488095Y-243226190D01*
X126607142Y-243226190D01*
X125845238Y-243226190D02*
X126130952Y-243226190D01*
X125988095Y-243226190D02*
X125988095Y-242726190D01*
X126035714Y-242797619D01*
X126083333Y-242845238D01*
X126130952Y-242869047D01*
X125535714Y-242726190D02*
X125488095Y-242726190D01*
X125440476Y-242750000D01*
X125416666Y-242773809D01*
X125392857Y-242821428D01*
X125369047Y-242916666D01*
X125369047Y-243035714D01*
X125392857Y-243130952D01*
X125416666Y-243178571D01*
X125440476Y-243202380D01*
X125488095Y-243226190D01*
X125535714Y-243226190D01*
X125583333Y-243202380D01*
X125607142Y-243178571D01*
X125630952Y-243130952D01*
X125654761Y-243035714D01*
X125654761Y-242916666D01*
X125630952Y-242821428D01*
X125607142Y-242773809D01*
X125583333Y-242750000D01*
X125535714Y-242726190D01*
D10*
%TO.C,C4*%
X139722380Y-152289880D02*
X139722380Y-151718452D01*
X139722380Y-152004166D02*
X138722380Y-152004166D01*
X138865238Y-151908928D01*
X138960476Y-151813690D01*
X139008095Y-151718452D01*
X138722380Y-152908928D02*
X138722380Y-153004166D01*
X138770000Y-153099404D01*
X138817619Y-153147023D01*
X138912857Y-153194642D01*
X139103333Y-153242261D01*
X139341428Y-153242261D01*
X139531904Y-153194642D01*
X139627142Y-153147023D01*
X139674761Y-153099404D01*
X139722380Y-153004166D01*
X139722380Y-152908928D01*
X139674761Y-152813690D01*
X139627142Y-152766071D01*
X139531904Y-152718452D01*
X139341428Y-152670833D01*
X139103333Y-152670833D01*
X138912857Y-152718452D01*
X138817619Y-152766071D01*
X138770000Y-152813690D01*
X138722380Y-152908928D01*
X138722380Y-153861309D02*
X138722380Y-153956547D01*
X138770000Y-154051785D01*
X138817619Y-154099404D01*
X138912857Y-154147023D01*
X139103333Y-154194642D01*
X139341428Y-154194642D01*
X139531904Y-154147023D01*
X139627142Y-154099404D01*
X139674761Y-154051785D01*
X139722380Y-153956547D01*
X139722380Y-153861309D01*
X139674761Y-153766071D01*
X139627142Y-153718452D01*
X139531904Y-153670833D01*
X139341428Y-153623214D01*
X139103333Y-153623214D01*
X138912857Y-153670833D01*
X138817619Y-153718452D01*
X138770000Y-153766071D01*
X138722380Y-153861309D01*
X139055714Y-154623214D02*
X139722380Y-154623214D01*
X139150952Y-154623214D02*
X139103333Y-154670833D01*
X139055714Y-154766071D01*
X139055714Y-154908928D01*
X139103333Y-155004166D01*
X139198571Y-155051785D01*
X139722380Y-155051785D01*
X139198571Y-155861309D02*
X139198571Y-155527976D01*
X139722380Y-155527976D02*
X138722380Y-155527976D01*
X138722380Y-156004166D01*
D11*
X141128571Y-153754166D02*
X141152380Y-153730357D01*
X141176190Y-153658928D01*
X141176190Y-153611309D01*
X141152380Y-153539880D01*
X141104761Y-153492261D01*
X141057142Y-153468452D01*
X140961904Y-153444642D01*
X140890476Y-153444642D01*
X140795238Y-153468452D01*
X140747619Y-153492261D01*
X140700000Y-153539880D01*
X140676190Y-153611309D01*
X140676190Y-153658928D01*
X140700000Y-153730357D01*
X140723809Y-153754166D01*
X140842857Y-154182738D02*
X141176190Y-154182738D01*
X140652380Y-154063690D02*
X141009523Y-153944642D01*
X141009523Y-154254166D01*
D10*
%TO.C,R5*%
X129197619Y-105238095D02*
X129150000Y-105285714D01*
X129102380Y-105380952D01*
X129102380Y-105619047D01*
X129150000Y-105714285D01*
X129197619Y-105761904D01*
X129292857Y-105809523D01*
X129388095Y-105809523D01*
X129530952Y-105761904D01*
X130102380Y-105190476D01*
X130102380Y-105809523D01*
X129197619Y-106190476D02*
X129150000Y-106238095D01*
X129102380Y-106333333D01*
X129102380Y-106571428D01*
X129150000Y-106666666D01*
X129197619Y-106714285D01*
X129292857Y-106761904D01*
X129388095Y-106761904D01*
X129530952Y-106714285D01*
X130102380Y-106142857D01*
X130102380Y-106761904D01*
D11*
X128226190Y-105916666D02*
X127988095Y-105750000D01*
X128226190Y-105630952D02*
X127726190Y-105630952D01*
X127726190Y-105821428D01*
X127750000Y-105869047D01*
X127773809Y-105892857D01*
X127821428Y-105916666D01*
X127892857Y-105916666D01*
X127940476Y-105892857D01*
X127964285Y-105869047D01*
X127988095Y-105821428D01*
X127988095Y-105630952D01*
X127726190Y-106369047D02*
X127726190Y-106130952D01*
X127964285Y-106107142D01*
X127940476Y-106130952D01*
X127916666Y-106178571D01*
X127916666Y-106297619D01*
X127940476Y-106345238D01*
X127964285Y-106369047D01*
X128011904Y-106392857D01*
X128130952Y-106392857D01*
X128178571Y-106369047D01*
X128202380Y-106345238D01*
X128226190Y-106297619D01*
X128226190Y-106178571D01*
X128202380Y-106130952D01*
X128178571Y-106107142D01*
D12*
%TO.C,D13*%
X165574523Y-125957857D02*
X164304523Y-125957857D01*
X164304523Y-126260238D01*
X164365000Y-126441666D01*
X164485952Y-126562619D01*
X164606904Y-126623095D01*
X164848809Y-126683571D01*
X165030238Y-126683571D01*
X165272142Y-126623095D01*
X165393095Y-126562619D01*
X165514047Y-126441666D01*
X165574523Y-126260238D01*
X165574523Y-125957857D01*
X165574523Y-127893095D02*
X165574523Y-127167380D01*
X165574523Y-127530238D02*
X164304523Y-127530238D01*
X164485952Y-127409285D01*
X164606904Y-127288333D01*
X164667380Y-127167380D01*
X164304523Y-128316428D02*
X164304523Y-129102619D01*
X164788333Y-128679285D01*
X164788333Y-128860714D01*
X164848809Y-128981666D01*
X164909285Y-129042142D01*
X165030238Y-129102619D01*
X165332619Y-129102619D01*
X165453571Y-129042142D01*
X165514047Y-128981666D01*
X165574523Y-128860714D01*
X165574523Y-128497857D01*
X165514047Y-128376904D01*
X165453571Y-128316428D01*
D10*
%TO.C,J8*%
X132612738Y-136531666D02*
X132136547Y-136531666D01*
X132707976Y-136817380D02*
X132374642Y-135817380D01*
X132041309Y-136817380D01*
X131850833Y-135817380D02*
X131517500Y-136817380D01*
X131184166Y-135817380D01*
X130279404Y-136817380D02*
X130612738Y-136341190D01*
X130850833Y-136817380D02*
X130850833Y-135817380D01*
X130469880Y-135817380D01*
X130374642Y-135865000D01*
X130327023Y-135912619D01*
X130279404Y-136007857D01*
X130279404Y-136150714D01*
X130327023Y-136245952D01*
X130374642Y-136293571D01*
X130469880Y-136341190D01*
X130850833Y-136341190D01*
X129850833Y-136436428D02*
X129088928Y-136436428D01*
X128612738Y-136817380D02*
X128612738Y-135817380D01*
X128184166Y-136769761D02*
X128041309Y-136817380D01*
X127803214Y-136817380D01*
X127707976Y-136769761D01*
X127660357Y-136722142D01*
X127612738Y-136626904D01*
X127612738Y-136531666D01*
X127660357Y-136436428D01*
X127707976Y-136388809D01*
X127803214Y-136341190D01*
X127993690Y-136293571D01*
X128088928Y-136245952D01*
X128136547Y-136198333D01*
X128184166Y-136103095D01*
X128184166Y-136007857D01*
X128136547Y-135912619D01*
X128088928Y-135865000D01*
X127993690Y-135817380D01*
X127755595Y-135817380D01*
X127612738Y-135865000D01*
X127184166Y-136817380D02*
X127184166Y-135817380D01*
X126803214Y-135817380D01*
X126707976Y-135865000D01*
X126660357Y-135912619D01*
X126612738Y-136007857D01*
X126612738Y-136150714D01*
X126660357Y-136245952D01*
X126707976Y-136293571D01*
X126803214Y-136341190D01*
X127184166Y-136341190D01*
X126184166Y-136436428D02*
X125422261Y-136436428D01*
X124517500Y-135817380D02*
X124707976Y-135817380D01*
X124803214Y-135865000D01*
X124850833Y-135912619D01*
X124946071Y-136055476D01*
X124993690Y-136245952D01*
X124993690Y-136626904D01*
X124946071Y-136722142D01*
X124898452Y-136769761D01*
X124803214Y-136817380D01*
X124612738Y-136817380D01*
X124517500Y-136769761D01*
X124469880Y-136722142D01*
X124422261Y-136626904D01*
X124422261Y-136388809D01*
X124469880Y-136293571D01*
X124517500Y-136245952D01*
X124612738Y-136198333D01*
X124803214Y-136198333D01*
X124898452Y-136245952D01*
X124946071Y-136293571D01*
X124993690Y-136388809D01*
X127969880Y-144671666D02*
X128684166Y-144671666D01*
X128827023Y-144624047D01*
X128922261Y-144528809D01*
X128969880Y-144385952D01*
X128969880Y-144290714D01*
X128398452Y-145290714D02*
X128350833Y-145195476D01*
X128303214Y-145147857D01*
X128207976Y-145100238D01*
X128160357Y-145100238D01*
X128065119Y-145147857D01*
X128017500Y-145195476D01*
X127969880Y-145290714D01*
X127969880Y-145481190D01*
X128017500Y-145576428D01*
X128065119Y-145624047D01*
X128160357Y-145671666D01*
X128207976Y-145671666D01*
X128303214Y-145624047D01*
X128350833Y-145576428D01*
X128398452Y-145481190D01*
X128398452Y-145290714D01*
X128446071Y-145195476D01*
X128493690Y-145147857D01*
X128588928Y-145100238D01*
X128779404Y-145100238D01*
X128874642Y-145147857D01*
X128922261Y-145195476D01*
X128969880Y-145290714D01*
X128969880Y-145481190D01*
X128922261Y-145576428D01*
X128874642Y-145624047D01*
X128779404Y-145671666D01*
X128588928Y-145671666D01*
X128493690Y-145624047D01*
X128446071Y-145576428D01*
X128398452Y-145481190D01*
%TO.C,C17*%
X150132380Y-124452380D02*
X150132380Y-123880952D01*
X150132380Y-124166666D02*
X149132380Y-124166666D01*
X149275238Y-124071428D01*
X149370476Y-123976190D01*
X149418095Y-123880952D01*
X149132380Y-125071428D02*
X149132380Y-125166666D01*
X149180000Y-125261904D01*
X149227619Y-125309523D01*
X149322857Y-125357142D01*
X149513333Y-125404761D01*
X149751428Y-125404761D01*
X149941904Y-125357142D01*
X150037142Y-125309523D01*
X150084761Y-125261904D01*
X150132380Y-125166666D01*
X150132380Y-125071428D01*
X150084761Y-124976190D01*
X150037142Y-124928571D01*
X149941904Y-124880952D01*
X149751428Y-124833333D01*
X149513333Y-124833333D01*
X149322857Y-124880952D01*
X149227619Y-124928571D01*
X149180000Y-124976190D01*
X149132380Y-125071428D01*
X149132380Y-126023809D02*
X149132380Y-126119047D01*
X149180000Y-126214285D01*
X149227619Y-126261904D01*
X149322857Y-126309523D01*
X149513333Y-126357142D01*
X149751428Y-126357142D01*
X149941904Y-126309523D01*
X150037142Y-126261904D01*
X150084761Y-126214285D01*
X150132380Y-126119047D01*
X150132380Y-126023809D01*
X150084761Y-125928571D01*
X150037142Y-125880952D01*
X149941904Y-125833333D01*
X149751428Y-125785714D01*
X149513333Y-125785714D01*
X149322857Y-125833333D01*
X149227619Y-125880952D01*
X149180000Y-125928571D01*
X149132380Y-126023809D01*
X149465714Y-126785714D02*
X150132380Y-126785714D01*
X149560952Y-126785714D02*
X149513333Y-126833333D01*
X149465714Y-126928571D01*
X149465714Y-127071428D01*
X149513333Y-127166666D01*
X149608571Y-127214285D01*
X150132380Y-127214285D01*
X149608571Y-128023809D02*
X149608571Y-127690476D01*
X150132380Y-127690476D02*
X149132380Y-127690476D01*
X149132380Y-128166666D01*
D11*
X149678571Y-125678571D02*
X149702380Y-125654761D01*
X149726190Y-125583333D01*
X149726190Y-125535714D01*
X149702380Y-125464285D01*
X149654761Y-125416666D01*
X149607142Y-125392857D01*
X149511904Y-125369047D01*
X149440476Y-125369047D01*
X149345238Y-125392857D01*
X149297619Y-125416666D01*
X149250000Y-125464285D01*
X149226190Y-125535714D01*
X149226190Y-125583333D01*
X149250000Y-125654761D01*
X149273809Y-125678571D01*
X149726190Y-126154761D02*
X149726190Y-125869047D01*
X149726190Y-126011904D02*
X149226190Y-126011904D01*
X149297619Y-125964285D01*
X149345238Y-125916666D01*
X149369047Y-125869047D01*
X149226190Y-126321428D02*
X149226190Y-126654761D01*
X149726190Y-126440476D01*
D10*
%TO.C,C2*%
X145547619Y-154109880D02*
X146119047Y-154109880D01*
X145833333Y-154109880D02*
X145833333Y-153109880D01*
X145928571Y-153252738D01*
X146023809Y-153347976D01*
X146119047Y-153395595D01*
X144928571Y-153109880D02*
X144833333Y-153109880D01*
X144738095Y-153157500D01*
X144690476Y-153205119D01*
X144642857Y-153300357D01*
X144595238Y-153490833D01*
X144595238Y-153728928D01*
X144642857Y-153919404D01*
X144690476Y-154014642D01*
X144738095Y-154062261D01*
X144833333Y-154109880D01*
X144928571Y-154109880D01*
X145023809Y-154062261D01*
X145071428Y-154014642D01*
X145119047Y-153919404D01*
X145166666Y-153728928D01*
X145166666Y-153490833D01*
X145119047Y-153300357D01*
X145071428Y-153205119D01*
X145023809Y-153157500D01*
X144928571Y-153109880D01*
X143976190Y-153109880D02*
X143880952Y-153109880D01*
X143785714Y-153157500D01*
X143738095Y-153205119D01*
X143690476Y-153300357D01*
X143642857Y-153490833D01*
X143642857Y-153728928D01*
X143690476Y-153919404D01*
X143738095Y-154014642D01*
X143785714Y-154062261D01*
X143880952Y-154109880D01*
X143976190Y-154109880D01*
X144071428Y-154062261D01*
X144119047Y-154014642D01*
X144166666Y-153919404D01*
X144214285Y-153728928D01*
X144214285Y-153490833D01*
X144166666Y-153300357D01*
X144119047Y-153205119D01*
X144071428Y-153157500D01*
X143976190Y-153109880D01*
X143214285Y-153443214D02*
X143214285Y-154109880D01*
X143214285Y-153538452D02*
X143166666Y-153490833D01*
X143071428Y-153443214D01*
X142928571Y-153443214D01*
X142833333Y-153490833D01*
X142785714Y-153586071D01*
X142785714Y-154109880D01*
X141976190Y-153586071D02*
X142309523Y-153586071D01*
X142309523Y-154109880D02*
X142309523Y-153109880D01*
X141833333Y-153109880D01*
D11*
X144083333Y-155516071D02*
X144107142Y-155539880D01*
X144178571Y-155563690D01*
X144226190Y-155563690D01*
X144297619Y-155539880D01*
X144345238Y-155492261D01*
X144369047Y-155444642D01*
X144392857Y-155349404D01*
X144392857Y-155277976D01*
X144369047Y-155182738D01*
X144345238Y-155135119D01*
X144297619Y-155087500D01*
X144226190Y-155063690D01*
X144178571Y-155063690D01*
X144107142Y-155087500D01*
X144083333Y-155111309D01*
X143892857Y-155111309D02*
X143869047Y-155087500D01*
X143821428Y-155063690D01*
X143702380Y-155063690D01*
X143654761Y-155087500D01*
X143630952Y-155111309D01*
X143607142Y-155158928D01*
X143607142Y-155206547D01*
X143630952Y-155277976D01*
X143916666Y-155563690D01*
X143607142Y-155563690D01*
D10*
%TO.C,L1*%
X145166666Y-154339880D02*
X145738095Y-154339880D01*
X145452380Y-154339880D02*
X145452380Y-153339880D01*
X145547619Y-153482738D01*
X145642857Y-153577976D01*
X145738095Y-153625595D01*
X144547619Y-153339880D02*
X144452380Y-153339880D01*
X144357142Y-153387500D01*
X144309523Y-153435119D01*
X144261904Y-153530357D01*
X144214285Y-153720833D01*
X144214285Y-153958928D01*
X144261904Y-154149404D01*
X144309523Y-154244642D01*
X144357142Y-154292261D01*
X144452380Y-154339880D01*
X144547619Y-154339880D01*
X144642857Y-154292261D01*
X144690476Y-154244642D01*
X144738095Y-154149404D01*
X144785714Y-153958928D01*
X144785714Y-153720833D01*
X144738095Y-153530357D01*
X144690476Y-153435119D01*
X144642857Y-153387500D01*
X144547619Y-153339880D01*
X143357142Y-153673214D02*
X143357142Y-154339880D01*
X143785714Y-153673214D02*
X143785714Y-154197023D01*
X143738095Y-154292261D01*
X143642857Y-154339880D01*
X143500000Y-154339880D01*
X143404761Y-154292261D01*
X143357142Y-154244642D01*
X142880952Y-154339880D02*
X142880952Y-153339880D01*
X142880952Y-153816071D02*
X142309523Y-153816071D01*
X142309523Y-154339880D02*
X142309523Y-153339880D01*
D11*
X144083333Y-152563690D02*
X144321428Y-152563690D01*
X144321428Y-152063690D01*
X143654761Y-152563690D02*
X143940476Y-152563690D01*
X143797619Y-152563690D02*
X143797619Y-152063690D01*
X143845238Y-152135119D01*
X143892857Y-152182738D01*
X143940476Y-152206547D01*
D10*
%TO.C,D1*%
X174261904Y-166902380D02*
X174261904Y-165902380D01*
X174023809Y-165902380D01*
X173880952Y-165950000D01*
X173785714Y-166045238D01*
X173738095Y-166140476D01*
X173690476Y-166330952D01*
X173690476Y-166473809D01*
X173738095Y-166664285D01*
X173785714Y-166759523D01*
X173880952Y-166854761D01*
X174023809Y-166902380D01*
X174261904Y-166902380D01*
D11*
X174369047Y-168226190D02*
X174369047Y-167726190D01*
X174250000Y-167726190D01*
X174178571Y-167750000D01*
X174130952Y-167797619D01*
X174107142Y-167845238D01*
X174083333Y-167940476D01*
X174083333Y-168011904D01*
X174107142Y-168107142D01*
X174130952Y-168154761D01*
X174178571Y-168202380D01*
X174250000Y-168226190D01*
X174369047Y-168226190D01*
X173607142Y-168226190D02*
X173892857Y-168226190D01*
X173750000Y-168226190D02*
X173750000Y-167726190D01*
X173797619Y-167797619D01*
X173845238Y-167845238D01*
X173892857Y-167869047D01*
D10*
%TO.C,D8*%
X150261904Y-216902380D02*
X150261904Y-215902380D01*
X150023809Y-215902380D01*
X149880952Y-215950000D01*
X149785714Y-216045238D01*
X149738095Y-216140476D01*
X149690476Y-216330952D01*
X149690476Y-216473809D01*
X149738095Y-216664285D01*
X149785714Y-216759523D01*
X149880952Y-216854761D01*
X150023809Y-216902380D01*
X150261904Y-216902380D01*
D11*
X150369047Y-218226190D02*
X150369047Y-217726190D01*
X150250000Y-217726190D01*
X150178571Y-217750000D01*
X150130952Y-217797619D01*
X150107142Y-217845238D01*
X150083333Y-217940476D01*
X150083333Y-218011904D01*
X150107142Y-218107142D01*
X150130952Y-218154761D01*
X150178571Y-218202380D01*
X150250000Y-218226190D01*
X150369047Y-218226190D01*
X149797619Y-217940476D02*
X149845238Y-217916666D01*
X149869047Y-217892857D01*
X149892857Y-217845238D01*
X149892857Y-217821428D01*
X149869047Y-217773809D01*
X149845238Y-217750000D01*
X149797619Y-217726190D01*
X149702380Y-217726190D01*
X149654761Y-217750000D01*
X149630952Y-217773809D01*
X149607142Y-217821428D01*
X149607142Y-217845238D01*
X149630952Y-217892857D01*
X149654761Y-217916666D01*
X149702380Y-217940476D01*
X149797619Y-217940476D01*
X149845238Y-217964285D01*
X149869047Y-217988095D01*
X149892857Y-218035714D01*
X149892857Y-218130952D01*
X149869047Y-218178571D01*
X149845238Y-218202380D01*
X149797619Y-218226190D01*
X149702380Y-218226190D01*
X149654761Y-218202380D01*
X149630952Y-218178571D01*
X149607142Y-218130952D01*
X149607142Y-218035714D01*
X149630952Y-217988095D01*
X149654761Y-217964285D01*
X149702380Y-217940476D01*
D10*
%TO.C,C18*%
X151085119Y-99132380D02*
X151656547Y-99132380D01*
X151370833Y-99132380D02*
X151370833Y-98132380D01*
X151466071Y-98275238D01*
X151561309Y-98370476D01*
X151656547Y-98418095D01*
X150466071Y-98132380D02*
X150370833Y-98132380D01*
X150275595Y-98180000D01*
X150227976Y-98227619D01*
X150180357Y-98322857D01*
X150132738Y-98513333D01*
X150132738Y-98751428D01*
X150180357Y-98941904D01*
X150227976Y-99037142D01*
X150275595Y-99084761D01*
X150370833Y-99132380D01*
X150466071Y-99132380D01*
X150561309Y-99084761D01*
X150608928Y-99037142D01*
X150656547Y-98941904D01*
X150704166Y-98751428D01*
X150704166Y-98513333D01*
X150656547Y-98322857D01*
X150608928Y-98227619D01*
X150561309Y-98180000D01*
X150466071Y-98132380D01*
X149513690Y-98132380D02*
X149418452Y-98132380D01*
X149323214Y-98180000D01*
X149275595Y-98227619D01*
X149227976Y-98322857D01*
X149180357Y-98513333D01*
X149180357Y-98751428D01*
X149227976Y-98941904D01*
X149275595Y-99037142D01*
X149323214Y-99084761D01*
X149418452Y-99132380D01*
X149513690Y-99132380D01*
X149608928Y-99084761D01*
X149656547Y-99037142D01*
X149704166Y-98941904D01*
X149751785Y-98751428D01*
X149751785Y-98513333D01*
X149704166Y-98322857D01*
X149656547Y-98227619D01*
X149608928Y-98180000D01*
X149513690Y-98132380D01*
X148751785Y-98465714D02*
X148751785Y-99132380D01*
X148751785Y-98560952D02*
X148704166Y-98513333D01*
X148608928Y-98465714D01*
X148466071Y-98465714D01*
X148370833Y-98513333D01*
X148323214Y-98608571D01*
X148323214Y-99132380D01*
X147513690Y-98608571D02*
X147847023Y-98608571D01*
X147847023Y-99132380D02*
X147847023Y-98132380D01*
X147370833Y-98132380D01*
D11*
X149858928Y-97178571D02*
X149882738Y-97202380D01*
X149954166Y-97226190D01*
X150001785Y-97226190D01*
X150073214Y-97202380D01*
X150120833Y-97154761D01*
X150144642Y-97107142D01*
X150168452Y-97011904D01*
X150168452Y-96940476D01*
X150144642Y-96845238D01*
X150120833Y-96797619D01*
X150073214Y-96750000D01*
X150001785Y-96726190D01*
X149954166Y-96726190D01*
X149882738Y-96750000D01*
X149858928Y-96773809D01*
X149382738Y-97226190D02*
X149668452Y-97226190D01*
X149525595Y-97226190D02*
X149525595Y-96726190D01*
X149573214Y-96797619D01*
X149620833Y-96845238D01*
X149668452Y-96869047D01*
X149097023Y-96940476D02*
X149144642Y-96916666D01*
X149168452Y-96892857D01*
X149192261Y-96845238D01*
X149192261Y-96821428D01*
X149168452Y-96773809D01*
X149144642Y-96750000D01*
X149097023Y-96726190D01*
X149001785Y-96726190D01*
X148954166Y-96750000D01*
X148930357Y-96773809D01*
X148906547Y-96821428D01*
X148906547Y-96845238D01*
X148930357Y-96892857D01*
X148954166Y-96916666D01*
X149001785Y-96940476D01*
X149097023Y-96940476D01*
X149144642Y-96964285D01*
X149168452Y-96988095D01*
X149192261Y-97035714D01*
X149192261Y-97130952D01*
X149168452Y-97178571D01*
X149144642Y-97202380D01*
X149097023Y-97226190D01*
X149001785Y-97226190D01*
X148954166Y-97202380D01*
X148930357Y-97178571D01*
X148906547Y-97130952D01*
X148906547Y-97035714D01*
X148930357Y-96988095D01*
X148954166Y-96964285D01*
X149001785Y-96940476D01*
D10*
%TO.C,C8*%
X165529166Y-112465714D02*
X165529166Y-113132380D01*
X165767261Y-112084761D02*
X166005357Y-112799047D01*
X165386309Y-112799047D01*
X165100595Y-112132380D02*
X164433928Y-112132380D01*
X164862500Y-113132380D01*
X163624404Y-112465714D02*
X163624404Y-113132380D01*
X164052976Y-112465714D02*
X164052976Y-112989523D01*
X164005357Y-113084761D01*
X163910119Y-113132380D01*
X163767261Y-113132380D01*
X163672023Y-113084761D01*
X163624404Y-113037142D01*
X162814880Y-112608571D02*
X163148214Y-112608571D01*
X163148214Y-113132380D02*
X163148214Y-112132380D01*
X162672023Y-112132380D01*
D11*
X164445833Y-111178571D02*
X164469642Y-111202380D01*
X164541071Y-111226190D01*
X164588690Y-111226190D01*
X164660119Y-111202380D01*
X164707738Y-111154761D01*
X164731547Y-111107142D01*
X164755357Y-111011904D01*
X164755357Y-110940476D01*
X164731547Y-110845238D01*
X164707738Y-110797619D01*
X164660119Y-110750000D01*
X164588690Y-110726190D01*
X164541071Y-110726190D01*
X164469642Y-110750000D01*
X164445833Y-110773809D01*
X164160119Y-110940476D02*
X164207738Y-110916666D01*
X164231547Y-110892857D01*
X164255357Y-110845238D01*
X164255357Y-110821428D01*
X164231547Y-110773809D01*
X164207738Y-110750000D01*
X164160119Y-110726190D01*
X164064880Y-110726190D01*
X164017261Y-110750000D01*
X163993452Y-110773809D01*
X163969642Y-110821428D01*
X163969642Y-110845238D01*
X163993452Y-110892857D01*
X164017261Y-110916666D01*
X164064880Y-110940476D01*
X164160119Y-110940476D01*
X164207738Y-110964285D01*
X164231547Y-110988095D01*
X164255357Y-111035714D01*
X164255357Y-111130952D01*
X164231547Y-111178571D01*
X164207738Y-111202380D01*
X164160119Y-111226190D01*
X164064880Y-111226190D01*
X164017261Y-111202380D01*
X163993452Y-111178571D01*
X163969642Y-111130952D01*
X163969642Y-111035714D01*
X163993452Y-110988095D01*
X164017261Y-110964285D01*
X164064880Y-110940476D01*
D10*
%TO.C,C3*%
X175997619Y-99132380D02*
X176569047Y-99132380D01*
X176283333Y-99132380D02*
X176283333Y-98132380D01*
X176378571Y-98275238D01*
X176473809Y-98370476D01*
X176569047Y-98418095D01*
X175378571Y-98132380D02*
X175283333Y-98132380D01*
X175188095Y-98180000D01*
X175140476Y-98227619D01*
X175092857Y-98322857D01*
X175045238Y-98513333D01*
X175045238Y-98751428D01*
X175092857Y-98941904D01*
X175140476Y-99037142D01*
X175188095Y-99084761D01*
X175283333Y-99132380D01*
X175378571Y-99132380D01*
X175473809Y-99084761D01*
X175521428Y-99037142D01*
X175569047Y-98941904D01*
X175616666Y-98751428D01*
X175616666Y-98513333D01*
X175569047Y-98322857D01*
X175521428Y-98227619D01*
X175473809Y-98180000D01*
X175378571Y-98132380D01*
X174426190Y-98132380D02*
X174330952Y-98132380D01*
X174235714Y-98180000D01*
X174188095Y-98227619D01*
X174140476Y-98322857D01*
X174092857Y-98513333D01*
X174092857Y-98751428D01*
X174140476Y-98941904D01*
X174188095Y-99037142D01*
X174235714Y-99084761D01*
X174330952Y-99132380D01*
X174426190Y-99132380D01*
X174521428Y-99084761D01*
X174569047Y-99037142D01*
X174616666Y-98941904D01*
X174664285Y-98751428D01*
X174664285Y-98513333D01*
X174616666Y-98322857D01*
X174569047Y-98227619D01*
X174521428Y-98180000D01*
X174426190Y-98132380D01*
X173664285Y-98465714D02*
X173664285Y-99132380D01*
X173664285Y-98560952D02*
X173616666Y-98513333D01*
X173521428Y-98465714D01*
X173378571Y-98465714D01*
X173283333Y-98513333D01*
X173235714Y-98608571D01*
X173235714Y-99132380D01*
X172426190Y-98608571D02*
X172759523Y-98608571D01*
X172759523Y-99132380D02*
X172759523Y-98132380D01*
X172283333Y-98132380D01*
D11*
X174533333Y-97178571D02*
X174557142Y-97202380D01*
X174628571Y-97226190D01*
X174676190Y-97226190D01*
X174747619Y-97202380D01*
X174795238Y-97154761D01*
X174819047Y-97107142D01*
X174842857Y-97011904D01*
X174842857Y-96940476D01*
X174819047Y-96845238D01*
X174795238Y-96797619D01*
X174747619Y-96750000D01*
X174676190Y-96726190D01*
X174628571Y-96726190D01*
X174557142Y-96750000D01*
X174533333Y-96773809D01*
X174366666Y-96726190D02*
X174057142Y-96726190D01*
X174223809Y-96916666D01*
X174152380Y-96916666D01*
X174104761Y-96940476D01*
X174080952Y-96964285D01*
X174057142Y-97011904D01*
X174057142Y-97130952D01*
X174080952Y-97178571D01*
X174104761Y-97202380D01*
X174152380Y-97226190D01*
X174295238Y-97226190D01*
X174342857Y-97202380D01*
X174366666Y-97178571D01*
D10*
%TO.C,R7*%
X135452380Y-109809523D02*
X135452380Y-109238095D01*
X135452380Y-109523809D02*
X134452380Y-109523809D01*
X134595238Y-109428571D01*
X134690476Y-109333333D01*
X134738095Y-109238095D01*
X134452380Y-110428571D02*
X134452380Y-110523809D01*
X134500000Y-110619047D01*
X134547619Y-110666666D01*
X134642857Y-110714285D01*
X134833333Y-110761904D01*
X135071428Y-110761904D01*
X135261904Y-110714285D01*
X135357142Y-110666666D01*
X135404761Y-110619047D01*
X135452380Y-110523809D01*
X135452380Y-110428571D01*
X135404761Y-110333333D01*
X135357142Y-110285714D01*
X135261904Y-110238095D01*
X135071428Y-110190476D01*
X134833333Y-110190476D01*
X134642857Y-110238095D01*
X134547619Y-110285714D01*
X134500000Y-110333333D01*
X134452380Y-110428571D01*
X135452380Y-111190476D02*
X134452380Y-111190476D01*
X135452380Y-111761904D02*
X134880952Y-111333333D01*
X134452380Y-111761904D02*
X135023809Y-111190476D01*
D11*
X135226190Y-113416666D02*
X134988095Y-113250000D01*
X135226190Y-113130952D02*
X134726190Y-113130952D01*
X134726190Y-113321428D01*
X134750000Y-113369047D01*
X134773809Y-113392857D01*
X134821428Y-113416666D01*
X134892857Y-113416666D01*
X134940476Y-113392857D01*
X134964285Y-113369047D01*
X134988095Y-113321428D01*
X134988095Y-113130952D01*
X134726190Y-113583333D02*
X134726190Y-113916666D01*
X135226190Y-113702380D01*
D10*
%TO.C,D16*%
X159802380Y-97556547D02*
X159802380Y-97080357D01*
X158802380Y-97080357D01*
X159278571Y-97889880D02*
X159278571Y-98223214D01*
X159802380Y-98366071D02*
X159802380Y-97889880D01*
X158802380Y-97889880D01*
X158802380Y-98366071D01*
X159802380Y-98794642D02*
X158802380Y-98794642D01*
X158802380Y-99032738D01*
X158850000Y-99175595D01*
X158945238Y-99270833D01*
X159040476Y-99318452D01*
X159230952Y-99366071D01*
X159373809Y-99366071D01*
X159564285Y-99318452D01*
X159659523Y-99270833D01*
X159754761Y-99175595D01*
X159802380Y-99032738D01*
X159802380Y-98794642D01*
X159897619Y-99556547D02*
X159897619Y-100318452D01*
X158802380Y-100413690D02*
X158802380Y-100985119D01*
X159802380Y-100699404D02*
X158802380Y-100699404D01*
X158802380Y-101223214D02*
X159802380Y-101889880D01*
X158802380Y-101889880D02*
X159802380Y-101223214D01*
D11*
X161226190Y-98830357D02*
X160726190Y-98830357D01*
X160726190Y-98949404D01*
X160750000Y-99020833D01*
X160797619Y-99068452D01*
X160845238Y-99092261D01*
X160940476Y-99116071D01*
X161011904Y-99116071D01*
X161107142Y-99092261D01*
X161154761Y-99068452D01*
X161202380Y-99020833D01*
X161226190Y-98949404D01*
X161226190Y-98830357D01*
X161226190Y-99592261D02*
X161226190Y-99306547D01*
X161226190Y-99449404D02*
X160726190Y-99449404D01*
X160797619Y-99401785D01*
X160845238Y-99354166D01*
X160869047Y-99306547D01*
X160726190Y-100020833D02*
X160726190Y-99925595D01*
X160750000Y-99877976D01*
X160773809Y-99854166D01*
X160845238Y-99806547D01*
X160940476Y-99782738D01*
X161130952Y-99782738D01*
X161178571Y-99806547D01*
X161202380Y-99830357D01*
X161226190Y-99877976D01*
X161226190Y-99973214D01*
X161202380Y-100020833D01*
X161178571Y-100044642D01*
X161130952Y-100068452D01*
X161011904Y-100068452D01*
X160964285Y-100044642D01*
X160940476Y-100020833D01*
X160916666Y-99973214D01*
X160916666Y-99877976D01*
X160940476Y-99830357D01*
X160964285Y-99806547D01*
X161011904Y-99782738D01*
D10*
%TO.C,JP2*%
X146452380Y-88452380D02*
X145976190Y-88119047D01*
X146452380Y-87880952D02*
X145452380Y-87880952D01*
X145452380Y-88261904D01*
X145500000Y-88357142D01*
X145547619Y-88404761D01*
X145642857Y-88452380D01*
X145785714Y-88452380D01*
X145880952Y-88404761D01*
X145928571Y-88357142D01*
X145976190Y-88261904D01*
X145976190Y-87880952D01*
X145928571Y-88880952D02*
X145928571Y-89214285D01*
X146452380Y-89357142D02*
X146452380Y-88880952D01*
X145452380Y-88880952D01*
X145452380Y-89357142D01*
X146404761Y-89738095D02*
X146452380Y-89880952D01*
X146452380Y-90119047D01*
X146404761Y-90214285D01*
X146357142Y-90261904D01*
X146261904Y-90309523D01*
X146166666Y-90309523D01*
X146071428Y-90261904D01*
X146023809Y-90214285D01*
X145976190Y-90119047D01*
X145928571Y-89928571D01*
X145880952Y-89833333D01*
X145833333Y-89785714D01*
X145738095Y-89738095D01*
X145642857Y-89738095D01*
X145547619Y-89785714D01*
X145500000Y-89833333D01*
X145452380Y-89928571D01*
X145452380Y-90166666D01*
X145500000Y-90309523D01*
X145928571Y-90738095D02*
X145928571Y-91071428D01*
X146452380Y-91214285D02*
X146452380Y-90738095D01*
X145452380Y-90738095D01*
X145452380Y-91214285D01*
X145452380Y-91500000D02*
X145452380Y-92071428D01*
X146452380Y-91785714D02*
X145452380Y-91785714D01*
X146071428Y-92404761D02*
X146071428Y-93166666D01*
X145928571Y-93642857D02*
X145928571Y-93976190D01*
X146452380Y-94119047D02*
X146452380Y-93642857D01*
X145452380Y-93642857D01*
X145452380Y-94119047D01*
X146452380Y-94547619D02*
X145452380Y-94547619D01*
X146452380Y-95119047D01*
X145452380Y-95119047D01*
%TO.C,Y2*%
X145735714Y-116832142D02*
X145783333Y-116879761D01*
X145926190Y-116927380D01*
X146021428Y-116927380D01*
X146164285Y-116879761D01*
X146259523Y-116784523D01*
X146307142Y-116689285D01*
X146354761Y-116498809D01*
X146354761Y-116355952D01*
X146307142Y-116165476D01*
X146259523Y-116070238D01*
X146164285Y-115975000D01*
X146021428Y-115927380D01*
X145926190Y-115927380D01*
X145783333Y-115975000D01*
X145735714Y-116022619D01*
X145307142Y-116927380D02*
X145307142Y-116260714D01*
X145307142Y-116451190D02*
X145259523Y-116355952D01*
X145211904Y-116308333D01*
X145116666Y-116260714D01*
X145021428Y-116260714D01*
X144783333Y-116260714D02*
X144545238Y-116927380D01*
X144307142Y-116260714D02*
X144545238Y-116927380D01*
X144640476Y-117165476D01*
X144688095Y-117213095D01*
X144783333Y-117260714D01*
X143973809Y-116879761D02*
X143878571Y-116927380D01*
X143688095Y-116927380D01*
X143592857Y-116879761D01*
X143545238Y-116784523D01*
X143545238Y-116736904D01*
X143592857Y-116641666D01*
X143688095Y-116594047D01*
X143830952Y-116594047D01*
X143926190Y-116546428D01*
X143973809Y-116451190D01*
X143973809Y-116403571D01*
X143926190Y-116308333D01*
X143830952Y-116260714D01*
X143688095Y-116260714D01*
X143592857Y-116308333D01*
X143259523Y-116260714D02*
X142878571Y-116260714D01*
X143116666Y-115927380D02*
X143116666Y-116784523D01*
X143069047Y-116879761D01*
X142973809Y-116927380D01*
X142878571Y-116927380D01*
X142116666Y-116927380D02*
X142116666Y-116403571D01*
X142164285Y-116308333D01*
X142259523Y-116260714D01*
X142450000Y-116260714D01*
X142545238Y-116308333D01*
X142116666Y-116879761D02*
X142211904Y-116927380D01*
X142450000Y-116927380D01*
X142545238Y-116879761D01*
X142592857Y-116784523D01*
X142592857Y-116689285D01*
X142545238Y-116594047D01*
X142450000Y-116546428D01*
X142211904Y-116546428D01*
X142116666Y-116498809D01*
X141497619Y-116927380D02*
X141592857Y-116879761D01*
X141640476Y-116784523D01*
X141640476Y-115927380D01*
X143926190Y-122513809D02*
X144402380Y-122513809D01*
X143402380Y-122180476D02*
X143926190Y-122513809D01*
X143402380Y-122847142D01*
X143497619Y-123132857D02*
X143450000Y-123180476D01*
X143402380Y-123275714D01*
X143402380Y-123513809D01*
X143450000Y-123609047D01*
X143497619Y-123656666D01*
X143592857Y-123704285D01*
X143688095Y-123704285D01*
X143830952Y-123656666D01*
X144402380Y-123085238D01*
X144402380Y-123704285D01*
D12*
%TO.C,F1*%
X142785833Y-104909285D02*
X143209166Y-104909285D01*
X143209166Y-105574523D02*
X143209166Y-104304523D01*
X142604404Y-104304523D01*
X141455357Y-105574523D02*
X142181071Y-105574523D01*
X141818214Y-105574523D02*
X141818214Y-104304523D01*
X141939166Y-104485952D01*
X142060119Y-104606904D01*
X142181071Y-104667380D01*
D10*
%TO.C,C11*%
X144642857Y-137565119D02*
X144595238Y-137517500D01*
X144500000Y-137469880D01*
X144261904Y-137469880D01*
X144166666Y-137517500D01*
X144119047Y-137565119D01*
X144071428Y-137660357D01*
X144071428Y-137755595D01*
X144119047Y-137898452D01*
X144690476Y-138469880D01*
X144071428Y-138469880D01*
X143690476Y-137565119D02*
X143642857Y-137517500D01*
X143547619Y-137469880D01*
X143309523Y-137469880D01*
X143214285Y-137517500D01*
X143166666Y-137565119D01*
X143119047Y-137660357D01*
X143119047Y-137755595D01*
X143166666Y-137898452D01*
X143738095Y-138469880D01*
X143119047Y-138469880D01*
X142690476Y-137803214D02*
X142690476Y-138803214D01*
X142690476Y-137850833D02*
X142595238Y-137803214D01*
X142404761Y-137803214D01*
X142309523Y-137850833D01*
X142261904Y-137898452D01*
X142214285Y-137993690D01*
X142214285Y-138279404D01*
X142261904Y-138374642D01*
X142309523Y-138422261D01*
X142404761Y-138469880D01*
X142595238Y-138469880D01*
X142690476Y-138422261D01*
X141452380Y-137946071D02*
X141785714Y-137946071D01*
X141785714Y-138469880D02*
X141785714Y-137469880D01*
X141309523Y-137469880D01*
D11*
X143321428Y-136516071D02*
X143345238Y-136539880D01*
X143416666Y-136563690D01*
X143464285Y-136563690D01*
X143535714Y-136539880D01*
X143583333Y-136492261D01*
X143607142Y-136444642D01*
X143630952Y-136349404D01*
X143630952Y-136277976D01*
X143607142Y-136182738D01*
X143583333Y-136135119D01*
X143535714Y-136087500D01*
X143464285Y-136063690D01*
X143416666Y-136063690D01*
X143345238Y-136087500D01*
X143321428Y-136111309D01*
X142845238Y-136563690D02*
X143130952Y-136563690D01*
X142988095Y-136563690D02*
X142988095Y-136063690D01*
X143035714Y-136135119D01*
X143083333Y-136182738D01*
X143130952Y-136206547D01*
X142369047Y-136563690D02*
X142654761Y-136563690D01*
X142511904Y-136563690D02*
X142511904Y-136063690D01*
X142559523Y-136135119D01*
X142607142Y-136182738D01*
X142654761Y-136206547D01*
D10*
%TO.C,J10*%
X177865238Y-111486666D02*
X177389047Y-111486666D01*
X177960476Y-111772380D02*
X177627142Y-110772380D01*
X177293809Y-111772380D01*
X177103333Y-110772380D02*
X176770000Y-111772380D01*
X176436666Y-110772380D01*
X175531904Y-111772380D02*
X175865238Y-111296190D01*
X176103333Y-111772380D02*
X176103333Y-110772380D01*
X175722380Y-110772380D01*
X175627142Y-110820000D01*
X175579523Y-110867619D01*
X175531904Y-110962857D01*
X175531904Y-111105714D01*
X175579523Y-111200952D01*
X175627142Y-111248571D01*
X175722380Y-111296190D01*
X176103333Y-111296190D01*
X175103333Y-111391428D02*
X174341428Y-111391428D01*
X173865238Y-111772380D02*
X173865238Y-110772380D01*
X173436666Y-111724761D02*
X173293809Y-111772380D01*
X173055714Y-111772380D01*
X172960476Y-111724761D01*
X172912857Y-111677142D01*
X172865238Y-111581904D01*
X172865238Y-111486666D01*
X172912857Y-111391428D01*
X172960476Y-111343809D01*
X173055714Y-111296190D01*
X173246190Y-111248571D01*
X173341428Y-111200952D01*
X173389047Y-111153333D01*
X173436666Y-111058095D01*
X173436666Y-110962857D01*
X173389047Y-110867619D01*
X173341428Y-110820000D01*
X173246190Y-110772380D01*
X173008095Y-110772380D01*
X172865238Y-110820000D01*
X172436666Y-111772380D02*
X172436666Y-110772380D01*
X172055714Y-110772380D01*
X171960476Y-110820000D01*
X171912857Y-110867619D01*
X171865238Y-110962857D01*
X171865238Y-111105714D01*
X171912857Y-111200952D01*
X171960476Y-111248571D01*
X172055714Y-111296190D01*
X172436666Y-111296190D01*
X171436666Y-111391428D02*
X170674761Y-111391428D01*
X169770000Y-110772380D02*
X169960476Y-110772380D01*
X170055714Y-110820000D01*
X170103333Y-110867619D01*
X170198571Y-111010476D01*
X170246190Y-111200952D01*
X170246190Y-111581904D01*
X170198571Y-111677142D01*
X170150952Y-111724761D01*
X170055714Y-111772380D01*
X169865238Y-111772380D01*
X169770000Y-111724761D01*
X169722380Y-111677142D01*
X169674761Y-111581904D01*
X169674761Y-111343809D01*
X169722380Y-111248571D01*
X169770000Y-111200952D01*
X169865238Y-111153333D01*
X170055714Y-111153333D01*
X170150952Y-111200952D01*
X170198571Y-111248571D01*
X170246190Y-111343809D01*
X173222380Y-119150476D02*
X173936666Y-119150476D01*
X174079523Y-119102857D01*
X174174761Y-119007619D01*
X174222380Y-118864761D01*
X174222380Y-118769523D01*
X174222380Y-120150476D02*
X174222380Y-119579047D01*
X174222380Y-119864761D02*
X173222380Y-119864761D01*
X173365238Y-119769523D01*
X173460476Y-119674285D01*
X173508095Y-119579047D01*
X173222380Y-120769523D02*
X173222380Y-120864761D01*
X173270000Y-120960000D01*
X173317619Y-121007619D01*
X173412857Y-121055238D01*
X173603333Y-121102857D01*
X173841428Y-121102857D01*
X174031904Y-121055238D01*
X174127142Y-121007619D01*
X174174761Y-120960000D01*
X174222380Y-120864761D01*
X174222380Y-120769523D01*
X174174761Y-120674285D01*
X174127142Y-120626666D01*
X174031904Y-120579047D01*
X173841428Y-120531428D01*
X173603333Y-120531428D01*
X173412857Y-120579047D01*
X173317619Y-120626666D01*
X173270000Y-120674285D01*
X173222380Y-120769523D01*
%TO.C,D6*%
X174324404Y-178902380D02*
X174324404Y-177902380D01*
X174086309Y-177902380D01*
X173943452Y-177950000D01*
X173848214Y-178045238D01*
X173800595Y-178140476D01*
X173752976Y-178330952D01*
X173752976Y-178473809D01*
X173800595Y-178664285D01*
X173848214Y-178759523D01*
X173943452Y-178854761D01*
X174086309Y-178902380D01*
X174324404Y-178902380D01*
D11*
X174431547Y-180226190D02*
X174431547Y-179726190D01*
X174312500Y-179726190D01*
X174241071Y-179750000D01*
X174193452Y-179797619D01*
X174169642Y-179845238D01*
X174145833Y-179940476D01*
X174145833Y-180011904D01*
X174169642Y-180107142D01*
X174193452Y-180154761D01*
X174241071Y-180202380D01*
X174312500Y-180226190D01*
X174431547Y-180226190D01*
X173717261Y-179726190D02*
X173812500Y-179726190D01*
X173860119Y-179750000D01*
X173883928Y-179773809D01*
X173931547Y-179845238D01*
X173955357Y-179940476D01*
X173955357Y-180130952D01*
X173931547Y-180178571D01*
X173907738Y-180202380D01*
X173860119Y-180226190D01*
X173764880Y-180226190D01*
X173717261Y-180202380D01*
X173693452Y-180178571D01*
X173669642Y-180130952D01*
X173669642Y-180011904D01*
X173693452Y-179964285D01*
X173717261Y-179940476D01*
X173764880Y-179916666D01*
X173860119Y-179916666D01*
X173907738Y-179940476D01*
X173931547Y-179964285D01*
X173955357Y-180011904D01*
D10*
%TO.C,JP1*%
X147672023Y-107600000D02*
X147767261Y-107552380D01*
X147910119Y-107552380D01*
X148052976Y-107600000D01*
X148148214Y-107695238D01*
X148195833Y-107790476D01*
X148243452Y-107980952D01*
X148243452Y-108123809D01*
X148195833Y-108314285D01*
X148148214Y-108409523D01*
X148052976Y-108504761D01*
X147910119Y-108552380D01*
X147814880Y-108552380D01*
X147672023Y-108504761D01*
X147624404Y-108457142D01*
X147624404Y-108123809D01*
X147814880Y-108123809D01*
X146624404Y-108552380D02*
X146957738Y-108076190D01*
X147195833Y-108552380D02*
X147195833Y-107552380D01*
X146814880Y-107552380D01*
X146719642Y-107600000D01*
X146672023Y-107647619D01*
X146624404Y-107742857D01*
X146624404Y-107885714D01*
X146672023Y-107980952D01*
X146719642Y-108028571D01*
X146814880Y-108076190D01*
X147195833Y-108076190D01*
X146005357Y-107552380D02*
X145814880Y-107552380D01*
X145719642Y-107600000D01*
X145624404Y-107695238D01*
X145576785Y-107885714D01*
X145576785Y-108219047D01*
X145624404Y-108409523D01*
X145719642Y-108504761D01*
X145814880Y-108552380D01*
X146005357Y-108552380D01*
X146100595Y-108504761D01*
X146195833Y-108409523D01*
X146243452Y-108219047D01*
X146243452Y-107885714D01*
X146195833Y-107695238D01*
X146100595Y-107600000D01*
X146005357Y-107552380D01*
X145148214Y-107552380D02*
X145148214Y-108361904D01*
X145100595Y-108457142D01*
X145052976Y-108504761D01*
X144957738Y-108552380D01*
X144767261Y-108552380D01*
X144672023Y-108504761D01*
X144624404Y-108457142D01*
X144576785Y-108361904D01*
X144576785Y-107552380D01*
X144100595Y-108552380D02*
X144100595Y-107552380D01*
X143529166Y-108552380D01*
X143529166Y-107552380D01*
X143052976Y-108552380D02*
X143052976Y-107552380D01*
X142814880Y-107552380D01*
X142672023Y-107600000D01*
X142576785Y-107695238D01*
X142529166Y-107790476D01*
X142481547Y-107980952D01*
X142481547Y-108123809D01*
X142529166Y-108314285D01*
X142576785Y-108409523D01*
X142672023Y-108504761D01*
X142814880Y-108552380D01*
X143052976Y-108552380D01*
%TO.C,C16*%
X156595238Y-126109880D02*
X157166666Y-126109880D01*
X156880952Y-126109880D02*
X156880952Y-125109880D01*
X156976190Y-125252738D01*
X157071428Y-125347976D01*
X157166666Y-125395595D01*
X155738095Y-125443214D02*
X155738095Y-126109880D01*
X156166666Y-125443214D02*
X156166666Y-125967023D01*
X156119047Y-126062261D01*
X156023809Y-126109880D01*
X155880952Y-126109880D01*
X155785714Y-126062261D01*
X155738095Y-126014642D01*
X154928571Y-125586071D02*
X155261904Y-125586071D01*
X155261904Y-126109880D02*
X155261904Y-125109880D01*
X154785714Y-125109880D01*
D11*
X156321428Y-127516071D02*
X156345238Y-127539880D01*
X156416666Y-127563690D01*
X156464285Y-127563690D01*
X156535714Y-127539880D01*
X156583333Y-127492261D01*
X156607142Y-127444642D01*
X156630952Y-127349404D01*
X156630952Y-127277976D01*
X156607142Y-127182738D01*
X156583333Y-127135119D01*
X156535714Y-127087500D01*
X156464285Y-127063690D01*
X156416666Y-127063690D01*
X156345238Y-127087500D01*
X156321428Y-127111309D01*
X155845238Y-127563690D02*
X156130952Y-127563690D01*
X155988095Y-127563690D02*
X155988095Y-127063690D01*
X156035714Y-127135119D01*
X156083333Y-127182738D01*
X156130952Y-127206547D01*
X155416666Y-127063690D02*
X155511904Y-127063690D01*
X155559523Y-127087500D01*
X155583333Y-127111309D01*
X155630952Y-127182738D01*
X155654761Y-127277976D01*
X155654761Y-127468452D01*
X155630952Y-127516071D01*
X155607142Y-127539880D01*
X155559523Y-127563690D01*
X155464285Y-127563690D01*
X155416666Y-127539880D01*
X155392857Y-127516071D01*
X155369047Y-127468452D01*
X155369047Y-127349404D01*
X155392857Y-127301785D01*
X155416666Y-127277976D01*
X155464285Y-127254166D01*
X155559523Y-127254166D01*
X155607142Y-127277976D01*
X155630952Y-127301785D01*
X155654761Y-127349404D01*
D10*
%TO.C,U6*%
X163119047Y-125166666D02*
X162642857Y-125166666D01*
X163214285Y-125452380D02*
X162880952Y-124452380D01*
X162547619Y-125452380D01*
X162357142Y-124452380D02*
X161785714Y-124452380D01*
X162071428Y-125452380D02*
X162071428Y-124452380D01*
X161452380Y-125452380D02*
X161452380Y-124785714D01*
X161452380Y-124880952D02*
X161404761Y-124833333D01*
X161309523Y-124785714D01*
X161166666Y-124785714D01*
X161071428Y-124833333D01*
X161023809Y-124928571D01*
X161023809Y-125452380D01*
X161023809Y-124928571D02*
X160976190Y-124833333D01*
X160880952Y-124785714D01*
X160738095Y-124785714D01*
X160642857Y-124833333D01*
X160595238Y-124928571D01*
X160595238Y-125452380D01*
X159738095Y-125404761D02*
X159833333Y-125452380D01*
X160023809Y-125452380D01*
X160119047Y-125404761D01*
X160166666Y-125309523D01*
X160166666Y-124928571D01*
X160119047Y-124833333D01*
X160023809Y-124785714D01*
X159833333Y-124785714D01*
X159738095Y-124833333D01*
X159690476Y-124928571D01*
X159690476Y-125023809D01*
X160166666Y-125119047D01*
X158833333Y-124785714D02*
X158833333Y-125595238D01*
X158880952Y-125690476D01*
X158928571Y-125738095D01*
X159023809Y-125785714D01*
X159166666Y-125785714D01*
X159261904Y-125738095D01*
X158833333Y-125404761D02*
X158928571Y-125452380D01*
X159119047Y-125452380D01*
X159214285Y-125404761D01*
X159261904Y-125357142D01*
X159309523Y-125261904D01*
X159309523Y-124976190D01*
X159261904Y-124880952D01*
X159214285Y-124833333D01*
X159119047Y-124785714D01*
X158928571Y-124785714D01*
X158833333Y-124833333D01*
X157928571Y-125452380D02*
X157928571Y-124928571D01*
X157976190Y-124833333D01*
X158071428Y-124785714D01*
X158261904Y-124785714D01*
X158357142Y-124833333D01*
X157928571Y-125404761D02*
X158023809Y-125452380D01*
X158261904Y-125452380D01*
X158357142Y-125404761D01*
X158404761Y-125309523D01*
X158404761Y-125214285D01*
X158357142Y-125119047D01*
X158261904Y-125071428D01*
X158023809Y-125071428D01*
X157928571Y-125023809D01*
X156928571Y-125452380D02*
X157500000Y-125452380D01*
X157214285Y-125452380D02*
X157214285Y-124452380D01*
X157309523Y-124595238D01*
X157404761Y-124690476D01*
X157500000Y-124738095D01*
X156071428Y-124452380D02*
X156261904Y-124452380D01*
X156357142Y-124500000D01*
X156404761Y-124547619D01*
X156500000Y-124690476D01*
X156547619Y-124880952D01*
X156547619Y-125261904D01*
X156500000Y-125357142D01*
X156452380Y-125404761D01*
X156357142Y-125452380D01*
X156166666Y-125452380D01*
X156071428Y-125404761D01*
X156023809Y-125357142D01*
X155976190Y-125261904D01*
X155976190Y-125023809D01*
X156023809Y-124928571D01*
X156071428Y-124880952D01*
X156166666Y-124833333D01*
X156357142Y-124833333D01*
X156452380Y-124880952D01*
X156500000Y-124928571D01*
X156547619Y-125023809D01*
X155547619Y-124452380D02*
X155547619Y-125261904D01*
X155500000Y-125357142D01*
X155452380Y-125404761D01*
X155357142Y-125452380D01*
X155166666Y-125452380D01*
X155071428Y-125404761D01*
X155023809Y-125357142D01*
X154976190Y-125261904D01*
X154976190Y-124452380D01*
X154547619Y-124547619D02*
X154500000Y-124500000D01*
X154404761Y-124452380D01*
X154166666Y-124452380D01*
X154071428Y-124500000D01*
X154023809Y-124547619D01*
X153976190Y-124642857D01*
X153976190Y-124738095D01*
X154023809Y-124880952D01*
X154595238Y-125452380D01*
X153976190Y-125452380D01*
X153547619Y-125071428D02*
X152785714Y-125071428D01*
X152357142Y-125166666D02*
X151880952Y-125166666D01*
X152452380Y-125452380D02*
X152119047Y-124452380D01*
X151785714Y-125452380D01*
X155711904Y-119952380D02*
X155711904Y-120761904D01*
X155664285Y-120857142D01*
X155616666Y-120904761D01*
X155521428Y-120952380D01*
X155330952Y-120952380D01*
X155235714Y-120904761D01*
X155188095Y-120857142D01*
X155140476Y-120761904D01*
X155140476Y-119952380D01*
X154235714Y-119952380D02*
X154426190Y-119952380D01*
X154521428Y-120000000D01*
X154569047Y-120047619D01*
X154664285Y-120190476D01*
X154711904Y-120380952D01*
X154711904Y-120761904D01*
X154664285Y-120857142D01*
X154616666Y-120904761D01*
X154521428Y-120952380D01*
X154330952Y-120952380D01*
X154235714Y-120904761D01*
X154188095Y-120857142D01*
X154140476Y-120761904D01*
X154140476Y-120523809D01*
X154188095Y-120428571D01*
X154235714Y-120380952D01*
X154330952Y-120333333D01*
X154521428Y-120333333D01*
X154616666Y-120380952D01*
X154664285Y-120428571D01*
X154711904Y-120523809D01*
D15*
%TO.C,J1*%
X124950000Y-103600000D02*
X137050000Y-103600000D01*
X137050000Y-103600000D02*
X137050000Y-87400000D01*
X137050000Y-87400000D02*
X124950000Y-87400000D01*
X124950000Y-87400000D02*
X124950000Y-103600000D01*
D16*
X137850000Y-102500000D02*
G75*
G03*
X137850000Y-102500000I-100000J0D01*
G01*
D15*
%TO.C,D7*%
X127000000Y-217550000D02*
X125000000Y-217550000D01*
X127000000Y-218450000D02*
X127000000Y-217550000D01*
X125000000Y-218450000D02*
X127000000Y-218450000D01*
X125000000Y-217550000D02*
X125000000Y-218450000D01*
%TO.C,C1*%
X165500000Y-102375000D02*
X165500000Y-103625000D01*
X167500000Y-103625000D02*
X167500000Y-102375000D01*
X165500000Y-103625000D02*
X167500000Y-103625000D01*
X167500000Y-102375000D02*
X165500000Y-102375000D01*
%TO.C,D3*%
X137000000Y-167550000D02*
X137000000Y-168450000D01*
X139000000Y-167550000D02*
X137000000Y-167550000D01*
X139000000Y-168450000D02*
X139000000Y-167550000D01*
X137000000Y-168450000D02*
X139000000Y-168450000D01*
%TO.C,C7*%
X164000000Y-135962500D02*
X164000000Y-134712500D01*
X164000000Y-134712500D02*
X162000000Y-134712500D01*
X162000000Y-134712500D02*
X162000000Y-135962500D01*
X162000000Y-135962500D02*
X164000000Y-135962500D01*
%TO.C,C9*%
X163362500Y-109625000D02*
X165362500Y-109625000D01*
X163362500Y-108375000D02*
X163362500Y-109625000D01*
X165362500Y-109625000D02*
X165362500Y-108375000D01*
X165362500Y-108375000D02*
X163362500Y-108375000D01*
%TO.C,FB1*%
X140362500Y-110800000D02*
X142362500Y-110800000D01*
X142362500Y-109200000D02*
X140362500Y-109200000D01*
X140362500Y-109200000D02*
X140362500Y-110800000D01*
X142362500Y-110800000D02*
X142362500Y-109200000D01*
%TO.C,D11*%
X149000000Y-242550000D02*
X149000000Y-243450000D01*
X149000000Y-243450000D02*
X151000000Y-243450000D01*
X151000000Y-242550000D02*
X149000000Y-242550000D01*
X151000000Y-243450000D02*
X151000000Y-242550000D01*
%TO.C,C10*%
X163362500Y-106375000D02*
X163362500Y-107625000D01*
X165362500Y-107625000D02*
X165362500Y-106375000D01*
X165362500Y-106375000D02*
X163362500Y-106375000D01*
X163362500Y-107625000D02*
X165362500Y-107625000D01*
%TO.C,R3*%
X173450000Y-100375000D02*
X173450000Y-101625000D01*
X173450000Y-101625000D02*
X175450000Y-101625000D01*
X175450000Y-101625000D02*
X175450000Y-100375000D01*
X175450000Y-100375000D02*
X173450000Y-100375000D01*
%TO.C,U4*%
X158212500Y-106650000D02*
X158212500Y-112350000D01*
X158212500Y-112350000D02*
X154512500Y-112350000D01*
X158212500Y-106650000D02*
X157212500Y-105650000D01*
X157212500Y-105650000D02*
X154512500Y-105650000D01*
X154512500Y-105650000D02*
X154512500Y-112350000D01*
%TO.C,U2*%
X165525000Y-101450000D02*
X168450000Y-101450000D01*
X168450000Y-96550000D02*
X164550000Y-96550000D01*
X168450000Y-101450000D02*
X168450000Y-96550000D01*
X164550000Y-96550000D02*
X164550000Y-100475000D01*
X164550000Y-100475000D02*
X165525000Y-101450000D01*
%TO.C,D4*%
X139000000Y-193450000D02*
X139000000Y-192550000D01*
X137000000Y-193450000D02*
X139000000Y-193450000D01*
X139000000Y-192550000D02*
X137000000Y-192550000D01*
X137000000Y-192550000D02*
X137000000Y-193450000D01*
D16*
%TO.C,Y1*%
X148350000Y-132687500D02*
X151550000Y-132687500D01*
X148350000Y-133987500D02*
X148350000Y-132687500D01*
X151550000Y-132687500D02*
X151550000Y-133987500D01*
X151550000Y-133987500D02*
X148350000Y-133987500D01*
D15*
%TO.C,C6*%
X164000000Y-153625000D02*
X164000000Y-152375000D01*
X164000000Y-152375000D02*
X162000000Y-152375000D01*
X162000000Y-152375000D02*
X162000000Y-153625000D01*
X162000000Y-153625000D02*
X164000000Y-153625000D01*
%TO.C,D14*%
X131350000Y-111150000D02*
X130750000Y-111750000D01*
X132250000Y-111150000D02*
X130750000Y-111150000D01*
X132250000Y-114350000D02*
X132250000Y-111150000D01*
X130750000Y-111150000D02*
X130750000Y-114350000D01*
X130750000Y-114350000D02*
X132250000Y-114350000D01*
%TO.C,D2*%
X125000000Y-179550000D02*
X125000000Y-180450000D01*
X125000000Y-180450000D02*
X127000000Y-180450000D01*
X127000000Y-179550000D02*
X125000000Y-179550000D01*
X127000000Y-180450000D02*
X127000000Y-179550000D01*
%TO.C,R12*%
X160375000Y-96437500D02*
X161625000Y-96437500D01*
X160375000Y-94437500D02*
X160375000Y-96437500D01*
X161625000Y-94437500D02*
X160375000Y-94437500D01*
X161625000Y-96437500D02*
X161625000Y-94437500D01*
%TO.C,D12*%
X173000000Y-242550000D02*
X173000000Y-243450000D01*
X175000000Y-242550000D02*
X173000000Y-242550000D01*
X175000000Y-243450000D02*
X175000000Y-242550000D01*
X173000000Y-243450000D02*
X175000000Y-243450000D01*
%TO.C,R1*%
X150862500Y-130462500D02*
X150862500Y-129212500D01*
X148862500Y-130462500D02*
X150862500Y-130462500D01*
X148862500Y-129212500D02*
X148862500Y-130462500D01*
X150862500Y-129212500D02*
X148862500Y-129212500D01*
%TO.C,R10*%
X154450000Y-97625000D02*
X154450000Y-96375000D01*
X152450000Y-97625000D02*
X154450000Y-97625000D01*
X152450000Y-96375000D02*
X152450000Y-97625000D01*
X154450000Y-96375000D02*
X152450000Y-96375000D01*
%TO.C,C14*%
X139325000Y-125000000D02*
X139325000Y-127000000D01*
X140575000Y-125000000D02*
X139325000Y-125000000D01*
X140575000Y-127000000D02*
X140575000Y-125000000D01*
X139325000Y-127000000D02*
X140575000Y-127000000D01*
%TO.C,R9*%
X134875000Y-122000000D02*
X134875000Y-124000000D01*
X136125000Y-122000000D02*
X134875000Y-122000000D01*
X136125000Y-124000000D02*
X136125000Y-122000000D01*
X134875000Y-124000000D02*
X136125000Y-124000000D01*
%TO.C,D5*%
X149000000Y-179550000D02*
X149000000Y-180450000D01*
X149000000Y-180450000D02*
X151000000Y-180450000D01*
X151000000Y-180450000D02*
X151000000Y-179550000D01*
X151000000Y-179550000D02*
X149000000Y-179550000D01*
%TO.C,U3*%
X147000000Y-137337500D02*
X147000000Y-150337500D01*
X148000000Y-151337500D02*
X161000000Y-151337500D01*
X161000000Y-137337500D02*
X147000000Y-137337500D01*
X147000000Y-150337500D02*
X148000000Y-151337500D01*
X161000000Y-151337500D02*
X161000000Y-137337500D01*
%TO.C,C5*%
X148375000Y-156000000D02*
X149625000Y-156000000D01*
X149625000Y-154000000D02*
X148375000Y-154000000D01*
X149625000Y-156000000D02*
X149625000Y-154000000D01*
X148375000Y-154000000D02*
X148375000Y-156000000D01*
%TO.C,R11*%
X158625000Y-96437500D02*
X158625000Y-94437500D01*
X158625000Y-94437500D02*
X157375000Y-94437500D01*
X157375000Y-96437500D02*
X158625000Y-96437500D01*
X157375000Y-94437500D02*
X157375000Y-96437500D01*
%TO.C,R2*%
X173450000Y-99625000D02*
X175450000Y-99625000D01*
X173450000Y-98375000D02*
X173450000Y-99625000D01*
X175450000Y-98375000D02*
X173450000Y-98375000D01*
X175450000Y-99625000D02*
X175450000Y-98375000D01*
%TO.C,R6*%
X131125000Y-107000000D02*
X131125000Y-105000000D01*
X129875000Y-105000000D02*
X129875000Y-107000000D01*
X129875000Y-107000000D02*
X131125000Y-107000000D01*
X131125000Y-105000000D02*
X129875000Y-105000000D01*
%TO.C,R8*%
X133825000Y-124000000D02*
X133825000Y-122000000D01*
X133825000Y-122000000D02*
X132575000Y-122000000D01*
X132575000Y-122000000D02*
X132575000Y-124000000D01*
X132575000Y-124000000D02*
X133825000Y-124000000D01*
%TO.C,D9*%
X175000000Y-218450000D02*
X175000000Y-217550000D01*
X173000000Y-218450000D02*
X175000000Y-218450000D01*
X173000000Y-217550000D02*
X173000000Y-218450000D01*
X175000000Y-217550000D02*
X173000000Y-217550000D01*
%TO.C,C15*%
X139325000Y-119450000D02*
X139325000Y-121450000D01*
X139325000Y-121450000D02*
X140575000Y-121450000D01*
X140575000Y-119450000D02*
X139325000Y-119450000D01*
X140575000Y-121450000D02*
X140575000Y-119450000D01*
%TO.C,R4*%
X161875000Y-128500000D02*
X163125000Y-128500000D01*
X163125000Y-128500000D02*
X163125000Y-126500000D01*
X161875000Y-126500000D02*
X161875000Y-128500000D01*
X163125000Y-126500000D02*
X161875000Y-126500000D01*
%TO.C,C12*%
X169875000Y-104000000D02*
X169875000Y-106000000D01*
X171125000Y-106000000D02*
X171125000Y-104000000D01*
X169875000Y-106000000D02*
X171125000Y-106000000D01*
X171125000Y-104000000D02*
X169875000Y-104000000D01*
%TO.C,U5*%
X175900000Y-103550000D02*
X174700000Y-103550000D01*
X176300000Y-106450000D02*
X176300000Y-103950000D01*
X176300000Y-103950000D02*
X175900000Y-103550000D01*
X174700000Y-106450000D02*
X176300000Y-106450000D01*
X174700000Y-103550000D02*
X174700000Y-106450000D01*
%TO.C,C13*%
X141362500Y-98625000D02*
X143362500Y-98625000D01*
X143362500Y-97375000D02*
X141362500Y-97375000D01*
X141362500Y-97375000D02*
X141362500Y-98625000D01*
X143362500Y-98625000D02*
X143362500Y-97375000D01*
%TO.C,D15*%
X157400000Y-98437500D02*
X158600000Y-98437500D01*
X158600000Y-98437500D02*
X158600000Y-100137500D01*
X157400000Y-100437500D02*
X157400000Y-98437500D01*
X158300000Y-100437500D02*
X157400000Y-100437500D01*
X158600000Y-100137500D02*
X158300000Y-100437500D01*
%TO.C,D10*%
X127000000Y-242550000D02*
X125000000Y-242550000D01*
X127000000Y-243450000D02*
X127000000Y-242550000D01*
X125000000Y-242550000D02*
X125000000Y-243450000D01*
X125000000Y-243450000D02*
X127000000Y-243450000D01*
%TO.C,C4*%
X141575000Y-154837500D02*
X141575000Y-152837500D01*
X140325000Y-154837500D02*
X141575000Y-154837500D01*
X141575000Y-152837500D02*
X140325000Y-152837500D01*
X140325000Y-152837500D02*
X140325000Y-154837500D01*
%TO.C,R5*%
X128625000Y-105000000D02*
X127375000Y-105000000D01*
X127375000Y-107000000D02*
X128625000Y-107000000D01*
X128625000Y-107000000D02*
X128625000Y-105000000D01*
X127375000Y-105000000D02*
X127375000Y-107000000D01*
%TO.C,D13*%
X164250000Y-125900000D02*
X164250000Y-129100000D01*
X165750000Y-129100000D02*
X165750000Y-125900000D01*
X165150000Y-129100000D02*
X165750000Y-128500000D01*
X164250000Y-129100000D02*
X165750000Y-129100000D01*
X165750000Y-125900000D02*
X164250000Y-125900000D01*
%TO.C,J8*%
X124067500Y-151645000D02*
X125067500Y-152645000D01*
X125267500Y-142955000D02*
X125267500Y-142955000D01*
X125267500Y-142955000D02*
X124067500Y-142955000D01*
X131767500Y-151455000D02*
X131767500Y-138555000D01*
X132967500Y-152645000D02*
X132967500Y-137365000D01*
X124067500Y-147055000D02*
X125267500Y-147055000D01*
X125267500Y-147055000D02*
X125267500Y-151455000D01*
X125067500Y-152645000D02*
X132967500Y-152645000D01*
X124067500Y-137365000D02*
X124067500Y-151645000D01*
X125267500Y-138555000D02*
X125267500Y-142955000D01*
X131767500Y-138555000D02*
X125267500Y-138555000D01*
X132967500Y-137365000D02*
X124067500Y-137365000D01*
X125267500Y-151455000D02*
X131767500Y-151455000D01*
%TO.C,C17*%
X147375000Y-125000000D02*
X147375000Y-127000000D01*
X148625000Y-125000000D02*
X147375000Y-125000000D01*
X147375000Y-127000000D02*
X148625000Y-127000000D01*
X148625000Y-127000000D02*
X148625000Y-125000000D01*
%TO.C,C2*%
X143000000Y-154712500D02*
X143000000Y-155962500D01*
X145000000Y-154712500D02*
X143000000Y-154712500D01*
X145000000Y-155962500D02*
X145000000Y-154712500D01*
X143000000Y-155962500D02*
X145000000Y-155962500D01*
%TO.C,L1*%
X145000000Y-152787500D02*
X145000000Y-151887500D01*
X145000000Y-151887500D02*
X143000000Y-151887500D01*
X143000000Y-151887500D02*
X143000000Y-152787500D01*
X143000000Y-152787500D02*
X145000000Y-152787500D01*
%TO.C,D1*%
X175000000Y-167550000D02*
X173000000Y-167550000D01*
X175000000Y-168450000D02*
X175000000Y-167550000D01*
X173000000Y-167550000D02*
X173000000Y-168450000D01*
X173000000Y-168450000D02*
X175000000Y-168450000D01*
%TO.C,D8*%
X149000000Y-217550000D02*
X149000000Y-218450000D01*
X151000000Y-218450000D02*
X151000000Y-217550000D01*
X151000000Y-217550000D02*
X149000000Y-217550000D01*
X149000000Y-218450000D02*
X151000000Y-218450000D01*
%TO.C,C18*%
X148537500Y-97625000D02*
X150537500Y-97625000D01*
X150537500Y-97625000D02*
X150537500Y-96375000D01*
X148537500Y-96375000D02*
X148537500Y-97625000D01*
X150537500Y-96375000D02*
X148537500Y-96375000D01*
%TO.C,C8*%
X163362500Y-110375000D02*
X163362500Y-111625000D01*
X163362500Y-111625000D02*
X165362500Y-111625000D01*
X165362500Y-111625000D02*
X165362500Y-110375000D01*
X165362500Y-110375000D02*
X163362500Y-110375000D01*
%TO.C,C3*%
X173450000Y-97625000D02*
X175450000Y-97625000D01*
X175450000Y-96375000D02*
X173450000Y-96375000D01*
X173450000Y-96375000D02*
X173450000Y-97625000D01*
X175450000Y-97625000D02*
X175450000Y-96375000D01*
%TO.C,R7*%
X134375000Y-112500000D02*
X134375000Y-114500000D01*
X135625000Y-112500000D02*
X134375000Y-112500000D01*
X134375000Y-114500000D02*
X135625000Y-114500000D01*
X135625000Y-114500000D02*
X135625000Y-112500000D01*
%TO.C,D16*%
X160400000Y-100437500D02*
X160400000Y-98437500D01*
X160400000Y-98437500D02*
X161600000Y-98437500D01*
X161600000Y-98437500D02*
X161600000Y-100137500D01*
X161300000Y-100437500D02*
X160400000Y-100437500D01*
X161600000Y-100137500D02*
X161300000Y-100437500D01*
%TO.C,Y2*%
X141625000Y-119790000D02*
X141625000Y-126190000D01*
X141950000Y-119990000D02*
X141950000Y-125990000D01*
X145950000Y-119990000D02*
X145950000Y-125990000D01*
X146275000Y-119790000D02*
X146275000Y-126190000D01*
X145950000Y-119990000D02*
G75*
G03*
X141950000Y-119990000I-2000000J0D01*
G01*
X141950000Y-125990000D02*
G75*
G03*
X145950000Y-125990000I2000000J0D01*
G01*
X141625000Y-126190000D02*
G75*
G03*
X146275000Y-126190000I2325000J0D01*
G01*
X146275000Y-119790000D02*
G75*
G03*
X141625000Y-119790000I-2325000J0D01*
G01*
%TO.C,F1*%
X144637500Y-103620000D02*
X144637500Y-100380000D01*
X140087500Y-103620000D02*
X144637500Y-103620000D01*
X140087500Y-100380000D02*
X140087500Y-103620000D01*
X144637500Y-100380000D02*
X140087500Y-100380000D01*
%TO.C,C11*%
X142000000Y-135712500D02*
X142000000Y-136962500D01*
X144000000Y-135712500D02*
X142000000Y-135712500D01*
X144000000Y-136962500D02*
X144000000Y-135712500D01*
X142000000Y-136962500D02*
X144000000Y-136962500D01*
%TO.C,J10*%
X178220000Y-112320000D02*
X169320000Y-112320000D01*
X177020000Y-126410000D02*
X177020000Y-113510000D01*
X170520000Y-117910000D02*
X169320000Y-117910000D01*
X170520000Y-117910000D02*
X170520000Y-117910000D01*
X170320000Y-127600000D02*
X178220000Y-127600000D01*
X177020000Y-113510000D02*
X170520000Y-113510000D01*
X170520000Y-126410000D02*
X177020000Y-126410000D01*
X170520000Y-122010000D02*
X170520000Y-126410000D01*
X169320000Y-112320000D02*
X169320000Y-126600000D01*
X170520000Y-113510000D02*
X170520000Y-117910000D01*
X169320000Y-122010000D02*
X170520000Y-122010000D01*
X169320000Y-126600000D02*
X170320000Y-127600000D01*
X178220000Y-127600000D02*
X178220000Y-112320000D01*
%TO.C,D6*%
X173062500Y-179550000D02*
X173062500Y-180450000D01*
X175062500Y-179550000D02*
X173062500Y-179550000D01*
X173062500Y-180450000D02*
X175062500Y-180450000D01*
X175062500Y-180450000D02*
X175062500Y-179550000D01*
%TO.C,C16*%
X155000000Y-127962500D02*
X157000000Y-127962500D01*
X157000000Y-126712500D02*
X155000000Y-126712500D01*
X155000000Y-126712500D02*
X155000000Y-127962500D01*
X157000000Y-127962500D02*
X157000000Y-126712500D01*
D10*
%TO.C,U6*%
X151450000Y-116837500D02*
X151450000Y-122837500D01*
X152450000Y-123837500D02*
X158450000Y-123837500D01*
X158450000Y-116837500D02*
X151450000Y-116837500D01*
X158450000Y-123837500D02*
X158450000Y-116837500D01*
X151450000Y-122837500D02*
X152450000Y-123837500D01*
%TD*%
M02*
