%TF.GenerationSoftware,KiCad,Pcbnew,(6.0.8)*%
%TF.CreationDate,2022-11-03T00:26:02+01:00*%
%TF.ProjectId,crane,6372616e-652e-46b6-9963-61645f706362,rev?*%
%TF.SameCoordinates,Original*%
%TF.FileFunction,Drillmap*%
%TF.FilePolarity,Positive*%
%FSLAX45Y45*%
G04 Gerber Fmt 4.5, Leading zero omitted, Abs format (unit mm)*
G04 Created by KiCad (PCBNEW (6.0.8)) date 2022-11-03 00:26:02*
%MOMM*%
%LPD*%
G01*
G04 APERTURE LIST*
%ADD10C,0.150000*%
%ADD11C,0.200000*%
G04 APERTURE END LIST*
D10*
X11700000Y-8700000D02*
X18250000Y-8700000D01*
X18550000Y-9000000D02*
G75*
G03*
X18250000Y-8700000I-300000J0D01*
G01*
X18550000Y-9000000D02*
X18550000Y-25350000D01*
X18300000Y-25600000D02*
X11700000Y-25600000D01*
X18300000Y-25600000D02*
G75*
G03*
X18550000Y-25350000I0J250000D01*
G01*
X11700000Y-8700000D02*
G75*
G03*
X11450000Y-8950000I0J-250000D01*
G01*
X11450000Y-25350000D02*
G75*
G03*
X11700000Y-25600000I250000J0D01*
G01*
X11450000Y-25350000D02*
X11450000Y-8950000D01*
D11*
X11700119Y-25917976D02*
X11700119Y-25717976D01*
X11747738Y-25717976D01*
X11776309Y-25727500D01*
X11795357Y-25746548D01*
X11804881Y-25765595D01*
X11814405Y-25803690D01*
X11814405Y-25832262D01*
X11804881Y-25870357D01*
X11795357Y-25889405D01*
X11776309Y-25908452D01*
X11747738Y-25917976D01*
X11700119Y-25917976D01*
X11900119Y-25917976D02*
X11900119Y-25784643D01*
X11900119Y-25822738D02*
X11909643Y-25803690D01*
X11919167Y-25794167D01*
X11938214Y-25784643D01*
X11957262Y-25784643D01*
X12023928Y-25917976D02*
X12023928Y-25784643D01*
X12023928Y-25717976D02*
X12014405Y-25727500D01*
X12023928Y-25737024D01*
X12033452Y-25727500D01*
X12023928Y-25717976D01*
X12023928Y-25737024D01*
X12147738Y-25917976D02*
X12128690Y-25908452D01*
X12119167Y-25889405D01*
X12119167Y-25717976D01*
X12252500Y-25917976D02*
X12233452Y-25908452D01*
X12223928Y-25889405D01*
X12223928Y-25717976D01*
X12481071Y-25917976D02*
X12481071Y-25717976D01*
X12547738Y-25860833D01*
X12614405Y-25717976D01*
X12614405Y-25917976D01*
X12795357Y-25917976D02*
X12795357Y-25813214D01*
X12785833Y-25794167D01*
X12766786Y-25784643D01*
X12728690Y-25784643D01*
X12709643Y-25794167D01*
X12795357Y-25908452D02*
X12776309Y-25917976D01*
X12728690Y-25917976D01*
X12709643Y-25908452D01*
X12700119Y-25889405D01*
X12700119Y-25870357D01*
X12709643Y-25851309D01*
X12728690Y-25841786D01*
X12776309Y-25841786D01*
X12795357Y-25832262D01*
X12890595Y-25784643D02*
X12890595Y-25984643D01*
X12890595Y-25794167D02*
X12909643Y-25784643D01*
X12947738Y-25784643D01*
X12966786Y-25794167D01*
X12976309Y-25803690D01*
X12985833Y-25822738D01*
X12985833Y-25879881D01*
X12976309Y-25898928D01*
X12966786Y-25908452D01*
X12947738Y-25917976D01*
X12909643Y-25917976D01*
X12890595Y-25908452D01*
X13071548Y-25898928D02*
X13081071Y-25908452D01*
X13071548Y-25917976D01*
X13062024Y-25908452D01*
X13071548Y-25898928D01*
X13071548Y-25917976D01*
X13071548Y-25794167D02*
X13081071Y-25803690D01*
X13071548Y-25813214D01*
X13062024Y-25803690D01*
X13071548Y-25794167D01*
X13071548Y-25813214D01*
M02*
