%TF.GenerationSoftware,KiCad,Pcbnew,(6.0.8)*%
%TF.CreationDate,2022-11-02T23:41:58+01:00*%
%TF.ProjectId,crane,6372616e-652e-46b6-9963-61645f706362,rev?*%
%TF.SameCoordinates,Original*%
%TF.FileFunction,Soldermask,Top*%
%TF.FilePolarity,Negative*%
%FSLAX46Y46*%
G04 Gerber Fmt 4.6, Leading zero omitted, Abs format (unit mm)*
G04 Created by KiCad (PCBNEW (6.0.8)) date 2022-11-02 23:41:58*
%MOMM*%
%LPD*%
G01*
G04 APERTURE LIST*
G04 Aperture macros list*
%AMRoundRect*
0 Rectangle with rounded corners*
0 $1 Rounding radius*
0 $2 $3 $4 $5 $6 $7 $8 $9 X,Y pos of 4 corners*
0 Add a 4 corners polygon primitive as box body*
4,1,4,$2,$3,$4,$5,$6,$7,$8,$9,$2,$3,0*
0 Add four circle primitives for the rounded corners*
1,1,$1+$1,$2,$3*
1,1,$1+$1,$4,$5*
1,1,$1+$1,$6,$7*
1,1,$1+$1,$8,$9*
0 Add four rect primitives between the rounded corners*
20,1,$1+$1,$2,$3,$4,$5,0*
20,1,$1+$1,$4,$5,$6,$7,0*
20,1,$1+$1,$6,$7,$8,$9,0*
20,1,$1+$1,$8,$9,$2,$3,0*%
G04 Aperture macros list end*
%ADD10R,1.408000X1.408000*%
%ADD11C,1.408000*%
%ADD12C,3.316000*%
%ADD13C,1.524000*%
%ADD14C,4.000000*%
%ADD15C,2.000000*%
%ADD16C,6.000000*%
%ADD17RoundRect,0.250000X-0.600000X-0.600000X0.600000X-0.600000X0.600000X0.600000X-0.600000X0.600000X0*%
%ADD18C,1.700000*%
%ADD19C,1.500000*%
G04 APERTURE END LIST*
D10*
%TO.C,J1*%
X132250000Y-102500000D03*
D11*
X129750000Y-102500000D03*
X129750000Y-100500000D03*
X132250000Y-100500000D03*
D12*
X124980000Y-97800000D03*
X137020000Y-97800000D03*
%TD*%
D13*
%TO.C,U1*%
X117250000Y-127890000D03*
X117250000Y-125350000D03*
X117250000Y-122810000D03*
X117250000Y-120270000D03*
X117250000Y-117730000D03*
X117250000Y-115190000D03*
X117250000Y-112650000D03*
X117250000Y-110110000D03*
D14*
X182750000Y-138150000D03*
X117250000Y-99850000D03*
X182750000Y-99850000D03*
X117250000Y-138150000D03*
%TD*%
D15*
%TO.C,SW11*%
X146750000Y-234250000D03*
X153250000Y-234250000D03*
X153250000Y-238750000D03*
X146750000Y-238750000D03*
%TD*%
%TO.C,SW5*%
X146750000Y-171750000D03*
X153250000Y-171750000D03*
X146750000Y-176250000D03*
X153250000Y-176250000D03*
%TD*%
%TO.C,SW8*%
X146750000Y-209250000D03*
X153250000Y-209250000D03*
X146750000Y-213750000D03*
X153250000Y-213750000D03*
%TD*%
D16*
%TO.C,H2*%
X180000000Y-250000000D03*
%TD*%
D15*
%TO.C,SW10*%
X122750000Y-234250000D03*
X129250000Y-234250000D03*
X122750000Y-238750000D03*
X129250000Y-238750000D03*
%TD*%
D16*
%TO.C,H3*%
X119500000Y-250000000D03*
%TD*%
D15*
%TO.C,SW12*%
X170750000Y-234250000D03*
X177250000Y-234250000D03*
X177250000Y-238750000D03*
X170750000Y-238750000D03*
%TD*%
%TO.C,SW1*%
X177250000Y-159250000D03*
X170750000Y-159250000D03*
X170750000Y-163750000D03*
X177250000Y-163750000D03*
%TD*%
D16*
%TO.C,H4*%
X180500000Y-92000000D03*
%TD*%
D15*
%TO.C,SW3*%
X134750000Y-159250000D03*
X141250000Y-159250000D03*
X134750000Y-163750000D03*
X141250000Y-163750000D03*
%TD*%
%TO.C,SW9*%
X170750000Y-209250000D03*
X177250000Y-209250000D03*
X170750000Y-213750000D03*
X177250000Y-213750000D03*
%TD*%
%TO.C,SW2*%
X122750000Y-171750000D03*
X129250000Y-171750000D03*
X122750000Y-176250000D03*
X129250000Y-176250000D03*
%TD*%
%TO.C,SW7*%
X122750000Y-209250000D03*
X129250000Y-209250000D03*
X122750000Y-213750000D03*
X129250000Y-213750000D03*
%TD*%
D16*
%TO.C,H1*%
X119500000Y-92000000D03*
%TD*%
D15*
%TO.C,SW4*%
X134750000Y-184250000D03*
X141250000Y-184250000D03*
X134750000Y-188750000D03*
X141250000Y-188750000D03*
%TD*%
%TO.C,SW6*%
X177250000Y-171750000D03*
X170750000Y-171750000D03*
X177250000Y-176250000D03*
X170750000Y-176250000D03*
%TD*%
D17*
%TO.C,J8*%
X127247500Y-147545000D03*
D18*
X129787500Y-147545000D03*
X127247500Y-145005000D03*
X129787500Y-145005000D03*
X127247500Y-142465000D03*
X129787500Y-142465000D03*
%TD*%
D19*
%TO.C,Y2*%
X143950000Y-120550000D03*
X143950000Y-125430000D03*
%TD*%
D17*
%TO.C,J10*%
X172500000Y-122500000D03*
D18*
X175040000Y-122500000D03*
X172500000Y-119960000D03*
X175040000Y-119960000D03*
X172500000Y-117420000D03*
X175040000Y-117420000D03*
%TD*%
M02*
