%TF.GenerationSoftware,KiCad,Pcbnew,(6.0.8)*%
%TF.CreationDate,2022-11-02T23:41:58+01:00*%
%TF.ProjectId,crane,6372616e-652e-46b6-9963-61645f706362,rev?*%
%TF.SameCoordinates,Original*%
%TF.FileFunction,Legend,Top*%
%TF.FilePolarity,Positive*%
%FSLAX46Y46*%
G04 Gerber Fmt 4.6, Leading zero omitted, Abs format (unit mm)*
G04 Created by KiCad (PCBNEW (6.0.8)) date 2022-11-02 23:41:58*
%MOMM*%
%LPD*%
G01*
G04 APERTURE LIST*
%ADD10C,0.150000*%
%ADD11C,0.120000*%
G04 APERTURE END LIST*
D10*
%TO.C,U1*%
X119855595Y-123262380D02*
X119855595Y-122262380D01*
X120093690Y-122262380D01*
X120236547Y-122310000D01*
X120331785Y-122405238D01*
X120379404Y-122500476D01*
X120427023Y-122690952D01*
X120427023Y-122833809D01*
X120379404Y-123024285D01*
X120331785Y-123119523D01*
X120236547Y-123214761D01*
X120093690Y-123262380D01*
X119855595Y-123262380D01*
X121427023Y-123167142D02*
X121379404Y-123214761D01*
X121236547Y-123262380D01*
X121141309Y-123262380D01*
X120998452Y-123214761D01*
X120903214Y-123119523D01*
X120855595Y-123024285D01*
X120807976Y-122833809D01*
X120807976Y-122690952D01*
X120855595Y-122500476D01*
X120903214Y-122405238D01*
X120998452Y-122310000D01*
X121141309Y-122262380D01*
X121236547Y-122262380D01*
X121379404Y-122310000D01*
X121427023Y-122357619D01*
X120427023Y-125802380D02*
X120093690Y-125326190D01*
X119855595Y-125802380D02*
X119855595Y-124802380D01*
X120236547Y-124802380D01*
X120331785Y-124850000D01*
X120379404Y-124897619D01*
X120427023Y-124992857D01*
X120427023Y-125135714D01*
X120379404Y-125230952D01*
X120331785Y-125278571D01*
X120236547Y-125326190D01*
X119855595Y-125326190D01*
X120807976Y-125754761D02*
X120950833Y-125802380D01*
X121188928Y-125802380D01*
X121284166Y-125754761D01*
X121331785Y-125707142D01*
X121379404Y-125611904D01*
X121379404Y-125516666D01*
X121331785Y-125421428D01*
X121284166Y-125373809D01*
X121188928Y-125326190D01*
X120998452Y-125278571D01*
X120903214Y-125230952D01*
X120855595Y-125183333D01*
X120807976Y-125088095D01*
X120807976Y-124992857D01*
X120855595Y-124897619D01*
X120903214Y-124850000D01*
X120998452Y-124802380D01*
X121236547Y-124802380D01*
X121379404Y-124850000D01*
X121665119Y-124802380D02*
X122236547Y-124802380D01*
X121950833Y-125802380D02*
X121950833Y-124802380D01*
X119712738Y-109562380D02*
X120046071Y-110562380D01*
X120379404Y-109562380D01*
X121284166Y-110467142D02*
X121236547Y-110514761D01*
X121093690Y-110562380D01*
X120998452Y-110562380D01*
X120855595Y-110514761D01*
X120760357Y-110419523D01*
X120712738Y-110324285D01*
X120665119Y-110133809D01*
X120665119Y-109990952D01*
X120712738Y-109800476D01*
X120760357Y-109705238D01*
X120855595Y-109610000D01*
X120998452Y-109562380D01*
X121093690Y-109562380D01*
X121236547Y-109610000D01*
X121284166Y-109657619D01*
X122284166Y-110467142D02*
X122236547Y-110514761D01*
X122093690Y-110562380D01*
X121998452Y-110562380D01*
X121855595Y-110514761D01*
X121760357Y-110419523D01*
X121712738Y-110324285D01*
X121665119Y-110133809D01*
X121665119Y-109990952D01*
X121712738Y-109800476D01*
X121760357Y-109705238D01*
X121855595Y-109610000D01*
X121998452Y-109562380D01*
X122093690Y-109562380D01*
X122236547Y-109610000D01*
X122284166Y-109657619D01*
X120188928Y-127818571D02*
X120331785Y-127866190D01*
X120379404Y-127913809D01*
X120427023Y-128009047D01*
X120427023Y-128151904D01*
X120379404Y-128247142D01*
X120331785Y-128294761D01*
X120236547Y-128342380D01*
X119855595Y-128342380D01*
X119855595Y-127342380D01*
X120188928Y-127342380D01*
X120284166Y-127390000D01*
X120331785Y-127437619D01*
X120379404Y-127532857D01*
X120379404Y-127628095D01*
X120331785Y-127723333D01*
X120284166Y-127770952D01*
X120188928Y-127818571D01*
X119855595Y-127818571D01*
X121331785Y-128342380D02*
X120855595Y-128342380D01*
X120855595Y-127342380D01*
X120427023Y-120627142D02*
X120379404Y-120674761D01*
X120236547Y-120722380D01*
X120141309Y-120722380D01*
X119998452Y-120674761D01*
X119903214Y-120579523D01*
X119855595Y-120484285D01*
X119807976Y-120293809D01*
X119807976Y-120150952D01*
X119855595Y-119960476D01*
X119903214Y-119865238D01*
X119998452Y-119770000D01*
X120141309Y-119722380D01*
X120236547Y-119722380D01*
X120379404Y-119770000D01*
X120427023Y-119817619D01*
X120807976Y-120674761D02*
X120950833Y-120722380D01*
X121188928Y-120722380D01*
X121284166Y-120674761D01*
X121331785Y-120627142D01*
X121379404Y-120531904D01*
X121379404Y-120436666D01*
X121331785Y-120341428D01*
X121284166Y-120293809D01*
X121188928Y-120246190D01*
X120998452Y-120198571D01*
X120903214Y-120150952D01*
X120855595Y-120103333D01*
X120807976Y-120008095D01*
X120807976Y-119912857D01*
X120855595Y-119817619D01*
X120903214Y-119770000D01*
X120998452Y-119722380D01*
X121236547Y-119722380D01*
X121379404Y-119770000D01*
X120379404Y-112160000D02*
X120284166Y-112112380D01*
X120141309Y-112112380D01*
X119998452Y-112160000D01*
X119903214Y-112255238D01*
X119855595Y-112350476D01*
X119807976Y-112540952D01*
X119807976Y-112683809D01*
X119855595Y-112874285D01*
X119903214Y-112969523D01*
X119998452Y-113064761D01*
X120141309Y-113112380D01*
X120236547Y-113112380D01*
X120379404Y-113064761D01*
X120427023Y-113017142D01*
X120427023Y-112683809D01*
X120236547Y-112683809D01*
X120855595Y-113112380D02*
X120855595Y-112112380D01*
X121427023Y-113112380D01*
X121427023Y-112112380D01*
X121903214Y-113112380D02*
X121903214Y-112112380D01*
X122141309Y-112112380D01*
X122284166Y-112160000D01*
X122379404Y-112255238D01*
X122427023Y-112350476D01*
X122474642Y-112540952D01*
X122474642Y-112683809D01*
X122427023Y-112874285D01*
X122379404Y-112969523D01*
X122284166Y-113064761D01*
X122141309Y-113112380D01*
X121903214Y-113112380D01*
X120427023Y-118087142D02*
X120379404Y-118134761D01*
X120236547Y-118182380D01*
X120141309Y-118182380D01*
X119998452Y-118134761D01*
X119903214Y-118039523D01*
X119855595Y-117944285D01*
X119807976Y-117753809D01*
X119807976Y-117610952D01*
X119855595Y-117420476D01*
X119903214Y-117325238D01*
X119998452Y-117230000D01*
X120141309Y-117182380D01*
X120236547Y-117182380D01*
X120379404Y-117230000D01*
X120427023Y-117277619D01*
X121331785Y-118182380D02*
X120855595Y-118182380D01*
X120855595Y-117182380D01*
X121665119Y-118182380D02*
X121665119Y-117182380D01*
X122236547Y-118182380D02*
X121807976Y-117610952D01*
X122236547Y-117182380D02*
X121665119Y-117753809D01*
X119855595Y-115642380D02*
X119855595Y-114642380D01*
X120093690Y-114642380D01*
X120236547Y-114690000D01*
X120331785Y-114785238D01*
X120379404Y-114880476D01*
X120427023Y-115070952D01*
X120427023Y-115213809D01*
X120379404Y-115404285D01*
X120331785Y-115499523D01*
X120236547Y-115594761D01*
X120093690Y-115642380D01*
X119855595Y-115642380D01*
X120855595Y-115642380D02*
X120855595Y-114642380D01*
X121331785Y-115642380D02*
X121331785Y-114642380D01*
X121903214Y-115642380D01*
X121903214Y-114642380D01*
%TO.C,SW11*%
X148190476Y-232654761D02*
X148333333Y-232702380D01*
X148571428Y-232702380D01*
X148666666Y-232654761D01*
X148714285Y-232607142D01*
X148761904Y-232511904D01*
X148761904Y-232416666D01*
X148714285Y-232321428D01*
X148666666Y-232273809D01*
X148571428Y-232226190D01*
X148380952Y-232178571D01*
X148285714Y-232130952D01*
X148238095Y-232083333D01*
X148190476Y-231988095D01*
X148190476Y-231892857D01*
X148238095Y-231797619D01*
X148285714Y-231750000D01*
X148380952Y-231702380D01*
X148619047Y-231702380D01*
X148761904Y-231750000D01*
X149095238Y-231702380D02*
X149333333Y-232702380D01*
X149523809Y-231988095D01*
X149714285Y-232702380D01*
X149952380Y-231702380D01*
X150857142Y-232702380D02*
X150285714Y-232702380D01*
X150571428Y-232702380D02*
X150571428Y-231702380D01*
X150476190Y-231845238D01*
X150380952Y-231940476D01*
X150285714Y-231988095D01*
X151809523Y-232702380D02*
X151238095Y-232702380D01*
X151523809Y-232702380D02*
X151523809Y-231702380D01*
X151428571Y-231845238D01*
X151333333Y-231940476D01*
X151238095Y-231988095D01*
%TO.C,SW5*%
X148666666Y-170154761D02*
X148809523Y-170202380D01*
X149047619Y-170202380D01*
X149142857Y-170154761D01*
X149190476Y-170107142D01*
X149238095Y-170011904D01*
X149238095Y-169916666D01*
X149190476Y-169821428D01*
X149142857Y-169773809D01*
X149047619Y-169726190D01*
X148857142Y-169678571D01*
X148761904Y-169630952D01*
X148714285Y-169583333D01*
X148666666Y-169488095D01*
X148666666Y-169392857D01*
X148714285Y-169297619D01*
X148761904Y-169250000D01*
X148857142Y-169202380D01*
X149095238Y-169202380D01*
X149238095Y-169250000D01*
X149571428Y-169202380D02*
X149809523Y-170202380D01*
X150000000Y-169488095D01*
X150190476Y-170202380D01*
X150428571Y-169202380D01*
X151285714Y-169202380D02*
X150809523Y-169202380D01*
X150761904Y-169678571D01*
X150809523Y-169630952D01*
X150904761Y-169583333D01*
X151142857Y-169583333D01*
X151238095Y-169630952D01*
X151285714Y-169678571D01*
X151333333Y-169773809D01*
X151333333Y-170011904D01*
X151285714Y-170107142D01*
X151238095Y-170154761D01*
X151142857Y-170202380D01*
X150904761Y-170202380D01*
X150809523Y-170154761D01*
X150761904Y-170107142D01*
%TO.C,SW8*%
X148666666Y-207654761D02*
X148809523Y-207702380D01*
X149047619Y-207702380D01*
X149142857Y-207654761D01*
X149190476Y-207607142D01*
X149238095Y-207511904D01*
X149238095Y-207416666D01*
X149190476Y-207321428D01*
X149142857Y-207273809D01*
X149047619Y-207226190D01*
X148857142Y-207178571D01*
X148761904Y-207130952D01*
X148714285Y-207083333D01*
X148666666Y-206988095D01*
X148666666Y-206892857D01*
X148714285Y-206797619D01*
X148761904Y-206750000D01*
X148857142Y-206702380D01*
X149095238Y-206702380D01*
X149238095Y-206750000D01*
X149571428Y-206702380D02*
X149809523Y-207702380D01*
X150000000Y-206988095D01*
X150190476Y-207702380D01*
X150428571Y-206702380D01*
X150952380Y-207130952D02*
X150857142Y-207083333D01*
X150809523Y-207035714D01*
X150761904Y-206940476D01*
X150761904Y-206892857D01*
X150809523Y-206797619D01*
X150857142Y-206750000D01*
X150952380Y-206702380D01*
X151142857Y-206702380D01*
X151238095Y-206750000D01*
X151285714Y-206797619D01*
X151333333Y-206892857D01*
X151333333Y-206940476D01*
X151285714Y-207035714D01*
X151238095Y-207083333D01*
X151142857Y-207130952D01*
X150952380Y-207130952D01*
X150857142Y-207178571D01*
X150809523Y-207226190D01*
X150761904Y-207321428D01*
X150761904Y-207511904D01*
X150809523Y-207607142D01*
X150857142Y-207654761D01*
X150952380Y-207702380D01*
X151142857Y-207702380D01*
X151238095Y-207654761D01*
X151285714Y-207607142D01*
X151333333Y-207511904D01*
X151333333Y-207321428D01*
X151285714Y-207226190D01*
X151238095Y-207178571D01*
X151142857Y-207130952D01*
%TO.C,H2*%
X179238095Y-246452380D02*
X179238095Y-245452380D01*
X179238095Y-245928571D02*
X179809523Y-245928571D01*
X179809523Y-246452380D02*
X179809523Y-245452380D01*
X180238095Y-245547619D02*
X180285714Y-245500000D01*
X180380952Y-245452380D01*
X180619047Y-245452380D01*
X180714285Y-245500000D01*
X180761904Y-245547619D01*
X180809523Y-245642857D01*
X180809523Y-245738095D01*
X180761904Y-245880952D01*
X180190476Y-246452380D01*
X180809523Y-246452380D01*
%TO.C,SW10*%
X124190476Y-232654761D02*
X124333333Y-232702380D01*
X124571428Y-232702380D01*
X124666666Y-232654761D01*
X124714285Y-232607142D01*
X124761904Y-232511904D01*
X124761904Y-232416666D01*
X124714285Y-232321428D01*
X124666666Y-232273809D01*
X124571428Y-232226190D01*
X124380952Y-232178571D01*
X124285714Y-232130952D01*
X124238095Y-232083333D01*
X124190476Y-231988095D01*
X124190476Y-231892857D01*
X124238095Y-231797619D01*
X124285714Y-231750000D01*
X124380952Y-231702380D01*
X124619047Y-231702380D01*
X124761904Y-231750000D01*
X125095238Y-231702380D02*
X125333333Y-232702380D01*
X125523809Y-231988095D01*
X125714285Y-232702380D01*
X125952380Y-231702380D01*
X126857142Y-232702380D02*
X126285714Y-232702380D01*
X126571428Y-232702380D02*
X126571428Y-231702380D01*
X126476190Y-231845238D01*
X126380952Y-231940476D01*
X126285714Y-231988095D01*
X127476190Y-231702380D02*
X127571428Y-231702380D01*
X127666666Y-231750000D01*
X127714285Y-231797619D01*
X127761904Y-231892857D01*
X127809523Y-232083333D01*
X127809523Y-232321428D01*
X127761904Y-232511904D01*
X127714285Y-232607142D01*
X127666666Y-232654761D01*
X127571428Y-232702380D01*
X127476190Y-232702380D01*
X127380952Y-232654761D01*
X127333333Y-232607142D01*
X127285714Y-232511904D01*
X127238095Y-232321428D01*
X127238095Y-232083333D01*
X127285714Y-231892857D01*
X127333333Y-231797619D01*
X127380952Y-231750000D01*
X127476190Y-231702380D01*
%TO.C,H3*%
X118738095Y-246452380D02*
X118738095Y-245452380D01*
X118738095Y-245928571D02*
X119309523Y-245928571D01*
X119309523Y-246452380D02*
X119309523Y-245452380D01*
X119690476Y-245452380D02*
X120309523Y-245452380D01*
X119976190Y-245833333D01*
X120119047Y-245833333D01*
X120214285Y-245880952D01*
X120261904Y-245928571D01*
X120309523Y-246023809D01*
X120309523Y-246261904D01*
X120261904Y-246357142D01*
X120214285Y-246404761D01*
X120119047Y-246452380D01*
X119833333Y-246452380D01*
X119738095Y-246404761D01*
X119690476Y-246357142D01*
%TO.C,SW12*%
X172190476Y-232654761D02*
X172333333Y-232702380D01*
X172571428Y-232702380D01*
X172666666Y-232654761D01*
X172714285Y-232607142D01*
X172761904Y-232511904D01*
X172761904Y-232416666D01*
X172714285Y-232321428D01*
X172666666Y-232273809D01*
X172571428Y-232226190D01*
X172380952Y-232178571D01*
X172285714Y-232130952D01*
X172238095Y-232083333D01*
X172190476Y-231988095D01*
X172190476Y-231892857D01*
X172238095Y-231797619D01*
X172285714Y-231750000D01*
X172380952Y-231702380D01*
X172619047Y-231702380D01*
X172761904Y-231750000D01*
X173095238Y-231702380D02*
X173333333Y-232702380D01*
X173523809Y-231988095D01*
X173714285Y-232702380D01*
X173952380Y-231702380D01*
X174857142Y-232702380D02*
X174285714Y-232702380D01*
X174571428Y-232702380D02*
X174571428Y-231702380D01*
X174476190Y-231845238D01*
X174380952Y-231940476D01*
X174285714Y-231988095D01*
X175238095Y-231797619D02*
X175285714Y-231750000D01*
X175380952Y-231702380D01*
X175619047Y-231702380D01*
X175714285Y-231750000D01*
X175761904Y-231797619D01*
X175809523Y-231892857D01*
X175809523Y-231988095D01*
X175761904Y-232130952D01*
X175190476Y-232702380D01*
X175809523Y-232702380D01*
%TO.C,SW1*%
X172666666Y-157654761D02*
X172809523Y-157702380D01*
X173047619Y-157702380D01*
X173142857Y-157654761D01*
X173190476Y-157607142D01*
X173238095Y-157511904D01*
X173238095Y-157416666D01*
X173190476Y-157321428D01*
X173142857Y-157273809D01*
X173047619Y-157226190D01*
X172857142Y-157178571D01*
X172761904Y-157130952D01*
X172714285Y-157083333D01*
X172666666Y-156988095D01*
X172666666Y-156892857D01*
X172714285Y-156797619D01*
X172761904Y-156750000D01*
X172857142Y-156702380D01*
X173095238Y-156702380D01*
X173238095Y-156750000D01*
X173571428Y-156702380D02*
X173809523Y-157702380D01*
X174000000Y-156988095D01*
X174190476Y-157702380D01*
X174428571Y-156702380D01*
X175333333Y-157702380D02*
X174761904Y-157702380D01*
X175047619Y-157702380D02*
X175047619Y-156702380D01*
X174952380Y-156845238D01*
X174857142Y-156940476D01*
X174761904Y-156988095D01*
%TO.C,H4*%
X180238095Y-88452380D02*
X180238095Y-87452380D01*
X180238095Y-87928571D02*
X180809523Y-87928571D01*
X180809523Y-88452380D02*
X180809523Y-87452380D01*
X181714285Y-87785714D02*
X181714285Y-88452380D01*
X181476190Y-87404761D02*
X181238095Y-88119047D01*
X181857142Y-88119047D01*
%TO.C,SW3*%
X136666666Y-157404761D02*
X136809523Y-157452380D01*
X137047619Y-157452380D01*
X137142857Y-157404761D01*
X137190476Y-157357142D01*
X137238095Y-157261904D01*
X137238095Y-157166666D01*
X137190476Y-157071428D01*
X137142857Y-157023809D01*
X137047619Y-156976190D01*
X136857142Y-156928571D01*
X136761904Y-156880952D01*
X136714285Y-156833333D01*
X136666666Y-156738095D01*
X136666666Y-156642857D01*
X136714285Y-156547619D01*
X136761904Y-156500000D01*
X136857142Y-156452380D01*
X137095238Y-156452380D01*
X137238095Y-156500000D01*
X137571428Y-156452380D02*
X137809523Y-157452380D01*
X138000000Y-156738095D01*
X138190476Y-157452380D01*
X138428571Y-156452380D01*
X138714285Y-156452380D02*
X139333333Y-156452380D01*
X139000000Y-156833333D01*
X139142857Y-156833333D01*
X139238095Y-156880952D01*
X139285714Y-156928571D01*
X139333333Y-157023809D01*
X139333333Y-157261904D01*
X139285714Y-157357142D01*
X139238095Y-157404761D01*
X139142857Y-157452380D01*
X138857142Y-157452380D01*
X138761904Y-157404761D01*
X138714285Y-157357142D01*
%TO.C,SW9*%
X172666666Y-207654761D02*
X172809523Y-207702380D01*
X173047619Y-207702380D01*
X173142857Y-207654761D01*
X173190476Y-207607142D01*
X173238095Y-207511904D01*
X173238095Y-207416666D01*
X173190476Y-207321428D01*
X173142857Y-207273809D01*
X173047619Y-207226190D01*
X172857142Y-207178571D01*
X172761904Y-207130952D01*
X172714285Y-207083333D01*
X172666666Y-206988095D01*
X172666666Y-206892857D01*
X172714285Y-206797619D01*
X172761904Y-206750000D01*
X172857142Y-206702380D01*
X173095238Y-206702380D01*
X173238095Y-206750000D01*
X173571428Y-206702380D02*
X173809523Y-207702380D01*
X174000000Y-206988095D01*
X174190476Y-207702380D01*
X174428571Y-206702380D01*
X174857142Y-207702380D02*
X175047619Y-207702380D01*
X175142857Y-207654761D01*
X175190476Y-207607142D01*
X175285714Y-207464285D01*
X175333333Y-207273809D01*
X175333333Y-206892857D01*
X175285714Y-206797619D01*
X175238095Y-206750000D01*
X175142857Y-206702380D01*
X174952380Y-206702380D01*
X174857142Y-206750000D01*
X174809523Y-206797619D01*
X174761904Y-206892857D01*
X174761904Y-207130952D01*
X174809523Y-207226190D01*
X174857142Y-207273809D01*
X174952380Y-207321428D01*
X175142857Y-207321428D01*
X175238095Y-207273809D01*
X175285714Y-207226190D01*
X175333333Y-207130952D01*
%TO.C,SW2*%
X124666666Y-170154761D02*
X124809523Y-170202380D01*
X125047619Y-170202380D01*
X125142857Y-170154761D01*
X125190476Y-170107142D01*
X125238095Y-170011904D01*
X125238095Y-169916666D01*
X125190476Y-169821428D01*
X125142857Y-169773809D01*
X125047619Y-169726190D01*
X124857142Y-169678571D01*
X124761904Y-169630952D01*
X124714285Y-169583333D01*
X124666666Y-169488095D01*
X124666666Y-169392857D01*
X124714285Y-169297619D01*
X124761904Y-169250000D01*
X124857142Y-169202380D01*
X125095238Y-169202380D01*
X125238095Y-169250000D01*
X125571428Y-169202380D02*
X125809523Y-170202380D01*
X126000000Y-169488095D01*
X126190476Y-170202380D01*
X126428571Y-169202380D01*
X126761904Y-169297619D02*
X126809523Y-169250000D01*
X126904761Y-169202380D01*
X127142857Y-169202380D01*
X127238095Y-169250000D01*
X127285714Y-169297619D01*
X127333333Y-169392857D01*
X127333333Y-169488095D01*
X127285714Y-169630952D01*
X126714285Y-170202380D01*
X127333333Y-170202380D01*
%TO.C,SW7*%
X124666666Y-207654761D02*
X124809523Y-207702380D01*
X125047619Y-207702380D01*
X125142857Y-207654761D01*
X125190476Y-207607142D01*
X125238095Y-207511904D01*
X125238095Y-207416666D01*
X125190476Y-207321428D01*
X125142857Y-207273809D01*
X125047619Y-207226190D01*
X124857142Y-207178571D01*
X124761904Y-207130952D01*
X124714285Y-207083333D01*
X124666666Y-206988095D01*
X124666666Y-206892857D01*
X124714285Y-206797619D01*
X124761904Y-206750000D01*
X124857142Y-206702380D01*
X125095238Y-206702380D01*
X125238095Y-206750000D01*
X125571428Y-206702380D02*
X125809523Y-207702380D01*
X126000000Y-206988095D01*
X126190476Y-207702380D01*
X126428571Y-206702380D01*
X126714285Y-206702380D02*
X127380952Y-206702380D01*
X126952380Y-207702380D01*
%TO.C,H1*%
X118738095Y-88452380D02*
X118738095Y-87452380D01*
X118738095Y-87928571D02*
X119309523Y-87928571D01*
X119309523Y-88452380D02*
X119309523Y-87452380D01*
X120309523Y-88452380D02*
X119738095Y-88452380D01*
X120023809Y-88452380D02*
X120023809Y-87452380D01*
X119928571Y-87595238D01*
X119833333Y-87690476D01*
X119738095Y-87738095D01*
%TO.C,SW4*%
X136666666Y-182654761D02*
X136809523Y-182702380D01*
X137047619Y-182702380D01*
X137142857Y-182654761D01*
X137190476Y-182607142D01*
X137238095Y-182511904D01*
X137238095Y-182416666D01*
X137190476Y-182321428D01*
X137142857Y-182273809D01*
X137047619Y-182226190D01*
X136857142Y-182178571D01*
X136761904Y-182130952D01*
X136714285Y-182083333D01*
X136666666Y-181988095D01*
X136666666Y-181892857D01*
X136714285Y-181797619D01*
X136761904Y-181750000D01*
X136857142Y-181702380D01*
X137095238Y-181702380D01*
X137238095Y-181750000D01*
X137571428Y-181702380D02*
X137809523Y-182702380D01*
X138000000Y-181988095D01*
X138190476Y-182702380D01*
X138428571Y-181702380D01*
X139238095Y-182035714D02*
X139238095Y-182702380D01*
X139000000Y-181654761D02*
X138761904Y-182369047D01*
X139380952Y-182369047D01*
%TO.C,SW6*%
X172666666Y-170154761D02*
X172809523Y-170202380D01*
X173047619Y-170202380D01*
X173142857Y-170154761D01*
X173190476Y-170107142D01*
X173238095Y-170011904D01*
X173238095Y-169916666D01*
X173190476Y-169821428D01*
X173142857Y-169773809D01*
X173047619Y-169726190D01*
X172857142Y-169678571D01*
X172761904Y-169630952D01*
X172714285Y-169583333D01*
X172666666Y-169488095D01*
X172666666Y-169392857D01*
X172714285Y-169297619D01*
X172761904Y-169250000D01*
X172857142Y-169202380D01*
X173095238Y-169202380D01*
X173238095Y-169250000D01*
X173571428Y-169202380D02*
X173809523Y-170202380D01*
X174000000Y-169488095D01*
X174190476Y-170202380D01*
X174428571Y-169202380D01*
X175238095Y-169202380D02*
X175047619Y-169202380D01*
X174952380Y-169250000D01*
X174904761Y-169297619D01*
X174809523Y-169440476D01*
X174761904Y-169630952D01*
X174761904Y-170011904D01*
X174809523Y-170107142D01*
X174857142Y-170154761D01*
X174952380Y-170202380D01*
X175142857Y-170202380D01*
X175238095Y-170154761D01*
X175285714Y-170107142D01*
X175333333Y-170011904D01*
X175333333Y-169773809D01*
X175285714Y-169678571D01*
X175238095Y-169630952D01*
X175142857Y-169583333D01*
X174952380Y-169583333D01*
X174857142Y-169630952D01*
X174809523Y-169678571D01*
X174761904Y-169773809D01*
D11*
%TO.C,U1*%
X185250000Y-97350000D02*
X180250000Y-97350000D01*
X185250000Y-102350000D02*
X185250000Y-97350000D01*
X185250000Y-140650000D02*
X180250000Y-140650000D01*
X185250000Y-140650000D02*
X185250000Y-135650000D01*
X119750000Y-140650000D02*
X114750000Y-140650000D01*
X114750000Y-140650000D02*
X114750000Y-135650000D01*
X114750000Y-97350000D02*
X119750000Y-97350000D01*
X114750000Y-102350000D02*
X114750000Y-97350000D01*
%TO.C,SW11*%
X152250000Y-233250000D02*
X147750000Y-233250000D01*
X147750000Y-239750000D02*
X152250000Y-239750000D01*
X146500000Y-235750000D02*
X146500000Y-237250000D01*
X153500000Y-237250000D02*
X153500000Y-235750000D01*
%TO.C,SW5*%
X153500000Y-174750000D02*
X153500000Y-173250000D01*
X152250000Y-170750000D02*
X147750000Y-170750000D01*
X147750000Y-177250000D02*
X152250000Y-177250000D01*
X146500000Y-173250000D02*
X146500000Y-174750000D01*
%TO.C,SW8*%
X153500000Y-212250000D02*
X153500000Y-210750000D01*
X146500000Y-210750000D02*
X146500000Y-212250000D01*
X147750000Y-214750000D02*
X152250000Y-214750000D01*
X152250000Y-208250000D02*
X147750000Y-208250000D01*
%TO.C,SW10*%
X129500000Y-237250000D02*
X129500000Y-235750000D01*
X122500000Y-235750000D02*
X122500000Y-237250000D01*
X123750000Y-239750000D02*
X128250000Y-239750000D01*
X128250000Y-233250000D02*
X123750000Y-233250000D01*
%TO.C,SW12*%
X177500000Y-237250000D02*
X177500000Y-235750000D01*
X170500000Y-235750000D02*
X170500000Y-237250000D01*
X176250000Y-233250000D02*
X171750000Y-233250000D01*
X171750000Y-239750000D02*
X176250000Y-239750000D01*
%TO.C,SW1*%
X177500000Y-162250000D02*
X177500000Y-160750000D01*
X170500000Y-160750000D02*
X170500000Y-162250000D01*
X171750000Y-164750000D02*
X176250000Y-164750000D01*
X176250000Y-158250000D02*
X171750000Y-158250000D01*
%TO.C,SW3*%
X135750000Y-164750000D02*
X140250000Y-164750000D01*
X140250000Y-158250000D02*
X135750000Y-158250000D01*
X134500000Y-160750000D02*
X134500000Y-162250000D01*
X141500000Y-162250000D02*
X141500000Y-160750000D01*
%TO.C,SW9*%
X177500000Y-212250000D02*
X177500000Y-210750000D01*
X176250000Y-208250000D02*
X171750000Y-208250000D01*
X170500000Y-210750000D02*
X170500000Y-212250000D01*
X171750000Y-214750000D02*
X176250000Y-214750000D01*
%TO.C,SW2*%
X128250000Y-170750000D02*
X123750000Y-170750000D01*
X122500000Y-173250000D02*
X122500000Y-174750000D01*
X123750000Y-177250000D02*
X128250000Y-177250000D01*
X129500000Y-174750000D02*
X129500000Y-173250000D01*
%TO.C,SW7*%
X129500000Y-212250000D02*
X129500000Y-210750000D01*
X123750000Y-214750000D02*
X128250000Y-214750000D01*
X128250000Y-208250000D02*
X123750000Y-208250000D01*
X122500000Y-210750000D02*
X122500000Y-212250000D01*
%TO.C,SW4*%
X135750000Y-189750000D02*
X140250000Y-189750000D01*
X141500000Y-187250000D02*
X141500000Y-185750000D01*
X134500000Y-185750000D02*
X134500000Y-187250000D01*
X140250000Y-183250000D02*
X135750000Y-183250000D01*
%TO.C,SW6*%
X171750000Y-177250000D02*
X176250000Y-177250000D01*
X176250000Y-170750000D02*
X171750000Y-170750000D01*
X177500000Y-174750000D02*
X177500000Y-173250000D01*
X170500000Y-173250000D02*
X170500000Y-174750000D01*
%TD*%
M02*
