%TF.GenerationSoftware,KiCad,Pcbnew,7.0.1*%
%TF.CreationDate,2023-05-19T13:22:37+02:00*%
%TF.ProjectId,crane,6372616e-652e-46b6-9963-61645f706362,rev?*%
%TF.SameCoordinates,Original*%
%TF.FileFunction,Soldermask,Bot*%
%TF.FilePolarity,Negative*%
%FSLAX46Y46*%
G04 Gerber Fmt 4.6, Leading zero omitted, Abs format (unit mm)*
G04 Created by KiCad (PCBNEW 7.0.1) date 2023-05-19 13:22:37*
%MOMM*%
%LPD*%
G01*
G04 APERTURE LIST*
G04 Aperture macros list*
%AMRoundRect*
0 Rectangle with rounded corners*
0 $1 Rounding radius*
0 $2 $3 $4 $5 $6 $7 $8 $9 X,Y pos of 4 corners*
0 Add a 4 corners polygon primitive as box body*
4,1,4,$2,$3,$4,$5,$6,$7,$8,$9,$2,$3,0*
0 Add four circle primitives for the rounded corners*
1,1,$1+$1,$2,$3*
1,1,$1+$1,$4,$5*
1,1,$1+$1,$6,$7*
1,1,$1+$1,$8,$9*
0 Add four rect primitives between the rounded corners*
20,1,$1+$1,$2,$3,$4,$5,0*
20,1,$1+$1,$4,$5,$6,$7,0*
20,1,$1+$1,$6,$7,$8,$9,0*
20,1,$1+$1,$8,$9,$2,$3,0*%
G04 Aperture macros list end*
%ADD10RoundRect,0.225000X-0.375000X0.225000X-0.375000X-0.225000X0.375000X-0.225000X0.375000X0.225000X0*%
%ADD11C,2.000000*%
%ADD12R,1.400000X1.400000*%
%ADD13C,1.400000*%
%ADD14C,6.000000*%
%ADD15C,1.524000*%
%ADD16C,4.000000*%
%ADD17R,1.700000X1.700000*%
%ADD18O,1.700000X1.700000*%
%ADD19RoundRect,0.250000X0.475000X-0.250000X0.475000X0.250000X-0.475000X0.250000X-0.475000X-0.250000X0*%
%ADD20RoundRect,0.250000X0.250000X0.475000X-0.250000X0.475000X-0.250000X-0.475000X0.250000X-0.475000X0*%
%ADD21RoundRect,0.250000X-0.600000X-0.600000X0.600000X-0.600000X0.600000X0.600000X-0.600000X0.600000X0*%
%ADD22C,1.700000*%
%ADD23C,1.500000*%
%ADD24RoundRect,0.150000X0.150000X-0.512500X0.150000X0.512500X-0.150000X0.512500X-0.150000X-0.512500X0*%
%ADD25C,3.316000*%
%ADD26C,1.428000*%
%ADD27RoundRect,0.218750X-0.218750X-0.381250X0.218750X-0.381250X0.218750X0.381250X-0.218750X0.381250X0*%
%ADD28RoundRect,0.250000X-0.250000X-0.475000X0.250000X-0.475000X0.250000X0.475000X-0.250000X0.475000X0*%
%ADD29RoundRect,0.250000X-0.262500X-0.450000X0.262500X-0.450000X0.262500X0.450000X-0.262500X0.450000X0*%
%ADD30RoundRect,0.112500X0.187500X0.112500X-0.187500X0.112500X-0.187500X-0.112500X0.187500X-0.112500X0*%
%ADD31RoundRect,0.075000X0.075000X-0.700000X0.075000X0.700000X-0.075000X0.700000X-0.075000X-0.700000X0*%
%ADD32RoundRect,0.075000X0.700000X-0.075000X0.700000X0.075000X-0.700000X0.075000X-0.700000X-0.075000X0*%
%ADD33RoundRect,0.250000X0.262500X0.450000X-0.262500X0.450000X-0.262500X-0.450000X0.262500X-0.450000X0*%
%ADD34RoundRect,0.250000X-0.475000X0.250000X-0.475000X-0.250000X0.475000X-0.250000X0.475000X0.250000X0*%
%ADD35RoundRect,0.250000X-0.450000X0.262500X-0.450000X-0.262500X0.450000X-0.262500X0.450000X0.262500X0*%
G04 APERTURE END LIST*
D10*
%TO.C,D12*%
X137720000Y-140167000D03*
X137720000Y-136867000D03*
%TD*%
%TO.C,D11*%
X135180000Y-140167000D03*
X135180000Y-136867000D03*
%TD*%
%TO.C,D10*%
X132640000Y-140167000D03*
X132640000Y-136867000D03*
%TD*%
%TO.C,D9*%
X130100000Y-140167000D03*
X130100000Y-136867000D03*
%TD*%
%TO.C,D8*%
X127560000Y-140167000D03*
X127560000Y-136867000D03*
%TD*%
%TO.C,D7*%
X125020000Y-140167000D03*
X125020000Y-136867000D03*
%TD*%
%TO.C,D6*%
X122480000Y-140167000D03*
X122480000Y-136867000D03*
%TD*%
%TO.C,D5*%
X119940000Y-140167000D03*
X119940000Y-136867000D03*
%TD*%
%TO.C,D4*%
X117400000Y-140167000D03*
X117400000Y-136867000D03*
%TD*%
%TO.C,D3*%
X114860000Y-140167000D03*
X114860000Y-136867000D03*
%TD*%
%TO.C,D2*%
X112320000Y-140120500D03*
X112320000Y-136820500D03*
%TD*%
%TO.C,D1*%
X109780000Y-136820500D03*
X109780000Y-140120500D03*
%TD*%
D11*
%TO.C,SW7*%
X97560000Y-208712500D03*
X104060000Y-208712500D03*
X97560000Y-213212500D03*
X104060000Y-213212500D03*
%TD*%
%TO.C,SW2*%
X97560000Y-168625000D03*
X104060000Y-168625000D03*
X97560000Y-173125000D03*
X104060000Y-173125000D03*
%TD*%
%TO.C,SW4*%
X110947500Y-181987500D03*
X117447500Y-181987500D03*
X110947500Y-186487500D03*
X117447500Y-186487500D03*
%TD*%
D12*
%TO.C,SW13*%
X160360000Y-139875000D03*
D13*
X160360000Y-142375000D03*
X160360000Y-144875000D03*
X157060000Y-139875000D03*
X157060000Y-142375000D03*
X157060000Y-144875000D03*
%TD*%
D14*
%TO.C,H1*%
X96060000Y-87125000D03*
%TD*%
D11*
%TO.C,SW5*%
X151060000Y-155262500D03*
X157560000Y-155262500D03*
X151060000Y-159762500D03*
X157560000Y-159762500D03*
%TD*%
%TO.C,SW12*%
X151060000Y-235437500D03*
X157560000Y-235437500D03*
X151060000Y-239937500D03*
X157560000Y-239937500D03*
%TD*%
%TO.C,SW9*%
X151060000Y-208712500D03*
X157560000Y-208712500D03*
X151060000Y-213212500D03*
X157560000Y-213212500D03*
%TD*%
D15*
%TO.C,U1*%
X94810000Y-122515000D03*
X94810000Y-119975000D03*
X94810000Y-117435000D03*
X94810000Y-114895000D03*
X94810000Y-112355000D03*
X94810000Y-109815000D03*
X94810000Y-107275000D03*
X94810000Y-104735000D03*
D16*
X160310000Y-132775000D03*
X160310000Y-94475000D03*
X94810000Y-132775000D03*
X94810000Y-94475000D03*
%TD*%
D14*
%TO.C,H2*%
X96060000Y-248625000D03*
%TD*%
D11*
%TO.C,SW11*%
X124310000Y-235437500D03*
X130810000Y-235437500D03*
X124310000Y-239937500D03*
X130810000Y-239937500D03*
%TD*%
%TO.C,SW14*%
X149310000Y-144125000D03*
X142810000Y-144125000D03*
X149310000Y-139625000D03*
X142810000Y-139625000D03*
%TD*%
%TO.C,SW8*%
X124310000Y-208712500D03*
X130810000Y-208712500D03*
X124310000Y-213212500D03*
X130810000Y-213212500D03*
%TD*%
%TO.C,SW6*%
X151060000Y-168625000D03*
X157560000Y-168625000D03*
X151060000Y-173125000D03*
X157560000Y-173125000D03*
%TD*%
D14*
%TO.C,H3*%
X159060000Y-248625000D03*
%TD*%
D11*
%TO.C,SW3*%
X124310000Y-168625000D03*
X130810000Y-168625000D03*
X124310000Y-173125000D03*
X130810000Y-173125000D03*
%TD*%
%TO.C,SW10*%
X97560000Y-235437500D03*
X104060000Y-235437500D03*
X97560000Y-239937500D03*
X104060000Y-239937500D03*
%TD*%
D14*
%TO.C,H4*%
X159060000Y-87125000D03*
%TD*%
D11*
%TO.C,SW1*%
X110900000Y-155262500D03*
X117400000Y-155262500D03*
X110900000Y-159762500D03*
X117400000Y-159762500D03*
%TD*%
D17*
%TO.C,J5*%
X132560000Y-93125000D03*
D18*
X130020000Y-93125000D03*
%TD*%
D17*
%TO.C,J11*%
X160310000Y-99300000D03*
D18*
X160310000Y-101840000D03*
X160310000Y-104380000D03*
X160310000Y-106920000D03*
X160310000Y-109460000D03*
%TD*%
D19*
%TO.C,C1*%
X113810000Y-123625000D03*
X113810000Y-121725000D03*
%TD*%
D20*
%TO.C,C8*%
X153060000Y-86125000D03*
X151160000Y-86125000D03*
%TD*%
%TO.C,C4*%
X98010000Y-99375000D03*
X96110000Y-99375000D03*
%TD*%
D17*
%TO.C,J1*%
X116560000Y-93125000D03*
D18*
X114020000Y-93125000D03*
%TD*%
D20*
%TO.C,C15*%
X122510000Y-96125000D03*
X120610000Y-96125000D03*
%TD*%
D21*
%TO.C,J8*%
X105716000Y-124801000D03*
D22*
X108256000Y-124801000D03*
X105716000Y-122261000D03*
X108256000Y-122261000D03*
X105716000Y-119721000D03*
X108256000Y-119721000D03*
X105716000Y-117181000D03*
X108256000Y-117181000D03*
X105716000Y-114641000D03*
X108256000Y-114641000D03*
X105716000Y-112101000D03*
X108256000Y-112101000D03*
X105716000Y-109561000D03*
X108256000Y-109561000D03*
X105716000Y-107021000D03*
X108256000Y-107021000D03*
X105716000Y-104481000D03*
X108256000Y-104481000D03*
X105716000Y-101941000D03*
X108256000Y-101941000D03*
%TD*%
D23*
%TO.C,e1*%
X131026000Y-124293000D03*
X126146000Y-124293000D03*
%TD*%
D20*
%TO.C,C7*%
X95510000Y-188375000D03*
X93610000Y-188375000D03*
%TD*%
%TO.C,C11*%
X153260000Y-247625000D03*
X151360000Y-247625000D03*
%TD*%
D17*
%TO.C,J4*%
X126060000Y-93125000D03*
D18*
X123520000Y-93125000D03*
%TD*%
D24*
%TO.C,U3*%
X120238000Y-100647000D03*
X119288000Y-100647000D03*
X118338000Y-100647000D03*
X118338000Y-98372000D03*
X120238000Y-98372000D03*
%TD*%
D25*
%TO.C,J7*%
X137290000Y-93140000D03*
X149330000Y-93140000D03*
D26*
X144560000Y-97850000D03*
X142060000Y-97850000D03*
X142060000Y-95850000D03*
X144560000Y-95850000D03*
%TD*%
D27*
%TO.C,FB1*%
X119893500Y-120229000D03*
X122018500Y-120229000D03*
%TD*%
D28*
%TO.C,C14*%
X116748000Y-96125000D03*
X118648000Y-96125000D03*
%TD*%
D17*
%TO.C,J6*%
X113888000Y-104722000D03*
D18*
X113888000Y-102182000D03*
X113888000Y-99642000D03*
%TD*%
D29*
%TO.C,R1*%
X157735000Y-136375000D03*
X159560000Y-136375000D03*
%TD*%
D30*
%TO.C,D13*%
X114938000Y-96125000D03*
X112838000Y-96125000D03*
%TD*%
D31*
%TO.C,U2*%
X131310000Y-119300000D03*
X130810000Y-119300000D03*
X130310000Y-119300000D03*
X129810000Y-119300000D03*
X129310000Y-119300000D03*
X128810000Y-119300000D03*
X128310000Y-119300000D03*
X127810000Y-119300000D03*
X127310000Y-119300000D03*
X126810000Y-119300000D03*
X126310000Y-119300000D03*
X125810000Y-119300000D03*
X125310000Y-119300000D03*
X124810000Y-119300000D03*
X124310000Y-119300000D03*
X123810000Y-119300000D03*
D32*
X121885000Y-117375000D03*
X121885000Y-116875000D03*
X121885000Y-116375000D03*
X121885000Y-115875000D03*
X121885000Y-115375000D03*
X121885000Y-114875000D03*
X121885000Y-114375000D03*
X121885000Y-113875000D03*
X121885000Y-113375000D03*
X121885000Y-112875000D03*
X121885000Y-112375000D03*
X121885000Y-111875000D03*
X121885000Y-111375000D03*
X121885000Y-110875000D03*
X121885000Y-110375000D03*
X121885000Y-109875000D03*
D31*
X123810000Y-107950000D03*
X124310000Y-107950000D03*
X124810000Y-107950000D03*
X125310000Y-107950000D03*
X125810000Y-107950000D03*
X126310000Y-107950000D03*
X126810000Y-107950000D03*
X127310000Y-107950000D03*
X127810000Y-107950000D03*
X128310000Y-107950000D03*
X128810000Y-107950000D03*
X129310000Y-107950000D03*
X129810000Y-107950000D03*
X130310000Y-107950000D03*
X130810000Y-107950000D03*
X131310000Y-107950000D03*
D32*
X133235000Y-109875000D03*
X133235000Y-110375000D03*
X133235000Y-110875000D03*
X133235000Y-111375000D03*
X133235000Y-111875000D03*
X133235000Y-112375000D03*
X133235000Y-112875000D03*
X133235000Y-113375000D03*
X133235000Y-113875000D03*
X133235000Y-114375000D03*
X133235000Y-114875000D03*
X133235000Y-115375000D03*
X133235000Y-115875000D03*
X133235000Y-116375000D03*
X133235000Y-116875000D03*
X133235000Y-117375000D03*
%TD*%
D17*
%TO.C,J9*%
X160310000Y-113300000D03*
D18*
X160310000Y-115840000D03*
X160310000Y-118380000D03*
%TD*%
D20*
%TO.C,C10*%
X104310000Y-247625000D03*
X102410000Y-247625000D03*
%TD*%
D33*
%TO.C,R2*%
X159810000Y-148125000D03*
X157985000Y-148125000D03*
%TD*%
D20*
%TO.C,C6*%
X162010000Y-188625000D03*
X160110000Y-188625000D03*
%TD*%
D19*
%TO.C,C13*%
X117698000Y-105407000D03*
X117698000Y-103507000D03*
%TD*%
D34*
%TO.C,C2*%
X136196000Y-123343000D03*
X136196000Y-125243000D03*
%TD*%
D20*
%TO.C,C5*%
X156760000Y-132625000D03*
X154860000Y-132625000D03*
%TD*%
D17*
%TO.C,J3*%
X124048000Y-104737000D03*
D18*
X124048000Y-102197000D03*
X124048000Y-99657000D03*
%TD*%
D34*
%TO.C,C3*%
X120956000Y-123343000D03*
X120956000Y-125243000D03*
%TD*%
D35*
%TO.C,R3*%
X149310000Y-135050000D03*
X149310000Y-136875000D03*
%TD*%
D20*
%TO.C,C9*%
X148510000Y-113625000D03*
X146610000Y-113625000D03*
%TD*%
D17*
%TO.C,J10*%
X160310000Y-122355000D03*
D18*
X160310000Y-124895000D03*
X160310000Y-127435000D03*
%TD*%
D19*
%TO.C,C12*%
X120238000Y-105407000D03*
X120238000Y-103507000D03*
%TD*%
M02*
