%TF.GenerationSoftware,KiCad,Pcbnew,7.0.1*%
%TF.CreationDate,2023-05-19T13:22:37+02:00*%
%TF.ProjectId,crane,6372616e-652e-46b6-9963-61645f706362,rev?*%
%TF.SameCoordinates,Original*%
%TF.FileFunction,Copper,L2,Inr*%
%TF.FilePolarity,Positive*%
%FSLAX46Y46*%
G04 Gerber Fmt 4.6, Leading zero omitted, Abs format (unit mm)*
G04 Created by KiCad (PCBNEW 7.0.1) date 2023-05-19 13:22:37*
%MOMM*%
%LPD*%
G01*
G04 APERTURE LIST*
G04 Aperture macros list*
%AMRoundRect*
0 Rectangle with rounded corners*
0 $1 Rounding radius*
0 $2 $3 $4 $5 $6 $7 $8 $9 X,Y pos of 4 corners*
0 Add a 4 corners polygon primitive as box body*
4,1,4,$2,$3,$4,$5,$6,$7,$8,$9,$2,$3,0*
0 Add four circle primitives for the rounded corners*
1,1,$1+$1,$2,$3*
1,1,$1+$1,$4,$5*
1,1,$1+$1,$6,$7*
1,1,$1+$1,$8,$9*
0 Add four rect primitives between the rounded corners*
20,1,$1+$1,$2,$3,$4,$5,0*
20,1,$1+$1,$4,$5,$6,$7,0*
20,1,$1+$1,$6,$7,$8,$9,0*
20,1,$1+$1,$8,$9,$2,$3,0*%
G04 Aperture macros list end*
%TA.AperFunction,ComponentPad*%
%ADD10C,2.000000*%
%TD*%
%TA.AperFunction,ComponentPad*%
%ADD11R,1.400000X1.400000*%
%TD*%
%TA.AperFunction,ComponentPad*%
%ADD12C,1.400000*%
%TD*%
%TA.AperFunction,ComponentPad*%
%ADD13C,6.000000*%
%TD*%
%TA.AperFunction,ComponentPad*%
%ADD14C,1.524000*%
%TD*%
%TA.AperFunction,ComponentPad*%
%ADD15C,4.000000*%
%TD*%
%TA.AperFunction,ComponentPad*%
%ADD16R,1.700000X1.700000*%
%TD*%
%TA.AperFunction,ComponentPad*%
%ADD17O,1.700000X1.700000*%
%TD*%
%TA.AperFunction,ComponentPad*%
%ADD18RoundRect,0.250000X-0.600000X-0.600000X0.600000X-0.600000X0.600000X0.600000X-0.600000X0.600000X0*%
%TD*%
%TA.AperFunction,ComponentPad*%
%ADD19C,1.700000*%
%TD*%
%TA.AperFunction,ComponentPad*%
%ADD20C,1.500000*%
%TD*%
%TA.AperFunction,ComponentPad*%
%ADD21C,3.316000*%
%TD*%
%TA.AperFunction,ComponentPad*%
%ADD22C,1.428000*%
%TD*%
%TA.AperFunction,ViaPad*%
%ADD23C,0.600000*%
%TD*%
%TA.AperFunction,Conductor*%
%ADD24C,0.600000*%
%TD*%
G04 APERTURE END LIST*
D10*
%TO.N,SW_C1*%
%TO.C,SW7*%
X97560000Y-208712500D03*
X104060000Y-208712500D03*
%TO.N,Net-(D7-A)*%
X97560000Y-213212500D03*
X104060000Y-213212500D03*
%TD*%
%TO.N,SW_C0*%
%TO.C,SW2*%
X97560000Y-168625000D03*
X104060000Y-168625000D03*
%TO.N,Net-(D2-A)*%
X97560000Y-173125000D03*
X104060000Y-173125000D03*
%TD*%
%TO.N,SW_C0*%
%TO.C,SW4*%
X110947500Y-181987500D03*
X117447500Y-181987500D03*
%TO.N,Net-(D4-A)*%
X110947500Y-186487500D03*
X117447500Y-186487500D03*
%TD*%
D11*
%TO.N,Net-(R1-Pad2)*%
%TO.C,SW13*%
X160360000Y-139875000D03*
D12*
%TO.N,BOOT0*%
X160360000Y-142375000D03*
%TO.N,Net-(R2-Pad1)*%
X160360000Y-144875000D03*
%TO.N,unconnected-(SW13-A-Pad4)*%
X157060000Y-139875000D03*
%TO.N,unconnected-(SW13-B-Pad5)*%
X157060000Y-142375000D03*
%TO.N,unconnected-(SW13-C-Pad6)*%
X157060000Y-144875000D03*
%TD*%
D13*
%TO.N,N/C*%
%TO.C,H1*%
X96060000Y-87125000D03*
%TD*%
D10*
%TO.N,SW_C1*%
%TO.C,SW5*%
X151060000Y-155262500D03*
X157560000Y-155262500D03*
%TO.N,Net-(D5-A)*%
X151060000Y-159762500D03*
X157560000Y-159762500D03*
%TD*%
%TO.N,SW_C2*%
%TO.C,SW12*%
X151060000Y-235437500D03*
X157560000Y-235437500D03*
%TO.N,Net-(D12-A)*%
X151060000Y-239937500D03*
X157560000Y-239937500D03*
%TD*%
%TO.N,SW_C2*%
%TO.C,SW9*%
X151060000Y-208712500D03*
X157560000Y-208712500D03*
%TO.N,Net-(D9-A)*%
X151060000Y-213212500D03*
X157560000Y-213212500D03*
%TD*%
D14*
%TO.N,LCD_BL*%
%TO.C,U1*%
X94810000Y-122515000D03*
%TO.N,LCD_RST*%
X94810000Y-119975000D03*
%TO.N,LCD_DC*%
X94810000Y-117435000D03*
%TO.N,LCD_CS*%
X94810000Y-114895000D03*
%TO.N,LCD_CLK*%
X94810000Y-112355000D03*
%TO.N,LCD_DIN*%
X94810000Y-109815000D03*
%TO.N,GND*%
X94810000Y-107275000D03*
%TO.N,+3V3*%
X94810000Y-104735000D03*
D15*
%TO.N,N/C*%
X160310000Y-132775000D03*
X160310000Y-94475000D03*
X94810000Y-132775000D03*
X94810000Y-94475000D03*
%TD*%
D13*
%TO.N,N/C*%
%TO.C,H2*%
X96060000Y-248625000D03*
%TD*%
D10*
%TO.N,SW_C2*%
%TO.C,SW11*%
X124310000Y-235437500D03*
X130810000Y-235437500D03*
%TO.N,Net-(D11-A)*%
X124310000Y-239937500D03*
X130810000Y-239937500D03*
%TD*%
%TO.N,NRST*%
%TO.C,SW14*%
X149310000Y-144125000D03*
X142810000Y-144125000D03*
%TO.N,Net-(R3-Pad2)*%
X149310000Y-139625000D03*
X142810000Y-139625000D03*
%TD*%
%TO.N,SW_C1*%
%TO.C,SW8*%
X124310000Y-208712500D03*
X130810000Y-208712500D03*
%TO.N,Net-(D8-A)*%
X124310000Y-213212500D03*
X130810000Y-213212500D03*
%TD*%
%TO.N,SW_C1*%
%TO.C,SW6*%
X151060000Y-168625000D03*
X157560000Y-168625000D03*
%TO.N,Net-(D6-A)*%
X151060000Y-173125000D03*
X157560000Y-173125000D03*
%TD*%
D13*
%TO.N,N/C*%
%TO.C,H3*%
X159060000Y-248625000D03*
%TD*%
D10*
%TO.N,SW_C0*%
%TO.C,SW3*%
X124310000Y-168625000D03*
X130810000Y-168625000D03*
%TO.N,Net-(D3-A)*%
X124310000Y-173125000D03*
X130810000Y-173125000D03*
%TD*%
%TO.N,SW_C2*%
%TO.C,SW10*%
X97560000Y-235437500D03*
X104060000Y-235437500D03*
%TO.N,Net-(D10-A)*%
X97560000Y-239937500D03*
X104060000Y-239937500D03*
%TD*%
D13*
%TO.N,N/C*%
%TO.C,H4*%
X159060000Y-87125000D03*
%TD*%
D10*
%TO.N,SW_C0*%
%TO.C,SW1*%
X110900000Y-155262500D03*
X117400000Y-155262500D03*
%TO.N,Net-(D1-A)*%
X110900000Y-159762500D03*
X117400000Y-159762500D03*
%TD*%
D16*
%TO.N,3.3V_EXT*%
%TO.C,J5*%
X132560000Y-93125000D03*
D17*
%TO.N,GND*%
X130020000Y-93125000D03*
%TD*%
D16*
%TO.N,SPI_NSS*%
%TO.C,J11*%
X160310000Y-99300000D03*
D17*
%TO.N,SPI_SCK*%
X160310000Y-101840000D03*
%TO.N,SPI_MISO*%
X160310000Y-104380000D03*
%TO.N,SPI_MOSI*%
X160310000Y-106920000D03*
%TO.N,GND*%
X160310000Y-109460000D03*
%TD*%
D16*
%TO.N,GND*%
%TO.C,J1*%
X116560000Y-93125000D03*
D17*
%TO.N,NRST*%
X114020000Y-93125000D03*
%TD*%
D18*
%TO.N,+3V3*%
%TO.C,J8*%
X105716000Y-124801000D03*
D19*
%TO.N,unconnected-(J8-VCC{slash}NC-Pad2)*%
X108256000Y-124801000D03*
%TO.N,unconnected-(J8-~{TRST}-Pad3)*%
X105716000Y-122261000D03*
%TO.N,GND*%
X108256000Y-122261000D03*
%TO.N,unconnected-(J8-TDI-Pad5)*%
X105716000Y-119721000D03*
%TO.N,GND*%
X108256000Y-119721000D03*
%TO.N,JTMS_SWDIO*%
X105716000Y-117181000D03*
%TO.N,GND*%
X108256000Y-117181000D03*
%TO.N,JTCK_SWCLK*%
X105716000Y-114641000D03*
%TO.N,GND*%
X108256000Y-114641000D03*
%TO.N,unconnected-(J8-RTCK-Pad11)*%
X105716000Y-112101000D03*
%TO.N,GND*%
X108256000Y-112101000D03*
%TO.N,JTDO_SWO*%
X105716000Y-109561000D03*
%TO.N,GND*%
X108256000Y-109561000D03*
%TO.N,NRST*%
X105716000Y-107021000D03*
%TO.N,GND*%
X108256000Y-107021000D03*
%TO.N,unconnected-(J8-DBGRQ{slash}NC-Pad17)*%
X105716000Y-104481000D03*
%TO.N,GND*%
X108256000Y-104481000D03*
%TO.N,unconnected-(J8-DBGACK{slash}NC-Pad19)*%
X105716000Y-101941000D03*
%TO.N,GND*%
X108256000Y-101941000D03*
%TD*%
D20*
%TO.N,Net-(U2-PH0)*%
%TO.C,e1*%
X131026000Y-124293000D03*
%TO.N,Net-(U2-PH1)*%
X126146000Y-124293000D03*
%TD*%
D16*
%TO.N,5V_EXT*%
%TO.C,J4*%
X126060000Y-93125000D03*
D17*
%TO.N,GND*%
X123520000Y-93125000D03*
%TD*%
D21*
%TO.N,GND*%
%TO.C,J7*%
X137290000Y-93140000D03*
X149330000Y-93140000D03*
D22*
%TO.N,USB_VBUS*%
X144560000Y-97850000D03*
%TO.N,USB_OTG_FS_D-*%
X142060000Y-97850000D03*
%TO.N,USB_OTG_FS_D+*%
X142060000Y-95850000D03*
%TO.N,GND*%
X144560000Y-95850000D03*
%TD*%
D16*
%TO.N,5V_EXT*%
%TO.C,J6*%
X113888000Y-104722000D03*
D17*
%TO.N,+5V*%
X113888000Y-102182000D03*
%TO.N,USB_VBUS*%
X113888000Y-99642000D03*
%TD*%
D16*
%TO.N,USART_TX*%
%TO.C,J9*%
X160310000Y-113300000D03*
D17*
%TO.N,USART_RX*%
X160310000Y-115840000D03*
%TO.N,GND*%
X160310000Y-118380000D03*
%TD*%
D16*
%TO.N,3.3V_EXT*%
%TO.C,J3*%
X124048000Y-104737000D03*
D17*
%TO.N,+3V3*%
X124048000Y-102197000D03*
%TO.N,3.3V_REG*%
X124048000Y-99657000D03*
%TD*%
D16*
%TO.N,I2C_SCL*%
%TO.C,J10*%
X160310000Y-122355000D03*
D17*
%TO.N,I2C_SDA*%
X160310000Y-124895000D03*
%TO.N,GND*%
X160310000Y-127435000D03*
%TD*%
D23*
%TO.N,SW_R3*%
X117400000Y-138009000D03*
X125020000Y-135469000D03*
X137720000Y-135469000D03*
%TO.N,SW_R2*%
X127560000Y-135469000D03*
X135688000Y-135469000D03*
X115368000Y-138009000D03*
%TO.N,GND*%
X100060000Y-99625000D03*
X122060000Y-108125000D03*
X140060000Y-122625000D03*
X94560000Y-128125000D03*
X117560000Y-118625000D03*
X124810000Y-112375000D03*
X129810000Y-109375000D03*
X129060000Y-112125000D03*
X135310000Y-121625000D03*
X136060000Y-117125000D03*
X124560000Y-116625000D03*
X126560000Y-121125000D03*
X121810000Y-101375000D03*
%TO.N,+3V3*%
X148560000Y-86625000D03*
X119560000Y-117125000D03*
X146560000Y-115625000D03*
X131823848Y-107013329D03*
X135060000Y-117125000D03*
X102310000Y-244875000D03*
X154060000Y-136375000D03*
X121060000Y-109125000D03*
X94060000Y-190875000D03*
X118560000Y-121125000D03*
X160560000Y-190875000D03*
X132060000Y-120625000D03*
X149310000Y-246125000D03*
%TO.N,SW_C0*%
X141560000Y-109125000D03*
%TO.N,SW_C1*%
X143310000Y-108375000D03*
%TO.N,SW_C2*%
X143810000Y-106875000D03*
%TO.N,NRST*%
X113810000Y-120500000D03*
X125310000Y-114875000D03*
%TO.N,JTMS_SWDIO*%
X132060000Y-106249500D03*
%TO.N,JTCK_SWCLK*%
X134210500Y-109125000D03*
%TO.N,JTDO_SWO*%
X131310000Y-112875000D03*
%TO.N,USART_TX*%
X127905076Y-106675850D03*
%TO.N,USART_RX*%
X128685000Y-106500000D03*
%TO.N,SPI_NSS*%
X137310000Y-114125000D03*
X131310000Y-114625000D03*
%TO.N,SPI_SCK*%
X119560000Y-108625000D03*
%TO.N,SPI_MISO*%
X139060000Y-114625000D03*
X126810000Y-115875000D03*
%TO.N,SPI_MOSI*%
X139185000Y-116000000D03*
X126185500Y-116625000D03*
%TD*%
D24*
%TO.N,5V_EXT*%
X112310000Y-97875000D02*
X115060000Y-95125000D01*
X124060000Y-95125000D02*
X126060000Y-93125000D01*
X113888000Y-104722000D02*
X112310000Y-103144000D01*
X115060000Y-95125000D02*
X124060000Y-95125000D01*
X112310000Y-103144000D02*
X112310000Y-97875000D01*
%TO.N,USB_VBUS*%
X137810000Y-97625000D02*
X140310000Y-100125000D01*
X140310000Y-100125000D02*
X142285000Y-100125000D01*
X113888000Y-99642000D02*
X115905000Y-97625000D01*
X115905000Y-97625000D02*
X137810000Y-97625000D01*
X142285000Y-100125000D02*
X144560000Y-97850000D01*
%TD*%
%TA.AperFunction,Conductor*%
%TO.N,+3V3*%
G36*
X159062702Y-82700617D02*
G01*
X159440234Y-82717101D01*
X159450971Y-82718041D01*
X159822951Y-82767013D01*
X159833570Y-82768885D01*
X160199877Y-82850093D01*
X160210289Y-82852882D01*
X160568122Y-82965707D01*
X160578257Y-82969396D01*
X160924881Y-83112973D01*
X160934672Y-83117539D01*
X161212921Y-83262386D01*
X161267442Y-83290768D01*
X161276810Y-83296176D01*
X161593226Y-83497755D01*
X161602087Y-83503960D01*
X161899721Y-83732342D01*
X161908008Y-83739296D01*
X162184602Y-83992748D01*
X162192251Y-84000397D01*
X162445703Y-84276991D01*
X162452657Y-84285278D01*
X162681039Y-84582912D01*
X162687244Y-84591773D01*
X162888823Y-84908189D01*
X162894231Y-84917557D01*
X163067457Y-85250320D01*
X163072029Y-85260124D01*
X163215597Y-85606727D01*
X163219297Y-85616892D01*
X163332111Y-85974691D01*
X163334911Y-85985141D01*
X163416111Y-86351412D01*
X163417989Y-86362065D01*
X163466956Y-86734009D01*
X163467899Y-86744785D01*
X163484382Y-87122297D01*
X163484500Y-87127706D01*
X163484500Y-248622294D01*
X163484382Y-248627703D01*
X163467899Y-249005214D01*
X163466956Y-249015990D01*
X163417989Y-249387934D01*
X163416111Y-249398587D01*
X163334911Y-249764858D01*
X163332111Y-249775308D01*
X163219297Y-250133107D01*
X163215597Y-250143272D01*
X163072029Y-250489875D01*
X163067457Y-250499679D01*
X162894231Y-250832442D01*
X162888823Y-250841810D01*
X162687244Y-251158226D01*
X162681039Y-251167087D01*
X162452657Y-251464721D01*
X162445703Y-251473008D01*
X162192251Y-251749602D01*
X162184602Y-251757251D01*
X161908008Y-252010703D01*
X161899721Y-252017657D01*
X161602087Y-252246039D01*
X161593226Y-252252244D01*
X161276810Y-252453823D01*
X161267442Y-252459231D01*
X160934679Y-252632457D01*
X160924875Y-252637029D01*
X160578272Y-252780597D01*
X160568107Y-252784297D01*
X160210308Y-252897111D01*
X160199858Y-252899911D01*
X159833587Y-252981111D01*
X159822934Y-252982989D01*
X159450990Y-253031956D01*
X159440214Y-253032899D01*
X159062703Y-253049382D01*
X159057294Y-253049500D01*
X96062706Y-253049500D01*
X96057297Y-253049382D01*
X95679785Y-253032899D01*
X95669009Y-253031956D01*
X95297065Y-252982989D01*
X95286412Y-252981111D01*
X95255435Y-252974243D01*
X94920138Y-252899910D01*
X94909695Y-252897112D01*
X94551890Y-252784296D01*
X94541727Y-252780597D01*
X94195124Y-252637029D01*
X94185320Y-252632457D01*
X93852557Y-252459231D01*
X93843189Y-252453823D01*
X93526773Y-252252244D01*
X93517912Y-252246039D01*
X93220278Y-252017657D01*
X93211991Y-252010703D01*
X92935397Y-251757251D01*
X92927748Y-251749602D01*
X92674296Y-251473008D01*
X92667342Y-251464721D01*
X92438960Y-251167087D01*
X92432755Y-251158226D01*
X92231176Y-250841810D01*
X92225768Y-250832442D01*
X92052542Y-250499679D01*
X92047970Y-250489875D01*
X92001479Y-250377636D01*
X91904396Y-250143257D01*
X91900707Y-250133122D01*
X91787882Y-249775289D01*
X91785093Y-249764877D01*
X91703885Y-249398570D01*
X91702013Y-249387951D01*
X91653041Y-249015971D01*
X91652101Y-249005234D01*
X91635617Y-248627702D01*
X91635559Y-248625000D01*
X92546685Y-248625000D01*
X92565931Y-248992243D01*
X92623457Y-249355452D01*
X92718639Y-249710675D01*
X92850426Y-250053993D01*
X93017381Y-250381662D01*
X93217665Y-250690071D01*
X93217668Y-250690075D01*
X93449098Y-250975867D01*
X93709133Y-251235902D01*
X93994925Y-251467332D01*
X93994927Y-251467333D01*
X93994928Y-251467334D01*
X94303337Y-251667618D01*
X94631005Y-251834572D01*
X94631006Y-251834573D01*
X94974326Y-251966361D01*
X95329541Y-252061541D01*
X95692759Y-252119069D01*
X96060000Y-252138315D01*
X96427241Y-252119069D01*
X96790459Y-252061541D01*
X97145674Y-251966361D01*
X97488994Y-251834573D01*
X97816658Y-251667620D01*
X97816657Y-251667620D01*
X97816662Y-251667618D01*
X97970866Y-251567476D01*
X98125075Y-251467332D01*
X98410867Y-251235902D01*
X98670902Y-250975867D01*
X98902332Y-250690075D01*
X99002476Y-250535866D01*
X99102618Y-250381662D01*
X99114233Y-250358865D01*
X99269573Y-250053994D01*
X99401361Y-249710674D01*
X99496541Y-249355459D01*
X99554069Y-248992241D01*
X99573315Y-248625000D01*
X99573315Y-248624999D01*
X155546685Y-248624999D01*
X155565931Y-248992243D01*
X155623457Y-249355452D01*
X155718639Y-249710675D01*
X155850426Y-250053993D01*
X156017381Y-250381662D01*
X156217665Y-250690071D01*
X156217668Y-250690075D01*
X156449098Y-250975867D01*
X156709133Y-251235902D01*
X156994925Y-251467332D01*
X156994927Y-251467333D01*
X156994928Y-251467334D01*
X157303337Y-251667618D01*
X157631005Y-251834572D01*
X157631006Y-251834573D01*
X157974326Y-251966361D01*
X158329541Y-252061541D01*
X158692759Y-252119069D01*
X159060000Y-252138315D01*
X159427241Y-252119069D01*
X159790459Y-252061541D01*
X160145674Y-251966361D01*
X160488994Y-251834573D01*
X160816658Y-251667620D01*
X160816657Y-251667620D01*
X160816662Y-251667618D01*
X160970866Y-251567476D01*
X161125075Y-251467332D01*
X161410867Y-251235902D01*
X161670902Y-250975867D01*
X161902332Y-250690075D01*
X162002476Y-250535866D01*
X162102618Y-250381662D01*
X162114233Y-250358865D01*
X162269573Y-250053994D01*
X162401361Y-249710674D01*
X162496541Y-249355459D01*
X162554069Y-248992241D01*
X162573315Y-248625000D01*
X162554069Y-248257759D01*
X162496541Y-247894541D01*
X162401361Y-247539326D01*
X162269573Y-247196006D01*
X162269572Y-247196005D01*
X162102618Y-246868338D01*
X161902334Y-246559928D01*
X161902332Y-246559925D01*
X161670902Y-246274133D01*
X161410867Y-246014098D01*
X161125075Y-245782668D01*
X161125073Y-245782667D01*
X161125071Y-245782665D01*
X160816662Y-245582381D01*
X160488993Y-245415426D01*
X160145675Y-245283639D01*
X159790452Y-245188457D01*
X159427243Y-245130931D01*
X159060000Y-245111685D01*
X158692756Y-245130931D01*
X158329547Y-245188457D01*
X157974324Y-245283639D01*
X157631006Y-245415426D01*
X157303338Y-245582381D01*
X156994928Y-245782665D01*
X156709129Y-246014101D01*
X156449101Y-246274129D01*
X156217665Y-246559928D01*
X156017381Y-246868338D01*
X155850426Y-247196006D01*
X155718639Y-247539324D01*
X155623457Y-247894547D01*
X155565931Y-248257756D01*
X155546685Y-248624999D01*
X99573315Y-248624999D01*
X99554069Y-248257759D01*
X99496541Y-247894541D01*
X99401361Y-247539326D01*
X99269573Y-247196006D01*
X99269572Y-247196005D01*
X99102618Y-246868338D01*
X98902334Y-246559928D01*
X98902332Y-246559925D01*
X98670902Y-246274133D01*
X98410867Y-246014098D01*
X98125075Y-245782668D01*
X98125073Y-245782667D01*
X98125071Y-245782665D01*
X97816662Y-245582381D01*
X97488993Y-245415426D01*
X97145675Y-245283639D01*
X96790452Y-245188457D01*
X96427243Y-245130931D01*
X96060000Y-245111685D01*
X95692756Y-245130931D01*
X95329547Y-245188457D01*
X94974324Y-245283639D01*
X94631006Y-245415426D01*
X94303338Y-245582381D01*
X93994928Y-245782665D01*
X93709129Y-246014101D01*
X93449101Y-246274129D01*
X93217665Y-246559928D01*
X93017381Y-246868338D01*
X92850426Y-247196006D01*
X92718639Y-247539324D01*
X92623457Y-247894547D01*
X92565931Y-248257756D01*
X92546685Y-248625000D01*
X91635559Y-248625000D01*
X91635500Y-248622294D01*
X91635500Y-239937500D01*
X96046835Y-239937500D01*
X96065465Y-240174212D01*
X96120894Y-240405093D01*
X96166327Y-240514778D01*
X96211760Y-240624463D01*
X96335824Y-240826916D01*
X96490031Y-241007469D01*
X96670584Y-241161676D01*
X96873037Y-241285740D01*
X97092406Y-241376605D01*
X97323289Y-241432035D01*
X97560000Y-241450665D01*
X97796711Y-241432035D01*
X98027594Y-241376605D01*
X98246963Y-241285740D01*
X98449416Y-241161676D01*
X98629969Y-241007469D01*
X98784176Y-240826916D01*
X98908240Y-240624463D01*
X98999105Y-240405094D01*
X99054535Y-240174211D01*
X99073165Y-239937500D01*
X102546835Y-239937500D01*
X102565465Y-240174212D01*
X102620894Y-240405093D01*
X102666327Y-240514778D01*
X102711760Y-240624463D01*
X102835824Y-240826916D01*
X102990031Y-241007469D01*
X103170584Y-241161676D01*
X103373037Y-241285740D01*
X103592406Y-241376605D01*
X103823289Y-241432035D01*
X104060000Y-241450665D01*
X104296711Y-241432035D01*
X104527594Y-241376605D01*
X104746963Y-241285740D01*
X104949416Y-241161676D01*
X105129969Y-241007469D01*
X105284176Y-240826916D01*
X105408240Y-240624463D01*
X105499105Y-240405094D01*
X105554535Y-240174211D01*
X105573165Y-239937500D01*
X122796835Y-239937500D01*
X122815465Y-240174212D01*
X122870894Y-240405093D01*
X122916327Y-240514778D01*
X122961760Y-240624463D01*
X123085824Y-240826916D01*
X123240031Y-241007469D01*
X123420584Y-241161676D01*
X123623037Y-241285740D01*
X123842406Y-241376605D01*
X124073289Y-241432035D01*
X124310000Y-241450665D01*
X124546711Y-241432035D01*
X124777594Y-241376605D01*
X124996963Y-241285740D01*
X125199416Y-241161676D01*
X125379969Y-241007469D01*
X125534176Y-240826916D01*
X125658240Y-240624463D01*
X125749105Y-240405094D01*
X125804535Y-240174211D01*
X125823165Y-239937500D01*
X129296835Y-239937500D01*
X129315465Y-240174212D01*
X129370894Y-240405093D01*
X129416327Y-240514778D01*
X129461760Y-240624463D01*
X129585824Y-240826916D01*
X129740031Y-241007469D01*
X129920584Y-241161676D01*
X130123037Y-241285740D01*
X130342406Y-241376605D01*
X130573289Y-241432035D01*
X130810000Y-241450665D01*
X131046711Y-241432035D01*
X131277594Y-241376605D01*
X131496963Y-241285740D01*
X131699416Y-241161676D01*
X131879969Y-241007469D01*
X132034176Y-240826916D01*
X132158240Y-240624463D01*
X132249105Y-240405094D01*
X132304535Y-240174211D01*
X132323165Y-239937500D01*
X149546835Y-239937500D01*
X149565465Y-240174212D01*
X149620894Y-240405093D01*
X149666327Y-240514778D01*
X149711760Y-240624463D01*
X149835824Y-240826916D01*
X149990031Y-241007469D01*
X150170584Y-241161676D01*
X150373037Y-241285740D01*
X150592406Y-241376605D01*
X150823289Y-241432035D01*
X151060000Y-241450665D01*
X151296711Y-241432035D01*
X151527594Y-241376605D01*
X151746963Y-241285740D01*
X151949416Y-241161676D01*
X152129969Y-241007469D01*
X152284176Y-240826916D01*
X152408240Y-240624463D01*
X152499105Y-240405094D01*
X152554535Y-240174211D01*
X152573165Y-239937500D01*
X156046835Y-239937500D01*
X156065465Y-240174212D01*
X156120894Y-240405093D01*
X156166327Y-240514778D01*
X156211760Y-240624463D01*
X156335824Y-240826916D01*
X156490031Y-241007469D01*
X156670584Y-241161676D01*
X156873037Y-241285740D01*
X157092406Y-241376605D01*
X157323289Y-241432035D01*
X157560000Y-241450665D01*
X157796711Y-241432035D01*
X158027594Y-241376605D01*
X158246963Y-241285740D01*
X158449416Y-241161676D01*
X158629969Y-241007469D01*
X158784176Y-240826916D01*
X158908240Y-240624463D01*
X158999105Y-240405094D01*
X159054535Y-240174211D01*
X159073165Y-239937500D01*
X159054535Y-239700789D01*
X158999105Y-239469906D01*
X158908240Y-239250537D01*
X158784176Y-239048084D01*
X158629969Y-238867531D01*
X158449416Y-238713324D01*
X158246963Y-238589260D01*
X158137278Y-238543827D01*
X158027593Y-238498394D01*
X157796712Y-238442965D01*
X157560000Y-238424335D01*
X157323287Y-238442965D01*
X157092406Y-238498394D01*
X156873035Y-238589261D01*
X156670585Y-238713323D01*
X156490031Y-238867531D01*
X156335823Y-239048085D01*
X156211761Y-239250535D01*
X156120894Y-239469906D01*
X156065465Y-239700787D01*
X156046835Y-239937500D01*
X152573165Y-239937500D01*
X152554535Y-239700789D01*
X152499105Y-239469906D01*
X152408240Y-239250537D01*
X152284176Y-239048084D01*
X152129969Y-238867531D01*
X151949416Y-238713324D01*
X151746963Y-238589260D01*
X151637278Y-238543827D01*
X151527593Y-238498394D01*
X151296712Y-238442965D01*
X151060000Y-238424335D01*
X150823287Y-238442965D01*
X150592406Y-238498394D01*
X150373035Y-238589261D01*
X150170585Y-238713323D01*
X149990031Y-238867531D01*
X149835823Y-239048085D01*
X149711761Y-239250535D01*
X149620894Y-239469906D01*
X149565465Y-239700787D01*
X149546835Y-239937500D01*
X132323165Y-239937500D01*
X132304535Y-239700789D01*
X132249105Y-239469906D01*
X132158240Y-239250537D01*
X132034176Y-239048084D01*
X131879969Y-238867531D01*
X131699416Y-238713324D01*
X131496963Y-238589260D01*
X131387278Y-238543827D01*
X131277593Y-238498394D01*
X131046712Y-238442965D01*
X130810000Y-238424335D01*
X130573287Y-238442965D01*
X130342406Y-238498394D01*
X130123035Y-238589261D01*
X129920585Y-238713323D01*
X129740031Y-238867531D01*
X129585823Y-239048085D01*
X129461761Y-239250535D01*
X129370894Y-239469906D01*
X129315465Y-239700787D01*
X129296835Y-239937500D01*
X125823165Y-239937500D01*
X125804535Y-239700789D01*
X125749105Y-239469906D01*
X125658240Y-239250537D01*
X125534176Y-239048084D01*
X125379969Y-238867531D01*
X125199416Y-238713324D01*
X124996963Y-238589260D01*
X124887278Y-238543827D01*
X124777593Y-238498394D01*
X124546712Y-238442965D01*
X124310000Y-238424335D01*
X124073287Y-238442965D01*
X123842406Y-238498394D01*
X123623035Y-238589261D01*
X123420585Y-238713323D01*
X123240031Y-238867531D01*
X123085823Y-239048085D01*
X122961761Y-239250535D01*
X122870894Y-239469906D01*
X122815465Y-239700787D01*
X122796835Y-239937500D01*
X105573165Y-239937500D01*
X105554535Y-239700789D01*
X105499105Y-239469906D01*
X105408240Y-239250537D01*
X105284176Y-239048084D01*
X105129969Y-238867531D01*
X104949416Y-238713324D01*
X104746963Y-238589260D01*
X104637278Y-238543827D01*
X104527593Y-238498394D01*
X104296712Y-238442965D01*
X104060000Y-238424335D01*
X103823287Y-238442965D01*
X103592406Y-238498394D01*
X103373035Y-238589261D01*
X103170585Y-238713323D01*
X102990031Y-238867531D01*
X102835823Y-239048085D01*
X102711761Y-239250535D01*
X102620894Y-239469906D01*
X102565465Y-239700787D01*
X102546835Y-239937500D01*
X99073165Y-239937500D01*
X99054535Y-239700789D01*
X98999105Y-239469906D01*
X98908240Y-239250537D01*
X98784176Y-239048084D01*
X98629969Y-238867531D01*
X98449416Y-238713324D01*
X98246963Y-238589260D01*
X98137278Y-238543827D01*
X98027593Y-238498394D01*
X97796712Y-238442965D01*
X97560000Y-238424335D01*
X97323287Y-238442965D01*
X97092406Y-238498394D01*
X96873035Y-238589261D01*
X96670585Y-238713323D01*
X96490031Y-238867531D01*
X96335823Y-239048085D01*
X96211761Y-239250535D01*
X96120894Y-239469906D01*
X96065465Y-239700787D01*
X96046835Y-239937500D01*
X91635500Y-239937500D01*
X91635500Y-235437500D01*
X96046835Y-235437500D01*
X96065465Y-235674212D01*
X96120894Y-235905093D01*
X96166327Y-236014778D01*
X96211760Y-236124463D01*
X96335824Y-236326916D01*
X96490031Y-236507469D01*
X96670584Y-236661676D01*
X96873037Y-236785740D01*
X97092406Y-236876605D01*
X97323289Y-236932035D01*
X97560000Y-236950665D01*
X97796711Y-236932035D01*
X98027594Y-236876605D01*
X98246963Y-236785740D01*
X98449416Y-236661676D01*
X98629969Y-236507469D01*
X98784176Y-236326916D01*
X98908240Y-236124463D01*
X98999105Y-235905094D01*
X99054535Y-235674211D01*
X99073165Y-235437500D01*
X102546835Y-235437500D01*
X102565465Y-235674212D01*
X102620894Y-235905093D01*
X102666327Y-236014778D01*
X102711760Y-236124463D01*
X102835824Y-236326916D01*
X102990031Y-236507469D01*
X103170584Y-236661676D01*
X103373037Y-236785740D01*
X103592406Y-236876605D01*
X103823289Y-236932035D01*
X104060000Y-236950665D01*
X104296711Y-236932035D01*
X104527594Y-236876605D01*
X104746963Y-236785740D01*
X104949416Y-236661676D01*
X105129969Y-236507469D01*
X105284176Y-236326916D01*
X105408240Y-236124463D01*
X105499105Y-235905094D01*
X105554535Y-235674211D01*
X105573165Y-235437500D01*
X122796835Y-235437500D01*
X122815465Y-235674212D01*
X122870894Y-235905093D01*
X122916327Y-236014778D01*
X122961760Y-236124463D01*
X123085824Y-236326916D01*
X123240031Y-236507469D01*
X123420584Y-236661676D01*
X123623037Y-236785740D01*
X123842406Y-236876605D01*
X124073289Y-236932035D01*
X124310000Y-236950665D01*
X124546711Y-236932035D01*
X124777594Y-236876605D01*
X124996963Y-236785740D01*
X125199416Y-236661676D01*
X125379969Y-236507469D01*
X125534176Y-236326916D01*
X125658240Y-236124463D01*
X125749105Y-235905094D01*
X125804535Y-235674211D01*
X125823165Y-235437500D01*
X129296835Y-235437500D01*
X129315465Y-235674212D01*
X129370894Y-235905093D01*
X129416327Y-236014778D01*
X129461760Y-236124463D01*
X129585824Y-236326916D01*
X129740031Y-236507469D01*
X129920584Y-236661676D01*
X130123037Y-236785740D01*
X130342406Y-236876605D01*
X130573289Y-236932035D01*
X130810000Y-236950665D01*
X131046711Y-236932035D01*
X131277594Y-236876605D01*
X131496963Y-236785740D01*
X131699416Y-236661676D01*
X131879969Y-236507469D01*
X132034176Y-236326916D01*
X132158240Y-236124463D01*
X132249105Y-235905094D01*
X132304535Y-235674211D01*
X132323165Y-235437500D01*
X149546835Y-235437500D01*
X149565465Y-235674212D01*
X149620894Y-235905093D01*
X149666327Y-236014778D01*
X149711760Y-236124463D01*
X149835824Y-236326916D01*
X149990031Y-236507469D01*
X150170584Y-236661676D01*
X150373037Y-236785740D01*
X150592406Y-236876605D01*
X150823289Y-236932035D01*
X151060000Y-236950665D01*
X151296711Y-236932035D01*
X151527594Y-236876605D01*
X151746963Y-236785740D01*
X151949416Y-236661676D01*
X152129969Y-236507469D01*
X152284176Y-236326916D01*
X152408240Y-236124463D01*
X152499105Y-235905094D01*
X152554535Y-235674211D01*
X152573165Y-235437500D01*
X156046835Y-235437500D01*
X156065465Y-235674212D01*
X156120894Y-235905093D01*
X156166327Y-236014778D01*
X156211760Y-236124463D01*
X156335824Y-236326916D01*
X156490031Y-236507469D01*
X156670584Y-236661676D01*
X156873037Y-236785740D01*
X157092406Y-236876605D01*
X157323289Y-236932035D01*
X157560000Y-236950665D01*
X157796711Y-236932035D01*
X158027594Y-236876605D01*
X158246963Y-236785740D01*
X158449416Y-236661676D01*
X158629969Y-236507469D01*
X158784176Y-236326916D01*
X158908240Y-236124463D01*
X158999105Y-235905094D01*
X159054535Y-235674211D01*
X159073165Y-235437500D01*
X159054535Y-235200789D01*
X158999105Y-234969906D01*
X158908240Y-234750537D01*
X158784176Y-234548084D01*
X158629969Y-234367531D01*
X158449416Y-234213324D01*
X158246963Y-234089260D01*
X158137278Y-234043827D01*
X158027593Y-233998394D01*
X157796712Y-233942965D01*
X157560000Y-233924335D01*
X157323287Y-233942965D01*
X157092406Y-233998394D01*
X156873035Y-234089261D01*
X156670585Y-234213323D01*
X156490031Y-234367531D01*
X156335823Y-234548085D01*
X156211761Y-234750535D01*
X156120894Y-234969906D01*
X156065465Y-235200787D01*
X156046835Y-235437500D01*
X152573165Y-235437500D01*
X152554535Y-235200789D01*
X152499105Y-234969906D01*
X152408240Y-234750537D01*
X152284176Y-234548084D01*
X152129969Y-234367531D01*
X151949416Y-234213324D01*
X151746963Y-234089260D01*
X151637278Y-234043827D01*
X151527593Y-233998394D01*
X151296712Y-233942965D01*
X151060000Y-233924335D01*
X150823287Y-233942965D01*
X150592406Y-233998394D01*
X150373035Y-234089261D01*
X150170585Y-234213323D01*
X149990031Y-234367531D01*
X149835823Y-234548085D01*
X149711761Y-234750535D01*
X149620894Y-234969906D01*
X149565465Y-235200787D01*
X149546835Y-235437500D01*
X132323165Y-235437500D01*
X132304535Y-235200789D01*
X132249105Y-234969906D01*
X132158240Y-234750537D01*
X132034176Y-234548084D01*
X131879969Y-234367531D01*
X131699416Y-234213324D01*
X131496963Y-234089260D01*
X131387278Y-234043827D01*
X131277593Y-233998394D01*
X131046712Y-233942965D01*
X130810000Y-233924335D01*
X130573287Y-233942965D01*
X130342406Y-233998394D01*
X130123035Y-234089261D01*
X129920585Y-234213323D01*
X129740031Y-234367531D01*
X129585823Y-234548085D01*
X129461761Y-234750535D01*
X129370894Y-234969906D01*
X129315465Y-235200787D01*
X129296835Y-235437500D01*
X125823165Y-235437500D01*
X125804535Y-235200789D01*
X125749105Y-234969906D01*
X125658240Y-234750537D01*
X125534176Y-234548084D01*
X125379969Y-234367531D01*
X125199416Y-234213324D01*
X124996963Y-234089260D01*
X124887278Y-234043827D01*
X124777593Y-233998394D01*
X124546712Y-233942965D01*
X124310000Y-233924335D01*
X124073287Y-233942965D01*
X123842406Y-233998394D01*
X123623035Y-234089261D01*
X123420585Y-234213323D01*
X123240031Y-234367531D01*
X123085823Y-234548085D01*
X122961761Y-234750535D01*
X122870894Y-234969906D01*
X122815465Y-235200787D01*
X122796835Y-235437500D01*
X105573165Y-235437500D01*
X105554535Y-235200789D01*
X105499105Y-234969906D01*
X105408240Y-234750537D01*
X105284176Y-234548084D01*
X105129969Y-234367531D01*
X104949416Y-234213324D01*
X104746963Y-234089260D01*
X104637278Y-234043827D01*
X104527593Y-233998394D01*
X104296712Y-233942965D01*
X104060000Y-233924335D01*
X103823287Y-233942965D01*
X103592406Y-233998394D01*
X103373035Y-234089261D01*
X103170585Y-234213323D01*
X102990031Y-234367531D01*
X102835823Y-234548085D01*
X102711761Y-234750535D01*
X102620894Y-234969906D01*
X102565465Y-235200787D01*
X102546835Y-235437500D01*
X99073165Y-235437500D01*
X99054535Y-235200789D01*
X98999105Y-234969906D01*
X98908240Y-234750537D01*
X98784176Y-234548084D01*
X98629969Y-234367531D01*
X98449416Y-234213324D01*
X98246963Y-234089260D01*
X98137278Y-234043827D01*
X98027593Y-233998394D01*
X97796712Y-233942965D01*
X97560000Y-233924335D01*
X97323287Y-233942965D01*
X97092406Y-233998394D01*
X96873035Y-234089261D01*
X96670585Y-234213323D01*
X96490031Y-234367531D01*
X96335823Y-234548085D01*
X96211761Y-234750535D01*
X96120894Y-234969906D01*
X96065465Y-235200787D01*
X96046835Y-235437500D01*
X91635500Y-235437500D01*
X91635500Y-213212500D01*
X96046835Y-213212500D01*
X96065465Y-213449212D01*
X96120894Y-213680093D01*
X96166327Y-213789778D01*
X96211760Y-213899463D01*
X96335824Y-214101916D01*
X96490031Y-214282469D01*
X96670584Y-214436676D01*
X96873037Y-214560740D01*
X97092406Y-214651605D01*
X97323289Y-214707035D01*
X97560000Y-214725665D01*
X97796711Y-214707035D01*
X98027594Y-214651605D01*
X98246963Y-214560740D01*
X98449416Y-214436676D01*
X98629969Y-214282469D01*
X98784176Y-214101916D01*
X98908240Y-213899463D01*
X98999105Y-213680094D01*
X99054535Y-213449211D01*
X99073165Y-213212500D01*
X102546835Y-213212500D01*
X102565465Y-213449212D01*
X102620894Y-213680093D01*
X102666327Y-213789778D01*
X102711760Y-213899463D01*
X102835824Y-214101916D01*
X102990031Y-214282469D01*
X103170584Y-214436676D01*
X103373037Y-214560740D01*
X103592406Y-214651605D01*
X103823289Y-214707035D01*
X104060000Y-214725665D01*
X104296711Y-214707035D01*
X104527594Y-214651605D01*
X104746963Y-214560740D01*
X104949416Y-214436676D01*
X105129969Y-214282469D01*
X105284176Y-214101916D01*
X105408240Y-213899463D01*
X105499105Y-213680094D01*
X105554535Y-213449211D01*
X105573165Y-213212500D01*
X122796835Y-213212500D01*
X122815465Y-213449212D01*
X122870894Y-213680093D01*
X122916327Y-213789778D01*
X122961760Y-213899463D01*
X123085824Y-214101916D01*
X123240031Y-214282469D01*
X123420584Y-214436676D01*
X123623037Y-214560740D01*
X123842406Y-214651605D01*
X124073289Y-214707035D01*
X124310000Y-214725665D01*
X124546711Y-214707035D01*
X124777594Y-214651605D01*
X124996963Y-214560740D01*
X125199416Y-214436676D01*
X125379969Y-214282469D01*
X125534176Y-214101916D01*
X125658240Y-213899463D01*
X125749105Y-213680094D01*
X125804535Y-213449211D01*
X125823165Y-213212500D01*
X129296835Y-213212500D01*
X129315465Y-213449212D01*
X129370894Y-213680093D01*
X129416327Y-213789778D01*
X129461760Y-213899463D01*
X129585824Y-214101916D01*
X129740031Y-214282469D01*
X129920584Y-214436676D01*
X130123037Y-214560740D01*
X130342406Y-214651605D01*
X130573289Y-214707035D01*
X130810000Y-214725665D01*
X131046711Y-214707035D01*
X131277594Y-214651605D01*
X131496963Y-214560740D01*
X131699416Y-214436676D01*
X131879969Y-214282469D01*
X132034176Y-214101916D01*
X132158240Y-213899463D01*
X132249105Y-213680094D01*
X132304535Y-213449211D01*
X132323165Y-213212500D01*
X149546835Y-213212500D01*
X149565465Y-213449212D01*
X149620894Y-213680093D01*
X149666327Y-213789778D01*
X149711760Y-213899463D01*
X149835824Y-214101916D01*
X149990031Y-214282469D01*
X150170584Y-214436676D01*
X150373037Y-214560740D01*
X150592406Y-214651605D01*
X150823289Y-214707035D01*
X151060000Y-214725665D01*
X151296711Y-214707035D01*
X151527594Y-214651605D01*
X151746963Y-214560740D01*
X151949416Y-214436676D01*
X152129969Y-214282469D01*
X152284176Y-214101916D01*
X152408240Y-213899463D01*
X152499105Y-213680094D01*
X152554535Y-213449211D01*
X152573165Y-213212500D01*
X156046835Y-213212500D01*
X156065465Y-213449212D01*
X156120894Y-213680093D01*
X156166327Y-213789778D01*
X156211760Y-213899463D01*
X156335824Y-214101916D01*
X156490031Y-214282469D01*
X156670584Y-214436676D01*
X156873037Y-214560740D01*
X157092406Y-214651605D01*
X157323289Y-214707035D01*
X157560000Y-214725665D01*
X157796711Y-214707035D01*
X158027594Y-214651605D01*
X158246963Y-214560740D01*
X158449416Y-214436676D01*
X158629969Y-214282469D01*
X158784176Y-214101916D01*
X158908240Y-213899463D01*
X158999105Y-213680094D01*
X159054535Y-213449211D01*
X159073165Y-213212500D01*
X159054535Y-212975789D01*
X158999105Y-212744906D01*
X158908240Y-212525537D01*
X158784176Y-212323084D01*
X158629969Y-212142531D01*
X158449416Y-211988324D01*
X158246963Y-211864260D01*
X158137278Y-211818827D01*
X158027593Y-211773394D01*
X157796712Y-211717965D01*
X157560000Y-211699335D01*
X157323287Y-211717965D01*
X157092406Y-211773394D01*
X156873035Y-211864261D01*
X156670585Y-211988323D01*
X156490031Y-212142531D01*
X156335823Y-212323085D01*
X156211761Y-212525535D01*
X156120894Y-212744906D01*
X156065465Y-212975787D01*
X156046835Y-213212500D01*
X152573165Y-213212500D01*
X152554535Y-212975789D01*
X152499105Y-212744906D01*
X152408240Y-212525537D01*
X152284176Y-212323084D01*
X152129969Y-212142531D01*
X151949416Y-211988324D01*
X151746963Y-211864260D01*
X151637278Y-211818827D01*
X151527593Y-211773394D01*
X151296712Y-211717965D01*
X151060000Y-211699335D01*
X150823287Y-211717965D01*
X150592406Y-211773394D01*
X150373035Y-211864261D01*
X150170585Y-211988323D01*
X149990031Y-212142531D01*
X149835823Y-212323085D01*
X149711761Y-212525535D01*
X149620894Y-212744906D01*
X149565465Y-212975787D01*
X149546835Y-213212500D01*
X132323165Y-213212500D01*
X132304535Y-212975789D01*
X132249105Y-212744906D01*
X132158240Y-212525537D01*
X132034176Y-212323084D01*
X131879969Y-212142531D01*
X131699416Y-211988324D01*
X131496963Y-211864260D01*
X131387278Y-211818827D01*
X131277593Y-211773394D01*
X131046712Y-211717965D01*
X130810000Y-211699335D01*
X130573287Y-211717965D01*
X130342406Y-211773394D01*
X130123035Y-211864261D01*
X129920585Y-211988323D01*
X129740031Y-212142531D01*
X129585823Y-212323085D01*
X129461761Y-212525535D01*
X129370894Y-212744906D01*
X129315465Y-212975787D01*
X129296835Y-213212500D01*
X125823165Y-213212500D01*
X125804535Y-212975789D01*
X125749105Y-212744906D01*
X125658240Y-212525537D01*
X125534176Y-212323084D01*
X125379969Y-212142531D01*
X125199416Y-211988324D01*
X124996963Y-211864260D01*
X124887278Y-211818827D01*
X124777593Y-211773394D01*
X124546712Y-211717965D01*
X124310000Y-211699335D01*
X124073287Y-211717965D01*
X123842406Y-211773394D01*
X123623035Y-211864261D01*
X123420585Y-211988323D01*
X123240031Y-212142531D01*
X123085823Y-212323085D01*
X122961761Y-212525535D01*
X122870894Y-212744906D01*
X122815465Y-212975787D01*
X122796835Y-213212500D01*
X105573165Y-213212500D01*
X105554535Y-212975789D01*
X105499105Y-212744906D01*
X105408240Y-212525537D01*
X105284176Y-212323084D01*
X105129969Y-212142531D01*
X104949416Y-211988324D01*
X104746963Y-211864260D01*
X104637278Y-211818827D01*
X104527593Y-211773394D01*
X104296712Y-211717965D01*
X104060000Y-211699335D01*
X103823287Y-211717965D01*
X103592406Y-211773394D01*
X103373035Y-211864261D01*
X103170585Y-211988323D01*
X102990031Y-212142531D01*
X102835823Y-212323085D01*
X102711761Y-212525535D01*
X102620894Y-212744906D01*
X102565465Y-212975787D01*
X102546835Y-213212500D01*
X99073165Y-213212500D01*
X99054535Y-212975789D01*
X98999105Y-212744906D01*
X98908240Y-212525537D01*
X98784176Y-212323084D01*
X98629969Y-212142531D01*
X98449416Y-211988324D01*
X98246963Y-211864260D01*
X98137278Y-211818827D01*
X98027593Y-211773394D01*
X97796712Y-211717965D01*
X97560000Y-211699335D01*
X97323287Y-211717965D01*
X97092406Y-211773394D01*
X96873035Y-211864261D01*
X96670585Y-211988323D01*
X96490031Y-212142531D01*
X96335823Y-212323085D01*
X96211761Y-212525535D01*
X96120894Y-212744906D01*
X96065465Y-212975787D01*
X96046835Y-213212500D01*
X91635500Y-213212500D01*
X91635500Y-208712500D01*
X96046835Y-208712500D01*
X96065465Y-208949212D01*
X96120894Y-209180093D01*
X96166327Y-209289778D01*
X96211760Y-209399463D01*
X96335824Y-209601916D01*
X96490031Y-209782469D01*
X96670584Y-209936676D01*
X96873037Y-210060740D01*
X97092406Y-210151605D01*
X97323289Y-210207035D01*
X97560000Y-210225665D01*
X97796711Y-210207035D01*
X98027594Y-210151605D01*
X98246963Y-210060740D01*
X98449416Y-209936676D01*
X98629969Y-209782469D01*
X98784176Y-209601916D01*
X98908240Y-209399463D01*
X98999105Y-209180094D01*
X99054535Y-208949211D01*
X99073165Y-208712500D01*
X102546835Y-208712500D01*
X102565465Y-208949212D01*
X102620894Y-209180093D01*
X102666327Y-209289778D01*
X102711760Y-209399463D01*
X102835824Y-209601916D01*
X102990031Y-209782469D01*
X103170584Y-209936676D01*
X103373037Y-210060740D01*
X103592406Y-210151605D01*
X103823289Y-210207035D01*
X104060000Y-210225665D01*
X104296711Y-210207035D01*
X104527594Y-210151605D01*
X104746963Y-210060740D01*
X104949416Y-209936676D01*
X105129969Y-209782469D01*
X105284176Y-209601916D01*
X105408240Y-209399463D01*
X105499105Y-209180094D01*
X105554535Y-208949211D01*
X105573165Y-208712500D01*
X122796835Y-208712500D01*
X122815465Y-208949212D01*
X122870894Y-209180093D01*
X122916327Y-209289778D01*
X122961760Y-209399463D01*
X123085824Y-209601916D01*
X123240031Y-209782469D01*
X123420584Y-209936676D01*
X123623037Y-210060740D01*
X123842406Y-210151605D01*
X124073289Y-210207035D01*
X124310000Y-210225665D01*
X124546711Y-210207035D01*
X124777594Y-210151605D01*
X124996963Y-210060740D01*
X125199416Y-209936676D01*
X125379969Y-209782469D01*
X125534176Y-209601916D01*
X125658240Y-209399463D01*
X125749105Y-209180094D01*
X125804535Y-208949211D01*
X125823165Y-208712500D01*
X129296835Y-208712500D01*
X129315465Y-208949212D01*
X129370894Y-209180093D01*
X129416327Y-209289778D01*
X129461760Y-209399463D01*
X129585824Y-209601916D01*
X129740031Y-209782469D01*
X129920584Y-209936676D01*
X130123037Y-210060740D01*
X130342406Y-210151605D01*
X130573289Y-210207035D01*
X130810000Y-210225665D01*
X131046711Y-210207035D01*
X131277594Y-210151605D01*
X131496963Y-210060740D01*
X131699416Y-209936676D01*
X131879969Y-209782469D01*
X132034176Y-209601916D01*
X132158240Y-209399463D01*
X132249105Y-209180094D01*
X132304535Y-208949211D01*
X132323165Y-208712500D01*
X149546835Y-208712500D01*
X149565465Y-208949212D01*
X149620894Y-209180093D01*
X149666327Y-209289778D01*
X149711760Y-209399463D01*
X149835824Y-209601916D01*
X149990031Y-209782469D01*
X150170584Y-209936676D01*
X150373037Y-210060740D01*
X150592406Y-210151605D01*
X150823289Y-210207035D01*
X151060000Y-210225665D01*
X151296711Y-210207035D01*
X151527594Y-210151605D01*
X151746963Y-210060740D01*
X151949416Y-209936676D01*
X152129969Y-209782469D01*
X152284176Y-209601916D01*
X152408240Y-209399463D01*
X152499105Y-209180094D01*
X152554535Y-208949211D01*
X152573165Y-208712500D01*
X156046835Y-208712500D01*
X156065465Y-208949212D01*
X156120894Y-209180093D01*
X156166327Y-209289778D01*
X156211760Y-209399463D01*
X156335824Y-209601916D01*
X156490031Y-209782469D01*
X156670584Y-209936676D01*
X156873037Y-210060740D01*
X157092406Y-210151605D01*
X157323289Y-210207035D01*
X157560000Y-210225665D01*
X157796711Y-210207035D01*
X158027594Y-210151605D01*
X158246963Y-210060740D01*
X158449416Y-209936676D01*
X158629969Y-209782469D01*
X158784176Y-209601916D01*
X158908240Y-209399463D01*
X158999105Y-209180094D01*
X159054535Y-208949211D01*
X159073165Y-208712500D01*
X159054535Y-208475789D01*
X158999105Y-208244906D01*
X158908240Y-208025537D01*
X158784176Y-207823084D01*
X158629969Y-207642531D01*
X158449416Y-207488324D01*
X158246963Y-207364260D01*
X158137278Y-207318827D01*
X158027593Y-207273394D01*
X157796712Y-207217965D01*
X157560000Y-207199335D01*
X157323287Y-207217965D01*
X157092406Y-207273394D01*
X156873035Y-207364261D01*
X156670585Y-207488323D01*
X156490031Y-207642531D01*
X156335823Y-207823085D01*
X156211761Y-208025535D01*
X156120894Y-208244906D01*
X156065465Y-208475787D01*
X156046835Y-208712500D01*
X152573165Y-208712500D01*
X152554535Y-208475789D01*
X152499105Y-208244906D01*
X152408240Y-208025537D01*
X152284176Y-207823084D01*
X152129969Y-207642531D01*
X151949416Y-207488324D01*
X151746963Y-207364260D01*
X151637278Y-207318827D01*
X151527593Y-207273394D01*
X151296712Y-207217965D01*
X151060000Y-207199335D01*
X150823287Y-207217965D01*
X150592406Y-207273394D01*
X150373035Y-207364261D01*
X150170585Y-207488323D01*
X149990031Y-207642531D01*
X149835823Y-207823085D01*
X149711761Y-208025535D01*
X149620894Y-208244906D01*
X149565465Y-208475787D01*
X149546835Y-208712500D01*
X132323165Y-208712500D01*
X132304535Y-208475789D01*
X132249105Y-208244906D01*
X132158240Y-208025537D01*
X132034176Y-207823084D01*
X131879969Y-207642531D01*
X131699416Y-207488324D01*
X131496963Y-207364260D01*
X131387278Y-207318827D01*
X131277593Y-207273394D01*
X131046712Y-207217965D01*
X130810000Y-207199335D01*
X130573287Y-207217965D01*
X130342406Y-207273394D01*
X130123035Y-207364261D01*
X129920585Y-207488323D01*
X129740031Y-207642531D01*
X129585823Y-207823085D01*
X129461761Y-208025535D01*
X129370894Y-208244906D01*
X129315465Y-208475787D01*
X129296835Y-208712500D01*
X125823165Y-208712500D01*
X125804535Y-208475789D01*
X125749105Y-208244906D01*
X125658240Y-208025537D01*
X125534176Y-207823084D01*
X125379969Y-207642531D01*
X125199416Y-207488324D01*
X124996963Y-207364260D01*
X124887278Y-207318827D01*
X124777593Y-207273394D01*
X124546712Y-207217965D01*
X124310000Y-207199335D01*
X124073287Y-207217965D01*
X123842406Y-207273394D01*
X123623035Y-207364261D01*
X123420585Y-207488323D01*
X123240031Y-207642531D01*
X123085823Y-207823085D01*
X122961761Y-208025535D01*
X122870894Y-208244906D01*
X122815465Y-208475787D01*
X122796835Y-208712500D01*
X105573165Y-208712500D01*
X105554535Y-208475789D01*
X105499105Y-208244906D01*
X105408240Y-208025537D01*
X105284176Y-207823084D01*
X105129969Y-207642531D01*
X104949416Y-207488324D01*
X104746963Y-207364260D01*
X104637278Y-207318827D01*
X104527593Y-207273394D01*
X104296712Y-207217965D01*
X104060000Y-207199335D01*
X103823287Y-207217965D01*
X103592406Y-207273394D01*
X103373035Y-207364261D01*
X103170585Y-207488323D01*
X102990031Y-207642531D01*
X102835823Y-207823085D01*
X102711761Y-208025535D01*
X102620894Y-208244906D01*
X102565465Y-208475787D01*
X102546835Y-208712500D01*
X99073165Y-208712500D01*
X99054535Y-208475789D01*
X98999105Y-208244906D01*
X98908240Y-208025537D01*
X98784176Y-207823084D01*
X98629969Y-207642531D01*
X98449416Y-207488324D01*
X98246963Y-207364260D01*
X98137278Y-207318827D01*
X98027593Y-207273394D01*
X97796712Y-207217965D01*
X97560000Y-207199335D01*
X97323287Y-207217965D01*
X97092406Y-207273394D01*
X96873035Y-207364261D01*
X96670585Y-207488323D01*
X96490031Y-207642531D01*
X96335823Y-207823085D01*
X96211761Y-208025535D01*
X96120894Y-208244906D01*
X96065465Y-208475787D01*
X96046835Y-208712500D01*
X91635500Y-208712500D01*
X91635500Y-186487500D01*
X109434335Y-186487500D01*
X109452965Y-186724212D01*
X109508394Y-186955093D01*
X109553827Y-187064778D01*
X109599260Y-187174463D01*
X109723324Y-187376916D01*
X109877531Y-187557469D01*
X110058084Y-187711676D01*
X110260537Y-187835740D01*
X110479906Y-187926605D01*
X110710789Y-187982035D01*
X110947500Y-188000665D01*
X111184211Y-187982035D01*
X111415094Y-187926605D01*
X111634463Y-187835740D01*
X111836916Y-187711676D01*
X112017469Y-187557469D01*
X112171676Y-187376916D01*
X112295740Y-187174463D01*
X112386605Y-186955094D01*
X112442035Y-186724211D01*
X112460665Y-186487500D01*
X115934335Y-186487500D01*
X115952965Y-186724212D01*
X116008394Y-186955093D01*
X116053827Y-187064778D01*
X116099260Y-187174463D01*
X116223324Y-187376916D01*
X116377531Y-187557469D01*
X116558084Y-187711676D01*
X116760537Y-187835740D01*
X116979906Y-187926605D01*
X117210789Y-187982035D01*
X117447500Y-188000665D01*
X117684211Y-187982035D01*
X117915094Y-187926605D01*
X118134463Y-187835740D01*
X118336916Y-187711676D01*
X118517469Y-187557469D01*
X118671676Y-187376916D01*
X118795740Y-187174463D01*
X118886605Y-186955094D01*
X118942035Y-186724211D01*
X118960665Y-186487500D01*
X118942035Y-186250789D01*
X118886605Y-186019906D01*
X118795740Y-185800537D01*
X118671676Y-185598084D01*
X118517469Y-185417531D01*
X118336916Y-185263324D01*
X118134463Y-185139260D01*
X118024778Y-185093827D01*
X117915093Y-185048394D01*
X117684212Y-184992965D01*
X117447500Y-184974335D01*
X117210787Y-184992965D01*
X116979906Y-185048394D01*
X116760535Y-185139261D01*
X116558085Y-185263323D01*
X116377531Y-185417531D01*
X116223323Y-185598085D01*
X116099261Y-185800535D01*
X116008394Y-186019906D01*
X115952965Y-186250787D01*
X115934335Y-186487500D01*
X112460665Y-186487500D01*
X112442035Y-186250789D01*
X112386605Y-186019906D01*
X112295740Y-185800537D01*
X112171676Y-185598084D01*
X112017469Y-185417531D01*
X111836916Y-185263324D01*
X111634463Y-185139260D01*
X111524778Y-185093827D01*
X111415093Y-185048394D01*
X111184212Y-184992965D01*
X110947500Y-184974335D01*
X110710787Y-184992965D01*
X110479906Y-185048394D01*
X110260535Y-185139261D01*
X110058085Y-185263323D01*
X109877531Y-185417531D01*
X109723323Y-185598085D01*
X109599261Y-185800535D01*
X109508394Y-186019906D01*
X109452965Y-186250787D01*
X109434335Y-186487500D01*
X91635500Y-186487500D01*
X91635500Y-181987500D01*
X109434335Y-181987500D01*
X109452965Y-182224212D01*
X109508394Y-182455093D01*
X109553827Y-182564778D01*
X109599260Y-182674463D01*
X109723324Y-182876916D01*
X109877531Y-183057469D01*
X110058084Y-183211676D01*
X110260537Y-183335740D01*
X110479906Y-183426605D01*
X110710789Y-183482035D01*
X110947500Y-183500665D01*
X111184211Y-183482035D01*
X111415094Y-183426605D01*
X111634463Y-183335740D01*
X111836916Y-183211676D01*
X112017469Y-183057469D01*
X112171676Y-182876916D01*
X112295740Y-182674463D01*
X112386605Y-182455094D01*
X112442035Y-182224211D01*
X112460665Y-181987500D01*
X115934335Y-181987500D01*
X115952965Y-182224212D01*
X116008394Y-182455093D01*
X116053827Y-182564778D01*
X116099260Y-182674463D01*
X116223324Y-182876916D01*
X116377531Y-183057469D01*
X116558084Y-183211676D01*
X116760537Y-183335740D01*
X116979906Y-183426605D01*
X117210789Y-183482035D01*
X117447500Y-183500665D01*
X117684211Y-183482035D01*
X117915094Y-183426605D01*
X118134463Y-183335740D01*
X118336916Y-183211676D01*
X118517469Y-183057469D01*
X118671676Y-182876916D01*
X118795740Y-182674463D01*
X118886605Y-182455094D01*
X118942035Y-182224211D01*
X118960665Y-181987500D01*
X118942035Y-181750789D01*
X118886605Y-181519906D01*
X118795740Y-181300537D01*
X118671676Y-181098084D01*
X118517469Y-180917531D01*
X118336916Y-180763324D01*
X118134463Y-180639260D01*
X118024778Y-180593827D01*
X117915093Y-180548394D01*
X117684212Y-180492965D01*
X117447500Y-180474335D01*
X117210787Y-180492965D01*
X116979906Y-180548394D01*
X116760535Y-180639261D01*
X116558085Y-180763323D01*
X116377531Y-180917531D01*
X116223323Y-181098085D01*
X116099261Y-181300535D01*
X116008394Y-181519906D01*
X115952965Y-181750787D01*
X115934335Y-181987500D01*
X112460665Y-181987500D01*
X112442035Y-181750789D01*
X112386605Y-181519906D01*
X112295740Y-181300537D01*
X112171676Y-181098084D01*
X112017469Y-180917531D01*
X111836916Y-180763324D01*
X111634463Y-180639260D01*
X111524778Y-180593827D01*
X111415093Y-180548394D01*
X111184212Y-180492965D01*
X110947500Y-180474335D01*
X110710787Y-180492965D01*
X110479906Y-180548394D01*
X110260535Y-180639261D01*
X110058085Y-180763323D01*
X109877531Y-180917531D01*
X109723323Y-181098085D01*
X109599261Y-181300535D01*
X109508394Y-181519906D01*
X109452965Y-181750787D01*
X109434335Y-181987500D01*
X91635500Y-181987500D01*
X91635500Y-173125000D01*
X96046835Y-173125000D01*
X96065465Y-173361712D01*
X96120894Y-173592593D01*
X96166327Y-173702278D01*
X96211760Y-173811963D01*
X96335824Y-174014416D01*
X96490031Y-174194969D01*
X96670584Y-174349176D01*
X96873037Y-174473240D01*
X97092406Y-174564105D01*
X97323289Y-174619535D01*
X97560000Y-174638165D01*
X97796711Y-174619535D01*
X98027594Y-174564105D01*
X98246963Y-174473240D01*
X98449416Y-174349176D01*
X98629969Y-174194969D01*
X98784176Y-174014416D01*
X98908240Y-173811963D01*
X98999105Y-173592594D01*
X99054535Y-173361711D01*
X99073165Y-173125000D01*
X102546835Y-173125000D01*
X102565465Y-173361712D01*
X102620894Y-173592593D01*
X102666327Y-173702278D01*
X102711760Y-173811963D01*
X102835824Y-174014416D01*
X102990031Y-174194969D01*
X103170584Y-174349176D01*
X103373037Y-174473240D01*
X103592406Y-174564105D01*
X103823289Y-174619535D01*
X104060000Y-174638165D01*
X104296711Y-174619535D01*
X104527594Y-174564105D01*
X104746963Y-174473240D01*
X104949416Y-174349176D01*
X105129969Y-174194969D01*
X105284176Y-174014416D01*
X105408240Y-173811963D01*
X105499105Y-173592594D01*
X105554535Y-173361711D01*
X105573165Y-173125000D01*
X122796835Y-173125000D01*
X122815465Y-173361712D01*
X122870894Y-173592593D01*
X122916327Y-173702278D01*
X122961760Y-173811963D01*
X123085824Y-174014416D01*
X123240031Y-174194969D01*
X123420584Y-174349176D01*
X123623037Y-174473240D01*
X123842406Y-174564105D01*
X124073289Y-174619535D01*
X124310000Y-174638165D01*
X124546711Y-174619535D01*
X124777594Y-174564105D01*
X124996963Y-174473240D01*
X125199416Y-174349176D01*
X125379969Y-174194969D01*
X125534176Y-174014416D01*
X125658240Y-173811963D01*
X125749105Y-173592594D01*
X125804535Y-173361711D01*
X125823165Y-173125000D01*
X129296835Y-173125000D01*
X129315465Y-173361712D01*
X129370894Y-173592593D01*
X129416327Y-173702278D01*
X129461760Y-173811963D01*
X129585824Y-174014416D01*
X129740031Y-174194969D01*
X129920584Y-174349176D01*
X130123037Y-174473240D01*
X130342406Y-174564105D01*
X130573289Y-174619535D01*
X130810000Y-174638165D01*
X131046711Y-174619535D01*
X131277594Y-174564105D01*
X131496963Y-174473240D01*
X131699416Y-174349176D01*
X131879969Y-174194969D01*
X132034176Y-174014416D01*
X132158240Y-173811963D01*
X132249105Y-173592594D01*
X132304535Y-173361711D01*
X132323165Y-173125000D01*
X149546835Y-173125000D01*
X149565465Y-173361712D01*
X149620894Y-173592593D01*
X149666327Y-173702278D01*
X149711760Y-173811963D01*
X149835824Y-174014416D01*
X149990031Y-174194969D01*
X150170584Y-174349176D01*
X150373037Y-174473240D01*
X150592406Y-174564105D01*
X150823289Y-174619535D01*
X151060000Y-174638165D01*
X151296711Y-174619535D01*
X151527594Y-174564105D01*
X151746963Y-174473240D01*
X151949416Y-174349176D01*
X152129969Y-174194969D01*
X152284176Y-174014416D01*
X152408240Y-173811963D01*
X152499105Y-173592594D01*
X152554535Y-173361711D01*
X152573165Y-173125000D01*
X156046835Y-173125000D01*
X156065465Y-173361712D01*
X156120894Y-173592593D01*
X156166327Y-173702278D01*
X156211760Y-173811963D01*
X156335824Y-174014416D01*
X156490031Y-174194969D01*
X156670584Y-174349176D01*
X156873037Y-174473240D01*
X157092406Y-174564105D01*
X157323289Y-174619535D01*
X157560000Y-174638165D01*
X157796711Y-174619535D01*
X158027594Y-174564105D01*
X158246963Y-174473240D01*
X158449416Y-174349176D01*
X158629969Y-174194969D01*
X158784176Y-174014416D01*
X158908240Y-173811963D01*
X158999105Y-173592594D01*
X159054535Y-173361711D01*
X159073165Y-173125000D01*
X159054535Y-172888289D01*
X158999105Y-172657406D01*
X158908240Y-172438037D01*
X158784176Y-172235584D01*
X158629969Y-172055031D01*
X158449416Y-171900824D01*
X158246963Y-171776760D01*
X158137278Y-171731327D01*
X158027593Y-171685894D01*
X157796712Y-171630465D01*
X157560000Y-171611835D01*
X157323287Y-171630465D01*
X157092406Y-171685894D01*
X156873035Y-171776761D01*
X156670585Y-171900823D01*
X156490031Y-172055031D01*
X156335823Y-172235585D01*
X156211761Y-172438035D01*
X156120894Y-172657406D01*
X156065465Y-172888287D01*
X156046835Y-173125000D01*
X152573165Y-173125000D01*
X152554535Y-172888289D01*
X152499105Y-172657406D01*
X152408240Y-172438037D01*
X152284176Y-172235584D01*
X152129969Y-172055031D01*
X151949416Y-171900824D01*
X151746963Y-171776760D01*
X151637278Y-171731327D01*
X151527593Y-171685894D01*
X151296712Y-171630465D01*
X151060000Y-171611835D01*
X150823287Y-171630465D01*
X150592406Y-171685894D01*
X150373035Y-171776761D01*
X150170585Y-171900823D01*
X149990031Y-172055031D01*
X149835823Y-172235585D01*
X149711761Y-172438035D01*
X149620894Y-172657406D01*
X149565465Y-172888287D01*
X149546835Y-173125000D01*
X132323165Y-173125000D01*
X132304535Y-172888289D01*
X132249105Y-172657406D01*
X132158240Y-172438037D01*
X132034176Y-172235584D01*
X131879969Y-172055031D01*
X131699416Y-171900824D01*
X131496963Y-171776760D01*
X131387278Y-171731327D01*
X131277593Y-171685894D01*
X131046712Y-171630465D01*
X130810000Y-171611835D01*
X130573287Y-171630465D01*
X130342406Y-171685894D01*
X130123035Y-171776761D01*
X129920585Y-171900823D01*
X129740031Y-172055031D01*
X129585823Y-172235585D01*
X129461761Y-172438035D01*
X129370894Y-172657406D01*
X129315465Y-172888287D01*
X129296835Y-173125000D01*
X125823165Y-173125000D01*
X125804535Y-172888289D01*
X125749105Y-172657406D01*
X125658240Y-172438037D01*
X125534176Y-172235584D01*
X125379969Y-172055031D01*
X125199416Y-171900824D01*
X124996963Y-171776760D01*
X124887278Y-171731327D01*
X124777593Y-171685894D01*
X124546712Y-171630465D01*
X124310000Y-171611835D01*
X124073287Y-171630465D01*
X123842406Y-171685894D01*
X123623035Y-171776761D01*
X123420585Y-171900823D01*
X123240031Y-172055031D01*
X123085823Y-172235585D01*
X122961761Y-172438035D01*
X122870894Y-172657406D01*
X122815465Y-172888287D01*
X122796835Y-173125000D01*
X105573165Y-173125000D01*
X105554535Y-172888289D01*
X105499105Y-172657406D01*
X105408240Y-172438037D01*
X105284176Y-172235584D01*
X105129969Y-172055031D01*
X104949416Y-171900824D01*
X104746963Y-171776760D01*
X104637278Y-171731327D01*
X104527593Y-171685894D01*
X104296712Y-171630465D01*
X104060000Y-171611835D01*
X103823287Y-171630465D01*
X103592406Y-171685894D01*
X103373035Y-171776761D01*
X103170585Y-171900823D01*
X102990031Y-172055031D01*
X102835823Y-172235585D01*
X102711761Y-172438035D01*
X102620894Y-172657406D01*
X102565465Y-172888287D01*
X102546835Y-173125000D01*
X99073165Y-173125000D01*
X99054535Y-172888289D01*
X98999105Y-172657406D01*
X98908240Y-172438037D01*
X98784176Y-172235584D01*
X98629969Y-172055031D01*
X98449416Y-171900824D01*
X98246963Y-171776760D01*
X98137278Y-171731327D01*
X98027593Y-171685894D01*
X97796712Y-171630465D01*
X97560000Y-171611835D01*
X97323287Y-171630465D01*
X97092406Y-171685894D01*
X96873035Y-171776761D01*
X96670585Y-171900823D01*
X96490031Y-172055031D01*
X96335823Y-172235585D01*
X96211761Y-172438035D01*
X96120894Y-172657406D01*
X96065465Y-172888287D01*
X96046835Y-173125000D01*
X91635500Y-173125000D01*
X91635500Y-168625000D01*
X96046835Y-168625000D01*
X96065465Y-168861712D01*
X96120894Y-169092593D01*
X96166327Y-169202278D01*
X96211760Y-169311963D01*
X96335824Y-169514416D01*
X96490031Y-169694969D01*
X96670584Y-169849176D01*
X96873037Y-169973240D01*
X97092406Y-170064105D01*
X97323289Y-170119535D01*
X97560000Y-170138165D01*
X97796711Y-170119535D01*
X98027594Y-170064105D01*
X98246963Y-169973240D01*
X98449416Y-169849176D01*
X98629969Y-169694969D01*
X98784176Y-169514416D01*
X98908240Y-169311963D01*
X98999105Y-169092594D01*
X99054535Y-168861711D01*
X99073165Y-168625000D01*
X102546835Y-168625000D01*
X102565465Y-168861712D01*
X102620894Y-169092593D01*
X102666327Y-169202278D01*
X102711760Y-169311963D01*
X102835824Y-169514416D01*
X102990031Y-169694969D01*
X103170584Y-169849176D01*
X103373037Y-169973240D01*
X103592406Y-170064105D01*
X103823289Y-170119535D01*
X104060000Y-170138165D01*
X104296711Y-170119535D01*
X104527594Y-170064105D01*
X104746963Y-169973240D01*
X104949416Y-169849176D01*
X105129969Y-169694969D01*
X105284176Y-169514416D01*
X105408240Y-169311963D01*
X105499105Y-169092594D01*
X105554535Y-168861711D01*
X105573165Y-168625000D01*
X122796835Y-168625000D01*
X122815465Y-168861712D01*
X122870894Y-169092593D01*
X122916327Y-169202278D01*
X122961760Y-169311963D01*
X123085824Y-169514416D01*
X123240031Y-169694969D01*
X123420584Y-169849176D01*
X123623037Y-169973240D01*
X123842406Y-170064105D01*
X124073289Y-170119535D01*
X124310000Y-170138165D01*
X124546711Y-170119535D01*
X124777594Y-170064105D01*
X124996963Y-169973240D01*
X125199416Y-169849176D01*
X125379969Y-169694969D01*
X125534176Y-169514416D01*
X125658240Y-169311963D01*
X125749105Y-169092594D01*
X125804535Y-168861711D01*
X125823165Y-168625000D01*
X129296835Y-168625000D01*
X129315465Y-168861712D01*
X129370894Y-169092593D01*
X129416327Y-169202278D01*
X129461760Y-169311963D01*
X129585824Y-169514416D01*
X129740031Y-169694969D01*
X129920584Y-169849176D01*
X130123037Y-169973240D01*
X130342406Y-170064105D01*
X130573289Y-170119535D01*
X130810000Y-170138165D01*
X131046711Y-170119535D01*
X131277594Y-170064105D01*
X131496963Y-169973240D01*
X131699416Y-169849176D01*
X131879969Y-169694969D01*
X132034176Y-169514416D01*
X132158240Y-169311963D01*
X132249105Y-169092594D01*
X132304535Y-168861711D01*
X132323165Y-168625000D01*
X149546835Y-168625000D01*
X149565465Y-168861712D01*
X149620894Y-169092593D01*
X149666327Y-169202278D01*
X149711760Y-169311963D01*
X149835824Y-169514416D01*
X149990031Y-169694969D01*
X150170584Y-169849176D01*
X150373037Y-169973240D01*
X150592406Y-170064105D01*
X150823289Y-170119535D01*
X151060000Y-170138165D01*
X151296711Y-170119535D01*
X151527594Y-170064105D01*
X151746963Y-169973240D01*
X151949416Y-169849176D01*
X152129969Y-169694969D01*
X152284176Y-169514416D01*
X152408240Y-169311963D01*
X152499105Y-169092594D01*
X152554535Y-168861711D01*
X152573165Y-168625000D01*
X156046835Y-168625000D01*
X156065465Y-168861712D01*
X156120894Y-169092593D01*
X156166327Y-169202278D01*
X156211760Y-169311963D01*
X156335824Y-169514416D01*
X156490031Y-169694969D01*
X156670584Y-169849176D01*
X156873037Y-169973240D01*
X157092406Y-170064105D01*
X157323289Y-170119535D01*
X157560000Y-170138165D01*
X157796711Y-170119535D01*
X158027594Y-170064105D01*
X158246963Y-169973240D01*
X158449416Y-169849176D01*
X158629969Y-169694969D01*
X158784176Y-169514416D01*
X158908240Y-169311963D01*
X158999105Y-169092594D01*
X159054535Y-168861711D01*
X159073165Y-168625000D01*
X159054535Y-168388289D01*
X158999105Y-168157406D01*
X158908240Y-167938037D01*
X158784176Y-167735584D01*
X158629969Y-167555031D01*
X158449416Y-167400824D01*
X158246963Y-167276760D01*
X158137278Y-167231327D01*
X158027593Y-167185894D01*
X157796712Y-167130465D01*
X157678355Y-167121149D01*
X157560000Y-167111835D01*
X157559999Y-167111835D01*
X157323287Y-167130465D01*
X157092406Y-167185894D01*
X156873035Y-167276761D01*
X156670585Y-167400823D01*
X156490031Y-167555031D01*
X156335823Y-167735585D01*
X156211761Y-167938035D01*
X156120894Y-168157406D01*
X156065465Y-168388287D01*
X156046835Y-168625000D01*
X152573165Y-168625000D01*
X152554535Y-168388289D01*
X152499105Y-168157406D01*
X152408240Y-167938037D01*
X152284176Y-167735584D01*
X152129969Y-167555031D01*
X151949416Y-167400824D01*
X151746963Y-167276760D01*
X151637278Y-167231327D01*
X151527593Y-167185894D01*
X151296712Y-167130465D01*
X151178355Y-167121149D01*
X151060000Y-167111835D01*
X151059999Y-167111835D01*
X150823287Y-167130465D01*
X150592406Y-167185894D01*
X150373035Y-167276761D01*
X150170585Y-167400823D01*
X149990031Y-167555031D01*
X149835823Y-167735585D01*
X149711761Y-167938035D01*
X149620894Y-168157406D01*
X149565465Y-168388287D01*
X149546835Y-168625000D01*
X132323165Y-168625000D01*
X132304535Y-168388289D01*
X132249105Y-168157406D01*
X132158240Y-167938037D01*
X132034176Y-167735584D01*
X131879969Y-167555031D01*
X131699416Y-167400824D01*
X131496963Y-167276760D01*
X131387278Y-167231327D01*
X131277593Y-167185894D01*
X131046712Y-167130465D01*
X130928355Y-167121149D01*
X130810000Y-167111835D01*
X130809999Y-167111835D01*
X130573287Y-167130465D01*
X130342406Y-167185894D01*
X130123035Y-167276761D01*
X129920585Y-167400823D01*
X129740031Y-167555031D01*
X129585823Y-167735585D01*
X129461761Y-167938035D01*
X129370894Y-168157406D01*
X129315465Y-168388287D01*
X129296835Y-168625000D01*
X125823165Y-168625000D01*
X125804535Y-168388289D01*
X125749105Y-168157406D01*
X125658240Y-167938037D01*
X125534176Y-167735584D01*
X125379969Y-167555031D01*
X125199416Y-167400824D01*
X124996963Y-167276760D01*
X124887278Y-167231327D01*
X124777593Y-167185894D01*
X124546712Y-167130465D01*
X124428355Y-167121149D01*
X124310000Y-167111835D01*
X124309999Y-167111835D01*
X124073287Y-167130465D01*
X123842406Y-167185894D01*
X123623035Y-167276761D01*
X123420585Y-167400823D01*
X123240031Y-167555031D01*
X123085823Y-167735585D01*
X122961761Y-167938035D01*
X122870894Y-168157406D01*
X122815465Y-168388287D01*
X122796835Y-168625000D01*
X105573165Y-168625000D01*
X105554535Y-168388289D01*
X105499105Y-168157406D01*
X105408240Y-167938037D01*
X105284176Y-167735584D01*
X105129969Y-167555031D01*
X104949416Y-167400824D01*
X104746963Y-167276760D01*
X104637278Y-167231327D01*
X104527593Y-167185894D01*
X104296712Y-167130465D01*
X104178355Y-167121149D01*
X104060000Y-167111835D01*
X104059999Y-167111835D01*
X103823287Y-167130465D01*
X103592406Y-167185894D01*
X103373035Y-167276761D01*
X103170585Y-167400823D01*
X102990031Y-167555031D01*
X102835823Y-167735585D01*
X102711761Y-167938035D01*
X102620894Y-168157406D01*
X102565465Y-168388287D01*
X102546835Y-168625000D01*
X99073165Y-168625000D01*
X99054535Y-168388289D01*
X98999105Y-168157406D01*
X98908240Y-167938037D01*
X98784176Y-167735584D01*
X98629969Y-167555031D01*
X98449416Y-167400824D01*
X98246963Y-167276760D01*
X98137278Y-167231327D01*
X98027593Y-167185894D01*
X97796712Y-167130465D01*
X97678355Y-167121149D01*
X97560000Y-167111835D01*
X97559999Y-167111835D01*
X97323287Y-167130465D01*
X97092406Y-167185894D01*
X96873035Y-167276761D01*
X96670585Y-167400823D01*
X96490031Y-167555031D01*
X96335823Y-167735585D01*
X96211761Y-167938035D01*
X96120894Y-168157406D01*
X96065465Y-168388287D01*
X96046835Y-168625000D01*
X91635500Y-168625000D01*
X91635500Y-159762500D01*
X109386835Y-159762500D01*
X109405465Y-159999212D01*
X109460894Y-160230093D01*
X109506327Y-160339778D01*
X109551760Y-160449463D01*
X109675824Y-160651916D01*
X109830031Y-160832469D01*
X110010584Y-160986676D01*
X110213037Y-161110740D01*
X110432406Y-161201605D01*
X110663289Y-161257035D01*
X110900000Y-161275665D01*
X111136711Y-161257035D01*
X111367594Y-161201605D01*
X111586963Y-161110740D01*
X111789416Y-160986676D01*
X111969969Y-160832469D01*
X112124176Y-160651916D01*
X112248240Y-160449463D01*
X112339105Y-160230094D01*
X112394535Y-159999211D01*
X112413165Y-159762500D01*
X115886835Y-159762500D01*
X115905465Y-159999212D01*
X115960894Y-160230093D01*
X116006327Y-160339778D01*
X116051760Y-160449463D01*
X116175824Y-160651916D01*
X116330031Y-160832469D01*
X116510584Y-160986676D01*
X116713037Y-161110740D01*
X116932406Y-161201605D01*
X117163289Y-161257035D01*
X117400000Y-161275665D01*
X117636711Y-161257035D01*
X117867594Y-161201605D01*
X118086963Y-161110740D01*
X118289416Y-160986676D01*
X118469969Y-160832469D01*
X118624176Y-160651916D01*
X118748240Y-160449463D01*
X118839105Y-160230094D01*
X118894535Y-159999211D01*
X118913165Y-159762500D01*
X149546835Y-159762500D01*
X149565465Y-159999212D01*
X149620894Y-160230093D01*
X149666327Y-160339778D01*
X149711760Y-160449463D01*
X149835824Y-160651916D01*
X149990031Y-160832469D01*
X150170584Y-160986676D01*
X150373037Y-161110740D01*
X150592406Y-161201605D01*
X150823289Y-161257035D01*
X151060000Y-161275665D01*
X151296711Y-161257035D01*
X151527594Y-161201605D01*
X151746963Y-161110740D01*
X151949416Y-160986676D01*
X152129969Y-160832469D01*
X152284176Y-160651916D01*
X152408240Y-160449463D01*
X152499105Y-160230094D01*
X152554535Y-159999211D01*
X152573165Y-159762500D01*
X156046835Y-159762500D01*
X156065465Y-159999212D01*
X156120894Y-160230093D01*
X156166327Y-160339778D01*
X156211760Y-160449463D01*
X156335824Y-160651916D01*
X156490031Y-160832469D01*
X156670584Y-160986676D01*
X156873037Y-161110740D01*
X157092406Y-161201605D01*
X157323289Y-161257035D01*
X157560000Y-161275665D01*
X157796711Y-161257035D01*
X158027594Y-161201605D01*
X158246963Y-161110740D01*
X158449416Y-160986676D01*
X158629969Y-160832469D01*
X158784176Y-160651916D01*
X158908240Y-160449463D01*
X158999105Y-160230094D01*
X159054535Y-159999211D01*
X159073165Y-159762500D01*
X159054535Y-159525789D01*
X158999105Y-159294906D01*
X158908240Y-159075537D01*
X158784176Y-158873084D01*
X158629969Y-158692531D01*
X158449416Y-158538324D01*
X158246963Y-158414260D01*
X158137278Y-158368827D01*
X158027593Y-158323394D01*
X157796712Y-158267965D01*
X157560000Y-158249335D01*
X157323287Y-158267965D01*
X157092406Y-158323394D01*
X156873035Y-158414261D01*
X156670585Y-158538323D01*
X156490031Y-158692531D01*
X156335823Y-158873085D01*
X156211761Y-159075535D01*
X156120894Y-159294906D01*
X156065465Y-159525787D01*
X156046835Y-159762500D01*
X152573165Y-159762500D01*
X152554535Y-159525789D01*
X152499105Y-159294906D01*
X152408240Y-159075537D01*
X152284176Y-158873084D01*
X152129969Y-158692531D01*
X151949416Y-158538324D01*
X151746963Y-158414260D01*
X151637278Y-158368827D01*
X151527593Y-158323394D01*
X151296712Y-158267965D01*
X151060000Y-158249335D01*
X150823287Y-158267965D01*
X150592406Y-158323394D01*
X150373035Y-158414261D01*
X150170585Y-158538323D01*
X149990031Y-158692531D01*
X149835823Y-158873085D01*
X149711761Y-159075535D01*
X149620894Y-159294906D01*
X149565465Y-159525787D01*
X149546835Y-159762500D01*
X118913165Y-159762500D01*
X118894535Y-159525789D01*
X118839105Y-159294906D01*
X118748240Y-159075537D01*
X118624176Y-158873084D01*
X118469969Y-158692531D01*
X118289416Y-158538324D01*
X118086963Y-158414260D01*
X117977278Y-158368827D01*
X117867593Y-158323394D01*
X117636712Y-158267965D01*
X117400000Y-158249335D01*
X117163287Y-158267965D01*
X116932406Y-158323394D01*
X116713035Y-158414261D01*
X116510585Y-158538323D01*
X116330031Y-158692531D01*
X116175823Y-158873085D01*
X116051761Y-159075535D01*
X115960894Y-159294906D01*
X115905465Y-159525787D01*
X115886835Y-159762500D01*
X112413165Y-159762500D01*
X112394535Y-159525789D01*
X112339105Y-159294906D01*
X112248240Y-159075537D01*
X112124176Y-158873084D01*
X111969969Y-158692531D01*
X111789416Y-158538324D01*
X111586963Y-158414260D01*
X111477278Y-158368827D01*
X111367593Y-158323394D01*
X111136712Y-158267965D01*
X110900000Y-158249335D01*
X110663287Y-158267965D01*
X110432406Y-158323394D01*
X110213035Y-158414261D01*
X110010585Y-158538323D01*
X109830031Y-158692531D01*
X109675823Y-158873085D01*
X109551761Y-159075535D01*
X109460894Y-159294906D01*
X109405465Y-159525787D01*
X109386835Y-159762500D01*
X91635500Y-159762500D01*
X91635500Y-155262499D01*
X109386835Y-155262499D01*
X109405465Y-155499212D01*
X109460894Y-155730093D01*
X109506327Y-155839778D01*
X109551760Y-155949463D01*
X109675824Y-156151916D01*
X109830031Y-156332469D01*
X110010584Y-156486676D01*
X110213037Y-156610740D01*
X110432406Y-156701605D01*
X110663289Y-156757035D01*
X110900000Y-156775665D01*
X111136711Y-156757035D01*
X111367594Y-156701605D01*
X111586963Y-156610740D01*
X111789416Y-156486676D01*
X111969969Y-156332469D01*
X112124176Y-156151916D01*
X112248240Y-155949463D01*
X112339105Y-155730094D01*
X112394535Y-155499211D01*
X112413165Y-155262500D01*
X112413165Y-155262499D01*
X115886835Y-155262499D01*
X115905465Y-155499212D01*
X115960894Y-155730093D01*
X116006327Y-155839778D01*
X116051760Y-155949463D01*
X116175824Y-156151916D01*
X116330031Y-156332469D01*
X116510584Y-156486676D01*
X116713037Y-156610740D01*
X116932406Y-156701605D01*
X117163289Y-156757035D01*
X117400000Y-156775665D01*
X117636711Y-156757035D01*
X117867594Y-156701605D01*
X118086963Y-156610740D01*
X118289416Y-156486676D01*
X118469969Y-156332469D01*
X118624176Y-156151916D01*
X118748240Y-155949463D01*
X118839105Y-155730094D01*
X118894535Y-155499211D01*
X118913165Y-155262500D01*
X118913165Y-155262499D01*
X149546835Y-155262499D01*
X149565465Y-155499212D01*
X149620894Y-155730093D01*
X149666327Y-155839778D01*
X149711760Y-155949463D01*
X149835824Y-156151916D01*
X149990031Y-156332469D01*
X150170584Y-156486676D01*
X150373037Y-156610740D01*
X150592406Y-156701605D01*
X150823289Y-156757035D01*
X151060000Y-156775665D01*
X151296711Y-156757035D01*
X151527594Y-156701605D01*
X151746963Y-156610740D01*
X151949416Y-156486676D01*
X152129969Y-156332469D01*
X152284176Y-156151916D01*
X152408240Y-155949463D01*
X152499105Y-155730094D01*
X152554535Y-155499211D01*
X152573165Y-155262500D01*
X152573165Y-155262499D01*
X156046835Y-155262499D01*
X156065465Y-155499212D01*
X156120894Y-155730093D01*
X156166327Y-155839778D01*
X156211760Y-155949463D01*
X156335824Y-156151916D01*
X156490031Y-156332469D01*
X156670584Y-156486676D01*
X156873037Y-156610740D01*
X157092406Y-156701605D01*
X157323289Y-156757035D01*
X157560000Y-156775665D01*
X157796711Y-156757035D01*
X158027594Y-156701605D01*
X158246963Y-156610740D01*
X158449416Y-156486676D01*
X158629969Y-156332469D01*
X158784176Y-156151916D01*
X158908240Y-155949463D01*
X158999105Y-155730094D01*
X159054535Y-155499211D01*
X159073165Y-155262500D01*
X159054535Y-155025789D01*
X158999105Y-154794906D01*
X158908240Y-154575537D01*
X158784176Y-154373084D01*
X158629969Y-154192531D01*
X158449416Y-154038324D01*
X158246963Y-153914260D01*
X158137278Y-153868827D01*
X158027593Y-153823394D01*
X157796712Y-153767965D01*
X157560000Y-153749335D01*
X157323287Y-153767965D01*
X157092406Y-153823394D01*
X156873035Y-153914261D01*
X156670585Y-154038323D01*
X156490031Y-154192531D01*
X156335823Y-154373085D01*
X156211761Y-154575535D01*
X156120894Y-154794906D01*
X156065465Y-155025787D01*
X156046835Y-155262499D01*
X152573165Y-155262499D01*
X152554535Y-155025789D01*
X152499105Y-154794906D01*
X152408240Y-154575537D01*
X152284176Y-154373084D01*
X152129969Y-154192531D01*
X151949416Y-154038324D01*
X151746963Y-153914260D01*
X151637278Y-153868827D01*
X151527593Y-153823394D01*
X151296712Y-153767965D01*
X151060000Y-153749335D01*
X150823287Y-153767965D01*
X150592406Y-153823394D01*
X150373035Y-153914261D01*
X150170585Y-154038323D01*
X149990031Y-154192531D01*
X149835823Y-154373085D01*
X149711761Y-154575535D01*
X149620894Y-154794906D01*
X149565465Y-155025787D01*
X149546835Y-155262499D01*
X118913165Y-155262499D01*
X118894535Y-155025789D01*
X118839105Y-154794906D01*
X118748240Y-154575537D01*
X118624176Y-154373084D01*
X118469969Y-154192531D01*
X118289416Y-154038324D01*
X118086963Y-153914260D01*
X117977278Y-153868827D01*
X117867593Y-153823394D01*
X117636712Y-153767965D01*
X117400000Y-153749335D01*
X117163287Y-153767965D01*
X116932406Y-153823394D01*
X116713035Y-153914261D01*
X116510585Y-154038323D01*
X116330031Y-154192531D01*
X116175823Y-154373085D01*
X116051761Y-154575535D01*
X115960894Y-154794906D01*
X115905465Y-155025787D01*
X115886835Y-155262499D01*
X112413165Y-155262499D01*
X112394535Y-155025789D01*
X112339105Y-154794906D01*
X112248240Y-154575537D01*
X112124176Y-154373084D01*
X111969969Y-154192531D01*
X111789416Y-154038324D01*
X111586963Y-153914260D01*
X111477278Y-153868827D01*
X111367593Y-153823394D01*
X111136712Y-153767965D01*
X110900000Y-153749335D01*
X110663287Y-153767965D01*
X110432406Y-153823394D01*
X110213035Y-153914261D01*
X110010585Y-154038323D01*
X109830031Y-154192531D01*
X109675823Y-154373085D01*
X109551761Y-154575535D01*
X109460894Y-154794906D01*
X109405465Y-155025787D01*
X109386835Y-155262499D01*
X91635500Y-155262499D01*
X91635500Y-144124999D01*
X141296835Y-144124999D01*
X141315465Y-144361712D01*
X141370894Y-144592593D01*
X141400615Y-144664345D01*
X141461760Y-144811963D01*
X141585824Y-145014416D01*
X141740031Y-145194969D01*
X141920584Y-145349176D01*
X142123037Y-145473240D01*
X142342406Y-145564105D01*
X142573289Y-145619535D01*
X142810000Y-145638165D01*
X143046711Y-145619535D01*
X143277594Y-145564105D01*
X143496963Y-145473240D01*
X143699416Y-145349176D01*
X143879969Y-145194969D01*
X144034176Y-145014416D01*
X144158240Y-144811963D01*
X144249105Y-144592594D01*
X144304535Y-144361711D01*
X144323165Y-144125000D01*
X144323165Y-144124999D01*
X147796835Y-144124999D01*
X147815465Y-144361712D01*
X147870894Y-144592593D01*
X147900615Y-144664345D01*
X147961760Y-144811963D01*
X148085824Y-145014416D01*
X148240031Y-145194969D01*
X148420584Y-145349176D01*
X148623037Y-145473240D01*
X148842406Y-145564105D01*
X149073289Y-145619535D01*
X149310000Y-145638165D01*
X149546711Y-145619535D01*
X149777594Y-145564105D01*
X149996963Y-145473240D01*
X150199416Y-145349176D01*
X150379969Y-145194969D01*
X150534176Y-145014416D01*
X150619611Y-144875000D01*
X155846883Y-144875000D01*
X155865313Y-145085652D01*
X155894604Y-145194969D01*
X155920044Y-145289910D01*
X156009411Y-145481558D01*
X156130699Y-145654776D01*
X156280224Y-145804301D01*
X156453442Y-145925589D01*
X156645090Y-146014956D01*
X156849345Y-146069686D01*
X157060000Y-146088116D01*
X157270655Y-146069686D01*
X157474910Y-146014956D01*
X157666558Y-145925589D01*
X157839776Y-145804301D01*
X157989301Y-145654776D01*
X158110589Y-145481558D01*
X158199956Y-145289910D01*
X158254686Y-145085655D01*
X158273116Y-144875000D01*
X159146883Y-144875000D01*
X159165313Y-145085652D01*
X159194604Y-145194969D01*
X159220044Y-145289910D01*
X159309411Y-145481558D01*
X159430699Y-145654776D01*
X159580224Y-145804301D01*
X159753442Y-145925589D01*
X159945090Y-146014956D01*
X160149345Y-146069686D01*
X160360000Y-146088116D01*
X160570655Y-146069686D01*
X160774910Y-146014956D01*
X160966558Y-145925589D01*
X161139776Y-145804301D01*
X161289301Y-145654776D01*
X161410589Y-145481558D01*
X161499956Y-145289910D01*
X161554686Y-145085655D01*
X161573116Y-144875000D01*
X161554686Y-144664345D01*
X161499956Y-144460090D01*
X161410589Y-144268442D01*
X161289301Y-144095224D01*
X161139776Y-143945699D01*
X160966558Y-143824411D01*
X160779924Y-143737382D01*
X160727748Y-143691625D01*
X160708329Y-143625000D01*
X160727748Y-143558375D01*
X160779924Y-143512618D01*
X160791876Y-143507044D01*
X160966558Y-143425589D01*
X161139776Y-143304301D01*
X161289301Y-143154776D01*
X161410589Y-142981558D01*
X161499956Y-142789910D01*
X161554686Y-142585655D01*
X161573116Y-142375000D01*
X161554686Y-142164345D01*
X161499956Y-141960090D01*
X161410589Y-141768442D01*
X161289301Y-141595224D01*
X161139776Y-141445699D01*
X160966558Y-141324411D01*
X160956844Y-141319881D01*
X160906449Y-141276840D01*
X160885420Y-141213990D01*
X160899765Y-141149285D01*
X160945385Y-141101211D01*
X161009250Y-141083500D01*
X161108634Y-141083500D01*
X161108638Y-141083500D01*
X161169201Y-141076989D01*
X161169203Y-141076988D01*
X161169205Y-141076988D01*
X161247124Y-141047924D01*
X161306204Y-141025889D01*
X161423261Y-140938261D01*
X161510889Y-140821204D01*
X161561989Y-140684201D01*
X161568500Y-140623638D01*
X161568500Y-139126362D01*
X161561989Y-139065799D01*
X161561988Y-139065797D01*
X161561988Y-139065794D01*
X161510889Y-138928796D01*
X161423261Y-138811738D01*
X161306203Y-138724110D01*
X161169205Y-138673011D01*
X161138919Y-138669755D01*
X161108638Y-138666500D01*
X159611362Y-138666500D01*
X159584445Y-138669393D01*
X159550794Y-138673011D01*
X159413796Y-138724110D01*
X159296738Y-138811738D01*
X159209110Y-138928796D01*
X159158011Y-139065794D01*
X159151500Y-139126366D01*
X159151500Y-140623634D01*
X159158011Y-140684205D01*
X159209110Y-140821203D01*
X159296738Y-140938261D01*
X159413796Y-141025889D01*
X159550794Y-141076988D01*
X159550797Y-141076988D01*
X159550799Y-141076989D01*
X159611362Y-141083500D01*
X159611366Y-141083500D01*
X159710750Y-141083500D01*
X159774615Y-141101211D01*
X159820235Y-141149285D01*
X159834580Y-141213990D01*
X159813551Y-141276840D01*
X159763155Y-141319881D01*
X159759766Y-141321461D01*
X159753441Y-141324411D01*
X159580223Y-141445699D01*
X159430699Y-141595223D01*
X159309411Y-141768441D01*
X159220044Y-141960088D01*
X159165313Y-142164347D01*
X159146883Y-142375000D01*
X159165313Y-142585652D01*
X159220044Y-142789911D01*
X159271764Y-142900824D01*
X159309411Y-142981558D01*
X159430699Y-143154776D01*
X159580224Y-143304301D01*
X159753442Y-143425589D01*
X159846666Y-143469060D01*
X159940075Y-143512618D01*
X159992251Y-143558375D01*
X160011670Y-143625000D01*
X159992251Y-143691625D01*
X159940075Y-143737382D01*
X159753441Y-143824411D01*
X159580223Y-143945699D01*
X159430699Y-144095223D01*
X159309411Y-144268441D01*
X159220044Y-144460088D01*
X159165313Y-144664347D01*
X159146883Y-144875000D01*
X158273116Y-144875000D01*
X158254686Y-144664345D01*
X158199956Y-144460090D01*
X158110589Y-144268442D01*
X157989301Y-144095224D01*
X157839776Y-143945699D01*
X157666558Y-143824411D01*
X157479924Y-143737382D01*
X157427748Y-143691625D01*
X157408329Y-143625000D01*
X157427748Y-143558375D01*
X157479924Y-143512618D01*
X157491876Y-143507044D01*
X157666558Y-143425589D01*
X157839776Y-143304301D01*
X157989301Y-143154776D01*
X158110589Y-142981558D01*
X158199956Y-142789910D01*
X158254686Y-142585655D01*
X158273116Y-142375000D01*
X158254686Y-142164345D01*
X158199956Y-141960090D01*
X158110589Y-141768442D01*
X157989301Y-141595224D01*
X157839776Y-141445699D01*
X157666558Y-141324411D01*
X157479924Y-141237382D01*
X157427748Y-141191625D01*
X157408329Y-141125000D01*
X157427748Y-141058375D01*
X157479924Y-141012618D01*
X157491876Y-141007044D01*
X157666558Y-140925589D01*
X157839776Y-140804301D01*
X157989301Y-140654776D01*
X158110589Y-140481558D01*
X158199956Y-140289910D01*
X158254686Y-140085655D01*
X158273116Y-139875000D01*
X158254686Y-139664345D01*
X158199956Y-139460090D01*
X158110589Y-139268442D01*
X157989301Y-139095224D01*
X157839776Y-138945699D01*
X157666558Y-138824411D01*
X157618963Y-138802217D01*
X157474911Y-138735044D01*
X157270652Y-138680313D01*
X157060000Y-138661883D01*
X156849347Y-138680313D01*
X156645088Y-138735044D01*
X156453441Y-138824411D01*
X156280223Y-138945699D01*
X156130699Y-139095223D01*
X156009411Y-139268441D01*
X155920044Y-139460088D01*
X155865313Y-139664347D01*
X155846883Y-139875000D01*
X155865313Y-140085652D01*
X155865314Y-140085655D01*
X155920044Y-140289910D01*
X156009411Y-140481558D01*
X156130699Y-140654776D01*
X156280224Y-140804301D01*
X156453442Y-140925589D01*
X156546666Y-140969060D01*
X156640075Y-141012618D01*
X156692251Y-141058375D01*
X156711670Y-141125000D01*
X156692251Y-141191625D01*
X156640075Y-141237382D01*
X156453441Y-141324411D01*
X156280223Y-141445699D01*
X156130699Y-141595223D01*
X156009411Y-141768441D01*
X155920044Y-141960088D01*
X155865313Y-142164347D01*
X155846883Y-142375000D01*
X155865313Y-142585652D01*
X155920044Y-142789911D01*
X155971764Y-142900824D01*
X156009411Y-142981558D01*
X156130699Y-143154776D01*
X156280224Y-143304301D01*
X156453442Y-143425589D01*
X156546666Y-143469060D01*
X156640075Y-143512618D01*
X156692251Y-143558375D01*
X156711670Y-143625000D01*
X156692251Y-143691625D01*
X156640075Y-143737382D01*
X156453441Y-143824411D01*
X156280223Y-143945699D01*
X156130699Y-144095223D01*
X156009411Y-144268441D01*
X155920044Y-144460088D01*
X155865313Y-144664347D01*
X155846883Y-144875000D01*
X150619611Y-144875000D01*
X150658240Y-144811963D01*
X150749105Y-144592594D01*
X150804535Y-144361711D01*
X150823165Y-144125000D01*
X150804535Y-143888289D01*
X150749105Y-143657406D01*
X150658240Y-143438037D01*
X150534176Y-143235584D01*
X150379969Y-143055031D01*
X150199416Y-142900824D01*
X149996963Y-142776760D01*
X149887278Y-142731327D01*
X149777593Y-142685894D01*
X149546712Y-142630465D01*
X149428355Y-142621149D01*
X149310000Y-142611835D01*
X149309999Y-142611835D01*
X149073287Y-142630465D01*
X148842406Y-142685894D01*
X148623035Y-142776761D01*
X148420585Y-142900823D01*
X148240031Y-143055031D01*
X148085823Y-143235585D01*
X147961761Y-143438035D01*
X147870894Y-143657406D01*
X147815465Y-143888287D01*
X147796835Y-144124999D01*
X144323165Y-144124999D01*
X144304535Y-143888289D01*
X144249105Y-143657406D01*
X144158240Y-143438037D01*
X144034176Y-143235584D01*
X143879969Y-143055031D01*
X143699416Y-142900824D01*
X143496963Y-142776760D01*
X143387278Y-142731327D01*
X143277593Y-142685894D01*
X143046712Y-142630465D01*
X142928355Y-142621149D01*
X142810000Y-142611835D01*
X142809999Y-142611835D01*
X142573287Y-142630465D01*
X142342406Y-142685894D01*
X142123035Y-142776761D01*
X141920585Y-142900823D01*
X141740031Y-143055031D01*
X141585823Y-143235585D01*
X141461761Y-143438035D01*
X141370894Y-143657406D01*
X141315465Y-143888287D01*
X141296835Y-144124999D01*
X91635500Y-144124999D01*
X91635500Y-139624999D01*
X141296835Y-139624999D01*
X141315465Y-139861712D01*
X141370894Y-140092593D01*
X141416327Y-140202278D01*
X141461760Y-140311963D01*
X141585824Y-140514416D01*
X141740031Y-140694969D01*
X141920584Y-140849176D01*
X142123037Y-140973240D01*
X142342406Y-141064105D01*
X142573289Y-141119535D01*
X142810000Y-141138165D01*
X143046711Y-141119535D01*
X143277594Y-141064105D01*
X143496963Y-140973240D01*
X143699416Y-140849176D01*
X143879969Y-140694969D01*
X144034176Y-140514416D01*
X144158240Y-140311963D01*
X144249105Y-140092594D01*
X144304535Y-139861711D01*
X144323165Y-139625000D01*
X144323165Y-139624999D01*
X147796835Y-139624999D01*
X147815465Y-139861712D01*
X147870894Y-140092593D01*
X147916327Y-140202278D01*
X147961760Y-140311963D01*
X148085824Y-140514416D01*
X148240031Y-140694969D01*
X148420584Y-140849176D01*
X148623037Y-140973240D01*
X148842406Y-141064105D01*
X149073289Y-141119535D01*
X149310000Y-141138165D01*
X149546711Y-141119535D01*
X149777594Y-141064105D01*
X149996963Y-140973240D01*
X150199416Y-140849176D01*
X150379969Y-140694969D01*
X150534176Y-140514416D01*
X150658240Y-140311963D01*
X150749105Y-140092594D01*
X150804535Y-139861711D01*
X150823165Y-139625000D01*
X150804535Y-139388289D01*
X150749105Y-139157406D01*
X150658240Y-138938037D01*
X150534176Y-138735584D01*
X150379969Y-138555031D01*
X150199416Y-138400824D01*
X149996963Y-138276760D01*
X149887278Y-138231327D01*
X149777593Y-138185894D01*
X149546712Y-138130465D01*
X149428355Y-138121149D01*
X149310000Y-138111835D01*
X149309999Y-138111835D01*
X149073287Y-138130465D01*
X148842406Y-138185894D01*
X148623035Y-138276761D01*
X148420585Y-138400823D01*
X148240031Y-138555031D01*
X148085823Y-138735585D01*
X147961761Y-138938035D01*
X147870894Y-139157406D01*
X147815465Y-139388287D01*
X147796835Y-139624999D01*
X144323165Y-139624999D01*
X144304535Y-139388289D01*
X144249105Y-139157406D01*
X144158240Y-138938037D01*
X144034176Y-138735584D01*
X143879969Y-138555031D01*
X143699416Y-138400824D01*
X143496963Y-138276760D01*
X143387278Y-138231327D01*
X143277593Y-138185894D01*
X143046712Y-138130465D01*
X142928355Y-138121149D01*
X142810000Y-138111835D01*
X142809999Y-138111835D01*
X142573287Y-138130465D01*
X142342406Y-138185894D01*
X142123035Y-138276761D01*
X141920585Y-138400823D01*
X141740031Y-138555031D01*
X141585823Y-138735585D01*
X141461761Y-138938035D01*
X141370894Y-139157406D01*
X141315465Y-139388287D01*
X141296835Y-139624999D01*
X91635500Y-139624999D01*
X91635500Y-138008999D01*
X114554383Y-138008999D01*
X114574782Y-138190044D01*
X114574782Y-138190046D01*
X114574783Y-138190047D01*
X114634957Y-138362015D01*
X114731889Y-138516281D01*
X114860719Y-138645111D01*
X115014985Y-138742043D01*
X115186953Y-138802217D01*
X115368000Y-138822616D01*
X115549047Y-138802217D01*
X115721015Y-138742043D01*
X115875281Y-138645111D01*
X116004111Y-138516281D01*
X116101043Y-138362015D01*
X116161217Y-138190047D01*
X116181616Y-138009000D01*
X116181616Y-138008999D01*
X116586383Y-138008999D01*
X116606782Y-138190044D01*
X116606782Y-138190046D01*
X116606783Y-138190047D01*
X116666957Y-138362015D01*
X116763889Y-138516281D01*
X116892719Y-138645111D01*
X117046985Y-138742043D01*
X117218953Y-138802217D01*
X117400000Y-138822616D01*
X117581047Y-138802217D01*
X117753015Y-138742043D01*
X117907281Y-138645111D01*
X118036111Y-138516281D01*
X118133043Y-138362015D01*
X118193217Y-138190047D01*
X118213616Y-138009000D01*
X118193217Y-137827953D01*
X118133043Y-137655985D01*
X118036111Y-137501719D01*
X117907281Y-137372889D01*
X117753015Y-137275957D01*
X117581047Y-137215783D01*
X117581046Y-137215782D01*
X117581044Y-137215782D01*
X117400000Y-137195383D01*
X117218955Y-137215782D01*
X117046984Y-137275957D01*
X116892717Y-137372890D01*
X116763890Y-137501717D01*
X116666957Y-137655984D01*
X116606782Y-137827955D01*
X116586383Y-138008999D01*
X116181616Y-138008999D01*
X116161217Y-137827953D01*
X116101043Y-137655985D01*
X116004111Y-137501719D01*
X115875281Y-137372889D01*
X115721015Y-137275957D01*
X115549047Y-137215783D01*
X115549046Y-137215782D01*
X115549044Y-137215782D01*
X115368000Y-137195383D01*
X115186955Y-137215782D01*
X115014984Y-137275957D01*
X114860717Y-137372890D01*
X114731890Y-137501717D01*
X114634957Y-137655984D01*
X114574782Y-137827955D01*
X114554383Y-138008999D01*
X91635500Y-138008999D01*
X91635500Y-135469000D01*
X124206383Y-135469000D01*
X124226782Y-135650044D01*
X124226782Y-135650046D01*
X124226783Y-135650047D01*
X124286957Y-135822015D01*
X124383889Y-135976281D01*
X124512719Y-136105111D01*
X124666985Y-136202043D01*
X124838953Y-136262217D01*
X125020000Y-136282616D01*
X125201047Y-136262217D01*
X125373015Y-136202043D01*
X125527281Y-136105111D01*
X125656111Y-135976281D01*
X125753043Y-135822015D01*
X125813217Y-135650047D01*
X125833616Y-135469000D01*
X126746383Y-135469000D01*
X126766782Y-135650044D01*
X126766782Y-135650046D01*
X126766783Y-135650047D01*
X126826957Y-135822015D01*
X126923889Y-135976281D01*
X127052719Y-136105111D01*
X127206985Y-136202043D01*
X127378953Y-136262217D01*
X127560000Y-136282616D01*
X127741047Y-136262217D01*
X127913015Y-136202043D01*
X128067281Y-136105111D01*
X128196111Y-135976281D01*
X128293043Y-135822015D01*
X128353217Y-135650047D01*
X128373616Y-135469000D01*
X134874383Y-135469000D01*
X134894782Y-135650044D01*
X134894782Y-135650046D01*
X134894783Y-135650047D01*
X134954957Y-135822015D01*
X135051889Y-135976281D01*
X135180719Y-136105111D01*
X135334985Y-136202043D01*
X135506953Y-136262217D01*
X135688000Y-136282616D01*
X135869047Y-136262217D01*
X136041015Y-136202043D01*
X136195281Y-136105111D01*
X136324111Y-135976281D01*
X136421043Y-135822015D01*
X136481217Y-135650047D01*
X136501616Y-135469000D01*
X136906383Y-135469000D01*
X136926782Y-135650044D01*
X136926782Y-135650046D01*
X136926783Y-135650047D01*
X136986957Y-135822015D01*
X137083889Y-135976281D01*
X137212719Y-136105111D01*
X137366985Y-136202043D01*
X137538953Y-136262217D01*
X137720000Y-136282616D01*
X137901047Y-136262217D01*
X138073015Y-136202043D01*
X138227281Y-136105111D01*
X138356111Y-135976281D01*
X138453043Y-135822015D01*
X138513217Y-135650047D01*
X138533616Y-135469000D01*
X138513217Y-135287953D01*
X138453043Y-135115985D01*
X138356111Y-134961719D01*
X138227281Y-134832889D01*
X138073015Y-134735957D01*
X137901047Y-134675783D01*
X137901046Y-134675782D01*
X137901044Y-134675782D01*
X137719999Y-134655383D01*
X137538955Y-134675782D01*
X137366984Y-134735957D01*
X137212717Y-134832890D01*
X137083890Y-134961717D01*
X136986957Y-135115984D01*
X136926782Y-135287955D01*
X136906383Y-135469000D01*
X136501616Y-135469000D01*
X136481217Y-135287953D01*
X136421043Y-135115985D01*
X136324111Y-134961719D01*
X136195281Y-134832889D01*
X136041015Y-134735957D01*
X135869047Y-134675783D01*
X135869046Y-134675782D01*
X135869044Y-134675782D01*
X135687999Y-134655383D01*
X135506955Y-134675782D01*
X135334984Y-134735957D01*
X135180717Y-134832890D01*
X135051890Y-134961717D01*
X134954957Y-135115984D01*
X134894782Y-135287955D01*
X134874383Y-135469000D01*
X128373616Y-135469000D01*
X128353217Y-135287953D01*
X128293043Y-135115985D01*
X128196111Y-134961719D01*
X128067281Y-134832889D01*
X127913015Y-134735957D01*
X127741047Y-134675783D01*
X127741046Y-134675782D01*
X127741044Y-134675782D01*
X127559999Y-134655383D01*
X127378955Y-134675782D01*
X127206984Y-134735957D01*
X127052717Y-134832890D01*
X126923890Y-134961717D01*
X126826957Y-135115984D01*
X126766782Y-135287955D01*
X126746383Y-135469000D01*
X125833616Y-135469000D01*
X125813217Y-135287953D01*
X125753043Y-135115985D01*
X125656111Y-134961719D01*
X125527281Y-134832889D01*
X125373015Y-134735957D01*
X125201047Y-134675783D01*
X125201046Y-134675782D01*
X125201044Y-134675782D01*
X125019999Y-134655383D01*
X124838955Y-134675782D01*
X124666984Y-134735957D01*
X124512717Y-134832890D01*
X124383890Y-134961717D01*
X124286957Y-135115984D01*
X124226782Y-135287955D01*
X124206383Y-135469000D01*
X91635500Y-135469000D01*
X91635500Y-132775000D01*
X92296539Y-132775000D01*
X92316358Y-133090015D01*
X92375505Y-133400075D01*
X92473043Y-133700265D01*
X92607436Y-133985866D01*
X92776568Y-134252375D01*
X92977769Y-134495585D01*
X93207861Y-134711656D01*
X93463220Y-134897184D01*
X93739819Y-135049246D01*
X93739821Y-135049247D01*
X94033298Y-135165443D01*
X94339025Y-135243940D01*
X94573057Y-135273504D01*
X94652177Y-135283500D01*
X94652179Y-135283500D01*
X94967821Y-135283500D01*
X94967823Y-135283500D01*
X95038068Y-135274625D01*
X95280975Y-135243940D01*
X95586702Y-135165443D01*
X95880179Y-135049247D01*
X96156779Y-134897184D01*
X96156779Y-134897183D01*
X96412138Y-134711656D01*
X96642230Y-134495585D01*
X96642230Y-134495584D01*
X96642233Y-134495582D01*
X96843432Y-134252375D01*
X97012562Y-133985869D01*
X97146956Y-133700266D01*
X97244495Y-133400072D01*
X97303641Y-133090020D01*
X97323460Y-132775000D01*
X157796539Y-132775000D01*
X157816358Y-133090015D01*
X157875505Y-133400075D01*
X157973043Y-133700265D01*
X158107436Y-133985866D01*
X158276568Y-134252375D01*
X158477769Y-134495585D01*
X158707861Y-134711656D01*
X158963220Y-134897184D01*
X159239819Y-135049246D01*
X159239821Y-135049247D01*
X159533298Y-135165443D01*
X159839025Y-135243940D01*
X160073057Y-135273504D01*
X160152177Y-135283500D01*
X160152179Y-135283500D01*
X160467821Y-135283500D01*
X160467823Y-135283500D01*
X160538068Y-135274625D01*
X160780975Y-135243940D01*
X161086702Y-135165443D01*
X161380179Y-135049247D01*
X161656779Y-134897184D01*
X161656779Y-134897183D01*
X161912138Y-134711656D01*
X162142230Y-134495585D01*
X162142230Y-134495584D01*
X162142233Y-134495582D01*
X162343432Y-134252375D01*
X162512562Y-133985869D01*
X162646956Y-133700266D01*
X162744495Y-133400072D01*
X162803641Y-133090020D01*
X162823460Y-132775000D01*
X162803641Y-132459980D01*
X162744495Y-132149928D01*
X162646956Y-131849734D01*
X162512562Y-131564131D01*
X162343432Y-131297625D01*
X162142233Y-131054418D01*
X162142230Y-131054414D01*
X161912138Y-130838343D01*
X161656779Y-130652815D01*
X161380180Y-130500753D01*
X161086699Y-130384556D01*
X160780976Y-130306060D01*
X160467823Y-130266500D01*
X160467821Y-130266500D01*
X160152179Y-130266500D01*
X160152177Y-130266500D01*
X159839023Y-130306060D01*
X159533300Y-130384556D01*
X159239819Y-130500753D01*
X158963220Y-130652815D01*
X158707861Y-130838343D01*
X158477769Y-131054414D01*
X158276568Y-131297624D01*
X158107436Y-131564133D01*
X157973043Y-131849734D01*
X157875505Y-132149924D01*
X157816358Y-132459984D01*
X157796539Y-132775000D01*
X97323460Y-132775000D01*
X97303641Y-132459980D01*
X97244495Y-132149928D01*
X97146956Y-131849734D01*
X97012562Y-131564131D01*
X96843432Y-131297625D01*
X96642233Y-131054418D01*
X96642230Y-131054414D01*
X96412138Y-130838343D01*
X96156779Y-130652815D01*
X95880180Y-130500753D01*
X95586699Y-130384556D01*
X95280976Y-130306060D01*
X94967823Y-130266500D01*
X94967821Y-130266500D01*
X94652179Y-130266500D01*
X94652177Y-130266500D01*
X94339023Y-130306060D01*
X94033300Y-130384556D01*
X93739819Y-130500753D01*
X93463220Y-130652815D01*
X93207861Y-130838343D01*
X92977769Y-131054414D01*
X92776568Y-131297624D01*
X92607436Y-131564133D01*
X92473043Y-131849734D01*
X92375505Y-132149924D01*
X92316358Y-132459984D01*
X92296539Y-132775000D01*
X91635500Y-132775000D01*
X91635500Y-128125000D01*
X93746383Y-128125000D01*
X93766782Y-128306044D01*
X93766782Y-128306046D01*
X93766783Y-128306047D01*
X93826957Y-128478015D01*
X93923889Y-128632281D01*
X94052719Y-128761111D01*
X94206985Y-128858043D01*
X94378953Y-128918217D01*
X94560000Y-128938616D01*
X94741047Y-128918217D01*
X94913015Y-128858043D01*
X95067281Y-128761111D01*
X95196111Y-128632281D01*
X95293043Y-128478015D01*
X95353217Y-128306047D01*
X95373616Y-128125000D01*
X95353217Y-127943953D01*
X95293043Y-127771985D01*
X95196111Y-127617719D01*
X95067281Y-127488889D01*
X94981516Y-127434999D01*
X158946843Y-127434999D01*
X158965435Y-127659363D01*
X158965435Y-127659366D01*
X158965436Y-127659368D01*
X158993954Y-127771984D01*
X159020705Y-127877618D01*
X159111138Y-128083788D01*
X159111140Y-128083791D01*
X159234278Y-128272268D01*
X159386760Y-128437906D01*
X159564424Y-128576189D01*
X159762426Y-128683342D01*
X159975365Y-128756444D01*
X160197431Y-128793500D01*
X160422569Y-128793500D01*
X160644635Y-128756444D01*
X160857574Y-128683342D01*
X161055576Y-128576189D01*
X161233240Y-128437906D01*
X161385722Y-128272268D01*
X161508860Y-128083791D01*
X161599296Y-127877616D01*
X161654564Y-127659368D01*
X161673156Y-127435000D01*
X161654564Y-127210632D01*
X161599296Y-126992384D01*
X161508860Y-126786209D01*
X161385722Y-126597732D01*
X161233240Y-126432094D01*
X161055576Y-126293811D01*
X161055575Y-126293810D01*
X161019067Y-126274053D01*
X160971562Y-126228471D01*
X160954086Y-126164997D01*
X160971564Y-126101523D01*
X161019067Y-126055946D01*
X161055576Y-126036189D01*
X161233240Y-125897906D01*
X161385722Y-125732268D01*
X161508860Y-125543791D01*
X161599296Y-125337616D01*
X161654564Y-125119368D01*
X161673156Y-124895000D01*
X161654564Y-124670632D01*
X161599296Y-124452384D01*
X161508860Y-124246209D01*
X161385722Y-124057732D01*
X161385721Y-124057731D01*
X161385718Y-124057726D01*
X161240510Y-123899990D01*
X161211736Y-123847238D01*
X161211143Y-123787151D01*
X161238870Y-123733840D01*
X161288401Y-123699827D01*
X161406204Y-123655889D01*
X161523261Y-123568261D01*
X161610889Y-123451204D01*
X161654313Y-123334781D01*
X161661988Y-123314205D01*
X161661988Y-123314203D01*
X161661989Y-123314201D01*
X161668500Y-123253638D01*
X161668500Y-121456362D01*
X161661989Y-121395799D01*
X161661988Y-121395797D01*
X161661988Y-121395794D01*
X161610889Y-121258796D01*
X161523261Y-121141738D01*
X161406203Y-121054110D01*
X161269205Y-121003011D01*
X161238919Y-120999755D01*
X161208638Y-120996500D01*
X159411362Y-120996500D01*
X159384445Y-120999393D01*
X159350794Y-121003011D01*
X159213796Y-121054110D01*
X159096738Y-121141738D01*
X159009110Y-121258796D01*
X158958011Y-121395794D01*
X158956429Y-121410511D01*
X158951500Y-121456362D01*
X158951500Y-123253638D01*
X158952604Y-123263905D01*
X158958011Y-123314205D01*
X159009110Y-123451203D01*
X159096738Y-123568261D01*
X159213793Y-123655887D01*
X159213796Y-123655889D01*
X159331596Y-123699826D01*
X159381129Y-123733840D01*
X159408856Y-123787151D01*
X159408263Y-123847237D01*
X159379490Y-123899990D01*
X159234279Y-124057730D01*
X159111138Y-124246211D01*
X159020705Y-124452381D01*
X159020704Y-124452384D01*
X158965436Y-124670632D01*
X158965435Y-124670636D01*
X158946843Y-124895000D01*
X158965435Y-125119363D01*
X158965435Y-125119366D01*
X158965436Y-125119368D01*
X158996900Y-125243618D01*
X159020705Y-125337618D01*
X159111138Y-125543788D01*
X159111140Y-125543791D01*
X159234278Y-125732268D01*
X159386760Y-125897906D01*
X159564424Y-126036189D01*
X159600930Y-126055945D01*
X159648435Y-126101524D01*
X159665913Y-126164997D01*
X159648437Y-126228471D01*
X159600933Y-126274052D01*
X159564427Y-126293809D01*
X159386760Y-126432094D01*
X159234279Y-126597730D01*
X159111138Y-126786211D01*
X159020705Y-126992381D01*
X158965435Y-127210636D01*
X158946843Y-127434999D01*
X94981516Y-127434999D01*
X94913015Y-127391957D01*
X94741047Y-127331783D01*
X94741046Y-127331782D01*
X94741044Y-127331782D01*
X94560000Y-127311383D01*
X94378955Y-127331782D01*
X94206984Y-127391957D01*
X94052717Y-127488890D01*
X93923890Y-127617717D01*
X93826957Y-127771984D01*
X93766782Y-127943955D01*
X93746383Y-128125000D01*
X91635500Y-128125000D01*
X91635500Y-125051000D01*
X104366001Y-125051000D01*
X104366001Y-125450979D01*
X104376493Y-125553695D01*
X104431642Y-125720122D01*
X104523683Y-125869345D01*
X104647654Y-125993316D01*
X104796877Y-126085357D01*
X104963303Y-126140506D01*
X105066021Y-126151000D01*
X105466000Y-126151000D01*
X105466000Y-125051000D01*
X104366001Y-125051000D01*
X91635500Y-125051000D01*
X91635500Y-122515000D01*
X93534646Y-122515000D01*
X93554021Y-122736460D01*
X93611560Y-122951197D01*
X93624066Y-122978015D01*
X93705512Y-123152677D01*
X93833023Y-123334781D01*
X93990219Y-123491977D01*
X94172323Y-123619488D01*
X94373804Y-123713440D01*
X94588537Y-123770978D01*
X94810000Y-123790353D01*
X95031463Y-123770978D01*
X95246196Y-123713440D01*
X95447677Y-123619488D01*
X95629781Y-123491977D01*
X95786977Y-123334781D01*
X95914488Y-123152677D01*
X96008440Y-122951196D01*
X96065978Y-122736463D01*
X96085353Y-122515000D01*
X96065978Y-122293537D01*
X96057260Y-122261000D01*
X104352843Y-122261000D01*
X104371435Y-122485363D01*
X104371435Y-122485366D01*
X104371436Y-122485368D01*
X104406795Y-122624999D01*
X104426705Y-122703618D01*
X104517138Y-122909788D01*
X104517140Y-122909791D01*
X104640278Y-123098268D01*
X104732957Y-123198943D01*
X104792760Y-123263906D01*
X104838587Y-123299575D01*
X104878062Y-123352662D01*
X104884622Y-123418491D01*
X104856401Y-123478325D01*
X104801432Y-123515133D01*
X104796878Y-123516642D01*
X104647654Y-123608683D01*
X104523683Y-123732654D01*
X104431642Y-123881877D01*
X104376493Y-124048303D01*
X104366000Y-124151021D01*
X104366000Y-124551000D01*
X105842000Y-124551000D01*
X105904000Y-124567613D01*
X105949387Y-124613000D01*
X105966000Y-124675000D01*
X105966000Y-126150999D01*
X106365979Y-126150999D01*
X106468695Y-126140506D01*
X106635122Y-126085357D01*
X106784345Y-125993316D01*
X106908316Y-125869345D01*
X107000355Y-125720126D01*
X107001660Y-125716188D01*
X107036541Y-125662906D01*
X107093268Y-125633965D01*
X107156880Y-125636997D01*
X107210597Y-125671204D01*
X107332756Y-125803903D01*
X107332759Y-125803905D01*
X107332760Y-125803906D01*
X107510424Y-125942189D01*
X107708426Y-126049342D01*
X107921365Y-126122444D01*
X108143431Y-126159500D01*
X108368569Y-126159500D01*
X108590635Y-126122444D01*
X108803574Y-126049342D01*
X109001576Y-125942189D01*
X109179240Y-125803906D01*
X109331722Y-125638268D01*
X109454860Y-125449791D01*
X109545296Y-125243616D01*
X109600564Y-125025368D01*
X109619156Y-124801000D01*
X109600564Y-124576632D01*
X109545296Y-124358384D01*
X109516616Y-124292999D01*
X124882692Y-124292999D01*
X124901884Y-124512368D01*
X124944292Y-124670636D01*
X124958880Y-124725076D01*
X125051944Y-124924654D01*
X125178251Y-125105038D01*
X125333962Y-125260749D01*
X125514346Y-125387056D01*
X125713924Y-125480120D01*
X125926629Y-125537115D01*
X126146000Y-125556307D01*
X126365371Y-125537115D01*
X126578076Y-125480120D01*
X126777654Y-125387056D01*
X126958038Y-125260749D01*
X127113749Y-125105038D01*
X127240056Y-124924654D01*
X127333120Y-124725076D01*
X127390115Y-124512371D01*
X127409307Y-124293000D01*
X127409307Y-124292999D01*
X129762692Y-124292999D01*
X129781884Y-124512368D01*
X129824292Y-124670636D01*
X129838880Y-124725076D01*
X129931944Y-124924654D01*
X130058251Y-125105038D01*
X130213962Y-125260749D01*
X130394346Y-125387056D01*
X130593924Y-125480120D01*
X130806629Y-125537115D01*
X131026000Y-125556307D01*
X131245371Y-125537115D01*
X131458076Y-125480120D01*
X131657654Y-125387056D01*
X131838038Y-125260749D01*
X131993749Y-125105038D01*
X132120056Y-124924654D01*
X132213120Y-124725076D01*
X132270115Y-124512371D01*
X132289307Y-124293000D01*
X132270115Y-124073629D01*
X132213120Y-123860924D01*
X132120056Y-123661347D01*
X131993749Y-123480962D01*
X131838038Y-123325251D01*
X131657654Y-123198944D01*
X131514694Y-123132281D01*
X131458077Y-123105880D01*
X131245368Y-123048884D01*
X131026000Y-123029692D01*
X130806631Y-123048884D01*
X130593922Y-123105880D01*
X130394349Y-123198943D01*
X130394347Y-123198944D01*
X130213962Y-123325251D01*
X130213958Y-123325254D01*
X130058254Y-123480958D01*
X130058251Y-123480961D01*
X130058251Y-123480962D01*
X129933021Y-123659810D01*
X129931943Y-123661349D01*
X129838880Y-123860922D01*
X129781884Y-124073631D01*
X129762692Y-124292999D01*
X127409307Y-124292999D01*
X127390115Y-124073629D01*
X127333120Y-123860924D01*
X127240056Y-123661347D01*
X127113749Y-123480962D01*
X126958038Y-123325251D01*
X126777654Y-123198944D01*
X126634694Y-123132281D01*
X126578077Y-123105880D01*
X126365368Y-123048884D01*
X126146000Y-123029692D01*
X125926631Y-123048884D01*
X125713922Y-123105880D01*
X125514349Y-123198943D01*
X125514347Y-123198944D01*
X125333962Y-123325251D01*
X125333958Y-123325254D01*
X125178254Y-123480958D01*
X125178251Y-123480961D01*
X125178251Y-123480962D01*
X125053021Y-123659810D01*
X125051943Y-123661349D01*
X124958880Y-123860922D01*
X124901884Y-124073631D01*
X124882692Y-124292999D01*
X109516616Y-124292999D01*
X109454860Y-124152209D01*
X109331722Y-123963732D01*
X109179240Y-123798094D01*
X109003552Y-123661349D01*
X109001575Y-123659810D01*
X108965067Y-123640053D01*
X108917562Y-123594471D01*
X108900086Y-123530997D01*
X108917564Y-123467523D01*
X108965067Y-123421946D01*
X109001576Y-123402189D01*
X109179240Y-123263906D01*
X109331722Y-123098268D01*
X109454860Y-122909791D01*
X109545296Y-122703616D01*
X109565205Y-122624999D01*
X139246383Y-122624999D01*
X139266782Y-122806044D01*
X139266782Y-122806046D01*
X139266783Y-122806047D01*
X139326957Y-122978015D01*
X139423889Y-123132281D01*
X139552719Y-123261111D01*
X139706985Y-123358043D01*
X139878953Y-123418217D01*
X140060000Y-123438616D01*
X140241047Y-123418217D01*
X140413015Y-123358043D01*
X140567281Y-123261111D01*
X140696111Y-123132281D01*
X140793043Y-122978015D01*
X140853217Y-122806047D01*
X140873616Y-122625000D01*
X140853217Y-122443953D01*
X140793043Y-122271985D01*
X140696111Y-122117719D01*
X140567281Y-121988889D01*
X140413015Y-121891957D01*
X140241047Y-121831783D01*
X140241046Y-121831782D01*
X140241044Y-121831782D01*
X140060000Y-121811383D01*
X139878955Y-121831782D01*
X139706984Y-121891957D01*
X139552717Y-121988890D01*
X139423890Y-122117717D01*
X139326957Y-122271984D01*
X139266782Y-122443955D01*
X139246383Y-122624999D01*
X109565205Y-122624999D01*
X109600564Y-122485368D01*
X109619156Y-122261000D01*
X109600564Y-122036632D01*
X109545296Y-121818384D01*
X109454860Y-121612209D01*
X109331722Y-121423732D01*
X109179240Y-121258094D01*
X109001576Y-121119811D01*
X108965067Y-121100053D01*
X108917563Y-121054474D01*
X108900086Y-120991000D01*
X108917563Y-120927526D01*
X108965067Y-120881946D01*
X109001576Y-120862189D01*
X109179240Y-120723906D01*
X109331722Y-120558268D01*
X109369790Y-120500000D01*
X112996383Y-120500000D01*
X113016782Y-120681044D01*
X113016782Y-120681046D01*
X113016783Y-120681047D01*
X113076957Y-120853015D01*
X113173889Y-121007281D01*
X113302719Y-121136111D01*
X113456985Y-121233043D01*
X113628953Y-121293217D01*
X113810000Y-121313616D01*
X113991047Y-121293217D01*
X114163015Y-121233043D01*
X114317281Y-121136111D01*
X114328392Y-121125000D01*
X125746383Y-121125000D01*
X125766782Y-121306044D01*
X125766782Y-121306046D01*
X125766783Y-121306047D01*
X125826957Y-121478015D01*
X125923889Y-121632281D01*
X126052719Y-121761111D01*
X126206985Y-121858043D01*
X126378953Y-121918217D01*
X126560000Y-121938616D01*
X126741047Y-121918217D01*
X126913015Y-121858043D01*
X127067281Y-121761111D01*
X127196111Y-121632281D01*
X127200686Y-121625000D01*
X134496383Y-121625000D01*
X134516782Y-121806044D01*
X134516782Y-121806046D01*
X134516783Y-121806047D01*
X134576957Y-121978015D01*
X134673889Y-122132281D01*
X134802719Y-122261111D01*
X134956985Y-122358043D01*
X135128953Y-122418217D01*
X135310000Y-122438616D01*
X135491047Y-122418217D01*
X135663015Y-122358043D01*
X135817281Y-122261111D01*
X135946111Y-122132281D01*
X136043043Y-121978015D01*
X136103217Y-121806047D01*
X136123616Y-121625000D01*
X136122870Y-121618383D01*
X136107055Y-121478015D01*
X136103217Y-121443953D01*
X136043043Y-121271985D01*
X135946111Y-121117719D01*
X135817281Y-120988889D01*
X135663015Y-120891957D01*
X135491047Y-120831783D01*
X135491046Y-120831782D01*
X135491044Y-120831782D01*
X135310000Y-120811383D01*
X135128955Y-120831782D01*
X134956984Y-120891957D01*
X134802717Y-120988890D01*
X134673890Y-121117717D01*
X134576957Y-121271984D01*
X134516782Y-121443955D01*
X134496383Y-121625000D01*
X127200686Y-121625000D01*
X127293043Y-121478015D01*
X127353217Y-121306047D01*
X127373616Y-121125000D01*
X127372795Y-121117717D01*
X127359871Y-121003011D01*
X127353217Y-120943953D01*
X127293043Y-120771985D01*
X127196111Y-120617719D01*
X127067281Y-120488889D01*
X126913015Y-120391957D01*
X126741047Y-120331783D01*
X126741046Y-120331782D01*
X126741044Y-120331782D01*
X126560000Y-120311383D01*
X126378955Y-120331782D01*
X126206984Y-120391957D01*
X126052717Y-120488890D01*
X125923890Y-120617717D01*
X125826957Y-120771984D01*
X125766782Y-120943955D01*
X125746383Y-121125000D01*
X114328392Y-121125000D01*
X114446111Y-121007281D01*
X114543043Y-120853015D01*
X114603217Y-120681047D01*
X114623616Y-120500000D01*
X114603217Y-120318953D01*
X114543043Y-120146985D01*
X114446111Y-119992719D01*
X114317281Y-119863889D01*
X114163015Y-119766957D01*
X113991047Y-119706783D01*
X113991046Y-119706782D01*
X113991044Y-119706782D01*
X113810000Y-119686383D01*
X113628955Y-119706782D01*
X113456984Y-119766957D01*
X113302717Y-119863890D01*
X113173890Y-119992717D01*
X113076957Y-120146984D01*
X113016782Y-120318955D01*
X112996383Y-120500000D01*
X109369790Y-120500000D01*
X109454860Y-120369791D01*
X109545296Y-120163616D01*
X109600564Y-119945368D01*
X109619156Y-119721000D01*
X109600564Y-119496632D01*
X109545296Y-119278384D01*
X109454860Y-119072209D01*
X109331722Y-118883732D01*
X109179240Y-118718094D01*
X109059633Y-118624999D01*
X116746383Y-118624999D01*
X116766782Y-118806044D01*
X116766782Y-118806046D01*
X116766783Y-118806047D01*
X116826957Y-118978015D01*
X116923889Y-119132281D01*
X117052719Y-119261111D01*
X117206985Y-119358043D01*
X117378953Y-119418217D01*
X117499651Y-119431816D01*
X117559999Y-119438616D01*
X117559999Y-119438615D01*
X117560000Y-119438616D01*
X117741047Y-119418217D01*
X117913015Y-119358043D01*
X118067281Y-119261111D01*
X118196111Y-119132281D01*
X118293043Y-118978015D01*
X118353217Y-118806047D01*
X118373616Y-118625000D01*
X118353217Y-118443953D01*
X118330839Y-118379999D01*
X158946843Y-118379999D01*
X158965435Y-118604363D01*
X158965435Y-118604366D01*
X158965436Y-118604368D01*
X159016508Y-118806047D01*
X159020705Y-118822618D01*
X159111138Y-119028788D01*
X159111140Y-119028791D01*
X159234278Y-119217268D01*
X159386760Y-119382906D01*
X159564424Y-119521189D01*
X159762426Y-119628342D01*
X159975365Y-119701444D01*
X160197431Y-119738500D01*
X160422569Y-119738500D01*
X160644635Y-119701444D01*
X160857574Y-119628342D01*
X161055576Y-119521189D01*
X161233240Y-119382906D01*
X161385722Y-119217268D01*
X161508860Y-119028791D01*
X161599296Y-118822616D01*
X161654564Y-118604368D01*
X161673156Y-118380000D01*
X161654564Y-118155632D01*
X161599296Y-117937384D01*
X161508860Y-117731209D01*
X161385722Y-117542732D01*
X161233240Y-117377094D01*
X161055576Y-117238811D01*
X161019067Y-117219053D01*
X160971563Y-117173474D01*
X160954086Y-117110000D01*
X160971563Y-117046526D01*
X161019067Y-117000946D01*
X161055576Y-116981189D01*
X161233240Y-116842906D01*
X161385722Y-116677268D01*
X161508860Y-116488791D01*
X161599296Y-116282616D01*
X161654564Y-116064368D01*
X161673156Y-115840000D01*
X161654564Y-115615632D01*
X161599296Y-115397384D01*
X161508860Y-115191209D01*
X161385722Y-115002732D01*
X161385721Y-115002731D01*
X161385718Y-115002726D01*
X161240510Y-114844990D01*
X161211736Y-114792238D01*
X161211143Y-114732151D01*
X161238870Y-114678840D01*
X161288401Y-114644827D01*
X161406204Y-114600889D01*
X161523261Y-114513261D01*
X161610889Y-114396204D01*
X161644517Y-114306044D01*
X161661988Y-114259205D01*
X161661988Y-114259203D01*
X161661989Y-114259201D01*
X161668500Y-114198638D01*
X161668500Y-112401362D01*
X161661989Y-112340799D01*
X161661988Y-112340797D01*
X161661988Y-112340794D01*
X161610889Y-112203796D01*
X161523261Y-112086738D01*
X161406203Y-111999110D01*
X161269205Y-111948011D01*
X161238919Y-111944755D01*
X161208638Y-111941500D01*
X159411362Y-111941500D01*
X159384445Y-111944393D01*
X159350794Y-111948011D01*
X159213796Y-111999110D01*
X159096738Y-112086738D01*
X159009110Y-112203796D01*
X158958011Y-112340794D01*
X158951500Y-112401366D01*
X158951500Y-114198634D01*
X158958011Y-114259205D01*
X159009110Y-114396203D01*
X159096738Y-114513261D01*
X159201167Y-114591435D01*
X159213796Y-114600889D01*
X159331596Y-114644826D01*
X159381129Y-114678840D01*
X159408856Y-114732151D01*
X159408263Y-114792237D01*
X159379490Y-114844990D01*
X159234279Y-115002730D01*
X159111138Y-115191211D01*
X159027328Y-115382282D01*
X159020704Y-115397384D01*
X158996562Y-115492719D01*
X158965435Y-115615636D01*
X158946843Y-115840000D01*
X158965435Y-116064363D01*
X158965435Y-116064366D01*
X158965436Y-116064368D01*
X159019378Y-116277381D01*
X159020705Y-116282618D01*
X159111138Y-116488788D01*
X159111140Y-116488791D01*
X159234278Y-116677268D01*
X159386760Y-116842906D01*
X159564424Y-116981189D01*
X159564426Y-116981190D01*
X159600931Y-117000946D01*
X159648436Y-117046527D01*
X159665913Y-117110000D01*
X159648436Y-117173473D01*
X159600931Y-117219054D01*
X159564426Y-117238809D01*
X159386760Y-117377094D01*
X159234279Y-117542730D01*
X159111138Y-117731211D01*
X159029111Y-117918217D01*
X159020704Y-117937384D01*
X159000221Y-118018269D01*
X158965435Y-118155636D01*
X158946843Y-118379999D01*
X118330839Y-118379999D01*
X118293043Y-118271985D01*
X118196111Y-118117719D01*
X118067281Y-117988889D01*
X117913015Y-117891957D01*
X117741047Y-117831783D01*
X117741046Y-117831782D01*
X117741044Y-117831782D01*
X117559999Y-117811383D01*
X117378955Y-117831782D01*
X117206984Y-117891957D01*
X117052717Y-117988890D01*
X116923890Y-118117717D01*
X116826957Y-118271984D01*
X116766782Y-118443955D01*
X116746383Y-118624999D01*
X109059633Y-118624999D01*
X109001576Y-118579811D01*
X108965067Y-118560053D01*
X108917563Y-118514474D01*
X108900086Y-118451000D01*
X108917563Y-118387526D01*
X108965067Y-118341946D01*
X109001576Y-118322189D01*
X109179240Y-118183906D01*
X109331722Y-118018268D01*
X109454860Y-117829791D01*
X109545296Y-117623616D01*
X109600564Y-117405368D01*
X109619156Y-117181000D01*
X109600564Y-116956632D01*
X109545296Y-116738384D01*
X109495561Y-116624999D01*
X123746383Y-116624999D01*
X123766782Y-116806044D01*
X123766782Y-116806046D01*
X123766783Y-116806047D01*
X123826957Y-116978015D01*
X123923889Y-117132281D01*
X124052719Y-117261111D01*
X124206985Y-117358043D01*
X124378953Y-117418217D01*
X124499651Y-117431816D01*
X124559999Y-117438616D01*
X124559999Y-117438615D01*
X124560000Y-117438616D01*
X124741047Y-117418217D01*
X124913015Y-117358043D01*
X125067281Y-117261111D01*
X125196111Y-117132281D01*
X125267757Y-117018256D01*
X125312769Y-116975702D01*
X125372750Y-116960230D01*
X125432731Y-116975702D01*
X125477742Y-117018256D01*
X125549389Y-117132281D01*
X125678219Y-117261111D01*
X125832485Y-117358043D01*
X126004453Y-117418217D01*
X126125151Y-117431816D01*
X126185499Y-117438616D01*
X126185499Y-117438615D01*
X126185500Y-117438616D01*
X126366547Y-117418217D01*
X126538515Y-117358043D01*
X126692781Y-117261111D01*
X126821611Y-117132281D01*
X126826186Y-117125000D01*
X135246383Y-117125000D01*
X135266782Y-117306044D01*
X135266782Y-117306046D01*
X135266783Y-117306047D01*
X135326957Y-117478015D01*
X135423889Y-117632281D01*
X135552719Y-117761111D01*
X135706985Y-117858043D01*
X135878953Y-117918217D01*
X135999651Y-117931816D01*
X136059999Y-117938616D01*
X136059999Y-117938615D01*
X136060000Y-117938616D01*
X136241047Y-117918217D01*
X136413015Y-117858043D01*
X136567281Y-117761111D01*
X136696111Y-117632281D01*
X136793043Y-117478015D01*
X136853217Y-117306047D01*
X136873616Y-117125000D01*
X136853217Y-116943953D01*
X136793043Y-116771985D01*
X136696111Y-116617719D01*
X136567281Y-116488889D01*
X136413015Y-116391957D01*
X136241047Y-116331783D01*
X136241046Y-116331782D01*
X136241044Y-116331782D01*
X136060000Y-116311383D01*
X135878955Y-116331782D01*
X135706984Y-116391957D01*
X135552717Y-116488890D01*
X135423890Y-116617717D01*
X135326957Y-116771984D01*
X135266782Y-116943955D01*
X135246383Y-117125000D01*
X126826186Y-117125000D01*
X126918543Y-116978015D01*
X126978717Y-116806047D01*
X126985654Y-116744472D01*
X127011925Y-116681047D01*
X127067918Y-116641318D01*
X127163015Y-116608043D01*
X127317281Y-116511111D01*
X127446111Y-116382281D01*
X127543043Y-116228015D01*
X127603217Y-116056047D01*
X127623616Y-115875000D01*
X127603217Y-115693953D01*
X127543043Y-115521985D01*
X127446111Y-115367719D01*
X127317281Y-115238889D01*
X127163015Y-115141957D01*
X126991047Y-115081783D01*
X126991046Y-115081782D01*
X126991044Y-115081782D01*
X126810000Y-115061383D01*
X126628955Y-115081782D01*
X126456984Y-115141957D01*
X126302719Y-115238889D01*
X126281571Y-115260037D01*
X126224188Y-115292596D01*
X126158227Y-115291115D01*
X126102363Y-115256012D01*
X126072411Y-115197226D01*
X126076850Y-115131399D01*
X126103217Y-115056047D01*
X126123616Y-114875000D01*
X126103217Y-114693953D01*
X126079089Y-114624999D01*
X130496383Y-114624999D01*
X130516782Y-114806044D01*
X130516782Y-114806046D01*
X130516783Y-114806047D01*
X130576957Y-114978015D01*
X130673889Y-115132281D01*
X130802719Y-115261111D01*
X130956985Y-115358043D01*
X131128953Y-115418217D01*
X131310000Y-115438616D01*
X131491047Y-115418217D01*
X131663015Y-115358043D01*
X131817281Y-115261111D01*
X131946111Y-115132281D01*
X132043043Y-114978015D01*
X132103217Y-114806047D01*
X132123616Y-114625000D01*
X132103217Y-114443953D01*
X132043043Y-114271985D01*
X131950686Y-114125000D01*
X136496383Y-114125000D01*
X136516782Y-114306044D01*
X136516782Y-114306046D01*
X136516783Y-114306047D01*
X136576957Y-114478015D01*
X136673889Y-114632281D01*
X136802719Y-114761111D01*
X136956985Y-114858043D01*
X137128953Y-114918217D01*
X137310000Y-114938616D01*
X137491047Y-114918217D01*
X137663015Y-114858043D01*
X137817281Y-114761111D01*
X137946111Y-114632281D01*
X138021953Y-114511578D01*
X138070649Y-114467070D01*
X138135284Y-114453835D01*
X138197559Y-114475625D01*
X138239842Y-114526271D01*
X138250165Y-114591435D01*
X138246383Y-114625001D01*
X138266782Y-114806044D01*
X138266782Y-114806046D01*
X138266783Y-114806047D01*
X138326957Y-114978015D01*
X138423889Y-115132281D01*
X138552719Y-115261111D01*
X138560947Y-115266281D01*
X138599965Y-115305298D01*
X138618192Y-115357386D01*
X138612014Y-115412224D01*
X138582655Y-115458951D01*
X138548891Y-115492715D01*
X138451957Y-115646984D01*
X138391783Y-115818953D01*
X138371383Y-115999999D01*
X138391782Y-116181044D01*
X138391782Y-116181046D01*
X138391783Y-116181047D01*
X138451957Y-116353015D01*
X138548889Y-116507281D01*
X138677719Y-116636111D01*
X138831985Y-116733043D01*
X139003953Y-116793217D01*
X139185000Y-116813616D01*
X139366047Y-116793217D01*
X139538015Y-116733043D01*
X139692281Y-116636111D01*
X139821111Y-116507281D01*
X139918043Y-116353015D01*
X139978217Y-116181047D01*
X139998616Y-116000000D01*
X139998558Y-115999489D01*
X139978217Y-115818953D01*
X139978216Y-115818952D01*
X139918043Y-115646985D01*
X139821111Y-115492719D01*
X139692281Y-115363889D01*
X139692280Y-115363888D01*
X139684051Y-115358717D01*
X139645031Y-115319695D01*
X139626806Y-115267607D01*
X139632986Y-115212769D01*
X139662345Y-115166046D01*
X139696111Y-115132281D01*
X139793043Y-114978015D01*
X139853217Y-114806047D01*
X139873616Y-114625000D01*
X139853217Y-114443953D01*
X139793043Y-114271985D01*
X139696111Y-114117719D01*
X139567281Y-113988889D01*
X139413015Y-113891957D01*
X139241047Y-113831783D01*
X139241046Y-113831782D01*
X139241044Y-113831782D01*
X139060000Y-113811383D01*
X138878955Y-113831782D01*
X138706984Y-113891957D01*
X138552717Y-113988890D01*
X138423889Y-114117718D01*
X138348048Y-114238418D01*
X138299349Y-114282930D01*
X138234713Y-114296164D01*
X138172438Y-114274373D01*
X138130156Y-114223726D01*
X138119835Y-114158561D01*
X138123616Y-114124999D01*
X138103217Y-113943955D01*
X138103217Y-113943953D01*
X138043043Y-113771985D01*
X137946111Y-113617719D01*
X137817281Y-113488889D01*
X137663015Y-113391957D01*
X137491047Y-113331783D01*
X137491046Y-113331782D01*
X137491044Y-113331782D01*
X137310000Y-113311383D01*
X137128955Y-113331782D01*
X136956984Y-113391957D01*
X136802717Y-113488890D01*
X136673890Y-113617717D01*
X136576957Y-113771984D01*
X136516782Y-113943955D01*
X136496383Y-114125000D01*
X131950686Y-114125000D01*
X131946111Y-114117719D01*
X131817281Y-113988889D01*
X131663015Y-113891957D01*
X131591807Y-113867040D01*
X131541237Y-113833659D01*
X131512523Y-113780298D01*
X131512523Y-113719702D01*
X131541237Y-113666341D01*
X131591807Y-113632959D01*
X131663015Y-113608043D01*
X131817281Y-113511111D01*
X131946111Y-113382281D01*
X132043043Y-113228015D01*
X132103217Y-113056047D01*
X132123616Y-112875000D01*
X132103217Y-112693953D01*
X132043043Y-112521985D01*
X131946111Y-112367719D01*
X131817281Y-112238889D01*
X131663015Y-112141957D01*
X131491047Y-112081783D01*
X131491046Y-112081782D01*
X131491044Y-112081782D01*
X131309999Y-112061383D01*
X131128955Y-112081782D01*
X130956984Y-112141957D01*
X130802717Y-112238890D01*
X130673890Y-112367717D01*
X130576957Y-112521984D01*
X130516782Y-112693955D01*
X130496383Y-112874999D01*
X130516782Y-113056044D01*
X130516782Y-113056046D01*
X130516783Y-113056047D01*
X130576957Y-113228015D01*
X130673889Y-113382281D01*
X130802719Y-113511111D01*
X130956985Y-113608043D01*
X131028192Y-113632959D01*
X131078762Y-113666341D01*
X131107476Y-113719702D01*
X131107476Y-113780298D01*
X131078762Y-113833659D01*
X131028192Y-113867040D01*
X130956985Y-113891957D01*
X130956983Y-113891957D01*
X130956983Y-113891958D01*
X130802717Y-113988890D01*
X130673890Y-114117717D01*
X130576957Y-114271984D01*
X130516782Y-114443955D01*
X130496383Y-114624999D01*
X126079089Y-114624999D01*
X126043043Y-114521985D01*
X125946111Y-114367719D01*
X125817281Y-114238889D01*
X125663015Y-114141957D01*
X125491047Y-114081783D01*
X125491046Y-114081782D01*
X125491044Y-114081782D01*
X125310000Y-114061383D01*
X125128955Y-114081782D01*
X124956984Y-114141957D01*
X124802717Y-114238890D01*
X124673890Y-114367717D01*
X124576957Y-114521984D01*
X124516782Y-114693955D01*
X124496383Y-114875000D01*
X124516782Y-115056044D01*
X124516782Y-115056046D01*
X124516783Y-115056047D01*
X124576957Y-115228015D01*
X124673889Y-115382281D01*
X124802719Y-115511111D01*
X124956985Y-115608043D01*
X125128953Y-115668217D01*
X125310000Y-115688616D01*
X125491047Y-115668217D01*
X125663015Y-115608043D01*
X125817281Y-115511111D01*
X125838429Y-115489962D01*
X125895808Y-115457404D01*
X125961769Y-115458883D01*
X126017634Y-115493985D01*
X126047588Y-115552771D01*
X126043150Y-115618599D01*
X126016782Y-115693955D01*
X126009845Y-115755524D01*
X125983572Y-115818953D01*
X125927580Y-115858681D01*
X125832487Y-115891955D01*
X125678217Y-115988890D01*
X125549389Y-116117718D01*
X125477743Y-116231742D01*
X125432731Y-116274297D01*
X125372750Y-116289769D01*
X125312769Y-116274297D01*
X125267757Y-116231742D01*
X125196110Y-116117718D01*
X125067282Y-115988890D01*
X125067281Y-115988889D01*
X124913015Y-115891957D01*
X124741047Y-115831783D01*
X124741046Y-115831782D01*
X124741044Y-115831782D01*
X124560000Y-115811383D01*
X124378955Y-115831782D01*
X124206984Y-115891957D01*
X124052717Y-115988890D01*
X123923890Y-116117717D01*
X123826957Y-116271984D01*
X123766782Y-116443955D01*
X123746383Y-116624999D01*
X109495561Y-116624999D01*
X109454860Y-116532209D01*
X109331722Y-116343732D01*
X109179240Y-116178094D01*
X109001576Y-116039811D01*
X108965067Y-116020053D01*
X108917563Y-115974474D01*
X108900086Y-115911000D01*
X108917563Y-115847526D01*
X108965067Y-115801946D01*
X109001576Y-115782189D01*
X109179240Y-115643906D01*
X109331722Y-115478268D01*
X109454860Y-115289791D01*
X109545296Y-115083616D01*
X109600564Y-114865368D01*
X109619156Y-114641000D01*
X109600564Y-114416632D01*
X109545296Y-114198384D01*
X109454860Y-113992209D01*
X109331722Y-113803732D01*
X109179240Y-113638094D01*
X109001576Y-113499811D01*
X108965067Y-113480053D01*
X108917563Y-113434474D01*
X108900086Y-113371000D01*
X108917563Y-113307526D01*
X108965067Y-113261946D01*
X109001576Y-113242189D01*
X109179240Y-113103906D01*
X109331722Y-112938268D01*
X109454860Y-112749791D01*
X109545296Y-112543616D01*
X109587996Y-112374999D01*
X123996383Y-112374999D01*
X124016782Y-112556044D01*
X124016782Y-112556046D01*
X124016783Y-112556047D01*
X124076957Y-112728015D01*
X124173889Y-112882281D01*
X124302719Y-113011111D01*
X124456985Y-113108043D01*
X124628953Y-113168217D01*
X124810000Y-113188616D01*
X124991047Y-113168217D01*
X125163015Y-113108043D01*
X125317281Y-113011111D01*
X125446111Y-112882281D01*
X125543043Y-112728015D01*
X125603217Y-112556047D01*
X125623616Y-112375000D01*
X125622795Y-112367717D01*
X125603217Y-112193955D01*
X125603217Y-112193953D01*
X125579089Y-112125000D01*
X128246383Y-112125000D01*
X128266782Y-112306044D01*
X128266782Y-112306046D01*
X128266783Y-112306047D01*
X128326957Y-112478015D01*
X128423889Y-112632281D01*
X128552719Y-112761111D01*
X128706985Y-112858043D01*
X128878953Y-112918217D01*
X129060000Y-112938616D01*
X129241047Y-112918217D01*
X129413015Y-112858043D01*
X129567281Y-112761111D01*
X129696111Y-112632281D01*
X129793043Y-112478015D01*
X129853217Y-112306047D01*
X129873616Y-112125000D01*
X129853217Y-111943953D01*
X129793043Y-111771985D01*
X129696111Y-111617719D01*
X129567281Y-111488889D01*
X129413015Y-111391957D01*
X129241047Y-111331783D01*
X129241046Y-111331782D01*
X129241044Y-111331782D01*
X129059999Y-111311383D01*
X128878955Y-111331782D01*
X128706984Y-111391957D01*
X128552717Y-111488890D01*
X128423890Y-111617717D01*
X128326957Y-111771984D01*
X128266782Y-111943955D01*
X128246383Y-112125000D01*
X125579089Y-112125000D01*
X125543043Y-112021985D01*
X125446111Y-111867719D01*
X125317281Y-111738889D01*
X125163015Y-111641957D01*
X124991047Y-111581783D01*
X124991046Y-111581782D01*
X124991044Y-111581782D01*
X124809999Y-111561383D01*
X124628955Y-111581782D01*
X124456984Y-111641957D01*
X124302717Y-111738890D01*
X124173890Y-111867717D01*
X124076957Y-112021984D01*
X124016782Y-112193955D01*
X123996383Y-112374999D01*
X109587996Y-112374999D01*
X109600564Y-112325368D01*
X109619156Y-112101000D01*
X109600564Y-111876632D01*
X109545296Y-111658384D01*
X109454860Y-111452209D01*
X109331722Y-111263732D01*
X109179240Y-111098094D01*
X109001576Y-110959811D01*
X109001575Y-110959810D01*
X108965067Y-110940053D01*
X108917562Y-110894471D01*
X108900086Y-110830997D01*
X108917564Y-110767523D01*
X108965067Y-110721946D01*
X109001576Y-110702189D01*
X109179240Y-110563906D01*
X109331722Y-110398268D01*
X109454860Y-110209791D01*
X109545296Y-110003616D01*
X109600564Y-109785368D01*
X109619156Y-109561000D01*
X109600564Y-109336632D01*
X109545296Y-109118384D01*
X109454860Y-108912209D01*
X109331722Y-108723732D01*
X109240832Y-108625000D01*
X118746383Y-108625000D01*
X118766782Y-108806044D01*
X118766782Y-108806046D01*
X118766783Y-108806047D01*
X118826957Y-108978015D01*
X118923889Y-109132281D01*
X119052719Y-109261111D01*
X119206985Y-109358043D01*
X119378953Y-109418217D01*
X119560000Y-109438616D01*
X119741047Y-109418217D01*
X119864555Y-109375000D01*
X128996383Y-109375000D01*
X129016782Y-109556044D01*
X129016782Y-109556046D01*
X129016783Y-109556047D01*
X129076957Y-109728015D01*
X129173889Y-109882281D01*
X129302719Y-110011111D01*
X129456985Y-110108043D01*
X129628953Y-110168217D01*
X129810000Y-110188616D01*
X129991047Y-110168217D01*
X130163015Y-110108043D01*
X130317281Y-110011111D01*
X130446111Y-109882281D01*
X130543043Y-109728015D01*
X130603217Y-109556047D01*
X130623616Y-109375000D01*
X130603217Y-109193953D01*
X130579089Y-109125000D01*
X133396883Y-109125000D01*
X133417282Y-109306044D01*
X133417282Y-109306046D01*
X133417283Y-109306047D01*
X133477457Y-109478015D01*
X133574389Y-109632281D01*
X133703219Y-109761111D01*
X133857485Y-109858043D01*
X134029453Y-109918217D01*
X134210500Y-109938616D01*
X134391547Y-109918217D01*
X134563515Y-109858043D01*
X134717781Y-109761111D01*
X134846611Y-109632281D01*
X134943543Y-109478015D01*
X135003717Y-109306047D01*
X135024116Y-109125000D01*
X140746383Y-109125000D01*
X140766782Y-109306044D01*
X140766782Y-109306046D01*
X140766783Y-109306047D01*
X140826957Y-109478015D01*
X140923889Y-109632281D01*
X141052719Y-109761111D01*
X141206985Y-109858043D01*
X141378953Y-109918217D01*
X141560000Y-109938616D01*
X141741047Y-109918217D01*
X141913015Y-109858043D01*
X142067281Y-109761111D01*
X142196111Y-109632281D01*
X142293043Y-109478015D01*
X142299347Y-109459999D01*
X158946843Y-109459999D01*
X158965435Y-109684363D01*
X158965435Y-109684366D01*
X158965436Y-109684368D01*
X159015554Y-109882281D01*
X159020705Y-109902618D01*
X159111138Y-110108788D01*
X159111140Y-110108791D01*
X159234278Y-110297268D01*
X159386760Y-110462906D01*
X159564424Y-110601189D01*
X159762426Y-110708342D01*
X159975365Y-110781444D01*
X160197431Y-110818500D01*
X160422569Y-110818500D01*
X160644635Y-110781444D01*
X160857574Y-110708342D01*
X161055576Y-110601189D01*
X161233240Y-110462906D01*
X161385722Y-110297268D01*
X161508860Y-110108791D01*
X161599296Y-109902616D01*
X161654564Y-109684368D01*
X161673156Y-109460000D01*
X161654564Y-109235632D01*
X161599296Y-109017384D01*
X161508860Y-108811209D01*
X161385722Y-108622732D01*
X161233240Y-108457094D01*
X161055576Y-108318811D01*
X161019067Y-108299053D01*
X160971563Y-108253474D01*
X160954086Y-108190000D01*
X160971563Y-108126526D01*
X161019067Y-108080946D01*
X161055576Y-108061189D01*
X161233240Y-107922906D01*
X161385722Y-107757268D01*
X161508860Y-107568791D01*
X161599296Y-107362616D01*
X161654564Y-107144368D01*
X161673156Y-106920000D01*
X161654564Y-106695632D01*
X161599296Y-106477384D01*
X161508860Y-106271209D01*
X161385722Y-106082732D01*
X161233240Y-105917094D01*
X161055576Y-105778811D01*
X161019067Y-105759053D01*
X160971563Y-105713474D01*
X160954086Y-105650000D01*
X160971563Y-105586526D01*
X161019067Y-105540946D01*
X161055576Y-105521189D01*
X161233240Y-105382906D01*
X161385722Y-105217268D01*
X161508860Y-105028791D01*
X161599296Y-104822616D01*
X161654564Y-104604368D01*
X161673156Y-104380000D01*
X161654564Y-104155632D01*
X161599296Y-103937384D01*
X161508860Y-103731209D01*
X161385722Y-103542732D01*
X161233240Y-103377094D01*
X161055576Y-103238811D01*
X161019067Y-103219053D01*
X160971563Y-103173474D01*
X160954086Y-103110000D01*
X160971563Y-103046526D01*
X161019067Y-103000946D01*
X161055576Y-102981189D01*
X161233240Y-102842906D01*
X161385722Y-102677268D01*
X161508860Y-102488791D01*
X161599296Y-102282616D01*
X161654564Y-102064368D01*
X161673156Y-101840000D01*
X161654564Y-101615632D01*
X161599296Y-101397384D01*
X161522616Y-101222571D01*
X161508861Y-101191211D01*
X161451708Y-101103732D01*
X161385722Y-101002732D01*
X161385721Y-101002731D01*
X161385718Y-101002726D01*
X161240510Y-100844990D01*
X161211736Y-100792238D01*
X161211143Y-100732151D01*
X161238870Y-100678840D01*
X161288401Y-100644827D01*
X161406204Y-100600889D01*
X161523261Y-100513261D01*
X161610889Y-100396204D01*
X161644613Y-100305788D01*
X161661988Y-100259205D01*
X161661988Y-100259203D01*
X161661989Y-100259201D01*
X161668500Y-100198638D01*
X161668500Y-98401362D01*
X161661989Y-98340799D01*
X161661988Y-98340797D01*
X161661988Y-98340794D01*
X161610889Y-98203796D01*
X161523261Y-98086738D01*
X161406203Y-97999110D01*
X161269205Y-97948011D01*
X161238919Y-97944755D01*
X161208638Y-97941500D01*
X159411362Y-97941500D01*
X159384445Y-97944393D01*
X159350794Y-97948011D01*
X159213796Y-97999110D01*
X159096738Y-98086738D01*
X159009110Y-98203796D01*
X158958011Y-98340794D01*
X158955203Y-98366919D01*
X158952329Y-98393658D01*
X158951500Y-98401366D01*
X158951500Y-100198634D01*
X158958011Y-100259205D01*
X159009110Y-100396203D01*
X159096738Y-100513261D01*
X159188272Y-100581782D01*
X159213796Y-100600889D01*
X159331596Y-100644826D01*
X159381129Y-100678840D01*
X159408856Y-100732151D01*
X159408263Y-100792237D01*
X159379490Y-100844990D01*
X159234279Y-101002730D01*
X159111138Y-101191211D01*
X159030522Y-101375000D01*
X159020704Y-101397384D01*
X158995128Y-101498381D01*
X158965435Y-101615636D01*
X158946843Y-101840000D01*
X158965435Y-102064363D01*
X158965435Y-102064366D01*
X158965436Y-102064368D01*
X158991734Y-102168217D01*
X159020705Y-102282618D01*
X159111138Y-102488788D01*
X159111140Y-102488791D01*
X159234278Y-102677268D01*
X159386760Y-102842906D01*
X159564424Y-102981189D01*
X159564426Y-102981190D01*
X159600931Y-103000946D01*
X159648436Y-103046527D01*
X159665913Y-103110000D01*
X159648436Y-103173473D01*
X159600931Y-103219054D01*
X159564426Y-103238809D01*
X159386760Y-103377094D01*
X159234279Y-103542730D01*
X159111138Y-103731211D01*
X159020705Y-103937381D01*
X159020704Y-103937384D01*
X158995128Y-104038381D01*
X158965435Y-104155636D01*
X158946843Y-104379999D01*
X158965435Y-104604363D01*
X158965435Y-104604366D01*
X158965436Y-104604368D01*
X158998516Y-104734999D01*
X159020705Y-104822618D01*
X159111138Y-105028788D01*
X159111140Y-105028791D01*
X159234278Y-105217268D01*
X159386760Y-105382906D01*
X159564424Y-105521189D01*
X159564426Y-105521190D01*
X159600931Y-105540946D01*
X159648436Y-105586527D01*
X159665913Y-105650000D01*
X159648436Y-105713473D01*
X159600931Y-105759054D01*
X159564426Y-105778809D01*
X159386760Y-105917094D01*
X159234279Y-106082730D01*
X159111138Y-106271211D01*
X159030426Y-106455219D01*
X159020704Y-106477384D01*
X158969130Y-106681044D01*
X158965435Y-106695636D01*
X158946843Y-106920000D01*
X158965435Y-107144363D01*
X158965435Y-107144366D01*
X158965436Y-107144368D01*
X159008295Y-107313616D01*
X159020705Y-107362618D01*
X159111138Y-107568788D01*
X159111140Y-107568791D01*
X159234278Y-107757268D01*
X159386760Y-107922906D01*
X159564424Y-108061189D01*
X159564426Y-108061190D01*
X159600931Y-108080946D01*
X159648436Y-108126527D01*
X159665913Y-108190000D01*
X159648436Y-108253473D01*
X159600931Y-108299054D01*
X159564426Y-108318809D01*
X159386760Y-108457094D01*
X159234279Y-108622730D01*
X159111138Y-108811211D01*
X159020705Y-109017381D01*
X159020704Y-109017384D01*
X158997746Y-109108042D01*
X158965435Y-109235636D01*
X158946843Y-109459999D01*
X142299347Y-109459999D01*
X142353217Y-109306047D01*
X142373616Y-109125000D01*
X142353217Y-108943953D01*
X142293043Y-108771985D01*
X142196111Y-108617719D01*
X142067281Y-108488889D01*
X141913015Y-108391957D01*
X141864555Y-108375000D01*
X142496383Y-108375000D01*
X142516782Y-108556044D01*
X142516782Y-108556046D01*
X142516783Y-108556047D01*
X142576957Y-108728015D01*
X142673889Y-108882281D01*
X142802719Y-109011111D01*
X142956985Y-109108043D01*
X143128953Y-109168217D01*
X143310000Y-109188616D01*
X143491047Y-109168217D01*
X143663015Y-109108043D01*
X143817281Y-109011111D01*
X143946111Y-108882281D01*
X144043043Y-108728015D01*
X144103217Y-108556047D01*
X144123616Y-108375000D01*
X144103217Y-108193953D01*
X144043043Y-108021985D01*
X143946111Y-107867719D01*
X143946109Y-107867717D01*
X143938677Y-107855889D01*
X143940027Y-107855040D01*
X143918041Y-107817769D01*
X143916304Y-107755848D01*
X143944736Y-107700814D01*
X143996239Y-107666400D01*
X144163015Y-107608043D01*
X144317281Y-107511111D01*
X144446111Y-107382281D01*
X144543043Y-107228015D01*
X144603217Y-107056047D01*
X144623616Y-106875000D01*
X144603217Y-106693953D01*
X144543043Y-106521985D01*
X144446111Y-106367719D01*
X144317281Y-106238889D01*
X144163015Y-106141957D01*
X143991047Y-106081783D01*
X143991046Y-106081782D01*
X143991044Y-106081782D01*
X143809999Y-106061383D01*
X143628955Y-106081782D01*
X143456984Y-106141957D01*
X143302717Y-106238890D01*
X143173890Y-106367717D01*
X143076957Y-106521984D01*
X143016782Y-106693955D01*
X142996383Y-106874999D01*
X143016782Y-107056044D01*
X143016782Y-107056046D01*
X143016783Y-107056047D01*
X143076957Y-107228015D01*
X143173889Y-107382281D01*
X143173890Y-107382282D01*
X143181323Y-107394111D01*
X143179972Y-107394959D01*
X143201958Y-107432230D01*
X143203695Y-107494150D01*
X143175264Y-107549185D01*
X143123759Y-107583599D01*
X142956987Y-107641955D01*
X142802717Y-107738890D01*
X142673890Y-107867717D01*
X142576957Y-108021984D01*
X142516782Y-108193955D01*
X142496383Y-108375000D01*
X141864555Y-108375000D01*
X141741047Y-108331783D01*
X141741046Y-108331782D01*
X141741044Y-108331782D01*
X141560000Y-108311383D01*
X141378955Y-108331782D01*
X141206984Y-108391957D01*
X141052717Y-108488890D01*
X140923890Y-108617717D01*
X140826957Y-108771984D01*
X140766782Y-108943955D01*
X140746383Y-109125000D01*
X135024116Y-109125000D01*
X135003717Y-108943953D01*
X134943543Y-108771985D01*
X134846611Y-108617719D01*
X134717781Y-108488889D01*
X134563515Y-108391957D01*
X134391547Y-108331783D01*
X134391546Y-108331782D01*
X134391544Y-108331782D01*
X134210500Y-108311383D01*
X134029455Y-108331782D01*
X133857484Y-108391957D01*
X133703217Y-108488890D01*
X133574390Y-108617717D01*
X133477457Y-108771984D01*
X133417282Y-108943955D01*
X133396883Y-109125000D01*
X130579089Y-109125000D01*
X130543043Y-109021985D01*
X130446111Y-108867719D01*
X130317281Y-108738889D01*
X130163015Y-108641957D01*
X129991047Y-108581783D01*
X129991046Y-108581782D01*
X129991044Y-108581782D01*
X129810000Y-108561383D01*
X129628955Y-108581782D01*
X129456984Y-108641957D01*
X129302717Y-108738890D01*
X129173890Y-108867717D01*
X129076957Y-109021984D01*
X129016782Y-109193955D01*
X128996383Y-109375000D01*
X119864555Y-109375000D01*
X119913015Y-109358043D01*
X120067281Y-109261111D01*
X120196111Y-109132281D01*
X120293043Y-108978015D01*
X120353217Y-108806047D01*
X120373616Y-108625000D01*
X120353217Y-108443953D01*
X120293043Y-108271985D01*
X120200686Y-108125000D01*
X121246383Y-108125000D01*
X121266782Y-108306044D01*
X121266782Y-108306046D01*
X121266783Y-108306047D01*
X121326957Y-108478015D01*
X121423889Y-108632281D01*
X121552719Y-108761111D01*
X121706985Y-108858043D01*
X121878953Y-108918217D01*
X122060000Y-108938616D01*
X122241047Y-108918217D01*
X122413015Y-108858043D01*
X122567281Y-108761111D01*
X122696111Y-108632281D01*
X122793043Y-108478015D01*
X122853217Y-108306047D01*
X122873616Y-108125000D01*
X122853217Y-107943953D01*
X122793043Y-107771985D01*
X122696111Y-107617719D01*
X122567281Y-107488889D01*
X122413015Y-107391957D01*
X122241047Y-107331783D01*
X122241046Y-107331782D01*
X122241044Y-107331782D01*
X122060000Y-107311383D01*
X121878955Y-107331782D01*
X121706984Y-107391957D01*
X121552717Y-107488890D01*
X121423890Y-107617717D01*
X121326957Y-107771984D01*
X121266782Y-107943955D01*
X121246383Y-108125000D01*
X120200686Y-108125000D01*
X120196111Y-108117719D01*
X120067281Y-107988889D01*
X119913015Y-107891957D01*
X119741047Y-107831783D01*
X119741046Y-107831782D01*
X119741044Y-107831782D01*
X119560000Y-107811383D01*
X119378955Y-107831782D01*
X119206984Y-107891957D01*
X119052717Y-107988890D01*
X118923890Y-108117717D01*
X118826957Y-108271984D01*
X118766782Y-108443955D01*
X118746383Y-108625000D01*
X109240832Y-108625000D01*
X109179240Y-108558094D01*
X109001576Y-108419811D01*
X108965067Y-108400053D01*
X108917563Y-108354474D01*
X108900086Y-108291000D01*
X108917563Y-108227526D01*
X108965067Y-108181946D01*
X109001576Y-108162189D01*
X109179240Y-108023906D01*
X109331722Y-107858268D01*
X109454860Y-107669791D01*
X109545296Y-107463616D01*
X109600564Y-107245368D01*
X109619156Y-107021000D01*
X109600564Y-106796632D01*
X109569978Y-106675850D01*
X127091459Y-106675850D01*
X127111858Y-106856894D01*
X127111858Y-106856896D01*
X127111859Y-106856897D01*
X127172033Y-107028865D01*
X127268965Y-107183131D01*
X127397795Y-107311961D01*
X127552061Y-107408893D01*
X127724029Y-107469067D01*
X127844726Y-107482666D01*
X127905075Y-107489466D01*
X127905075Y-107489465D01*
X127905076Y-107489466D01*
X128086123Y-107469067D01*
X128258091Y-107408893D01*
X128412357Y-107311961D01*
X128412359Y-107311958D01*
X128414840Y-107310400D01*
X128453219Y-107294503D01*
X128494696Y-107292174D01*
X128685000Y-107313616D01*
X128866047Y-107293217D01*
X129038015Y-107233043D01*
X129192281Y-107136111D01*
X129321111Y-107007281D01*
X129418043Y-106853015D01*
X129478217Y-106681047D01*
X129498616Y-106500000D01*
X129498030Y-106494803D01*
X129484217Y-106372209D01*
X129478217Y-106318953D01*
X129453914Y-106249500D01*
X131246383Y-106249500D01*
X131266782Y-106430544D01*
X131266782Y-106430546D01*
X131266783Y-106430547D01*
X131326957Y-106602515D01*
X131423889Y-106756781D01*
X131552719Y-106885611D01*
X131706985Y-106982543D01*
X131878953Y-107042717D01*
X132060000Y-107063116D01*
X132241047Y-107042717D01*
X132413015Y-106982543D01*
X132567281Y-106885611D01*
X132696111Y-106756781D01*
X132793043Y-106602515D01*
X132853217Y-106430547D01*
X132873616Y-106249500D01*
X132853217Y-106068453D01*
X132793043Y-105896485D01*
X132696111Y-105742219D01*
X132567281Y-105613389D01*
X132413015Y-105516457D01*
X132241047Y-105456283D01*
X132241046Y-105456282D01*
X132241044Y-105456282D01*
X132060000Y-105435883D01*
X131878955Y-105456282D01*
X131706984Y-105516457D01*
X131552717Y-105613390D01*
X131423890Y-105742217D01*
X131326957Y-105896484D01*
X131266782Y-106068455D01*
X131246383Y-106249500D01*
X129453914Y-106249500D01*
X129418043Y-106146985D01*
X129321111Y-105992719D01*
X129192281Y-105863889D01*
X129038015Y-105766957D01*
X128866047Y-105706783D01*
X128866046Y-105706782D01*
X128866044Y-105706782D01*
X128685000Y-105686383D01*
X128503955Y-105706782D01*
X128331984Y-105766957D01*
X128175235Y-105865449D01*
X128136855Y-105881346D01*
X128095380Y-105883675D01*
X127905076Y-105862233D01*
X127724031Y-105882632D01*
X127552060Y-105942807D01*
X127397793Y-106039740D01*
X127268966Y-106168567D01*
X127172033Y-106322834D01*
X127111858Y-106494805D01*
X127091459Y-106675850D01*
X109569978Y-106675850D01*
X109545296Y-106578384D01*
X109454860Y-106372209D01*
X109331722Y-106183732D01*
X109179240Y-106018094D01*
X109012005Y-105887928D01*
X109001575Y-105879810D01*
X108965067Y-105860053D01*
X108917562Y-105814471D01*
X108900086Y-105750997D01*
X108917564Y-105687523D01*
X108965067Y-105641946D01*
X109001576Y-105622189D01*
X109179240Y-105483906D01*
X109331722Y-105318268D01*
X109454860Y-105129791D01*
X109545296Y-104923616D01*
X109600564Y-104705368D01*
X109619156Y-104481000D01*
X109600564Y-104256632D01*
X109545296Y-104038384D01*
X109454860Y-103832209D01*
X109331722Y-103643732D01*
X109179240Y-103478094D01*
X109001576Y-103339811D01*
X108965067Y-103320053D01*
X108917563Y-103274474D01*
X108906721Y-103235099D01*
X111501500Y-103235099D01*
X111510117Y-103272855D01*
X111512446Y-103286561D01*
X111516782Y-103325043D01*
X111516782Y-103325045D01*
X111516783Y-103325047D01*
X111521949Y-103339811D01*
X111529573Y-103361600D01*
X111533420Y-103374957D01*
X111542039Y-103412719D01*
X111558843Y-103447612D01*
X111564164Y-103460457D01*
X111576957Y-103497016D01*
X111597560Y-103529806D01*
X111604286Y-103541975D01*
X111621090Y-103576869D01*
X111645238Y-103607149D01*
X111653285Y-103618490D01*
X111673889Y-103651282D01*
X111706196Y-103683588D01*
X112493181Y-104470573D01*
X112520061Y-104510801D01*
X112529500Y-104558254D01*
X112529500Y-105620638D01*
X112531791Y-105641944D01*
X112536011Y-105681205D01*
X112587110Y-105818203D01*
X112674738Y-105935261D01*
X112791796Y-106022889D01*
X112928794Y-106073988D01*
X112928797Y-106073988D01*
X112928799Y-106073989D01*
X112989362Y-106080500D01*
X114786634Y-106080500D01*
X114786638Y-106080500D01*
X114847201Y-106073989D01*
X114847203Y-106073988D01*
X114847205Y-106073988D01*
X114943988Y-106037889D01*
X114984204Y-106022889D01*
X115101261Y-105935261D01*
X115188889Y-105818204D01*
X115227952Y-105713473D01*
X115239988Y-105681205D01*
X115239988Y-105681203D01*
X115239989Y-105681201D01*
X115244888Y-105635634D01*
X122689500Y-105635634D01*
X122696011Y-105696205D01*
X122747110Y-105833203D01*
X122834738Y-105950261D01*
X122951796Y-106037889D01*
X123088794Y-106088988D01*
X123088797Y-106088988D01*
X123088799Y-106088989D01*
X123149362Y-106095500D01*
X124946634Y-106095500D01*
X124946638Y-106095500D01*
X125007201Y-106088989D01*
X125007203Y-106088988D01*
X125007205Y-106088988D01*
X125085124Y-106059924D01*
X125144204Y-106037889D01*
X125261261Y-105950261D01*
X125348889Y-105833204D01*
X125373598Y-105766957D01*
X125399988Y-105696205D01*
X125399988Y-105696203D01*
X125399989Y-105696201D01*
X125406500Y-105635638D01*
X125406500Y-103838362D01*
X125399989Y-103777799D01*
X125399988Y-103777797D01*
X125399988Y-103777794D01*
X125348889Y-103640796D01*
X125261261Y-103523738D01*
X125144203Y-103436110D01*
X125014619Y-103387777D01*
X124964240Y-103352798D01*
X124936787Y-103297953D01*
X124938976Y-103236661D01*
X124970272Y-103183914D01*
X125086109Y-103068077D01*
X125221600Y-102874576D01*
X125321430Y-102660492D01*
X125378636Y-102447000D01*
X122717364Y-102447000D01*
X122774569Y-102660492D01*
X122874399Y-102874576D01*
X123009893Y-103068081D01*
X123125727Y-103183915D01*
X123157023Y-103236661D01*
X123159212Y-103297954D01*
X123131759Y-103352798D01*
X123081381Y-103387777D01*
X122951795Y-103436111D01*
X122834738Y-103523738D01*
X122747110Y-103640796D01*
X122696011Y-103777794D01*
X122695537Y-103782205D01*
X122690162Y-103832211D01*
X122689500Y-103838366D01*
X122689500Y-105635634D01*
X115244888Y-105635634D01*
X115246500Y-105620638D01*
X115246500Y-103823362D01*
X115239989Y-103762799D01*
X115239988Y-103762797D01*
X115239988Y-103762794D01*
X115188889Y-103625796D01*
X115101261Y-103508738D01*
X114984203Y-103421110D01*
X114866405Y-103377173D01*
X114816870Y-103343158D01*
X114789143Y-103289848D01*
X114789736Y-103229761D01*
X114818508Y-103177009D01*
X114963722Y-103019268D01*
X115086860Y-102830791D01*
X115177296Y-102624616D01*
X115232564Y-102406368D01*
X115251156Y-102182000D01*
X115232564Y-101957632D01*
X115177296Y-101739384D01*
X115086860Y-101533209D01*
X114963722Y-101344732D01*
X114811240Y-101179094D01*
X114633576Y-101040811D01*
X114597067Y-101021053D01*
X114549563Y-100975474D01*
X114532086Y-100912000D01*
X114549563Y-100848526D01*
X114597067Y-100802946D01*
X114633576Y-100783189D01*
X114811240Y-100644906D01*
X114963722Y-100479268D01*
X115086860Y-100290791D01*
X115177296Y-100084616D01*
X115232564Y-99866368D01*
X115251156Y-99642000D01*
X115239085Y-99496330D01*
X115246237Y-99443413D01*
X115274978Y-99398412D01*
X116203572Y-98469819D01*
X116243801Y-98442939D01*
X116291254Y-98433500D01*
X123046980Y-98433500D01*
X123105998Y-98448445D01*
X123150789Y-98489679D01*
X123170557Y-98547261D01*
X123160535Y-98607312D01*
X123130720Y-98645617D01*
X123131718Y-98646536D01*
X122972279Y-98819730D01*
X122849138Y-99008211D01*
X122758705Y-99214381D01*
X122758704Y-99214384D01*
X122743200Y-99275607D01*
X122703435Y-99432636D01*
X122684843Y-99657000D01*
X122703435Y-99881363D01*
X122703435Y-99881366D01*
X122703436Y-99881368D01*
X122754905Y-100084616D01*
X122758705Y-100099618D01*
X122849138Y-100305788D01*
X122849140Y-100305791D01*
X122972278Y-100494268D01*
X123124760Y-100659906D01*
X123302424Y-100798189D01*
X123345697Y-100821607D01*
X123391336Y-100864156D01*
X123410475Y-100923545D01*
X123398267Y-100984737D01*
X123357803Y-101032236D01*
X123176918Y-101158893D01*
X123009890Y-101325921D01*
X122874398Y-101519424D01*
X122842771Y-101587247D01*
X122797404Y-101639173D01*
X122731316Y-101658838D01*
X122664941Y-101640162D01*
X122618804Y-101588920D01*
X122607170Y-101520958D01*
X122623616Y-101375000D01*
X122603217Y-101193953D01*
X122543043Y-101021985D01*
X122446111Y-100867719D01*
X122317281Y-100738889D01*
X122163015Y-100641957D01*
X121991047Y-100581783D01*
X121991046Y-100581782D01*
X121991044Y-100581782D01*
X121810000Y-100561383D01*
X121628955Y-100581782D01*
X121456984Y-100641957D01*
X121302717Y-100738890D01*
X121173890Y-100867717D01*
X121076957Y-101021984D01*
X121016782Y-101193955D01*
X120996383Y-101375000D01*
X121016782Y-101556044D01*
X121016782Y-101556046D01*
X121016783Y-101556047D01*
X121076957Y-101728015D01*
X121173889Y-101882281D01*
X121302719Y-102011111D01*
X121456985Y-102108043D01*
X121628953Y-102168217D01*
X121810000Y-102188616D01*
X121991047Y-102168217D01*
X122163015Y-102108043D01*
X122317281Y-102011111D01*
X122446111Y-101882281D01*
X122511579Y-101778088D01*
X122563606Y-101731944D01*
X122632296Y-101721064D01*
X122696039Y-101748875D01*
X122734785Y-101806628D01*
X122736346Y-101876156D01*
X122717363Y-101946999D01*
X122717364Y-101947000D01*
X125378636Y-101947000D01*
X125378635Y-101946999D01*
X125321430Y-101733507D01*
X125221599Y-101519421D01*
X125086109Y-101325921D01*
X124919081Y-101158893D01*
X124738197Y-101032236D01*
X124697733Y-100984737D01*
X124685525Y-100923545D01*
X124704664Y-100864156D01*
X124750302Y-100821607D01*
X124793576Y-100798189D01*
X124971240Y-100659906D01*
X125123722Y-100494268D01*
X125246860Y-100305791D01*
X125337296Y-100099616D01*
X125392564Y-99881368D01*
X125411156Y-99657000D01*
X125392564Y-99432632D01*
X125337296Y-99214384D01*
X125246860Y-99008209D01*
X125123722Y-98819732D01*
X124971240Y-98654094D01*
X124971238Y-98654093D01*
X124964282Y-98646536D01*
X124965279Y-98645617D01*
X124935465Y-98607312D01*
X124925443Y-98547261D01*
X124945211Y-98489679D01*
X124990002Y-98448445D01*
X125049020Y-98433500D01*
X137423746Y-98433500D01*
X137471199Y-98442939D01*
X137511427Y-98469819D01*
X139673889Y-100632281D01*
X139802719Y-100761111D01*
X139835524Y-100781723D01*
X139846834Y-100789748D01*
X139877131Y-100813909D01*
X139912029Y-100830714D01*
X139924178Y-100837428D01*
X139956985Y-100858043D01*
X139971302Y-100863052D01*
X139993541Y-100870835D01*
X140006387Y-100876156D01*
X140035846Y-100890342D01*
X140041280Y-100892959D01*
X140079036Y-100901576D01*
X140092384Y-100905421D01*
X140128953Y-100918217D01*
X140143209Y-100919823D01*
X140167437Y-100922553D01*
X140181146Y-100924881D01*
X140218903Y-100933500D01*
X140264594Y-100933500D01*
X140401097Y-100933500D01*
X142193903Y-100933500D01*
X142330406Y-100933500D01*
X142376097Y-100933500D01*
X142413859Y-100924880D01*
X142427548Y-100922553D01*
X142466047Y-100918217D01*
X142502624Y-100905417D01*
X142515942Y-100901581D01*
X142553720Y-100892959D01*
X142588615Y-100876153D01*
X142601449Y-100870836D01*
X142638015Y-100858043D01*
X142670817Y-100837430D01*
X142682961Y-100830719D01*
X142717870Y-100813909D01*
X142748153Y-100789757D01*
X142759478Y-100781721D01*
X142792281Y-100761111D01*
X142921111Y-100632281D01*
X144442076Y-99111314D01*
X144487346Y-99082474D01*
X144540562Y-99075469D01*
X144560000Y-99077170D01*
X144560001Y-99077169D01*
X144560003Y-99077170D01*
X144666547Y-99067848D01*
X144773096Y-99058527D01*
X144979717Y-99003163D01*
X145173585Y-98912760D01*
X145348810Y-98790067D01*
X145500067Y-98638810D01*
X145622760Y-98463585D01*
X145713163Y-98269717D01*
X145768527Y-98063096D01*
X145787170Y-97850000D01*
X145768527Y-97636904D01*
X145713163Y-97430283D01*
X145622760Y-97236415D01*
X145500067Y-97061190D01*
X145500066Y-97061188D01*
X145376559Y-96937681D01*
X145344465Y-96882094D01*
X145344465Y-96817906D01*
X145376559Y-96762319D01*
X145500066Y-96638811D01*
X145500067Y-96638810D01*
X145622760Y-96463585D01*
X145713163Y-96269717D01*
X145768527Y-96063096D01*
X145787170Y-95850000D01*
X145768527Y-95636904D01*
X145713163Y-95430283D01*
X145622760Y-95236415D01*
X145570227Y-95161389D01*
X145500066Y-95061188D01*
X145348811Y-94909933D01*
X145173585Y-94787240D01*
X144979718Y-94696837D01*
X144773093Y-94641472D01*
X144560000Y-94622829D01*
X144346906Y-94641472D01*
X144140281Y-94696837D01*
X143946414Y-94787240D01*
X143771188Y-94909933D01*
X143619933Y-95061188D01*
X143497240Y-95236414D01*
X143422382Y-95396946D01*
X143376625Y-95449122D01*
X143310000Y-95468541D01*
X143243375Y-95449122D01*
X143197618Y-95396946D01*
X143136622Y-95266142D01*
X143122760Y-95236415D01*
X143070227Y-95161389D01*
X143000066Y-95061188D01*
X142848811Y-94909933D01*
X142673585Y-94787240D01*
X142479718Y-94696837D01*
X142273093Y-94641472D01*
X142060000Y-94622829D01*
X141846906Y-94641472D01*
X141640281Y-94696837D01*
X141446414Y-94787240D01*
X141271188Y-94909933D01*
X141119933Y-95061188D01*
X140997240Y-95236414D01*
X140906837Y-95430281D01*
X140851472Y-95636906D01*
X140832829Y-95850000D01*
X140851472Y-96063093D01*
X140906837Y-96269718D01*
X140997240Y-96463585D01*
X141119933Y-96638811D01*
X141243441Y-96762319D01*
X141275535Y-96817906D01*
X141275535Y-96882094D01*
X141243441Y-96937681D01*
X141119933Y-97061188D01*
X140997240Y-97236414D01*
X140906837Y-97430281D01*
X140851472Y-97636906D01*
X140832829Y-97850000D01*
X140851472Y-98063093D01*
X140906837Y-98269718D01*
X140997240Y-98463585D01*
X141119933Y-98638811D01*
X141271188Y-98790066D01*
X141330767Y-98831783D01*
X141446415Y-98912760D01*
X141640283Y-99003163D01*
X141846904Y-99058527D01*
X141914116Y-99064407D01*
X141978793Y-99089556D01*
X142019829Y-99145517D01*
X142024373Y-99214763D01*
X141991001Y-99275606D01*
X141986433Y-99280174D01*
X141946205Y-99307058D01*
X141898746Y-99316500D01*
X140696254Y-99316500D01*
X140648801Y-99307061D01*
X140608573Y-99280181D01*
X138349588Y-97021196D01*
X138317282Y-96988889D01*
X138284490Y-96968285D01*
X138273149Y-96960238D01*
X138242869Y-96936090D01*
X138207975Y-96919286D01*
X138195806Y-96912560D01*
X138163016Y-96891957D01*
X138126457Y-96879164D01*
X138113612Y-96873843D01*
X138078719Y-96857039D01*
X138040957Y-96848420D01*
X138027603Y-96844574D01*
X137991047Y-96831783D01*
X137991045Y-96831782D01*
X137991043Y-96831782D01*
X137952561Y-96827446D01*
X137938855Y-96825117D01*
X137901099Y-96816500D01*
X137901097Y-96816500D01*
X137855406Y-96816500D01*
X115996097Y-96816500D01*
X115813904Y-96816500D01*
X115776149Y-96825117D01*
X115776145Y-96825118D01*
X115762439Y-96827446D01*
X115723954Y-96831782D01*
X115687401Y-96844572D01*
X115674047Y-96848419D01*
X115636279Y-96857040D01*
X115601389Y-96873842D01*
X115588548Y-96879161D01*
X115551986Y-96891955D01*
X115519194Y-96912560D01*
X115507029Y-96919283D01*
X115472134Y-96936088D01*
X115441851Y-96960238D01*
X115430515Y-96968281D01*
X115397720Y-96988888D01*
X115347970Y-97038637D01*
X115347969Y-97038638D01*
X114133577Y-98253029D01*
X114083728Y-98283436D01*
X114025491Y-98287658D01*
X114006491Y-98284488D01*
X114000569Y-98283500D01*
X113775431Y-98283500D01*
X113553363Y-98320556D01*
X113340425Y-98393658D01*
X113301518Y-98414714D01*
X113239938Y-98429634D01*
X113179027Y-98412183D01*
X113134688Y-98366919D01*
X113118500Y-98305660D01*
X113118500Y-98261254D01*
X113127939Y-98213801D01*
X113154819Y-98173573D01*
X115358573Y-95969819D01*
X115398801Y-95942939D01*
X115446254Y-95933500D01*
X124151097Y-95933500D01*
X124188859Y-95924880D01*
X124202548Y-95922553D01*
X124241047Y-95918217D01*
X124277624Y-95905417D01*
X124290942Y-95901581D01*
X124328720Y-95892959D01*
X124363615Y-95876153D01*
X124376449Y-95870836D01*
X124413015Y-95858043D01*
X124445817Y-95837430D01*
X124457961Y-95830719D01*
X124492870Y-95813909D01*
X124523153Y-95789757D01*
X124534478Y-95781721D01*
X124567281Y-95761111D01*
X124696111Y-95632281D01*
X124696111Y-95632280D01*
X125808572Y-94519819D01*
X125848801Y-94492939D01*
X125896254Y-94483500D01*
X126958634Y-94483500D01*
X126958638Y-94483500D01*
X127019201Y-94476989D01*
X127019203Y-94476988D01*
X127019205Y-94476988D01*
X127101097Y-94446443D01*
X127156204Y-94425889D01*
X127273261Y-94338261D01*
X127360889Y-94221204D01*
X127411989Y-94084201D01*
X127418500Y-94023638D01*
X127418500Y-93124999D01*
X128656843Y-93124999D01*
X128675435Y-93349363D01*
X128730705Y-93567618D01*
X128821138Y-93773788D01*
X128821140Y-93773791D01*
X128944278Y-93962268D01*
X129096760Y-94127906D01*
X129274424Y-94266189D01*
X129472426Y-94373342D01*
X129685365Y-94446444D01*
X129907431Y-94483500D01*
X130132569Y-94483500D01*
X130354635Y-94446444D01*
X130567574Y-94373342D01*
X130765576Y-94266189D01*
X130943240Y-94127906D01*
X131006452Y-94059239D01*
X131059073Y-94025387D01*
X131121528Y-94021539D01*
X131177909Y-94048676D01*
X131213861Y-94099889D01*
X131259110Y-94221204D01*
X131346738Y-94338261D01*
X131463796Y-94425889D01*
X131600794Y-94476988D01*
X131600797Y-94476988D01*
X131600799Y-94476989D01*
X131661362Y-94483500D01*
X133458634Y-94483500D01*
X133458638Y-94483500D01*
X133519201Y-94476989D01*
X133519203Y-94476988D01*
X133519205Y-94476988D01*
X133601097Y-94446443D01*
X133656204Y-94425889D01*
X133773261Y-94338261D01*
X133860889Y-94221204D01*
X133911989Y-94084201D01*
X133918500Y-94023638D01*
X133918500Y-93140000D01*
X135118437Y-93140000D01*
X135138664Y-93435698D01*
X135198964Y-93725878D01*
X135298217Y-94005149D01*
X135434574Y-94268309D01*
X135605496Y-94510449D01*
X135727864Y-94641472D01*
X135807794Y-94727056D01*
X136037703Y-94914101D01*
X136290940Y-95068098D01*
X136562788Y-95186178D01*
X136848183Y-95266142D01*
X137141807Y-95306500D01*
X137438193Y-95306500D01*
X137731817Y-95266142D01*
X138017212Y-95186178D01*
X138289060Y-95068098D01*
X138542297Y-94914101D01*
X138772206Y-94727056D01*
X138974505Y-94510447D01*
X139145425Y-94268309D01*
X139281781Y-94005153D01*
X139381035Y-93725880D01*
X139441336Y-93435694D01*
X139461562Y-93140000D01*
X147158437Y-93140000D01*
X147178664Y-93435698D01*
X147238964Y-93725878D01*
X147338217Y-94005149D01*
X147474574Y-94268309D01*
X147645496Y-94510449D01*
X147767864Y-94641472D01*
X147847794Y-94727056D01*
X148077703Y-94914101D01*
X148330940Y-95068098D01*
X148602788Y-95186178D01*
X148888183Y-95266142D01*
X149181807Y-95306500D01*
X149478193Y-95306500D01*
X149771817Y-95266142D01*
X150057212Y-95186178D01*
X150329060Y-95068098D01*
X150582297Y-94914101D01*
X150812206Y-94727056D01*
X151014505Y-94510447D01*
X151039527Y-94474999D01*
X157796539Y-94474999D01*
X157816358Y-94790015D01*
X157875505Y-95100075D01*
X157973043Y-95400265D01*
X158107436Y-95685866D01*
X158276568Y-95952375D01*
X158477769Y-96195585D01*
X158707861Y-96411656D01*
X158963220Y-96597184D01*
X159239819Y-96749246D01*
X159239821Y-96749247D01*
X159533298Y-96865443D01*
X159839025Y-96943940D01*
X160073057Y-96973504D01*
X160152177Y-96983500D01*
X160152179Y-96983500D01*
X160467821Y-96983500D01*
X160467823Y-96983500D01*
X160538068Y-96974625D01*
X160780975Y-96943940D01*
X161086702Y-96865443D01*
X161380179Y-96749247D01*
X161656779Y-96597184D01*
X161656778Y-96597184D01*
X161912138Y-96411656D01*
X162142230Y-96195585D01*
X162142230Y-96195584D01*
X162142233Y-96195582D01*
X162343432Y-95952375D01*
X162512562Y-95685869D01*
X162646956Y-95400266D01*
X162744495Y-95100072D01*
X162803641Y-94790020D01*
X162823460Y-94475000D01*
X162803641Y-94159980D01*
X162744495Y-93849928D01*
X162704189Y-93725880D01*
X162646956Y-93549734D01*
X162512563Y-93264133D01*
X162433786Y-93140000D01*
X162343432Y-92997625D01*
X162142233Y-92754418D01*
X162142230Y-92754414D01*
X161912138Y-92538343D01*
X161656779Y-92352815D01*
X161380180Y-92200753D01*
X161086699Y-92084556D01*
X160780976Y-92006060D01*
X160467823Y-91966500D01*
X160467821Y-91966500D01*
X160152179Y-91966500D01*
X160152177Y-91966500D01*
X159839023Y-92006060D01*
X159533300Y-92084556D01*
X159239819Y-92200753D01*
X158963220Y-92352815D01*
X158707861Y-92538343D01*
X158477769Y-92754414D01*
X158276568Y-92997624D01*
X158107436Y-93264133D01*
X157973043Y-93549734D01*
X157875505Y-93849924D01*
X157816358Y-94159984D01*
X157796539Y-94474999D01*
X151039527Y-94474999D01*
X151185425Y-94268309D01*
X151321781Y-94005153D01*
X151421035Y-93725880D01*
X151481336Y-93435694D01*
X151501562Y-93140000D01*
X151481336Y-92844306D01*
X151421035Y-92554120D01*
X151321781Y-92274847D01*
X151223181Y-92084557D01*
X151185425Y-92011690D01*
X151014503Y-91769550D01*
X150812206Y-91552944D01*
X150812205Y-91552943D01*
X150582297Y-91365899D01*
X150329060Y-91211902D01*
X150057212Y-91093822D01*
X149914514Y-91053840D01*
X149771815Y-91013857D01*
X149478193Y-90973500D01*
X149181807Y-90973500D01*
X148888184Y-91013857D01*
X148654537Y-91079322D01*
X148602788Y-91093822D01*
X148602786Y-91093822D01*
X148602785Y-91093823D01*
X148330939Y-91211902D01*
X148077704Y-91365898D01*
X147847793Y-91552944D01*
X147645496Y-91769550D01*
X147474574Y-92011690D01*
X147338217Y-92274850D01*
X147238964Y-92554121D01*
X147178664Y-92844301D01*
X147158437Y-93140000D01*
X139461562Y-93140000D01*
X139441336Y-92844306D01*
X139381035Y-92554120D01*
X139281781Y-92274847D01*
X139183181Y-92084557D01*
X139145425Y-92011690D01*
X138974503Y-91769550D01*
X138772206Y-91552944D01*
X138772205Y-91552943D01*
X138542297Y-91365899D01*
X138289060Y-91211902D01*
X138017212Y-91093822D01*
X137874514Y-91053840D01*
X137731815Y-91013857D01*
X137438193Y-90973500D01*
X137141807Y-90973500D01*
X136848184Y-91013857D01*
X136614537Y-91079322D01*
X136562788Y-91093822D01*
X136562786Y-91093822D01*
X136562785Y-91093823D01*
X136290939Y-91211902D01*
X136037704Y-91365898D01*
X135807793Y-91552944D01*
X135605496Y-91769550D01*
X135434574Y-92011690D01*
X135298217Y-92274850D01*
X135198964Y-92554121D01*
X135138664Y-92844301D01*
X135118437Y-93140000D01*
X133918500Y-93140000D01*
X133918500Y-92226362D01*
X133911989Y-92165799D01*
X133911988Y-92165797D01*
X133911988Y-92165794D01*
X133860889Y-92028796D01*
X133773261Y-91911738D01*
X133656203Y-91824110D01*
X133519205Y-91773011D01*
X133487008Y-91769550D01*
X133458638Y-91766500D01*
X131661362Y-91766500D01*
X131634445Y-91769393D01*
X131600794Y-91773011D01*
X131463796Y-91824110D01*
X131346738Y-91911738D01*
X131259110Y-92028796D01*
X131213861Y-92150110D01*
X131177909Y-92201323D01*
X131121528Y-92228460D01*
X131059074Y-92224612D01*
X131006451Y-92190758D01*
X130943242Y-92122096D01*
X130943241Y-92122095D01*
X130943240Y-92122094D01*
X130765576Y-91983811D01*
X130567574Y-91876658D01*
X130567573Y-91876657D01*
X130567572Y-91876657D01*
X130354636Y-91803556D01*
X130132569Y-91766500D01*
X129907431Y-91766500D01*
X129685363Y-91803556D01*
X129472427Y-91876657D01*
X129274424Y-91983811D01*
X129096760Y-92122094D01*
X128944279Y-92287730D01*
X128821138Y-92476211D01*
X128730705Y-92682381D01*
X128730704Y-92682384D01*
X128689701Y-92844301D01*
X128675435Y-92900636D01*
X128656843Y-93124999D01*
X127418500Y-93124999D01*
X127418500Y-92226362D01*
X127411989Y-92165799D01*
X127411988Y-92165797D01*
X127411988Y-92165794D01*
X127360889Y-92028796D01*
X127273261Y-91911738D01*
X127156203Y-91824110D01*
X127019205Y-91773011D01*
X126987008Y-91769550D01*
X126958638Y-91766500D01*
X125161362Y-91766500D01*
X125134445Y-91769393D01*
X125100794Y-91773011D01*
X124963796Y-91824110D01*
X124846738Y-91911738D01*
X124759110Y-92028796D01*
X124713861Y-92150110D01*
X124677909Y-92201323D01*
X124621528Y-92228460D01*
X124559074Y-92224612D01*
X124506451Y-92190758D01*
X124443242Y-92122096D01*
X124443241Y-92122095D01*
X124443240Y-92122094D01*
X124265576Y-91983811D01*
X124067574Y-91876658D01*
X124067573Y-91876657D01*
X124067572Y-91876657D01*
X123854636Y-91803556D01*
X123632569Y-91766500D01*
X123407431Y-91766500D01*
X123185363Y-91803556D01*
X122972427Y-91876657D01*
X122774424Y-91983811D01*
X122596760Y-92122094D01*
X122444279Y-92287730D01*
X122321138Y-92476211D01*
X122230705Y-92682381D01*
X122230704Y-92682384D01*
X122189701Y-92844301D01*
X122175435Y-92900636D01*
X122156843Y-93124999D01*
X122175435Y-93349363D01*
X122230705Y-93567618D01*
X122321138Y-93773788D01*
X122444281Y-93962273D01*
X122578910Y-94108517D01*
X122606814Y-94158101D01*
X122609636Y-94214929D01*
X122586780Y-94267034D01*
X122543061Y-94303446D01*
X122487681Y-94316500D01*
X118003940Y-94316500D01*
X117946465Y-94302376D01*
X117902084Y-94263220D01*
X117880907Y-94207953D01*
X117887758Y-94149166D01*
X117911989Y-94084201D01*
X117918500Y-94023638D01*
X117918500Y-92226362D01*
X117911989Y-92165799D01*
X117911988Y-92165797D01*
X117911988Y-92165794D01*
X117860889Y-92028796D01*
X117773261Y-91911738D01*
X117656203Y-91824110D01*
X117519205Y-91773011D01*
X117487008Y-91769550D01*
X117458638Y-91766500D01*
X115661362Y-91766500D01*
X115634445Y-91769393D01*
X115600794Y-91773011D01*
X115463796Y-91824110D01*
X115346738Y-91911738D01*
X115259110Y-92028796D01*
X115213861Y-92150110D01*
X115177909Y-92201323D01*
X115121528Y-92228460D01*
X115059074Y-92224612D01*
X115006451Y-92190758D01*
X114943242Y-92122096D01*
X114943241Y-92122095D01*
X114943240Y-92122094D01*
X114765576Y-91983811D01*
X114567574Y-91876658D01*
X114567573Y-91876657D01*
X114567572Y-91876657D01*
X114354636Y-91803556D01*
X114132569Y-91766500D01*
X113907431Y-91766500D01*
X113685363Y-91803556D01*
X113472427Y-91876657D01*
X113274424Y-91983811D01*
X113096760Y-92122094D01*
X112944279Y-92287730D01*
X112821138Y-92476211D01*
X112730705Y-92682381D01*
X112730704Y-92682384D01*
X112689701Y-92844301D01*
X112675435Y-92900636D01*
X112656843Y-93124999D01*
X112675435Y-93349363D01*
X112730705Y-93567618D01*
X112821138Y-93773788D01*
X112821140Y-93773791D01*
X112944278Y-93962268D01*
X113096760Y-94127906D01*
X113274424Y-94266189D01*
X113472426Y-94373342D01*
X113685365Y-94446444D01*
X113907431Y-94483500D01*
X114132567Y-94483500D01*
X114132569Y-94483500D01*
X114261553Y-94461976D01*
X114323189Y-94467340D01*
X114374565Y-94501822D01*
X114402882Y-94556835D01*
X114401093Y-94618683D01*
X114369640Y-94671966D01*
X111785278Y-97256329D01*
X111785277Y-97256330D01*
X111785278Y-97256330D01*
X111673887Y-97367721D01*
X111653285Y-97400508D01*
X111645243Y-97411842D01*
X111621089Y-97442131D01*
X111604284Y-97477026D01*
X111597562Y-97489190D01*
X111576958Y-97521982D01*
X111576956Y-97521985D01*
X111576957Y-97521985D01*
X111564163Y-97558546D01*
X111558848Y-97571378D01*
X111542040Y-97606281D01*
X111533419Y-97644047D01*
X111529572Y-97657401D01*
X111516782Y-97693954D01*
X111512446Y-97732438D01*
X111510118Y-97746144D01*
X111501500Y-97783905D01*
X111501500Y-103235099D01*
X108906721Y-103235099D01*
X108900086Y-103211000D01*
X108917563Y-103147526D01*
X108965067Y-103101946D01*
X109001576Y-103082189D01*
X109179240Y-102943906D01*
X109331722Y-102778268D01*
X109454860Y-102589791D01*
X109545296Y-102383616D01*
X109600564Y-102165368D01*
X109619156Y-101941000D01*
X109600564Y-101716632D01*
X109545296Y-101498384D01*
X109454860Y-101292209D01*
X109331722Y-101103732D01*
X109179240Y-100938094D01*
X109001576Y-100799811D01*
X108803574Y-100692658D01*
X108803573Y-100692657D01*
X108803572Y-100692657D01*
X108590636Y-100619556D01*
X108368569Y-100582500D01*
X108143431Y-100582500D01*
X107921363Y-100619556D01*
X107708427Y-100692657D01*
X107510424Y-100799811D01*
X107332760Y-100938094D01*
X107180279Y-101103730D01*
X107089809Y-101242205D01*
X107045017Y-101283438D01*
X106986000Y-101298383D01*
X106926983Y-101283438D01*
X106882191Y-101242205D01*
X106862043Y-101211367D01*
X106791722Y-101103732D01*
X106639240Y-100938094D01*
X106461576Y-100799811D01*
X106263574Y-100692658D01*
X106263573Y-100692657D01*
X106263572Y-100692657D01*
X106050636Y-100619556D01*
X105828569Y-100582500D01*
X105603431Y-100582500D01*
X105381363Y-100619556D01*
X105168427Y-100692657D01*
X104970424Y-100799811D01*
X104792760Y-100938094D01*
X104640279Y-101103730D01*
X104517138Y-101292211D01*
X104471006Y-101397384D01*
X104426704Y-101498384D01*
X104371436Y-101716632D01*
X104371435Y-101716636D01*
X104352843Y-101941000D01*
X104371435Y-102165363D01*
X104371435Y-102165366D01*
X104371436Y-102165368D01*
X104401127Y-102282616D01*
X104426705Y-102383618D01*
X104517138Y-102589788D01*
X104517140Y-102589791D01*
X104640278Y-102778268D01*
X104792760Y-102943906D01*
X104970424Y-103082189D01*
X104970426Y-103082190D01*
X105006931Y-103101946D01*
X105054436Y-103147527D01*
X105071913Y-103211000D01*
X105054436Y-103274473D01*
X105006931Y-103320054D01*
X104970426Y-103339809D01*
X104792760Y-103478094D01*
X104640279Y-103643730D01*
X104517138Y-103832211D01*
X104426705Y-104038381D01*
X104371435Y-104256636D01*
X104352843Y-104481000D01*
X104371435Y-104705363D01*
X104371435Y-104705366D01*
X104371436Y-104705368D01*
X104401127Y-104822616D01*
X104426705Y-104923618D01*
X104517138Y-105129788D01*
X104517140Y-105129791D01*
X104640278Y-105318268D01*
X104792760Y-105483906D01*
X104970424Y-105622189D01*
X105006930Y-105641945D01*
X105054435Y-105687524D01*
X105071913Y-105750997D01*
X105054437Y-105814471D01*
X105006933Y-105860052D01*
X104970427Y-105879809D01*
X104970425Y-105879810D01*
X104970424Y-105879811D01*
X104816460Y-105999647D01*
X104792760Y-106018094D01*
X104640279Y-106183730D01*
X104517138Y-106372211D01*
X104446000Y-106534393D01*
X104426704Y-106578384D01*
X104397013Y-106695632D01*
X104371435Y-106796636D01*
X104352843Y-107021000D01*
X104371435Y-107245363D01*
X104371435Y-107245366D01*
X104371436Y-107245368D01*
X104412846Y-107408893D01*
X104426705Y-107463618D01*
X104517138Y-107669788D01*
X104517140Y-107669791D01*
X104640278Y-107858268D01*
X104792760Y-108023906D01*
X104970424Y-108162189D01*
X104970426Y-108162190D01*
X105006931Y-108181946D01*
X105054436Y-108227527D01*
X105071913Y-108291000D01*
X105054436Y-108354473D01*
X105006931Y-108400054D01*
X104970426Y-108419809D01*
X104792760Y-108558094D01*
X104640279Y-108723730D01*
X104517138Y-108912211D01*
X104446000Y-109074393D01*
X104426704Y-109118384D01*
X104408919Y-109188616D01*
X104371435Y-109336636D01*
X104352843Y-109561000D01*
X104371435Y-109785363D01*
X104371435Y-109785366D01*
X104371436Y-109785368D01*
X104401127Y-109902616D01*
X104426705Y-110003618D01*
X104517138Y-110209788D01*
X104517140Y-110209791D01*
X104640278Y-110398268D01*
X104792760Y-110563906D01*
X104970424Y-110702189D01*
X105006930Y-110721945D01*
X105054435Y-110767524D01*
X105071913Y-110830997D01*
X105054437Y-110894471D01*
X105006933Y-110940052D01*
X104970427Y-110959809D01*
X104792760Y-111098094D01*
X104640279Y-111263730D01*
X104517138Y-111452211D01*
X104446000Y-111614393D01*
X104426704Y-111658384D01*
X104406317Y-111738889D01*
X104371435Y-111876636D01*
X104352843Y-112100999D01*
X104371435Y-112325363D01*
X104371435Y-112325366D01*
X104371436Y-112325368D01*
X104421226Y-112521985D01*
X104426705Y-112543618D01*
X104517138Y-112749788D01*
X104517140Y-112749791D01*
X104640278Y-112938268D01*
X104792760Y-113103906D01*
X104970424Y-113242189D01*
X104970426Y-113242190D01*
X105006931Y-113261946D01*
X105054436Y-113307527D01*
X105071913Y-113371000D01*
X105054436Y-113434473D01*
X105006931Y-113480054D01*
X104970426Y-113499809D01*
X104792760Y-113638094D01*
X104640279Y-113803730D01*
X104517138Y-113992211D01*
X104426705Y-114198381D01*
X104426704Y-114198384D01*
X104376609Y-114396203D01*
X104371435Y-114416636D01*
X104352843Y-114641000D01*
X104371435Y-114865363D01*
X104371435Y-114865366D01*
X104371436Y-114865368D01*
X104421074Y-115061384D01*
X104426705Y-115083618D01*
X104517138Y-115289788D01*
X104517140Y-115289791D01*
X104640278Y-115478268D01*
X104792760Y-115643906D01*
X104970424Y-115782189D01*
X104970426Y-115782190D01*
X105006931Y-115801946D01*
X105054436Y-115847527D01*
X105071913Y-115911000D01*
X105054436Y-115974473D01*
X105006931Y-116020054D01*
X104970426Y-116039809D01*
X104792760Y-116178094D01*
X104640279Y-116343730D01*
X104517138Y-116532211D01*
X104426705Y-116738381D01*
X104426704Y-116738384D01*
X104374647Y-116943953D01*
X104371435Y-116956636D01*
X104352843Y-117181000D01*
X104371435Y-117405363D01*
X104371435Y-117405366D01*
X104371436Y-117405368D01*
X104406221Y-117542732D01*
X104426705Y-117623618D01*
X104517138Y-117829788D01*
X104517140Y-117829791D01*
X104640278Y-118018268D01*
X104792760Y-118183906D01*
X104970424Y-118322189D01*
X104970426Y-118322190D01*
X105006931Y-118341946D01*
X105054436Y-118387527D01*
X105071913Y-118451000D01*
X105054436Y-118514473D01*
X105006931Y-118560054D01*
X104970426Y-118579809D01*
X104792760Y-118718094D01*
X104640279Y-118883730D01*
X104517138Y-119072211D01*
X104426705Y-119278381D01*
X104426704Y-119278384D01*
X104386128Y-119438616D01*
X104371435Y-119496636D01*
X104352843Y-119720999D01*
X104371435Y-119945363D01*
X104371435Y-119945366D01*
X104371436Y-119945368D01*
X104422492Y-120146985D01*
X104426705Y-120163618D01*
X104517138Y-120369788D01*
X104517140Y-120369791D01*
X104640278Y-120558268D01*
X104792760Y-120723906D01*
X104970424Y-120862189D01*
X105006930Y-120881945D01*
X105054435Y-120927524D01*
X105071913Y-120990997D01*
X105054437Y-121054471D01*
X105006933Y-121100052D01*
X104970427Y-121119809D01*
X104970425Y-121119810D01*
X104970424Y-121119811D01*
X104824945Y-121233043D01*
X104792760Y-121258094D01*
X104640279Y-121423730D01*
X104517138Y-121612211D01*
X104432115Y-121806047D01*
X104426704Y-121818384D01*
X104408073Y-121891957D01*
X104371435Y-122036636D01*
X104352843Y-122261000D01*
X96057260Y-122261000D01*
X96008440Y-122078804D01*
X95914488Y-121877324D01*
X95786977Y-121695219D01*
X95629781Y-121538023D01*
X95447677Y-121410512D01*
X95333738Y-121357381D01*
X95281563Y-121311625D01*
X95262144Y-121245000D01*
X95281563Y-121178375D01*
X95333739Y-121132618D01*
X95447677Y-121079488D01*
X95629781Y-120951977D01*
X95786977Y-120794781D01*
X95914488Y-120612677D01*
X96008440Y-120411196D01*
X96065978Y-120196463D01*
X96085353Y-119975000D01*
X96065978Y-119753537D01*
X96008440Y-119538804D01*
X95914488Y-119337324D01*
X95786977Y-119155219D01*
X95629781Y-118998023D01*
X95447677Y-118870512D01*
X95333738Y-118817381D01*
X95281563Y-118771625D01*
X95262144Y-118705000D01*
X95281563Y-118638375D01*
X95333739Y-118592618D01*
X95447677Y-118539488D01*
X95629781Y-118411977D01*
X95786977Y-118254781D01*
X95914488Y-118072677D01*
X96008440Y-117871196D01*
X96065978Y-117656463D01*
X96085353Y-117435000D01*
X96065978Y-117213537D01*
X96008440Y-116998804D01*
X95914488Y-116797324D01*
X95786977Y-116615219D01*
X95629781Y-116458023D01*
X95447677Y-116330512D01*
X95447676Y-116330511D01*
X95447674Y-116330510D01*
X95333739Y-116277381D01*
X95281563Y-116231623D01*
X95262144Y-116164998D01*
X95281564Y-116098373D01*
X95333738Y-116052618D01*
X95447677Y-115999488D01*
X95629781Y-115871977D01*
X95786977Y-115714781D01*
X95914488Y-115532677D01*
X96008440Y-115331196D01*
X96065978Y-115116463D01*
X96085353Y-114895000D01*
X96065978Y-114673537D01*
X96008440Y-114458804D01*
X95914488Y-114257324D01*
X95786977Y-114075219D01*
X95629781Y-113918023D01*
X95447677Y-113790512D01*
X95333738Y-113737381D01*
X95281563Y-113691625D01*
X95262144Y-113625000D01*
X95281563Y-113558375D01*
X95333739Y-113512618D01*
X95336975Y-113511109D01*
X95447677Y-113459488D01*
X95629781Y-113331977D01*
X95786977Y-113174781D01*
X95914488Y-112992677D01*
X96008440Y-112791196D01*
X96065978Y-112576463D01*
X96085353Y-112355000D01*
X96065978Y-112133537D01*
X96008440Y-111918804D01*
X95914488Y-111717324D01*
X95786977Y-111535219D01*
X95629781Y-111378023D01*
X95447677Y-111250512D01*
X95333738Y-111197381D01*
X95281563Y-111151625D01*
X95262144Y-111085000D01*
X95281563Y-111018375D01*
X95333739Y-110972618D01*
X95447677Y-110919488D01*
X95629781Y-110791977D01*
X95786977Y-110634781D01*
X95914488Y-110452677D01*
X96008440Y-110251196D01*
X96065978Y-110036463D01*
X96085353Y-109815000D01*
X96065978Y-109593537D01*
X96008440Y-109378804D01*
X95914488Y-109177324D01*
X95786977Y-108995219D01*
X95629781Y-108838023D01*
X95447677Y-108710512D01*
X95333738Y-108657381D01*
X95281563Y-108611625D01*
X95262144Y-108545000D01*
X95281563Y-108478375D01*
X95333739Y-108432618D01*
X95447677Y-108379488D01*
X95629781Y-108251977D01*
X95786977Y-108094781D01*
X95914488Y-107912677D01*
X96008440Y-107711196D01*
X96065978Y-107496463D01*
X96085353Y-107275000D01*
X96065978Y-107053537D01*
X96008440Y-106838804D01*
X95914488Y-106637324D01*
X95786977Y-106455219D01*
X95629781Y-106298023D01*
X95447677Y-106170512D01*
X95386441Y-106141957D01*
X95323683Y-106112692D01*
X95271507Y-106066934D01*
X95252088Y-106000309D01*
X95271508Y-105933684D01*
X95323684Y-105887927D01*
X95443412Y-105832097D01*
X95508187Y-105786740D01*
X94810001Y-105088553D01*
X94810000Y-105088553D01*
X94111812Y-105786740D01*
X94176592Y-105832100D01*
X94296316Y-105887928D01*
X94348492Y-105933684D01*
X94367912Y-106000309D01*
X94348493Y-106066934D01*
X94296318Y-106112692D01*
X94172321Y-106170513D01*
X93990218Y-106298023D01*
X93833023Y-106455218D01*
X93705512Y-106637323D01*
X93611560Y-106838802D01*
X93554021Y-107053539D01*
X93534646Y-107275000D01*
X93554021Y-107496460D01*
X93611560Y-107711197D01*
X93633044Y-107757269D01*
X93705512Y-107912677D01*
X93833023Y-108094781D01*
X93990219Y-108251977D01*
X94172323Y-108379488D01*
X94253293Y-108417245D01*
X94286260Y-108432618D01*
X94338436Y-108478375D01*
X94357855Y-108545000D01*
X94338436Y-108611625D01*
X94286260Y-108657382D01*
X94172323Y-108710512D01*
X93990218Y-108838023D01*
X93833023Y-108995218D01*
X93705512Y-109177323D01*
X93611560Y-109378802D01*
X93554021Y-109593539D01*
X93534646Y-109815000D01*
X93554021Y-110036460D01*
X93611560Y-110251197D01*
X93633044Y-110297269D01*
X93705512Y-110452677D01*
X93833023Y-110634781D01*
X93990219Y-110791977D01*
X94172323Y-110919488D01*
X94253293Y-110957245D01*
X94286260Y-110972618D01*
X94338436Y-111018375D01*
X94357855Y-111085000D01*
X94338436Y-111151625D01*
X94286260Y-111197382D01*
X94172323Y-111250512D01*
X93990218Y-111378023D01*
X93833023Y-111535218D01*
X93705512Y-111717323D01*
X93611560Y-111918802D01*
X93554021Y-112133539D01*
X93534646Y-112354999D01*
X93554021Y-112576460D01*
X93611560Y-112791197D01*
X93654034Y-112882282D01*
X93705512Y-112992677D01*
X93833023Y-113174781D01*
X93990219Y-113331977D01*
X94172323Y-113459488D01*
X94235374Y-113488889D01*
X94286260Y-113512618D01*
X94338436Y-113558375D01*
X94357855Y-113625000D01*
X94338436Y-113691625D01*
X94286260Y-113737382D01*
X94172323Y-113790512D01*
X93990218Y-113918023D01*
X93833023Y-114075218D01*
X93705512Y-114257323D01*
X93611560Y-114458802D01*
X93554021Y-114673539D01*
X93534646Y-114894999D01*
X93554021Y-115116460D01*
X93611560Y-115331197D01*
X93661651Y-115438616D01*
X93705512Y-115532677D01*
X93833023Y-115714781D01*
X93990219Y-115871977D01*
X94172323Y-115999488D01*
X94253293Y-116037245D01*
X94286260Y-116052618D01*
X94338436Y-116098375D01*
X94357855Y-116165000D01*
X94338436Y-116231625D01*
X94286260Y-116277382D01*
X94172323Y-116330512D01*
X93990218Y-116458023D01*
X93833023Y-116615218D01*
X93705512Y-116797323D01*
X93611560Y-116998802D01*
X93554021Y-117213539D01*
X93534646Y-117434999D01*
X93554021Y-117656460D01*
X93611560Y-117871197D01*
X93642424Y-117937384D01*
X93705512Y-118072677D01*
X93833023Y-118254781D01*
X93990219Y-118411977D01*
X94172323Y-118539488D01*
X94253293Y-118577245D01*
X94286260Y-118592618D01*
X94338436Y-118638375D01*
X94357855Y-118705000D01*
X94338436Y-118771625D01*
X94286260Y-118817382D01*
X94172323Y-118870512D01*
X93990218Y-118998023D01*
X93833023Y-119155218D01*
X93705512Y-119337323D01*
X93611560Y-119538802D01*
X93554021Y-119753539D01*
X93534646Y-119974999D01*
X93554021Y-120196460D01*
X93611560Y-120411197D01*
X93647789Y-120488889D01*
X93705512Y-120612677D01*
X93833023Y-120794781D01*
X93990219Y-120951977D01*
X94172323Y-121079488D01*
X94253293Y-121117245D01*
X94286260Y-121132618D01*
X94338436Y-121178375D01*
X94357855Y-121245000D01*
X94338436Y-121311625D01*
X94286260Y-121357382D01*
X94172323Y-121410512D01*
X93990218Y-121538023D01*
X93833023Y-121695218D01*
X93705512Y-121877323D01*
X93611560Y-122078802D01*
X93554021Y-122293539D01*
X93534646Y-122515000D01*
X91635500Y-122515000D01*
X91635500Y-104734999D01*
X93543178Y-104734999D01*
X93562424Y-104954978D01*
X93619579Y-105168281D01*
X93712898Y-105368406D01*
X93758258Y-105433187D01*
X94456446Y-104734999D01*
X95163553Y-104734999D01*
X95861740Y-105433186D01*
X95907100Y-105368408D01*
X96000420Y-105168281D01*
X96057575Y-104954978D01*
X96076821Y-104734999D01*
X96057575Y-104515021D01*
X96000421Y-104301720D01*
X95907098Y-104101589D01*
X95861740Y-104036811D01*
X95163553Y-104734998D01*
X95163553Y-104734999D01*
X94456446Y-104734999D01*
X94456446Y-104734998D01*
X93758258Y-104036812D01*
X93712900Y-104101589D01*
X93619578Y-104301719D01*
X93562424Y-104515021D01*
X93543178Y-104734999D01*
X91635500Y-104734999D01*
X91635500Y-103683258D01*
X94111811Y-103683258D01*
X94810000Y-104381446D01*
X94810001Y-104381446D01*
X95508187Y-103683258D01*
X95443406Y-103637898D01*
X95243281Y-103544579D01*
X95029978Y-103487424D01*
X94810000Y-103468178D01*
X94590021Y-103487424D01*
X94376719Y-103544578D01*
X94176589Y-103637900D01*
X94111812Y-103683258D01*
X94111811Y-103683258D01*
X91635500Y-103683258D01*
X91635500Y-99625000D01*
X99246383Y-99625000D01*
X99266782Y-99806044D01*
X99266782Y-99806046D01*
X99266783Y-99806047D01*
X99326957Y-99978015D01*
X99423889Y-100132281D01*
X99552719Y-100261111D01*
X99706985Y-100358043D01*
X99878953Y-100418217D01*
X100060000Y-100438616D01*
X100241047Y-100418217D01*
X100413015Y-100358043D01*
X100567281Y-100261111D01*
X100696111Y-100132281D01*
X100793043Y-99978015D01*
X100853217Y-99806047D01*
X100873616Y-99625000D01*
X100853217Y-99443953D01*
X100793043Y-99271985D01*
X100696111Y-99117719D01*
X100567281Y-98988889D01*
X100413015Y-98891957D01*
X100241047Y-98831783D01*
X100241046Y-98831782D01*
X100241044Y-98831782D01*
X100060000Y-98811383D01*
X99878955Y-98831782D01*
X99706984Y-98891957D01*
X99552717Y-98988890D01*
X99423890Y-99117717D01*
X99326957Y-99271984D01*
X99266782Y-99443955D01*
X99246383Y-99625000D01*
X91635500Y-99625000D01*
X91635500Y-94474999D01*
X92296539Y-94474999D01*
X92316358Y-94790015D01*
X92375505Y-95100075D01*
X92473043Y-95400265D01*
X92607436Y-95685866D01*
X92776568Y-95952375D01*
X92977769Y-96195585D01*
X93207861Y-96411656D01*
X93463220Y-96597184D01*
X93739819Y-96749246D01*
X93739821Y-96749247D01*
X94033298Y-96865443D01*
X94339025Y-96943940D01*
X94573057Y-96973504D01*
X94652177Y-96983500D01*
X94652179Y-96983500D01*
X94967821Y-96983500D01*
X94967823Y-96983500D01*
X95038068Y-96974625D01*
X95280975Y-96943940D01*
X95586702Y-96865443D01*
X95880179Y-96749247D01*
X96156779Y-96597184D01*
X96156779Y-96597183D01*
X96412138Y-96411656D01*
X96642230Y-96195585D01*
X96642230Y-96195584D01*
X96642233Y-96195582D01*
X96843432Y-95952375D01*
X97012562Y-95685869D01*
X97146956Y-95400266D01*
X97244495Y-95100072D01*
X97303641Y-94790020D01*
X97323460Y-94475000D01*
X97303641Y-94159980D01*
X97244495Y-93849928D01*
X97204189Y-93725880D01*
X97146956Y-93549734D01*
X97012563Y-93264133D01*
X96933786Y-93140000D01*
X96843432Y-92997625D01*
X96642233Y-92754418D01*
X96642230Y-92754414D01*
X96412138Y-92538343D01*
X96156779Y-92352815D01*
X95880180Y-92200753D01*
X95586699Y-92084556D01*
X95280976Y-92006060D01*
X94967823Y-91966500D01*
X94967821Y-91966500D01*
X94652179Y-91966500D01*
X94652177Y-91966500D01*
X94339023Y-92006060D01*
X94033300Y-92084556D01*
X93739819Y-92200753D01*
X93463220Y-92352815D01*
X93207861Y-92538343D01*
X92977769Y-92754414D01*
X92776568Y-92997624D01*
X92607436Y-93264133D01*
X92473043Y-93549734D01*
X92375505Y-93849924D01*
X92316358Y-94159984D01*
X92296539Y-94474999D01*
X91635500Y-94474999D01*
X91635500Y-87127706D01*
X91635559Y-87124999D01*
X92546685Y-87124999D01*
X92565931Y-87492243D01*
X92623457Y-87855452D01*
X92718639Y-88210675D01*
X92850426Y-88553993D01*
X93017381Y-88881662D01*
X93217665Y-89190071D01*
X93217668Y-89190075D01*
X93449098Y-89475867D01*
X93709133Y-89735902D01*
X93994925Y-89967332D01*
X93994927Y-89967333D01*
X93994928Y-89967334D01*
X94303337Y-90167618D01*
X94631006Y-90334573D01*
X94974326Y-90466361D01*
X95329541Y-90561541D01*
X95692759Y-90619069D01*
X96060000Y-90638315D01*
X96427241Y-90619069D01*
X96790459Y-90561541D01*
X97145674Y-90466361D01*
X97488994Y-90334573D01*
X97816658Y-90167620D01*
X97816657Y-90167620D01*
X97816662Y-90167618D01*
X97970866Y-90067475D01*
X98125075Y-89967332D01*
X98410867Y-89735902D01*
X98670902Y-89475867D01*
X98902332Y-89190075D01*
X99002476Y-89035866D01*
X99102618Y-88881662D01*
X99114233Y-88858865D01*
X99269573Y-88553994D01*
X99401361Y-88210674D01*
X99496541Y-87855459D01*
X99554069Y-87492241D01*
X99573315Y-87125000D01*
X155546685Y-87125000D01*
X155565931Y-87492243D01*
X155623457Y-87855452D01*
X155718639Y-88210675D01*
X155850426Y-88553993D01*
X156017381Y-88881662D01*
X156217665Y-89190071D01*
X156217668Y-89190075D01*
X156449098Y-89475867D01*
X156709133Y-89735902D01*
X156994925Y-89967332D01*
X156994927Y-89967333D01*
X156994928Y-89967334D01*
X157303337Y-90167618D01*
X157631006Y-90334573D01*
X157974326Y-90466361D01*
X158329541Y-90561541D01*
X158692759Y-90619069D01*
X159060000Y-90638315D01*
X159427241Y-90619069D01*
X159790459Y-90561541D01*
X160145674Y-90466361D01*
X160488994Y-90334573D01*
X160816658Y-90167620D01*
X160816657Y-90167620D01*
X160816662Y-90167618D01*
X160970866Y-90067476D01*
X161125075Y-89967332D01*
X161410867Y-89735902D01*
X161670902Y-89475867D01*
X161902332Y-89190075D01*
X162002476Y-89035866D01*
X162102618Y-88881662D01*
X162114233Y-88858865D01*
X162269573Y-88553994D01*
X162401361Y-88210674D01*
X162496541Y-87855459D01*
X162554069Y-87492241D01*
X162573315Y-87125000D01*
X162554069Y-86757759D01*
X162496541Y-86394541D01*
X162401361Y-86039326D01*
X162269573Y-85696006D01*
X162104669Y-85372364D01*
X162102618Y-85368338D01*
X161902334Y-85059928D01*
X161902332Y-85059925D01*
X161670902Y-84774133D01*
X161410867Y-84514098D01*
X161125075Y-84282668D01*
X161125073Y-84282667D01*
X161125071Y-84282665D01*
X160816662Y-84082381D01*
X160488993Y-83915426D01*
X160145675Y-83783639D01*
X159790452Y-83688457D01*
X159427243Y-83630931D01*
X159060000Y-83611685D01*
X158692756Y-83630931D01*
X158329547Y-83688457D01*
X157974324Y-83783639D01*
X157631006Y-83915426D01*
X157303338Y-84082381D01*
X156994928Y-84282665D01*
X156709129Y-84514101D01*
X156449101Y-84774129D01*
X156217665Y-85059928D01*
X156017381Y-85368338D01*
X155850426Y-85696006D01*
X155718639Y-86039324D01*
X155623457Y-86394547D01*
X155565931Y-86757756D01*
X155546685Y-87125000D01*
X99573315Y-87125000D01*
X99554069Y-86757759D01*
X99496541Y-86394541D01*
X99401361Y-86039326D01*
X99269573Y-85696006D01*
X99104669Y-85372364D01*
X99102618Y-85368338D01*
X98902334Y-85059928D01*
X98902332Y-85059925D01*
X98670902Y-84774133D01*
X98410867Y-84514098D01*
X98125075Y-84282668D01*
X98125073Y-84282667D01*
X98125071Y-84282665D01*
X97816662Y-84082381D01*
X97488993Y-83915426D01*
X97145675Y-83783639D01*
X96790452Y-83688457D01*
X96427243Y-83630931D01*
X96060000Y-83611685D01*
X95692756Y-83630931D01*
X95329547Y-83688457D01*
X94974324Y-83783639D01*
X94631006Y-83915426D01*
X94303338Y-84082381D01*
X93994928Y-84282665D01*
X93709129Y-84514101D01*
X93449101Y-84774129D01*
X93217665Y-85059928D01*
X93017381Y-85368338D01*
X92850426Y-85696006D01*
X92718639Y-86039324D01*
X92623457Y-86394547D01*
X92565931Y-86757756D01*
X92546685Y-87124999D01*
X91635559Y-87124999D01*
X91635618Y-87122297D01*
X91651534Y-86757759D01*
X91652101Y-86744763D01*
X91653041Y-86734030D01*
X91702013Y-86362044D01*
X91703884Y-86351433D01*
X91785094Y-85985116D01*
X91787881Y-85974716D01*
X91900709Y-85616870D01*
X91904393Y-85606749D01*
X92047976Y-85260109D01*
X92052534Y-85250335D01*
X92225774Y-84917545D01*
X92231169Y-84908200D01*
X92432762Y-84591762D01*
X92438952Y-84582922D01*
X92667349Y-84285269D01*
X92674287Y-84277000D01*
X92927758Y-84000386D01*
X92935386Y-83992758D01*
X93212000Y-83739287D01*
X93220269Y-83732349D01*
X93517922Y-83503952D01*
X93526762Y-83497762D01*
X93843200Y-83296169D01*
X93852545Y-83290774D01*
X94185335Y-83117534D01*
X94195109Y-83112976D01*
X94541749Y-82969393D01*
X94551870Y-82965709D01*
X94909716Y-82852881D01*
X94920116Y-82850094D01*
X95286433Y-82768884D01*
X95297044Y-82767013D01*
X95669030Y-82718041D01*
X95679763Y-82717101D01*
X96057297Y-82700617D01*
X96062706Y-82700500D01*
X96084531Y-82700500D01*
X159035469Y-82700500D01*
X159057294Y-82700500D01*
X159062702Y-82700617D01*
G37*
%TD.AperFunction*%
%TD*%
M02*
