%TF.GenerationSoftware,KiCad,Pcbnew,(6.0.8)*%
%TF.CreationDate,2022-11-03T00:25:58+01:00*%
%TF.ProjectId,crane,6372616e-652e-46b6-9963-61645f706362,rev?*%
%TF.SameCoordinates,Original*%
%TF.FileFunction,Legend,Bot*%
%TF.FilePolarity,Positive*%
%FSLAX46Y46*%
G04 Gerber Fmt 4.6, Leading zero omitted, Abs format (unit mm)*
G04 Created by KiCad (PCBNEW (6.0.8)) date 2022-11-03 00:25:58*
%MOMM*%
%LPD*%
G01*
G04 APERTURE LIST*
%ADD10C,0.150000*%
%ADD11C,0.254000*%
%ADD12C,0.200000*%
%ADD13C,0.120000*%
%ADD14C,0.152400*%
%ADD15C,0.100000*%
G04 APERTURE END LIST*
D10*
%TO.C,J1*%
X123452380Y-101666666D02*
X124166666Y-101666666D01*
X124309523Y-101619047D01*
X124404761Y-101523809D01*
X124452380Y-101380952D01*
X124452380Y-101285714D01*
X124452380Y-102666666D02*
X124452380Y-102095238D01*
X124452380Y-102380952D02*
X123452380Y-102380952D01*
X123595238Y-102285714D01*
X123690476Y-102190476D01*
X123738095Y-102095238D01*
%TO.C,U1*%
X147952380Y-118238095D02*
X148761904Y-118238095D01*
X148857142Y-118285714D01*
X148904761Y-118333333D01*
X148952380Y-118428571D01*
X148952380Y-118619047D01*
X148904761Y-118714285D01*
X148857142Y-118761904D01*
X148761904Y-118809523D01*
X147952380Y-118809523D01*
X148952380Y-119809523D02*
X148952380Y-119238095D01*
X148952380Y-119523809D02*
X147952380Y-119523809D01*
X148095238Y-119428571D01*
X148190476Y-119333333D01*
X148238095Y-119238095D01*
X121724404Y-123262380D02*
X121724404Y-122262380D01*
X121486309Y-122262380D01*
X121343452Y-122310000D01*
X121248214Y-122405238D01*
X121200595Y-122500476D01*
X121152976Y-122690952D01*
X121152976Y-122833809D01*
X121200595Y-123024285D01*
X121248214Y-123119523D01*
X121343452Y-123214761D01*
X121486309Y-123262380D01*
X121724404Y-123262380D01*
X120152976Y-123167142D02*
X120200595Y-123214761D01*
X120343452Y-123262380D01*
X120438690Y-123262380D01*
X120581547Y-123214761D01*
X120676785Y-123119523D01*
X120724404Y-123024285D01*
X120772023Y-122833809D01*
X120772023Y-122690952D01*
X120724404Y-122500476D01*
X120676785Y-122405238D01*
X120581547Y-122310000D01*
X120438690Y-122262380D01*
X120343452Y-122262380D01*
X120200595Y-122310000D01*
X120152976Y-122357619D01*
X121200595Y-112160000D02*
X121295833Y-112112380D01*
X121438690Y-112112380D01*
X121581547Y-112160000D01*
X121676785Y-112255238D01*
X121724404Y-112350476D01*
X121772023Y-112540952D01*
X121772023Y-112683809D01*
X121724404Y-112874285D01*
X121676785Y-112969523D01*
X121581547Y-113064761D01*
X121438690Y-113112380D01*
X121343452Y-113112380D01*
X121200595Y-113064761D01*
X121152976Y-113017142D01*
X121152976Y-112683809D01*
X121343452Y-112683809D01*
X120724404Y-113112380D02*
X120724404Y-112112380D01*
X120152976Y-113112380D01*
X120152976Y-112112380D01*
X119676785Y-113112380D02*
X119676785Y-112112380D01*
X119438690Y-112112380D01*
X119295833Y-112160000D01*
X119200595Y-112255238D01*
X119152976Y-112350476D01*
X119105357Y-112540952D01*
X119105357Y-112683809D01*
X119152976Y-112874285D01*
X119200595Y-112969523D01*
X119295833Y-113064761D01*
X119438690Y-113112380D01*
X119676785Y-113112380D01*
X121724404Y-115642380D02*
X121724404Y-114642380D01*
X121486309Y-114642380D01*
X121343452Y-114690000D01*
X121248214Y-114785238D01*
X121200595Y-114880476D01*
X121152976Y-115070952D01*
X121152976Y-115213809D01*
X121200595Y-115404285D01*
X121248214Y-115499523D01*
X121343452Y-115594761D01*
X121486309Y-115642380D01*
X121724404Y-115642380D01*
X120724404Y-115642380D02*
X120724404Y-114642380D01*
X120248214Y-115642380D02*
X120248214Y-114642380D01*
X119676785Y-115642380D01*
X119676785Y-114642380D01*
X121391071Y-127818571D02*
X121248214Y-127866190D01*
X121200595Y-127913809D01*
X121152976Y-128009047D01*
X121152976Y-128151904D01*
X121200595Y-128247142D01*
X121248214Y-128294761D01*
X121343452Y-128342380D01*
X121724404Y-128342380D01*
X121724404Y-127342380D01*
X121391071Y-127342380D01*
X121295833Y-127390000D01*
X121248214Y-127437619D01*
X121200595Y-127532857D01*
X121200595Y-127628095D01*
X121248214Y-127723333D01*
X121295833Y-127770952D01*
X121391071Y-127818571D01*
X121724404Y-127818571D01*
X120248214Y-128342380D02*
X120724404Y-128342380D01*
X120724404Y-127342380D01*
X121152976Y-118087142D02*
X121200595Y-118134761D01*
X121343452Y-118182380D01*
X121438690Y-118182380D01*
X121581547Y-118134761D01*
X121676785Y-118039523D01*
X121724404Y-117944285D01*
X121772023Y-117753809D01*
X121772023Y-117610952D01*
X121724404Y-117420476D01*
X121676785Y-117325238D01*
X121581547Y-117230000D01*
X121438690Y-117182380D01*
X121343452Y-117182380D01*
X121200595Y-117230000D01*
X121152976Y-117277619D01*
X120248214Y-118182380D02*
X120724404Y-118182380D01*
X120724404Y-117182380D01*
X119914880Y-118182380D02*
X119914880Y-117182380D01*
X119343452Y-118182380D02*
X119772023Y-117610952D01*
X119343452Y-117182380D02*
X119914880Y-117753809D01*
X121152976Y-120627142D02*
X121200595Y-120674761D01*
X121343452Y-120722380D01*
X121438690Y-120722380D01*
X121581547Y-120674761D01*
X121676785Y-120579523D01*
X121724404Y-120484285D01*
X121772023Y-120293809D01*
X121772023Y-120150952D01*
X121724404Y-119960476D01*
X121676785Y-119865238D01*
X121581547Y-119770000D01*
X121438690Y-119722380D01*
X121343452Y-119722380D01*
X121200595Y-119770000D01*
X121152976Y-119817619D01*
X120772023Y-120674761D02*
X120629166Y-120722380D01*
X120391071Y-120722380D01*
X120295833Y-120674761D01*
X120248214Y-120627142D01*
X120200595Y-120531904D01*
X120200595Y-120436666D01*
X120248214Y-120341428D01*
X120295833Y-120293809D01*
X120391071Y-120246190D01*
X120581547Y-120198571D01*
X120676785Y-120150952D01*
X120724404Y-120103333D01*
X120772023Y-120008095D01*
X120772023Y-119912857D01*
X120724404Y-119817619D01*
X120676785Y-119770000D01*
X120581547Y-119722380D01*
X120343452Y-119722380D01*
X120200595Y-119770000D01*
X121867261Y-109562380D02*
X121533928Y-110562380D01*
X121200595Y-109562380D01*
X120295833Y-110467142D02*
X120343452Y-110514761D01*
X120486309Y-110562380D01*
X120581547Y-110562380D01*
X120724404Y-110514761D01*
X120819642Y-110419523D01*
X120867261Y-110324285D01*
X120914880Y-110133809D01*
X120914880Y-109990952D01*
X120867261Y-109800476D01*
X120819642Y-109705238D01*
X120724404Y-109610000D01*
X120581547Y-109562380D01*
X120486309Y-109562380D01*
X120343452Y-109610000D01*
X120295833Y-109657619D01*
X119295833Y-110467142D02*
X119343452Y-110514761D01*
X119486309Y-110562380D01*
X119581547Y-110562380D01*
X119724404Y-110514761D01*
X119819642Y-110419523D01*
X119867261Y-110324285D01*
X119914880Y-110133809D01*
X119914880Y-109990952D01*
X119867261Y-109800476D01*
X119819642Y-109705238D01*
X119724404Y-109610000D01*
X119581547Y-109562380D01*
X119486309Y-109562380D01*
X119343452Y-109610000D01*
X119295833Y-109657619D01*
X121152976Y-125802380D02*
X121486309Y-125326190D01*
X121724404Y-125802380D02*
X121724404Y-124802380D01*
X121343452Y-124802380D01*
X121248214Y-124850000D01*
X121200595Y-124897619D01*
X121152976Y-124992857D01*
X121152976Y-125135714D01*
X121200595Y-125230952D01*
X121248214Y-125278571D01*
X121343452Y-125326190D01*
X121724404Y-125326190D01*
X120772023Y-125754761D02*
X120629166Y-125802380D01*
X120391071Y-125802380D01*
X120295833Y-125754761D01*
X120248214Y-125707142D01*
X120200595Y-125611904D01*
X120200595Y-125516666D01*
X120248214Y-125421428D01*
X120295833Y-125373809D01*
X120391071Y-125326190D01*
X120581547Y-125278571D01*
X120676785Y-125230952D01*
X120724404Y-125183333D01*
X120772023Y-125088095D01*
X120772023Y-124992857D01*
X120724404Y-124897619D01*
X120676785Y-124850000D01*
X120581547Y-124802380D01*
X120343452Y-124802380D01*
X120200595Y-124850000D01*
X119914880Y-124802380D02*
X119343452Y-124802380D01*
X119629166Y-125802380D02*
X119629166Y-124802380D01*
%TO.C,D7*%
X126738095Y-220002380D02*
X126738095Y-219002380D01*
X126500000Y-219002380D01*
X126357142Y-219050000D01*
X126261904Y-219145238D01*
X126214285Y-219240476D01*
X126166666Y-219430952D01*
X126166666Y-219573809D01*
X126214285Y-219764285D01*
X126261904Y-219859523D01*
X126357142Y-219954761D01*
X126500000Y-220002380D01*
X126738095Y-220002380D01*
X125833333Y-219002380D02*
X125166666Y-219002380D01*
X125595238Y-220002380D01*
%TO.C,C1*%
X166666666Y-105037142D02*
X166714285Y-105084761D01*
X166857142Y-105132380D01*
X166952380Y-105132380D01*
X167095238Y-105084761D01*
X167190476Y-104989523D01*
X167238095Y-104894285D01*
X167285714Y-104703809D01*
X167285714Y-104560952D01*
X167238095Y-104370476D01*
X167190476Y-104275238D01*
X167095238Y-104180000D01*
X166952380Y-104132380D01*
X166857142Y-104132380D01*
X166714285Y-104180000D01*
X166666666Y-104227619D01*
X165714285Y-105132380D02*
X166285714Y-105132380D01*
X166000000Y-105132380D02*
X166000000Y-104132380D01*
X166095238Y-104275238D01*
X166190476Y-104370476D01*
X166285714Y-104418095D01*
%TO.C,D3*%
X138738095Y-170002380D02*
X138738095Y-169002380D01*
X138500000Y-169002380D01*
X138357142Y-169050000D01*
X138261904Y-169145238D01*
X138214285Y-169240476D01*
X138166666Y-169430952D01*
X138166666Y-169573809D01*
X138214285Y-169764285D01*
X138261904Y-169859523D01*
X138357142Y-169954761D01*
X138500000Y-170002380D01*
X138738095Y-170002380D01*
X137833333Y-169002380D02*
X137214285Y-169002380D01*
X137547619Y-169383333D01*
X137404761Y-169383333D01*
X137309523Y-169430952D01*
X137261904Y-169478571D01*
X137214285Y-169573809D01*
X137214285Y-169811904D01*
X137261904Y-169907142D01*
X137309523Y-169954761D01*
X137404761Y-170002380D01*
X137690476Y-170002380D01*
X137785714Y-169954761D01*
X137833333Y-169907142D01*
%TO.C,C7*%
X166166666Y-135694642D02*
X166214285Y-135742261D01*
X166357142Y-135789880D01*
X166452380Y-135789880D01*
X166595238Y-135742261D01*
X166690476Y-135647023D01*
X166738095Y-135551785D01*
X166785714Y-135361309D01*
X166785714Y-135218452D01*
X166738095Y-135027976D01*
X166690476Y-134932738D01*
X166595238Y-134837500D01*
X166452380Y-134789880D01*
X166357142Y-134789880D01*
X166214285Y-134837500D01*
X166166666Y-134885119D01*
X165833333Y-134789880D02*
X165166666Y-134789880D01*
X165595238Y-135789880D01*
%TO.C,C9*%
X167529166Y-109357142D02*
X167576785Y-109404761D01*
X167719642Y-109452380D01*
X167814880Y-109452380D01*
X167957738Y-109404761D01*
X168052976Y-109309523D01*
X168100595Y-109214285D01*
X168148214Y-109023809D01*
X168148214Y-108880952D01*
X168100595Y-108690476D01*
X168052976Y-108595238D01*
X167957738Y-108500000D01*
X167814880Y-108452380D01*
X167719642Y-108452380D01*
X167576785Y-108500000D01*
X167529166Y-108547619D01*
X167052976Y-109452380D02*
X166862500Y-109452380D01*
X166767261Y-109404761D01*
X166719642Y-109357142D01*
X166624404Y-109214285D01*
X166576785Y-109023809D01*
X166576785Y-108642857D01*
X166624404Y-108547619D01*
X166672023Y-108500000D01*
X166767261Y-108452380D01*
X166957738Y-108452380D01*
X167052976Y-108500000D01*
X167100595Y-108547619D01*
X167148214Y-108642857D01*
X167148214Y-108880952D01*
X167100595Y-108976190D01*
X167052976Y-109023809D01*
X166957738Y-109071428D01*
X166767261Y-109071428D01*
X166672023Y-109023809D01*
X166624404Y-108976190D01*
X166576785Y-108880952D01*
D11*
%TO.C,FB1*%
X142420833Y-107909285D02*
X142844166Y-107909285D01*
X142844166Y-108574523D02*
X142844166Y-107304523D01*
X142239404Y-107304523D01*
X141332261Y-107909285D02*
X141150833Y-107969761D01*
X141090357Y-108030238D01*
X141029880Y-108151190D01*
X141029880Y-108332619D01*
X141090357Y-108453571D01*
X141150833Y-108514047D01*
X141271785Y-108574523D01*
X141755595Y-108574523D01*
X141755595Y-107304523D01*
X141332261Y-107304523D01*
X141211309Y-107365000D01*
X141150833Y-107425476D01*
X141090357Y-107546428D01*
X141090357Y-107667380D01*
X141150833Y-107788333D01*
X141211309Y-107848809D01*
X141332261Y-107909285D01*
X141755595Y-107909285D01*
X139820357Y-108574523D02*
X140546071Y-108574523D01*
X140183214Y-108574523D02*
X140183214Y-107304523D01*
X140304166Y-107485952D01*
X140425119Y-107606904D01*
X140546071Y-107667380D01*
D10*
%TO.C,D11*%
X154214285Y-243452380D02*
X154214285Y-242452380D01*
X153976190Y-242452380D01*
X153833333Y-242500000D01*
X153738095Y-242595238D01*
X153690476Y-242690476D01*
X153642857Y-242880952D01*
X153642857Y-243023809D01*
X153690476Y-243214285D01*
X153738095Y-243309523D01*
X153833333Y-243404761D01*
X153976190Y-243452380D01*
X154214285Y-243452380D01*
X152690476Y-243452380D02*
X153261904Y-243452380D01*
X152976190Y-243452380D02*
X152976190Y-242452380D01*
X153071428Y-242595238D01*
X153166666Y-242690476D01*
X153261904Y-242738095D01*
X151738095Y-243452380D02*
X152309523Y-243452380D01*
X152023809Y-243452380D02*
X152023809Y-242452380D01*
X152119047Y-242595238D01*
X152214285Y-242690476D01*
X152309523Y-242738095D01*
%TO.C,C10*%
X168005357Y-107357142D02*
X168052976Y-107404761D01*
X168195833Y-107452380D01*
X168291071Y-107452380D01*
X168433928Y-107404761D01*
X168529166Y-107309523D01*
X168576785Y-107214285D01*
X168624404Y-107023809D01*
X168624404Y-106880952D01*
X168576785Y-106690476D01*
X168529166Y-106595238D01*
X168433928Y-106500000D01*
X168291071Y-106452380D01*
X168195833Y-106452380D01*
X168052976Y-106500000D01*
X168005357Y-106547619D01*
X167052976Y-107452380D02*
X167624404Y-107452380D01*
X167338690Y-107452380D02*
X167338690Y-106452380D01*
X167433928Y-106595238D01*
X167529166Y-106690476D01*
X167624404Y-106738095D01*
X166433928Y-106452380D02*
X166338690Y-106452380D01*
X166243452Y-106500000D01*
X166195833Y-106547619D01*
X166148214Y-106642857D01*
X166100595Y-106833333D01*
X166100595Y-107071428D01*
X166148214Y-107261904D01*
X166195833Y-107357142D01*
X166243452Y-107404761D01*
X166338690Y-107452380D01*
X166433928Y-107452380D01*
X166529166Y-107404761D01*
X166576785Y-107357142D01*
X166624404Y-107261904D01*
X166672023Y-107071428D01*
X166672023Y-106833333D01*
X166624404Y-106642857D01*
X166576785Y-106547619D01*
X166529166Y-106500000D01*
X166433928Y-106452380D01*
%TO.C,R3*%
X177616666Y-101452380D02*
X177950000Y-100976190D01*
X178188095Y-101452380D02*
X178188095Y-100452380D01*
X177807142Y-100452380D01*
X177711904Y-100500000D01*
X177664285Y-100547619D01*
X177616666Y-100642857D01*
X177616666Y-100785714D01*
X177664285Y-100880952D01*
X177711904Y-100928571D01*
X177807142Y-100976190D01*
X178188095Y-100976190D01*
X177283333Y-100452380D02*
X176664285Y-100452380D01*
X176997619Y-100833333D01*
X176854761Y-100833333D01*
X176759523Y-100880952D01*
X176711904Y-100928571D01*
X176664285Y-101023809D01*
X176664285Y-101261904D01*
X176711904Y-101357142D01*
X176759523Y-101404761D01*
X176854761Y-101452380D01*
X177140476Y-101452380D01*
X177235714Y-101404761D01*
X177283333Y-101357142D01*
D11*
%TO.C,IC1*%
X150602261Y-105034523D02*
X150602261Y-103764523D01*
X149271785Y-104913571D02*
X149332261Y-104974047D01*
X149513690Y-105034523D01*
X149634642Y-105034523D01*
X149816071Y-104974047D01*
X149937023Y-104853095D01*
X149997500Y-104732142D01*
X150057976Y-104490238D01*
X150057976Y-104308809D01*
X149997500Y-104066904D01*
X149937023Y-103945952D01*
X149816071Y-103825000D01*
X149634642Y-103764523D01*
X149513690Y-103764523D01*
X149332261Y-103825000D01*
X149271785Y-103885476D01*
X148062261Y-105034523D02*
X148787976Y-105034523D01*
X148425119Y-105034523D02*
X148425119Y-103764523D01*
X148546071Y-103945952D01*
X148667023Y-104066904D01*
X148787976Y-104127380D01*
D10*
%TO.C,U4*%
X157261904Y-103952380D02*
X157261904Y-104761904D01*
X157214285Y-104857142D01*
X157166666Y-104904761D01*
X157071428Y-104952380D01*
X156880952Y-104952380D01*
X156785714Y-104904761D01*
X156738095Y-104857142D01*
X156690476Y-104761904D01*
X156690476Y-103952380D01*
X155785714Y-104285714D02*
X155785714Y-104952380D01*
X156023809Y-103904761D02*
X156261904Y-104619047D01*
X155642857Y-104619047D01*
%TO.C,U2*%
X167261904Y-94952380D02*
X167261904Y-95761904D01*
X167214285Y-95857142D01*
X167166666Y-95904761D01*
X167071428Y-95952380D01*
X166880952Y-95952380D01*
X166785714Y-95904761D01*
X166738095Y-95857142D01*
X166690476Y-95761904D01*
X166690476Y-94952380D01*
X166261904Y-95047619D02*
X166214285Y-95000000D01*
X166119047Y-94952380D01*
X165880952Y-94952380D01*
X165785714Y-95000000D01*
X165738095Y-95047619D01*
X165690476Y-95142857D01*
X165690476Y-95238095D01*
X165738095Y-95380952D01*
X166309523Y-95952380D01*
X165690476Y-95952380D01*
%TO.C,D4*%
X138738095Y-195002380D02*
X138738095Y-194002380D01*
X138500000Y-194002380D01*
X138357142Y-194050000D01*
X138261904Y-194145238D01*
X138214285Y-194240476D01*
X138166666Y-194430952D01*
X138166666Y-194573809D01*
X138214285Y-194764285D01*
X138261904Y-194859523D01*
X138357142Y-194954761D01*
X138500000Y-195002380D01*
X138738095Y-195002380D01*
X137309523Y-194335714D02*
X137309523Y-195002380D01*
X137547619Y-193954761D02*
X137785714Y-194669047D01*
X137166666Y-194669047D01*
D11*
%TO.C,Y1*%
X153969761Y-132407738D02*
X154574523Y-132407738D01*
X153304523Y-131984404D02*
X153969761Y-132407738D01*
X153304523Y-132831071D01*
X154574523Y-133919642D02*
X154574523Y-133193928D01*
X154574523Y-133556785D02*
X153304523Y-133556785D01*
X153485952Y-133435833D01*
X153606904Y-133314880D01*
X153667380Y-133193928D01*
D10*
%TO.C,C6*%
X166166666Y-153357142D02*
X166214285Y-153404761D01*
X166357142Y-153452380D01*
X166452380Y-153452380D01*
X166595238Y-153404761D01*
X166690476Y-153309523D01*
X166738095Y-153214285D01*
X166785714Y-153023809D01*
X166785714Y-152880952D01*
X166738095Y-152690476D01*
X166690476Y-152595238D01*
X166595238Y-152500000D01*
X166452380Y-152452380D01*
X166357142Y-152452380D01*
X166214285Y-152500000D01*
X166166666Y-152547619D01*
X165309523Y-152452380D02*
X165500000Y-152452380D01*
X165595238Y-152500000D01*
X165642857Y-152547619D01*
X165738095Y-152690476D01*
X165785714Y-152880952D01*
X165785714Y-153261904D01*
X165738095Y-153357142D01*
X165690476Y-153404761D01*
X165595238Y-153452380D01*
X165404761Y-153452380D01*
X165309523Y-153404761D01*
X165261904Y-153357142D01*
X165214285Y-153261904D01*
X165214285Y-153023809D01*
X165261904Y-152928571D01*
X165309523Y-152880952D01*
X165404761Y-152833333D01*
X165595238Y-152833333D01*
X165690476Y-152880952D01*
X165738095Y-152928571D01*
X165785714Y-153023809D01*
D11*
%TO.C,D14*%
X133042142Y-117324523D02*
X133042142Y-116054523D01*
X132739761Y-116054523D01*
X132558333Y-116115000D01*
X132437380Y-116235952D01*
X132376904Y-116356904D01*
X132316428Y-116598809D01*
X132316428Y-116780238D01*
X132376904Y-117022142D01*
X132437380Y-117143095D01*
X132558333Y-117264047D01*
X132739761Y-117324523D01*
X133042142Y-117324523D01*
X131106904Y-117324523D02*
X131832619Y-117324523D01*
X131469761Y-117324523D02*
X131469761Y-116054523D01*
X131590714Y-116235952D01*
X131711666Y-116356904D01*
X131832619Y-116417380D01*
X130018333Y-116477857D02*
X130018333Y-117324523D01*
X130320714Y-115994047D02*
X130623095Y-116901190D01*
X129836904Y-116901190D01*
D10*
%TO.C,D2*%
X126738095Y-182002380D02*
X126738095Y-181002380D01*
X126500000Y-181002380D01*
X126357142Y-181050000D01*
X126261904Y-181145238D01*
X126214285Y-181240476D01*
X126166666Y-181430952D01*
X126166666Y-181573809D01*
X126214285Y-181764285D01*
X126261904Y-181859523D01*
X126357142Y-181954761D01*
X126500000Y-182002380D01*
X126738095Y-182002380D01*
X125785714Y-181097619D02*
X125738095Y-181050000D01*
X125642857Y-181002380D01*
X125404761Y-181002380D01*
X125309523Y-181050000D01*
X125261904Y-181097619D01*
X125214285Y-181192857D01*
X125214285Y-181288095D01*
X125261904Y-181430952D01*
X125833333Y-182002380D01*
X125214285Y-182002380D01*
%TO.C,R12*%
X161352380Y-91434642D02*
X160876190Y-91101309D01*
X161352380Y-90863214D02*
X160352380Y-90863214D01*
X160352380Y-91244166D01*
X160400000Y-91339404D01*
X160447619Y-91387023D01*
X160542857Y-91434642D01*
X160685714Y-91434642D01*
X160780952Y-91387023D01*
X160828571Y-91339404D01*
X160876190Y-91244166D01*
X160876190Y-90863214D01*
X161352380Y-92387023D02*
X161352380Y-91815595D01*
X161352380Y-92101309D02*
X160352380Y-92101309D01*
X160495238Y-92006071D01*
X160590476Y-91910833D01*
X160638095Y-91815595D01*
X160447619Y-92767976D02*
X160400000Y-92815595D01*
X160352380Y-92910833D01*
X160352380Y-93148928D01*
X160400000Y-93244166D01*
X160447619Y-93291785D01*
X160542857Y-93339404D01*
X160638095Y-93339404D01*
X160780952Y-93291785D01*
X161352380Y-92720357D01*
X161352380Y-93339404D01*
%TO.C,D12*%
X177214285Y-245452380D02*
X177214285Y-244452380D01*
X176976190Y-244452380D01*
X176833333Y-244500000D01*
X176738095Y-244595238D01*
X176690476Y-244690476D01*
X176642857Y-244880952D01*
X176642857Y-245023809D01*
X176690476Y-245214285D01*
X176738095Y-245309523D01*
X176833333Y-245404761D01*
X176976190Y-245452380D01*
X177214285Y-245452380D01*
X175690476Y-245452380D02*
X176261904Y-245452380D01*
X175976190Y-245452380D02*
X175976190Y-244452380D01*
X176071428Y-244595238D01*
X176166666Y-244690476D01*
X176261904Y-244738095D01*
X175309523Y-244547619D02*
X175261904Y-244500000D01*
X175166666Y-244452380D01*
X174928571Y-244452380D01*
X174833333Y-244500000D01*
X174785714Y-244547619D01*
X174738095Y-244642857D01*
X174738095Y-244738095D01*
X174785714Y-244880952D01*
X175357142Y-245452380D01*
X174738095Y-245452380D01*
%TO.C,R1*%
X147029166Y-130289880D02*
X147362500Y-129813690D01*
X147600595Y-130289880D02*
X147600595Y-129289880D01*
X147219642Y-129289880D01*
X147124404Y-129337500D01*
X147076785Y-129385119D01*
X147029166Y-129480357D01*
X147029166Y-129623214D01*
X147076785Y-129718452D01*
X147124404Y-129766071D01*
X147219642Y-129813690D01*
X147600595Y-129813690D01*
X146076785Y-130289880D02*
X146648214Y-130289880D01*
X146362500Y-130289880D02*
X146362500Y-129289880D01*
X146457738Y-129432738D01*
X146552976Y-129527976D01*
X146648214Y-129575595D01*
%TO.C,R10*%
X154092857Y-95802380D02*
X154426190Y-95326190D01*
X154664285Y-95802380D02*
X154664285Y-94802380D01*
X154283333Y-94802380D01*
X154188095Y-94850000D01*
X154140476Y-94897619D01*
X154092857Y-94992857D01*
X154092857Y-95135714D01*
X154140476Y-95230952D01*
X154188095Y-95278571D01*
X154283333Y-95326190D01*
X154664285Y-95326190D01*
X153140476Y-95802380D02*
X153711904Y-95802380D01*
X153426190Y-95802380D02*
X153426190Y-94802380D01*
X153521428Y-94945238D01*
X153616666Y-95040476D01*
X153711904Y-95088095D01*
X152521428Y-94802380D02*
X152426190Y-94802380D01*
X152330952Y-94850000D01*
X152283333Y-94897619D01*
X152235714Y-94992857D01*
X152188095Y-95183333D01*
X152188095Y-95421428D01*
X152235714Y-95611904D01*
X152283333Y-95707142D01*
X152330952Y-95754761D01*
X152426190Y-95802380D01*
X152521428Y-95802380D01*
X152616666Y-95754761D01*
X152664285Y-95707142D01*
X152711904Y-95611904D01*
X152759523Y-95421428D01*
X152759523Y-95183333D01*
X152711904Y-94992857D01*
X152664285Y-94897619D01*
X152616666Y-94850000D01*
X152521428Y-94802380D01*
%TO.C,C14*%
X138307142Y-125357142D02*
X138354761Y-125309523D01*
X138402380Y-125166666D01*
X138402380Y-125071428D01*
X138354761Y-124928571D01*
X138259523Y-124833333D01*
X138164285Y-124785714D01*
X137973809Y-124738095D01*
X137830952Y-124738095D01*
X137640476Y-124785714D01*
X137545238Y-124833333D01*
X137450000Y-124928571D01*
X137402380Y-125071428D01*
X137402380Y-125166666D01*
X137450000Y-125309523D01*
X137497619Y-125357142D01*
X138402380Y-126309523D02*
X138402380Y-125738095D01*
X138402380Y-126023809D02*
X137402380Y-126023809D01*
X137545238Y-125928571D01*
X137640476Y-125833333D01*
X137688095Y-125738095D01*
X137735714Y-127166666D02*
X138402380Y-127166666D01*
X137354761Y-126928571D02*
X138069047Y-126690476D01*
X138069047Y-127309523D01*
%TO.C,R9*%
X135952380Y-125833333D02*
X135476190Y-125500000D01*
X135952380Y-125261904D02*
X134952380Y-125261904D01*
X134952380Y-125642857D01*
X135000000Y-125738095D01*
X135047619Y-125785714D01*
X135142857Y-125833333D01*
X135285714Y-125833333D01*
X135380952Y-125785714D01*
X135428571Y-125738095D01*
X135476190Y-125642857D01*
X135476190Y-125261904D01*
X135952380Y-126309523D02*
X135952380Y-126500000D01*
X135904761Y-126595238D01*
X135857142Y-126642857D01*
X135714285Y-126738095D01*
X135523809Y-126785714D01*
X135142857Y-126785714D01*
X135047619Y-126738095D01*
X135000000Y-126690476D01*
X134952380Y-126595238D01*
X134952380Y-126404761D01*
X135000000Y-126309523D01*
X135047619Y-126261904D01*
X135142857Y-126214285D01*
X135380952Y-126214285D01*
X135476190Y-126261904D01*
X135523809Y-126309523D01*
X135571428Y-126404761D01*
X135571428Y-126595238D01*
X135523809Y-126690476D01*
X135476190Y-126738095D01*
X135380952Y-126785714D01*
%TO.C,D5*%
X150738095Y-182002380D02*
X150738095Y-181002380D01*
X150500000Y-181002380D01*
X150357142Y-181050000D01*
X150261904Y-181145238D01*
X150214285Y-181240476D01*
X150166666Y-181430952D01*
X150166666Y-181573809D01*
X150214285Y-181764285D01*
X150261904Y-181859523D01*
X150357142Y-181954761D01*
X150500000Y-182002380D01*
X150738095Y-182002380D01*
X149261904Y-181002380D02*
X149738095Y-181002380D01*
X149785714Y-181478571D01*
X149738095Y-181430952D01*
X149642857Y-181383333D01*
X149404761Y-181383333D01*
X149309523Y-181430952D01*
X149261904Y-181478571D01*
X149214285Y-181573809D01*
X149214285Y-181811904D01*
X149261904Y-181907142D01*
X149309523Y-181954761D01*
X149404761Y-182002380D01*
X149642857Y-182002380D01*
X149738095Y-181954761D01*
X149785714Y-181907142D01*
%TO.C,U3*%
X154761904Y-153139880D02*
X154761904Y-153949404D01*
X154714285Y-154044642D01*
X154666666Y-154092261D01*
X154571428Y-154139880D01*
X154380952Y-154139880D01*
X154285714Y-154092261D01*
X154238095Y-154044642D01*
X154190476Y-153949404D01*
X154190476Y-153139880D01*
X153809523Y-153139880D02*
X153190476Y-153139880D01*
X153523809Y-153520833D01*
X153380952Y-153520833D01*
X153285714Y-153568452D01*
X153238095Y-153616071D01*
X153190476Y-153711309D01*
X153190476Y-153949404D01*
X153238095Y-154044642D01*
X153285714Y-154092261D01*
X153380952Y-154139880D01*
X153666666Y-154139880D01*
X153761904Y-154092261D01*
X153809523Y-154044642D01*
%TO.C,C5*%
X151037142Y-154833333D02*
X151084761Y-154785714D01*
X151132380Y-154642857D01*
X151132380Y-154547619D01*
X151084761Y-154404761D01*
X150989523Y-154309523D01*
X150894285Y-154261904D01*
X150703809Y-154214285D01*
X150560952Y-154214285D01*
X150370476Y-154261904D01*
X150275238Y-154309523D01*
X150180000Y-154404761D01*
X150132380Y-154547619D01*
X150132380Y-154642857D01*
X150180000Y-154785714D01*
X150227619Y-154833333D01*
X150132380Y-155738095D02*
X150132380Y-155261904D01*
X150608571Y-155214285D01*
X150560952Y-155261904D01*
X150513333Y-155357142D01*
X150513333Y-155595238D01*
X150560952Y-155690476D01*
X150608571Y-155738095D01*
X150703809Y-155785714D01*
X150941904Y-155785714D01*
X151037142Y-155738095D01*
X151084761Y-155690476D01*
X151132380Y-155595238D01*
X151132380Y-155357142D01*
X151084761Y-155261904D01*
X151037142Y-155214285D01*
%TO.C,R11*%
X158352380Y-91434642D02*
X157876190Y-91101309D01*
X158352380Y-90863214D02*
X157352380Y-90863214D01*
X157352380Y-91244166D01*
X157400000Y-91339404D01*
X157447619Y-91387023D01*
X157542857Y-91434642D01*
X157685714Y-91434642D01*
X157780952Y-91387023D01*
X157828571Y-91339404D01*
X157876190Y-91244166D01*
X157876190Y-90863214D01*
X158352380Y-92387023D02*
X158352380Y-91815595D01*
X158352380Y-92101309D02*
X157352380Y-92101309D01*
X157495238Y-92006071D01*
X157590476Y-91910833D01*
X157638095Y-91815595D01*
X158352380Y-93339404D02*
X158352380Y-92767976D01*
X158352380Y-93053690D02*
X157352380Y-93053690D01*
X157495238Y-92958452D01*
X157590476Y-92863214D01*
X157638095Y-92767976D01*
%TO.C,R2*%
X177704166Y-99452380D02*
X178037500Y-98976190D01*
X178275595Y-99452380D02*
X178275595Y-98452380D01*
X177894642Y-98452380D01*
X177799404Y-98500000D01*
X177751785Y-98547619D01*
X177704166Y-98642857D01*
X177704166Y-98785714D01*
X177751785Y-98880952D01*
X177799404Y-98928571D01*
X177894642Y-98976190D01*
X178275595Y-98976190D01*
X177323214Y-98547619D02*
X177275595Y-98500000D01*
X177180357Y-98452380D01*
X176942261Y-98452380D01*
X176847023Y-98500000D01*
X176799404Y-98547619D01*
X176751785Y-98642857D01*
X176751785Y-98738095D01*
X176799404Y-98880952D01*
X177370833Y-99452380D01*
X176751785Y-99452380D01*
%TO.C,R6*%
X130952380Y-108833333D02*
X130476190Y-108500000D01*
X130952380Y-108261904D02*
X129952380Y-108261904D01*
X129952380Y-108642857D01*
X130000000Y-108738095D01*
X130047619Y-108785714D01*
X130142857Y-108833333D01*
X130285714Y-108833333D01*
X130380952Y-108785714D01*
X130428571Y-108738095D01*
X130476190Y-108642857D01*
X130476190Y-108261904D01*
X129952380Y-109690476D02*
X129952380Y-109500000D01*
X130000000Y-109404761D01*
X130047619Y-109357142D01*
X130190476Y-109261904D01*
X130380952Y-109214285D01*
X130761904Y-109214285D01*
X130857142Y-109261904D01*
X130904761Y-109309523D01*
X130952380Y-109404761D01*
X130952380Y-109595238D01*
X130904761Y-109690476D01*
X130857142Y-109738095D01*
X130761904Y-109785714D01*
X130523809Y-109785714D01*
X130428571Y-109738095D01*
X130380952Y-109690476D01*
X130333333Y-109595238D01*
X130333333Y-109404761D01*
X130380952Y-109309523D01*
X130428571Y-109261904D01*
X130523809Y-109214285D01*
%TO.C,R8*%
X133652380Y-125833333D02*
X133176190Y-125500000D01*
X133652380Y-125261904D02*
X132652380Y-125261904D01*
X132652380Y-125642857D01*
X132700000Y-125738095D01*
X132747619Y-125785714D01*
X132842857Y-125833333D01*
X132985714Y-125833333D01*
X133080952Y-125785714D01*
X133128571Y-125738095D01*
X133176190Y-125642857D01*
X133176190Y-125261904D01*
X133080952Y-126404761D02*
X133033333Y-126309523D01*
X132985714Y-126261904D01*
X132890476Y-126214285D01*
X132842857Y-126214285D01*
X132747619Y-126261904D01*
X132700000Y-126309523D01*
X132652380Y-126404761D01*
X132652380Y-126595238D01*
X132700000Y-126690476D01*
X132747619Y-126738095D01*
X132842857Y-126785714D01*
X132890476Y-126785714D01*
X132985714Y-126738095D01*
X133033333Y-126690476D01*
X133080952Y-126595238D01*
X133080952Y-126404761D01*
X133128571Y-126309523D01*
X133176190Y-126261904D01*
X133271428Y-126214285D01*
X133461904Y-126214285D01*
X133557142Y-126261904D01*
X133604761Y-126309523D01*
X133652380Y-126404761D01*
X133652380Y-126595238D01*
X133604761Y-126690476D01*
X133557142Y-126738095D01*
X133461904Y-126785714D01*
X133271428Y-126785714D01*
X133176190Y-126738095D01*
X133128571Y-126690476D01*
X133080952Y-126595238D01*
%TO.C,D9*%
X174738095Y-220002380D02*
X174738095Y-219002380D01*
X174500000Y-219002380D01*
X174357142Y-219050000D01*
X174261904Y-219145238D01*
X174214285Y-219240476D01*
X174166666Y-219430952D01*
X174166666Y-219573809D01*
X174214285Y-219764285D01*
X174261904Y-219859523D01*
X174357142Y-219954761D01*
X174500000Y-220002380D01*
X174738095Y-220002380D01*
X173690476Y-220002380D02*
X173500000Y-220002380D01*
X173404761Y-219954761D01*
X173357142Y-219907142D01*
X173261904Y-219764285D01*
X173214285Y-219573809D01*
X173214285Y-219192857D01*
X173261904Y-219097619D01*
X173309523Y-219050000D01*
X173404761Y-219002380D01*
X173595238Y-219002380D01*
X173690476Y-219050000D01*
X173738095Y-219097619D01*
X173785714Y-219192857D01*
X173785714Y-219430952D01*
X173738095Y-219526190D01*
X173690476Y-219573809D01*
X173595238Y-219621428D01*
X173404761Y-219621428D01*
X173309523Y-219573809D01*
X173261904Y-219526190D01*
X173214285Y-219430952D01*
%TO.C,C15*%
X138307142Y-119807142D02*
X138354761Y-119759523D01*
X138402380Y-119616666D01*
X138402380Y-119521428D01*
X138354761Y-119378571D01*
X138259523Y-119283333D01*
X138164285Y-119235714D01*
X137973809Y-119188095D01*
X137830952Y-119188095D01*
X137640476Y-119235714D01*
X137545238Y-119283333D01*
X137450000Y-119378571D01*
X137402380Y-119521428D01*
X137402380Y-119616666D01*
X137450000Y-119759523D01*
X137497619Y-119807142D01*
X138402380Y-120759523D02*
X138402380Y-120188095D01*
X138402380Y-120473809D02*
X137402380Y-120473809D01*
X137545238Y-120378571D01*
X137640476Y-120283333D01*
X137688095Y-120188095D01*
X137402380Y-121664285D02*
X137402380Y-121188095D01*
X137878571Y-121140476D01*
X137830952Y-121188095D01*
X137783333Y-121283333D01*
X137783333Y-121521428D01*
X137830952Y-121616666D01*
X137878571Y-121664285D01*
X137973809Y-121711904D01*
X138211904Y-121711904D01*
X138307142Y-121664285D01*
X138354761Y-121616666D01*
X138402380Y-121521428D01*
X138402380Y-121283333D01*
X138354761Y-121188095D01*
X138307142Y-121140476D01*
%TO.C,R4*%
X162864880Y-130883333D02*
X162388690Y-130550000D01*
X162864880Y-130311904D02*
X161864880Y-130311904D01*
X161864880Y-130692857D01*
X161912500Y-130788095D01*
X161960119Y-130835714D01*
X162055357Y-130883333D01*
X162198214Y-130883333D01*
X162293452Y-130835714D01*
X162341071Y-130788095D01*
X162388690Y-130692857D01*
X162388690Y-130311904D01*
X162198214Y-131740476D02*
X162864880Y-131740476D01*
X161817261Y-131502380D02*
X162531547Y-131264285D01*
X162531547Y-131883333D01*
%TO.C,C12*%
X172537142Y-104357142D02*
X172584761Y-104309523D01*
X172632380Y-104166666D01*
X172632380Y-104071428D01*
X172584761Y-103928571D01*
X172489523Y-103833333D01*
X172394285Y-103785714D01*
X172203809Y-103738095D01*
X172060952Y-103738095D01*
X171870476Y-103785714D01*
X171775238Y-103833333D01*
X171680000Y-103928571D01*
X171632380Y-104071428D01*
X171632380Y-104166666D01*
X171680000Y-104309523D01*
X171727619Y-104357142D01*
X172632380Y-105309523D02*
X172632380Y-104738095D01*
X172632380Y-105023809D02*
X171632380Y-105023809D01*
X171775238Y-104928571D01*
X171870476Y-104833333D01*
X171918095Y-104738095D01*
X171727619Y-105690476D02*
X171680000Y-105738095D01*
X171632380Y-105833333D01*
X171632380Y-106071428D01*
X171680000Y-106166666D01*
X171727619Y-106214285D01*
X171822857Y-106261904D01*
X171918095Y-106261904D01*
X172060952Y-106214285D01*
X172632380Y-105642857D01*
X172632380Y-106261904D01*
%TO.C,U5*%
X176261904Y-107452380D02*
X176261904Y-108261904D01*
X176214285Y-108357142D01*
X176166666Y-108404761D01*
X176071428Y-108452380D01*
X175880952Y-108452380D01*
X175785714Y-108404761D01*
X175738095Y-108357142D01*
X175690476Y-108261904D01*
X175690476Y-107452380D01*
X174738095Y-107452380D02*
X175214285Y-107452380D01*
X175261904Y-107928571D01*
X175214285Y-107880952D01*
X175119047Y-107833333D01*
X174880952Y-107833333D01*
X174785714Y-107880952D01*
X174738095Y-107928571D01*
X174690476Y-108023809D01*
X174690476Y-108261904D01*
X174738095Y-108357142D01*
X174785714Y-108404761D01*
X174880952Y-108452380D01*
X175119047Y-108452380D01*
X175214285Y-108404761D01*
X175261904Y-108357142D01*
%TO.C,C13*%
X143005357Y-96677142D02*
X143052976Y-96724761D01*
X143195833Y-96772380D01*
X143291071Y-96772380D01*
X143433928Y-96724761D01*
X143529166Y-96629523D01*
X143576785Y-96534285D01*
X143624404Y-96343809D01*
X143624404Y-96200952D01*
X143576785Y-96010476D01*
X143529166Y-95915238D01*
X143433928Y-95820000D01*
X143291071Y-95772380D01*
X143195833Y-95772380D01*
X143052976Y-95820000D01*
X143005357Y-95867619D01*
X142052976Y-96772380D02*
X142624404Y-96772380D01*
X142338690Y-96772380D02*
X142338690Y-95772380D01*
X142433928Y-95915238D01*
X142529166Y-96010476D01*
X142624404Y-96058095D01*
X141719642Y-95772380D02*
X141100595Y-95772380D01*
X141433928Y-96153333D01*
X141291071Y-96153333D01*
X141195833Y-96200952D01*
X141148214Y-96248571D01*
X141100595Y-96343809D01*
X141100595Y-96581904D01*
X141148214Y-96677142D01*
X141195833Y-96724761D01*
X141291071Y-96772380D01*
X141576785Y-96772380D01*
X141672023Y-96724761D01*
X141719642Y-96677142D01*
%TO.C,D15*%
X158452380Y-102223214D02*
X157452380Y-102223214D01*
X157452380Y-102461309D01*
X157500000Y-102604166D01*
X157595238Y-102699404D01*
X157690476Y-102747023D01*
X157880952Y-102794642D01*
X158023809Y-102794642D01*
X158214285Y-102747023D01*
X158309523Y-102699404D01*
X158404761Y-102604166D01*
X158452380Y-102461309D01*
X158452380Y-102223214D01*
X158452380Y-103747023D02*
X158452380Y-103175595D01*
X158452380Y-103461309D02*
X157452380Y-103461309D01*
X157595238Y-103366071D01*
X157690476Y-103270833D01*
X157738095Y-103175595D01*
X157452380Y-104651785D02*
X157452380Y-104175595D01*
X157928571Y-104127976D01*
X157880952Y-104175595D01*
X157833333Y-104270833D01*
X157833333Y-104508928D01*
X157880952Y-104604166D01*
X157928571Y-104651785D01*
X158023809Y-104699404D01*
X158261904Y-104699404D01*
X158357142Y-104651785D01*
X158404761Y-104604166D01*
X158452380Y-104508928D01*
X158452380Y-104270833D01*
X158404761Y-104175595D01*
X158357142Y-104127976D01*
%TO.C,D10*%
X129214285Y-245452380D02*
X129214285Y-244452380D01*
X128976190Y-244452380D01*
X128833333Y-244500000D01*
X128738095Y-244595238D01*
X128690476Y-244690476D01*
X128642857Y-244880952D01*
X128642857Y-245023809D01*
X128690476Y-245214285D01*
X128738095Y-245309523D01*
X128833333Y-245404761D01*
X128976190Y-245452380D01*
X129214285Y-245452380D01*
X127690476Y-245452380D02*
X128261904Y-245452380D01*
X127976190Y-245452380D02*
X127976190Y-244452380D01*
X128071428Y-244595238D01*
X128166666Y-244690476D01*
X128261904Y-244738095D01*
X127071428Y-244452380D02*
X126976190Y-244452380D01*
X126880952Y-244500000D01*
X126833333Y-244547619D01*
X126785714Y-244642857D01*
X126738095Y-244833333D01*
X126738095Y-245071428D01*
X126785714Y-245261904D01*
X126833333Y-245357142D01*
X126880952Y-245404761D01*
X126976190Y-245452380D01*
X127071428Y-245452380D01*
X127166666Y-245404761D01*
X127214285Y-245357142D01*
X127261904Y-245261904D01*
X127309523Y-245071428D01*
X127309523Y-244833333D01*
X127261904Y-244642857D01*
X127214285Y-244547619D01*
X127166666Y-244500000D01*
X127071428Y-244452380D01*
%TO.C,C4*%
X141307142Y-156670833D02*
X141354761Y-156623214D01*
X141402380Y-156480357D01*
X141402380Y-156385119D01*
X141354761Y-156242261D01*
X141259523Y-156147023D01*
X141164285Y-156099404D01*
X140973809Y-156051785D01*
X140830952Y-156051785D01*
X140640476Y-156099404D01*
X140545238Y-156147023D01*
X140450000Y-156242261D01*
X140402380Y-156385119D01*
X140402380Y-156480357D01*
X140450000Y-156623214D01*
X140497619Y-156670833D01*
X140735714Y-157527976D02*
X141402380Y-157527976D01*
X140354761Y-157289880D02*
X141069047Y-157051785D01*
X141069047Y-157670833D01*
%TO.C,R5*%
X128452380Y-108833333D02*
X127976190Y-108500000D01*
X128452380Y-108261904D02*
X127452380Y-108261904D01*
X127452380Y-108642857D01*
X127500000Y-108738095D01*
X127547619Y-108785714D01*
X127642857Y-108833333D01*
X127785714Y-108833333D01*
X127880952Y-108785714D01*
X127928571Y-108738095D01*
X127976190Y-108642857D01*
X127976190Y-108261904D01*
X127452380Y-109738095D02*
X127452380Y-109261904D01*
X127928571Y-109214285D01*
X127880952Y-109261904D01*
X127833333Y-109357142D01*
X127833333Y-109595238D01*
X127880952Y-109690476D01*
X127928571Y-109738095D01*
X128023809Y-109785714D01*
X128261904Y-109785714D01*
X128357142Y-109738095D01*
X128404761Y-109690476D01*
X128452380Y-109595238D01*
X128452380Y-109357142D01*
X128404761Y-109261904D01*
X128357142Y-109214285D01*
D11*
%TO.C,D13*%
X165574523Y-130507857D02*
X164304523Y-130507857D01*
X164304523Y-130810238D01*
X164365000Y-130991666D01*
X164485952Y-131112619D01*
X164606904Y-131173095D01*
X164848809Y-131233571D01*
X165030238Y-131233571D01*
X165272142Y-131173095D01*
X165393095Y-131112619D01*
X165514047Y-130991666D01*
X165574523Y-130810238D01*
X165574523Y-130507857D01*
X165574523Y-132443095D02*
X165574523Y-131717380D01*
X165574523Y-132080238D02*
X164304523Y-132080238D01*
X164485952Y-131959285D01*
X164606904Y-131838333D01*
X164667380Y-131717380D01*
X164304523Y-132866428D02*
X164304523Y-133652619D01*
X164788333Y-133229285D01*
X164788333Y-133410714D01*
X164848809Y-133531666D01*
X164909285Y-133592142D01*
X165030238Y-133652619D01*
X165332619Y-133652619D01*
X165453571Y-133592142D01*
X165514047Y-133531666D01*
X165574523Y-133410714D01*
X165574523Y-133047857D01*
X165514047Y-132926904D01*
X165453571Y-132866428D01*
D10*
%TO.C,J8*%
X128850833Y-153097380D02*
X128850833Y-153811666D01*
X128898452Y-153954523D01*
X128993690Y-154049761D01*
X129136547Y-154097380D01*
X129231785Y-154097380D01*
X128231785Y-153525952D02*
X128327023Y-153478333D01*
X128374642Y-153430714D01*
X128422261Y-153335476D01*
X128422261Y-153287857D01*
X128374642Y-153192619D01*
X128327023Y-153145000D01*
X128231785Y-153097380D01*
X128041309Y-153097380D01*
X127946071Y-153145000D01*
X127898452Y-153192619D01*
X127850833Y-153287857D01*
X127850833Y-153335476D01*
X127898452Y-153430714D01*
X127946071Y-153478333D01*
X128041309Y-153525952D01*
X128231785Y-153525952D01*
X128327023Y-153573571D01*
X128374642Y-153621190D01*
X128422261Y-153716428D01*
X128422261Y-153906904D01*
X128374642Y-154002142D01*
X128327023Y-154049761D01*
X128231785Y-154097380D01*
X128041309Y-154097380D01*
X127946071Y-154049761D01*
X127898452Y-154002142D01*
X127850833Y-153906904D01*
X127850833Y-153716428D01*
X127898452Y-153621190D01*
X127946071Y-153573571D01*
X128041309Y-153525952D01*
%TO.C,C17*%
X148607142Y-122107142D02*
X148654761Y-122059523D01*
X148702380Y-121916666D01*
X148702380Y-121821428D01*
X148654761Y-121678571D01*
X148559523Y-121583333D01*
X148464285Y-121535714D01*
X148273809Y-121488095D01*
X148130952Y-121488095D01*
X147940476Y-121535714D01*
X147845238Y-121583333D01*
X147750000Y-121678571D01*
X147702380Y-121821428D01*
X147702380Y-121916666D01*
X147750000Y-122059523D01*
X147797619Y-122107142D01*
X148702380Y-123059523D02*
X148702380Y-122488095D01*
X148702380Y-122773809D02*
X147702380Y-122773809D01*
X147845238Y-122678571D01*
X147940476Y-122583333D01*
X147988095Y-122488095D01*
X147702380Y-123392857D02*
X147702380Y-124059523D01*
X148702380Y-123630952D01*
%TO.C,C2*%
X144166666Y-157374642D02*
X144214285Y-157422261D01*
X144357142Y-157469880D01*
X144452380Y-157469880D01*
X144595238Y-157422261D01*
X144690476Y-157327023D01*
X144738095Y-157231785D01*
X144785714Y-157041309D01*
X144785714Y-156898452D01*
X144738095Y-156707976D01*
X144690476Y-156612738D01*
X144595238Y-156517500D01*
X144452380Y-156469880D01*
X144357142Y-156469880D01*
X144214285Y-156517500D01*
X144166666Y-156565119D01*
X143785714Y-156565119D02*
X143738095Y-156517500D01*
X143642857Y-156469880D01*
X143404761Y-156469880D01*
X143309523Y-156517500D01*
X143261904Y-156565119D01*
X143214285Y-156660357D01*
X143214285Y-156755595D01*
X143261904Y-156898452D01*
X143833333Y-157469880D01*
X143214285Y-157469880D01*
%TO.C,L1*%
X144166666Y-151239880D02*
X144642857Y-151239880D01*
X144642857Y-150239880D01*
X143309523Y-151239880D02*
X143880952Y-151239880D01*
X143595238Y-151239880D02*
X143595238Y-150239880D01*
X143690476Y-150382738D01*
X143785714Y-150477976D01*
X143880952Y-150525595D01*
%TO.C,D1*%
X177738095Y-168452380D02*
X177738095Y-167452380D01*
X177500000Y-167452380D01*
X177357142Y-167500000D01*
X177261904Y-167595238D01*
X177214285Y-167690476D01*
X177166666Y-167880952D01*
X177166666Y-168023809D01*
X177214285Y-168214285D01*
X177261904Y-168309523D01*
X177357142Y-168404761D01*
X177500000Y-168452380D01*
X177738095Y-168452380D01*
X176214285Y-168452380D02*
X176785714Y-168452380D01*
X176500000Y-168452380D02*
X176500000Y-167452380D01*
X176595238Y-167595238D01*
X176690476Y-167690476D01*
X176785714Y-167738095D01*
%TO.C,D8*%
X150738095Y-220002380D02*
X150738095Y-219002380D01*
X150500000Y-219002380D01*
X150357142Y-219050000D01*
X150261904Y-219145238D01*
X150214285Y-219240476D01*
X150166666Y-219430952D01*
X150166666Y-219573809D01*
X150214285Y-219764285D01*
X150261904Y-219859523D01*
X150357142Y-219954761D01*
X150500000Y-220002380D01*
X150738095Y-220002380D01*
X149595238Y-219430952D02*
X149690476Y-219383333D01*
X149738095Y-219335714D01*
X149785714Y-219240476D01*
X149785714Y-219192857D01*
X149738095Y-219097619D01*
X149690476Y-219050000D01*
X149595238Y-219002380D01*
X149404761Y-219002380D01*
X149309523Y-219050000D01*
X149261904Y-219097619D01*
X149214285Y-219192857D01*
X149214285Y-219240476D01*
X149261904Y-219335714D01*
X149309523Y-219383333D01*
X149404761Y-219430952D01*
X149595238Y-219430952D01*
X149690476Y-219478571D01*
X149738095Y-219526190D01*
X149785714Y-219621428D01*
X149785714Y-219811904D01*
X149738095Y-219907142D01*
X149690476Y-219954761D01*
X149595238Y-220002380D01*
X149404761Y-220002380D01*
X149309523Y-219954761D01*
X149261904Y-219907142D01*
X149214285Y-219811904D01*
X149214285Y-219621428D01*
X149261904Y-219526190D01*
X149309523Y-219478571D01*
X149404761Y-219430952D01*
%TO.C,C18*%
X150180357Y-95677142D02*
X150227976Y-95724761D01*
X150370833Y-95772380D01*
X150466071Y-95772380D01*
X150608928Y-95724761D01*
X150704166Y-95629523D01*
X150751785Y-95534285D01*
X150799404Y-95343809D01*
X150799404Y-95200952D01*
X150751785Y-95010476D01*
X150704166Y-94915238D01*
X150608928Y-94820000D01*
X150466071Y-94772380D01*
X150370833Y-94772380D01*
X150227976Y-94820000D01*
X150180357Y-94867619D01*
X149227976Y-95772380D02*
X149799404Y-95772380D01*
X149513690Y-95772380D02*
X149513690Y-94772380D01*
X149608928Y-94915238D01*
X149704166Y-95010476D01*
X149799404Y-95058095D01*
X148656547Y-95200952D02*
X148751785Y-95153333D01*
X148799404Y-95105714D01*
X148847023Y-95010476D01*
X148847023Y-94962857D01*
X148799404Y-94867619D01*
X148751785Y-94820000D01*
X148656547Y-94772380D01*
X148466071Y-94772380D01*
X148370833Y-94820000D01*
X148323214Y-94867619D01*
X148275595Y-94962857D01*
X148275595Y-95010476D01*
X148323214Y-95105714D01*
X148370833Y-95153333D01*
X148466071Y-95200952D01*
X148656547Y-95200952D01*
X148751785Y-95248571D01*
X148799404Y-95296190D01*
X148847023Y-95391428D01*
X148847023Y-95581904D01*
X148799404Y-95677142D01*
X148751785Y-95724761D01*
X148656547Y-95772380D01*
X148466071Y-95772380D01*
X148370833Y-95724761D01*
X148323214Y-95677142D01*
X148275595Y-95581904D01*
X148275595Y-95391428D01*
X148323214Y-95296190D01*
X148370833Y-95248571D01*
X148466071Y-95200952D01*
%TO.C,C8*%
X167529166Y-111357142D02*
X167576785Y-111404761D01*
X167719642Y-111452380D01*
X167814880Y-111452380D01*
X167957738Y-111404761D01*
X168052976Y-111309523D01*
X168100595Y-111214285D01*
X168148214Y-111023809D01*
X168148214Y-110880952D01*
X168100595Y-110690476D01*
X168052976Y-110595238D01*
X167957738Y-110500000D01*
X167814880Y-110452380D01*
X167719642Y-110452380D01*
X167576785Y-110500000D01*
X167529166Y-110547619D01*
X166957738Y-110880952D02*
X167052976Y-110833333D01*
X167100595Y-110785714D01*
X167148214Y-110690476D01*
X167148214Y-110642857D01*
X167100595Y-110547619D01*
X167052976Y-110500000D01*
X166957738Y-110452380D01*
X166767261Y-110452380D01*
X166672023Y-110500000D01*
X166624404Y-110547619D01*
X166576785Y-110642857D01*
X166576785Y-110690476D01*
X166624404Y-110785714D01*
X166672023Y-110833333D01*
X166767261Y-110880952D01*
X166957738Y-110880952D01*
X167052976Y-110928571D01*
X167100595Y-110976190D01*
X167148214Y-111071428D01*
X167148214Y-111261904D01*
X167100595Y-111357142D01*
X167052976Y-111404761D01*
X166957738Y-111452380D01*
X166767261Y-111452380D01*
X166672023Y-111404761D01*
X166624404Y-111357142D01*
X166576785Y-111261904D01*
X166576785Y-111071428D01*
X166624404Y-110976190D01*
X166672023Y-110928571D01*
X166767261Y-110880952D01*
%TO.C,C3*%
X177616666Y-97357142D02*
X177664285Y-97404761D01*
X177807142Y-97452380D01*
X177902380Y-97452380D01*
X178045238Y-97404761D01*
X178140476Y-97309523D01*
X178188095Y-97214285D01*
X178235714Y-97023809D01*
X178235714Y-96880952D01*
X178188095Y-96690476D01*
X178140476Y-96595238D01*
X178045238Y-96500000D01*
X177902380Y-96452380D01*
X177807142Y-96452380D01*
X177664285Y-96500000D01*
X177616666Y-96547619D01*
X177283333Y-96452380D02*
X176664285Y-96452380D01*
X176997619Y-96833333D01*
X176854761Y-96833333D01*
X176759523Y-96880952D01*
X176711904Y-96928571D01*
X176664285Y-97023809D01*
X176664285Y-97261904D01*
X176711904Y-97357142D01*
X176759523Y-97404761D01*
X176854761Y-97452380D01*
X177140476Y-97452380D01*
X177235714Y-97404761D01*
X177283333Y-97357142D01*
%TO.C,R7*%
X137452380Y-113333333D02*
X136976190Y-113000000D01*
X137452380Y-112761904D02*
X136452380Y-112761904D01*
X136452380Y-113142857D01*
X136500000Y-113238095D01*
X136547619Y-113285714D01*
X136642857Y-113333333D01*
X136785714Y-113333333D01*
X136880952Y-113285714D01*
X136928571Y-113238095D01*
X136976190Y-113142857D01*
X136976190Y-112761904D01*
X136452380Y-113666666D02*
X136452380Y-114333333D01*
X137452380Y-113904761D01*
%TO.C,D16*%
X161452380Y-102223214D02*
X160452380Y-102223214D01*
X160452380Y-102461309D01*
X160500000Y-102604166D01*
X160595238Y-102699404D01*
X160690476Y-102747023D01*
X160880952Y-102794642D01*
X161023809Y-102794642D01*
X161214285Y-102747023D01*
X161309523Y-102699404D01*
X161404761Y-102604166D01*
X161452380Y-102461309D01*
X161452380Y-102223214D01*
X161452380Y-103747023D02*
X161452380Y-103175595D01*
X161452380Y-103461309D02*
X160452380Y-103461309D01*
X160595238Y-103366071D01*
X160690476Y-103270833D01*
X160738095Y-103175595D01*
X160452380Y-104604166D02*
X160452380Y-104413690D01*
X160500000Y-104318452D01*
X160547619Y-104270833D01*
X160690476Y-104175595D01*
X160880952Y-104127976D01*
X161261904Y-104127976D01*
X161357142Y-104175595D01*
X161404761Y-104223214D01*
X161452380Y-104318452D01*
X161452380Y-104508928D01*
X161404761Y-104604166D01*
X161357142Y-104651785D01*
X161261904Y-104699404D01*
X161023809Y-104699404D01*
X160928571Y-104651785D01*
X160880952Y-104604166D01*
X160833333Y-104508928D01*
X160833333Y-104318452D01*
X160880952Y-104223214D01*
X160928571Y-104175595D01*
X161023809Y-104127976D01*
%TO.C,JP2*%
X145452380Y-93666666D02*
X146166666Y-93666666D01*
X146309523Y-93619047D01*
X146404761Y-93523809D01*
X146452380Y-93380952D01*
X146452380Y-93285714D01*
X146452380Y-94142857D02*
X145452380Y-94142857D01*
X145452380Y-94523809D01*
X145500000Y-94619047D01*
X145547619Y-94666666D01*
X145642857Y-94714285D01*
X145785714Y-94714285D01*
X145880952Y-94666666D01*
X145928571Y-94619047D01*
X145976190Y-94523809D01*
X145976190Y-94142857D01*
X145547619Y-95095238D02*
X145500000Y-95142857D01*
X145452380Y-95238095D01*
X145452380Y-95476190D01*
X145500000Y-95571428D01*
X145547619Y-95619047D01*
X145642857Y-95666666D01*
X145738095Y-95666666D01*
X145880952Y-95619047D01*
X146452380Y-95047619D01*
X146452380Y-95666666D01*
%TO.C,Y2*%
X144426190Y-115976190D02*
X144426190Y-116452380D01*
X144759523Y-115452380D02*
X144426190Y-115976190D01*
X144092857Y-115452380D01*
X143807142Y-115547619D02*
X143759523Y-115500000D01*
X143664285Y-115452380D01*
X143426190Y-115452380D01*
X143330952Y-115500000D01*
X143283333Y-115547619D01*
X143235714Y-115642857D01*
X143235714Y-115738095D01*
X143283333Y-115880952D01*
X143854761Y-116452380D01*
X143235714Y-116452380D01*
D11*
%TO.C,F1*%
X142785833Y-104909285D02*
X143209166Y-104909285D01*
X143209166Y-105574523D02*
X143209166Y-104304523D01*
X142604404Y-104304523D01*
X141455357Y-105574523D02*
X142181071Y-105574523D01*
X141818214Y-105574523D02*
X141818214Y-104304523D01*
X141939166Y-104485952D01*
X142060119Y-104606904D01*
X142181071Y-104667380D01*
D10*
%TO.C,C11*%
X143642857Y-135014642D02*
X143690476Y-135062261D01*
X143833333Y-135109880D01*
X143928571Y-135109880D01*
X144071428Y-135062261D01*
X144166666Y-134967023D01*
X144214285Y-134871785D01*
X144261904Y-134681309D01*
X144261904Y-134538452D01*
X144214285Y-134347976D01*
X144166666Y-134252738D01*
X144071428Y-134157500D01*
X143928571Y-134109880D01*
X143833333Y-134109880D01*
X143690476Y-134157500D01*
X143642857Y-134205119D01*
X142690476Y-135109880D02*
X143261904Y-135109880D01*
X142976190Y-135109880D02*
X142976190Y-134109880D01*
X143071428Y-134252738D01*
X143166666Y-134347976D01*
X143261904Y-134395595D01*
X141738095Y-135109880D02*
X142309523Y-135109880D01*
X142023809Y-135109880D02*
X142023809Y-134109880D01*
X142119047Y-134252738D01*
X142214285Y-134347976D01*
X142309523Y-134395595D01*
%TO.C,J10*%
X174579523Y-128052380D02*
X174579523Y-128766666D01*
X174627142Y-128909523D01*
X174722380Y-129004761D01*
X174865238Y-129052380D01*
X174960476Y-129052380D01*
X173579523Y-129052380D02*
X174150952Y-129052380D01*
X173865238Y-129052380D02*
X173865238Y-128052380D01*
X173960476Y-128195238D01*
X174055714Y-128290476D01*
X174150952Y-128338095D01*
X172960476Y-128052380D02*
X172865238Y-128052380D01*
X172770000Y-128100000D01*
X172722380Y-128147619D01*
X172674761Y-128242857D01*
X172627142Y-128433333D01*
X172627142Y-128671428D01*
X172674761Y-128861904D01*
X172722380Y-128957142D01*
X172770000Y-129004761D01*
X172865238Y-129052380D01*
X172960476Y-129052380D01*
X173055714Y-129004761D01*
X173103333Y-128957142D01*
X173150952Y-128861904D01*
X173198571Y-128671428D01*
X173198571Y-128433333D01*
X173150952Y-128242857D01*
X173103333Y-128147619D01*
X173055714Y-128100000D01*
X172960476Y-128052380D01*
%TO.C,D6*%
X174800595Y-182002380D02*
X174800595Y-181002380D01*
X174562500Y-181002380D01*
X174419642Y-181050000D01*
X174324404Y-181145238D01*
X174276785Y-181240476D01*
X174229166Y-181430952D01*
X174229166Y-181573809D01*
X174276785Y-181764285D01*
X174324404Y-181859523D01*
X174419642Y-181954761D01*
X174562500Y-182002380D01*
X174800595Y-182002380D01*
X173372023Y-181002380D02*
X173562500Y-181002380D01*
X173657738Y-181050000D01*
X173705357Y-181097619D01*
X173800595Y-181240476D01*
X173848214Y-181430952D01*
X173848214Y-181811904D01*
X173800595Y-181907142D01*
X173752976Y-181954761D01*
X173657738Y-182002380D01*
X173467261Y-182002380D01*
X173372023Y-181954761D01*
X173324404Y-181907142D01*
X173276785Y-181811904D01*
X173276785Y-181573809D01*
X173324404Y-181478571D01*
X173372023Y-181430952D01*
X173467261Y-181383333D01*
X173657738Y-181383333D01*
X173752976Y-181430952D01*
X173800595Y-181478571D01*
X173848214Y-181573809D01*
%TO.C,JP1*%
X146195833Y-111252380D02*
X146195833Y-111966666D01*
X146243452Y-112109523D01*
X146338690Y-112204761D01*
X146481547Y-112252380D01*
X146576785Y-112252380D01*
X145719642Y-112252380D02*
X145719642Y-111252380D01*
X145338690Y-111252380D01*
X145243452Y-111300000D01*
X145195833Y-111347619D01*
X145148214Y-111442857D01*
X145148214Y-111585714D01*
X145195833Y-111680952D01*
X145243452Y-111728571D01*
X145338690Y-111776190D01*
X145719642Y-111776190D01*
X144195833Y-112252380D02*
X144767261Y-112252380D01*
X144481547Y-112252380D02*
X144481547Y-111252380D01*
X144576785Y-111395238D01*
X144672023Y-111490476D01*
X144767261Y-111538095D01*
%TO.C,C16*%
X156642857Y-129694642D02*
X156690476Y-129742261D01*
X156833333Y-129789880D01*
X156928571Y-129789880D01*
X157071428Y-129742261D01*
X157166666Y-129647023D01*
X157214285Y-129551785D01*
X157261904Y-129361309D01*
X157261904Y-129218452D01*
X157214285Y-129027976D01*
X157166666Y-128932738D01*
X157071428Y-128837500D01*
X156928571Y-128789880D01*
X156833333Y-128789880D01*
X156690476Y-128837500D01*
X156642857Y-128885119D01*
X155690476Y-129789880D02*
X156261904Y-129789880D01*
X155976190Y-129789880D02*
X155976190Y-128789880D01*
X156071428Y-128932738D01*
X156166666Y-129027976D01*
X156261904Y-129075595D01*
X154833333Y-128789880D02*
X155023809Y-128789880D01*
X155119047Y-128837500D01*
X155166666Y-128885119D01*
X155261904Y-129027976D01*
X155309523Y-129218452D01*
X155309523Y-129599404D01*
X155261904Y-129694642D01*
X155214285Y-129742261D01*
X155119047Y-129789880D01*
X154928571Y-129789880D01*
X154833333Y-129742261D01*
X154785714Y-129694642D01*
X154738095Y-129599404D01*
X154738095Y-129361309D01*
X154785714Y-129266071D01*
X154833333Y-129218452D01*
X154928571Y-129170833D01*
X155119047Y-129170833D01*
X155214285Y-129218452D01*
X155261904Y-129266071D01*
X155309523Y-129361309D01*
%TO.C,U6*%
X159711904Y-125839880D02*
X159711904Y-126649404D01*
X159664285Y-126744642D01*
X159616666Y-126792261D01*
X159521428Y-126839880D01*
X159330952Y-126839880D01*
X159235714Y-126792261D01*
X159188095Y-126744642D01*
X159140476Y-126649404D01*
X159140476Y-125839880D01*
X158235714Y-125839880D02*
X158426190Y-125839880D01*
X158521428Y-125887500D01*
X158569047Y-125935119D01*
X158664285Y-126077976D01*
X158711904Y-126268452D01*
X158711904Y-126649404D01*
X158664285Y-126744642D01*
X158616666Y-126792261D01*
X158521428Y-126839880D01*
X158330952Y-126839880D01*
X158235714Y-126792261D01*
X158188095Y-126744642D01*
X158140476Y-126649404D01*
X158140476Y-126411309D01*
X158188095Y-126316071D01*
X158235714Y-126268452D01*
X158330952Y-126220833D01*
X158521428Y-126220833D01*
X158616666Y-126268452D01*
X158664285Y-126316071D01*
X158711904Y-126411309D01*
D12*
%TO.C,J1*%
X124950000Y-103600000D02*
X137050000Y-103600000D01*
X137050000Y-103600000D02*
X137050000Y-99810000D01*
X137050000Y-95790000D02*
X137050000Y-87400000D01*
X137050000Y-87400000D02*
X124950000Y-87400000D01*
X124950000Y-87400000D02*
X124950000Y-95790000D01*
X124950000Y-99810000D02*
X124950000Y-103600000D01*
X137850000Y-102500000D02*
G75*
G03*
X137850000Y-102500000I-100000J0D01*
G01*
D13*
%TO.C,D7*%
X125600378Y-217440000D02*
X126399622Y-217440000D01*
X125600378Y-218560000D02*
X126399622Y-218560000D01*
%TO.C,C1*%
X166238748Y-103735000D02*
X166761252Y-103735000D01*
X166238748Y-102265000D02*
X166761252Y-102265000D01*
%TO.C,D3*%
X137600378Y-167440000D02*
X138399622Y-167440000D01*
X137600378Y-168560000D02*
X138399622Y-168560000D01*
%TO.C,C7*%
X163261252Y-134602500D02*
X162738748Y-134602500D01*
X163261252Y-136072500D02*
X162738748Y-136072500D01*
%TO.C,C9*%
X164623752Y-109735000D02*
X164101248Y-109735000D01*
X164623752Y-108265000D02*
X164101248Y-108265000D01*
D12*
%TO.C,FB1*%
X141362500Y-110700000D02*
X141362500Y-109300000D01*
D13*
%TO.C,D11*%
X149600378Y-243560000D02*
X150399622Y-243560000D01*
X149600378Y-242440000D02*
X150399622Y-242440000D01*
%TO.C,C10*%
X164623752Y-106265000D02*
X164101248Y-106265000D01*
X164623752Y-107735000D02*
X164101248Y-107735000D01*
%TO.C,R3*%
X174677064Y-101735000D02*
X174222936Y-101735000D01*
X174677064Y-100265000D02*
X174222936Y-100265000D01*
D14*
%TO.C,IC1*%
X149073700Y-106644400D02*
X149073700Y-107355600D01*
X148057700Y-105501400D02*
X148718100Y-105501400D01*
X147651300Y-108498600D02*
X147651300Y-107609600D01*
X147651300Y-106390400D02*
X147651300Y-105501400D01*
X147651300Y-105501400D02*
X148057700Y-105501400D01*
X148718100Y-108498600D02*
X147651300Y-108498600D01*
D13*
%TO.C,U4*%
X154452500Y-105590000D02*
X154452500Y-106850000D01*
X154452500Y-112410000D02*
X154452500Y-111150000D01*
X158212500Y-112410000D02*
X154452500Y-112410000D01*
X160462500Y-105590000D02*
X154452500Y-105590000D01*
%TO.C,U2*%
X166500000Y-101560000D02*
X163050000Y-101560000D01*
X166500000Y-101560000D02*
X168450000Y-101560000D01*
X166500000Y-96440000D02*
X168450000Y-96440000D01*
X166500000Y-96440000D02*
X164550000Y-96440000D01*
%TO.C,D4*%
X137600378Y-192440000D02*
X138399622Y-192440000D01*
X137600378Y-193560000D02*
X138399622Y-193560000D01*
D15*
%TO.C,Y1*%
X151550000Y-132737500D02*
X151550000Y-133987500D01*
D12*
X150900000Y-132137500D02*
X150900000Y-132137500D01*
D15*
X148350000Y-133987500D02*
X148350000Y-132737500D01*
D12*
X150900000Y-132137500D02*
X150900000Y-132137500D01*
X150900000Y-132037500D02*
X150900000Y-132037500D01*
D15*
X151550000Y-133987500D02*
X151550000Y-133987500D01*
X151550000Y-133987500D02*
X151550000Y-132737500D01*
X148350000Y-132737500D02*
X148350000Y-132737500D01*
X148350000Y-132737500D02*
X148350000Y-133987500D01*
X151550000Y-132737500D02*
X151550000Y-132737500D01*
X148350000Y-133987500D02*
X148350000Y-133987500D01*
D12*
X150900000Y-132037500D02*
G75*
G03*
X150900000Y-132137500I0J-50000D01*
G01*
X150900000Y-132037500D02*
G75*
G03*
X150900000Y-132137500I0J-50000D01*
G01*
X150900000Y-132137500D02*
G75*
G03*
X150900000Y-132037500I0J50000D01*
G01*
D13*
%TO.C,C6*%
X163261252Y-152265000D02*
X162738748Y-152265000D01*
X163261252Y-153735000D02*
X162738748Y-153735000D01*
D12*
%TO.C,D14*%
X130300000Y-110350000D02*
X132700000Y-110350000D01*
X132700000Y-110350000D02*
X132700000Y-114200000D01*
X130300000Y-114200000D02*
X130300000Y-110350000D01*
D13*
%TO.C,D2*%
X125600378Y-180560000D02*
X126399622Y-180560000D01*
X125600378Y-179440000D02*
X126399622Y-179440000D01*
%TO.C,R12*%
X161735000Y-95664564D02*
X161735000Y-95210436D01*
X160265000Y-95664564D02*
X160265000Y-95210436D01*
%TO.C,D12*%
X173600378Y-243560000D02*
X174399622Y-243560000D01*
X173600378Y-242440000D02*
X174399622Y-242440000D01*
%TO.C,R1*%
X149635436Y-130572500D02*
X150089564Y-130572500D01*
X149635436Y-129102500D02*
X150089564Y-129102500D01*
%TO.C,R10*%
X153677064Y-97735000D02*
X153222936Y-97735000D01*
X153677064Y-96265000D02*
X153222936Y-96265000D01*
%TO.C,C14*%
X139215000Y-126261252D02*
X139215000Y-125738748D01*
X140685000Y-126261252D02*
X140685000Y-125738748D01*
%TO.C,R9*%
X136235000Y-123227064D02*
X136235000Y-122772936D01*
X134765000Y-123227064D02*
X134765000Y-122772936D01*
%TO.C,D5*%
X149600378Y-180560000D02*
X150399622Y-180560000D01*
X149600378Y-179440000D02*
X150399622Y-179440000D01*
%TO.C,U3*%
X160410000Y-151447500D02*
X161110000Y-151447500D01*
X146890000Y-137227500D02*
X146890000Y-137927500D01*
X161110000Y-151447500D02*
X161110000Y-150747500D01*
X160410000Y-137227500D02*
X161110000Y-137227500D01*
X161110000Y-137227500D02*
X161110000Y-137927500D01*
X147590000Y-151447500D02*
X146890000Y-151447500D01*
X147590000Y-137227500D02*
X146890000Y-137227500D01*
X146890000Y-150747500D02*
X145600000Y-150747500D01*
X146890000Y-151447500D02*
X146890000Y-150747500D01*
%TO.C,C5*%
X149735000Y-155261252D02*
X149735000Y-154738748D01*
X148265000Y-155261252D02*
X148265000Y-154738748D01*
%TO.C,R11*%
X158735000Y-95664564D02*
X158735000Y-95210436D01*
X157265000Y-95664564D02*
X157265000Y-95210436D01*
%TO.C,R2*%
X174222936Y-98265000D02*
X174677064Y-98265000D01*
X174222936Y-99735000D02*
X174677064Y-99735000D01*
%TO.C,R6*%
X131235000Y-105772936D02*
X131235000Y-106227064D01*
X129765000Y-105772936D02*
X129765000Y-106227064D01*
%TO.C,R8*%
X133935000Y-123227064D02*
X133935000Y-122772936D01*
X132465000Y-123227064D02*
X132465000Y-122772936D01*
%TO.C,D9*%
X173600378Y-217440000D02*
X174399622Y-217440000D01*
X173600378Y-218560000D02*
X174399622Y-218560000D01*
%TO.C,C15*%
X140685000Y-120188748D02*
X140685000Y-120711252D01*
X139215000Y-120188748D02*
X139215000Y-120711252D01*
%TO.C,R4*%
X163235000Y-127272936D02*
X163235000Y-127727064D01*
X161765000Y-127272936D02*
X161765000Y-127727064D01*
%TO.C,C12*%
X169765000Y-105261252D02*
X169765000Y-104738748D01*
X171235000Y-105261252D02*
X171235000Y-104738748D01*
%TO.C,U5*%
X175500000Y-103440000D02*
X174700000Y-103440000D01*
X175500000Y-103440000D02*
X177300000Y-103440000D01*
X175500000Y-106560000D02*
X174700000Y-106560000D01*
X175500000Y-106560000D02*
X176300000Y-106560000D01*
%TO.C,C13*%
X142623752Y-98735000D02*
X142101248Y-98735000D01*
X142623752Y-97265000D02*
X142101248Y-97265000D01*
%TO.C,D15*%
X158960000Y-101122500D02*
X157040000Y-101122500D01*
X158960000Y-98437500D02*
X158960000Y-101122500D01*
X157040000Y-101122500D02*
X157040000Y-98437500D01*
%TO.C,D10*%
X125600378Y-242440000D02*
X126399622Y-242440000D01*
X125600378Y-243560000D02*
X126399622Y-243560000D01*
%TO.C,C4*%
X141685000Y-154098752D02*
X141685000Y-153576248D01*
X140215000Y-154098752D02*
X140215000Y-153576248D01*
%TO.C,R5*%
X127265000Y-105772936D02*
X127265000Y-106227064D01*
X128735000Y-105772936D02*
X128735000Y-106227064D01*
D12*
%TO.C,D13*%
X166200000Y-126050000D02*
X166200000Y-129900000D01*
X166200000Y-129900000D02*
X163800000Y-129900000D01*
X163800000Y-129900000D02*
X163800000Y-126050000D01*
D13*
%TO.C,J8*%
X123957500Y-147055000D02*
X125267500Y-147055000D01*
X123957500Y-152755000D02*
X133077500Y-152755000D01*
X123957500Y-137255000D02*
X123957500Y-152755000D01*
X131767500Y-138555000D02*
X125267500Y-138555000D01*
X125267500Y-138555000D02*
X125267500Y-142955000D01*
X125267500Y-151455000D02*
X131767500Y-151455000D01*
X133077500Y-137255000D02*
X123957500Y-137255000D01*
X133077500Y-152755000D02*
X133077500Y-137255000D01*
X125267500Y-147055000D02*
X125267500Y-151455000D01*
X122567500Y-147045000D02*
X123567500Y-147545000D01*
X125267500Y-142955000D02*
X123957500Y-142955000D01*
X131767500Y-151455000D02*
X131767500Y-138555000D01*
X122567500Y-148045000D02*
X122567500Y-147045000D01*
X123567500Y-147545000D02*
X122567500Y-148045000D01*
X125267500Y-142955000D02*
X125267500Y-142955000D01*
%TO.C,C17*%
X148735000Y-125738748D02*
X148735000Y-126261252D01*
X147265000Y-125738748D02*
X147265000Y-126261252D01*
%TO.C,C2*%
X143738748Y-154602500D02*
X144261252Y-154602500D01*
X143738748Y-156072500D02*
X144261252Y-156072500D01*
%TO.C,L1*%
X144399622Y-152897500D02*
X143600378Y-152897500D01*
X144399622Y-151777500D02*
X143600378Y-151777500D01*
%TO.C,D1*%
X173600378Y-168560000D02*
X174399622Y-168560000D01*
X173600378Y-167440000D02*
X174399622Y-167440000D01*
%TO.C,D8*%
X149600378Y-217440000D02*
X150399622Y-217440000D01*
X149600378Y-218560000D02*
X150399622Y-218560000D01*
%TO.C,C18*%
X149798752Y-97735000D02*
X149276248Y-97735000D01*
X149798752Y-96265000D02*
X149276248Y-96265000D01*
%TO.C,C8*%
X164623752Y-110265000D02*
X164101248Y-110265000D01*
X164623752Y-111735000D02*
X164101248Y-111735000D01*
%TO.C,C3*%
X174711252Y-96265000D02*
X174188748Y-96265000D01*
X174711252Y-97735000D02*
X174188748Y-97735000D01*
%TO.C,R7*%
X135735000Y-113727064D02*
X135735000Y-113272936D01*
X134265000Y-113727064D02*
X134265000Y-113272936D01*
%TO.C,D16*%
X161960000Y-98437500D02*
X161960000Y-101122500D01*
X160040000Y-101122500D02*
X160040000Y-98437500D01*
X161960000Y-101122500D02*
X160040000Y-101122500D01*
%TO.C,JP2*%
X146300000Y-96250000D02*
X145700000Y-96250000D01*
X145000000Y-96950000D02*
X145000000Y-98350000D01*
X145700000Y-99050000D02*
X146300000Y-99050000D01*
X147000000Y-98350000D02*
X147000000Y-96950000D01*
X146300000Y-99050000D02*
G75*
G03*
X147000000Y-98350000I0J700000D01*
G01*
X145700000Y-96250000D02*
G75*
G03*
X145000000Y-96950000I-1J-699999D01*
G01*
X145000000Y-98350000D02*
G75*
G03*
X145700000Y-99050000I700000J0D01*
G01*
X147000000Y-96950000D02*
G75*
G03*
X146300000Y-96250000I-699999J1D01*
G01*
%TO.C,Y2*%
X146475000Y-119790000D02*
X146475000Y-126190000D01*
X141425000Y-119790000D02*
X141425000Y-126190000D01*
X146475000Y-119790000D02*
G75*
G03*
X141425000Y-119790000I-2525000J0D01*
G01*
X141425000Y-126190000D02*
G75*
G03*
X146475000Y-126190000I2525000J0D01*
G01*
D12*
%TO.C,F1*%
X142362500Y-103520000D02*
X142362500Y-100480000D01*
D13*
%TO.C,C11*%
X143261252Y-135602500D02*
X142738748Y-135602500D01*
X143261252Y-137072500D02*
X142738748Y-137072500D01*
%TO.C,J10*%
X167820000Y-122000000D02*
X168820000Y-122500000D01*
X177020000Y-126410000D02*
X177020000Y-113510000D01*
X169210000Y-127710000D02*
X178330000Y-127710000D01*
X170520000Y-117910000D02*
X170520000Y-117910000D01*
X178330000Y-112210000D02*
X169210000Y-112210000D01*
X169210000Y-122010000D02*
X170520000Y-122010000D01*
X170520000Y-117910000D02*
X169210000Y-117910000D01*
X168820000Y-122500000D02*
X167820000Y-123000000D01*
X170520000Y-113510000D02*
X170520000Y-117910000D01*
X177020000Y-113510000D02*
X170520000Y-113510000D01*
X170520000Y-126410000D02*
X177020000Y-126410000D01*
X167820000Y-123000000D02*
X167820000Y-122000000D01*
X178330000Y-127710000D02*
X178330000Y-112210000D01*
X170520000Y-122010000D02*
X170520000Y-126410000D01*
X169210000Y-112210000D02*
X169210000Y-127710000D01*
%TO.C,D6*%
X173662878Y-180560000D02*
X174462122Y-180560000D01*
X173662878Y-179440000D02*
X174462122Y-179440000D01*
%TO.C,JP1*%
X146062500Y-109000000D02*
X144662500Y-109000000D01*
X143962500Y-109700000D02*
X143962500Y-110300000D01*
X144662500Y-111000000D02*
X146062500Y-111000000D01*
X146762500Y-110300000D02*
X146762500Y-109700000D01*
X146762500Y-109700000D02*
G75*
G03*
X146062500Y-109000000I-700000J0D01*
G01*
X143962500Y-110300000D02*
G75*
G03*
X144662500Y-111000000I699999J-1D01*
G01*
X146062500Y-111000000D02*
G75*
G03*
X146762500Y-110300000I0J700000D01*
G01*
X144662500Y-109000000D02*
G75*
G03*
X143962500Y-109700000I-1J-699999D01*
G01*
%TO.C,C16*%
X155738748Y-126602500D02*
X156261252Y-126602500D01*
X155738748Y-128072500D02*
X156261252Y-128072500D01*
D10*
%TO.C,U6*%
X158575000Y-116712500D02*
X158250000Y-116712500D01*
X151325000Y-123962500D02*
X151325000Y-123737500D01*
X151325000Y-123737500D02*
X149900000Y-123737500D01*
X158575000Y-123962500D02*
X158575000Y-123637500D01*
X158575000Y-116712500D02*
X158575000Y-117037500D01*
X151325000Y-116712500D02*
X151650000Y-116712500D01*
X151325000Y-123962500D02*
X151650000Y-123962500D01*
X158575000Y-123962500D02*
X158250000Y-123962500D01*
X151325000Y-116712500D02*
X151325000Y-117037500D01*
%TD*%
M02*
