M48
; DRILL file {KiCad 7.0.1} date Fri May 19 13:22:42 2023
; FORMAT={-:-/ absolute / inch / decimal}
; #@! TF.CreationDate,2023-05-19T13:22:42+02:00
; #@! TF.GenerationSoftware,Kicad,Pcbnew,7.0.1
; #@! TF.FileFunction,Plated,1,4,PTH
FMAT,2
INCH
; #@! TA.AperFunction,Plated,PTH,ViaDrill
T1C0.0157
; #@! TA.AperFunction,Plated,PTH,ComponentDrill
T2C0.0300
; #@! TA.AperFunction,Plated,PTH,ComponentDrill
T3C0.0315
; #@! TA.AperFunction,Plated,PTH,ComponentDrill
T4C0.0354
; #@! TA.AperFunction,Plated,PTH,ComponentDrill
T5C0.0362
; #@! TA.AperFunction,Plated,PTH,ComponentDrill
T6C0.0394
; #@! TA.AperFunction,Plated,PTH,ComponentDrill
T7C0.0433
; #@! TA.AperFunction,Plated,PTH,ComponentDrill
T8C0.0906
; #@! TA.AperFunction,Plated,PTH,ComponentDrill
T9C0.1181
%
G90
G05
T1
X3.7031Y-7.5148
X3.7228Y-5.0443
X3.9394Y-3.9222
X4.028Y-9.6407
X4.4807Y-4.7441
X4.542Y-5.4334
X4.622Y-5.4334
X4.6283Y-4.6703
X4.6677Y-4.7687
X4.7071Y-4.2766
X4.7071Y-4.6112
X4.7661Y-4.2963
X4.7957Y-3.9911
X4.8055Y-4.2569
X4.9039Y-4.5915
X4.9138Y-4.4242
X4.922Y-5.3334
X4.9335Y-4.5226
X4.9679Y-4.5915
X4.9827Y-4.7687
X4.9925Y-4.562
X5.022Y-5.3334
X5.0356Y-4.1998
X5.0663Y-4.1929
X5.0811Y-4.4144
X5.1106Y-4.3061
X5.1697Y-4.4439
X5.1697Y-4.5128
X5.1899Y-4.2131
X5.1992Y-4.1831
X5.1992Y-4.749
X5.2839Y-4.2963
X5.3173Y-4.6112
X5.3272Y-4.7884
X5.342Y-5.3334
X5.3567Y-4.6112
X5.4059Y-4.4931
X5.422Y-5.3334
X5.4748Y-4.5128
X5.4797Y-4.5669
X5.5142Y-4.8278
X5.5732Y-4.2963
X5.6421Y-4.2667
X5.6618Y-4.2077
X5.7701Y-4.5522
X5.8488Y-3.4104
X5.8783Y-9.69
X6.0654Y-5.3691
X6.3213Y-7.5148
T2
X3.7327Y-4.1234
X3.7327Y-4.2234
X3.7327Y-4.3234
X3.7327Y-4.4234
X3.7327Y-4.5234
X3.7327Y-4.6234
X3.7327Y-4.7234
X3.7327Y-4.8234
T3
X4.9664Y-4.8934
X5.1585Y-4.8934
T4
X6.1835Y-5.5069
X6.1835Y-5.6053
X6.1835Y-5.7037
X6.3134Y-5.5069
X6.3134Y-5.6053
X6.3134Y-5.7037
T5
X5.5929Y-3.7736
X5.5929Y-3.8524
X5.6913Y-3.7736
X5.6913Y-3.8524
T6
X4.162Y-4.0134
X4.162Y-4.1134
X4.162Y-4.2134
X4.162Y-4.3134
X4.162Y-4.4134
X4.162Y-4.5134
X4.162Y-4.6134
X4.162Y-4.7134
X4.162Y-4.8134
X4.162Y-4.9134
X4.262Y-4.0134
X4.262Y-4.1134
X4.262Y-4.2134
X4.262Y-4.3134
X4.262Y-4.4134
X4.262Y-4.5134
X4.262Y-4.6134
X4.262Y-4.7134
X4.262Y-4.8134
X4.262Y-4.9134
X4.4838Y-3.9229
X4.4838Y-4.0229
X4.4838Y-4.1229
X4.489Y-3.6663
X4.589Y-3.6663
X4.863Y-3.6663
X4.8838Y-3.9235
X4.8838Y-4.0235
X4.8838Y-4.1235
X4.963Y-3.6663
X5.1189Y-3.6663
X5.2189Y-3.6663
X6.3114Y-3.9094
X6.3114Y-4.0094
X6.3114Y-4.1094
X6.3114Y-4.2094
X6.3114Y-4.3094
X6.3114Y-4.4606
X6.3114Y-4.5606
X6.3114Y-4.6606
X6.3114Y-4.8171
X6.3114Y-4.9171
X6.3114Y-5.0171
T7
X3.8409Y-6.6388
X3.8409Y-6.8159
X3.8409Y-8.217
X3.8409Y-8.3942
X3.8409Y-9.2692
X3.8409Y-9.4464
X4.0969Y-6.6388
X4.0969Y-6.8159
X4.0969Y-8.217
X4.0969Y-8.3942
X4.0969Y-9.2692
X4.0969Y-9.4464
X4.3661Y-6.1127
X4.3661Y-6.2899
X4.368Y-7.1649
X4.368Y-7.342
X4.622Y-6.1127
X4.622Y-6.2899
X4.6239Y-7.1649
X4.6239Y-7.342
X4.8941Y-6.6388
X4.8941Y-6.8159
X4.8941Y-8.217
X4.8941Y-8.3942
X4.8941Y-9.2692
X4.8941Y-9.4464
X5.15Y-6.6388
X5.15Y-6.8159
X5.15Y-8.217
X5.15Y-8.3942
X5.15Y-9.2692
X5.15Y-9.4464
X5.6224Y-5.497
X5.6224Y-5.6742
X5.8783Y-5.497
X5.8783Y-5.6742
X5.9472Y-6.1127
X5.9472Y-6.2899
X5.9472Y-6.6388
X5.9472Y-6.8159
X5.9472Y-8.217
X5.9472Y-8.3942
X5.9472Y-9.2692
X5.9472Y-9.4464
X6.2031Y-6.1127
X6.2031Y-6.2899
X6.2031Y-6.6388
X6.2031Y-6.8159
X6.2031Y-8.217
X6.2031Y-8.3942
X6.2031Y-9.2692
X6.2031Y-9.4464
T8
X5.4051Y-3.6669
X5.8791Y-3.6669
T9
X3.7327Y-3.7195
X3.7327Y-5.2274
X3.7819Y-3.4301
X3.7819Y-9.7884
X6.2622Y-3.4301
X6.2622Y-9.7884
X6.3114Y-3.7195
X6.3114Y-5.2274
T0
M30
