%TF.GenerationSoftware,KiCad,Pcbnew,(6.0.8)*%
%TF.CreationDate,2022-11-02T23:41:58+01:00*%
%TF.ProjectId,crane,6372616e-652e-46b6-9963-61645f706362,rev?*%
%TF.SameCoordinates,Original*%
%TF.FileFunction,AssemblyDrawing,Top*%
%FSLAX46Y46*%
G04 Gerber Fmt 4.6, Leading zero omitted, Abs format (unit mm)*
G04 Created by KiCad (PCBNEW (6.0.8)) date 2022-11-02 23:41:58*
%MOMM*%
%LPD*%
G01*
G04 APERTURE LIST*
%ADD10C,0.150000*%
%ADD11C,0.100000*%
G04 APERTURE END LIST*
D10*
%TO.C,U1*%
X139214285Y-118452380D02*
X139452380Y-119452380D01*
X139642857Y-118738095D01*
X139833333Y-119452380D01*
X140071428Y-118452380D01*
X140880952Y-119452380D02*
X140880952Y-118928571D01*
X140833333Y-118833333D01*
X140738095Y-118785714D01*
X140547619Y-118785714D01*
X140452380Y-118833333D01*
X140880952Y-119404761D02*
X140785714Y-119452380D01*
X140547619Y-119452380D01*
X140452380Y-119404761D01*
X140404761Y-119309523D01*
X140404761Y-119214285D01*
X140452380Y-119119047D01*
X140547619Y-119071428D01*
X140785714Y-119071428D01*
X140880952Y-119023809D01*
X141261904Y-118785714D02*
X141500000Y-119452380D01*
X141738095Y-118785714D01*
X142500000Y-119404761D02*
X142404761Y-119452380D01*
X142214285Y-119452380D01*
X142119047Y-119404761D01*
X142071428Y-119309523D01*
X142071428Y-118928571D01*
X142119047Y-118833333D01*
X142214285Y-118785714D01*
X142404761Y-118785714D01*
X142500000Y-118833333D01*
X142547619Y-118928571D01*
X142547619Y-119023809D01*
X142071428Y-119119047D01*
X142928571Y-119404761D02*
X143023809Y-119452380D01*
X143214285Y-119452380D01*
X143309523Y-119404761D01*
X143357142Y-119309523D01*
X143357142Y-119261904D01*
X143309523Y-119166666D01*
X143214285Y-119119047D01*
X143071428Y-119119047D01*
X142976190Y-119071428D01*
X142928571Y-118976190D01*
X142928571Y-118928571D01*
X142976190Y-118833333D01*
X143071428Y-118785714D01*
X143214285Y-118785714D01*
X143309523Y-118833333D01*
X143785714Y-119452380D02*
X143785714Y-118452380D01*
X144214285Y-119452380D02*
X144214285Y-118928571D01*
X144166666Y-118833333D01*
X144071428Y-118785714D01*
X143928571Y-118785714D01*
X143833333Y-118833333D01*
X143785714Y-118880952D01*
X145119047Y-119452380D02*
X145119047Y-118928571D01*
X145071428Y-118833333D01*
X144976190Y-118785714D01*
X144785714Y-118785714D01*
X144690476Y-118833333D01*
X145119047Y-119404761D02*
X145023809Y-119452380D01*
X144785714Y-119452380D01*
X144690476Y-119404761D01*
X144642857Y-119309523D01*
X144642857Y-119214285D01*
X144690476Y-119119047D01*
X144785714Y-119071428D01*
X145023809Y-119071428D01*
X145119047Y-119023809D01*
X145595238Y-119452380D02*
X145595238Y-118785714D01*
X145595238Y-118976190D02*
X145642857Y-118880952D01*
X145690476Y-118833333D01*
X145785714Y-118785714D01*
X145880952Y-118785714D01*
X146595238Y-119404761D02*
X146500000Y-119452380D01*
X146309523Y-119452380D01*
X146214285Y-119404761D01*
X146166666Y-119309523D01*
X146166666Y-118928571D01*
X146214285Y-118833333D01*
X146309523Y-118785714D01*
X146500000Y-118785714D01*
X146595238Y-118833333D01*
X146642857Y-118928571D01*
X146642857Y-119023809D01*
X146166666Y-119119047D01*
X146833333Y-119547619D02*
X147595238Y-119547619D01*
X148309523Y-119452380D02*
X147833333Y-119452380D01*
X147833333Y-118452380D01*
X149214285Y-119357142D02*
X149166666Y-119404761D01*
X149023809Y-119452380D01*
X148928571Y-119452380D01*
X148785714Y-119404761D01*
X148690476Y-119309523D01*
X148642857Y-119214285D01*
X148595238Y-119023809D01*
X148595238Y-118880952D01*
X148642857Y-118690476D01*
X148690476Y-118595238D01*
X148785714Y-118500000D01*
X148928571Y-118452380D01*
X149023809Y-118452380D01*
X149166666Y-118500000D01*
X149214285Y-118547619D01*
X149642857Y-119452380D02*
X149642857Y-118452380D01*
X149880952Y-118452380D01*
X150023809Y-118500000D01*
X150119047Y-118595238D01*
X150166666Y-118690476D01*
X150214285Y-118880952D01*
X150214285Y-119023809D01*
X150166666Y-119214285D01*
X150119047Y-119309523D01*
X150023809Y-119404761D01*
X149880952Y-119452380D01*
X149642857Y-119452380D01*
X150404761Y-119547619D02*
X151166666Y-119547619D01*
X151404761Y-119452380D02*
X151404761Y-118452380D01*
X151738095Y-119166666D01*
X152071428Y-118452380D01*
X152071428Y-119452380D01*
X152690476Y-119452380D02*
X152595238Y-119404761D01*
X152547619Y-119357142D01*
X152500000Y-119261904D01*
X152500000Y-118976190D01*
X152547619Y-118880952D01*
X152595238Y-118833333D01*
X152690476Y-118785714D01*
X152833333Y-118785714D01*
X152928571Y-118833333D01*
X152976190Y-118880952D01*
X153023809Y-118976190D01*
X153023809Y-119261904D01*
X152976190Y-119357142D01*
X152928571Y-119404761D01*
X152833333Y-119452380D01*
X152690476Y-119452380D01*
X153880952Y-119452380D02*
X153880952Y-118452380D01*
X153880952Y-119404761D02*
X153785714Y-119452380D01*
X153595238Y-119452380D01*
X153500000Y-119404761D01*
X153452380Y-119357142D01*
X153404761Y-119261904D01*
X153404761Y-118976190D01*
X153452380Y-118880952D01*
X153500000Y-118833333D01*
X153595238Y-118785714D01*
X153785714Y-118785714D01*
X153880952Y-118833333D01*
X154785714Y-118785714D02*
X154785714Y-119452380D01*
X154357142Y-118785714D02*
X154357142Y-119309523D01*
X154404761Y-119404761D01*
X154500000Y-119452380D01*
X154642857Y-119452380D01*
X154738095Y-119404761D01*
X154785714Y-119357142D01*
X155404761Y-119452380D02*
X155309523Y-119404761D01*
X155261904Y-119309523D01*
X155261904Y-118452380D01*
X156166666Y-119404761D02*
X156071428Y-119452380D01*
X155880952Y-119452380D01*
X155785714Y-119404761D01*
X155738095Y-119309523D01*
X155738095Y-118928571D01*
X155785714Y-118833333D01*
X155880952Y-118785714D01*
X156071428Y-118785714D01*
X156166666Y-118833333D01*
X156214285Y-118928571D01*
X156214285Y-119023809D01*
X155738095Y-119119047D01*
X156404761Y-119547619D02*
X157166666Y-119547619D01*
X157357142Y-118547619D02*
X157404761Y-118500000D01*
X157500000Y-118452380D01*
X157738095Y-118452380D01*
X157833333Y-118500000D01*
X157880952Y-118547619D01*
X157928571Y-118642857D01*
X157928571Y-118738095D01*
X157880952Y-118880952D01*
X157309523Y-119452380D01*
X157928571Y-119452380D01*
X158357142Y-119357142D02*
X158404761Y-119404761D01*
X158357142Y-119452380D01*
X158309523Y-119404761D01*
X158357142Y-119357142D01*
X158357142Y-119452380D01*
X159261904Y-118785714D02*
X159261904Y-119452380D01*
X159023809Y-118404761D02*
X158785714Y-119119047D01*
X159404761Y-119119047D01*
X159785714Y-119452380D02*
X159785714Y-118785714D01*
X159785714Y-118452380D02*
X159738095Y-118500000D01*
X159785714Y-118547619D01*
X159833333Y-118500000D01*
X159785714Y-118452380D01*
X159785714Y-118547619D01*
X160261904Y-118785714D02*
X160261904Y-119452380D01*
X160261904Y-118880952D02*
X160309523Y-118833333D01*
X160404761Y-118785714D01*
X160547619Y-118785714D01*
X160642857Y-118833333D01*
X160690476Y-118928571D01*
X160690476Y-119452380D01*
%TO.C,SW11*%
X147452380Y-241354761D02*
X147595238Y-241402380D01*
X147833333Y-241402380D01*
X147928571Y-241354761D01*
X147976190Y-241307142D01*
X148023809Y-241211904D01*
X148023809Y-241116666D01*
X147976190Y-241021428D01*
X147928571Y-240973809D01*
X147833333Y-240926190D01*
X147642857Y-240878571D01*
X147547619Y-240830952D01*
X147500000Y-240783333D01*
X147452380Y-240688095D01*
X147452380Y-240592857D01*
X147500000Y-240497619D01*
X147547619Y-240450000D01*
X147642857Y-240402380D01*
X147880952Y-240402380D01*
X148023809Y-240450000D01*
X148357142Y-240402380D02*
X148595238Y-241402380D01*
X148785714Y-240688095D01*
X148976190Y-241402380D01*
X149214285Y-240402380D01*
X149357142Y-241497619D02*
X150119047Y-241497619D01*
X150357142Y-241402380D02*
X150357142Y-240402380D01*
X150738095Y-240402380D01*
X150833333Y-240450000D01*
X150880952Y-240497619D01*
X150928571Y-240592857D01*
X150928571Y-240735714D01*
X150880952Y-240830952D01*
X150833333Y-240878571D01*
X150738095Y-240926190D01*
X150357142Y-240926190D01*
X151785714Y-240735714D02*
X151785714Y-241402380D01*
X151357142Y-240735714D02*
X151357142Y-241259523D01*
X151404761Y-241354761D01*
X151500000Y-241402380D01*
X151642857Y-241402380D01*
X151738095Y-241354761D01*
X151785714Y-241307142D01*
X152214285Y-241354761D02*
X152309523Y-241402380D01*
X152500000Y-241402380D01*
X152595238Y-241354761D01*
X152642857Y-241259523D01*
X152642857Y-241211904D01*
X152595238Y-241116666D01*
X152500000Y-241069047D01*
X152357142Y-241069047D01*
X152261904Y-241021428D01*
X152214285Y-240926190D01*
X152214285Y-240878571D01*
X152261904Y-240783333D01*
X152357142Y-240735714D01*
X152500000Y-240735714D01*
X152595238Y-240783333D01*
X153071428Y-241402380D02*
X153071428Y-240402380D01*
X153500000Y-241402380D02*
X153500000Y-240878571D01*
X153452380Y-240783333D01*
X153357142Y-240735714D01*
X153214285Y-240735714D01*
X153119047Y-240783333D01*
X153071428Y-240830952D01*
X148190476Y-236904761D02*
X148333333Y-236952380D01*
X148571428Y-236952380D01*
X148666666Y-236904761D01*
X148714285Y-236857142D01*
X148761904Y-236761904D01*
X148761904Y-236666666D01*
X148714285Y-236571428D01*
X148666666Y-236523809D01*
X148571428Y-236476190D01*
X148380952Y-236428571D01*
X148285714Y-236380952D01*
X148238095Y-236333333D01*
X148190476Y-236238095D01*
X148190476Y-236142857D01*
X148238095Y-236047619D01*
X148285714Y-236000000D01*
X148380952Y-235952380D01*
X148619047Y-235952380D01*
X148761904Y-236000000D01*
X149095238Y-235952380D02*
X149333333Y-236952380D01*
X149523809Y-236238095D01*
X149714285Y-236952380D01*
X149952380Y-235952380D01*
X150857142Y-236952380D02*
X150285714Y-236952380D01*
X150571428Y-236952380D02*
X150571428Y-235952380D01*
X150476190Y-236095238D01*
X150380952Y-236190476D01*
X150285714Y-236238095D01*
X151809523Y-236952380D02*
X151238095Y-236952380D01*
X151523809Y-236952380D02*
X151523809Y-235952380D01*
X151428571Y-236095238D01*
X151333333Y-236190476D01*
X151238095Y-236238095D01*
%TO.C,SW5*%
X147452380Y-178854761D02*
X147595238Y-178902380D01*
X147833333Y-178902380D01*
X147928571Y-178854761D01*
X147976190Y-178807142D01*
X148023809Y-178711904D01*
X148023809Y-178616666D01*
X147976190Y-178521428D01*
X147928571Y-178473809D01*
X147833333Y-178426190D01*
X147642857Y-178378571D01*
X147547619Y-178330952D01*
X147500000Y-178283333D01*
X147452380Y-178188095D01*
X147452380Y-178092857D01*
X147500000Y-177997619D01*
X147547619Y-177950000D01*
X147642857Y-177902380D01*
X147880952Y-177902380D01*
X148023809Y-177950000D01*
X148357142Y-177902380D02*
X148595238Y-178902380D01*
X148785714Y-178188095D01*
X148976190Y-178902380D01*
X149214285Y-177902380D01*
X149357142Y-178997619D02*
X150119047Y-178997619D01*
X150357142Y-178902380D02*
X150357142Y-177902380D01*
X150738095Y-177902380D01*
X150833333Y-177950000D01*
X150880952Y-177997619D01*
X150928571Y-178092857D01*
X150928571Y-178235714D01*
X150880952Y-178330952D01*
X150833333Y-178378571D01*
X150738095Y-178426190D01*
X150357142Y-178426190D01*
X151785714Y-178235714D02*
X151785714Y-178902380D01*
X151357142Y-178235714D02*
X151357142Y-178759523D01*
X151404761Y-178854761D01*
X151500000Y-178902380D01*
X151642857Y-178902380D01*
X151738095Y-178854761D01*
X151785714Y-178807142D01*
X152214285Y-178854761D02*
X152309523Y-178902380D01*
X152500000Y-178902380D01*
X152595238Y-178854761D01*
X152642857Y-178759523D01*
X152642857Y-178711904D01*
X152595238Y-178616666D01*
X152500000Y-178569047D01*
X152357142Y-178569047D01*
X152261904Y-178521428D01*
X152214285Y-178426190D01*
X152214285Y-178378571D01*
X152261904Y-178283333D01*
X152357142Y-178235714D01*
X152500000Y-178235714D01*
X152595238Y-178283333D01*
X153071428Y-178902380D02*
X153071428Y-177902380D01*
X153500000Y-178902380D02*
X153500000Y-178378571D01*
X153452380Y-178283333D01*
X153357142Y-178235714D01*
X153214285Y-178235714D01*
X153119047Y-178283333D01*
X153071428Y-178330952D01*
X148666666Y-174404761D02*
X148809523Y-174452380D01*
X149047619Y-174452380D01*
X149142857Y-174404761D01*
X149190476Y-174357142D01*
X149238095Y-174261904D01*
X149238095Y-174166666D01*
X149190476Y-174071428D01*
X149142857Y-174023809D01*
X149047619Y-173976190D01*
X148857142Y-173928571D01*
X148761904Y-173880952D01*
X148714285Y-173833333D01*
X148666666Y-173738095D01*
X148666666Y-173642857D01*
X148714285Y-173547619D01*
X148761904Y-173500000D01*
X148857142Y-173452380D01*
X149095238Y-173452380D01*
X149238095Y-173500000D01*
X149571428Y-173452380D02*
X149809523Y-174452380D01*
X150000000Y-173738095D01*
X150190476Y-174452380D01*
X150428571Y-173452380D01*
X151285714Y-173452380D02*
X150809523Y-173452380D01*
X150761904Y-173928571D01*
X150809523Y-173880952D01*
X150904761Y-173833333D01*
X151142857Y-173833333D01*
X151238095Y-173880952D01*
X151285714Y-173928571D01*
X151333333Y-174023809D01*
X151333333Y-174261904D01*
X151285714Y-174357142D01*
X151238095Y-174404761D01*
X151142857Y-174452380D01*
X150904761Y-174452380D01*
X150809523Y-174404761D01*
X150761904Y-174357142D01*
%TO.C,SW8*%
X147452380Y-216354761D02*
X147595238Y-216402380D01*
X147833333Y-216402380D01*
X147928571Y-216354761D01*
X147976190Y-216307142D01*
X148023809Y-216211904D01*
X148023809Y-216116666D01*
X147976190Y-216021428D01*
X147928571Y-215973809D01*
X147833333Y-215926190D01*
X147642857Y-215878571D01*
X147547619Y-215830952D01*
X147500000Y-215783333D01*
X147452380Y-215688095D01*
X147452380Y-215592857D01*
X147500000Y-215497619D01*
X147547619Y-215450000D01*
X147642857Y-215402380D01*
X147880952Y-215402380D01*
X148023809Y-215450000D01*
X148357142Y-215402380D02*
X148595238Y-216402380D01*
X148785714Y-215688095D01*
X148976190Y-216402380D01*
X149214285Y-215402380D01*
X149357142Y-216497619D02*
X150119047Y-216497619D01*
X150357142Y-216402380D02*
X150357142Y-215402380D01*
X150738095Y-215402380D01*
X150833333Y-215450000D01*
X150880952Y-215497619D01*
X150928571Y-215592857D01*
X150928571Y-215735714D01*
X150880952Y-215830952D01*
X150833333Y-215878571D01*
X150738095Y-215926190D01*
X150357142Y-215926190D01*
X151785714Y-215735714D02*
X151785714Y-216402380D01*
X151357142Y-215735714D02*
X151357142Y-216259523D01*
X151404761Y-216354761D01*
X151500000Y-216402380D01*
X151642857Y-216402380D01*
X151738095Y-216354761D01*
X151785714Y-216307142D01*
X152214285Y-216354761D02*
X152309523Y-216402380D01*
X152500000Y-216402380D01*
X152595238Y-216354761D01*
X152642857Y-216259523D01*
X152642857Y-216211904D01*
X152595238Y-216116666D01*
X152500000Y-216069047D01*
X152357142Y-216069047D01*
X152261904Y-216021428D01*
X152214285Y-215926190D01*
X152214285Y-215878571D01*
X152261904Y-215783333D01*
X152357142Y-215735714D01*
X152500000Y-215735714D01*
X152595238Y-215783333D01*
X153071428Y-216402380D02*
X153071428Y-215402380D01*
X153500000Y-216402380D02*
X153500000Y-215878571D01*
X153452380Y-215783333D01*
X153357142Y-215735714D01*
X153214285Y-215735714D01*
X153119047Y-215783333D01*
X153071428Y-215830952D01*
X148666666Y-211904761D02*
X148809523Y-211952380D01*
X149047619Y-211952380D01*
X149142857Y-211904761D01*
X149190476Y-211857142D01*
X149238095Y-211761904D01*
X149238095Y-211666666D01*
X149190476Y-211571428D01*
X149142857Y-211523809D01*
X149047619Y-211476190D01*
X148857142Y-211428571D01*
X148761904Y-211380952D01*
X148714285Y-211333333D01*
X148666666Y-211238095D01*
X148666666Y-211142857D01*
X148714285Y-211047619D01*
X148761904Y-211000000D01*
X148857142Y-210952380D01*
X149095238Y-210952380D01*
X149238095Y-211000000D01*
X149571428Y-210952380D02*
X149809523Y-211952380D01*
X150000000Y-211238095D01*
X150190476Y-211952380D01*
X150428571Y-210952380D01*
X150952380Y-211380952D02*
X150857142Y-211333333D01*
X150809523Y-211285714D01*
X150761904Y-211190476D01*
X150761904Y-211142857D01*
X150809523Y-211047619D01*
X150857142Y-211000000D01*
X150952380Y-210952380D01*
X151142857Y-210952380D01*
X151238095Y-211000000D01*
X151285714Y-211047619D01*
X151333333Y-211142857D01*
X151333333Y-211190476D01*
X151285714Y-211285714D01*
X151238095Y-211333333D01*
X151142857Y-211380952D01*
X150952380Y-211380952D01*
X150857142Y-211428571D01*
X150809523Y-211476190D01*
X150761904Y-211571428D01*
X150761904Y-211761904D01*
X150809523Y-211857142D01*
X150857142Y-211904761D01*
X150952380Y-211952380D01*
X151142857Y-211952380D01*
X151238095Y-211904761D01*
X151285714Y-211857142D01*
X151333333Y-211761904D01*
X151333333Y-211571428D01*
X151285714Y-211476190D01*
X151238095Y-211428571D01*
X151142857Y-211380952D01*
%TO.C,H2*%
X175214285Y-254452380D02*
X175214285Y-253452380D01*
X175547619Y-254166666D01*
X175880952Y-253452380D01*
X175880952Y-254452380D01*
X176500000Y-254452380D02*
X176404761Y-254404761D01*
X176357142Y-254357142D01*
X176309523Y-254261904D01*
X176309523Y-253976190D01*
X176357142Y-253880952D01*
X176404761Y-253833333D01*
X176500000Y-253785714D01*
X176642857Y-253785714D01*
X176738095Y-253833333D01*
X176785714Y-253880952D01*
X176833333Y-253976190D01*
X176833333Y-254261904D01*
X176785714Y-254357142D01*
X176738095Y-254404761D01*
X176642857Y-254452380D01*
X176500000Y-254452380D01*
X177690476Y-253785714D02*
X177690476Y-254452380D01*
X177261904Y-253785714D02*
X177261904Y-254309523D01*
X177309523Y-254404761D01*
X177404761Y-254452380D01*
X177547619Y-254452380D01*
X177642857Y-254404761D01*
X177690476Y-254357142D01*
X178166666Y-253785714D02*
X178166666Y-254452380D01*
X178166666Y-253880952D02*
X178214285Y-253833333D01*
X178309523Y-253785714D01*
X178452380Y-253785714D01*
X178547619Y-253833333D01*
X178595238Y-253928571D01*
X178595238Y-254452380D01*
X178928571Y-253785714D02*
X179309523Y-253785714D01*
X179071428Y-253452380D02*
X179071428Y-254309523D01*
X179119047Y-254404761D01*
X179214285Y-254452380D01*
X179309523Y-254452380D01*
X179642857Y-254452380D02*
X179642857Y-253785714D01*
X179642857Y-253452380D02*
X179595238Y-253500000D01*
X179642857Y-253547619D01*
X179690476Y-253500000D01*
X179642857Y-253452380D01*
X179642857Y-253547619D01*
X180119047Y-253785714D02*
X180119047Y-254452380D01*
X180119047Y-253880952D02*
X180166666Y-253833333D01*
X180261904Y-253785714D01*
X180404761Y-253785714D01*
X180500000Y-253833333D01*
X180547619Y-253928571D01*
X180547619Y-254452380D01*
X181452380Y-253785714D02*
X181452380Y-254595238D01*
X181404761Y-254690476D01*
X181357142Y-254738095D01*
X181261904Y-254785714D01*
X181119047Y-254785714D01*
X181023809Y-254738095D01*
X181452380Y-254404761D02*
X181357142Y-254452380D01*
X181166666Y-254452380D01*
X181071428Y-254404761D01*
X181023809Y-254357142D01*
X180976190Y-254261904D01*
X180976190Y-253976190D01*
X181023809Y-253880952D01*
X181071428Y-253833333D01*
X181166666Y-253785714D01*
X181357142Y-253785714D01*
X181452380Y-253833333D01*
X181928571Y-254452380D02*
X181928571Y-253452380D01*
X181928571Y-253928571D02*
X182500000Y-253928571D01*
X182500000Y-254452380D02*
X182500000Y-253452380D01*
X183119047Y-254452380D02*
X183023809Y-254404761D01*
X182976190Y-254357142D01*
X182928571Y-254261904D01*
X182928571Y-253976190D01*
X182976190Y-253880952D01*
X183023809Y-253833333D01*
X183119047Y-253785714D01*
X183261904Y-253785714D01*
X183357142Y-253833333D01*
X183404761Y-253880952D01*
X183452380Y-253976190D01*
X183452380Y-254261904D01*
X183404761Y-254357142D01*
X183357142Y-254404761D01*
X183261904Y-254452380D01*
X183119047Y-254452380D01*
X184023809Y-254452380D02*
X183928571Y-254404761D01*
X183880952Y-254309523D01*
X183880952Y-253452380D01*
X184785714Y-254404761D02*
X184690476Y-254452380D01*
X184500000Y-254452380D01*
X184404761Y-254404761D01*
X184357142Y-254309523D01*
X184357142Y-253928571D01*
X184404761Y-253833333D01*
X184500000Y-253785714D01*
X184690476Y-253785714D01*
X184785714Y-253833333D01*
X184833333Y-253928571D01*
X184833333Y-254023809D01*
X184357142Y-254119047D01*
X179238095Y-250452380D02*
X179238095Y-249452380D01*
X179238095Y-249928571D02*
X179809523Y-249928571D01*
X179809523Y-250452380D02*
X179809523Y-249452380D01*
X180238095Y-249547619D02*
X180285714Y-249500000D01*
X180380952Y-249452380D01*
X180619047Y-249452380D01*
X180714285Y-249500000D01*
X180761904Y-249547619D01*
X180809523Y-249642857D01*
X180809523Y-249738095D01*
X180761904Y-249880952D01*
X180190476Y-250452380D01*
X180809523Y-250452380D01*
%TO.C,SW10*%
X123452380Y-241354761D02*
X123595238Y-241402380D01*
X123833333Y-241402380D01*
X123928571Y-241354761D01*
X123976190Y-241307142D01*
X124023809Y-241211904D01*
X124023809Y-241116666D01*
X123976190Y-241021428D01*
X123928571Y-240973809D01*
X123833333Y-240926190D01*
X123642857Y-240878571D01*
X123547619Y-240830952D01*
X123500000Y-240783333D01*
X123452380Y-240688095D01*
X123452380Y-240592857D01*
X123500000Y-240497619D01*
X123547619Y-240450000D01*
X123642857Y-240402380D01*
X123880952Y-240402380D01*
X124023809Y-240450000D01*
X124357142Y-240402380D02*
X124595238Y-241402380D01*
X124785714Y-240688095D01*
X124976190Y-241402380D01*
X125214285Y-240402380D01*
X125357142Y-241497619D02*
X126119047Y-241497619D01*
X126357142Y-241402380D02*
X126357142Y-240402380D01*
X126738095Y-240402380D01*
X126833333Y-240450000D01*
X126880952Y-240497619D01*
X126928571Y-240592857D01*
X126928571Y-240735714D01*
X126880952Y-240830952D01*
X126833333Y-240878571D01*
X126738095Y-240926190D01*
X126357142Y-240926190D01*
X127785714Y-240735714D02*
X127785714Y-241402380D01*
X127357142Y-240735714D02*
X127357142Y-241259523D01*
X127404761Y-241354761D01*
X127500000Y-241402380D01*
X127642857Y-241402380D01*
X127738095Y-241354761D01*
X127785714Y-241307142D01*
X128214285Y-241354761D02*
X128309523Y-241402380D01*
X128500000Y-241402380D01*
X128595238Y-241354761D01*
X128642857Y-241259523D01*
X128642857Y-241211904D01*
X128595238Y-241116666D01*
X128500000Y-241069047D01*
X128357142Y-241069047D01*
X128261904Y-241021428D01*
X128214285Y-240926190D01*
X128214285Y-240878571D01*
X128261904Y-240783333D01*
X128357142Y-240735714D01*
X128500000Y-240735714D01*
X128595238Y-240783333D01*
X129071428Y-241402380D02*
X129071428Y-240402380D01*
X129500000Y-241402380D02*
X129500000Y-240878571D01*
X129452380Y-240783333D01*
X129357142Y-240735714D01*
X129214285Y-240735714D01*
X129119047Y-240783333D01*
X129071428Y-240830952D01*
X124190476Y-236904761D02*
X124333333Y-236952380D01*
X124571428Y-236952380D01*
X124666666Y-236904761D01*
X124714285Y-236857142D01*
X124761904Y-236761904D01*
X124761904Y-236666666D01*
X124714285Y-236571428D01*
X124666666Y-236523809D01*
X124571428Y-236476190D01*
X124380952Y-236428571D01*
X124285714Y-236380952D01*
X124238095Y-236333333D01*
X124190476Y-236238095D01*
X124190476Y-236142857D01*
X124238095Y-236047619D01*
X124285714Y-236000000D01*
X124380952Y-235952380D01*
X124619047Y-235952380D01*
X124761904Y-236000000D01*
X125095238Y-235952380D02*
X125333333Y-236952380D01*
X125523809Y-236238095D01*
X125714285Y-236952380D01*
X125952380Y-235952380D01*
X126857142Y-236952380D02*
X126285714Y-236952380D01*
X126571428Y-236952380D02*
X126571428Y-235952380D01*
X126476190Y-236095238D01*
X126380952Y-236190476D01*
X126285714Y-236238095D01*
X127476190Y-235952380D02*
X127571428Y-235952380D01*
X127666666Y-236000000D01*
X127714285Y-236047619D01*
X127761904Y-236142857D01*
X127809523Y-236333333D01*
X127809523Y-236571428D01*
X127761904Y-236761904D01*
X127714285Y-236857142D01*
X127666666Y-236904761D01*
X127571428Y-236952380D01*
X127476190Y-236952380D01*
X127380952Y-236904761D01*
X127333333Y-236857142D01*
X127285714Y-236761904D01*
X127238095Y-236571428D01*
X127238095Y-236333333D01*
X127285714Y-236142857D01*
X127333333Y-236047619D01*
X127380952Y-236000000D01*
X127476190Y-235952380D01*
%TO.C,H3*%
X114714285Y-254452380D02*
X114714285Y-253452380D01*
X115047619Y-254166666D01*
X115380952Y-253452380D01*
X115380952Y-254452380D01*
X116000000Y-254452380D02*
X115904761Y-254404761D01*
X115857142Y-254357142D01*
X115809523Y-254261904D01*
X115809523Y-253976190D01*
X115857142Y-253880952D01*
X115904761Y-253833333D01*
X116000000Y-253785714D01*
X116142857Y-253785714D01*
X116238095Y-253833333D01*
X116285714Y-253880952D01*
X116333333Y-253976190D01*
X116333333Y-254261904D01*
X116285714Y-254357142D01*
X116238095Y-254404761D01*
X116142857Y-254452380D01*
X116000000Y-254452380D01*
X117190476Y-253785714D02*
X117190476Y-254452380D01*
X116761904Y-253785714D02*
X116761904Y-254309523D01*
X116809523Y-254404761D01*
X116904761Y-254452380D01*
X117047619Y-254452380D01*
X117142857Y-254404761D01*
X117190476Y-254357142D01*
X117666666Y-253785714D02*
X117666666Y-254452380D01*
X117666666Y-253880952D02*
X117714285Y-253833333D01*
X117809523Y-253785714D01*
X117952380Y-253785714D01*
X118047619Y-253833333D01*
X118095238Y-253928571D01*
X118095238Y-254452380D01*
X118428571Y-253785714D02*
X118809523Y-253785714D01*
X118571428Y-253452380D02*
X118571428Y-254309523D01*
X118619047Y-254404761D01*
X118714285Y-254452380D01*
X118809523Y-254452380D01*
X119142857Y-254452380D02*
X119142857Y-253785714D01*
X119142857Y-253452380D02*
X119095238Y-253500000D01*
X119142857Y-253547619D01*
X119190476Y-253500000D01*
X119142857Y-253452380D01*
X119142857Y-253547619D01*
X119619047Y-253785714D02*
X119619047Y-254452380D01*
X119619047Y-253880952D02*
X119666666Y-253833333D01*
X119761904Y-253785714D01*
X119904761Y-253785714D01*
X120000000Y-253833333D01*
X120047619Y-253928571D01*
X120047619Y-254452380D01*
X120952380Y-253785714D02*
X120952380Y-254595238D01*
X120904761Y-254690476D01*
X120857142Y-254738095D01*
X120761904Y-254785714D01*
X120619047Y-254785714D01*
X120523809Y-254738095D01*
X120952380Y-254404761D02*
X120857142Y-254452380D01*
X120666666Y-254452380D01*
X120571428Y-254404761D01*
X120523809Y-254357142D01*
X120476190Y-254261904D01*
X120476190Y-253976190D01*
X120523809Y-253880952D01*
X120571428Y-253833333D01*
X120666666Y-253785714D01*
X120857142Y-253785714D01*
X120952380Y-253833333D01*
X121428571Y-254452380D02*
X121428571Y-253452380D01*
X121428571Y-253928571D02*
X122000000Y-253928571D01*
X122000000Y-254452380D02*
X122000000Y-253452380D01*
X122619047Y-254452380D02*
X122523809Y-254404761D01*
X122476190Y-254357142D01*
X122428571Y-254261904D01*
X122428571Y-253976190D01*
X122476190Y-253880952D01*
X122523809Y-253833333D01*
X122619047Y-253785714D01*
X122761904Y-253785714D01*
X122857142Y-253833333D01*
X122904761Y-253880952D01*
X122952380Y-253976190D01*
X122952380Y-254261904D01*
X122904761Y-254357142D01*
X122857142Y-254404761D01*
X122761904Y-254452380D01*
X122619047Y-254452380D01*
X123523809Y-254452380D02*
X123428571Y-254404761D01*
X123380952Y-254309523D01*
X123380952Y-253452380D01*
X124285714Y-254404761D02*
X124190476Y-254452380D01*
X124000000Y-254452380D01*
X123904761Y-254404761D01*
X123857142Y-254309523D01*
X123857142Y-253928571D01*
X123904761Y-253833333D01*
X124000000Y-253785714D01*
X124190476Y-253785714D01*
X124285714Y-253833333D01*
X124333333Y-253928571D01*
X124333333Y-254023809D01*
X123857142Y-254119047D01*
X118738095Y-250452380D02*
X118738095Y-249452380D01*
X118738095Y-249928571D02*
X119309523Y-249928571D01*
X119309523Y-250452380D02*
X119309523Y-249452380D01*
X119690476Y-249452380D02*
X120309523Y-249452380D01*
X119976190Y-249833333D01*
X120119047Y-249833333D01*
X120214285Y-249880952D01*
X120261904Y-249928571D01*
X120309523Y-250023809D01*
X120309523Y-250261904D01*
X120261904Y-250357142D01*
X120214285Y-250404761D01*
X120119047Y-250452380D01*
X119833333Y-250452380D01*
X119738095Y-250404761D01*
X119690476Y-250357142D01*
%TO.C,SW12*%
X171452380Y-241354761D02*
X171595238Y-241402380D01*
X171833333Y-241402380D01*
X171928571Y-241354761D01*
X171976190Y-241307142D01*
X172023809Y-241211904D01*
X172023809Y-241116666D01*
X171976190Y-241021428D01*
X171928571Y-240973809D01*
X171833333Y-240926190D01*
X171642857Y-240878571D01*
X171547619Y-240830952D01*
X171500000Y-240783333D01*
X171452380Y-240688095D01*
X171452380Y-240592857D01*
X171500000Y-240497619D01*
X171547619Y-240450000D01*
X171642857Y-240402380D01*
X171880952Y-240402380D01*
X172023809Y-240450000D01*
X172357142Y-240402380D02*
X172595238Y-241402380D01*
X172785714Y-240688095D01*
X172976190Y-241402380D01*
X173214285Y-240402380D01*
X173357142Y-241497619D02*
X174119047Y-241497619D01*
X174357142Y-241402380D02*
X174357142Y-240402380D01*
X174738095Y-240402380D01*
X174833333Y-240450000D01*
X174880952Y-240497619D01*
X174928571Y-240592857D01*
X174928571Y-240735714D01*
X174880952Y-240830952D01*
X174833333Y-240878571D01*
X174738095Y-240926190D01*
X174357142Y-240926190D01*
X175785714Y-240735714D02*
X175785714Y-241402380D01*
X175357142Y-240735714D02*
X175357142Y-241259523D01*
X175404761Y-241354761D01*
X175500000Y-241402380D01*
X175642857Y-241402380D01*
X175738095Y-241354761D01*
X175785714Y-241307142D01*
X176214285Y-241354761D02*
X176309523Y-241402380D01*
X176500000Y-241402380D01*
X176595238Y-241354761D01*
X176642857Y-241259523D01*
X176642857Y-241211904D01*
X176595238Y-241116666D01*
X176500000Y-241069047D01*
X176357142Y-241069047D01*
X176261904Y-241021428D01*
X176214285Y-240926190D01*
X176214285Y-240878571D01*
X176261904Y-240783333D01*
X176357142Y-240735714D01*
X176500000Y-240735714D01*
X176595238Y-240783333D01*
X177071428Y-241402380D02*
X177071428Y-240402380D01*
X177500000Y-241402380D02*
X177500000Y-240878571D01*
X177452380Y-240783333D01*
X177357142Y-240735714D01*
X177214285Y-240735714D01*
X177119047Y-240783333D01*
X177071428Y-240830952D01*
X172190476Y-236904761D02*
X172333333Y-236952380D01*
X172571428Y-236952380D01*
X172666666Y-236904761D01*
X172714285Y-236857142D01*
X172761904Y-236761904D01*
X172761904Y-236666666D01*
X172714285Y-236571428D01*
X172666666Y-236523809D01*
X172571428Y-236476190D01*
X172380952Y-236428571D01*
X172285714Y-236380952D01*
X172238095Y-236333333D01*
X172190476Y-236238095D01*
X172190476Y-236142857D01*
X172238095Y-236047619D01*
X172285714Y-236000000D01*
X172380952Y-235952380D01*
X172619047Y-235952380D01*
X172761904Y-236000000D01*
X173095238Y-235952380D02*
X173333333Y-236952380D01*
X173523809Y-236238095D01*
X173714285Y-236952380D01*
X173952380Y-235952380D01*
X174857142Y-236952380D02*
X174285714Y-236952380D01*
X174571428Y-236952380D02*
X174571428Y-235952380D01*
X174476190Y-236095238D01*
X174380952Y-236190476D01*
X174285714Y-236238095D01*
X175238095Y-236047619D02*
X175285714Y-236000000D01*
X175380952Y-235952380D01*
X175619047Y-235952380D01*
X175714285Y-236000000D01*
X175761904Y-236047619D01*
X175809523Y-236142857D01*
X175809523Y-236238095D01*
X175761904Y-236380952D01*
X175190476Y-236952380D01*
X175809523Y-236952380D01*
%TO.C,SW1*%
X171452380Y-166354761D02*
X171595238Y-166402380D01*
X171833333Y-166402380D01*
X171928571Y-166354761D01*
X171976190Y-166307142D01*
X172023809Y-166211904D01*
X172023809Y-166116666D01*
X171976190Y-166021428D01*
X171928571Y-165973809D01*
X171833333Y-165926190D01*
X171642857Y-165878571D01*
X171547619Y-165830952D01*
X171500000Y-165783333D01*
X171452380Y-165688095D01*
X171452380Y-165592857D01*
X171500000Y-165497619D01*
X171547619Y-165450000D01*
X171642857Y-165402380D01*
X171880952Y-165402380D01*
X172023809Y-165450000D01*
X172357142Y-165402380D02*
X172595238Y-166402380D01*
X172785714Y-165688095D01*
X172976190Y-166402380D01*
X173214285Y-165402380D01*
X173357142Y-166497619D02*
X174119047Y-166497619D01*
X174357142Y-166402380D02*
X174357142Y-165402380D01*
X174738095Y-165402380D01*
X174833333Y-165450000D01*
X174880952Y-165497619D01*
X174928571Y-165592857D01*
X174928571Y-165735714D01*
X174880952Y-165830952D01*
X174833333Y-165878571D01*
X174738095Y-165926190D01*
X174357142Y-165926190D01*
X175785714Y-165735714D02*
X175785714Y-166402380D01*
X175357142Y-165735714D02*
X175357142Y-166259523D01*
X175404761Y-166354761D01*
X175500000Y-166402380D01*
X175642857Y-166402380D01*
X175738095Y-166354761D01*
X175785714Y-166307142D01*
X176214285Y-166354761D02*
X176309523Y-166402380D01*
X176500000Y-166402380D01*
X176595238Y-166354761D01*
X176642857Y-166259523D01*
X176642857Y-166211904D01*
X176595238Y-166116666D01*
X176500000Y-166069047D01*
X176357142Y-166069047D01*
X176261904Y-166021428D01*
X176214285Y-165926190D01*
X176214285Y-165878571D01*
X176261904Y-165783333D01*
X176357142Y-165735714D01*
X176500000Y-165735714D01*
X176595238Y-165783333D01*
X177071428Y-166402380D02*
X177071428Y-165402380D01*
X177500000Y-166402380D02*
X177500000Y-165878571D01*
X177452380Y-165783333D01*
X177357142Y-165735714D01*
X177214285Y-165735714D01*
X177119047Y-165783333D01*
X177071428Y-165830952D01*
X172666666Y-161904761D02*
X172809523Y-161952380D01*
X173047619Y-161952380D01*
X173142857Y-161904761D01*
X173190476Y-161857142D01*
X173238095Y-161761904D01*
X173238095Y-161666666D01*
X173190476Y-161571428D01*
X173142857Y-161523809D01*
X173047619Y-161476190D01*
X172857142Y-161428571D01*
X172761904Y-161380952D01*
X172714285Y-161333333D01*
X172666666Y-161238095D01*
X172666666Y-161142857D01*
X172714285Y-161047619D01*
X172761904Y-161000000D01*
X172857142Y-160952380D01*
X173095238Y-160952380D01*
X173238095Y-161000000D01*
X173571428Y-160952380D02*
X173809523Y-161952380D01*
X174000000Y-161238095D01*
X174190476Y-161952380D01*
X174428571Y-160952380D01*
X175333333Y-161952380D02*
X174761904Y-161952380D01*
X175047619Y-161952380D02*
X175047619Y-160952380D01*
X174952380Y-161095238D01*
X174857142Y-161190476D01*
X174761904Y-161238095D01*
%TO.C,H4*%
X175714285Y-96452380D02*
X175714285Y-95452380D01*
X176047619Y-96166666D01*
X176380952Y-95452380D01*
X176380952Y-96452380D01*
X177000000Y-96452380D02*
X176904761Y-96404761D01*
X176857142Y-96357142D01*
X176809523Y-96261904D01*
X176809523Y-95976190D01*
X176857142Y-95880952D01*
X176904761Y-95833333D01*
X177000000Y-95785714D01*
X177142857Y-95785714D01*
X177238095Y-95833333D01*
X177285714Y-95880952D01*
X177333333Y-95976190D01*
X177333333Y-96261904D01*
X177285714Y-96357142D01*
X177238095Y-96404761D01*
X177142857Y-96452380D01*
X177000000Y-96452380D01*
X178190476Y-95785714D02*
X178190476Y-96452380D01*
X177761904Y-95785714D02*
X177761904Y-96309523D01*
X177809523Y-96404761D01*
X177904761Y-96452380D01*
X178047619Y-96452380D01*
X178142857Y-96404761D01*
X178190476Y-96357142D01*
X178666666Y-95785714D02*
X178666666Y-96452380D01*
X178666666Y-95880952D02*
X178714285Y-95833333D01*
X178809523Y-95785714D01*
X178952380Y-95785714D01*
X179047619Y-95833333D01*
X179095238Y-95928571D01*
X179095238Y-96452380D01*
X179428571Y-95785714D02*
X179809523Y-95785714D01*
X179571428Y-95452380D02*
X179571428Y-96309523D01*
X179619047Y-96404761D01*
X179714285Y-96452380D01*
X179809523Y-96452380D01*
X180142857Y-96452380D02*
X180142857Y-95785714D01*
X180142857Y-95452380D02*
X180095238Y-95500000D01*
X180142857Y-95547619D01*
X180190476Y-95500000D01*
X180142857Y-95452380D01*
X180142857Y-95547619D01*
X180619047Y-95785714D02*
X180619047Y-96452380D01*
X180619047Y-95880952D02*
X180666666Y-95833333D01*
X180761904Y-95785714D01*
X180904761Y-95785714D01*
X181000000Y-95833333D01*
X181047619Y-95928571D01*
X181047619Y-96452380D01*
X181952380Y-95785714D02*
X181952380Y-96595238D01*
X181904761Y-96690476D01*
X181857142Y-96738095D01*
X181761904Y-96785714D01*
X181619047Y-96785714D01*
X181523809Y-96738095D01*
X181952380Y-96404761D02*
X181857142Y-96452380D01*
X181666666Y-96452380D01*
X181571428Y-96404761D01*
X181523809Y-96357142D01*
X181476190Y-96261904D01*
X181476190Y-95976190D01*
X181523809Y-95880952D01*
X181571428Y-95833333D01*
X181666666Y-95785714D01*
X181857142Y-95785714D01*
X181952380Y-95833333D01*
X182428571Y-96452380D02*
X182428571Y-95452380D01*
X182428571Y-95928571D02*
X183000000Y-95928571D01*
X183000000Y-96452380D02*
X183000000Y-95452380D01*
X183619047Y-96452380D02*
X183523809Y-96404761D01*
X183476190Y-96357142D01*
X183428571Y-96261904D01*
X183428571Y-95976190D01*
X183476190Y-95880952D01*
X183523809Y-95833333D01*
X183619047Y-95785714D01*
X183761904Y-95785714D01*
X183857142Y-95833333D01*
X183904761Y-95880952D01*
X183952380Y-95976190D01*
X183952380Y-96261904D01*
X183904761Y-96357142D01*
X183857142Y-96404761D01*
X183761904Y-96452380D01*
X183619047Y-96452380D01*
X184523809Y-96452380D02*
X184428571Y-96404761D01*
X184380952Y-96309523D01*
X184380952Y-95452380D01*
X185285714Y-96404761D02*
X185190476Y-96452380D01*
X185000000Y-96452380D01*
X184904761Y-96404761D01*
X184857142Y-96309523D01*
X184857142Y-95928571D01*
X184904761Y-95833333D01*
X185000000Y-95785714D01*
X185190476Y-95785714D01*
X185285714Y-95833333D01*
X185333333Y-95928571D01*
X185333333Y-96023809D01*
X184857142Y-96119047D01*
X180238095Y-88452380D02*
X180238095Y-87452380D01*
X180238095Y-87928571D02*
X180809523Y-87928571D01*
X180809523Y-88452380D02*
X180809523Y-87452380D01*
X181714285Y-87785714D02*
X181714285Y-88452380D01*
X181476190Y-87404761D02*
X181238095Y-88119047D01*
X181857142Y-88119047D01*
%TO.C,SW3*%
X135452380Y-166354761D02*
X135595238Y-166402380D01*
X135833333Y-166402380D01*
X135928571Y-166354761D01*
X135976190Y-166307142D01*
X136023809Y-166211904D01*
X136023809Y-166116666D01*
X135976190Y-166021428D01*
X135928571Y-165973809D01*
X135833333Y-165926190D01*
X135642857Y-165878571D01*
X135547619Y-165830952D01*
X135500000Y-165783333D01*
X135452380Y-165688095D01*
X135452380Y-165592857D01*
X135500000Y-165497619D01*
X135547619Y-165450000D01*
X135642857Y-165402380D01*
X135880952Y-165402380D01*
X136023809Y-165450000D01*
X136357142Y-165402380D02*
X136595238Y-166402380D01*
X136785714Y-165688095D01*
X136976190Y-166402380D01*
X137214285Y-165402380D01*
X137357142Y-166497619D02*
X138119047Y-166497619D01*
X138357142Y-166402380D02*
X138357142Y-165402380D01*
X138738095Y-165402380D01*
X138833333Y-165450000D01*
X138880952Y-165497619D01*
X138928571Y-165592857D01*
X138928571Y-165735714D01*
X138880952Y-165830952D01*
X138833333Y-165878571D01*
X138738095Y-165926190D01*
X138357142Y-165926190D01*
X139785714Y-165735714D02*
X139785714Y-166402380D01*
X139357142Y-165735714D02*
X139357142Y-166259523D01*
X139404761Y-166354761D01*
X139500000Y-166402380D01*
X139642857Y-166402380D01*
X139738095Y-166354761D01*
X139785714Y-166307142D01*
X140214285Y-166354761D02*
X140309523Y-166402380D01*
X140500000Y-166402380D01*
X140595238Y-166354761D01*
X140642857Y-166259523D01*
X140642857Y-166211904D01*
X140595238Y-166116666D01*
X140500000Y-166069047D01*
X140357142Y-166069047D01*
X140261904Y-166021428D01*
X140214285Y-165926190D01*
X140214285Y-165878571D01*
X140261904Y-165783333D01*
X140357142Y-165735714D01*
X140500000Y-165735714D01*
X140595238Y-165783333D01*
X141071428Y-166402380D02*
X141071428Y-165402380D01*
X141500000Y-166402380D02*
X141500000Y-165878571D01*
X141452380Y-165783333D01*
X141357142Y-165735714D01*
X141214285Y-165735714D01*
X141119047Y-165783333D01*
X141071428Y-165830952D01*
X136666666Y-161904761D02*
X136809523Y-161952380D01*
X137047619Y-161952380D01*
X137142857Y-161904761D01*
X137190476Y-161857142D01*
X137238095Y-161761904D01*
X137238095Y-161666666D01*
X137190476Y-161571428D01*
X137142857Y-161523809D01*
X137047619Y-161476190D01*
X136857142Y-161428571D01*
X136761904Y-161380952D01*
X136714285Y-161333333D01*
X136666666Y-161238095D01*
X136666666Y-161142857D01*
X136714285Y-161047619D01*
X136761904Y-161000000D01*
X136857142Y-160952380D01*
X137095238Y-160952380D01*
X137238095Y-161000000D01*
X137571428Y-160952380D02*
X137809523Y-161952380D01*
X138000000Y-161238095D01*
X138190476Y-161952380D01*
X138428571Y-160952380D01*
X138714285Y-160952380D02*
X139333333Y-160952380D01*
X139000000Y-161333333D01*
X139142857Y-161333333D01*
X139238095Y-161380952D01*
X139285714Y-161428571D01*
X139333333Y-161523809D01*
X139333333Y-161761904D01*
X139285714Y-161857142D01*
X139238095Y-161904761D01*
X139142857Y-161952380D01*
X138857142Y-161952380D01*
X138761904Y-161904761D01*
X138714285Y-161857142D01*
%TO.C,SW9*%
X171452380Y-216354761D02*
X171595238Y-216402380D01*
X171833333Y-216402380D01*
X171928571Y-216354761D01*
X171976190Y-216307142D01*
X172023809Y-216211904D01*
X172023809Y-216116666D01*
X171976190Y-216021428D01*
X171928571Y-215973809D01*
X171833333Y-215926190D01*
X171642857Y-215878571D01*
X171547619Y-215830952D01*
X171500000Y-215783333D01*
X171452380Y-215688095D01*
X171452380Y-215592857D01*
X171500000Y-215497619D01*
X171547619Y-215450000D01*
X171642857Y-215402380D01*
X171880952Y-215402380D01*
X172023809Y-215450000D01*
X172357142Y-215402380D02*
X172595238Y-216402380D01*
X172785714Y-215688095D01*
X172976190Y-216402380D01*
X173214285Y-215402380D01*
X173357142Y-216497619D02*
X174119047Y-216497619D01*
X174357142Y-216402380D02*
X174357142Y-215402380D01*
X174738095Y-215402380D01*
X174833333Y-215450000D01*
X174880952Y-215497619D01*
X174928571Y-215592857D01*
X174928571Y-215735714D01*
X174880952Y-215830952D01*
X174833333Y-215878571D01*
X174738095Y-215926190D01*
X174357142Y-215926190D01*
X175785714Y-215735714D02*
X175785714Y-216402380D01*
X175357142Y-215735714D02*
X175357142Y-216259523D01*
X175404761Y-216354761D01*
X175500000Y-216402380D01*
X175642857Y-216402380D01*
X175738095Y-216354761D01*
X175785714Y-216307142D01*
X176214285Y-216354761D02*
X176309523Y-216402380D01*
X176500000Y-216402380D01*
X176595238Y-216354761D01*
X176642857Y-216259523D01*
X176642857Y-216211904D01*
X176595238Y-216116666D01*
X176500000Y-216069047D01*
X176357142Y-216069047D01*
X176261904Y-216021428D01*
X176214285Y-215926190D01*
X176214285Y-215878571D01*
X176261904Y-215783333D01*
X176357142Y-215735714D01*
X176500000Y-215735714D01*
X176595238Y-215783333D01*
X177071428Y-216402380D02*
X177071428Y-215402380D01*
X177500000Y-216402380D02*
X177500000Y-215878571D01*
X177452380Y-215783333D01*
X177357142Y-215735714D01*
X177214285Y-215735714D01*
X177119047Y-215783333D01*
X177071428Y-215830952D01*
X172666666Y-211904761D02*
X172809523Y-211952380D01*
X173047619Y-211952380D01*
X173142857Y-211904761D01*
X173190476Y-211857142D01*
X173238095Y-211761904D01*
X173238095Y-211666666D01*
X173190476Y-211571428D01*
X173142857Y-211523809D01*
X173047619Y-211476190D01*
X172857142Y-211428571D01*
X172761904Y-211380952D01*
X172714285Y-211333333D01*
X172666666Y-211238095D01*
X172666666Y-211142857D01*
X172714285Y-211047619D01*
X172761904Y-211000000D01*
X172857142Y-210952380D01*
X173095238Y-210952380D01*
X173238095Y-211000000D01*
X173571428Y-210952380D02*
X173809523Y-211952380D01*
X174000000Y-211238095D01*
X174190476Y-211952380D01*
X174428571Y-210952380D01*
X174857142Y-211952380D02*
X175047619Y-211952380D01*
X175142857Y-211904761D01*
X175190476Y-211857142D01*
X175285714Y-211714285D01*
X175333333Y-211523809D01*
X175333333Y-211142857D01*
X175285714Y-211047619D01*
X175238095Y-211000000D01*
X175142857Y-210952380D01*
X174952380Y-210952380D01*
X174857142Y-211000000D01*
X174809523Y-211047619D01*
X174761904Y-211142857D01*
X174761904Y-211380952D01*
X174809523Y-211476190D01*
X174857142Y-211523809D01*
X174952380Y-211571428D01*
X175142857Y-211571428D01*
X175238095Y-211523809D01*
X175285714Y-211476190D01*
X175333333Y-211380952D01*
%TO.C,SW2*%
X123452380Y-178854761D02*
X123595238Y-178902380D01*
X123833333Y-178902380D01*
X123928571Y-178854761D01*
X123976190Y-178807142D01*
X124023809Y-178711904D01*
X124023809Y-178616666D01*
X123976190Y-178521428D01*
X123928571Y-178473809D01*
X123833333Y-178426190D01*
X123642857Y-178378571D01*
X123547619Y-178330952D01*
X123500000Y-178283333D01*
X123452380Y-178188095D01*
X123452380Y-178092857D01*
X123500000Y-177997619D01*
X123547619Y-177950000D01*
X123642857Y-177902380D01*
X123880952Y-177902380D01*
X124023809Y-177950000D01*
X124357142Y-177902380D02*
X124595238Y-178902380D01*
X124785714Y-178188095D01*
X124976190Y-178902380D01*
X125214285Y-177902380D01*
X125357142Y-178997619D02*
X126119047Y-178997619D01*
X126357142Y-178902380D02*
X126357142Y-177902380D01*
X126738095Y-177902380D01*
X126833333Y-177950000D01*
X126880952Y-177997619D01*
X126928571Y-178092857D01*
X126928571Y-178235714D01*
X126880952Y-178330952D01*
X126833333Y-178378571D01*
X126738095Y-178426190D01*
X126357142Y-178426190D01*
X127785714Y-178235714D02*
X127785714Y-178902380D01*
X127357142Y-178235714D02*
X127357142Y-178759523D01*
X127404761Y-178854761D01*
X127500000Y-178902380D01*
X127642857Y-178902380D01*
X127738095Y-178854761D01*
X127785714Y-178807142D01*
X128214285Y-178854761D02*
X128309523Y-178902380D01*
X128500000Y-178902380D01*
X128595238Y-178854761D01*
X128642857Y-178759523D01*
X128642857Y-178711904D01*
X128595238Y-178616666D01*
X128500000Y-178569047D01*
X128357142Y-178569047D01*
X128261904Y-178521428D01*
X128214285Y-178426190D01*
X128214285Y-178378571D01*
X128261904Y-178283333D01*
X128357142Y-178235714D01*
X128500000Y-178235714D01*
X128595238Y-178283333D01*
X129071428Y-178902380D02*
X129071428Y-177902380D01*
X129500000Y-178902380D02*
X129500000Y-178378571D01*
X129452380Y-178283333D01*
X129357142Y-178235714D01*
X129214285Y-178235714D01*
X129119047Y-178283333D01*
X129071428Y-178330952D01*
X124666666Y-174404761D02*
X124809523Y-174452380D01*
X125047619Y-174452380D01*
X125142857Y-174404761D01*
X125190476Y-174357142D01*
X125238095Y-174261904D01*
X125238095Y-174166666D01*
X125190476Y-174071428D01*
X125142857Y-174023809D01*
X125047619Y-173976190D01*
X124857142Y-173928571D01*
X124761904Y-173880952D01*
X124714285Y-173833333D01*
X124666666Y-173738095D01*
X124666666Y-173642857D01*
X124714285Y-173547619D01*
X124761904Y-173500000D01*
X124857142Y-173452380D01*
X125095238Y-173452380D01*
X125238095Y-173500000D01*
X125571428Y-173452380D02*
X125809523Y-174452380D01*
X126000000Y-173738095D01*
X126190476Y-174452380D01*
X126428571Y-173452380D01*
X126761904Y-173547619D02*
X126809523Y-173500000D01*
X126904761Y-173452380D01*
X127142857Y-173452380D01*
X127238095Y-173500000D01*
X127285714Y-173547619D01*
X127333333Y-173642857D01*
X127333333Y-173738095D01*
X127285714Y-173880952D01*
X126714285Y-174452380D01*
X127333333Y-174452380D01*
%TO.C,SW7*%
X123452380Y-216354761D02*
X123595238Y-216402380D01*
X123833333Y-216402380D01*
X123928571Y-216354761D01*
X123976190Y-216307142D01*
X124023809Y-216211904D01*
X124023809Y-216116666D01*
X123976190Y-216021428D01*
X123928571Y-215973809D01*
X123833333Y-215926190D01*
X123642857Y-215878571D01*
X123547619Y-215830952D01*
X123500000Y-215783333D01*
X123452380Y-215688095D01*
X123452380Y-215592857D01*
X123500000Y-215497619D01*
X123547619Y-215450000D01*
X123642857Y-215402380D01*
X123880952Y-215402380D01*
X124023809Y-215450000D01*
X124357142Y-215402380D02*
X124595238Y-216402380D01*
X124785714Y-215688095D01*
X124976190Y-216402380D01*
X125214285Y-215402380D01*
X125357142Y-216497619D02*
X126119047Y-216497619D01*
X126357142Y-216402380D02*
X126357142Y-215402380D01*
X126738095Y-215402380D01*
X126833333Y-215450000D01*
X126880952Y-215497619D01*
X126928571Y-215592857D01*
X126928571Y-215735714D01*
X126880952Y-215830952D01*
X126833333Y-215878571D01*
X126738095Y-215926190D01*
X126357142Y-215926190D01*
X127785714Y-215735714D02*
X127785714Y-216402380D01*
X127357142Y-215735714D02*
X127357142Y-216259523D01*
X127404761Y-216354761D01*
X127500000Y-216402380D01*
X127642857Y-216402380D01*
X127738095Y-216354761D01*
X127785714Y-216307142D01*
X128214285Y-216354761D02*
X128309523Y-216402380D01*
X128500000Y-216402380D01*
X128595238Y-216354761D01*
X128642857Y-216259523D01*
X128642857Y-216211904D01*
X128595238Y-216116666D01*
X128500000Y-216069047D01*
X128357142Y-216069047D01*
X128261904Y-216021428D01*
X128214285Y-215926190D01*
X128214285Y-215878571D01*
X128261904Y-215783333D01*
X128357142Y-215735714D01*
X128500000Y-215735714D01*
X128595238Y-215783333D01*
X129071428Y-216402380D02*
X129071428Y-215402380D01*
X129500000Y-216402380D02*
X129500000Y-215878571D01*
X129452380Y-215783333D01*
X129357142Y-215735714D01*
X129214285Y-215735714D01*
X129119047Y-215783333D01*
X129071428Y-215830952D01*
X124666666Y-211904761D02*
X124809523Y-211952380D01*
X125047619Y-211952380D01*
X125142857Y-211904761D01*
X125190476Y-211857142D01*
X125238095Y-211761904D01*
X125238095Y-211666666D01*
X125190476Y-211571428D01*
X125142857Y-211523809D01*
X125047619Y-211476190D01*
X124857142Y-211428571D01*
X124761904Y-211380952D01*
X124714285Y-211333333D01*
X124666666Y-211238095D01*
X124666666Y-211142857D01*
X124714285Y-211047619D01*
X124761904Y-211000000D01*
X124857142Y-210952380D01*
X125095238Y-210952380D01*
X125238095Y-211000000D01*
X125571428Y-210952380D02*
X125809523Y-211952380D01*
X126000000Y-211238095D01*
X126190476Y-211952380D01*
X126428571Y-210952380D01*
X126714285Y-210952380D02*
X127380952Y-210952380D01*
X126952380Y-211952380D01*
%TO.C,H1*%
X114714285Y-96452380D02*
X114714285Y-95452380D01*
X115047619Y-96166666D01*
X115380952Y-95452380D01*
X115380952Y-96452380D01*
X116000000Y-96452380D02*
X115904761Y-96404761D01*
X115857142Y-96357142D01*
X115809523Y-96261904D01*
X115809523Y-95976190D01*
X115857142Y-95880952D01*
X115904761Y-95833333D01*
X116000000Y-95785714D01*
X116142857Y-95785714D01*
X116238095Y-95833333D01*
X116285714Y-95880952D01*
X116333333Y-95976190D01*
X116333333Y-96261904D01*
X116285714Y-96357142D01*
X116238095Y-96404761D01*
X116142857Y-96452380D01*
X116000000Y-96452380D01*
X117190476Y-95785714D02*
X117190476Y-96452380D01*
X116761904Y-95785714D02*
X116761904Y-96309523D01*
X116809523Y-96404761D01*
X116904761Y-96452380D01*
X117047619Y-96452380D01*
X117142857Y-96404761D01*
X117190476Y-96357142D01*
X117666666Y-95785714D02*
X117666666Y-96452380D01*
X117666666Y-95880952D02*
X117714285Y-95833333D01*
X117809523Y-95785714D01*
X117952380Y-95785714D01*
X118047619Y-95833333D01*
X118095238Y-95928571D01*
X118095238Y-96452380D01*
X118428571Y-95785714D02*
X118809523Y-95785714D01*
X118571428Y-95452380D02*
X118571428Y-96309523D01*
X118619047Y-96404761D01*
X118714285Y-96452380D01*
X118809523Y-96452380D01*
X119142857Y-96452380D02*
X119142857Y-95785714D01*
X119142857Y-95452380D02*
X119095238Y-95500000D01*
X119142857Y-95547619D01*
X119190476Y-95500000D01*
X119142857Y-95452380D01*
X119142857Y-95547619D01*
X119619047Y-95785714D02*
X119619047Y-96452380D01*
X119619047Y-95880952D02*
X119666666Y-95833333D01*
X119761904Y-95785714D01*
X119904761Y-95785714D01*
X120000000Y-95833333D01*
X120047619Y-95928571D01*
X120047619Y-96452380D01*
X120952380Y-95785714D02*
X120952380Y-96595238D01*
X120904761Y-96690476D01*
X120857142Y-96738095D01*
X120761904Y-96785714D01*
X120619047Y-96785714D01*
X120523809Y-96738095D01*
X120952380Y-96404761D02*
X120857142Y-96452380D01*
X120666666Y-96452380D01*
X120571428Y-96404761D01*
X120523809Y-96357142D01*
X120476190Y-96261904D01*
X120476190Y-95976190D01*
X120523809Y-95880952D01*
X120571428Y-95833333D01*
X120666666Y-95785714D01*
X120857142Y-95785714D01*
X120952380Y-95833333D01*
X121428571Y-96452380D02*
X121428571Y-95452380D01*
X121428571Y-95928571D02*
X122000000Y-95928571D01*
X122000000Y-96452380D02*
X122000000Y-95452380D01*
X122619047Y-96452380D02*
X122523809Y-96404761D01*
X122476190Y-96357142D01*
X122428571Y-96261904D01*
X122428571Y-95976190D01*
X122476190Y-95880952D01*
X122523809Y-95833333D01*
X122619047Y-95785714D01*
X122761904Y-95785714D01*
X122857142Y-95833333D01*
X122904761Y-95880952D01*
X122952380Y-95976190D01*
X122952380Y-96261904D01*
X122904761Y-96357142D01*
X122857142Y-96404761D01*
X122761904Y-96452380D01*
X122619047Y-96452380D01*
X123523809Y-96452380D02*
X123428571Y-96404761D01*
X123380952Y-96309523D01*
X123380952Y-95452380D01*
X124285714Y-96404761D02*
X124190476Y-96452380D01*
X124000000Y-96452380D01*
X123904761Y-96404761D01*
X123857142Y-96309523D01*
X123857142Y-95928571D01*
X123904761Y-95833333D01*
X124000000Y-95785714D01*
X124190476Y-95785714D01*
X124285714Y-95833333D01*
X124333333Y-95928571D01*
X124333333Y-96023809D01*
X123857142Y-96119047D01*
X118738095Y-92452380D02*
X118738095Y-91452380D01*
X118738095Y-91928571D02*
X119309523Y-91928571D01*
X119309523Y-92452380D02*
X119309523Y-91452380D01*
X120309523Y-92452380D02*
X119738095Y-92452380D01*
X120023809Y-92452380D02*
X120023809Y-91452380D01*
X119928571Y-91595238D01*
X119833333Y-91690476D01*
X119738095Y-91738095D01*
%TO.C,SW4*%
X135452380Y-191354761D02*
X135595238Y-191402380D01*
X135833333Y-191402380D01*
X135928571Y-191354761D01*
X135976190Y-191307142D01*
X136023809Y-191211904D01*
X136023809Y-191116666D01*
X135976190Y-191021428D01*
X135928571Y-190973809D01*
X135833333Y-190926190D01*
X135642857Y-190878571D01*
X135547619Y-190830952D01*
X135500000Y-190783333D01*
X135452380Y-190688095D01*
X135452380Y-190592857D01*
X135500000Y-190497619D01*
X135547619Y-190450000D01*
X135642857Y-190402380D01*
X135880952Y-190402380D01*
X136023809Y-190450000D01*
X136357142Y-190402380D02*
X136595238Y-191402380D01*
X136785714Y-190688095D01*
X136976190Y-191402380D01*
X137214285Y-190402380D01*
X137357142Y-191497619D02*
X138119047Y-191497619D01*
X138357142Y-191402380D02*
X138357142Y-190402380D01*
X138738095Y-190402380D01*
X138833333Y-190450000D01*
X138880952Y-190497619D01*
X138928571Y-190592857D01*
X138928571Y-190735714D01*
X138880952Y-190830952D01*
X138833333Y-190878571D01*
X138738095Y-190926190D01*
X138357142Y-190926190D01*
X139785714Y-190735714D02*
X139785714Y-191402380D01*
X139357142Y-190735714D02*
X139357142Y-191259523D01*
X139404761Y-191354761D01*
X139500000Y-191402380D01*
X139642857Y-191402380D01*
X139738095Y-191354761D01*
X139785714Y-191307142D01*
X140214285Y-191354761D02*
X140309523Y-191402380D01*
X140500000Y-191402380D01*
X140595238Y-191354761D01*
X140642857Y-191259523D01*
X140642857Y-191211904D01*
X140595238Y-191116666D01*
X140500000Y-191069047D01*
X140357142Y-191069047D01*
X140261904Y-191021428D01*
X140214285Y-190926190D01*
X140214285Y-190878571D01*
X140261904Y-190783333D01*
X140357142Y-190735714D01*
X140500000Y-190735714D01*
X140595238Y-190783333D01*
X141071428Y-191402380D02*
X141071428Y-190402380D01*
X141500000Y-191402380D02*
X141500000Y-190878571D01*
X141452380Y-190783333D01*
X141357142Y-190735714D01*
X141214285Y-190735714D01*
X141119047Y-190783333D01*
X141071428Y-190830952D01*
X136666666Y-186904761D02*
X136809523Y-186952380D01*
X137047619Y-186952380D01*
X137142857Y-186904761D01*
X137190476Y-186857142D01*
X137238095Y-186761904D01*
X137238095Y-186666666D01*
X137190476Y-186571428D01*
X137142857Y-186523809D01*
X137047619Y-186476190D01*
X136857142Y-186428571D01*
X136761904Y-186380952D01*
X136714285Y-186333333D01*
X136666666Y-186238095D01*
X136666666Y-186142857D01*
X136714285Y-186047619D01*
X136761904Y-186000000D01*
X136857142Y-185952380D01*
X137095238Y-185952380D01*
X137238095Y-186000000D01*
X137571428Y-185952380D02*
X137809523Y-186952380D01*
X138000000Y-186238095D01*
X138190476Y-186952380D01*
X138428571Y-185952380D01*
X139238095Y-186285714D02*
X139238095Y-186952380D01*
X139000000Y-185904761D02*
X138761904Y-186619047D01*
X139380952Y-186619047D01*
%TO.C,SW6*%
X171452380Y-178854761D02*
X171595238Y-178902380D01*
X171833333Y-178902380D01*
X171928571Y-178854761D01*
X171976190Y-178807142D01*
X172023809Y-178711904D01*
X172023809Y-178616666D01*
X171976190Y-178521428D01*
X171928571Y-178473809D01*
X171833333Y-178426190D01*
X171642857Y-178378571D01*
X171547619Y-178330952D01*
X171500000Y-178283333D01*
X171452380Y-178188095D01*
X171452380Y-178092857D01*
X171500000Y-177997619D01*
X171547619Y-177950000D01*
X171642857Y-177902380D01*
X171880952Y-177902380D01*
X172023809Y-177950000D01*
X172357142Y-177902380D02*
X172595238Y-178902380D01*
X172785714Y-178188095D01*
X172976190Y-178902380D01*
X173214285Y-177902380D01*
X173357142Y-178997619D02*
X174119047Y-178997619D01*
X174357142Y-178902380D02*
X174357142Y-177902380D01*
X174738095Y-177902380D01*
X174833333Y-177950000D01*
X174880952Y-177997619D01*
X174928571Y-178092857D01*
X174928571Y-178235714D01*
X174880952Y-178330952D01*
X174833333Y-178378571D01*
X174738095Y-178426190D01*
X174357142Y-178426190D01*
X175785714Y-178235714D02*
X175785714Y-178902380D01*
X175357142Y-178235714D02*
X175357142Y-178759523D01*
X175404761Y-178854761D01*
X175500000Y-178902380D01*
X175642857Y-178902380D01*
X175738095Y-178854761D01*
X175785714Y-178807142D01*
X176214285Y-178854761D02*
X176309523Y-178902380D01*
X176500000Y-178902380D01*
X176595238Y-178854761D01*
X176642857Y-178759523D01*
X176642857Y-178711904D01*
X176595238Y-178616666D01*
X176500000Y-178569047D01*
X176357142Y-178569047D01*
X176261904Y-178521428D01*
X176214285Y-178426190D01*
X176214285Y-178378571D01*
X176261904Y-178283333D01*
X176357142Y-178235714D01*
X176500000Y-178235714D01*
X176595238Y-178283333D01*
X177071428Y-178902380D02*
X177071428Y-177902380D01*
X177500000Y-178902380D02*
X177500000Y-178378571D01*
X177452380Y-178283333D01*
X177357142Y-178235714D01*
X177214285Y-178235714D01*
X177119047Y-178283333D01*
X177071428Y-178330952D01*
X172666666Y-174404761D02*
X172809523Y-174452380D01*
X173047619Y-174452380D01*
X173142857Y-174404761D01*
X173190476Y-174357142D01*
X173238095Y-174261904D01*
X173238095Y-174166666D01*
X173190476Y-174071428D01*
X173142857Y-174023809D01*
X173047619Y-173976190D01*
X172857142Y-173928571D01*
X172761904Y-173880952D01*
X172714285Y-173833333D01*
X172666666Y-173738095D01*
X172666666Y-173642857D01*
X172714285Y-173547619D01*
X172761904Y-173500000D01*
X172857142Y-173452380D01*
X173095238Y-173452380D01*
X173238095Y-173500000D01*
X173571428Y-173452380D02*
X173809523Y-174452380D01*
X174000000Y-173738095D01*
X174190476Y-174452380D01*
X174428571Y-173452380D01*
X175238095Y-173452380D02*
X175047619Y-173452380D01*
X174952380Y-173500000D01*
X174904761Y-173547619D01*
X174809523Y-173690476D01*
X174761904Y-173880952D01*
X174761904Y-174261904D01*
X174809523Y-174357142D01*
X174857142Y-174404761D01*
X174952380Y-174452380D01*
X175142857Y-174452380D01*
X175238095Y-174404761D01*
X175285714Y-174357142D01*
X175333333Y-174261904D01*
X175333333Y-174023809D01*
X175285714Y-173928571D01*
X175238095Y-173880952D01*
X175142857Y-173833333D01*
X174952380Y-173833333D01*
X174857142Y-173880952D01*
X174809523Y-173928571D01*
X174761904Y-174023809D01*
D11*
%TO.C,SW11*%
X150000000Y-233500000D02*
X153000000Y-233500000D01*
X147000000Y-233500000D02*
X150000000Y-233500000D01*
X153000000Y-233500000D02*
X153000000Y-239500000D01*
X147000000Y-239500000D02*
X147000000Y-233500000D01*
X153000000Y-239500000D02*
X147000000Y-239500000D01*
X152015564Y-236500000D02*
G75*
G03*
X152015564Y-236500000I-2015564J0D01*
G01*
%TO.C,SW5*%
X150000000Y-171000000D02*
X153000000Y-171000000D01*
X153000000Y-177000000D02*
X147000000Y-177000000D01*
X153000000Y-171000000D02*
X153000000Y-177000000D01*
X147000000Y-171000000D02*
X150000000Y-171000000D01*
X147000000Y-177000000D02*
X147000000Y-171000000D01*
X152015564Y-174000000D02*
G75*
G03*
X152015564Y-174000000I-2015564J0D01*
G01*
%TO.C,SW8*%
X153000000Y-208500000D02*
X153000000Y-214500000D01*
X147000000Y-208500000D02*
X150000000Y-208500000D01*
X153000000Y-214500000D02*
X147000000Y-214500000D01*
X147000000Y-214500000D02*
X147000000Y-208500000D01*
X150000000Y-208500000D02*
X153000000Y-208500000D01*
X152015564Y-211500000D02*
G75*
G03*
X152015564Y-211500000I-2015564J0D01*
G01*
%TO.C,SW10*%
X129000000Y-233500000D02*
X129000000Y-239500000D01*
X126000000Y-233500000D02*
X129000000Y-233500000D01*
X123000000Y-239500000D02*
X123000000Y-233500000D01*
X123000000Y-233500000D02*
X126000000Y-233500000D01*
X129000000Y-239500000D02*
X123000000Y-239500000D01*
X128015564Y-236500000D02*
G75*
G03*
X128015564Y-236500000I-2015564J0D01*
G01*
%TO.C,SW12*%
X171000000Y-239500000D02*
X171000000Y-233500000D01*
X174000000Y-233500000D02*
X177000000Y-233500000D01*
X171000000Y-233500000D02*
X174000000Y-233500000D01*
X177000000Y-233500000D02*
X177000000Y-239500000D01*
X177000000Y-239500000D02*
X171000000Y-239500000D01*
X176015564Y-236500000D02*
G75*
G03*
X176015564Y-236500000I-2015564J0D01*
G01*
%TO.C,SW1*%
X174000000Y-158500000D02*
X177000000Y-158500000D01*
X171000000Y-158500000D02*
X174000000Y-158500000D01*
X177000000Y-164500000D02*
X171000000Y-164500000D01*
X177000000Y-158500000D02*
X177000000Y-164500000D01*
X171000000Y-164500000D02*
X171000000Y-158500000D01*
X176015564Y-161500000D02*
G75*
G03*
X176015564Y-161500000I-2015564J0D01*
G01*
%TO.C,SW3*%
X141000000Y-158500000D02*
X141000000Y-164500000D01*
X135000000Y-158500000D02*
X138000000Y-158500000D01*
X141000000Y-164500000D02*
X135000000Y-164500000D01*
X135000000Y-164500000D02*
X135000000Y-158500000D01*
X138000000Y-158500000D02*
X141000000Y-158500000D01*
X140015564Y-161500000D02*
G75*
G03*
X140015564Y-161500000I-2015564J0D01*
G01*
%TO.C,SW9*%
X177000000Y-208500000D02*
X177000000Y-214500000D01*
X171000000Y-208500000D02*
X174000000Y-208500000D01*
X171000000Y-214500000D02*
X171000000Y-208500000D01*
X174000000Y-208500000D02*
X177000000Y-208500000D01*
X177000000Y-214500000D02*
X171000000Y-214500000D01*
X176015564Y-211500000D02*
G75*
G03*
X176015564Y-211500000I-2015564J0D01*
G01*
%TO.C,SW2*%
X123000000Y-177000000D02*
X123000000Y-171000000D01*
X126000000Y-171000000D02*
X129000000Y-171000000D01*
X129000000Y-171000000D02*
X129000000Y-177000000D01*
X123000000Y-171000000D02*
X126000000Y-171000000D01*
X129000000Y-177000000D02*
X123000000Y-177000000D01*
X128015564Y-174000000D02*
G75*
G03*
X128015564Y-174000000I-2015564J0D01*
G01*
%TO.C,SW7*%
X123000000Y-208500000D02*
X126000000Y-208500000D01*
X129000000Y-208500000D02*
X129000000Y-214500000D01*
X126000000Y-208500000D02*
X129000000Y-208500000D01*
X123000000Y-214500000D02*
X123000000Y-208500000D01*
X129000000Y-214500000D02*
X123000000Y-214500000D01*
X128015564Y-211500000D02*
G75*
G03*
X128015564Y-211500000I-2015564J0D01*
G01*
%TO.C,SW4*%
X138000000Y-183500000D02*
X141000000Y-183500000D01*
X141000000Y-189500000D02*
X135000000Y-189500000D01*
X141000000Y-183500000D02*
X141000000Y-189500000D01*
X135000000Y-189500000D02*
X135000000Y-183500000D01*
X135000000Y-183500000D02*
X138000000Y-183500000D01*
X140015564Y-186500000D02*
G75*
G03*
X140015564Y-186500000I-2015564J0D01*
G01*
%TO.C,SW6*%
X171000000Y-177000000D02*
X171000000Y-171000000D01*
X177000000Y-177000000D02*
X171000000Y-177000000D01*
X171000000Y-171000000D02*
X174000000Y-171000000D01*
X177000000Y-171000000D02*
X177000000Y-177000000D01*
X174000000Y-171000000D02*
X177000000Y-171000000D01*
X176015564Y-174000000D02*
G75*
G03*
X176015564Y-174000000I-2015564J0D01*
G01*
%TD*%
M02*
